/* XPM */
static char *enemy_6_1712245308[] = {
/* columns rows colors chars-per-pixel */
"64 64 236 2 ",
"   c #221F30",
".  c #211E2F",
"X  c #22232F",
"o  c #222B2C",
"O  c #32222F",
"+  c #3F2A2F",
"@  c #25372A",
"#  c #242231",
"$  c #2C2B35",
"%  c #2B2735",
"&  c #332631",
"*  c #322D3A",
"=  c #382A34",
"-  c #3B333C",
";  c #3C3339",
":  c #323B2C",
">  c #1D3130",
",  c #452B36",
"<  c #4A2D36",
"1  c #532E39",
"2  c #42353A",
"3  c #43383C",
"4  c #473233",
"5  c #5B3937",
"6  c #50302F",
"7  c #633932",
"8  c #6A3835",
"9  c #743430",
"0  c #24531F",
"q  c #285B1E",
"w  c #266319",
"e  c #276A19",
"r  c #35691D",
"t  c #277A12",
"y  c #277514",
"u  c #3A7A18",
"i  c #234225",
"p  c #264C23",
"a  c #38492A",
"s  c #285421",
"d  c #365526",
"f  c #3B4634",
"g  c #335137",
"h  c #196B27",
"j  c #11662D",
"k  c #2A7627",
"l  c #367B24",
"z  c #356323",
"x  c #164D2F",
"c  c #46781D",
"v  c #557E1E",
"b  c #435728",
"n  c #434A38",
"m  c #49563A",
"M  c #524B3A",
"N  c #754B38",
"B  c #6D4636",
"V  c #476426",
"C  c #5A7C21",
"Z  c #526B30",
"A  c #617439",
"S  c #3D3540",
"D  c #463D44",
"F  c #563A41",
"G  c #703A43",
"H  c #474047",
"J  c #4E454A",
"K  c #53494C",
"L  c #594C4E",
"P  c #564848",
"I  c #594D50",
"U  c #5D5353",
"Y  c #545C43",
"T  c #764D44",
"R  c #765648",
"E  c #655A58",
"W  c #675956",
"Q  c #68514A",
"!  c #5A6246",
"~  c #5F6855",
"^  c #76655A",
"/  c #6A6950",
"(  c #7B6A63",
")  c #7B7261",
"_  c #B22E1F",
"`  c #B3301E",
"'  c #812927",
"]  c #812928",
"[  c #833028",
"{  c #B22E21",
"}  c #B93925",
"|  c #85452F",
" . c #9C4D2F",
".. c #864833",
"X. c #934A30",
"o. c #994E31",
"O. c #975635",
"+. c #BC472A",
"@. c #A65532",
"#. c #AA502E",
"$. c #A8683A",
"%. c #BB6335",
"&. c #B9753E",
"*. c #C34B2A",
"=. c #C15A2F",
"-. c #C7552C",
";. c #CC5F30",
":. c #C35137",
">. c #C14E33",
",. c #D3622F",
"<. c #CD6132",
"1. c #C66935",
"2. c #D36531",
"3. c #D46932",
"4. c #D86C34",
"5. c #DC7537",
"6. c #DD7B3A",
"7. c #D77438",
"8. c #C6793D",
"9. c #E17F3B",
"0. c #8B3C46",
"q. c #8B4142",
"w. c #824041",
"e. c #994444",
"r. c #885447",
"t. c #915A4B",
"y. c #9B574B",
"u. c #A24B45",
"i. c #A24A46",
"p. c #A9554A",
"a. c #AC5C4D",
"s. c #A75147",
"d. c #B2594B",
"f. c #84695A",
"g. c #9A7559",
"h. c #976850",
"j. c #B2634F",
"k. c #B26350",
"l. c #B66A52",
"z. c #B96D53",
"x. c #A07B5E",
"c. c #AA7950",
"v. c #BE7759",
"b. c #BB7457",
"n. c #AC6848",
"m. c #836E66",
"M. c #847469",
"N. c #8C7B6D",
"B. c #897668",
"V. c #917C6F",
"C. c #947D72",
"Z. c #A67164",
"A. c #CE744F",
"S. c #CE766C",
"D. c #C86A62",
"F. c #29860E",
"G. c #2C8411",
"H. c #388714",
"J. c #3D8123",
"K. c #468A19",
"L. c #4A9216",
"P. c #5C9919",
"I. c #579419",
"U. c #5A8C1C",
"Y. c #6C9C1D",
"T. c #659A1C",
"R. c #6C981D",
"E. c #72A11D",
"W. c #6EA01B",
"Q. c #4A8922",
"!. c #558C22",
"~. c #599323",
"^. c #678C23",
"/. c #789537",
"(. c #70982A",
"). c #7BA823",
"_. c #71AA2B",
"`. c #7A8A66",
"'. c #7D9541",
"]. c #86A53B",
"[. c #8BB436",
"{. c #8AB62F",
"}. c #819F3D",
"|. c #DA863F",
" X c #CE803E",
".X c #E2833D",
"XX c #E68B3F",
"oX c #96C038",
"OX c #9D8376",
"+X c #9A8877",
"@X c #8D9572",
"#X c #B28A65",
"$X c #A48C7B",
"%X c #AA937E",
"&X c #A6937D",
"*X c #B08B67",
"=X c #A79550",
"-X c #D48D51",
";X c #E78D41",
":X c #E88D41",
">X c #E38740",
",X c #E59657",
"<X c #E7924B",
"1X c #C99367",
"2X c #C8976C",
"3X c #C8906B",
"4X c #E49C69",
"5X c #D9A36E",
"6X c #E9A969",
"7X c #E9B377",
"8X c #E9A159",
"9X c #AD9781",
"0X c #B29582",
"qX c #B39C85",
"wX c #BA9B86",
"eX c #BE9F8A",
"rX c #BDA48A",
"tX c #DB9B94",
"yX c #C5A68D",
"uX c #C6AF90",
"iX c #CCAB91",
"pX c #CAA791",
"aX c #D4AC96",
"sX c #CDB394",
"dX c #D5B296",
"fX c #D5BB97",
"gX c #D5B598",
"hX c #D7BD9A",
"jX c #D9BC9B",
"kX c #D8B998",
"lX c #C4B08F",
"zX c #D9BEA0",
"xX c #E9C2BB",
"cX c #FFFFFF",
"vX c #F6E7E4",
"bX c #EFD3D0",
/* pixels */
"hXhXhXhXhXhXhXhXhXhXhXhXhXhXhXhXhXhXhXhXhXhXhXhX9XE J J P P K K K U &XhXhXhXhXhXhXhXhXhXhXhXhXhXhXhXhXhXhXhXhXhXhXhXhXhXhXhXhXhX",
"hXhXhXhXhXhXhXhXhXhXhXhXhXhXhXhXhXhXhXhXsXqX&X&XN.U P P P M M 5 5 M B.%X%XqXsXfXhXhXhXhXhXhXhXhXhXhXhXhXhXhXhXhXhXhXhXzXhXhXhXhX",
"hXhXhXhXhXhXfXfXhXhXhXhXhXhXhXhXhXhXhXhXrX/ D H / #X5X2X5X2X#X8.8.$.R D H E qXhXhXhXhXhXhXhXhXhXhXhXhXhXhXhXhXhXhXhXhXhXhXhXhXhX",
"hXhXhXhXhXsX&X+X+X+X+XqXhXhXhXhXhXhXfX9X+XE Q Q g.5X6X6X6X6X8X;X;X>XO.M 5 N B.%XsXhXhXhXhXhXhXhXhXhXhXhXhXhXhXhXhXhXhXhXzXhXhXhX",
"hXhXhXhXhXrXU ; - - - ( sXgXhXhXhXhXrX^ L #X5X5X4X<X<X<X<X<X;X;X:X;X X8.%.o.M E rXhXhXhXjXjXhXhXhXhXhXhXhXhXhXhXhXhXhXhXhXhXhXhX",
"hXhXhXsX&XM.^ R N B 8 R @XB.N.N.OXN.N.^ h.1X6X6X8X<XXX:XXXXX;XXX.X.X.XXX5.1.| T M.9XsXhXhXqXN.N.+XrXhXhXhXhXhXhXhXhXhXhXhXhXhXhX",
"hXhXhXrXW P #X6X-X7.=...* $ * $ $ $ - *X6X,X<X<X;XXXXXXX:X:X;XXX5.2.6.;X;X6.1.o.4 ^ rXhXjXM.$ $ S +XhXzXhXhXhXhXhXhXjXhXhXhXhXhX",
"hXfX+XM.^ g.5X-X$.$.3.%.N <   6 B B O.-X,XA.<.<.1.<.<.<.3.2.6.XX6.5..X;X;X.X4. .; U lXrXM.! s b A / N.rXhXhXhXhXhXhXhXhXhXhXhXhX",
"hXuXE 3 #X7X,X$.; B 7.6.,.N . | ,.|.XXXX6.*.{ { ` { _ _ _ _ 2.:X:X;X;X:X:X.X4.o.+ E lXB.O 0 F._.oXZ - +XhXhXhXhXhXhXhXhXhXhXhXhX",
"hXuXE - #X6XA.#.[ 7 N $.7.#.9  .,.6.XXXX5.*.:.S.tXtXtXtXD.{ ;.:X:X;XXX;X:X.X6.1.X.R ^ ! 0 u L._.[._./ ^ @XrXhXhXhXhXhXhXhXhXhXhX",
"jXsXE 2 #X8X:.} ` ' O N >X,._ *.3.6.;X;X6.*.D.bXcXcXcXcXaX{ ,.:X;X:X:X;X;X;X:X.X3.X.& p t L.R.E.E.[.[.m D &XhXhXhXhXhXhXhXhXhXhX",
"hXuXE , c.<X+.{ ` 9 O R 4X5.*.,.6.XX;X;X6.+.z.bXcXcXcXcXtX} 3.XX;XXX:X;X:X;X;X6.3.X.O > p a b c L._./.b D &XhXhXhXhXhXhXhXhXzXhX",
"hXuXE ; n.6.+.{ _ 9 O ^ 7X,X;.7.;X;X;XXX6.*.A.xXvXvXvXvXtX} <.XX:X:X:X;X;X;X;X.X3.X.& o o o o w H.P.^.a H &XhXhXhXhXhXhXhXhXhXhX",
"hXlXE 2 b.,X+.{ _ ' O ^ 7X,X<.6.;X:X;X;X.X3.A.S.S.S.S.S.A.3.A.XX:X;X;X;X;X;XXX.X3.X.& @ q w w u P.Y.^.a H &XhXhXhXhXhXhXhXhXhXhX",
"hXlXE 2 #X4X>._ _ ' & R 6X<X2.5.;X;X;X:XXX:X6.>.} } } +.2.;X;X:X;X;X;X;X;X;X;X.X3.X.O i y t F.L.T.^.C m U qXhXhXhXhXhXhXhXhXhXhX",
"hXlXW 2 #X4X>._ _ ' & N <XA.2.6.;X;X:X:X:X:X>X6.7.7.7.5.|.;X;X;X;X;X;X;X;X;X;X.X3.X.& o i w F.F.H.z b B.rXsXhXhXhXhXhXhXhXhXhXhX",
"hXuXE 3 #X4X+.{ _ ' O N |.5.,.5.:X:X;X;XXX;X:X;X:X;X:X;X;X:X;X;X;X;X;XXX.X.X:X.X3.X.O o @ 0 e e e d m B.qXsXhXhXhXhXhXhXhXhXhXhX",
"hXuXE 3 #X6X:.{ _ ' O N .X5.,.6.:X:X;X:X:X;X;X;X;X;X;X;X;X;X;X:X;XXX;X.X5.5.>X9.3.o.& i e 0 > @ : A }.! E qXhXhXhXhXhXhXhXhXhXhX",
"jXuXE ; #X,X:.{ _ ' O N |.6.,.5.:X:X:XXX;X:X;X;X;X;X;XXX:X;X;X;X;X;X;X;X5.5..X9.3.X.& p F.e a a n /.].b H %XhXhXhXhXhXhXjXhXhXhX",
"jXlXE 4 $.A.+.{ _ 9 O N |.5.,.9.:X:X:X:X;X;X;X;X;X:X;X;X;X;X;X;X;X;X;X;X;X.X;X|.3.X.O p t K.^.T.^.E.^.b D %XhXhXhXhXhXhXjXhXhXhX",
"hXlXW ; $.6.+.` _ ' O N |.4.*.,.6.XX;X;X;X;X;XXX;X:XXX;XXX:X.X.X|.9..XXX:X>X.X1. ...E m w u P.P.I.v Z ! M.yXhXhXhXhXhXhXhXhXhXhX",
"hXlXW + $.6.*.` _ 9 O N |.2.` *.3.|.;X;X;X:X:X;X:X:X;X;X;X:X6.,.,.3..X:X:X9.4.@.6 Q wX) $ s G.H.H.p - C.uXfXhXhXhXhXhXhXhXhXhXhX",
"hXlXE , @.5.;.#.[ 9 B $.5.#.9 #.,.6.:X;X;X:X;X;X:X:X.X6..X:X5.2.,.,.6.XX:X>X2. .+ U yX9X^ m 0 q q Y m.qXhXhXhXhXhXjXhXhXhXjXhXhX",
"hXuXE ,  .4.9.$.4 B 8.6.2.| # | ,.6.;X;X;X:X:XXXXX:X.X3.5.XX5.,.,.,..X:X:X9.4. .+ W yXiXiX( X X & B.iXaXkXhXhXhXhXhXhXhXhXhXhXhX",
"hXsX$X^ T X.1.%...@.7.$.N 6 . 6 | %.5.5.6..X;X;X;X;X|.6.|.XX.X5.5.5.5.5.5.1.X.N ^ $XpXdXdX$Xf.m.m.0XdXaXgXgXjXjXhXhXhXhXhXhXhXfX",
"hXhXhXrXU 4 @.<.;.;.;.| & % O # = | ;.;.2.|.;X;X;X;XXXXXXXXXXXXXXXXX7.;.;.#.6 U wXgXaXdXdXdXdXdXdXdXdXdXaXgXgXkXhXhXhXjXhXhXhXhX",
"hXfXhXsX&Xf.N 8 9 8 9 R m.m.m.m.m.R 9 B ..%.5.5.5.5.5.5.6.5.5.5.5.1.o.8 8 N ^ $XyXdXdXdXdXdXdXdXdXdXdXdXdXdXdXgXhXhXhXfXhXhXhXhX",
"hXhXfXhXjXqXU * * $ * ^ iXdXgXdXpX^ * * 1 o.=.=.=.=.=.=.+.-.%.-.=.%.7 * * L 0XdXdXdXdXdXdXdXdXdXdXdXdXdXdXdXdXdXfXhXzXzXhXhXhXhX",
"hXhXhXjXjXiX+XV.OXN.V.%XiXdXdXdXiX%XV.C.m.N 7 7 7 7 7 7 7 7 7 7 7 8 ^ C.C.$XyXaXdXdXdXdXdXdXaXgXdXdXdXdXdXdXdXdXdXgXgXhXzXjXjXhX",
"hXhXhXhXjXkXdXsXdXdXdXdXdXpXwXwXwXwXwXwXOXW S S S - S S * . % @ o = C.gXdXdXdXdXdXdXdXiXwXeXwXwXwXwXyXiXdXdXdXdXdXdXkXkXhXjXjXjX",
"hXhXhXhXgXdXdXdXdXdXdXdXdXOXL P L L L L W V.OXOXOXOX$XOXW # a C f * C.dXgXdXdXdXdXdXgX+XU L I I L L W %XdXdXdXdXdXiXdXfXfXhXhXhX",
"hXhXhXfXdXaXdXdXdXdXdXyX%X^ n n n : : @ f B.wXpXgXaXaXdXm.> V Y.b * C.dXaXdXdXpX0X%X%X^ : @ : : f n M B.0XpXdXdXgXdXsXdXkXhXhXhX",
"zXhXkXdXaXdXdXdXdXdXdXOXL / ].].'.(.C u e H ( wXaXdXgXgX`.x c Y.b - C.aXdXgXdX%XW H J d e c !./.].}.'.! W 0XaXdXaXdXdXdXdXkXkXzX",
"gXkXdXdXaXdXdXdXdXyX&X) m /.[.oXoX).Y.L.H.s n B.0XiXaXdX`.j J.Y.d f @XsXgXpX9X) f : a d H.L.Q.(._.oX[.A ! V.0XiXdXdXdXdXdXdXkXjX",
"gXdXdXaXkXaXdXdXdX$XL ! ].].).).).).).T.I.u w f ( wXaXdX`.j J.Y.l g @XhXdX0XW f r u !.T.Y.Q.h k k ~.).]./.Y W wXdXdXdXdXaXdXdXgX",
"dXdXaXdXdXkXdXdXdXV.- b {.{.E.~.Q.Q.Q.Y.Y.L.u d m M.9XuX`.x c Y.l j @XsX%X) g s H.K.Q.!.Q.J.k k l !.).[./.f K 0XdXdXdXdXdXaXdXdX",
"gXgXaXdXdXdXdXdXdXC.= b E.E.E.c h j h I.Y.Y.I.G.q : ( uXM.o V Y.J.h @XyXW f e H.P.Q.h j h l T.R.T.(.W.E.^.a K 0XdXdXdXdXdXdXdXdX",
"dXaXdXdXdXdXdXdXdXC.; d L.T.E.!.l l l J.Q.Q.K.K.u s Y M.U # V Y.z x ~ ) m s K.K.K.J.l l l !.E.E.E._.W.P.c : J 0XdXdXgXdXdXdXaXdX",
"dXdXdXdXdXdXdXdXgXC.= p G.I.E.E.Y.Y.~.k j j k T.I.G.q $ O X V R.m > # @ w H.P.!.k k ~.Y.T.E.E.E.E.E.T.K.y @ K 0XdXdXdXdXdXdXdXdX",
"dXdXdXdXdXdXdXdXdX0Xm.! s u L.T.E.).E.K.J.l l V r G.q > # # b Y.b   # o e G.V V l !.Y.E.E.E.E.E.W.P.L.r d ~ V.yXdXdXdXdXdXdXdXdX",
"dXdXdXdXdXdXdXdXdXdXdXN.& s G.L.Y.E.E.E.E.E.^.: i t q X X . V Y.b     > w y @ a ^.W.E.E.E.E.E.E.T.K.t i D $XdXdXdXdXdXdXdXdXdXdX",
"dXdXdXdXdXdXgXdXdXdXdX0XM.Y p d V c L.T.E.E.U.r 0 0 0 0 @ X V Y.b X i 0 0 0 0 e K.I.Y.E.E.T.L.c b d d W C.yXdXdXdXdXdXdXdXdXdXdX",
"dXdXdXdXdXdXdXdXdXdXdXdXdXM.% % $ q G.I.T.W.P.H.w @ p t q X V T.b o w y i @ y F.F.L.Y.Y.Y.K.y p & $ D $XdXdXdXdXdXdXdXdXdXdXdXdX",
"dXdXdXdXdXdXdXdXdXdXdXdXdX0XB.V.B.Y p a V c K.G.t w e F.0 X d K.d o w t e w t F.F.F.K.c d a p ! N.B.C.yXdXdXdXdXdXdXdXdXdXdXdXdX",
"dXdXdXdXdXdXdXdXdXdXdXgXdXdXdXpX0XU   . > w t t t t y y 0 X p y i o s t t t y t t t t s X .   ( yXiXdXdXdXdXdXdXkXdXdXdXdXgXdXdX",
"dXdXdXdXdXdXdXdXdXdXdXdXdXdXdXC.L - . . X @ i i i @ i i o X @ i o X @ i i i i i i i i @   .   D Q $XdXdXdXdXdXdXdXdXdXdXdXdXdXdX",
"dXdXdXdXgXdXdXdXdXdXdXdXdXyX0X^ 3 2 2 2 ; + + ; ; 2 2 2 ; 3 - ; - - 2 3 3 3 D 3 = ; ; + ; - 3 3 M m.wXpXdXdXdXdXdXdXdXdXdXdXdXdX",
"dXdXdXdXdXdXdXdXdXdXdXdXdXC.P ^ x.x.g.h.t.t.t.t.h.g.g.t.h.g.*Xg.g.*Xg.x.g.x.g.g.t.t.t.t.t.h.x.x.g.W W %XdXdXdXdXdXdXdXdXdXdXdXdX",
"dXdXdXgXdXdXdXdXdXdXkXaXaXm.. R 2X1X1Xv.z.z.z.z.b.1X1Xj.D.2X1X1X1X1X1X1X1X3X3X3XD.z.z.z.z.#X3X3X#XQ - C.gXgXdXaXdXdXdXdXdXdXdXdX",
"dXdXdXdXdXdXdXdXdXdXdXdXdXM.  R v.D.b.b.z.z.z.b.b.v.b.z.b.v.v.v.v.v.v.v.v.b.b.b.b.z.z.z.z.b.v.v.z.F - $XaXdXdXdXdXdXdXdXdXdXdXdX",
"dXdXdXdXdXdXdXdXdXdXaXdXgX+XU R r.r.r.r.r.r.t.p.a.a.a.a.k.k.k.z.z.z.z.z.j.j.a.a.a.y.r.r.r.r.r.r.r.Q W 0XsXgXdXkXdXdXdXdXdXdXgXdX",
"dXdXdXdXdXdXgXdXdXdXdXkXgXsXrX^ = = = = = = < G 0.0.e.i.i.i.k.z.z.z.z.l.a.e.e.0.0.G , & & + = = S B.yXdXdXdXdXdXdXdXdXdXdXdXdXdX",
"dXdXdXdXdXdXdXdXiXdXkXhXzXhXgX+XE S # , 1 1 1 0.0.0.e.p.p.p.k.z.z.z.z.z.d.s.e.0.0.G 5 1 1 =   J ^ 9XhXhXgXgXdXdXdXdXdXdXdXdXdXdX",
"dXdXdXgXdXdXdXdXdXgXjXhXhXkXhXfXrXU % 8 e.e.e.i.i.e.p.l.l.z.z.z.z.z.z.z.z.j.u.e.e.e.i.0.e.1 # ( lXfXfXhXhXhXdXdXdXdXgXdXdXdXdXdX",
"dXdXdXdXdXdXdXdXkXgXhXhXhXhXhXhXfX+X( Z.Z.T 8 e.i.p.k.z.z.z.z.z.z.z.z.z.z.j.u.i.u.u.d.s.i.8 # M.hXhXhXhXhXhXkXgXdXdXdXdXdXdXdXdX",
"dXdXdXdXdXdXdXdXhXjXhXhXhXhXhXgXhXhXgXkX0XK , q.p.l.l.z.z.z.z.z.z.z.z.z.z.j.s.i.i.p.l.d.i.7 # M.hXjXhXhXhXhXhXhXdXdXdXdXdXdXdXdX",
"iXdXgXdXdXdXhXhXhXhXhXhXhXhXhXhXhXhXhXhXrXJ , w.p.j.z.z.z.z.z.z.z.z.k.j.l.j.s.e.i.p.l.a.i.8 # M.hXhXhXhXhXhXhXhXkXkXaXdXdXkXdXiX",
"dXdXdXdXdXkXfXhXhXhXhXhXhXhXhXjXhXhXhXhXrXI < w.s.l.z.z.z.z.z.z.z.l.p.u.j.k.p.i.i.p.l.a.e.8 % B.hXhXhXhXhXhXhXhXjXjXkXaXaXdXdXgX",
"kXaXdXdXgXkXhXhXhXhXhXhXjXhXhXhXhXhXhXhXlX+X( F 8 p.j.z.z.z.z.z.z.z.j.j.l.l.j.a.a.a.a.w.F W V.wXhXhXhXhXhXjXhXhXhXhXjXkXdXaXdXgX",
"aXgXdXdXkXhXhXhXhXhXhXhXhXhXhXhXhXhXhXhXhXhX9XH < q.p.j.l.l.l.l.l.l.l.l.l.l.l.l.z.a.i.G   ( kXjXhXhXhXhXhXhXhXhXhXhXjXkXkXdXgXaX",
"dXdXkXkXhXhXhXfXhXhXhXhXhXhXhXhXhXhXhXhXhXhX9XH < q.u.p.p.p.p.p.p.p.p.p.p.p.p.p.p.s.i.G X ^ hXhXhXhXhXhXhXhXhXhXhXhXhXhXkXkXgXaX",
"dXgXhXgXhXfXfXhXhXhXhXhXhXhXhXhXhXhXhXhXhXhX9XU F w.q.q.q.0.q.q.q.q.q.0.q.q.q.q.q.q.[ T 3 +XhXhXhXhXhXhXhXhXhXjXhXfXfXhXgXhXgXaX",
"gXfXgXzXhXhXhXjXhXhXhXhXhXhXhXhXhXhXhXhXhXhXsX9Xm.F , < , , < < , , , < , < < , , , , E +XrXhXhXhXhXhXhXhXhXhXhXjXhXfXhXhXhXfXgX",
"hXhXhXhXhXhXjXjXhXjXhXhXhXhXzXhXhXhXhXhXhXhXhXhX+XS   #   .   # .             .   # X ^ sXhXhXzXhXhXhXhXhXhXhXhXjXjXhXhXhXhXhXhX"
};
