/* XPM */
static char *enemy_3_1712245309[] = {
/* columns rows colors chars-per-pixel */
"64 64 238 2 ",
"   c #211E2F",
".  c #221F30",
"X  c #22222F",
"o  c #242B2D",
"O  c #2A282E",
"+  c #33252F",
"@  c #233D26",
"#  c #28392A",
"$  c #343D2B",
"%  c #31372B",
"&  c #242231",
"*  c #2C2533",
"=  c #2B2A35",
"-  c #312D3B",
";  c #372833",
":  c #38343C",
">  c #1F262E",
",  c #4C262C",
"<  c #452935",
"1  c #492D34",
"2  c #473739",
"3  c #5E3630",
"4  c #573837",
"5  c #5B2D30",
"6  c #6B3B2E",
"7  c #693835",
"8  c #6F2F32",
"9  c #25561E",
"0  c #285C1D",
"q  c #27681A",
"w  c #287615",
"e  c #3A731B",
"r  c #254B22",
"t  c #294527",
"y  c #39482A",
"u  c #275623",
"i  c #374832",
"p  c #39552F",
"a  c #1C6D26",
"s  c #186928",
"d  c #396421",
"f  c #2C7625",
"g  c #297627",
"h  c #337A26",
"j  c #336E32",
"k  c #45791C",
"l  c #424937",
"z  c #495634",
"x  c #4C5433",
"c  c #63413F",
"v  c #6B4839",
"b  c #7A4735",
"n  c #526C26",
"m  c #557C23",
"M  c #4E6E2B",
"N  c #667B36",
"B  c #3F3841",
"V  c #453D45",
"C  c #483D43",
"Z  c #693E42",
"A  c #3B5D42",
"S  c #4E454A",
"D  c #484345",
"F  c #53494C",
"G  c #574848",
"H  c #575A45",
"J  c #5D5252",
"K  c #575850",
"L  c #53544A",
"P  c #6D4943",
"I  c #684744",
"U  c #75564A",
"Y  c #675857",
"T  c #795F50",
"R  c #714D47",
"E  c #4A794A",
"W  c #566547",
"Q  c #6D6657",
"!  c #78665A",
"~  c #6B6C4E",
"^  c #7B6B63",
"/  c #7C7165",
"(  c #9A2B22",
")  c #843A2C",
"_  c #8C2D26",
"`  c #B22E21",
"'  c #BC3E25",
"]  c #B53523",
"[  c #AA3525",
"{  c #8D472E",
"}  c #884933",
"|  c #954932",
" . c #944F32",
".. c #BB582F",
"X. c #B8552E",
"o. c #BB4336",
"O. c #A75532",
"+. c #B75C31",
"@. c #B3452A",
"#. c #B86435",
"$. c #BC753D",
"%. c #AB693C",
"&. c #93633F",
"*. c #C8562E",
"=. c #C95C2F",
"-. c #C4572E",
";. c #C85B32",
":. c #C24B29",
">. c #D3622F",
",. c #CB6635",
"<. c #D36632",
"1. c #D66C33",
"2. c #D76E36",
"3. c #DA7336",
"4. c #DE7C3A",
"5. c #D67338",
"6. c #C5783C",
"7. c #E07F3B",
"8. c #873F40",
"9. c #883745",
"0. c #963F45",
"q. c #8A4242",
"w. c #9A4848",
"e. c #9A5F4F",
"r. c #A24A45",
"t. c #A44B46",
"y. c #AA5449",
"u. c #AD5C4D",
"i. c #A6544A",
"p. c #B05F4E",
"a. c #957154",
"s. c #B1624E",
"d. c #AE6851",
"f. c #B56651",
"g. c #B46A52",
"h. c #B96D53",
"j. c #BC7658",
"k. c #B17449",
"l. c #836E66",
"z. c #827469",
"x. c #8D7A6D",
"c. c #867667",
"v. c #92796C",
"b. c #947E72",
"n. c #8F7B71",
"m. c #CD734D",
"M. c #CC786E",
"N. c #CD7467",
"B. c #C05245",
"V. c #28860E",
"C. c #2A870F",
"Z. c #298310",
"A. c #288611",
"S. c #398914",
"D. c #3E8123",
"F. c #45881A",
"G. c #558E1F",
"H. c #56851F",
"J. c #4C9316",
"K. c #579619",
"L. c #639A1D",
"P. c #6C9E1D",
"I. c #62951F",
"U. c #638F1E",
"Y. c #72A11D",
"T. c #6EA01B",
"R. c #4E8B21",
"E. c #4A8825",
"W. c #5E8322",
"Q. c #538C21",
"!. c #5A9423",
"~. c #648A22",
"^. c #679322",
"/. c #779833",
"(. c #79A723",
"). c #73A731",
"_. c #76904A",
"`. c #6F8A61",
"'. c #819A3F",
"]. c #86A73A",
"[. c #8CB731",
"{. c #E2853E",
"}. c #E58A3F",
"|. c #DF803C",
" X c #96C038",
".X c #B2845B",
"XX c #948272",
"oX c #9B8376",
"OX c #9C8A78",
"+X c #8F946E",
"@X c #B48C65",
"#X c #B89168",
"$X c #A58B7A",
"%X c #A3917B",
"&X c #AA947E",
"*X c #AC987F",
"=X c #B09073",
"-X c #87A241",
";X c #CF8952",
":X c #E78D41",
">X c #E88D41",
",X c #E38640",
"<X c #E8964C",
"1X c #E89A55",
"2X c #C38560",
"3X c #C78C66",
"4X c #C7976A",
"5X c #D09D6E",
"6X c #D1827B",
"7X c #EEB06E",
"8X c #EEB273",
"9X c #EAA86A",
"0X c #D0A06F",
"qX c #AC9681",
"wX c #AE9A82",
"eX c #B19482",
"rX c #B89C86",
"tX c #BAA489",
"yX c #B7A686",
"uX c #B2A984",
"iX c #C3A48D",
"pX c #C3AA8E",
"aX c #C9A88E",
"sX c #CBAB91",
"dX c #D3AF95",
"fX c #CCB394",
"gX c #C8B291",
"hX c #D5B296",
"jX c #D4BC97",
"kX c #D5B599",
"lX c #D7BD9A",
"zX c #D9BC9B",
"xX c #D8B298",
"cX c #E1AFA8",
"vX c #E2B0A9",
"bX c #DDB09C",
"nX c #F6E4E2",
"mX c #F0D7D4",
/* pixels */
"lXlXlXlXlXlXlXlXlXlXlXlXlXlXlXlXlXlXlXlXlXlXlXlXlXlXlXlXlXlXlXlXlXlXlXlXlXlXlXlXlXlXjXlXlXlXlXlXlXzXlXlXlXlXlXlXlXlXlXlXlXlXlXlX",
"lXlXlXlXlXlXlXlXlXlXlXlXlXlXlXlXlXlXlXlXlXlXlXlXlXlXlXlXlXlXlXlXlXlXzXzXlXlXlXlXlXlXlXlXlXlXlXzXlXlXlXlXlXlXlXlXzXlXlXlXlXlXlXlX",
"lXlXlXlXlXlXlXlXlXlXlXlXlXlXlXlXlXlXlXlXlXlXlXlXlXlXlXlXlXzXlXzXlXlXlXzXzXzXlXlXlXlXlXlXlXlXlXlXzXlXzXlXlXlXlXlXlXlXlXlXlXlXlXlX",
"lXlXlXlXlXlXlXlXlXlXlXlXzXlXlXlXlXlXlXlXlXlXlXlXlXlXlXlXfXpXpXtXtXpXpXpXtXtXkXlXlXlXlXlXlXlXlXlXlXlXlXlXlXlXlXlXlXlXlXlXlXlXlXlX",
"lXlXlXlXzXlXlXlXlXlXlXlXzXzXzXlXlXlXlXlXlXzXlXlXlXlXlXkXXXJ K J J J Y Y Y / tXzXlXlXlXlXlXlXlXlXlXlXlXlXlXlXlXlXlXlXlXlXlXlXlXlX",
"lXlXlXlXlXlXlXlXlXlXlXlXzXzXlXlXlXlXlXlXlXlXlXlXgXtXyXrX^ 2 2 : 2 2 : $ 2 G OXtXtXpXkXlXlXzXlXlXlXlXlXlXlXlXlXlXlXlXlXlXlXlXlXlX",
"lXlXlXlXlXlXlXlXlXzXlXlXlXlXlXlXlXlXlXlXlXlXlXlXXXJ J J l.@X@X@X@X.Xk.%.&.&.Y J K z.gXzXlXzXlXlXlXlXlXlXlXlXlXlXlXlXlXlXlXlXlXlX",
"lXlXlXzXlXlXlXlXlXlXlXzXlXlXlXlXlXlXlXlXgXtXrXrX/ D 2 G .X7X8X8X8X7X1X}.}.|.v 1 1 I OXtXlXlXlXlXlXlXlXlXlXlXlXlXlXlXlXlXlXlXlXlX",
"lXlXlXlXlXlXlXlXlXlXlXzXlXlXlXlXlXlXlXlXOXJ F F a.#X#X#X;X1X1X1X1X1X>X}.:X,X$.%. .} J c.gXzXlXlXlXlXlXlXlXlXlXzXzXlXlXlXlXlXlXlX",
"lXlXjXtXqXqX*X*XwXwX*X*XqXqXqXwX*X*X*X*Xc.G l G a.7X7X7X1X:X>X:X}.}.>X}.{.,X,X{.3.O.6 R OXtXlXlXlXlXlXlXlXlXlXzXlXlXlXlXlXlXlXlX",
"zXlXgXc.S S 2 S S S S S S D S S D D S S ! #X4X4X5X<X1X<X<X>X:X:X>X}.>X}.3.3.{.:X{.5.+.b G / fXzXlXlXlXlXlXlXzXzXlXlXlXlXlXlXlXlX",
"lXtXOX! G c x 3 4 1 1 O + 1 4 4 4 c 4 x a.9X7X7X1X}.>X}.>X>X:X:X>X>X}.}.4.3.{.:X:X4.1. .; Y gXtX&X%X%X%X%X%X%X%XwX%X%X%XwXfXlXlX",
"fXz.F a.#X.X6.+.X.O.{ ; 1 | +.$.6.$.m.$.;X<X<X<X<X>X>X>X>X>X>X:X>X>X}.}.{.,X}.>X:X|.1. .+ Y gXoXS V D V 2 D C D V V V S K *XjXlX",
"OX! U @X9X;X%...*.<.+.6 6 X.1.{.>X>X}.}.|.2.2.2.3.3.2.5.2.2.2.2.3.5.{.>X>X>X:X:X:X{.3.O.6 U XX~ t t @ i y y y y i z z z W c.&XgX",
"D a.0X1X}.b 5 ( @.3.5.@.[ -.5.{.>X}.}.}.1.@.' ' ' ' ' ' ' ' ] ` @.:.3.>X>X>X>X>X:X:X,X5.#.} C p w w w k U.~.~.~.^.'. X-X-Xz J wX",
"* a.9X;X=.6 5 8 | m.,X=.:.<.4.}.>X>X>X}.>.] B.M.M.M.M.M.M.M.M.N.o.@.3.>X>X>X>X>X>X:X:X|.<.{ + @ 0 q q e K.P.Y.Y.Y.[.[.[.].z D %X",
"* &.,X;.] [ _ 5 c #X9X2.<.7.,X}.>X>X>X>X,.] 6XnXnXnXnXnXnXnXnXmXN.@.5.>X>X>X>X}.>X}.}.4.<.{ + X > o o u C.K.Y.Y.Y.Y.Y.Y.P.l C %X",
"O e.<X*.` ` ( , 2 #X9X3.1.,X>X>X>X>X>X>X3.*.N.cXcXcXcXcXcXcXcXcXm.=.4.>X>X>X>X>X>X}.}.4.<.{ + X     > @ 0 e n n m n n n n ~ / tX",
"O a.8Xm.` ` ( , l #X9Xm.1.,X>X>X>X>X>X>X}.{.,.o.o.o.o.o.o.o.' :.m.7.}.>X>X>X>X}.>X>X}.{.1.{ + X &     > > o o > O o O o i XXgXjX",
"= a.8Xm.` ` ( , 4 .X1X3.1.,X>X>X>X}.>X>X>X>X3.=.;.*.-.-.-.-.;.;.7.}.>X>X}.>X}.}.{.{.}.|.<.{ + o r r r r r r r r r r u z ~ / oXpX",
"; v.9Xm.` ` ( , 2 %.{.1.1.{.>X}.:X:X>X:X>X>X}.}.}.,X,X:X}.{.}.}.}.}.>X>X}.>X>X{.1.1.{.7.<.{ + r w Z.w V.V.w w V.Z.A.S.).].z S &X",
"= e.1X;.` ` ( , 4 %.{.1.1.}.>X}.}.:X:X:X>X>X>X>X:X:X>X}.>X>X:X>X}.>X>X>X}.}.>X}.4.7.}.7.<.{ + r Z.A.A.A.V.V.A.A.V.A.S.P./.z D %X",
"* &.7.*.` ` ( , 2 %.{.1.1.{.}.}.>X>X>X:X:X>X>X:X:X:X:X:X:X:X>X>X>X}.>X>X}.}.}.}.}.}.}.7.>.{ + t w V.V.A.V.V.V.V.V.V.S.K.~.y C %X",
"* } 1.>.:._ 8 8 ) ,.7.=.*.1.7.}.:X>X:X:X:X>X>X:X:X:X:X:X:X>X>X}.}.{.7.7.7.{.}.}.}.{.7.#.{ U ^ H u 9 u 9 9 9 9 9 u u u p M ~ XXtX",
"+ { <.4.|.c + 8 ' 3.3.@.' *.1.{.}.}.}.}.>X>X>X>X:X:X>X:X:X:X:X>X>X}.3.>.>.1.7.>X}.{.<.| ; Y iXz.- & & & * & & &   & & & V OXlXlX",
"l.U b +.,.O.{ @.*.>.=.) ) ..<.3.4.3.3.4.|.}.}.>X>X:X:X:X>X:X7.3.{.}.<.>.>.<.{.>X>X7.<.| ; Y aXeXl.l.l.l.^ l.z.z.z./ z.z.n.tXlXlX",
"fX! ; } ;.=.=.;.=.-.O., 1 O.=.=.-.,.=.=.5.}.:X:X}.:X:X}.>X}.3.1.7.}.3.>.>.<.7.>X}.4.>.| ; T pXhXhXhXhXhXhXhXxXhXlXlXlXzXlXzXlXzX",
"jX*Xl.U 6 6 6 6 6 v 3 O + 3 6 6 6 6 6 6  .5.3.3.|.>X>X>X}.}.{.7.,X,X7.7.7.3.7.3.3.+.} U l.%XsXhXhXhXhXhXhXhXdXhXlXlXzXzXlXlXlXlX",
"zXlXgX^ - - - - = - - - - - - - - - - - v X.-.-.5.}.}.{.}.}.{.}.}.{.:X,X,X5.,.-.-.| 2 Y iXhXhXhXhXhXhXhXhXhXhXhXkXhXzXlXzXzXzXzX",
"lXlXjXqXn.x.x.x.v.v.v.x.v.x.n.v.x.x.v.x.T 7 6 7 O.5.3.3.3.3.3.3.3.2.3.3.3.,.} 7 7 R l.$XsXhXhXhXhXhXhXhXhXhXhXhXhXhXhXlXzXzXlXlX",
"zXzXlXlXfXhXhXhXhXhXhXhXhXhXhXhXhXhXhXhXb.V : : b +.......X.X.....X.X..... .4 : : Y rXhXhXhXhXhXhXhXhXhXhXhXhXhXhXhXhXkXzXlXlXlX",
"zXzXzXjXkXfXhXhXhXhXhXhXhXhXhXxXhXhXhXhXrXb.b.b.T 3 3 3 3 7 3 3 3 7 3 3 7 v l.XXb.eXsXhXhXhXhXhXxXhXhXhXhXhXdXhXhXfXfXkXjXzXlXlX",
"zXzXhXxXhXhXhXhXhXhXhXhXhXhXhXhXhXhXhXxXhXhXhXhXl.V V V B B V B : : = & o G b.rXdXhXhXhXhXhXhXhXhXhXhXhXhXhXhXhXhXhXdXxXxXhXkXzX",
"zXkXhXdXhXhXhXhXhXhXhXhXhXhXhXhXhXhXhXxXhXhXhXhXrX$Xb.b.OXoXOXOXOXx.D = M n H ^ tXkXhXhXhXhXhXhXhXhXhXhXhXhXhXhXhXhXxXdXdXhXkXzX",
"kXhXdXdXhXhXhXhXhXhXhXhXhXhXhXhXhXhXiXeXeXeXeXeXeXeXeXeXpXkXlXlXlXtXK i m ~.x x +XtXsXhXhXhXhXhXhXiXeXeXqXeXeXeXeXeXeXeXrXiXbXkX",
"hXhXxXhXhXhXhXhXhXhXhXhXhXhXhXhXhXhX$XJ F S F F F C S J $XzXlXlXlXuXE u Q.^.~.m M `.tXhXhXhXhXhXhXoXF F F F F F F F F F Y qXhXkX",
"hXhXhXhXhXhXhXhXhXhXhXhXhXhXhXhXiXeX^ z i l i % : % # % ! wXqXuXgXuX`.E E.L.P.Q.a E yXhXhXiXeX&XqXQ # # $ $ $ $ $ i l i L c.eXaX",
"hXhXhXhXhXhXhXhXhXhXhXhXhXhXhXhX$XY W '.].]./.~.~.~.k q p S S J *XgXuX+XE h I.G.a E uXdXhX$XG S C p w k W.W.W.~.~./.-X-X/.J Y eX",
"hXhXhXhXhXhXhXhXhXhXhXhXxXhXaX$Xc.x N [. X X[.Y.Y.Y.K.S.d y t i / *XgXuXE 0 G.G.a E uXiX$X! t t y d S.F.G.G.G.G.!.).). X].N H v.",
"hXhXhXhXhXhXhXxXhXhXhXxXhXhX$XJ H '.].].(.(.Y.Y.Y.T.T.L.U.W.e q p K qXwXL t ~.G.s E uX$XJ i q k W.~.L.F.a a a a a s h !.[.].'.z ",
"hXhXhXhXhXhXhXhXhXhXhXhXhXhXoXV x [.[.Y.P.G.G.G.R.G.^.Y.Y.T.K.S.q i / z.C $ ~.Q.u A z.Q i 0 S.F.G.G.G.h f f f f g g h G.Y.[.].l ",
"hXhXhXhXhXhXhXhXhXhXhXhXhXhXoXB l P.Y.Y.F.a a a a s E.Y.Y.T.^.I.S.q i B + $ m ~.$ = B p w F.L.F.a s s E.!.^.K.U.!.^.I.P.(.Y.~.y ",
"hXhXhXhXhXhXhXhXhXhXhXhXhXhX$XB y H.L.T.Q.h f f g f k E.R.E.m k S.w @ > . $ m m #     @ w e k k g g f Q.Y.Y.Y.Y.(.Y.Y.Y.P.L.k y ",
"hXhXhXhXhXhXhXhXhXhXhXhXhXhXoXB r w J.T.P.L.I.L.L.^.D.s s s r # 0 w @ & . $ ~.m %   & r w q % z I.L.I.P.Y.Y.Y.Y.P.Y.Y.Y.P.J.w @ ",
"hXhXhXhXhXhXhXhXhXhXhXhXhXhXeX^ H 0 d n H.K.L.Y.Y.T.Q.f h h u r u 9 r @ > t ~.m $ o @ 9 9 9 r q K.L.Y.Y.Y.Y.Y.Y.Y.L.G.m n d 0 H ",
"hXhXhXhXhXhXhXhXhXhXhXhXhXhXdXiXc.: > = u Z.K.Y.T.T.P.P.L.L.F.w r @ q q @ $ ~.m % @ q q o r w Z.C.J.Y.Y.T.T.T.Y.T.J.w t o X l XX",
"hXhXhXhXxXhXhXhXhXhXhXhXhXhXhXhXwX/ Q Q W u d n n n H.K.K.J.S.w 9 9 w w @ # k k # t w a 9 0 Z.V.C.S.K.K.K.m n n n d u H ! Y l.rX",
"hXhXhXhXhXhXhXhXhXhXhXhXhXhXhXhXlXfXfXgXc.= X X o O 0 C.C.C.C.C.A.A.A.q @ # q q o t w A.V.Z.V.V.V.C.C.C.C.9 X o X > B v.sXsXsXdX",
"hXhXhXhXhXhXhXhXhXhXxXhXhXhXkXkXzXzXlXlXwX/ S & . . @ u u 9 9 9 9 9 9 r o o r r > o r 9 9 9 9 9 0 9 9 9 9 @   . . . = J n.rXhXhX",
"hXhXhXhXhXhXhXhXhXhXhXhXhXkXlXlXlXlXlXzXjXjX/ o . .   & . . . . X X X X         X X X X X X X & &   > &   . . . . . . & V oXhXxX",
"hXxXhXhXhXhXhXhXhXhXhXhXkXzXzXzXlXlXlXlXwX/ ! T T T R P P P I I U U R R U T ! T T T T T T T T T T T ! R P P P P P U T T T T x.rX",
"hXhXhXhXhXhXkXhXhXhXhXhXkXlXlXlXlXlXlXzXx.= Y 5X5X5X2Xh.h.h.h.j.3X4X.Xj.3X5X0X0X5X5X5X5X5X5X5X5X5X5X5X2Xh.h.h.h.h.3X5X5X@XG C $X",
"hXhXhXhXhXhXhXxXhXhXxXlXzXlXjXlXlXzXzXzXx.* P @X2X2Xj.h.h.h.g.j.N.2Xh.j.j.2X2X2X2X2X2X2X2X2X2X2X2X2X2Xj.h.h.h.h.h.j.2X@Xg.G V $X",
"hXhXhXhXhXhXhXhXhXkXlXlXlXlXlXlXlXlXjXzXx.: I d.d.d.g.g.d.g.f.f.k.h.g.h.h.h.h.h.h.h.h.h.h.h.h.h.h.g.h.h.g.g.g.d.d.g.g.d.e.C C $X",
"hXhXkXhXhXhXhXhXkXlXlXlXlXlXlXlXlXlXlXlXrXn.Q Z c c c c c I q.w.i.w.i.y.u.u.g.h.h.h.h.h.h.h.h.f.y.t.w.w.w.q.Z Z I c Z Z I T b.iX",
"hXhXhXhXhXhXhXhXlXlXlXjXjXlXlXzXlXlXlXjXlXlXXX: =   & * * + Z 9.9.9.w.r.r.i.f.h.h.h.h.h.h.h.h.p.r.w.9.9.9.C * . * X . - S $XhXxX",
"hXhXhXhXhXhXjXzXlXlXlXzXlXlXlXlXlXlXlXlXlXlXyXXXJ   1 Z 8 7 9.0.0.w.i.p.p.s.g.h.h.h.h.h.h.h.h.u.t.0.0.0.0.9.8 Z 7 ; - Y b.iXhXdX",
"hXhXhXhXhXhXlXlXlXlXlXlXlXlXlXlXlXlXlXlXlXlXlXzXl.: Z w.w.r.r.r.r.t.f.h.h.h.h.h.h.h.h.h.h.g.h.u.r.r.r.r.t.t.t.| 9.Z S OXxXxXhXhX",
"hXhXhXhXkXlXlXlXlXlXlXlXlXlXlXlXlXlXlXlXlXlXlXlXrXoXU 1 8.r.r.r.y.d.f.h.h.h.h.h.h.h.h.f.y.u.h.u.r.r.r.y.s.p.u.P 4 ^ OXrXhXdXhXhX",
"hXhXhXkXkXlXlXlXlXlXlXlXlXzXlXlXzXlXlXlXlXlXlXlXzXlXz.C I 9.9.w.u.f.f.f.f.f.f.f.f.f.f.u.r.y.f.u.r.r.r.u.f.f.f.C - n.zXkXxXhXxXhX",
"dXhXxXzXlXlXlXjXlXlXzXlXlXlXlXlXzXlXlXlXlXlXlXzXzXzXrXoXY 1 1 4 q.y.y.y.y.y.y.y.y.y.y.y.r.t.i.i.r.r.r.t.i.y.t.4 - XXlXlXkXxXxXhX",
"hXhXkXzXlXjXlXlXlXlXlXlXlXlXlXlXlXlXlXlXlXzXlXlXzXlXzXfX/ D V C Z 8.8.8.8.8.8.8.8.8.8.8.8.8.8.9.9.9.0.) 8.8.q.Z F OXlXlXzXzXkXhX",
"kXlXzXlXlXjXzXzXlXlXlXlXlXlXlXlXlXlXlXlXlXlXlXzXlXlXzXjXtX%X%XoXR < < < < < 1 < < < < < < < < < < < < < < < 1 ^ &XpXjXjXlXlXkXkX",
"zXlXlXlXlXlXzXzXlXlXlXlXlXlXlXzXlXlXlXlXlXlXlXlXlXlXlXlXlXlXlXtXY . . . . . . . . . . . . . . . . . . . . & = x.lXlXlXlXlXlXlXlX"
};
