/* XPM */
static char *enemy_1_1712245309[] = {
/* columns rows colors chars-per-pixel */
"64 64 224 2 ",
"   c #221F30",
".  c #211E2F",
"X  c #1C2F2E",
"o  c #23222E",
"O  c #222B2C",
"+  c #292E2F",
"@  c #27372A",
"#  c #323B2C",
"$  c #242231",
"%  c #2B2534",
"&  c #342A36",
"*  c #38353A",
"=  c #302B30",
"-  c #4D2F2F",
";  c #5C252A",
":  c #4B2C36",
">  c #4C3734",
",  c #4A3939",
"<  c #5D323A",
"1  c #593835",
"2  c #592F37",
"3  c #653931",
"4  c #6B3A38",
"5  c #783B3D",
"6  c #6F2A29",
"7  c #265B1D",
"8  c #25621A",
"9  c #266B18",
"0  c #29681A",
"q  c #34671C",
"w  c #287814",
"e  c #36741A",
"r  c #19562C",
"t  c #234324",
"y  c #264A24",
"u  c #3D4D29",
"i  c #344429",
"p  c #265421",
"a  c #395828",
"s  c #364433",
"d  c #324C34",
"f  c #146729",
"g  c #216F25",
"h  c #2B7624",
"j  c #377C24",
"k  c #46781D",
"l  c #406F1F",
"z  c #444A3B",
"x  c #465838",
"c  c #48572B",
"v  c #784433",
"b  c #7C5239",
"n  c #476728",
"m  c #546E26",
"M  c #577726",
"N  c #4F712F",
"B  c #627438",
"V  c #3F3A41",
"C  c #3E3642",
"Z  c #453C44",
"A  c #793E40",
"S  c #4E4348",
"D  c #544A4D",
"F  c #554748",
"G  c #4E5A42",
"H  c #5B5252",
"J  c #58554B",
"K  c #6C4744",
"L  c #7E4F46",
"P  c #724D45",
"I  c #785649",
"U  c #655A57",
"Y  c #675856",
"T  c #755D57",
"R  c #67544B",
"E  c #5C7153",
"W  c #68694B",
"Q  c #6E635B",
"!  c #7A6052",
"~  c #76645D",
"^  c #737251",
"/  c #7B6A63",
"(  c #756761",
")  c #717E60",
"_  c #B22E1F",
"`  c #B22E21",
"'  c #B93823",
"]  c #823E3F",
"[  c #8F472F",
"{  c #8E482F",
"}  c #944A2F",
"|  c #864B36",
" . c #935A38",
".. c #924A31",
"X. c #BE4128",
"o. c #B75C32",
"O. c #AC522F",
"+. c #9E613A",
"@. c #AD6437",
"#. c #C34C2C",
"$. c #C8552C",
"%. c #C65838",
"&. c #D3632F",
"*. c #CA6533",
"=. c #D36431",
"-. c #D66C32",
";. c #D86B33",
":. c #C87C3E",
">. c #C9773B",
",. c #DB7336",
"<. c #DD7C3A",
"1. c #D97639",
"2. c #E07F3B",
"3. c #853844",
"4. c #923C45",
"5. c #9A4345",
"6. c #8E5048",
"7. c #A34B45",
"8. c #A24745",
"9. c #A5544B",
"0. c #AD5C4D",
"q. c #A85449",
"w. c #B05F4E",
"e. c #AE5F50",
"r. c #826753",
"t. c #876A55",
"y. c #907159",
"u. c #AF604F",
"i. c #B1634F",
"p. c #B26450",
"a. c #B66A52",
"s. c #B96D53",
"d. c #B86752",
"f. c #BE795A",
"g. c #BC7357",
"h. c #AC7450",
"j. c #826E67",
"k. c #837369",
"l. c #8C796C",
"z. c #867568",
"x. c #937D71",
"c. c #927C6F",
"v. c #C1594B",
"b. c #CC6D50",
"n. c #CF7960",
"m. c #29860E",
"M. c #27850E",
"N. c #298410",
"B. c #2A8510",
"V. c #3A8B13",
"C. c #328A0F",
"Z. c #3E8122",
"A. c #468918",
"S. c #499216",
"D. c #5D9A19",
"F. c #58951A",
"G. c #5A881E",
"H. c #639A1C",
"J. c #6A9D1D",
"K. c #62941D",
"L. c #719E1E",
"P. c #6EA01C",
"I. c #72A11D",
"U. c #4B8922",
"Y. c #468522",
"T. c #598821",
"R. c #579026",
"E. c #658A22",
"W. c #70912E",
"Q. c #7CAA24",
"!. c #5A8552",
"~. c #758B41",
"^. c #81A633",
"/. c #88B32E",
"(. c #809B3E",
"). c #E2833D",
"_. c #E58A3F",
"`. c #9EC73D",
"'. c #B5865D",
"]. c #958374",
"[. c #9B8776",
"{. c #908B70",
"}. c #B28A66",
"|. c #AA8F7E",
" X c #A28A7A",
".X c #A8927E",
"XX c #A68363",
"oX c #ABAA7E",
"OX c #D4864E",
"+X c #E78D41",
"@X c #E88D42",
"#X c #E69147",
"$X c #E49557",
"%X c #EAA05C",
"&X c #CC966B",
"*X c #C99466",
"=X c #D2847B",
"-X c #CC8D62",
";X c #D4A26E",
":X c #ECAD6C",
">X c #ECAF75",
",X c #EAB278",
"<X c #AD9881",
"1X c #B19582",
"2X c #B29C84",
"3X c #BB9C87",
"4X c #BAA389",
"5X c #C3A48C",
"6X c #C3AC8E",
"7X c #CAA98F",
"8X c #C8AC91",
"9X c #D2AF95",
"0X c #CCB493",
"qX c #D5B296",
"wX c #D5BC97",
"eX c #D5B599",
"rX c #D7BD9A",
"tX c #D9BC9B",
"yX c #D9BEA0",
"uX c #E0AEA7",
"iX c #DC9E93",
"pX c #F0D6D3",
"aX c #FFFFFF",
"sX c #F6E6E6",
/* pixels */
"rXrXrXrXrXrXrXrXrXrXrXrXrXrXrXrXrXrXrXrXrXrXyXrXrXrXrXrXrXrX.XJ H Y XX}.}.}.'.@.I R H [.tXtXrXrXrXrXrXrXrXrXrXrXrXrXrXrXrXrXrXrX",
"rXrXrXrXrXrXrXrXrXrXrXrXrXrXrXrXrXrXrXrXrX2X[.[. X.XwXrXwX<Xz.R R r.%X:X>X:X%X#X .z 1 T .X8XrXrXrXrXrXrXrXrXrXrXrXrXrXrXrXrXrXrX",
"rXrXrXrXrXrXrXrXrXrXrXrXrXrXrXrXrXrXrXrX0XH % + % D 4XrX0XH Y ,X,X:X#X#X#X+X_._._.1.*.v * .XyXrXrXrXrXrXrXrXrXrXrXrXrXrXrXrXrXrX",
"rXrXrXrXrXrXrXrXrXrXrXrXrXrXrXrXrXrXrX.XQ y.y. .| | Q Q ~ y.'.$Xn.*.%.$.*.).).).)._.2.o.| T [.rXrX6X/ Q Q Q ].rXrXrXrXrXrXrXrXrX",
"rXrXtXrXrXrXrXrXrXrXrXyXrXrXyXrXrX0X4Xz.x '.$Xb.>.o.1 = = '.$X<.b.v.v.w.w.,.,.&.<.@X_.,.o.- U rX6X{.s @ # * W 2X0XrXrXrXrXrXrXtX",
"rXrXrXrXrXrXrXrXrXrXrXrXrXrXrXrXrX4XH ! ;X$Xh.> +.<.o.v = O.&.X.iXpXpXpXpXv.$.).+X+X@X1.o.- U wX( s 9 k W.^.^ C .XrXrXrXrXrXtXrX",
"rXrXrXrXrXrXrXrXrXrXrXrXrXrXrXrXrX2XC r.,X+XO.; v +.-.} 6 O.$._ uXaXaXaXsXb.$._.+X+X+X2.-.{ I k.x g A.K.I./.Q.B ^ [.0XrXrXrXrXrX",
"rXrXrXrXtXrXrXrXrXrXrXrXrXrXrXrXwX1XZ r.>X%.` ` ; > OX*.' $.$._ uXaXaXaXsXb.$._.+X+X+X+X+X-.[ . p V.K.L.I.I./.`.x D 0XrXrXtXrXtX",
"rXrXrXrXrXrXrXrXrXrXrXrXrXrXrXtXrX2XV b $X$.` ` ; 1 *Xn.$.,.&._ uXaXaXaXsXv.%.@X@X@X@X@X).-.[   O # i q S.J.I./.c D 6XrXrXrXrXrX",
"rXrXrXrXrXrXrXrXrXrXrXrXrXrXrXrXwX2XV I #Xo.` ` ; z ;X$X&.2.;._ uXaXaXaXsXb.#.#X@X@X+X+X+X-.[   @ t t q S.J.L.L.u D 6XrXrXrXrXrX",
"rXrXrXrXrXrXrXrXrXrXrXrXrXrXrXrXwX2XV r.>X%.` ` ; F ;X$X;.2.;.' uXaXaXaXsXb.$._.+X+X+X+X).-.[   7 M.M.S.J.I.I.L.u D 6XrXrXrXrXrX",
"rXrXrXrXrXrXrXrXrXtXrXrXrXrXrXrXwX4XV r.>X%.` ` ; > OX+X&.).).;.n.=XiXn.-Xb.<.#X+X+X@X+X+X-.[   8 M.C.S.I.P.I.L.u D 6XrXrXrXrXrX",
"rXrXrXrXrXrXrXrXyXrXrXrXrXrXtXrXrX2XV r.>X%._ _ ; > b.).&.)._._.$.' #.X.#.,._._.+X+X+X+X+X=.[   8 M.M.S.I.I.I.L.u D 6XrXrXrXrXrX",
"rXrXrXrXrXrXrXrXrXrXrXrXrXrXrXrXrX2XV ! >X%._ _ ; > :.<.&.)._._._.b.)._.2._.#X_.+X@X+X@X+X-.[   8 M.m.S.I.I.I.L.u J 6XrXrXrXrXrX",
"rXrXrXrXyXrXrXrXrXrXtXrXrXrXrXrXrX2XZ r.>X%._ _ ; > :.,.;.)._.#X_.@X_.@X_._.@X@X+X@X@X@X+X=.[   t 8 M.V.F.S.k n W x.0XrXrXrXrXrX",
"rXrXrXrXrXrXrXrXrXrXrXrXrXrXrXrXrX2XC r.,X%._ _ ; > :.<.,._._._._._.@X@X_.@X@X@X+X@X@X@X+X*.[   o t w w w w g = {.0XrXrXrXrXrXrX",
"rXrXrXrXrXrXrXrXrXrXrXrXrXrXrXrXyX2X* r.>Xv._ ` ; > :.,.&.)._._.+X@X+X@X@X@X_.@X_.+X+X_._.-.[ . y 7 t @ @ @ n ~.^ ) 0XrXrXrXrXrX",
"rXrXrXrXrXrXrXrXrXrXtXrXrXrXrXrXrX1XZ r.>X%.` _ ; > :.<.&.)._._.+X@X_.@X_.@X@X@X_._.).).).-.[ o 8 w a u u u B /.c D 6XrXrXrXrXrX",
"rXrXrXrXrXrXrXrXrXrXrXrXrXtXrXrXeX1X* r.>X%.` ` ; - OX,.;.)._._.+X@X+X+X@X@X#X@X@X_.&.<._.-.[ . 7 V.H.L.L.L.Q.L.u D 6XrXrXtXrXrX",
"rXrXrXrXrXrXrXrXrXrXrXtXrXtXtXeXqX1XC I $X#.` ` ; c @.,.&.)._._._.#X@X_.@X+X@X@X+X_.).)._.-.{ . 8 m.S.D.L.L.L.L.u D 6XrXrXrXrXrX",
"rXrXrXrXrXrXrXrXrXrXrXtXtXwXqXqX9X1XC b ).#._ ` ; > :.-.$.<._.@X_._._.#X@X).).)._.+X+X_.<.o.| S q w N.S.H.K.K.T.x Q 0XtXrXrXrXrX",
"rXrXrXrXrXyXrXrXrXrXrXtXtXqXqX9XqX1XC b +X#.` ` ; - OX&.#.$.,._._.#X_._.).,.=.=.).+X_.<.%.3 Y 3XJ t w C.C.C.q @ l.6XwXrXrXrXrXrX",
"rXrXrXrXrXrXrXrXrXrXwXwXqXqXqXqXqX1XC v ,.&.O.6 v  .>.O.6 X.,._._._._._.+X-.&.&.2.@X_.<.o.- Y qXx.W p p 7 p x / 4XrXrXrXrXrXrXtX",
"rXrXrXrXrXrXrXrXrXtXwXwXqXqXqXqXqX1XS v %.,.@.% +.<.*.5 = } *.)._.).;.<.@X;.&.&.<._.).>.O.2 Q qXqX|.Z & & * Q rXtXrXrXtXtXtXrXrX",
"rXrXrXyXtXrXrXrXrXtXeXqXqXqXqXqXqX7X|.r.2 o.*.O.*.o.3 =   : | -.)._.).).+X).).).,.;.;...1 l.3XqXqX7X1X X X<X3XyXrXrXtXrXrXrXrXrX",
"rXrXrXrXtXtXtXrXrXwXqXqXqXqXqXqX9XqXqX XY ..[ [ { | R R H Y P [ *.2.<.<.).<.<.<.o.} } L T 3XqXqXqX9X9XqX9XqXeXyXrXrXwXrXrXrXrXrX",
"rXrXrXrXtXtXwXwXqXqXqXqXqXqXqXqXqXqXqXqX5XF       Z 3X9X9X9Xx.% { &.&.=.&.&.&.&.3   o j.0XqXqXqXqXqXqXqX9X9XqXeXrXrXrXrXrXwXrXrX",
"rXrXrXrXtXtXwXwXqXqXqXqXqXqXqXqXqXqXqXqX7X Xc.l.c. X7XqXqXqX3Xx.I 3 3 3 3 3 3 3 r.l.l.|.qXqXqXqX9XqXqXqXqX9X9XqXwXrXtXyXtXrXrXrX",
"rXrXtXrXyXtXqX0XqXqX9XqXqXqXqXqX3X1X|.3XqXqXqXqX9XqXqXqXqXqXqXqXj.V % % @ o & S  XqXqXqX9XqX5X|.1X1X X3XqXqXqXqXqXeXwXrXtXrXrXrX",
"tXrXrXtXtXtXqX9XqXqXqXqXqXqXqXqX( C * j.qXqXqXqXqXqXqXqXqXqXqXqX5Xx.* c E.# D 3X7XqXqXqXqXqX[.* & C C l.qXqXqXqX9XqXeXrXyXtXrXtX",
"rXrXrXrXwXqXqXqXqXqXqXqXqXqX3Xj.W W B ^ j./ [.9XqXqXqXqXqXqXqXqX XU d q J.s U 9XqXqXqX|.~ j.T c m B B W k.5XqXqXqXqXqXqXwXrXrXrX",
"rXrXrXwXqX9XqXqXqXqXqXqXqX5Xc.* W.`.`.B + O J 3X5X5X9XqXqXqXqXqXQ X r j E.s T qX7X5X5XQ O + c Q./.`.`.B z [.5XqXqXqXqXqXeXrXrXrX",
"yXtXqXqXqXqXqXqXqXqXqXqX7X~ W (.^.Q.Q.K.T.e a D S ~ 5XqX9X0XeXrXE f U.n z z.2XqXj.S S a h M E.L.Q.Q.Q.Q.(.R j.qXqXqXqXqXqXeXtXyX",
"tXeXqXqXqXqXqXqXqXqXqXqX7XD c /.Q.J.R.A.U.S.e u i d j.1X9XeXeXrX!.g D.n d .X3Xx.G t u l S.A.Y.Y.H.P.Q.^.^.# U qXqXqXqXqXqXqXeXtX",
"eXqXqXqXqXqXqXqXqXqXqXeX5XD u J.I.K.f f f R.I.I.S.9 + ( eXrXeXwX!.g K.Z.f .Xx.$ 7 V.J.I.H.g f f U.I.L.I.K.# Y qXqXqXqXqXqXqXqXqX",
"qXqXqXqXqXqXqXqXqXqXqXqX7XD i A.D.J.R.Y.Y.j h h A.S.g x Q 4XoX!.!.V.j !.{.Q G 8 A.S.j h j Y.Z.Y.H.I.I.F.A.@ Y qXqXqXqXqX9XqXqXqX",
"qXqXqXqXqXqXqXqXqXqXqXqX7X( z 9 A.H.L.L.J.Z.g g Y.U.V.q i {.) r A.R.f E [.S p V.S.Y.h g h D.I.I.L.P.H.A.8 z j.qXqXqXqXqXqXqXqXqX",
"qXqXqXqXqXqXqXqXqXqXqXqXqX5Xl.+ g A.J.I.L.J.H.H.j h K.S.9 s % X m R.f r d g V.P.j h R.H.H.P.I.I.Q.D.A.g * ].7XqXqXqXqXqXqXqX9XqX",
"qXqXqXqXqXqXqXqXqXqXqXqXqXqX3Xj.x 7 A.D.I.I.L.L.T.j n e N.@ . . m T.y X X 9 e n l U.J.I.Q.J.P.P.F.k 7 G z.5XqXqXqXqXqXqXqXqXqXqX",
"qXqXqXqXqXqXqXqXqXqXqXqXqXqXqXeX/ i 9 A.J.I.I.J.Q.T.# p 9 t o . m E.@ o @ 8 7 O M I.I.L.I.L.P.J.V.g * z.qXqXqXqXqXqXqXqXqXqXqX9X",
"qXqXqXqXqXqXqXqXqXqXqXqXqXqXqXqXoXc.* a V.J.I.I.I.K.w p @ 7 7 . m M # t 9 y y 9 S.L.I.I.I.I.D.V.p z [.7XqXqXqXqXqXqXqXqXqXqXqXqX",
"qXqXqXqXqXqXqXqXqXqXqXqXqXeXqXqXqX5Xr.x 0 A.F.F.H.H.C.7 O 9 8 o m G.+ p w @ t M.S.D.P.I.P.D.A.7 x j.7XqXqXqXqXqXqXqXqXqXqXeXeXqX",
"qXqXqXqXqXqXqXqXqXqXqXqXqXqXqXqXqXqXqXj.O 9 M.M.F.H.C.7 O 9 8 o m E.+ 7 w @ t N.M.C.H.I.J.V.7   x.qXqXqXqXqXqXqXqXqXqXqXqXqXqXqX",
"qXqXqXqXqXqXqXqXqXqXqXqXqXqXqXqXqXqXqX3Xz.x y t e V.m.w 8 w 8 o q e O y M.9 9 M.M.C.S.l u i x c.5XqXqXqXqXqXqXqXqXqXqXqXqXqXqXqX",
"qXqXqXqXqXqXqXqXqXqXeXqXqXqXqXqX9X8X1X<X[.Z $   y 9 9 9 9 9 7 o y 7 O t 9 9 9 9 9 9 9 y     U 9XqXqXqXqXqXqXqXqXqXqXqXqXqXqXqXqX",
"qXqXqXqXqXqXqXqXqXqXqXqXqXqXqXqX9X2XS * * $     o O X O O O . . o O o O O O O O O O O o $ . U qXqXqXqXqXqXqXqXqXeXqXqXqXqXqXqXqX",
"qXuXqXqXqXqXqXqXqXqXqXqXqXqXqXqX[./ ! ! I P K K K P I L K I ! ! I ! ! ! I ! I K v K K I T ! ! / 3XqXqXqXqXqXqXqXqXqXqXqXqXqXqXqX",
"qXqXqXqXqXqXqXqXqXqXqXqXqXqXqXqXY Z XX&X*Xn.s.s.s.f.*X}.g.*X&X&X&X&X&X&X&X&X*Xs.s.s.s.'.&X&Xt.o c.qXqXqXqXqXqXqXqXqXqXqXqXqXqXqX",
"qXqXqXqXqXqXqXqXqXqXtXqXqXqXeXtXQ , y.g.g.g.a.s.s.f.f.g.s.f.n.f.f.f.f.f.f.f.g.d.s.s.a.g.f.f.I   x.qXqX9XqXqXqXqXqXqXqXqXqXqXqXqX",
"qXqXqXqXqXqXqXqXqXqXqXqXqXqXeXtX[.Y L 6.L L L L 6.9.9.0.w.w.u.s.s.s.s.d.e.e.9.9.6.L L L L L T Q 1XtXeXqX9XqXqXqXqXqXqXqXqXqXqXqX",
"qXqXqXqXqXqXqXqXqXqXqXqXtXwXtXtXrX2XZ $         Z 3.3.4.8.8.9.s.s.s.s.0.5.3.3.3.:           U rXrXrXtXqXqXqXqXqXqXqXqXqXqXqXqXqX",
"qXqXqXqXqXqXqXqXqXqXqXqXeXtXtXtXrX0X XH $ < 5 5 4.5.5.5.e.e.d.s.s.s.s.d.e.5.5.4.A 5 5 : & / <XrXrXyXtXeXqXqXqXqXqXqXqXqXqXqXqXqX",
"qXqXqXqXqXqXqXqXqXqXwXwXtXwXwXtXrXrXrXk.% 5 7.8.8.q.9.e.s.s.s.s.s.s.s.s.a.0.9.9.8.5.6.Z U 4XrXrXrXrXrXtXwXtXqXqXqXqXqXqXqXqXqXqX",
"qXqXqXqXqXqXqXqXqXqXtXwXtXwXrXrXrXrXrXk.% A 7.8.0.d.a.a.s.s.s.s.s.s.s.s.s.a.a.a.9.3.: j.6XwXrXrXtXtXrXrXtXwXqXqXqXqXqXqXqXeXqXqX",
"qXqXqXqXqXqXqXqXeXwXrXrXrXrXrXtXrXrXrXk.  ] 8.8.0.a.a.s.s.s.s.s.s.s.s.s.s.s.s.s.q.3.% / rXrXrXrXtXtXrXwXtXtXwXwXqXqXqXqXqXqXqXqX",
"qXqXqXqXqXqXqXqXtXwXrXrXrXrXtXtXrXrXrXj.% ] 8.8.w.b.g.s.s.s.s.s.s.s.a.a.a.s.s.p.9.5 , z.rXrXrXrXtXtXrXrXwXtXtXtXqXqXeXqXqXqXqXqX",
"9XqXqXqX9XqXwXtXtXtXrXrXrXrXrXrXrXrXrXk.% L q.d.a.s.s.s.s.s.s.s.s.d.q.q.q.i.i.q.4 F  X6XrXtXrXrXrXrXrXrXrXrXrXrXtXeXqX9XqXqXqXqX",
"qXqXqXqXqXwXwXrXrXrXrXrXrXrXrXrXrXrXrXk.  5 9.s.s.s.s.s.s.s.a.i.a.p.7.8.7.i.w.8.: S 6XtXrXrXtXrXrXrXrXrXrXrXrXrXtXtXqXqXqXqXqXqX",
"qXqXqXqXeXtXtXrXrXrXrXrXrXrXrXrXrXtXrXl.& 5 9.d.s.s.s.s.s.s.i.5.e.p.9.8.7.i.0.5.1 D 4XrXrXrXrXtXrXrXrXrXrXrXrXrXtXrXtXeXqXqXqXqX",
"qXqXqXeXeXrXwXwXrXrXrXrXrXrXrXtXrXtXrX4Xc.K 4 9.i.s.s.s.s.s.a.i.a.a.p.w.w.q.6.: ~ .XwXrXtXrXrXrXtXrXrXtXrXrXtXrXrXtXtXwXqXqXqXqX",
"9XqXtXtXwXrXrXrXrXrXrXrXrXrXrXrXrXrXrXrX0XD : 5.0.i.i.i.p.p.p.i.i.i.i.u.w.7.5 . ].rXrXrXrXrXrXrXrXrXrXrXrXrXrXrXrXrXrXrXtXqXqX9X",
"qXqXtXeXrXrXrXrXrXrXtXrXrXrXrXrXrXrXrXrX6XH : 5.7.7.7.7.7.5.7.7.7.7.7.7.7.8.5   ].rXrXrXrXrXrXrXrXrXrXrXrXrXrXrXrXwXwXrXtXtXeXqX",
"eXwXtXtXrXrXtXtXrXrXrXrXrXrXtXrXrXrXrXrXwX].T < < < < < < < < < < < < < < < K / 4XrXrXrXrXrXrXrXrXtXrXrXrXrXrXrXrXrXrXrXtXrXtXeX",
"tXrXtXwXrXrXtXtXrXrXrXrXrXrXrXrXrXrXrXrXrXrX[.$ . o   o     o o o .   $   $ U rXrXrXrXrXrXrXrXrXrXrXrXrXrXrXrXrXrXrXrXrXrXrXeXtX"
};
