/* XPM */
static char *Brown1711481215_15_1712245309[] = {
/* columns rows colors chars-per-pixel */
"64 64 228 2 ",
"   c #221F30",
".  c #211E2F",
"X  c #23232F",
"o  c #232A2D",
"O  c #282A2E",
"+  c #2D212F",
"@  c #31252F",
"#  c #27372A",
"$  c #222131",
"%  c #2C2A36",
"&  c #2D2533",
"*  c #352B35",
"=  c #3C2B35",
"-  c #362B38",
";  c #3A323C",
":  c #36323A",
">  c #323D2C",
",  c #1F212E",
"<  c #55242A",
"1  c #482C34",
"2  c #532D38",
"3  c #522D37",
"4  c #4E3934",
"5  c #48373A",
"6  c #543735",
"7  c #69373A",
"8  c #7A3C3E",
"9  c #6D332E",
"0  c #255C1C",
"q  c #28581E",
"w  c #276719",
"e  c #356C1C",
"r  c #297814",
"t  c #347919",
"y  c #244D21",
"u  c #234424",
"i  c #2C5522",
"p  c #375727",
"a  c #394736",
"s  c #385531",
"d  c #0C6328",
"f  c #1B6C27",
"g  c #2D7625",
"h  c #347C25",
"j  c #2F652B",
"k  c #1B552A",
"l  c #47771D",
"z  c #475D27",
"x  c #48593A",
"c  c #57413A",
"v  c #79402E",
"b  c #7B4635",
"n  c #486A26",
"m  c #516A28",
"M  c #587922",
"N  c #586936",
"B  c #53712D",
"V  c #3C3740",
"C  c #443B42",
"Z  c #3E7646",
"A  c #54484A",
"S  c #594E50",
"D  c #5D5352",
"F  c #514E49",
"G  c #6A4744",
"H  c #7A4A43",
"J  c #66534C",
"K  c #645956",
"L  c #655856",
"P  c #755B56",
"I  c #666B48",
"U  c #6E615D",
"Y  c #6B6857",
"T  c #75655C",
"R  c #71704C",
"E  c #766961",
"W  c #7B6C64",
"Q  c #766561",
"!  c #7E7165",
"~  c #50614E",
"^  c #823432",
"/  c #AB2D21",
"(  c #B22E21",
")  c #B93A25",
"_  c #B83E31",
"`  c #A63D28",
"'  c #86452F",
"]  c #8F482F",
"[  c #9A4B2E",
"{  c #964D32",
"}  c #995434",
"|  c #885136",
" . c #BB412B",
".. c #BB4427",
"X. c #A65532",
"o. c #B95E34",
"O. c #AC482F",
"+. c #9D613A",
"@. c #AF6C3C",
"#. c #CB572D",
"$. c #CD5E32",
"%. c #C25F32",
"&. c #C44B29",
"*. c #D3612F",
"=. c #C96534",
"-. c #D46631",
";. c #D56A32",
":. c #D76D35",
">. c #C6773C",
",. c #DA7336",
"<. c #DD7C3A",
"1. c #D87639",
"2. c #E07F3B",
"3. c #863744",
"4. c #923C45",
"5. c #8A4243",
"6. c #9D4544",
"7. c #974545",
"8. c #95574C",
"9. c #845F45",
"0. c #A24A45",
"q. c #A14946",
"w. c #AA544A",
"e. c #AE5C4C",
"r. c #A6534A",
"t. c #B05E4E",
"y. c #96735A",
"u. c #926852",
"i. c #AD654A",
"p. c #B3644F",
"a. c #B36450",
"s. c #B66A52",
"d. c #B96D53",
"f. c #A27E5E",
"g. c #A47959",
"h. c #BB7256",
"j. c #BC7558",
"k. c #AA7549",
"l. c #826E67",
"z. c #8B7A6C",
"x. c #857368",
"c. c #937B6E",
"v. c #997F73",
"b. c #CD794A",
"n. c #CF7C72",
"m. c #D07A6C",
"M. c #28860E",
"N. c #29860E",
"B. c #2A8511",
"V. c #2A8711",
"C. c #388B13",
"Z. c #3C8129",
"A. c #458818",
"S. c #56891E",
"D. c #4A9116",
"F. c #569717",
"G. c #5C9919",
"H. c #59961A",
"J. c #639B1B",
"K. c #6B9D1C",
"L. c #62941E",
"P. c #729F1E",
"I. c #72A11D",
"U. c #6DA01D",
"Y. c #448522",
"T. c #4D8A23",
"R. c #578621",
"E. c #599221",
"W. c #4D8E30",
"Q. c #6E902E",
"!. c #79A823",
"~. c #79A22B",
"^. c #658957",
"/. c #89B531",
"(. c #E1833D",
"). c #E58B3F",
"_. c #E88C3F",
"`. c #DE813C",
"'. c #9CC43C",
"]. c #B48358",
"[. c #9B8676",
"{. c #929473",
"}. c #B18B65",
"|. c #A28C7B",
" X c #A78C7B",
".X c #A8927D",
"XX c #A88664",
"oX c #9BBF41",
"OX c #D28955",
"+X c #E78D41",
"@X c #E88D42",
"#X c #E28542",
"$X c #E79956",
"%X c #E59250",
"&X c #C88E66",
"*X c #C68B65",
"=X c #CB9B6A",
"-X c #DF9663",
";X c #D4826D",
":X c #E29865",
">X c #D5A46F",
",X c #EFB173",
"<X c #EBA05C",
"1X c #A1CA40",
"2X c #9DC741",
"3X c #AD9781",
"4X c #BA9C86",
"5X c #B59A85",
"6X c #B9A588",
"7X c #D7948C",
"8X c #C4A48C",
"9X c #C2AB8E",
"0X c #CAA98F",
"qX c #CDAC92",
"wX c #C6AF90",
"eX c #D3AF95",
"rX c #CDB495",
"tX c #CFBB98",
"yX c #D5B296",
"uX c #D5BC97",
"iX c #D5B598",
"pX c #D7BD9A",
"aX c #D9BC9B",
"sX c #D9B597",
"dX c #E6BAB4",
"fX c #D9BEA0",
"gX c #FFFFFF",
"hX c #FCF7F6",
/* pixels */
"pXpXpXpXpXpXpXpXpXpXpXpXpXaXaXaXpXpXpXpXpXpXpXpXpXfXpXpXfXfXW o % % % % % # D rXaXpXpXpXpXpXpXpXpXpXfXpXpXpXpXpXpXpXpXpXpXpXpXpX",
"pXpXpXpXpXpXpXpXpXpXfXpXpXaXpXpXpXpXpXpXpXpXpXpXpXpX9Xz.T T y.y.y.y.y.9.| | 9.E E ! 6XpXpXpXpXpXpXpXpXpXpXpXpXpXpXpXpXpXpXpXpXpX",
"pXpXpXpXpXpXpXpXpXpXpXpXpXpXpXpXuX9XwX6X9X9XpXpXuXrX.XF ; ; f.,X,X,X,X<X+X+Xk.4 * = [.6XuXpXpXaXpXpXpXpXpXpXpXpXpXpXpXpXpXfXpXpX",
"pXpXpXpXpXpXpXpXpXpXpXpXpXpXpXpX6XL F F S E 6XfXuXz.L XX}.}.-X$X$X$X<X%X+X+X#X@.X.{ J E 9XpXpXpXpXpXpXpXpXpXpXpXpXpXpXpXpXpXpXpX",
"pXpXpXpXpXpXpXpXpXpXaXpXpXpXuX5X{.J c c 6 G [.[.[.T R -X<X-Xb.,.:.<.+X+X).(.(._.(.;.' b c.6XpXpXrX.X[.3X[.3X|.6XtXpXpXpXpXpXpXpX",
"pXpXaXpXpXpXpXpXaXpXaXpXpXfXwXY J }.-X`.=.[ 4 * ; c.>X%X1._ ) ) ) #.(.+X).1.,.).).(.=.} 5 ! pXfX6XS - - V % : U rXpXpXpXpXpXpXpX",
"pXpXpXpXpXpXpXpXpXpXpXpXaX.X! T XX$X].| @.=.] 6 X 8.%X;.b.7X7X7X7X;X=.1.).`.`.)._.).:.X.= T pX[.Y p i n p n N R ! 3XpXpXpXpXpXpX",
"pXpXpXpXpXpXpXpXpXpXpXpXaX! : }.,X+X} @ +.`.-.] + ] #.) n.hXgXgXgXdX_ *.).+X+X)._._.,.X.1 U wXY # r D.U.I.!.'.Q.: ! rXpXpXpXpXpX",
"pXfXpXpXpXpXpXpXpXpXpXpXaX! * }.:X$.` ^ 9 | >.X.^ O.#.) n.hXgXgXgXdX_ $.+X@X@X+X+X+X#X>.X.b D s e D.J.P.I.I.I.~.Q.R K 5XtXpXpXfX",
"pXpXpXpXpXpXpXpXpXpXpXpXpX! % ].%X_ ( / < 4 OX:.) #.*.) n.hXgXgXgXdX_ =.+X+X@X@X+X+X).(.-.' $ y e M S.G.I.I.I./.'.N V 3XfXpXpXuX",
"pXpXpXpXpXpXpXpXpXpXpXpXpXW * k.1.) ( / < 5 =X-X#.,.,. .n.hXgXgXgXdX_ $.+X+X+X+X+X@X@X(.-.' X o o # q C.G.I.I.I.!.z V |.pXpXpXpX",
"pXpXpXpXfXpXpXpXpXpXpXpXpX! * k.OX) ( / < A >X$X*.2.<. .n.hXgXhXgXdX_ $.+X+X@X+X@X+X).(.-.' , # y y e D.J.I.K.I.U.n V [.pXpXpXpX",
"pXpXpXpXpXpXpXpXpXpXpXpXpXW * }.-X .( / < A =X-X*.2.,...n.hXhXhXhXdX .$.+X+X+X+X@X+X+X(.;.' X 0 M.M.D.K.I.I.I.I.I.z V |.pXuXpXpX",
"pXpXpXpXpXpXpXpXpXpXpXpXpX! % }.-X .( / < 5 OX#X*.2.(.,.b.n.m.n.m.m.:.<.+X+X+X+X).+X+X(.-.' , 0 M.M.D.I.I.I.I.I.U.z : |.pXpXpXpX",
"pXpXpXpXpXpXpXpXpXpXpXpXpX! * }.-X) ( / < 4 >.<.*.<._._.:.&.&.) ..#.).+X+X+X+X+X@X+X@X(.;.' X y r r C.J.G.J.J.H.R.N S 3XpXpXpXpX",
"pXpXpXpXpXpXpXpXpXpXpXpXpX! * }.-X..( / < 4 >.2.*.2._._.#X<.1.2.,.(.).+X+X+X+X+X@X+X+X(.-.' . o u r N.C.C.C.C.e a T 6XrXpXpXpXpX",
"aXpXpXpXpXpXpXpXpXpXpXpXpXW * }.-X_ ( / < 4 b.1.*.<.).+X+X+X+X+X+X+X@X+X+X+X+X+X+X_.).(.;.' , # y 0 0 0 0 0 0 p N R [.6XpXpXpXpX",
"pXpXaXpXpXpXpXpXaXaXpXpXpX! * }.-X) ( / < 4 >.<.*.<.+X+X@X+X+X_._.+X+X_.+X+X@X@X).+X@X(.-.' X 0 r o . , $ $ X x 2XN V [.pXpXpXaX",
"pXpXpXpXpXpXpXpXpXuXpXaXpX! - }.-X .( / < 4 @.(.*.<.+X+X+X+X+X+X_.+X+X@X+X@X+X+X(.,.(.(.-.' $ 0 t l m m m m m R./.m ; 3XpXfXaXpX",
"pXpXpXpXpXpXpXaXpXpXpXaXaXW * }.-X) ( / < 4 >.(.*.2.+X_.+X+X+X+X@X+X+X+X+X+X+X@X<.:.(.(.-.' X 0 C.F.U.I.I.I.I.I.I.z V [.pXpXpXpX",
"pXpXpXpXpXpXpXpXpXpXpXaXpXW O k.1.) ( / < c @.(.*.2._._.+X+X).+X+X+X+X@X@X+X+X).).(.).(.;.' X 0 N.C.D.I.I.I.I.I.P.z : [.pXpXpXpX",
"pXpXpXpXpXpXfXpXpXpXpXaXaXW @ i.,.) ( / < 4 `.,.#.:.2.).@X+X+X+X+X+X+X+X2.<.(.).).).`.;.X.H K s w M.C.F.F.F.F.S.M N T 6XpXpXpXaX",
"pXpXpXpXpXpXpXpXpXpXaXaXsXW * @.,.) ( / < 4 @.;.( &.:.(.+X+X+X+X@X_.+X1.-.-.:.).+X+X1.X.1 L 0XK # r M.M.V.V.C.w o ! tXuXpXpXfXpX",
"pXpXpXpXpXpXpXpXuXaXaXuXyXT % X.,.=.[ 9 b +.>.X.< O.;.(.+X+X+X).<.<.).<.*.*.:.(.+X_.:.X.= P eX XY p y y y y y x ! 3XpXpXpXpXpXfX",
"pXpXpXpXpXpXpXpXfXfXiXyXyXx.5 { =.`.} = +.<.%.v X v %.<.#X+X@X).,.,.+X<.;.-.,.(.#X#X=.{ 4 W yXyX5XA V ; ; ; ; Q rXfXpXpXpXpXpXpX",
"pXpXpXpXpXpXpXpXaXiXiXeXsX4Xv.G v %.o.X.=.o.7 = . 1 9 o.<.+X+X).(.).).(.(.2.2.,.:.-.b G c.4XyXyX0X3X|.|.|. X|.4XuXpXpXpXpXpXpXpX",
"pXpXpXpXpXaXpXuXiXyXqXiXyXyX0Xl.J { [ [ [ ] J S S S J | o.<.(.2.<.(.2.(.(.(.;.[ [ { H Q 8XyXsXyXeXeXyXyXeXyXyXiXpXpXpXpXpXpXpXpX",
"pXpXpXaXaXaXuXuXyXyXeXyXyXeXeXqX[.5 @ @ @ A  X8X9X8X|.c 9 -.-.-.*.;.*.*.*.*.X.1 & - c.0XeXyXyXyXyXeXyXyXyXeXeXyXiXpXaXfXpXpXpXpX",
"pXpXpXpXpXaXiXyXyXyXyXyXyXyXyXeX4Xx.T W W c.8XyXyXyX8Xz.P 8 v v v v ' 9 v v b T l.l.5XeXeXsXeXeXeXyXsXeXyXyXyXyXyXiXiXuXaXaXpXpX",
"aXpXpXaXaXaXyXqXyXeXyXyXyXyXyXeXyXyXyXyXyXyXyXyXyXyXyXyX[.= % * X X O O X & D 8XsXeXeXeXsXsXeXeXyXyXyXyXyXyXyXeXrXiXsXuXaXaXpXpX",
"pXpXpXpXyXyXyXyXyXyXyXyXyXyXyXsXyXyXyXyXyXeXyXyXyXyXyXsX8X[.[.x.5 > B a & T .XeXeXsXeXeXeXsXeXeXeXeXyXyXyXyXyXyXeXyXyXiXaXpXpXpX",
"pXpXpXuXyXyXyXyXyXyXyXyXyXyXyXsX8X.X X X X X X4XyXyXyXyXeXyXeX4XF p K.z - |.yXyXeXsXeX0X X3X3Xv. X3X4XeXyXyXyXyXyXyXyXiXpXpXpXpX",
"fXiXyXyXeXeXyXyXyXsXyXyXyXyXyXyX.XF ; ; ; ; ; T eXeXsXyXrXtXtX6XZ g K.z % [.yXeXyXyXyX3XA V V - V V Q yXeXyXyXyXsXyXyXyXyXaXpXpX",
"aXsXyXyXsXyXyXyXyXyXyXyXyXyXqX[.R I N N m p i ~ l.5XyXyXyXtXtX6XZ g J.l a {.yXyX.XW l.Y s i z N N N I ! 5XeXyXyXyXyXyXyXyXsXpXpX",
"iXyXeXeXeXsXyXyXyXyXyXyXyXeX8XD x /.'.'./.L.C.0 $ x.qXeXuXuXtX6XZ r L.Z.f |.yXqXW o X # r D.K./.oX2XQ.% x.eXeXyXyXyXeXyXyXyXpXpX",
"yXyXyXyXsXeXyXyXyXyXyXyXeX[.K R Q./././.I.K.H.A.w x Q 6XyXaX{.^.W.Z.g ^.3X6X5XU x w n M S.A.g Z.W.~./.Q.I Q 4XeXyXyXyXyXyXyXsXaX",
"yXyXyXyXyXyXyXyXyXyXyXeXyXW % Q./.P.K.E.E.L.K.G.C.i a c.6XuX^.k R.E.f ^.tX5Xx.a q C.F.E.E.A.f f h L.!.'.N ; 3XeXyXyXyXyXyXyXyXiX",
"yXyXyXyXyXyXyXyXyXyXsXyXeXW O M /.~.T.f f g L.U.J.A.e a W uXQ # R.W.d ^.wXU a w A.J.h f f h J.L.E.P.!.!.z ;  XyXyXyXyXyXyXyXyXyX",
"yXyXyXyXyXyXyXyXyXyXyXyXeXW O e G.K.R.h h h Z.Y.Y.D.C.i x z.A # M R.k ~ ! x w A.D.Y.h h h T.I.I.~.I.J.F.p V 3XyXyXyXyXyXyXyXyXyX",
"yXyXyXyXyXyXsXsXyXyXyXyXiXW O w C.K.U.P.P.E.f d d Y.J.C.0 X   * M M O $ o w C.K.Z.d S.I.P.P.I.I.I.I.F.B.y V  XyXsXyXyXyXyXyXyXyX",
"yXyXyXyXsXyXyXyXyXyXyXyXyX5Xx.x q A.F.P.P.J.S.A.A.n p t w ,   # R.M & + o w r p l T.J.I.I.I.I.I.J.F.t y I [.8XyXyXyXyXyXyXyXyXyX",
"yXyXyXyXyXyXyXyXyXyXyXyXyXeX0XP a w l L.L.K.K.!.U.z u w 0 # o O M M O o u 0 0 # p J.U.I.I.U.J.L.R.t p C c.yXyXyXyXyXyXyXyXyXyXyX",
"yXyXyXyXyXyXyXyXyXyXyXyXyXyXeX4Xz.a # > e D.K.I.I.A.w u u w u # M B & u w u u w t C.G.I.I.G.C.i > # S  X8XyXyXyXyXyXyXyXyXyXyXyX",
"yXyXyXyXyXyXyXyXyXyXyXyXyXyXyXyX4XT L K s w n M F.C.r y 0 M.y # l l X 0 r 0 0 B.M.M.D.H.l n 0 ~ K K c.eXyXyXsXyXyXyXyXyXyXyXyXyX",
"yXyXsXyXyXyXyXyXyXyXyXyXyXyXeXyXeXeXeXwXK X X y B.B.M.M.M.M.y o w w o 0 M.B.B.M.M.M.V.w # , & x.qXqXeXeXyXyXyXyXyXyXyXyXyXyXyXyX",
"yXyXyXyXyXyXyXyXyXsXyXyXyXyXyXyXyXyX.XT V & , # y q y y y y # X u u X # y y y y q y y u o $   A l.8XsXeXyXyXyXyXyXyXyXyXyXyXyXyX",
"yXyXyXyXyXyXyXyXeXyXyXyXyXyXyXyXrX6Xl.= ; = - * : * = ; = = = ; = ; ; = - ; ; = * - * * - : ; ; A |.8XeXyXyXyXyXyXyXyXyXyXyXyXyX",
"yXyXyXyXyXyXyXyXsXyXyXyXyXyXyXyX5XL T f.f.y.u.8.8.8.8.y.y.8.y.f.XXy.XXg.f.f.f.f.u.8.8.8.8.u.f.f.y.J l.eXyXyXyXyXyXsXyXyXyXyXyXyX",
"yXyXyXyXyXyXyXyXyXyXiXiXeXyXiXiX[.V J &X&X*Xh.d.d.d.j.*Xm.d.].&X&X&X&X&X&X&X&X&Xm.d.d.d.h.b.&X&Xg.V L eXyXiXyXeXyXyXyXyXyXyXyXyX",
"yXyXyXyXyXyXyXyXyXsXyXeXeXiXiXfX3XV G d.h.d.d.d.d.s.d.d.d.d.h.h.h.h.j.h.j.h.j.j.s.d.d.s.s.h.j.j.8.1 L eXiXyXyXyXyXyXyXyXyXyXyXyX",
"yXyXyXyXyXyXyXyXyXyXyXyXiXpXpXpX6Xz.P G G G G G G 5.r.8.r.e.e.e.s.s.h.d.s.t.w.r.8.7.H G G G G G G W [.iXiXeXyXyXyXyXyXyXyXyXyXyX",
"yXyXyXyXyXyXyXyXyXyXyXiXaXpXaXpXaXuXz.V &   + @ & 7 3.3.4.q.q.r.a.h.s.h.s.w.6.3.3.3.2 & & $ $ % S 4XaXaXyXiXyXyXyXyXyXyXyXyXyXyX",
"yXyXyXyXyXyXyXyXeXyXsXuXaXaXpXpXpXpX6X[.A @ 7 8 8 4.4.7.r.t.a.a.s.d.d.d.d.a.e.6.7.4.^ 8 8 3 $ U 3XrXpXuXpXuXyXeXyXyXyXyXyXyXyXyX",
"yXyXyXyXyXyXyXyXyXyXaXpXuXuXpXpXpXpXfXrXL = 4.0.q.q.w.w.t.d.d.d.d.d.d.d.d.d.a.w.r.r.r.6.3.G S |.pXpXpXpXaXaXyXyXyXyXyXyXyXyXyXsX",
"yXyXyXsXyXyXyXyXiXuXpXpXpXpXpXpXpXpXfXeXL - ^ r.q.e.a.a.s.d.d.d.d.d.d.d.d.d.d.d.s.a.w.3.1 L 9XrXpXpXpXpXpXpXuXiXyXyXyXyXyXyXyXyX",
"yXyXyXyXyXyXyXyXaXpXpXpXpXpXpXaXpXpXuXrXK 1 5.r.e.a.d.d.d.d.d.d.d.d.d.a.e.e.t.d.a.w.H G T |.pXpXaXaXpXpXpXpXaXaXyXyXyXyXyXyXyXyX",
"yXyXyXyXeXyXpXaXuXaXpXpXpXpXpXpXaXpXpXrXK = 5.w.d.d.d.d.d.d.d.d.d.d.h.w.q.q.w.a.e.6.1 A 6XpXpXpXpXpXaXpXpXaXpXpXaXiXyXeXyXiXyXyX",
"yXyXyXyXyXuXuXpXpXaXpXaXpXpXpXpXpXpXpXrXK 1 5.e.d.d.d.d.d.d.d.s.w.e.d.e.q.q.w.s.i.6.3 A 4XpXpXpXpXpXpXpXpXaXpXpXaXaXiXyXeXyXyXyX",
"yXyXyXyXsXuXpXpXpXpXpXpXpXfXpXaXpXaXaXrX! A 8 7.a.s.d.d.d.d.d.s.e.e.h.t.w.w.w.a.8.3.A U 6XfXpXfXpXaXpXpXpXpXpXpXaXpXaXiXyXyXyXyX",
"yXyXyXyXiXaXpXpXpXpXpXpXpXpXpXpXpXpXpXpXwX[.C 7 0.p.d.d.d.d.d.d.s.s.s.s.a.a.t.r.7 1 z.9XpXtXpXpXpXpXpXpXaXpXpXpXpXpXaXiXiXyXyXyX",
"yXyXiXaXpXpXuXuXpXpXaXpXpXpXpXpXpXpXpXpXfX3XA 2 0.r.e.t.e.e.t.e.e.e.t.e.t.e.w.q.7 O [.pXpXpXpXpXpXaXpXpXpXpXpXpXpXpXpXpXiXiXyXyX",
"eXyXiXaXpXuXpXpXpXpXpXpXpXpXpXpXpXpXpXpXpX3XV 2 q.q.6.q.6.6.q.6.q.q.6.6.6.q.6.q.7 % [.tXpXpXpXpXpXpXpXpXpXpXpXpXpXpXpXpXaXaXiXeX",
"iXuXpXaXpXpXpXpXpXpXpXpXpXpXpXpXpXpXpXpXpXwX|.P 2 2 3 3 2 2 2 3 3 3 3 2 2 3 2 2 P [.9XpXfXpXpXpXpXpXpXpXpXpXpXpXpXpXpXuXpXuXiXiX",
"aXpXpXpXpXaXfXpXpXpXpXpXpXpXpXpXpXpXpXpXpXpXpXz.  . . .   .       .             T pXpXpXpXpXpXaXpXpXpXpXpXpXpXpXpXpXpXpXpXpXaXfX"
};
