/* XPM */
static char *enemy_4_1712245309[] = {
/* columns rows colors chars-per-pixel */
"64 64 238 2 ",
"   c #221F30",
".  c #231E2F",
"X  c #22222F",
"o  c #222D2C",
"O  c #2A292D",
"+  c #223D26",
"@  c #2C322D",
"#  c #25372A",
"$  c #252231",
"%  c #292331",
"&  c #2C2836",
"*  c #2D2B38",
"=  c #322631",
"-  c #332B34",
";  c #3D2C36",
":  c #382A37",
">  c #383339",
",  c #35262F",
"<  c #1F2130",
"1  c #432C2F",
"2  c #412934",
"3  c #482C37",
"4  c #48343A",
"5  c #573B3D",
"6  c #583535",
"7  c #522F35",
"8  c #642629",
"9  c #692829",
"0  c #7D3C3E",
"q  c #753E30",
"w  c #6E3534",
"e  c #25591D",
"r  c #254F1F",
"t  c #25611B",
"y  c #296A19",
"u  c #277216",
"i  c #2A7A14",
"p  c #33701A",
"a  c #254C22",
"s  c #284527",
"d  c #3B492A",
"f  c #2A5622",
"g  c #385828",
"h  c #364E33",
"j  c #126629",
"k  c #166928",
"l  c #2A7625",
"z  c #327A24",
"x  c #357725",
"c  c #316829",
"v  c #1D4F2A",
"b  c #45791C",
"n  c #435629",
"m  c #424C34",
"M  c #4E523B",
"N  c #7D412F",
"B  c #7D4633",
"V  c #795138",
"C  c #486824",
"Z  c #557424",
"A  c #586837",
"S  c #517129",
"D  c #64773A",
"F  c #3D3540",
"G  c #443D44",
"H  c #7A3A41",
"J  c #3C5842",
"K  c #4D444A",
"L  c #474643",
"P  c #5D4C45",
"I  c #56484A",
"U  c #5D5352",
"Y  c #555549",
"T  c #774842",
"R  c #785449",
"E  c #695E5B",
"W  c #655856",
"Q  c #6A4F4C",
"!  c #4E7C4E",
"~  c #58604B",
"^  c #6C6458",
"/  c #74635E",
"(  c #776959",
")  c #6B6F4B",
"_  c #766561",
"`  c #7C6962",
"'  c #786662",
"]  c #7E7166",
"[  c #AF2D1F",
"{  c #AC2E22",
"}  c #B22E21",
"|  c #B53727",
" . c #B73B31",
".. c #983E2C",
"X. c #82422E",
"o. c #89472F",
"O. c #9B4C2E",
"+. c #874631",
"@. c #984C30",
"#. c #895739",
"$. c #945B38",
"%. c #9F502F",
"&. c #AA5532",
"*. c #9B643D",
"=. c #B16538",
"-. c #C9572D",
";. c #C7582E",
":. c #C8542C",
">. c #D3612F",
",. c #CE6232",
"<. c #C96539",
"1. c #D36331",
"2. c #D56A32",
"3. c #DB7536",
"4. c #DB7638",
"5. c #DD7B39",
"6. c #D87637",
"7. c #CD6934",
"8. c #E07F3B",
"9. c #8A3C45",
"0. c #913E46",
"q. c #8B4443",
"w. c #9A4545",
"e. c #885447",
"r. c #895548",
"t. c #99594B",
"y. c #A34B45",
"u. c #A24A46",
"i. c #A75047",
"p. c #AC5C4D",
"a. c #A8544A",
"s. c #AE5F50",
"d. c #856C59",
"f. c #9B795C",
"g. c #906A4F",
"h. c #A3614F",
"j. c #AE614E",
"k. c #B1634F",
"l. c #B26450",
"z. c #B66A52",
"x. c #B96D53",
"c. c #A87759",
"v. c #BD7658",
"b. c #BB7256",
"n. c #A86D4F",
"m. c #826E66",
"M. c #86726A",
"N. c #89776B",
"B. c #977D69",
"V. c #967F73",
"C. c #A17E60",
"Z. c #CA7251",
"A. c #CF7968",
"S. c #29860E",
"D. c #2A8311",
"F. c #2F8810",
"G. c #388A13",
"H. c #31890F",
"J. c #3D8123",
"K. c #488919",
"L. c #558C1E",
"P. c #4B9316",
"I. c #5A9619",
"U. c #658D1E",
"Y. c #659B1C",
"T. c #6B9D1E",
"R. c #69961E",
"E. c #709F1D",
"W. c #72A11D",
"Q. c #6EA01B",
"!. c #458622",
"~. c #4B8723",
"^. c #5A8421",
"/. c #5C9627",
"(. c #698D26",
"). c #73942F",
"_. c #7AA825",
"`. c #6FA536",
"'. c #638755",
"]. c #819E3D",
"[. c #83A339",
"{. c #8CB835",
"}. c #88B22F",
"|. c #D8843E",
" X c #E2843D",
".X c #E68B3F",
"XX c #E88C3F",
"oX c #98C23A",
"OX c #B6895D",
"+X c #9ABE41",
"@X c #9A8776",
"#X c #8B916F",
"$X c #A88261",
"%X c #B48964",
"&X c #A48C7B",
"*X c #A58B7B",
"=X c #A9937E",
"-X c #A4937C",
";X c #829D40",
":X c #D18555",
">X c #E78D41",
",X c #E88E42",
"<X c #E38640",
"1X c #E79C59",
"2X c #E69150",
"3X c #EAA15A",
"4X c #C88E66",
"5X c #C58B64",
"6X c #D6897F",
"7X c #EDB377",
"8X c #F1B879",
"9X c #EBA865",
"0X c #DFAB72",
"qX c #AB9581",
"wX c #BD9E89",
"eX c #B59A85",
"rX c #B9A488",
"tX c #A8A981",
"yX c #D68C85",
"uX c #DA9B94",
"iX c #C3AC8E",
"pX c #C6A58D",
"aX c #CDAB91",
"sX c #C6AC90",
"dX c #D1AF94",
"fX c #DDA49D",
"gX c #CCB394",
"hX c #C8B590",
"jX c #D5B296",
"kX c #D3BB97",
"lX c #D5B598",
"zX c #D7BD9A",
"xX c #D9BC9B",
"cX c #D9B398",
"vX c #DCB3A1",
"bX c #FCF4F2",
"nX c #F6E6E6",
"mX c #D6C09B",
/* pixels */
"zXzXzXzXzXzXzXmXzXzXzXzXzXzXmXzXxXzXzXzXxXxXzXzXzXzXzXqXE W W W W W E W W #XpXxXzXzXzXzXzXzXzXzXmXzXzXzXzXzXzXzXzXzXzXzXzXxXzXzX",
"zXzXzXzXzXzXzXzXzXzXzXzXzXmXzXzXxXzXzXzXzXzXzXgXiXiXrXN.h > F > > > ; , - W =XpXiXhXkXzXzXzXzXzXzXzXzXzXzXzXzXzXzXzXzXzXxXxXzXmX",
"zXzXzXzXzXzXzXzXzXzXzXzXzXzXzXzXzXzXzXzXzXzXzX-X/ W E ( $X$X$X$XC.c.*.*.$.g.R ^ E N.iXzXzXzXzXzXzXkXzXzXzXzXzXmXzXzXzXzXzXzXzXzX",
"zXzXzXgXiXiXiXiXiXgXzXzXzXzXzXzXzXzXzXgXsXiXiXN.4 > > d.0X7X7X8X8X9X2X.X.X=.4 - - Q =XgXzXzXzXzXzXkXhXiXiXgXkXzXzXzXzXxXmXxXzXzX",
"zXzXkX@XE E E E ^ @XzXzXzXzXmXzXzXzXzX-X^ ^ ^ d.B.c.$XOX1X3X3X3X3X2X,X.X.X|.*.$.o.#.W N.iXmXzXzXzXrXM.^ E M.rXzXzXzXxXzXxXzXzXzX",
"zXgXrX( > - - & ; m.iXiXiXsXiXiXiXiXiXM.> - - d.7X8X8X3X2X>X>X>X,X>X>X.X.X.X.X|.2.%.7 U =XhXkXgXsX@XL * & Y -XhXkXzXzXxXzXzXzXxX",
"kX@X/ m.f.g.$.@.o.R E E E ^ ^ E ^ ^ ^ ` B.c.$XOX1X3X3X1X.X>X>X>X,X>X.X X5.5..X X8.<.@.V ^ B.iXrXM.~ g c ^.) ( N.rXxXzXzXmXzXzXzX",
"rX/ > c.8X1X|.6.,.N = % . % , , = - = d.7X8X8X3X>X>X>X>X.X>X>X>XXX,XXX8.2.3. X.X>X8.2.@.2 I -X@Xm s u P.{.`.M Y -XgXkXzXzXzXzXzX",
"^ d.$X:X1Xn.V =.5.=.+.7 X 7 o.@.$.$.$.OX1X3X3X2X>X.XXXXX,X,X.X,XXX>X>X.X8.8.>X>X>X8.2.O.; > U ~ g p K.Y._.}.).) ^ N.rXzXzXzXzXzX",
"* $X8X3X|.+., #.|.6.1.N % X.>.6.>X>X,X>XXX X X.X.X X.X.X X X X X.X.X.X.X,X>X>X,X>X8.2.%.7 O X + u G.Y.W.E._.oX[.h K =XzXzXzXzXzX",
"* f.7XZ.:...9 q V =.6.%.9 O.>.6.>X>X>X>XXX6.;.;.;.-.-.-.;.;.;.;.;.2. X>X>X>X>X>X>X.X8.<.@.w = + u G.Y.E._._.oX].m K qXzXzXzXzXzX",
"* f.7XZ.} } { 8 . #.,X,.} :.>.6.>X>X,X,XXX,.| |  .| |  . . . .| } :.|.>X>X>X>X>X>X>X>X5.2.O.2 + u G.I.T.T._.oX[.m K =XzXzXzXzXzX",
"- g.1X,.} } { 8 . g.9XZ.:.>.8.8.>X>X>X>X,X,.} Z.uXfXfXfXfXfXfXA. .:.8.,X,X<X>X>X>X>X>X X2.O.1 o s f g C K.I._.).d K qXxXxXzXzXzX",
"& $.>X;.} } { 8 & g.8X2X>.3.XXXX>X>X>X>X>X1.| 6XnXbXbXbXbXbXbXfX&.;.8.,X,X,X>X>X>X>X.X5.2.O.1     X . + u G.I.Z > U -XzXmXzXzXzX",
": g.3X<.} } { 8 . f.8X2X>.3.XXXX,X,X,X>X>X5.7.Z.6XyXyXyXyXyXyXA.1.4.<X,X>X>X>X,X>X>X.X5.2.O.1 . X o a t i i g A ( @XiXzXzXzXzXzX",
"- f.7XZ.} } { 8 . d.7X2X>.8.,X,X,X>X>X>X>X,XXX2.| } } | | } } ;.8.2X,X,X,X>X>X>X.X>X>X X2.O.1 . X + y S.S.y + Y -XkXzXzXzXzXzXzX",
"- f.7XZ.} } [ 9 $ g.3X<X>.4.,X,X>X,X>X>X,X,X>X5.1.,.,.,.,.,.,.6..X>X>X,XXX.X,X X5.5. X X2.O.1 o a r r a r g S ) ( #XrXmXzXzXzXzX",
"- f.7XZ.} } [ 8 $ #..X6.>.4.>X>X,XXX>X>X>X>X.X>X,X>X>X>X>X>X>X>X>X>X>X,X>X>X,X8.2.3. X5.2.O.1 + u y + X X M [.;Xm K -XzXzXzXzXmX",
"& g.1X,.} } [ 8 $ #.>X4.>.3.,X>X>X>X.X>X,X>X>X>X>X>X>X>X>X>X.X>X.X>X,X>X,X>X,X X5.8..X X2.O.1 + i i C C n Z _.).d I =XmXzXzXzXzX",
", #..X-.} [ { 8 $ #.>X4.>.4.>X>X>X,XXX>X>X>X>X>X,X>X>X,X>X,X,X>X>X>X.X>X.X,X>X>XXX.X.X5.2.O.1 + u G.Y.W._.W.E.Z @ I =XmXxXzXzXzX",
"& $.<X;.} } { 8 % #. X2.:.-.3. X>X>X>X>X>X>X>X>X>X>X,X>X>X>X<X>X>X X5.5.3.8.<X,XXX X5.=.o.6 , + u K.I.W.W.W.W.U.d K =XzXzXzXzXzX",
"= $. X;.[ } [ 8 % #.XX-.[ :.>.3.>X>X.X>X>X,X,X>X,X>X,X>X,X,X,X>X>X5.2.1.>.3. X,X>X X2.O.2   . + u G.Y.W.W.W.W.Z @ K =XzXzXzXmXzX",
"& @.5.2.;...9 q #.=.3.%.8 ..>.2.3.3.3. X.X>X>X>X>X>X>X>X>X X8.8..X5.1.>.>.2. X>X,X8.2.O.1 F E W g y K.P.P.K.C A ( @XiXzXzXzXzXzX",
"O X.>.5.<XV % #.XX3.>.q . q >.>.>.>.>.5..X>X,X>X,X>X>X>X>X8.1.3. X5.2.>.>.3..X>XXX5.2.O.1 U =X@XG + y S.S.y + I -XzXzXzXzXzXzXzX",
"` R X.=.6.&.N &.6.&.N 1   7 N N N N N &.6.6.5. X.X>X>X>X>X<X8.8.>X X5.3.3.4.8.3.5.=.@.T ( V.pXwXN.^ g r f g W @XrXmXxXxXmXzXzXzX",
"hX^ = +.>.>.,.>.,.N X o . % . X % . < N ,.>.>.6.>X>X>X,X>X,X X>X>X>XXX.X>X5.2.>.>.@.1 I eXdXdXjXdX@XK   < K -XlXzXmXxXzXzXzXzXzX",
"kX@X/ e.X.N N N B R _ _ / / / / ' ' _ R N X.X.&.6.4.4.5.8.3.4.4.6.3.5.5.3.=.o.X.X.T / V.pXcXdXjXjXeXN.' ' N.pXjXzXzXzXxXzXzXzXzX",
"zXkXiX/ $ $ $ $ % ` dXaXdXdXdXdXaXaXjX` & $ $ q ;.1.>.>.1.1.1.>.1.>.1.1.1.@.1   $ Q =XdXdXdXcXjXjXjXdXgXaXlXdXjXlXzXzXxXzXzXzXzX",
"zXzXkXqX_ _ / / ' =XdXjXjXjXjXjXlXjXjXqX_ _ / R X.X.X.X.X.X.+.X.X.X.q X.X.q./ / / @XpXcXjXjXjXcXjXjXjXjXjXjXdXjXjXjXxXxXxXzXxXzX",
"zXzXxXlXlXsXaXaXdXdXjXjXjXjXjXjXjXjXjXdXaXaXdXM.: $ .   % . . . % % % X . W eXaXaXdXdXjXjXjXjXjXjXjXjXjXjXjXcXjXdXdXxXkXxXxXxXxX",
"zXzXzXkXkXjXdXjXdXjXjXjXjXcXjXjXjXjXcXjXdXcXjX*X` _ / / _ / / I & @ n d O U wXdXjXjXcXjXjXjXjXjXjXcXjXjXjXjXcXjXjXdXjXjXzXzXmXxX",
"zXzXzXkXdXdXjXjXjXjXcXjXjXjXcXjXjXjXjXjXcXdXcXdXsXaXaXaXaXaXaXM.: n U.C & Q wXjXjXjXjXjXjXjXdXjXcXjXjXjXjXcXdXjXcXjXdXkXlXzXzXmX",
"xXxXjXcXjXjXjXcXjXjXjXjXjXjXjXqXm.M.M.m.M.M.M.M.m.qXjXlXjXgXxX-Xh g R.(.n A '.-XiXjXjXjXjXjXlXwXV.M.M.M.M.M.M.M.M.M.M.V.pXjXxXxX",
"xXlXjXjXjXjXjXjXjXjXjXjXjXcXjXm.* & & % & & & = & ' pXlXdXzXxX'.k l /.T.T.~.k '.rXcXjXjXjXjXjX&XK * & & * * & & :   - I *XjXlXvX",
"lXlXdXdXjXjXjXjXcXdXjXjXdX=XM.( A A A A n n n g s Y ] M.M.qXgXtX'.'.J./.T.~.k '.rXkXjXwX@XM.M.^ g g n n n n n n A ~ A ) ` @XwXlX",
"lXjXjXjXjXjXjXjXcXcXjXjXjXm.* D +X+X+X}.R.R.R.K.S.f * * * ' hXkXzX#Xl z Y.K.j ! =XjXjX*XL = - s y p I.R.T.R.T._.{.+X{.;XM I @XlX",
"jXjXjXjXjXjXjXdXdXjXjX=XM.( A ).{.{.{.}.E.E.W.Y.P.b n g a Y N.qXgX#Xh c Y.~.k ! rXeX@X^ h d g C K.K.!.!.!.!.!.~./.`.[._.D ) ( @X",
"jXdXjXjXjXjXjXjXcXcXdXm.> D {.{._._.W.W.E.E.W.E.Y.T.R.K.D.t @ ( iX#X> g U.~.k ! rX@XK s u G.L.T.T.L.l j j j j j k l /.}.{.;XM K ",
"jXjXjXjXjXjXcXdXjXcXdX'   A {.}.E./.~.K.K.!.!./.W.W.E.Y.P.p e Y M.W * m (.~.f J ` ^ h c K.K.K.!.!.!.z z z z z z z !.R._.}.).m L ",
"jXjXjXjXjXjXcXcXjXdXdX`   C W.W.E.!.k k j j j G.T.W.Q.T.Q.P.i t > * $ d R.Z # $ - s u G.I.K.y k j l L.Y.Y.Y.Y.T.T.T.E.W.W.(.d G ",
"jXjXjXjXjXjXjXjXjXjXdX'   g I.I.E.L.z l z z z z !.~.~.~.S b S.e o < < d U.Z @ . . + u G.Z C z z l K.Y.W.W.W.W.W.W.W.W.T.I.b s G ",
"jXjXjXjXjXjXjXjXjXjXdX_   f D.I.E.E.Y.Y.Y.R.Y.!.k j j v @ a i e o < $ d U.Z @ . . + u y + n L.R.Y.T.E.W.Q.W.W.W.W.W.W.T.P.u + G ",
"jXjXjXjXjXjXjXjXjXjXdX@XW M t p Z L.I.Y.E.W.W./.x z z t a r e e a + $ d U.Z @ o + r e e a f K.I.T.W.W.W.W.W.W.T.I.I.b C t g ~ m.",
"jXjXjXcXjXjXjXjXcXcXdXaXpX/ o o O f H.I.T.E.E.T.Y.Y.Y.K.i e # a u e o n U.Z @ + u e + + u i S.P.Y.W.W.W.W.W.W.Y.G.z s @ o L B.pX",
"jXjXjXjXjXcXjXjXjXjXjXjXjXV.W W U M e p Z Z Z Z I.I.I.P.S.y a t i e o d K.C o a u u e e i S.S.F.P.I.I.L.Z Z Z C y g Y W W ' eXdX",
"jXjXjXjXjXjXjXjXjXjXjXjXjXpXwXwXrX( @ o @ @ @ e F.S.F.S.S.D.i i S.t o s i t o s u D.i i S.S.S.S.H.H.H.p s @ @ @ o L B.wXwXpXdXdX",
"cXjXjXjXjXjXjXjXjXjXjXjXjXcXlXlXxX] $ $ . X X + t t t t t t e t t a < + e s o # e e t t t t t t t t t r o . . X $ K *XcXjXjXdXcX",
"jXjXjXjXjXjXjXjXjXjXjXjXjXjXjXjXxX] $ . . . X X o o o o o o o o o o < X o o < X o o o o o o o o o o o o <   < . $ K *XjXjXjXjXjX",
"jXjXjXjXlXjXjXjXjXjXcXjXjXlXlXwX@X( P P P I G 5 5 5 5 M I G 5 P P P P P P P P P P P P P P P P I M 5 5 5 G G T Q P W M.&XpXjXjXjX",
"jXjXjXjXjXjXjXjXjXjXjXjXjXlXkXN.4 ^ %X%X%Xc.h.h.j.h.h.z.%Xc.l.n.%X%X%X%X%X%X%X%X%X%X%X%X%X%X%Xv.h.h.h.p.h.n.c.%X%Xf.P U =XjXjXjX",
"jXjXjXjXjXjXjXjXjXjXjXjXjXxXzX] $ R %X4X4Xv.v.x.x.x.z.v.5X5Xx.A.5X5X4X4X4X4X4X4X4X4X4X4X4X4X4X%Xb.x.z.x.x.v.5X4X4Xf.5 K *XjXjXjX",
"jXjXjXjXjXjXjXjXjXjXjXjXxXzXzX]   Q b.v.Z.b.x.x.x.x.x.v.b.b.x.b.b.v.v.v.v.v.v.v.v.v.v.v.v.v.v.b.b.x.x.x.x.x.b.v.v.t.4 L *XjXjXjX",
"jXjXjXjXjXjXcXjXdXjXcXxXxXxXzX@XU Q r.r.r.r.r.e.r.t.a.p.h.s.l.l.l.l.x.x.x.x.x.x.x.x.x.x.z.p.p.p.p.t.t.e.e.e.r.r.e.R Q _ eXjXjXjX",
"jXjXjXjXjXjXjXjXjXlXxXzXxXkXzXsXrX` 4 : 2 : : : & H 9.0.0.0.u.i.y.s.x.x.x.x.x.x.x.x.x.l.a.w.w.9.9.H 4 2 : : ; 2 2 I V.wXaXjXjXjX",
"jXjXjXjXjXjXjXjXlXlXzXmXzXzXzXzXxX@XU F $ - 3 3 3 w 9.9.9.0.a.a.a.p.z.x.x.x.x.x.x.x.x.l.a.u.0.9.9.H 7 3 3 2 & * G ' eXdXjXjXjXjX",
"cXjXjXjXjXjXjXjXzXmXmXzXzXzXzXxXzXhXeX_ $ 7 +.9.9.9.0.0.0.a.l.l.l.z.x.x.x.x.x.x.x.x.x.x.z.p.u.w.0.w.0.9.9.w : G V.wXaXjXjXjXjXjX",
"jXjXcXjXjXjXkXxXzXzXzXzXzXzXzXzXzXzXxX@XU Q 0 9.u.%.u.y.i.j.z.x.x.x.x.x.x.x.x.x.x.x.x.z.l.p.y.y.i.a.a.y.y.H 2 K qXjXjXjXjXlXjXjX",
"jXjXjXdXjXcXkXxXzXzXzXzXzXzXzXzXzXzXzXsXeX` : w 0.w.u.a.k.z.x.x.x.x.x.x.x.x.x.x.z.Z.x.l.a.y.y.i.k.k.z.s.y.9.2 K qXlXlXjXjXdXjXjX",
"jXjXjXjXcXlXxXmXzXzXzXzXzXzXzXzXzXzXzXzXzX@XU Q 9.9.w.p.x.x.x.x.x.x.x.x.x.x.x.z.l.z.x.k.y.u.u.i.k.x.x.h.q.T I ' eXxXzXlXjXdXjXjX",
"dXjXjXjXxXmXxXxXzXzXzXzXzXzXzXzXzXzXzXzXzXiXrX/ 4 w w.a.z.x.x.x.x.x.x.x.x.x.x.k.i.p.l.s.i.u.u.y.k.x.x.t.5 I @XrXgXzXxXxXjXjXjXjX",
"dXjXxXxXxXzXkXkXzXxXzXzXmXzXzXzXmXzXxXmXzXzXxX@XU P H w.k.k.k.k.k.k.j.k.k.k.k.p.u.y.p.p.u.@.u.y.k.k.k.e.4 K qXxXzXzXzXzXvXlXlXjX",
"jXlXcXxXxXkXxXmXmXzXzXzXxXzXzXzXxXzXxXmXzXmXxXsXqX` > H w.i.i.i.i.i.i.y.i.i.i.y.u.u.i.i.u.u.u.u.i.i.y.9.: I qXxXzXzXzXzXxXxXlXjX",
"xXlXkXzXzXzXzXxXzXzXzXzXmXzXzXxXxXzXzXxXzXxXzXzXkX&XU P H 9.H 0 0 0 H 9.0 0 0 0 0 0 9.H 9.0 H 0 0 0 0 T I ' rXzXzXzXkXzXzXzXlXlX",
"lXzXzXzXmXzXxXxXzXxXzXzXxXzXzXzXzXxXxXzXzXmXzXxXzXiXqX` 4 2 2 2 ; 2 2 2 2 2 2 2 2 2 , 2 2 2 2 2 2 2 2 I B.rXgXzXzXzXzXzXzXxXxXxX"
};
