/* XPM */
static char *enemy1712245309[] = {
/* columns rows colors chars-per-pixel */
"64 64 220 2 ",
"   c #221F30",
".  c #211F2F",
"X  c #22232E",
"o  c #222C2D",
"O  c #233B27",
"+  c #223429",
"@  c #2C372C",
"#  c #343D2B",
"$  c #232330",
"%  c #2C2635",
"&  c #352B33",
"*  c #382B35",
"=  c #352936",
"-  c #36313C",
";  c #39323B",
":  c #383A38",
">  c #303332",
",  c #4C242B",
"<  c #572B2D",
"1  c #50312F",
"2  c #452C31",
"3  c #4A2D38",
"4  c #542F37",
"5  c #542E39",
"6  c #4B3938",
"7  c #5D3239",
"8  c #5A3933",
"9  c #693935",
"0  c #743D34",
"q  c #69342C",
"w  c #275A1E",
"e  c #266B16",
"r  c #29671A",
"t  c #277614",
"y  c #377719",
"u  c #33671D",
"i  c #1C502A",
"p  c #244424",
"a  c #284825",
"s  c #3D4D29",
"d  c #36452C",
"f  c #285522",
"g  c #345727",
"h  c #3A4532",
"j  c #385639",
"k  c #136728",
"l  c #0B6327",
"z  c #357B24",
"x  c #346E24",
"c  c #45771D",
"v  c #475738",
"b  c #4C512E",
"n  c #744537",
"m  c #6C4538",
"M  c #527327",
"N  c #667B39",
"B  c #3D3741",
"V  c #433C44",
"C  c #5E3F44",
"Z  c #703941",
"A  c #387442",
"S  c #4B4448",
"D  c #56494A",
"F  c #5D5152",
"G  c #555748",
"H  c #664341",
"J  c #6A4A46",
"K  c #68554D",
"L  c #725B4D",
"P  c #755348",
"I  c #625655",
"U  c #655A59",
"Y  c #695D5B",
"T  c #6B5953",
"R  c #77564F",
"E  c #576D46",
"W  c #6B6359",
"Q  c #76665B",
"!  c #78715D",
"~  c #6A6F49",
"^  c #7B6B64",
"/  c #776661",
"(  c #7F7466",
")  c #A32D21",
"_  c #B22E21",
"`  c #B83A28",
"'  c #A63224",
"]  c #932C25",
"[  c #894B34",
"{  c #995635",
"}  c #92492F",
"|  c #B1542F",
" . c #BA592F",
".. c #A85733",
"X. c #B85831",
"o. c #B44A2A",
"O. c #9D653D",
"+. c #B56B3A",
"@. c #C6552E",
"#. c #C5512E",
"$. c #D2632F",
"%. c #CB6535",
"&. c #D36531",
"*. c #D66B34",
"=. c #D66E37",
"-. c #DA7336",
";. c #DD7B3A",
":. c #D77539",
">. c #C5793D",
",. c #E07F3C",
"<. c #883C45",
"1. c #923C44",
"2. c #894441",
"3. c #9A4745",
"4. c #935A4B",
"5. c #A04743",
"6. c #A24A45",
"7. c #A54F48",
"8. c #AE5D4C",
"9. c #A8554A",
"0. c #B15E4E",
"q. c #AB5F51",
"w. c #906F58",
"e. c #AF604F",
"r. c #B2634F",
"t. c #AE6251",
"y. c #B26450",
"u. c #B66952",
"i. c #B96D53",
"p. c #BD7859",
"a. c #AF774A",
"s. c #826E66",
"d. c #8C7B6D",
"f. c #857368",
"g. c #907B6F",
"h. c #957F72",
"j. c #C25A4D",
"k. c #C35B50",
"l. c #C07E5C",
"z. c #D27347",
"x. c #CE796B",
"c. c #29860E",
"v. c #27860E",
"b. c #298311",
"n. c #278411",
"m. c #388913",
"M. c #3E8122",
"N. c #468918",
"B. c #499215",
"V. c #549419",
"C. c #5A9719",
"Z. c #5B851E",
"A. c #6C9D1D",
"S. c #639A1C",
"D. c #6E991E",
"F. c #72A11D",
"G. c #6EA01D",
"H. c #498822",
"J. c #568922",
"K. c #5A9320",
"L. c #658C21",
"P. c #7D983B",
"I. c #70922D",
"U. c #7CAA24",
"Y. c #7FA434",
"T. c #748E60",
"R. c #8FB836",
"E. c #85AD33",
"W. c #CF803E",
"Q. c #D8813D",
"!. c #E2843D",
"~. c #E68B3F",
"^. c #9EC73D",
"/. c #9A8575",
"(. c #82916A",
"). c #B58E67",
"_. c #A38C7B",
"`. c #A88D7C",
"'. c #A8927E",
"]. c #AD8966",
"[. c #A8A37E",
"{. c #AC8E66",
"}. c #D18B59",
"|. c #E78D41",
" X c #E88D41",
".X c #E18B4A",
"XX c #E69553",
"oX c #CE9B6C",
"OX c #CA9468",
"+X c #DB9561",
"@X c #CB9F70",
"#X c #C48661",
"$X c #DAA76F",
"%X c #EDA968",
"&X c #F2BB7D",
"*X c #EBA25D",
"=X c #AE9A82",
"-X c #AF9381",
";X c #B39C84",
":X c #B69984",
">X c #B8A387",
",X c #C4A48D",
"<X c #C3AB8E",
"1X c #C9A88F",
"2X c #CDAB91",
"3X c #C8A591",
"4X c #D3AF95",
"5X c #DEA399",
"6X c #CDB494",
"7X c #D5B296",
"8X c #D6BC97",
"9X c #D5B598",
"0X c #D7BD9A",
"qX c #D9BC9B",
"wX c #D9BEA0",
"eX c #E4B7B2",
"rX c #F1D7D3",
"tX c #EED1CD",
"yX c #FFFFFF",
"uX c #FCF6F6",
/* pixels */
"0X0X0X0X0X0X0X0X0X0X0X0X0X0X0X0X0X0X0X0X0X0X0X0X0X0XqX0X8X>X^ I U U U U U U '.0X0X0XqX0X0X0X0X0X0X0XqX0X0XwX8X0X0X0X0X0X0X0X0X0X",
"0X0X0X0X0X0X0X0X0X0X0X0X0X0X0X0X0X0X0X0X0X0X0X0X0X0X<X=X[./.K b V C 6 1 6 6 d.'.;X>X0X0X0XqX0X0X0X0X0X0X0X0X0X0X0X0X0X0X0X0X0X0X",
"0X0X0X0X0XqX0XqX0X0X0X0X0X0X0X0X0X0X0X8X0X0X0X0X8X8X/.B S K ).@X@X@XOX}.+.W.n S : s.8X8X0X0XqXqX0X0X0X0XwX8XwX0X0X0X0X0X0X0X0X0X",
"0X0X0X0X0X0X0X0XqXqX0X0X0X0X<X/.d.d.d._.6X0X0X0X>X/.s.Q L w.+X%X%X%X*X X~.~.O.m m P d.>X0X0X0X0X0X0X0X0X8X8X8X0X0X0X0X0X0X0X0X0X",
"0X0X0X0X0X0X0X0X0X0X0X8X0X0X_.- X X X F ,X8XqX8X'.B w.&X&X%XXX~.|. X|.|.|.~.~.~.$.[ X d.0X0X0X0X0X0XqX9X0X0X0X0X0X0X0X0X0X0X0X0X",
"0X0XqX0X0X0X0X0X0X0X0X8X6Xd.L /.w.O.} [ T Y Y T ^ w.}.*Xz.%.@.@.@.:.|.|.~.;.Q.|.!.%.} P ( >X0X8X/.W Y Y F -XwXwX0X0X0X0X0X0X0X0X",
"0X0X0X0XqX0X0X0X0X0XqX1X'.K L %XXX+.=...8 & X & P $XXXz.k.k.k.j.k.z.;.|.;.*.!.|.~.,.%.9 S =X6X;XU + @ # h ( >X6X0X0X0X0X0X0X0X0X",
"0X0X0X0X0X0X0XqXqX0X8X(.S {.oXXX4.b +.:.X.q X 0 +.|.=.o.5XrXrXrXtXx.#.!.~.!.~.|.~.,.@.9 S ;X/.S u t J.I.E.~ F ;X0X0X0X0X0X0X0X0X",
"wX0X0X0X0X0X0X0XqX0X0X^ ; ).%X*.} < [ O.*.{ q o.*.,.%.` eXyXyXyXuXx.o.,.|. X|.|.|.~.:.{ m s.W a y B.S.U.R.I.N ! =X8X0X0X0X0X0X0X",
"0X0X0X0X0X0X0X0XqX0X0X^ ; ).+X` _ ) , m Q.@._ #.*..X%.` eXyXyXyXuXx.` ,.|. X|. X|.|.~.=.| 2 p v.V.A.U.G.D.R.E.6 U 6X0X0X0X0X0X0X",
"0X0X0X0X0X0X0X0X0X0X0X^ * a.z.` _ ) , m +X.X#.*.,.~.$.` eXyXyXyXuXx.` ,.|. X|. X|.|.~.-.| 2 + a s b N.V.U.U.I.b F 6X0X0X0X0X0X0X",
"0X0X0X0X0X0X0X0X0X0XqX^ * a.;.` ' ) , D $XXX$.;. X X%.#.5XrXrXrXtXx.@.!.|.|.|.|.|.~.~.-.| 2 o + O p y V.A.D.L.# U 6X0X0X0X0X0X0X",
"0X0X0X0X0X0X0X0X0X0X0X^ ; ]..X` _ ) , D $XXX&.,. X|.!.:.k.k.k.j.j.=.Q.~.~. X~.|.|.|.~.-.| 2 p e t t V.A.F.F.L.# F 6X0X0X0X0X0X0X",
"0X0X0X0X0X0X0X0X0X0X0X^ ; ).+X` _ ) , m +X.X$.,. X X|.|.&.@.@.@.@.-.|. X X X|.|. X|.|.-.| 2 p v.v.c.S.F.F.F.L.# U 8X0X0X0X0X0X0X",
"0X0X0X0X0X0X0X0X0X0XqX^ 2 ).+X` _ ) , 6 .X:.&.,. X|.|. X|.~.~.~.~. X X X~.|.|.|. X X|.-.| 2 p v.v.m.S.F.F.F.K.d F 8X0X0X0X0X0X0X",
"0X0X0X0X0X0X0X0X0X0XqX^ ; ).+X` _ ) , m >.:.&.,.|.|.|.|.~.|.|. X~.~. X X X X~. X|.|.~.;.| 2 + p e c.B.B.B.c v ! '.0X0X0X0XwX0X0X",
"0X0XqX0X0X0X0X0X0X0X0X^ - ).+X` _ ) , 8 :.:.&.!.|.~. X X~.|.|.|. X X|. X X X X~.~.~.~.-.| 2 o + w t t t e f S /.<X8X8X0X0X0X0X0X",
"0X0X0X0X0X0X0X0X0X0X0X^ - ).+Xo._ ) , b .X*.$.!.|.|.|.|. X|.|.|.|.~.|.|. X X~.!.-.,.~.-.| 2 O e f + + + + N P.G ( 8X0X0X0X0X0X0X",
"0X0X0X0X0X0X0X0X0X0X0X^ & ]..X` _ ) , 9 >.;.$.!.~. X|.|. X X|.~.|.~.|. X X X|.!.-.,.~.-.| 2 p v.u s s s s I.E.h F 6X8X0X0X0X0X0X",
"0X0X0X0X0X0X0XqX0X0X0X^ & +.=._ _ ) , 8 Q.;.$.;.|.|. X|.|.|. X|. X X|. X X X|.|.~.~.~.-.| * p v.V.A.A.A.D.F.L.d U 6X0X0X0X0X0X0X",
"0X0X0X0X0X0X0X0X0X0X0X^ & +.*.` _ ) , b W.=.#.$.;.|.|. X X X X~. X|.~.;.,.-.,.|.~.!.-.{ n s.K a y B.B.B.B.c v ! '.0X0X0X0X0X0X0X",
"0X0X0X0X0X0X0XqX0X0X0X^ & +.=.o.' ] q m :. .)  .*.~.|. X X X X X~.~.!.&.$.$.,.|.~.;.&.q V -Xh.B g t t t t d G ;X0X0X0X0X0X0X0X0X",
"0X0XqX0X0X0X0X0X0X0X0X/ & ..:.:.} , { +.*.} , o.*.~.|.|.~. X~.,.*.!.!.&.$.$.,.~.|.,.$.q 6 -X,X`.G O O O O ! '.6X0X0X0X0X0X0X0X0X",
"0XqX0X0X0X0X0X0X0X0X0X/.K n ..;...9 +.*.{ 8 X 9 ..:.;.,.~. X~.,.=.!.~.-.*.-.-.,.,.+.} P Q ,X7X7Xg.K F F F _.0X0X0X0X0X0X0X0X0X0X",
"0X0X0X0X0X0X0X0XwXqX9X2X:XF q @.%.%.$.{ 2     $ 7 @.$.&.,.~.~.~.~.~.|.~.|.~.-.$.$.} % g.2X7X7X7X4X2X2X2X3X6XqXwX0X0X0X0X0X0X0X0X",
"0X0X0X0X0X0X0X0X0X9X7X7X3X/.R n 0 0 0 n ^ s.s.s.Q n 0 n +.-.,.-.-.-.-.;.-.:.{ 0 0 P s.'.4X7X7X7X4X7X4X4X7X7X7X8X0X0X0X0X0X0X0X0X",
"0X0X0X0X0XqX0X0X7X7X7X7X7X7X`.V ; ; ; T ,X7X7X7X`.S ; 6 [  .X.X. . . . . . .9 ; ; ^ 7X7X7X7X7X7X7X7X7X7X7X7X7X9X0X0X0X0X0X0X0X0X",
"0X0X0X0XqX0X0X7X7X6X7X7X7X4X3X-X`._.`.'.2X7X7X7X1X`._./.J 1 1 1 1 1 1 1 1 1 s._.`.:X7X7X7X7X7X7X7X7X7X7X7X7X7X7X8X0XqXqX0X0X0X0X",
"0X0X0XwXwXqX7X6X7X7X7X7X7X7X7X7X:X/./.`.2X7X7X7X7X7X7X2Xf.F F 6   # # X ; F `.4X7X9X7X7X2X`./././.`.3X7X7X7X7X7X7X9X8XqXqX0X0X0X",
"qX0X0X0XqX9X7X7X7X7X7X7X7X7X7X7Xs.= - F ,X7X7X7X7X7X7X7X1X3X,X^ X M M @ T 1X4X7X7X7X7X7X=XS = & % S -X7X7X7X7X4X7X7X9X0XqXqXqXqX",
"0X0X0X0X7X7X7X7X7X7X7X7X7X4X:Xs.~ N N ~ Q Q s.:X7X7X7X7X7X7X7Xd.p M L.& Y 7X4X7X7X-X/ Q W M M N N ~ Q /.7X7X7X7X7X4X9X7X0X0X0X0X",
"0X0X0X8X7X7X4X7X7X7X7X7X4X3X/.: N ^.^.P.h o > d.3X4X7X7X7X7X7XT.l N.J.@ Q 7X7X4X,X^ o % # L.E.^.^.E.v U :X2X7X7X7X7X6X7X9X0X0X0X",
"wXwX7X7X7X7X7X7X7X7X7X7X,X^ K P.Y.E.U.U.N c u v / ,X9X7X6X0X6XT.l H.I.k W wX9X:XW j e c J.D.U.U.U.Y.P.I.F /.7X4X7X7X7X7X7X7XwXwX",
"9X9X7X7X7X7X7X7X7X7X7X7X>XD v E.E.A.K.H.V.N.m.f S d.:X6X9X>X=XT.z H.H.M.T.wX-X( h u N.B.J.J.C.U.G.U.R.N $ f.7X7X7X7X7X7X7X7X7XqX",
"9X7X4X7X7X7X7X7X7X7X7X7X,XD h D.F.S.z k l M.S.m.r > ! 6X9X=XA M.K.z A [.2X6XY : e N.A.z k k z G.F.F.U.M $ f.7X7X7X7X7X7X7X4X7X9X",
"7X7X7X7X7X7X7X7X7X7X7X7X,XD d N.C.G.N.M.M.M.H.N.N.r G ( >X=Xj y G.z A >X-X/ v g N.N.M.M.M.M.J.G.F.A.C.u $ f.7X7X7X7X7X7X7X7X7X7X",
"7X7X7X7X7X7X7X7X7X7X7X7X,XK d e B.A.F.F.A.N.k H.V.m.f > d./.; b A.z A =X( o r m.C.H.l H.F.F.F.F.D.S.m.w - d.4X7X7X7X7X7X7X7X7X7X",
"7X7X7X7X7X7X7X7X7X7X7X7X4X'.! a u B.S.F.U.S.H.z z V.N.e v S % b A.g + S v e N.V.z z J.S.F.F.F.F.C.y f G /.:X7X7X7X7X7X7X7X7X4X7X",
"7X7X7X7X7X7X7X7X7X7X7X7X7X7X'.K v e N.S.G.F.G.M.z M y b.p . o b D.s     a v.c M z H.F.F.F.F.G.C.y g S f.7X7X7X7X7X7X7X7X7X7X7X7X",
"7X7X7X7X7X7X9X7X7X7X7X7X7X7X4X,XQ + e B.G.F.F.G.M # f b.p X X g G.s . . f n.f d J.G.F.F.F.F.C.c.f v /.1X4X7X7X7X7X7X7X7X7X7X7X7X",
"7X7X7X7X7X7X7X7X7X7X7X7X7X7X7X7X_.Q j u B.V.B.A.K.g w w f p X b D.s o a i w w r N.C.F.F.A.V.y f G f.,X7X7X7X7X7X7X7X7X7X7X7X7X7X",
"7X7X7X7X7X7X7X7X7X9X7X7X7X7X7X7X7X,XI d t t b.V.C.c.w o r e + b A.s + t w o w v.v.N.A.A.L.m.u % g.7X7X9X7X7X7X7X7X7X7X7X7X7X7X7X",
"7X7X7X7X7X7X7X7X7X7X7X7X7X7X7X9X7X6X`.! d O a y m.v.t r t e o w m.a + t t r t v.v.m.B.u d p G h.,X7X5X9X7X7X7X7X7X7X7X7X7X7X7X7X",
"7X7X7X7X7X7X7X7X7X7X7X7X7X7X7X7X7X2X:X^ > . . w e e e e e w o O r O + w e e e e e e r O     D _.,X7X7X7X7X7X7X7X7X7X7X7X7X7X7X7X",
"7X7X7X7X7X7X7X7X7X7X7X7X7X7X7X7X4X,XU - $ $ $ X o o o o o X $ $ o $ $ o o o X o o o o X $ . % - g.7X7X7X7X9X7X7X7X7X7X7X7X7X7X7X",
"7X7X7X7X7X7X7X7X7X7X7X7X7X7X7X7X`.s.Q L T J J H H m J L J J L L L L L L L L L P H m H H H L L L Q g.,X7X7X7X7X7X7X9X7X7X7X7X7X7X",
"7X7X7X7X7X7X7X7X7X7X7X7X7X7X9X7X^ & w.@XoX#Xi.i.i.i.#XOXp.p.OXoX@XoXoXoXoX@XoXOXp.i.i.i.p.OX@XoXK 6 `.7X7X7X7X7X9X7X7X7X9X7X7X7X",
"9X7X7X7X7X7X7X7X9X7X7X7X7X7X7X9X^ % 4.#Xp.p.i.i.i.i.p.p.p.p.l.l.#Xl.l.l.p.p.#Xl.i.i.i.i.i.l.l.l.H 6 `.7X7X7X7X7X7X7X7X7X7X7X7X7X",
"7X7X7X7X7X7X7X7X7X7X9X7X7X7X9XqX/.S R 4.4.4.4.4.4.q.q.t.y.y.y.y.i.i.i.i.u.t.t.q.q.4.4.4.4.4.4.4.K W :X7X9X9X7X7X7X7X7X7X7X7X7X7X",
"7X7X7X7X7X7X7X7X7X7X7X7X7X9X9XqX6X=XF * * * * * 5 <.<.<.3.7.7.8.i.i.i.i.q.7.3.1.1.Z & & = * * = s.>X4X7X4X7X7X7X7X7X7X7X7X7X7X7X",
"7X7X7X7X7X9X7X7X7X7X7X7X9XqXqXqX0X6X/.F % * 7 7 Z <.1.1.7.9.9.y.i.i.i.i.y.9.3.1.1.Z 7 7 5 % B / =XqXwX7X7X7X7X7X7X7X7X7X7X7X7X7X",
"7X7X7X7X7X7X7X7X7X7X7X7X9XqXqXqX0X0X8X'.- 7 3.5.3.6.7.3.y.i.i.i.i.i.i.i.i.i.9.5.6.6.6.3.<.* W 9X0X0X0XqX9X7X7X7X7X7X7X7X7X7X7X7X",
"7X9X7X7X7X7X7X7X4X7X9X8X0X0X0X8X0X0X0X_.- 9 5.5.6.0.8.y.u.i.i.i.i.i.i.i.i.i.r.y.0.9.6.Z D f.:XwX8X8X0X0X0X9X7X4X7X7X7X7X7X7X7X7X",
"7X7X7X7X7X7X7X7X7X9XqXqXqX0X8X0X0X0X0X_.- 7 6.5.9.y.i.i.i.i.i.i.i.i.i.i.i.i.i.i.i.0.5.5 V ;X8XqX0X0X8X0X0XqX9X7X9X7X7X7X7X7X7X7X",
"7X7X7X7X9X7X7X7X9X8X0X0X8X0X0X0X0X0XwX/.- 7 5.6.9.u.i.i.i.i.i.i.i.i.i.i.i.i.i.i.u.q.5.5 S =X0X0X0X0X0X0X0X0XqX9X7X7X7X7X7X7X7X7X",
"7X7X7X7X7X7X7X7XqX0X0X0X0X0XqXqXqX0X0X_.- 7 6.9.0.u.i.i.i.i.i.i.i.i.u.0.q.q.y.u.0.3.9 R f.<X0X0XqX0X0X0X0X0X0XqX7X7X7X7X7X7X7X7X",
"4X7X9X7X7X7X8XqXqX0X0X0X0X0X0X0XqX0X0X-XB 5 7.t.i.i.i.i.i.i.i.i.i.i.y.7.5.6.0.y.7.Z   g.0X0X0X0X0XqX0X0X0X0XqX0XqX9X7X4X7X7X7X7X",
"7X7X7X4X7X9X0X0X0X0X0X0X0X0X0X0X0X0X0X/.- 7 3.t.i.i.i.i.i.i.i.r.8.y.y.7.6.5.r.r.7.9   h.qX0XqX0X0X0X0X0X0X0X0X0XqXqX9X7X7X7X7X7X",
"7X7X7X7X9XqX8XqX0X0X0X0X0X0X0X0X0XqX0X=XF C 2.9.u.i.i.i.i.i.i.r.7.y.y.9.7.7.0.8.2.H S _.qX0X0X0X0X0X0XqXqX0X0X0XqXqXqX9X7X7X7X7X",
"7X7X7X9X9X0X8X8X0X0X0X0X0X0X0X0X0X0X0X6X>X^ 2 <.9.u.i.i.i.i.i.u.y.i.i.i.u.u.9.2.5 T ;X2X0X0X0X0X0X0X0X0X0X0X0X0XqXqXqX9X9X7X7X7X",
"4X7X9XqX8X0X0X0X0XqX0X0X0X0X0XqX0X0X0X0XqXs.% Z 7.8.8.0.0.0.0.8.0.0.0.0.0.8.7.2.* Y qXqX0X0X0X0XqX0X0X0X0X0X0X0X8X0X0X0X9X9X7X7X",
"7X9X9XqX0X0X0X0X0X0X0X0X0X0X0X0X0X0X0X0XqXs.% 0 5.5.5.5.5.5.5.5.5.5.3.5.5.5.} 2.* W qXqX0X0X0X0X0X0X0XqX0X0X0X0X0X8X8X0XqXqX9X4X",
"9XqXqX0X0X0XqXqX0X0X0X0X0X0X0X0X0X0X0X0XqX>Xf.J 4 4 4 4 4 4 4 4 4 4 5 5 5 7 5 C f.[.0X0X0X0X0X0X0X0X0X0X0X0X0X0X0X0X8X0X0X8X9X9X",
"qX0X0X0X0X0XqXqX0X0XqX0X0X0X0X0X0X0X0X0X0X0X6XF . . . X                       V >X0X0X0X0X0XqX0X0X0X0X0X0X0X0X0XqX0X0X0X0X0XqXwX"
};
