/* XPM */
static char *enemy_5_1712245309[] = {
/* columns rows colors chars-per-pixel */
"64 64 217 2 ",
"   c #221F30",
".  c #211E2F",
"X  c #1F262E",
"o  c #22252E",
"O  c #223927",
"+  c #22312A",
"@  c #263929",
"#  c #2B3C2A",
"$  c #333D2B",
"%  c #2A2432",
"&  c #352A33",
"*  c #4D2F2F",
"=  c #44232C",
"-  c #412934",
";  c #4D2F31",
":  c #48343A",
">  c #4C3E3E",
",  c #493135",
"<  c #523B35",
"1  c #553738",
"2  c #512E35",
"3  c #69352E",
"4  c #673832",
"5  c #703F31",
"6  c #7F2F27",
"7  c #265C1C",
"8  c #266C16",
"9  c #27601C",
"0  c #297316",
"q  c #277215",
"w  c #357817",
"e  c #35711B",
"r  c #397919",
"t  c #277F0E",
"y  c #254924",
"u  c #34402A",
"i  c #35462D",
"p  c #355225",
"a  c #3B5329",
"s  c #3E4732",
"d  c #335F3E",
"f  c #286625",
"g  c #306323",
"h  c #227025",
"j  c #2D7726",
"k  c #357B23",
"l  c #507B1F",
"z  c #4F7C1F",
"x  c #434E3D",
"c  c #424A35",
"v  c #55433F",
"b  c #46513D",
"n  c #4C5A31",
"m  c #744735",
"M  c #78523B",
"N  c #51742D",
"B  c #423C43",
"V  c #783C42",
"C  c #3C7345",
"Z  c #4F444A",
"A  c #4E484C",
"S  c #554643",
"D  c #50474C",
"F  c #5D4448",
"G  c #59474B",
"H  c #5C5C47",
"J  c #535541",
"K  c #495249",
"L  c #644743",
"P  c #644946",
"I  c #6B5B56",
"U  c #715F5D",
"Y  c #695449",
"T  c #6F615D",
"R  c #71645E",
"E  c #7D614E",
"W  c #716360",
"Q  c #416B47",
"!  c #B22E1F",
"~  c #8D2A24",
"^  c #923830",
"/  c #B22E21",
"(  c #B53D2B",
")  c #864531",
"_  c #904E36",
"`  c #995D39",
"'  c #A64B2D",
"]  c #BF4629",
"[  c #A6502F",
"{  c #AF512F",
"}  c #B55D33",
"|  c #B75531",
" . c #AA5532",
".. c #B66938",
"X. c #B7713C",
"o. c #C14829",
"O. c #C7562D",
"+. c #C65334",
"@. c #D2612F",
"#. c #CD6A37",
"$. c #D66C32",
"%. c #D56834",
"&. c #DB7537",
"*. c #D3763A",
"=. c #D97539",
"-. c #DD7B3B",
";. c #D97637",
":. c #C0783E",
">. c #823D40",
",. c #8A3B43",
"<. c #913E46",
"1. c #8B4542",
"2. c #964346",
"3. c #93594B",
"4. c #9A5C4C",
"5. c #85544A",
"6. c #A34A45",
"7. c #A34D48",
"8. c #A84D48",
"9. c #A85149",
"0. c #AD5B4C",
"q. c #A7564B",
"w. c #AC5E51",
"e. c #976250",
"r. c #9E7559",
"t. c #936D52",
"y. c #B2644F",
"u. c #B36550",
"i. c #B46851",
"p. c #B96D53",
"a. c #A57E5F",
"s. c #BE795A",
"d. c #BB7356",
"f. c #B5724B",
"g. c #877968",
"h. c #917B6D",
"j. c #917569",
"k. c #C05649",
"l. c #D97A43",
"z. c #C46257",
"x. c #CA6750",
"c. c #C67149",
"v. c #298210",
"b. c #388A13",
"n. c #29870E",
"m. c #57891E",
"M. c #489216",
"N. c #5E951D",
"B. c #5F9A19",
"V. c #51931B",
"C. c #478C1B",
"Z. c #649B19",
"A. c #6C9E1D",
"S. c #60861F",
"D. c #72A11D",
"F. c #488924",
"G. c #5E8222",
"H. c #518A29",
"J. c #579120",
"K. c #589221",
"L. c #658927",
"P. c #739833",
"I. c #7AA924",
"U. c #6EA42A",
"Y. c #768A42",
"T. c #63875A",
"R. c #83A23C",
"E. c #82A337",
"W. c #8BB834",
"Q. c #84AF2E",
"!. c #DF823B",
"~. c #E1843E",
"^. c #E78D3F",
"/. c #98C139",
"(. c #BC8C5E",
"). c #8C826A",
"_. c #948170",
"`. c #918868",
"'. c #A08164",
"]. c #BE946A",
"[. c #A68D7C",
"{. c #A88D7C",
"}. c #A9947F",
"|. c #A4997C",
" X c #A6A27D",
".X c #D78C4C",
"XX c #E78D41",
"oX c #E88E42",
"OX c #E38843",
"+X c #E8974D",
"@X c #E69655",
"#X c #C99466",
"$X c #CA9369",
"%X c #C58963",
"&X c #E49A66",
"*X c #EEAE6F",
"=X c #EAA565",
"-X c #F0AF70",
";X c #B39684",
":X c #B59F87",
">X c #B69F88",
",X c #AA9580",
"<X c #B4A085",
"1X c #B2A786",
"2X c #AAA180",
"3X c #CBAA90",
"4X c #D6AC97",
"5X c #CCB394",
"6X c #D5B296",
"7X c #D5B599",
"8X c #D7BD9A",
"9X c #D8BC9B",
"0X c #D7BC97",
"qX c #CAAA8F",
"wX c #E3AAA1",
"eX c #D9BEA0",
"rX c #ECCBC6",
/* pixels */
"8X8X8X8X8X8X8X8X8X8X8X8X8X8X8X8X9X8X8X8X8X8X9X8X8X8X8X<XR J A A A A Z K Z T <X8X8X8X9X8X8X8X8X8X8X8X8X8X8X8X8X8X8X8X8X8X8X8X8X8X",
"8X8X8X8X8X8X8X8X8X8X9X0X8X8X8X9X8X8X8X8X8X9X8X5X<X,X,X_.I v S S S v v < < P _.}.,X<X5X8X8X8X9X8X8X8X8X8X8X8X8X8X8X8X8X8X8X8X8X8X",
"8X8X8X9X8X8X8X0X8X8X8X8X8X8X8X8X8X8X9X9X8X8X8X<XW Z A I `.].].].#X(.(.X.X.` Y Z D R :X8X8X8X8X8X8X9X8X8X8X8X8X8X8X8X8X8X8X8X8X8X",
"8X8X9X5X:X}.}.}.}.:X5X9X8X8X8X8X8X8X9X5X<X,X,X_.I S S E #X-X-X-X-X=XXX^.oX:.m < ; P h.>X5X8X8X8X8X5X<X}.,X>X5X9X8X8X8X8X8X8X8X8X",
"8X8X8X<XW A D D D R :X0X8X8X8X8X0X0X9X<XR D D I '.].].#X@X+X+X@X+X+XoXXXoX.X:...} _ P R :X9X0X9X8X<XT A A R 1XeX8X8X8X8X8X8X8X8X",
"9X5X<X_.I v c , * L h.}.,X}.}.,X}.|.}._.I S S E #X*X*X=X+XXXXXXXXXXXXXXX^.!.XX!.&.} 5 P h.<X5X5X:X).x # s H _.>X5X8X8X8X8X8X8X8X",
"8X<XW I '.(.f...} _ L D D D A A A A A T '.].#X#X@X@X+X+XXXXXXXXXoXoXoX~.=.;.~.XX~.*.} _ P R <X<XT b g F.P.Y.H W 1X9X8X8X8X8X8X8X",
"<X_.I E #X=X.X..#...m = % % - < < < < M #X*X-X=X+XXXoXXX^.XXXXXXXXXXoX~.&.;.~.XXoX~.$.[ ; B g.g.b y w V.I.R.N H ).<X5X8X8X8X8X8X",
"T I h.$X@Xc.M m ..;...) & = )  ...X.X.c..X+X@X+XoXXXXXOXoXoXoXOXXXXXXXXX~.~.XXXXXX!.$.[ * % B x 7 w V.Z.Q.E.R.R.H W <X8X9X9X9X9X",
"Z S $X*X.X..4 4 ` X.#.} 3 3 { $.-.oXoXoX^.^.-.=.=.=.=.=.=.=.=.=.=.-.~.XXXXXXoXXXoX~.&...m - % O 8 M.B.D.D.E.W.R.c D ,X9X8X9X8X9X",
"D S ].&X#.( ~ ~ 3 M X.#.( ^ O.$.~.oXXXXX^.!.O.o.o.] ] ] o.] o.o.o.O.-.^.XXXXXXXXoX~.~.*.} ) - O 8 b.B.D.D.Q.W.R.c A ,X8X8X8X8X8X",
"A v (.@X| / / ~ = < f.~.O.o.@.&.~.^.oXXX^.;.] ( k.z.z.z.z.z.z.k.( ] =.XXXXXXXX^.oX^.^.~.$.[ * + 7 w l S.S.Z.W.R.s D ,X9X8X8X8X8X",
"A < f.OXo./ / ~ = v (.&X%.@.;.~.XXXXXXXXXX&.] k.4XrXrXrXrXrXrX4Xk.o.=.XXoXXXXXXXXXXX^.~.$.' ; o + # $ p r V.A.L.i A ,X8X8X8X8X8X",
"A < f.l.o./ / ~ = Z ].=X*.$.~.oXXXXX^.XXXX&.+.x.wXrXrXrXrXrXrXwXx.O.-.XXXXXXoX^.oXXX^.~.$.' ;   . o + y 0 b.F.N J W <X8X8X8X8X8X",
"D S (.@X| / / ~ = S $X*Xl.$.~.oXXXoXoXXXXX~.-.l.x.z.z.z.z.z.z.x.l.-.~.oXXXoXXXoXXXoXXX~.$.[ ; o . + 7 0 t 0 p J h.<X5X8X8X8X8X8X",
"D D ].&X+./ / ~ = v (.@Xl.$.~.XXXXXXXXXXXXoXoX-.+.] ] ] ] ] o.O.=.OXoXoXXXXXXXOX~.~.OX~.$.[ * o + y 7 8 8 f a H ).<X5X8X8X8X8X8X",
"D S ].&X| / / ~ = < f.oX&.%.~.XX^.XXXXXXXXXXXX~.-.;.=.=.=.*.=.-.~.^.oXoXXXoXXX~.&.&.~.~.$.[ * + 7 7 y O # a L.E H R :X8X8X8X8X9X",
"D S (.@X| / / ~ = < X.~.$.$.~.XX^.XXXXXXXXXXoXoXoXXXXXoX^.oXXXXXoXoXoXoXXXXXXX~.&.&.~.~.$.' * O 8 0 p $ u n E.E.c J }.8X8X8X8X9X",
"D < f.OXo./ / ~ = < X.!.$.$.OXXX^.XXXXoXoXXXoXoXXXXXXXXXoX^.^.XXoX^.oXoXXXXXOXXX~.~.OX~.$.[ * O 8 v.m.l l L.Q.L.i D }.8X8X8X8X9X",
"A < X.-.] / / ~ = c X.!.@.@.=.~.OXXXXXXXXXoX^.oXXXXXoXXX^.oXXXXX^.OX~.-.~.~.^.oXoXoX~.*.} ) - O 8 M.Z.D.D.D.D.L.u G }.8X8X8X8X8X",
"Z < X.=.] / / ~ = v X.;.O.o.@.&.~.XXXX^.oXXXXXXXoX^.oXXXoXoXoXoX^.~.&.$.$.&.~.^.XX~.;.} 5 = % O 8 b.Z.D.D.D.D.l $ D ,X9X8X8X8X8X",
"A < ..=.+.( ~ ~ 3 m ..$.' ^ ] $.-.!.!.~.XXXXXXXX^.oXoX^.oXoX~.~.^.~.$.@.@.%.~.^.oX~.$.[ * % B x g r V.Z.B.N.L.N J W 1X8X8X8X8X8X",
"A ;  .$.=.} 4 4 ` X.#.} 3 3 { @.%.$.$.;.~.oXXXXX^.^.oXXX^.~.;.&.~.~.$.@.@.$.~.^.^.~.$.[ * B g.j.c y r b.b.r p b ).>X5X8X8X8X8X8X",
"R P _ } *...m m ..;.} ) = = ) ' [ [ ' ..*.~.!.!.OXXXXXXXoX~.&.;.~.OX&.$.$.&.-.~.~.*.} _ L U ;X;XR x g 8 8 9 b R >X9X9X8X8X8X8X8X",
">Xh.P m } #.{ { #.} m = % % = * * * * m } $.$.&.~.^.^.^.XXXX~.~.XXXX~.~.~.-.&.$.$.} 5 L j.;X3X3X;Xg.x O O x g.>X5X8X9X9X8X8X8X8X",
"9X<XT L _ [ [ [ [ _ v Z D S D D Z Z S v _ [ [ } *.~.-.~.!.!.~.!.~.-.~.~.-.*.} [ { _ L U ;X6X6X6X6X;XU Z A U ;X0X8X8X9X9X8X8X8X8X",
"8X5X:Xh.P * * * 2 L j.{.{.{.{.{.{.{.{.j.L * * 5 } $.$.$.$.$.$.%.$.$.$.$.$.} 5 * * v j.;X3X6X6X6X6XqX;X{.[.;XqX7X8X8X9X9X8X8X8X8X",
"8X8X0X:XR Z Z Z S R }.6X6X6X6X6X6X6X6X;XU D D L _ [ [ [ [ [ ' ' [ [ [ [ [ [ v D D R ;X6X6X6X6X6X6X4X6X6X6X4X6X6X7X0X9X9X9X8X8X8X",
"8X8X9X5X>X,X[.[.{.;X3X6X6X6X6X6X6X6X6X3X;X{.{.j.L * * * * * * * * * * * * L j.{.{.;XqX6X6X6X6X6X6X6X6X6X6X6X6X6X6X7X7XeX9X8X8X8X",
"8X8X9X8X9X7X6X5X6X6X6X6X6X6X6X6X6X6X6X6X6X6X6X;XU D D Z Z Z Z B % % # # o D {.6X6X6X6X6X6X6X6X6X6X6X6X6X6X6X6X6X6X7X7X7X9X9X8X8X",
"8X9X8X0X6X6X6X6X6X6X6X6X6X6X6X4X6X6X6X6X6X6X6X3X;X{.{.{.{.{.{.g.: $ N n $ D {.6X6X6X6X6X6X6X6X6X6X6X6X6X6X6X6X6X6X6X5X6X8X8X8X8X",
"8X8X8X7X6X6X6X6X6X6X6X6X6X6X6X3X;X{.{.{.{.{.{.{.{.;XqX6X6X6X6X{.K i G.S.n n ). XqX6X6X6X6X6X6X3X;X{.{.{.{.[.[.[.{.[.,X;XqX8X8X8X",
"9X9X6X6X4X6X6X6X6X6X6X6X4X7X6X;XU F B D Z Z Z Z Z T ;X4X6X5X7X XC f J.A.L.N N T. X6X6X6X6X6X6X;XU D D D A D Z D D D A T ;X7X8XeX",
"7X9X6X6X6X6X6X6X6X6X6X6X7X3X;Xj.H c c c i u $ $ @ x g.{.[.;X5X1XT.N H.K.A.J.h C |.6X6XqX}.{.{.g.x @ $ $ u $ $ $ c c s T h.;X3X8X",
"7X7X6X6X6X6X6X6X6X6X6X6X6X;XU H Y.R.R.E.L.L.G.l e g x D A W <X5X1XT.H.j K.J.h C  X6X7X;XR D B x p e l l G.G.G.P.P.R.R.Y.H T ;X7X",
"4X7X6X6X6X6X6X6X6X6X7X3X;Xg.Y N R.W.W.W.I.A.D.Z.M.r p $ @ b ).<X5X2XC C K.J.h C |.qX;Xg.b # $ a r M.V.N.J.J.J.N.P.W./.P.N H g.;X",
"6X7X6X6X6X6X6X6X6X6X6X;XU H Y.R.Q.Q.I.D.D.D.D.A.Z.N.m.l e g x R 1X|.K i H.K.h C  X<XR b g e l m.B.V.k h h h h h j F.A.Q.R.Y.H U ",
"6X4X6X6X6X6X6X6X6X6X6X{.D c P.W.Q.A.N.N.J.N.J.N.A.D.D.Z.M.w y b g.g.B u G.K.f d R g.x y w C.V.m.J.F.j h h h h h h k N.I.W.P.c D ",
"6X6X6X6X6X6X6X6X6X6X6X{.Z i L.D.D.K.k h h h h k N.D.D.D.Z.V.w g b Z % u L.G.p + B x g e V.V.k h h j F.J.V.K.K.K.H.K.A.D.Q.L.$ D ",
"6X6X6X6X6X6X6X6X6X6X6X{.G $ l Z.D.N.k h h h h j F.J.N.m.G.F.b.8 O . o u G.N s     O 8 b.z l j h h k N.D.D.D.D.D.A.I.D.D.Z.N $ B ",
"6X6X6X6X6X6X6X6X6X6X6X{.G @ e M.Z.A.N.V.N.J.J.F.j h h f i p 0 8 O . . # L.l , o o O 8 0 p a l m.J.N.A.D.D.D.D.D.D.D.D.Z.M.e @ D ",
"6X6X6X6X6X6X6X6X6X6X6X;XR x g e l L.N.Z.A.D.D.N.k h h f y y 7 9 y + X u L.l u o + y 7 7 y p m.Z.A.D.D.D.D.D.D.A.Z.N.S.l e g x U ",
"6X6X6X6X6X6X6X6X6X6X6X3X;Xg.x O u p r M.Z.D.D.A.N.m.K.C.0 7 y y 7 7 + u L.l $ + 7 7 y y 7 0 b.M.Z.D.D.D.D.D.D.Z.M.r p $ O x g.;X",
"6X6X6X6X6X6X6X6X6X6X6X6X6X;XU Z Z x g e l L.l m.N.Z.Z.V.b.q y y q 8 O $ l l $ O 8 q y y q n.n.b.V.N.Z.Z.S.l G.l e g x D Z U ;X6X",
"6X6X6X6X6X6X6X6X6X6X6X6X6X3X;X{.[.g.K # $ $ $ c w b.b.b.n.v.0 0 v.8 O O e e @ O 8 v.q q v.n.n.n.b.b.b.r a $ $ $ O x g.{.{.;XqX6X",
"6X6X6X6X6X6X6X6X6X6X6X6X6X6X6X6X3X[.Z   . . . O 7 8 8 8 8 8 8 8 8 7 + + 7 7 + + 7 8 8 8 8 8 8 8 8 8 q 7 +     . . Z {.6X6X6X4X6X",
"6X6X6X6X6X6X6X6X6X6X6X7X6X6X6X6X7X}.D   . . . o + O O O O O O O O + X o + + o o + O O O O O O O O O O + o o   . . D {.6X6X6X6X6X",
"6X6X6X6X6X6X6X6X6X6X6X6X6X6X6X3X<Xh.Y B c v : 2 : : : : > > : : > > > > > > > > > > > > > > B > : : : , 2 : > > B Y h.;XqX6X6X6X",
"6X6X6X6X6X6X6X6X6X6X7X7X6X6X7X>XW Y j.a.a.r.e.3.3.3.3.e.j.a.4.e.r.a.a.a.a.a.a.a.a.a.a.a.a.a.a.r.e.3.3.3.3.e.r.a.a.t.I U ;X6X6X6X",
"6X6X6X6X6X6X6X6X6X6X6X6X6X6X7X;XG B a.%X#X%Xs.p.p.p.p.s.%X%Xs.s.%X$X$X$X$X$X$X$X$X$X$X$X$X$X$X%Xs.p.p.p.p.s.%X$X$Xr.B D {.4X6X6X",
"6X6X6X6X6X6X6X6X6X6X6X6X7X0X8X}.D B t.c.s.d.p.p.p.f.p.p.c.s.d.d.s.s.s.s.s.s.s.s.s.s.s.s.s.s.s.s.p.p.p.p.d.d.x.s.s.4.1 B {.6X6X6X",
"6X6X6X6X6X6X6X6X6X6X6X7X9X9X8X<XW G 5.3.3.3.3.3.3.3.w.w.w.w.w.i.u.u.p.p.p.p.p.p.p.d.p.p.i.u.w.w.w.w.4.3.3.3.e.2.3.I P T ;X6X6X6X",
"0X6X6X6X6X6X6X6X4X7X7X9X0X9X8X5X>Xh.G : : : : : : V ,.<.<.2.7.8.9.q.u.p.p.p.p.p.p.p.p.i.9.7.2.2.2.V V - : : B B : P j.;X3X6X6X6X",
"6X6X6X6X6X6X6X6X6X7X9X8X0X0X8X9X8X>XW B % % & - & - 5 ,.<.<.7.8.9.0.p.p.p.p.p.p.p.p.p.i.0.7.<.,.,.V B & - &   & B R ;X6X6X6X6X6X",
"6X6X6X6X6X6X6X6X7X7X8X0X8X8X8X8X8X5X>Xg.B & V V >.,.2.2.<.7.w.u.y.u.p.p.p.p.p.p.p.p.p.p.i.0.7.<.<.2.,.^ >.4 & B g.;X3X6X6X6X6X6X",
"6X6X6X6X6X6X6X6X8X8X8X0X0X8X9X9X8X8X0X>XW L V ,.2.6.6.6.8.w.u.p.p.p.p.p.p.p.p.p.p.p.p.p.i.0.8.6.8.8.9.8.6.>.- B {.4X6X4X7X6X6X6X",
"6X6X7X6X5X6X8X8X8X8X8X8X8X8X8X8X8X8X8X5X:Xg.F 2 1.2.6.7.0.p.p.p.p.p.p.p.p.p.p.p.p.p.p.u.q.7.6.7.0.u.u.0.7.>.- A ,X7X4X3X7X7X6X6X",
"6X6X4X6X6X0X8X8X8X8X8X8X8X8X8X8X8X8X8X8XeX1XW F L ^ 2.9.y.p.p.p.p.p.p.p.p.p.p.p.p.u.p.u.8.6.[ 9.u.p.d.w.1.V F R >X7X7X7X7X4X6X6X",
"6X6X4X6X7X0X8X8X8X8X8X8X8X8X8X8X8X8X8X8X8X3X<Xh.P 1 1.7.u.p.p.p.p.p.p.p.p.p.p.u.0.0.u.u.9.2.6.9.u.p.p.4.4 G h.:X5X9X0X7X6X4X7X6X",
"6X6X7X7X7X8X8X8X8X8X8X8X8X8X8X8XeX8X8X8X8X8X9X1XW V V 1.q.u.u.u.y.y.u.u.u.u.u.w.7.7.0.0.8.6.6.8.0.u.u.5.: A }.8X9X8X9X8X7X6X4X7X",
"4X6X7X0X8X8X0X0X8X8X8X8X8X8X8X8X8X8X8X8X8XeX8X5X>Xg.G 1 1.7.9.9.8.8.8.8.9.8.9.8.2.8.8.8.6.2.6.7.8.9.9.1.- A ,X9X8X8X8X0X9X7X7X4X",
"6X7X7X8X8X0X8X8X8X8X8XeX9X8X8X8X8X8X8X8X8X8X8X8XeX:XW V V ,.V >.>.>.>.,.>.>.L ^ ,.,.>.>.,.>.>.>.>.>.5 V F W >X9X8X8X0X8X8X0X7X4X",
"7X0X8X9X8X0X8X9X8X8X8X8X8X8X8X8X8X8X8X8X8X8X8X8X8X5X:Xg.F - - - - - - B - - - - & - - - - - - - - - - F h.<X5X8X0X8X0X8X8X8X0X7X",
"8X8X8X8X8X8X9X9X8X8X8X8X9X8X8X8X8X8X8X8X8X8X8X8X8XeXeX,XD                                         %   D 2X8X0X8X8X0X8X8X0X8X8X7X"
};
