/* XPM */
static char *coin31711651278[] = {
/* columns rows colors chars-per-pixel */
"64 64 75 1 ",
"  c #FFA309",
". c #FFAC0D",
"X c #FFB00F",
"o c #FFB411",
"O c #FFBD16",
"+ c #FFC017",
"@ c #FFC519",
"# c #FECD1D",
"$ c #FED01F",
"% c #FED622",
"& c #FEDB24",
"* c #FEE127",
"= c #FEE529",
"- c #FEEB2C",
"; c #FAE736",
": c #FDEA33",
"> c #F7E33F",
", c #F9E53A",
"< c #FEEB3D",
"1 c #DDBE7F",
"2 c #F5DF43",
"3 c #F2DD4C",
"4 c #EFDA55",
"5 c #ECD35D",
"6 c #EED859",
"7 c #F0DB52",
"8 c #F6E143",
"9 c #FEEC43",
"0 c #FEEC4C",
"q c #FEEC55",
"w c #FEEC5B",
"e c #DFC276",
"r c #DFC07F",
"t c #E6CE6E",
"y c #EAD463",
"u c #E7D06D",
"i c #E9D268",
"p c #E1C376",
"a c #E5CD73",
"s c #E8CF70",
"d c #E1C479",
"f c #E2CA7B",
"g c #FEED64",
"h c #FEED6C",
"j c #FEED71",
"k c #FEED7B",
"l c #D6B48F",
"z c #DCBD8A",
"x c #D3AF95",
"c c #D5B296",
"v c #D9B495",
"b c #D6BB96",
"n c #D9BF96",
"m c #D5B598",
"M c #D7BD9A",
"N c #D8BC9A",
"B c #DEC684",
"V c #DCC38B",
"C c #DAC092",
"Z c #E1C683",
"A c #E0C880",
"S c #FEED83",
"D c #FFEE8B",
"F c #FFEE95",
"G c #FFEE9D",
"H c #FFEEA5",
"J c #FFEEAC",
"K c #FFEFB2",
"L c #FFEFBC",
"P c #FFEFC4",
"I c #FFEFCA",
"U c #FFEFD3",
"Y c #FFF0D6",
"T c #FFF0DB",
"R c #FFF0E5",
/* pixels */
"MMMMMMMCMMMMMMMMMMMMMMBy8-------------8yfCMMMMMMMMMMMMMMMMMMMMMM",
"MMMMMMMMMMMMMMMMMMMMMMfy8-------------86fCMMMMMMMMMMMMMMMMMMMMMM",
"MMMMMMMMMMMMMMMMMMCCCVa68-:<<9<<:-----86uVCCCMMMMMMMMMMMMMMMMMMM",
"MMMMMNMMMMMMMMMMMCCBBa67>-<0gjw0<----->7yufBCCMMMMMMMMMMMMMMMMMM",
"MMMMMMMMMMMMMMMMMCCai43>:-0gSGSh0-----:834yaVMMCMMMMMMMMMMMMMMMM",
"MMMMMMNMMMMMMMMMCCBu4,;::-qkHIHkq------:;,7yBCMCMMMMMMMMMMMMMMMM",
"MMMMMMMMMMMMMMCCCVa5>-:<<<hFLRLDw:--------86aVCCMMMMMMMMMMMMMMMM",
"MMMMMMMMNMMMMCCVfa53,-<0gjDJIRLDw---------,3yufBCMMMMMMMMMMMMMMM",
"MMMMMMMMMMMMMMVfy438::0gSGKPYRLDg:--------:>34yaVMMMMMMMMMMMMMMM",
"MMMMMMMMMMMMMCAi7>;::-qkHIUTTRLDw----------:;,7iACMMMMMMMMMMMMMM",
"MMMMMMMMMMMCnVa68-::<9hFLRRTTYJkw-------------86uVCCCMMMMMMMMMMM",
"MMMMMMMMMMCBeayq<-<0wjDJIRYIKHDg0-------------,3yuaVCMMMMMMMMMMM",
"MMMMMMMMCCBfi488::0hSGKPYRIKFkgq9-------------;804yaVCMMMMMMMMMM",
"MMMMMMMMMCBi4,,;-:qkHIITRRPFj09<:--------------;<>7iACMMMMMMMMMM",
"MMMMMMMMMCf68-::<9hFLRRTTYJkq---------------------86aCMMMMMMMMMM",
"MMMMMMMMMMfy8-90whDKIRYIKHDh0--------------------:86AMMMMMMMMMMM",
"MMMMMMMMMCfy8-0gSGJPYRIJFkgq<---------------------86fCCMMMMMMMMM",
"MMMMMMMMMCfy8:qkHIYTTRLGj09<:---------------------8yfCCMMMMMMMMM",
"MMMMMMMMNMfy8:wDKYYYYYJSq-------------------------86fCCMMMMMMMMM",
"MMMMMMMMNCay8:0jDJJHJHDg0-------------------------86BCMMMMMMMMMM",
"MMMMMMMMMMf68-9qgkkkkkgq<-------------------------86fCMMMMMMMMMM",
"MMNMMMMMMCfy2::<9000009<:-------------------------26fCMMMMMMMMMM",
"MMMMMMMMMCf52--------------::<::------------------85eCCMMMMMMMMM",
"MMMMMMMMMnfy2-------------<0whw0<-----------------85fCMMMMMMMMMM",
"MMMMMMMMMMr52-------------0gkFkw9----------------=>5pbNMMMMMMMMM",
"MMMMMMMMNme52-------------qjGPHkq:---------------=>5pcmMMMMMMMMM",
"MMMMMMMMcle52-----------:<gDKTKDw-----------------25plccMMMMMMMM",
"MMMNMMMmcl1y2---------<0qhjDGJDh0----------------->5plccMMMMMMMM",
"MMNMNNmxcve52=--------9gkFDDSkhq9-----------------25plccmmmMMMMM",
"MMNNNmmxcve52--------:qkGPHDgq99:----------------->5elccxmmmMMMM",
"MMMMmmxxcvp52---------wDKTKDw--------------------=25ebmxxxmmMMMM",
"MMMMmxxmclp52---------0jDKDh0-----**%%&*=--------=>5emxxmxxmmMMM",
"Nmmxxxxcxle52---------9qjkhq<-----*%$@#%*--------->5plccvccccmmN",
"Nmmxvmvxxle52---------:99q9<:-----&$+XO#%--------->5plccccccccmN",
"mxxmxvcmvvp52---------------------%@O o@%--------->5pvcccccccxmm",
"mxxmxvcccvp52-----------------==&%#@OO+$&=-------=>5pvccccccxxmm",
"mmxvmcccccp52-----------------=$#@@@@@%%*--------->51lxvcvmxcxcm",
"vxvxcccccve52-----------------*#+XO@$%*=---------->5elvvmxxmccxx",
"mvxxvcxvvve52-----------------$$O X@%-------------25pllxxxxvmvxv",
"xmmxxvvxxxp52-----------------=$@o@$&------------->5plxxvvxmxxmv",
"xvxmxmxmccp52-----------------=$$#$%*------------=>5pvccxvmxmmxv",
"xmvxvxvxcvp52------------------=*%*==------------=>5pvccmxxvxvmx",
"vxmmvxvxcle52------------------------------------->5plccxxvxmxxv",
"xmxvmmxmccp52--------------------------*&%%$%%%*==>5plccvmxmxvxm",
"xvxvxmxvcce58-------------------------*%$@@@@@#%&-25plvcvxmxvxmx",
"mmxmvxmxmle58-------------------------*$@XXXXX+@&-25pvvxmmxvxmmv",
"xmvxxxxmcce58-------------------------&@o     X@%=25dvxvxvmxmvxv",
"vxxmmvvxmbe58---------------------=*&%#OX  .XO+#%=>5dxmxmxxvxxmx",
"mxmxxvxxxxe52=--------------------=%$@+o.  oO@$%*-25pvclxccccccc",
"xvxvmxmvmve52=--------------------&%@oX   .O#%&*=->5plcccccccccc",
"xvmvmvmmxvr52-:-------------------%@o     o@%---:=25pccccccccmcc",
"xmxxxvxxvvzt638;:-------------==&%#OX  .Xo+#%-:;824tZccccccccccc",
"mmxxmmvxcvzfsy72;-------------*$%@Oo.  oO@#%*-;875tfVvcxmvxxccmx",
"vxvmvxmxccbVBfi48-------------*$OoX.  XO#%&*-->4yfBVnbmcmvxmcccc",
"xxmxxvxxmbMMMnf58-------------*@o     X@%-----86fCMnnMmmxxccmccm",
"mvxvmxmvMMMMnnZs688,:---------&#o  .Xo+#&-;;886uZnMMnMMMmvccxccx",
"xccxxcmMMMMMMMVray48<---------%#o .oO@$%*-;845urCCMMMMMMmmxxcmxx",
"cccmcMmMMMMMMMCVBAi78---------&@o .O@%&*-->4yfBVCMMMMMMMNmmmcmcc",
"ccccmmMMMMMMMMCMMMfy8---------%@o o@%-----8yfCMMCMMMMMMMNNMmxxxv",
"mccmmMMMMMMMMMMMCCBu688;:-----&$Oo+#&-:;886uBCMMMMMMMMMMNNNMvmxm",
"cxmmMMMMMMMMMMMMMMCAuy48;-----*%$@$%*-,8qyteVMMMMMMMMMMMMnMMmmmv",
"xmNNMMMMMMMCMMMMMMCVBfi48------*&%&*=->4ifBVCMMMMMMMMMMMMMMMNmmm",
"mMNNMMMMMMMMMMMMMMMMCCfy8-------------85ACMMMMMMMMMMMMMMMMMMNNmm",
"NMMMMMMMMMMMMMMMMMMMMMei8-------------8yACMMMMMNMMMMMMMCNmMMMNNm"
};
