/* XPM */
static char *coin41711651278[] = {
/* columns rows colors chars-per-pixel */
"64 64 181 2 ",
"   c #FFA50A",
".  c #FFAA0D",
"X  c #FCA312",
"o  c #FDAB13",
"O  c #FBA61A",
"+  c #FAAB1F",
"@  c #FFB311",
"#  c #FFBB15",
"$  c #FCB419",
"%  c #FCBC1D",
"&  c #F9AF22",
"*  c #F4A82F",
"=  c #F9B727",
"-  c #FABC25",
";  c #FABF29",
":  c #F2A634",
">  c #F2A935",
",  c #F2AF3B",
"<  c #F5B332",
"1  c #F2B43C",
"2  c #F2BD3F",
"3  c #FFC017",
"4  c #FFC319",
"5  c #FECC1D",
"6  c #FED01F",
"7  c #FCC522",
"8  c #FCCC25",
"9  c #FACB2D",
"0  c #FED421",
"q  c #FEDA24",
"w  c #FCD228",
"e  c #FBD92C",
"r  c #F8CF31",
"t  c #F5C33A",
"y  c #F8D134",
"u  c #F9DB37",
"i  c #F8DE39",
"p  c #FEE027",
"a  c #FEE529",
"s  c #FEEA2C",
"d  c #FBE634",
"f  c #FDEA33",
"g  c #F8E43B",
"h  c #FEEB3C",
"j  c #EFAF41",
"k  c #ECAE4E",
"l  c #EFB343",
"z  c #EFBD4A",
"x  c #E8AB57",
"c  c #E7AF5A",
"v  c #E8AC58",
"b  c #E8B45C",
"n  c #E7BA5F",
"m  c #E8B95F",
"M  c #DDAF7A",
"N  c #DDB37D",
"B  c #DEBC7F",
"V  c #E6B465",
"C  c #E6BB63",
"Z  c #E3B46D",
"A  c #E5BD6A",
"S  c #E0B77A",
"D  c #EFCA4F",
"F  c #F1C242",
"G  c #F1CC46",
"H  c #F0C64E",
"J  c #F4D443",
"K  c #F1D34B",
"L  c #F2DC4D",
"P  c #EEC651",
"I  c #EED555",
"U  c #EFD957",
"Y  c #EED65B",
"T  c #EED859",
"R  c #F0D751",
"E  c #F1DB52",
"W  c #F6E143",
"Q  c #F8E343",
"!  c #FEEC43",
"~  c #F6E24B",
"^  c #FEEC4C",
"/  c #F8E550",
"(  c #FEEC53",
")  c #F8E45C",
"_  c #FEEC5C",
"`  c #E7C363",
"'  c #E8C263",
"]  c #E7CB67",
"[  c #E8C867",
"{  c #E4C66F",
"}  c #E7CB69",
"|  c #E8CD68",
" . c #EAD464",
".. c #E7D06B",
"X. c #E9D169",
"o. c #EED96A",
"O. c #F2DC6F",
"+. c #E4C772",
"@. c #E5CD73",
"#. c #E4C77D",
"$. c #E2CA7C",
"%. c #EED573",
"&. c #EBD47B",
"*. c #F3DF73",
"=. c #F8E461",
"-. c #FEEC63",
";. c #F8E56B",
":. c #FEED6C",
">. c #FEED74",
",. c #F4E178",
"<. c #F8E57C",
"1. c #FEED7B",
"2. c #DDBC81",
"3. c #DAB789",
"4. c #DBBA8A",
"5. c #D3AF95",
"6. c #D5B296",
"7. c #D9B197",
"8. c #D6BC97",
"9. c #D9BC94",
"0. c #D5B598",
"q. c #D7BD9A",
"w. c #D9BC9B",
"e. c #DEC584",
"r. c #DCC28C",
"t. c #DBC192",
"y. c #E3C783",
"u. c #E0C880",
"i. c #E4C78E",
"p. c #E2C88F",
"a. c #E6D089",
"s. c #EED68A",
"d. c #EDD88C",
"f. c #F2DE8F",
"g. c #E4C895",
"h. c #E4C89F",
"j. c #ECD593",
"k. c #EED997",
"l. c #E6D09F",
"z. c #F8E583",
"x. c #FEED84",
"c. c #F8E489",
"v. c #FFEE8B",
"b. c #F9E593",
"n. c #FFEE94",
"m. c #F9E69D",
"M. c #FFEE9B",
"N. c #DEC5A3",
"B. c #DFC7A9",
"V. c #E4C8A4",
"C. c #E1C9AC",
"Z. c #ECD5A6",
"A. c #EDD6AB",
"S. c #F3DFAF",
"D. c #E4CAB3",
"F. c #EFD7B1",
"G. c #E9D4BC",
"H. c #EFDBB8",
"J. c #F3DFB1",
"K. c #F5E2A5",
"L. c #FFEEA4",
"P. c #F3E0AA",
"I. c #F9E5AB",
"U. c #FFEEAB",
"Y. c #F9E6B1",
"T. c #FFEFB3",
"R. c #F9E6BB",
"E. c #FFEEBA",
"W. c #ECD7C2",
"Q. c #EFD8C6",
"!. c #FFEFC3",
"~. c #F3E0CE",
"^. c #FFEFCA",
"/. c #F5E4D0",
"(. c #F9E7D3",
"). c #FFEFD2",
"_. c #F9E7DB",
"`. c #FFF0D7",
"'. c #FFF0DB",
"]. c #FDECE0",
"[. c #FFF0E5",
/* pixels */
"q.q.q.q.q.q.q.q.q.w.w.w.w.q.q.q.q.q.q.q.q.q.q.q.q.q.q.t.@.T g s s s s d E ..e.N.q.q.q.q.q.q.q.q.q.q.q.q.q.q.q.q.q.q.q.q.q.q.q.q.",
"q.q.q.q.q.q.q.q.q.q.w.t.N.q.q.q.w.q.q.q.q.q.q.q.q.t.8.t.@.T g s s s s d E ..r.t.q.q.q.q.q.q.q.q.q.q.q.q.q.q.q.q.q.q.q.q.q.q.q.q.",
"q.q.q.q.w.q.q.q.q.q.q.q.q.q.q.q.q.q.q.q.q.q.q.q.r.e.e.$. .~ g f ! ^ ( -.,.d.l.B.B.N.N.8.q.q.q.q.0.N.q.q.q.q.q.q.q.q.q.q.q.q.q.q.",
"q.q.q.q.t.q.q.q.q.q.q.q.q.q.q.q.q.q.q.q.q.q.q.t.e.$...Y L W f f ^ -.1.n.m.P.G.G.C.B.N.t.q.q.q.q.q.q.q.q.q.q.q.q.q.q.q.q.q.q.q.q.",
"q.q.q.q.q.q.q.q.q.q.q.q.q.q.q.q.q.q.q.q.q.q.q.t.$...E W g g s h _ 1.L.E.!./././.G.D.B.N.q.q.q.q.q.q.q.q.q.q.q.q.q.q.q.q.q.q.q.q.",
"q.q.q.q.q.q.q.q.q.q.q.q.q.q.q.q.q.q.q.q.q.q.q.r.@.T g s s s s h :.M.^.[.[.[.[.].~.G.B.t.q.q.q.q.q.q.q.q.q.q.q.q.q.q.q.q.q.q.N.q.",
"q.q.q.q.q.q.q.q.q.q.q.q.q.q.q.q.q.t.q.9.r.r.e.@.Y L g f h ^ ( :.v.T.).].`.^.!.T.P.k.u.$.r.t.t.q.q.q.q.q.q.q.q.q.q.q.q.q.q.q.q.q.",
"q.q.q.q.q.q.q.q.q.q.q.q.q.q.q.q.q.q.q.t.e.$...Y U g d f ^ -.1.n.L.!.`.'.^.T.M.x.<.*.o...@.e.t.t.t.q.q.q.q.q.q.q.q.q.q.q.q.q.q.q.",
"q.q.q.q.q.q.q.q.q.q.q.q.q.q.q.q.q.q.q.t.$.X.E W ! f s h _ 1.L.E.^.`.'.'.E.n.>._ ( ^ / ~  .@.r.N.q.q.q.q.q.q.q.q.q.q.q.q.q.q.q.q.",
"q.q.q.q.q.q.q.q.q.q.q.q.q.q.q.q.q.q.8.r.@.U g s s s s h :.M.^.[.[.[.[.'.U.1.^ s s s s d L X.u.t.q.q.q.q.q.q.q.q.q.q.q.q.q.q.q.q.",
"q.q.q.q.q.q.q.q.q.q.q.q.q.q.q.q.q.8.q.r.@.U g f h ! ( :.v.U.`.[.'.^.!.U.v.:.! f h ! ^ _ o.&.t.q.q.q.q.q.q.q.q.q.q.q.q.q.q.q.q.q.",
"q.q.q.q.q.q.q.q.q.q.q.q.q.q.q.q.q.q.q.r.@.E g h ^ -.1.n.U.!.'.'.^.T.M.x.:.( h f ^ -.1.c.d.l.t.q.q.q.N.q.q.q.q.q.q.q.q.q.q.q.q.q.",
"q.8.8.q.q.q.q.q.q.q.q.q.q.8.q.q.q.q.q.t.@.U g h -.x.L.E.^.`.'.'.T.n.>._ ^ h f f ( 1.M.T.J.l.N.t.q.q.q.q.q.q.q.q.q.q.q.q.q.q.q.q.",
"q.N.q.q.q.q.q.q.q.q.q.q.q.N.q.q.q.q.q.t.@.T g h :.M.^.[.[.[.[.`.U.1.^ s s s s h :.n.!.].~.G.B.N.q.q.q.q.q.q.q.q.q.q.q.q.q.q.q.q.",
"q.q.q.q.q.q.q.q.q.q.q.q.q.q.q.q.q.q.q.t.$.%.=.:.v.U.`.'.`.^.!.U.v.:.! f h ! ( _ >.v.U.E.H.l.B.t.q.q.q.q.q.q.q.q.q.q.q.q.q.q.q.q.",
"q.q.q.q.q.q.q.q.q.q.q.q.q.q.q.q.q.q.8.9.p.d.z.n.U.!.'.'.^.T.M.x.:.( h f ^ -.>.v.v.v.v.v.f.j.N.t.q.q.q.q.q.q.q.q.q.q.q.q.q.q.q.q.",
"q.q.q.q.q.q.q.q.q.q.q.q.q.q.q.q.w.w.0.w.C.A.J.E.^.`.'.'.E.n.>._ ^ ! f h _ 1.M.T.M.x.>.=.*.$.t.w.q.q.q.q.q.q.q.q.q.q.q.q.q.q.q.q.",
"q.q.q.q.q.q.q.q.q.q.q.q.q.q.q.q.w.0.0.w.D.Q._.].[.[.[.`.L.1.^ s s s s h :.n.!.`.U.1.( d L ] r.q.q.q.q.q.q.q.q.q.q.q.q.q.q.q.q.q.",
"q.q.q.q.q.q.q.q.q.q.q.q.q.q.q.q.0.6.5.w.D.Q._.].`.^.!.U.v.:.! f h ! ( _ >.n.U.T.v.:.! d K ] e.6.q.q.q.q.q.q.q.q.q.q.q.q.q.q.q.q.",
"q.q.q.q.q.q.q.q.q.q.q.q.q.q.w.0.6.6.5.w.D.Q._.[.^.T.M.x.:.( h f ^ -.>.x.x.v.v.x.>.( h d L ] N 6.0.0.q.N.q.q.q.q.q.q.q.q.q.q.q.q.",
"8.N.q.q.q.q.q.q.q.q.q.q.q.q.0.5.7.5.7.w.D.Q._.'.E.n.>._ ^ ! f h _ 1.M.T.M.x.:._ ^ ! f f L ] 2.6.5.0.8.q.N.8.q.q.q.q.q.q.q.q.q.q.",
"q.q.q.q.q.q.q.q.q.q.q.q.q.0.5.5.5.7.7.w.D.Q._.).L.1.^ f f s s h :.n.!.).U.1.^ f f s s f L ] 2.6.5.5.0.8.q.q.q.q.q.q.q.q.q.q.q.q.",
"q.q.q.q.q.q.q.q.q.q.q.q.0.6.6.6.7.5.6.w.V.F.R.U.v.-.! s h ! ^ _ >.n.U.T.v.:.! s a p q e G ` N 6.0.5.5.8.0.t.q.q.q.q.q.q.q.q.q.q.",
"q.q.q.q.q.q.q.q.q.q.q.0.5.5.6.7.7.6.6.9.g.j.b.x.:.( h f ^ -.>.x.v.v.v.x.:._ h s p q 6 8 F ` N 6.0.5.5.5.0.8.q.q.q.q.q.q.q.q.q.q.",
"q.q.q.q.q.q.q.q.w.q.0.0.6.7.7.5.6.6.6.9.y.%.;._ ^ ! f d _ 1.M.L.n.x.:._ ( ! f s q 5 3 $ 1 n N 6.6.6.6.6.5.0.0.N.q.q.q.q.q.q.q.q.",
"q.q.8.q.q.q.q.q.q.0.0.5.6.6.6.6.6.6.6.3.+.Y Q f s f s h :.M.!.).L.1.( f f s s a 0 4 @ X > x N 6.6.6.6.5.5.5.0.8.q.q.q.q.q.0.q.q.",
"q.8.8.q.q.q.t.8.0.0.5.5.6.6.6.6.6.6.6.3.{ I g s h ! ( _ 1.n.T.T.v.:.! s a p p q 5 4 # $ , c N 6.6.6.5.0.0.5.0.0.q.q.q.q.q.8.q.q.",
"q.q.8.q.q.q.8.8.0.5.5.0.6.6.6.6.6.6.6.3.+.I g d ^ -.>.x.x.v.v.v.>.( h s p q 5 5 5 4 4 4 t n N 5.6.6.0.5.0.5.5.0.0.q.q.N.q.q.q.q.",
"q.q.q.q.q.0.0.5.5.5.5.6.6.6.6.5.6.6.6.4.+.I g h _ 1.M.L.n.x.:._ ( ! f a q 5 3 # 3 4 6 w G ` N 6.6.6.6.6.5.5.0.5.5.0.q.q.q.q.q.q.",
"q.q.N.q.q.0.5.5.5.0.5.0.6.6.6.6.6.6.6.3.+.I g h :.n.!.).L.1.( f f s s a q # @ . # 5 q d K ] 2.6.6.6.6.6.5.0.0.5.5.5.0.q.q.q.q.q.",
"q.q.q.0.0.5.0.5.0.5.0.5.6.6.7.6.6.6.6.4.#.o.) _ 1.n.T.T.v.:.! s s p p q 5 3 @ @ 3 6 p d L ] e.6.6.6.6.6.8.5.5.5.5.0.5.0.q.q.q.N.",
"q.q.q.0.5.5.5.0.0.0.5.5.6.6.7.7.6.6.6.9.p.s.z.x.x.v.v.v.>.( h s q q 8 5 5 5 4 4 6 q p d L ] B 6.6.6.6.6.5.5.0.5.0.5.5.5.0.0.q.q.",
"w.q.0.6.6.6.6.6.6.6.6.6.6.0.6.6.6.5.7.w.h.Z.I.U.n.x.>._ ( ! f s q 5 3 # 3 5 5 q q p s d L ] 2.6.6.6.6.6.6.6.6.6.6.6.7.6.6.0.q.w.",
"q.0.6.6.7.6.6.6.6.6.7.6.6.6.6.6.6.7.5.w.C.W.(.^.L.>.^ f f s s s q 4 @ . # 5 q a a s s d L ] e.6.6.6.6.6.6.6.6.6.6.6.6.6.6.6.0.q.",
"0.6.6.5.6.6.6.6.6.6.6.6.6.6.6.6.6.6.5.w.Z.F.R.T.v.:.! s s a p 6 5 4 # @ 3 0 p s a a q e D ` B 6.6.6.6.6.6.6.6.6.6.6.6.6.5.6.6.0.",
"6.5.6.5.6.6.6.6.6.6.6.6.6.6.6.6.6.6.7.9.g.k.b.v.>.( h a a 6 5 5 4 4 3 4 6 q p s p q 0 8 t C N 6.6.6.6.6.6.6.6.6.6.6.6.6.6.6.6.6.",
"6.6.5.6.6.6.6.6.6.6.6.6.6.6.6.6.6.6.6.9.e.&.;._ ( ! f s 6 6 4 # 3 5 5 q q p a s q 5 3 $ 1 b N 6.6.6.6.6.6.6.6.6.6.6.6.6.6.6.6.5.",
"6.7.6.6.6.6.6.6.6.6.6.0.6.6.6.6.6.6.6.3.+.Y Q h f s s a 6 3 @ . # 5 q a s s s a q 4 @ o > x M 6.6.6.6.6.6.6.6.6.6.6.6.6.6.6.6.6.",
"6.6.6.6.6.6.6.7.6.6.6.6.6.6.6.6.6.6.6.3.{ I g a a a p q 5 3 @ @ 3 6 p s s p q q 5 # . X > x M 6.6.6.6.6.6.6.6.6.7.5.6.6.6.6.6.6.",
"6.6.6.6.6.6.7.7.6.6.6.6.6.6.6.6.6.6.6.3.{ T g a p q 6 5 5 5 4 5 6 q a a p q 6 5 # @ .   : x M 6.6.6.6.6.6.6.6.6.7.6.6.6.6.6.6.7.",
"6.6.6.6.6.6.6.6.6.6.6.6.6.6.6.6.6.6.7.4.+.I g a 6 6 4 # 4 5 5 6 q p a a q 6 4 @ @ .     : x N 5.6.6.6.6.6.6.6.6.6.6.6.6.6.6.6.6.",
"6.6.6.6.6.6.6.6.6.6.6.6.6.6.6.6.6.6.6.4.+.I g p 6 3 @ . # 5 p a s s s a 6 3 @ .       X : x M 6.6.6.6.6.6.6.6.6.6.6.6.6.6.6.6.6.",
"6.6.6.6.6.6.6.6.6.6.6.6.6.6.6.6.6.6.5.3.+.D u q 5 4 @ @ 4 6 a s a a p q 5 # .     . . o , c N 6.6.6.7.6.6.6.0.6.6.6.6.6.6.6.6.6.",
"6.6.6.6.6.6.6.6.6.6.6.6.6.6.6.6.6.6.6.3.A P 9 5 5 4 4 5 5 q a a a 6 6 5 # @ .   . @ # - l b 2.6.6.6.6.6.6.6.6.6.6.6.6.6.6.6.6.6.",
"6.6.6.6.6.6.6.6.6.6.6.6.6.6.6.6.5.6.0.4.A z = # 4 5 5 6 q p a a q 6 3 @ @ .     @ # 5 w G ' 2.5.6.6.6.6.6.6.6.6.7.6.6.0.6.6.6.6.",
"6.6.0.6.6.6.6.6.6.6.6.6.6.6.6.6.6.0.w.4.V j & . 3 5 q a a s s a 6 4 @           # 4 q a K } 2.6.6.6.6.6.6.6.6.6.6.6.6.6.6.6.6.6.",
"6.6.6.6.7.6.6.6.6.6.6.6.6.6.6.6.0.q.q.4.C l & @ 4 6 a s a a p q 5 # .     . . @ 3 6 p d L X.e.0.6.6.6.6.6.6.6.6.6.6.6.6.6.6.6.6.",
"6.6.6.6.6.6.6.6.6.6.6.6.6.6.6.7.q.q.t.4.A z ; 4 5 q a a p q 6 5 3 @ .   . @ # 4 5 q p d L X.e.q.6.6.6.0.6.6.6.6.6.6.6.6.6.6.6.6.",
"6.6.6.6.6.0.6.6.6.6.7.6.5.5.0.q.q.q.q.t.{ D r 6 p p s a q 5 4 # @ .     @ 3 5 6 6 p s d L ..r.t.q.0.6.5.5.7.7.5.6.6.6.6.6.6.6.6.",
"6.6.6.6.6.6.6.6.6.6.6.6.0.0.0.q.q.q.q.t.{ I i a a a s a 6 4 @         . @ 5 6 a s s s f L ..e.0.q.w.6.6.5.0.0.6.6.6.6.6.6.6.6.6.",
"6.6.6.6.6.6.6.6.7.6.7.6.0.q.q.q.q.q.8.r.@.U g s s a p 6 5 #       . . @ 4 6 p s s s s d L ..e.N.q.q.8.0.6.5.6.6.6.6.6.6.6.6.6.6.",
"6.6.6.6.6.6.6.6.6.6.6.6.0.w.w.t.q.q.8.r.@.U g s p q 6 5 4 @ .   . @ # 4 6 6 a s s s s s L ..e.q.q.q.q.0.0.6.6.6.6.6.6.6.6.6.6.6.",
"6.6.6.6.6.6.6.6.5.5.0.q.w.q.q.8.q.q.q.t.@.U g a 6 6 4 # @       @ # 5 6 p p a s s s s f L ..e.8.t.q.q.w.w.6.6.5.6.6.6.6.6.6.6.6.",
"6.6.6.6.6.6.6.6.5.0.q.q.w.q.q.q.q.q.q.t.@.T g a 6 5 @           @ 5 6 a s s s s s s f s L ..e.t.q.q.q.q.w.w.0.6.0.6.6.6.6.6.6.6.",
"6.6.6.6.6.6.6.6.0.q.q.t.q.q.q.q.q.q.8.t.@.Y L u w % .       . @ 5 6 p s s s s s d d d W T @.t.q.q.q.q.q.8.q.8.0.6.6.6.6.6.6.6.6.",
"6.6.7.0.6.6.6.6.q.q.q.q.q.q.q.q.q.q.t.t.e.@.Y I t = o   . @ # 4 5 6 a s s s s s g W E T ..$.t.q.w.q.q.q.9.q.q.w.6.6.6.6.6.6.6.6.",
"5.6.0.5.5.5.0.q.q.q.q.q.q.q.q.q.q.q.q.8.r.e.+.] z < X . @ # 5 0 6 a a s s s s s g U  .@.$.r.t.q.q.q.q.q.q.q.q.q.w.0.6.5.5.7.6.5.",
"6.5.0.6.0.5.q.q.q.q.q.q.q.q.q.q.q.q.N.8.t.t.9.e.n j O . @ 5 q a a s s s s s s d L  .$.t.t.t.t.q.q.q.q.q.q.q.q.q.q.q.6.7.6.6.6.6.",
"6.6.6.6.0.q.q.q.q.q.q.q.q.q.q.q.q.q.q.q.8.q.q.3.Z k * + - 8 a s s s s s d d d W T @.r.q.8.q.q.q.q.q.q.t.q.q.q.q.q.q.q.w.6.6.6.6.",
"5.6.6.0.0.q.q.t.q.q.q.q.q.q.q.q.q.q.q.q.q.q.q.8.M V k l t r e s s s s s g W E T ..$.r.q.q.q.q.q.q.q.q.q.q.q.q.q.q.q.w.0.0.6.6.6.",
"5.0.7.q.q.q.q.q.q.q.q.q.q.q.q.q.q.q.q.q.q.q.8.8.2.N Z n D i i s s s s d W E  .@.e.r.t.q.q.q.q.q.q.q.q.q.q.q.q.q.8.8.q.q.0.7.0.5.",
"6.0.0.q.q.q.8.q.q.q.q.q.q.q.q.q.q.q.q.q.q.q.q.8.8.4.4.B ..E g d s s s d L  .$.r.t.8.8.q.q.q.q.q.q.q.q.q.q.q.q.q.q.q.8.q.q.q.0.6.",
"0.q.w.q.q.q.q.w.q.q.q.q.q.q.q.q.q.q.q.q.q.q.q.q.N.8.t.t.@.T g s s s s d E ..e.N.q.q.q.q.q.q.q.q.q.q.q.q.q.q.q.q.q.q.q.q.q.q.0.0.",
"q.q.q.q.q.q.q.w.q.q.q.q.q.w.w.q.q.q.q.q.q.q.q.8.8.8.8.t.@.T g s s s s d E ..r.t.N.q.q.q.q.q.q.q.q.q.q.q.q.q.q.q.w.q.q.q.t.q.w.w."
};
