/* XPM */
static char *coin51711651278[] = {
/* columns rows colors chars-per-pixel */
"64 64 152 2 ",
"   c #FFA309",
".  c #FFAE0F",
"X  c #FDA310",
"o  c #FDAB15",
"O  c #FDB017",
"+  c #FFBB15",
"@  c #FDBB1C",
"#  c #F8A620",
"$  c #F8AA22",
"%  c #F8B026",
"&  c #F8B628",
"*  c #F8BD2C",
"=  c #F3AA35",
"-  c #F3B339",
";  c #F3BC3E",
":  c #FFC117",
">  c #FDC11E",
",  c #FECB1D",
"<  c #FED11F",
"1  c #FCCA24",
"2  c #F9C02D",
"3  c #FED321",
"4  c #FEDE26",
"5  c #FCDC2C",
"6  c #F7C630",
"7  c #F8CD33",
"8  c #F3C03F",
"9  c #F7D638",
"0  c #F8DD3B",
"q  c #FEE529",
"w  c #FEEB2C",
"e  c #FBE735",
"r  c #FDEA32",
"t  c #F7E23E",
"y  c #F9E43C",
"u  c #FCE838",
"i  c #EEAC44",
"p  c #EEB047",
"a  c #EEB549",
"s  c #EEBC4B",
"d  c #E7AC57",
"f  c #E7B35B",
"g  c #E9B25A",
"h  c #E9BD5F",
"j  c #DEB47C",
"k  c #DEBB7E",
"l  c #E3AE66",
"z  c #E7BC60",
"x  c #E9BE60",
"c  c #E4B469",
"v  c #E4BB6C",
"b  c #E0B77E",
"n  c #EDC04E",
"m  c #F2C542",
"M  c #F2CC45",
"N  c #F2D047",
"B  c #F2D449",
"V  c #F2DC4C",
"C  c #EEC750",
"Z  c #EECA53",
"A  c #EED357",
"S  c #EFDA55",
"D  c #EDD45A",
"F  c #EED859",
"G  c #F1DB53",
"H  c #F6E143",
"J  c #FEEC57",
"K  c #FEEC5D",
"L  c #E8C663",
"P  c #E7CB67",
"I  c #E8CE67",
"U  c #E4C26F",
"Y  c #E7CC6B",
"T  c #EBD462",
"R  c #E7D06D",
"E  c #E8D26A",
"W  c #F2DB6D",
"Q  c #E3C572",
"!  c #E4CC74",
"~  c #E3CA7C",
"^  c #EDD474",
"/  c #EED975",
"(  c #E8D37E",
")  c #F2DA71",
"_  c #F7E365",
"`  c #FEEC61",
"'  c #F7E26A",
"]  c #DDBD81",
"[  c #D7B48A",
"{  c #D9B58C",
"}  c #DBBC8D",
"|  c #D3AF95",
" . c #D5B296",
".. c #D9B494",
"X. c #D6BC97",
"o. c #DABF95",
"O. c #D5B598",
"+. c #D9B799",
"@. c #D7BD9A",
"#. c #D9BC9B",
"$. c #E0BD96",
"%. c #DCBEA4",
"&. c #DFC584",
"*. c #DCC38C",
"=. c #DAC191",
"-. c #DBC19B",
";. c #E3C682",
":. c #E2CB83",
">. c #E7CC8E",
",. c #EDD58C",
"<. c #F2DD8D",
"1. c #E3C692",
"2. c #E5CE94",
"3. c #E8CD92",
"4. c #ECD592",
"5. c #EEDA91",
"6. c #F2DC92",
"7. c #FEED85",
"8. c #F7E388",
"9. c #F8E58E",
"0. c #FFEE8B",
"q. c #F8E491",
"w. c #FFEE90",
"e. c #DCC2A3",
"r. c #DEC8A0",
"t. c #DFC7A9",
"y. c #E3C6A2",
"u. c #E5CEA4",
"i. c #E8CDA5",
"p. c #E8CDA8",
"a. c #EDD5A7",
"s. c #ECD4AB",
"d. c #EEDBAC",
"f. c #F3DEAD",
"g. c #E3C7B1",
"h. c #E5CCB4",
"j. c #E7CFBB",
"k. c #E8CEBA",
"l. c #E9D2BE",
"z. c #F2DDB1",
"x. c #F8E5AE",
"c. c #F8E6B5",
"v. c #FFEFB3",
"b. c #FFEFBB",
"n. c #EDD6C4",
"m. c #EEDAC7",
"M. c #F2DDCE",
"N. c #F8E6D5",
"B. c #F8E6DA",
"V. c #FDEDDE",
"C. c #FDECE2",
"Z. c #FFF0E6",
/* pixels */
"@.@.@.@.@.@.@.@.@.@.@.@.@.@.@.-.@.@.@.@.@.@.@.@.@.@.@.&.E V r w w w w t F ! =.-.@.@.@.@.@.@.@.@.@.@.@.@.@.@.@.@.@.@.@.@.@.@.@.@.",
"@.@.@.@.@.@.@.@.@.@.@.@.@.@.@.@.@.@.@.@.@.@.@.@.@.@.-.&.E G e w w w w y F ! =.-.@.@.@.@.@.@.@.@.@.@.@.@.@.-.@.@.@.@.@.@.@.@.@.@.",
"@.@.@.@.@.@.@.@.@.@.@.@.@.@.@.@.@.@.@.@.@.@.@.=.=.&.~ ! F H r w w w w y V T ! &.*.*.o.@.@.@.@.@.@.@.@.@.@.@.@.@.@.@.@.@.@.@.@.@.",
"@.@.@.@.@.@.@.@.@.@.@.@.@.@.@.@.@.@.@.@.@.@.@.*.~ ! T S V y w w w w w e H G D R ~ &.o.@.@.@.@.@.@.@.@.@.@.@.@.@.@.@.@.@.-.@.@.@.",
"@.@.@.@.@.@.-.@.@.@.@.@.@.@.@.@.@.@.-.@.@.@.@.*.! T V t y e w w w w w w e t H S E :.=.@.@.@.@.@.@.-.@.@.@.@.@.@.@.@.@.@.@.@.@.@.",
"@.@.@.@.@.@.@.@.@.@.@.@.@.@.@.@.@.@.@.@.@.@.@.:.E V e w w w w w w w w w w w w H F ! =.@.@.@.@.@.@.@.@.@.@.@.@.@.@.@.@.@.@.@.@.@.",
"@.@.@.@.@.@.@.@.-.@.@.@.@.@.@.@.@.@.@.@.@.@.@.*.( / K K K K K K K K K K K K K _ / :.=.@.@.@.@.@.@.@.@.@.@.@.@.@.@.@.@.@.@.@.@.@.",
"@.@.@.@.@.@.@.@.@.@.@.@.@.@.@.@.@.@.@.@.@.@.-.-.2.9.0.0.7.0.0.0.0.0.0.0.7.0.0.9.5.2.-.@.@.@.@.@.@.@.@.@.@.@.@.@.@.@.@.@.@.@.@.@.",
"@.@.@.@.@.@.@.@.@.@.@.@.@.@.@.@.@.@.@.@.@.@.@.-.s.f.v.b.v.v.v.N.b.b.b.b.b.b.b.v.d.u.-.-.@.@.@.@.@.@.@.@.@.@.@.@.@.@.@.@.@.@.@.@.",
"@.@.@.@.@.@.@.@.@.@.@.@.@.@.@.@.@.@.@.@.@.@.@.g.l.M.Z.Z.Z.Z.Z.Z.Z.Z.Z.Z.Z.Z.Z.B.m.h.e.-.@.@.@.@.@.@.@.@.@.@.@.@.@.@.@.@.@.@.@.@.",
"@.@.@.@.@.@.@.@.@.@.@.@.@.@.@.@.@.@.@.@.@.@.@.t.j.M.Z.Z.Z.Z.Z.Z.Z.Z.Z.Z.Z.Z.Z.B.m.h.e.X.@.X.@.@.@.@.@.@.@.@.@.@.@.@.@.@.@.@.@.@.",
"@.@.@.@.@.@.@.@.@.@.@.@.@.@.@.@.@.@.@.@.@.@.#.t.j.M.Z.Z.Z.Z.Z.Z.Z.Z.Z.Z.Z.Z.Z.B.n.h.e.-.@.@.@.@.@.@.@.@.@.-.%.@.@.-.@.@.@.@.@.@.",
"@.@.@.@.-.@.@.@.@.@.@.@.@.-.@.@.@.@.@.@.#.#.O.%.j.M.C.C.Z.Z.Z.Z.Z.Z.Z.Z.Z.Z.Z.B.n.g.%.@.%.@.@.@.@.@.@.@.@.@.@.@.@.@.@.@.@.@.@.@.",
"-.@.@.@.@.@.@.@.@.@.@.@.@.@.@.@.@.@.@.@.#.O. .%.j.M.C.Z.Z.Z.Z.Z.Z.Z.Z.Z.Z.Z.Z.B.m.g.@.@.#.@.@.@.@.@.@.@.@.@.@.@.@.@.@.@.@.@.@.@.",
"@.@.@.@.@.@.@.@.@.@.@.@.@.@.@.@.@.@.@.@. . . .#.p.z.b.b.b.b.b.b.b.b.b.b.N.b.b.c.s.r.@. .@.@.@.@.@.@.@.@.@.@.@.@.@.@.@.@.@.-.@.@.",
"@.@.@.@.@.@.@.@.@.@.@.@.@.@.@.@.@.@.X. . . . .=.3.<.9.0.0.0.0.0.0.0.0.0.7.0.0.0.2.*.X. .O.#.@.@.@.@.@.@.@.@.@.@.@.@.@.@.@.@.@.@.",
"@.@.@.@.@.@.@.@.@.@.@.@.@.@.@.@.%.@.O. . . . .} ~ W ` K K ` K K ` ` K ` K ` ` ' ^ ;... . .O.O.%.-.@.@.@.@.@.@.@.@.@.@.@.@.@.@.@.",
"@.@.@.@.@.@.@.@.@.@.X.@.@.@.@.-.@.O.O.|  . . .] P V e r w r r r w w w w w w r H D Q {  . .O.O.#.X.@.@.@.@.@.@.@.@.@.@.@.@.@.@.@.",
"@.@.@.@.@.@.@.@.@.@.@.@.@.@.@.@.O.O.|  . . . .} ! W J J J J J J J J J J J J K ` ^ ~ {  . . . .O.@.@.@.@.@.@.@.@.@.@.@.@.@.@.@.@.",
"%.@.@.@.@.@.@.@.@.@.@.@.@.#.O.O.| |  .|  . . .o.>.<.7.7.7.7.7.7.7.0.7.7.7.0.' 7.,.1.O. . .| |  .O.@.@.@.@.@.@.@.@.@.@.@.@.@.@.@.",
"@.@.@.@.@.-.@.@.@.@.@.@.#.#.O. .| .. . . . . .#.u.x.x.v.v.v.v.v.v.v.v.v.v.v.v.x.a.1.+.O. . . ...| O.@.@.@.@.@.@.@.@.@.-.@.@.@.@.",
"@.@.@.@.@.@.@.@.@.@.-.@.#.O. .| .... . . . ...%.j.M.V.Z.Z.V.V.V.Z.Z.Z.V.V.V.Z.N.n.g.%.|  . . .| | | O.X.@.@.@.@.@.@.@.@.@.@.@.@.",
"@.@.@.@.@.@.@.@.@.@.@.@. . .| | |  . . . . ...#.p.z.b.b.b.b.b.N.N.b.b.b.b.N.N.c.s.y.+.|  . . . .| O.| O.@.@.@.@.@.@.@.@.@.@.@.@.",
"@.@.@.@.@.@.@.@.@.@.@. . .| | .. . . . . . . .$.2.q.w.w.w.0.w.w.0.w.w.0.0.0.0.q.4.1.+.|  . . . .O.O.| | O.@.@.@.@.@.@.@.@.@.@.@.",
"@.@.@.@.@.@.@.@.%.@.O.|  . . ... . . . . . . .} :.) ` ` ` ` ` ` J K K ` ` ` ` ` ^ ;...O. . . . . . . . .O.O.X.%.@.@.@.@.@.@.@.@.",
"@.@.@.@.@.@.@.@.@.O.O.| |  . . . . . . . . . .] Y V u u r r r r w w u u w u r J D Q { O. . ... . . . . .| | O.@.@.@.@.@.@.@.@.@.",
"@.@.@.@.@.@.@.X.O.O.| |  . . . . . . . . . .| ] Y B r w w w w w w w w w w w w y D Q {  . . . . . . . . .|  . . .@.@.@.@.@.@.@.@.",
"@.@.@.@.@.@.@.X.|  . .|  . . . . . . . . . .| ] Y V r w w w w w w w w w w w w y D Q {  . . . . . . . . . .|  . .O.@.@.@.@.@.@.@.",
"@.@.@.@.@.@.O.|  . . . . . . . . . . . . . ...] P V r w w w w w w w w w w w w y D Q {  . . . . . . . . . . . . .| O.X.@.@.@.@.@.",
"@.@.@.@.O.O. .|  . . . . . . . . . . . . . ...] P B r w w w w w w w w w w w w t D Q {  . . . . . . . . . . . . .|  .O.@.%.@.@.@.",
"@.@.@.@.O. .| |  . . . . . . . . . . . . . . .] Y V r w w w w w w w w w w w w t D Q {  . . . . . . . . . . . . . .|  . .X.@.@.@.",
"@.@.@.O. .|  .O. . . . . . . . . . . . . . . .} P V r q w w w w w w w w w w w t D Q {  . . . . . . . . . . . . . . .| | O.@.@.@.",
"%.O. . . . . . . . . . . . . . . . . . . . . .] L B e w w w w w w w w w w w w t A Q {  . . . . . . . . . . . . . . . .....O.%.%.",
"O.%. .|  . . . . . . . . . . .+. . . . . . . .] P V r w w w w q w w w w w w w t D Q {  . . . . . . . . . . . . . . . . .| | O.O.",
" . .| .. . . . . . . . . . . . . . . . . . . .] L N 5 4 4 4 4 4 q 4 4 < q < q 9 Z Q ..|  . . . . . . . . . . . . . . . . .|  .O.",
" . .|  . . . . . . ... . . . . . . . . . . .| j z m , , , , , , , , , , , , , 6 n c { .. . . . . . . . . . . . . . . . . . . . .",
"|  .|  . . . ... . . . . . . . . . . . . . . .j f - @ + + + + + + + + + + + + % a c { |  . . . . . . . . . . . . . . . . .|  . .",
"O.|  . . . . . . . . . . . . . . . . . . .O. .j d = X X                     X o i l { |  . . . . . . . . . . . . . . . . . . . .",
" . . . . . ... . . . . . . . . . . . . .O.| | j f - O . . . + . . . . . . . . % p c {  . . . . . . . . . . . . . .|  . . . . .| ",
" . . . . .| .. . . . . . . . . . . . .O.| | | j Z 8 > : : : : : : : : : : : : 6 s c {  . . . . . .O. ... . . . ..... . . . . . .",
" . .|  . . . . . . . . . . . . . . . .O.|  .O.*.L M 3 < < < < < < < < < 3 < 3 7 Z U [ |  .O.| | | .. . . . . . .|  . . . . . . .",
" . .+. . . . . . . . . . . . . . . . . . . .O.&.P V e q q w q q w w q w q q q t D Q [  .| O.O.| ..+. . . . . . . . . . . . . . .",
" . . . . . . . . . . . . . . . . . .|  .O.@.@.&.P B 5 4 q 4 4 4 4 q 4 4 4 q 4 0 A Q =.O. .|  . .| |  . . . . . . . . . . . . . .",
" . . . . . . . . . . . . . . . . . . . .O.@.-.k L M 1 , , , , , , , , , , , , 6 n U o.X.O. .|  . . . . . . . . . . . . . . . . .",
" . . . . . . . . . . . . . . . .|  .O.@.#.@.@.k h ; @ + + + O . + + + + + + + & s v } @.@.O. .|  . . . . . . . . . . . . . . . .",
" . . . . . . . . . . . . . . . . . .#.@.@.o.o.k f = X                       X $ a c { o.@.@.O. . . . . . . . . . . . . . . . . .",
" . . . . . . . . . . . . . . . .O.@.@.@.@.@.@.j f =                           # i c } X.@.@.O.@. . . . . .+. . . . . . . . . . .",
" . . . . . . . . . . . . . . .| @.@.@.@.o.@.@.j d = X                         X i c } o.o.@.@.O. . . . . . . . . . . . . . . . .",
" . . . . . .+...| | +.| |  .%.O.@.@.@.@.@.@.X.k f = X                       X $ i c } @.@.@.@.@.%.O. .|  .O. .|  . . . . . . . .",
" . . . . . ...|  . . . . .O.O.O.@.@.@.-.@.@.-.k d = X                         o p c [ @.@.@.@.@.#.+.O. . . . . . . . . . . . . .",
" . . . . . . . . . .| | O.#.@.@.@.@.@.@.@.@.@.k f - o o . . . .   . . .   . . % a v } X.@.@.@.@.@.@.@. . .|  . . . . . . . . . .",
" .+. . . . . . .+.|  .+.#.@.@.@.@.@.@.@.@.@.@.[ z ; > + : : + : : + + : @ + + 2 s v X.X.-.@.@.@.@.@.#.@. . . . . . . . . . . . .",
" . . . . . . . .|  .O.#.#.@.X.@.@.@.@.@.-.X.X.&.L M 1 < < < < < < < < < < < < 7 Z Q =.X.@.@.@.@.@.o.@.@.O.O. .|  . . . . . . . .",
" . . . . . . . . . .@.@.@.@.o.@.@.@.@.@.@.X.X.&.P V q q q q q q q q q q q q q 0 A ! =.X.@.@.@.@.@.@.X.@.#.@.O. . . . . . . . . .",
" . . . . . . . .O.@.@.@.@.@.@.@.@.@.@.@.@.@.X.&.E V r w w w w w w w w w w w w y F ! =.X.@.@.@.@.@.@.X.o.@.@.@. . . . . . . . . .",
" . . . . . . . .O.@.@.o.@.@.@.O.@.@.@.@.@.@.-.&.E V r w w w w w w w w w w w w y F ! =.@.@.@.@.@.#.#.@.@.@.@.@.#. . . . . . . . .",
"|  .O. .| | O.@.@.@.@.@.@.@.@.@.@.@.@.@.-.@.X.&.E V r w w w w w w w w w w w w t F ! =.@.@.@.@.@.@.@.@.@.@.@.@.@.%.O. .| |  . . .",
" . .|  . .O.X.@.@.@.@.@.@.@.@.@.@.@.@.@.@.@.-.&.E V r w w w w w w w w w w w w t F ! =.-.@.@.@.@.@.@.@.@.@.@.@.@.#.@.O. . . . . .",
" . . . .O.X.@.@.@.@.@.@.-.@.@.@.@.@.@.@.@.@.@.=.R S H y e r w w w w w w e e y V D ~ =.@.@.@.-.@.@.@.@.@.@.@.@.@.@.@.@.+. .|  . .",
"O. . .O.O.@.@.@.@.@.@.@.@.@.@.@.@.@.@.@.@.@.@.=.~ R F V H y w w w w w e y H S D ! &.X.@.@.@.@.@.@.-.@.@.@.@.@.@.@.@.#.O.O. .|  .",
"|  .O.+.@.@.@.@.@.@.@.@.@.@.@.@.@.@.@.@.@.-.X.-.*.~ ! T G H w w w w w y V F R ! &.*.=.@.@.@.@.@.@.@.@.@.@.@.@.@.@.@.@.@.#. . .| ",
"| O.O.#.@.X.o.@.@.@.@.@.@.@.@.@.@.@.@.@.@.X.X.X.=.=.=.~ T V r w w w w y S R &.=.o.-.@.@.@.@.@.@.@.@.@.@.@.@.@.@.@.o.o.@.#.#.O.| ",
"O.O.@.@.o.X.@.@.@.@.@.@.@.@.@.@.@.@.@.@.@.@.X.-.-.X.-.&.E G r w w w w H F ! =.@.-.@.@.@.@.@.@.@.@.@.@.@.@.-.@.@.X.@.@.@.@.@.O.O.",
"@.@.@.-.@.@.@.%.@.@.@.@.@.@.@.@.@.@.@.@.@.@.X.X.X.X.-.&.E V r w w w w H D ! =.@.@.@.@.@.@.@.@.@.@.@.@.@.@.@.@.@.O.@.@.@.-.@.@.@."
};
