/* XPM */
static char *Brown1711481215_9_1711991638[] = {
/* columns rows colors chars-per-pixel */
"64 64 228 2 ",
"   c #241F31",
".  c #2E1F32",
"X  c #341E33",
"o  c #3E1E36",
"O  c #251F2F",
"+  c #242131",
"@  c #2D2232",
"#  c #2D2937",
"$  c #2E2B3A",
"%  c #342D3B",
"&  c #392633",
"*  c #3B343E",
"=  c #24202F",
"-  c #5A1E3E",
";  c #531E3B",
":  c #4E1E3B",
">  c #641D3F",
",  c #442535",
"<  c #4E2936",
"1  c #4B2336",
"2  c #582838",
"3  c #4A3E3E",
"4  c #473536",
"5  c #593E35",
"6  c #523936",
"7  c #64253A",
"8  c #6D263C",
"9  c #6A2E3B",
"0  c #642D3A",
"q  c #742A3C",
"w  c #79283D",
"e  c #69353A",
"r  c #78353B",
"t  c #594239",
"y  c #654536",
"u  c #724C37",
"i  c #744D39",
"p  c #7C5138",
"a  c #3C3841",
"s  c #342E41",
"d  c #641C41",
"f  c #691D41",
"g  c #751C44",
"h  c #473E45",
"j  c #593B44",
"k  c #502A43",
"l  c #652A45",
"z  c #762944",
"x  c #653A44",
"c  c #763847",
"v  c #4E454A",
"b  c #574847",
"n  c #5A5155",
"m  c #504B53",
"M  c #75474B",
"N  c #645957",
"B  c #695958",
"V  c #7A5555",
"C  c #6D4B4D",
"Z  c #6D615C",
"A  c #74645E",
"S  c #605E6B",
"D  c #6B5969",
"F  c #77556B",
"G  c #7B6C64",
"H  c #736660",
"J  c #6A6875",
"K  c #696774",
"L  c #7F7166",
"P  c #5B5A62",
"I  c #832A3D",
"U  c #8D2A3F",
"Y  c #932C3F",
"T  c #82343D",
"R  c #88373E",
"E  c #9D3A3F",
"W  c #93363F",
"Q  c #A03B3F",
"!  c #864B37",
"~  c #885739",
"^  c #935939",
"/  c #AC5B36",
"(  c #9C643B",
")  c #AA6C3C",
"_  c #BA753E",
"`  c #BF6737",
"'  c #D66B32",
"]  c #D56834",
"[  c #C87C3E",
"{  c #C67B3E",
"}  c #DC7839",
"|  c #CD6A34",
" . c #E07F3B",
".. c #8E1B4A",
"X. c #811B47",
"o. c #9B1B4C",
"O. c #941B4B",
"+. c #A01C4D",
"@. c #8A2941",
"#. c #972C42",
"$. c #863543",
"%. c #973A42",
"&. c #9C2855",
"*. c #A4224C",
"=. c #A92A46",
"-. c #B92E45",
";. c #B4274A",
":. c #B62C48",
">. c #A53C41",
",. c #A93444",
"<. c #BC304B",
"1. c #B53A44",
"2. c #A32A58",
"3. c #CA2F47",
"4. c #CA2F49",
"5. c #C22D48",
"6. c #CD3147",
"7. c #CD3148",
"8. c #CC3A4B",
"9. c #C53748",
"0. c #D23649",
"q. c #D53A49",
"w. c #D93D4A",
"e. c #D43947",
"r. c #934146",
"t. c #89494C",
"y. c #BE4145",
"u. c #B54143",
"i. c #A74B58",
"p. c #976D51",
"a. c #AA7549",
"s. c #B2774A",
"d. c #B65674",
"f. c #876E67",
"g. c #847369",
"h. c #8C7B6D",
"j. c #8C7568",
"k. c #917A6E",
"l. c #876777",
"z. c #B6647A",
"x. c #CA4447",
"c. c #D74747",
"v. c #D6424A",
"b. c #DC434A",
"n. c #DB4648",
"m. c #C54D56",
"M. c #E1464A",
"N. c #E44A4A",
"B. c #E34947",
"V. c #E4524E",
"C. c #E85A53",
"Z. c #DC7A44",
"A. c #C87C40",
"S. c #EA695D",
"D. c #C3546E",
"F. c #ED7966",
"G. c #D6813D",
"H. c #CF803E",
"J. c #E1843D",
"K. c #B68356",
"L. c #9C8978",
"P. c #978574",
"I. c #A58262",
"U. c #AC8764",
"Y. c #B79067",
"T. c #A38C7A",
"R. c #A6927D",
"E. c #D98646",
"W. c #D08651",
"Q. c #E68D42",
"!. c #E38D55",
"~. c #E4985C",
"^. c #E8944B",
"/. c #E9A25D",
"(. c #E79E64",
"). c #F28B72",
"_. c #EF866F",
"`. c #EBA769",
"'. c #EAAD72",
"]. c #EEB274",
"[. c #F2BB7D",
"{. c #F0B577",
"}. c #BB6586",
"|. c #AC6583",
" X c #867683",
".X c #C06F8F",
"XX c #C66984",
"oX c #C57997",
"OX c #C57795",
"+X c #C06F90",
"@X c #918C93",
"#X c #AD9882",
"$X c #B39C85",
"%X c #B69985",
"&X c #BCA58A",
"*X c #B7A286",
"=X c #B592A2",
"-X c #B2A8AF",
";X c #C3AB8D",
":X c #C6A68D",
">X c #C9AD91",
",X c #D3AF95",
"<X c #CCB393",
"1X c #C6B091",
"2X c #D5B296",
"3X c #D3BB97",
"4X c #D6B599",
"5X c #D7BD9A",
"6X c #D9BD9B",
"7X c #D8BC97",
"8X c #C9B18F",
"9X c #F2BC80",
"0X c #CE8EA7",
"qX c #CDADBA",
"wX c #C2869F",
"eX c #BFBDC0",
"rX c #C0BFC4",
"tX c #DAB6C5",
"yX c #CAC9CE",
"uX c #C2C1C5",
"iX c #D4C9CD",
"pX c #ECD2DD",
"aX c #E8C8D5",
"sX c #F0DCE6",
"dX c #ECD8E1",
"fX c #FFFFFF",
"gX c #F6F0F3",
"hX c #EBE2E7",
/* pixels */
"5X6X5X6X5X5X5X5X5X5X5X6X5X6X5X6X5X5X5X5X5X5X5X5X5X5X5X5X5X5X5X5X5X5X6X5X5X5X5X5X5X5X5X5X5X5X5X5X5X5X5X5X5X5X5X5X6X5X5X5X5X5X5X5X",
"5X5X5X5X5X5X5X5X5X5X5X5X5X5X5X5X5X5X5X5X5X5X5X5X5X5X5X5X5X5X5X5X5X5X5X5X5X5X5X5X5X5X5X5X5X5X5X5X5X5X5X5X5X5X5X5X7X5X5X5X5X5X5X5X",
"5X5X5X5X5X5X7X7X5X6X5X5X5X5X6X5X5X5X5X5X5X5X5X5X5X5X5X5X6X6X6X7X5X5X5X5X5X5X5X5X5X5X5X5X5X5X5X5X5X5X5X5X5X5X6X5X5X5X5X5X5X5X5X5X",
"5X5X5X5X5X;X*X$X$X&X<X6X5X5X7X5X5X5X5X5X5X5X5X5X5X6X5X6X6X6X6X4X5X5X5X6X6X5X5X5X5X5X5X5X5X5X5X5X5X5X5X5X5X<X*X$X$X*X1X5X5X5X5X5X",
"6X5X5X5X<XL.Z N N L $X5X5X5X5X5X3X7X7X5X5X5X5X5X5X5X5X5X5X5X2X2X2X4X4X6X6X5X5X5X5X5X5X5X6X5X5X7X6X6X5X5X5X#XG B N Z R.5X5X5X5X5X",
"5X5X3X3X;XG % @ @ v P.<X3X5X5X5X3X3X8X<X<X<X<X<X<X<X<X8X<X1X:X:X:X:X>X>X<X<X<X<X<X<X<X<X<X1X3X7X6X5X3X3X1XP.h # @ 4 g.8X3X5X5X5X",
"5X5X1XL.G M z w q c V h.#X5X5X5X&XP.L G G G G G L L G G G G A G G A G G G G G G G L G G G L T.:X5X5X5X#XL V t.r r $.V A T.<X5X5X",
"5X5X*XZ % w <.5.-.=.2 a h.5X6X5XR.n # # $ $ # # $ # # # # # # # # # $ # $ # # $ # # # # # # B R.6X5X3XL s e u.c.c.x.c $ H &X5X5X",
";XR.j.M 9 w I ,.5.:.I 0 V h.P.P.f.M 9 e 9 9 9 9 9 9 9 9 9 9 9 e 9 0 9 9 0 9 9 e 9 9 9 9 0 9 M f.P.P.P.t.e W 9.x.u.%.T 9 V j.R.;X",
"R.B b r./ T 1 q :.5.-.=.c v h h C %.1.9.y.y.1.x.y.y.y.y.y.y.y.x.x.y.y.y.y.x.y.y.y.y.y.y.y.x.r.b * v v c u.9.8.,.q < R u.$.b Z $X",
"j.C 0 W -.T t e W =.#.Y w < < < r y.N.V.C.N.B.N.N.N.N.N.B.N.N.N.N.N.N.N.N.N.N.N.N.N.N.N.N.N.1.r < , 2 W c.8.,.#.e 5 R u.R 0 C h.",
"C W W r 0 ! ( p 0 2 2 7 T >.Q Q u.n.V.S.F.S.V.N.N.N.N.N.N.N.N.N.N.N.N.N.N.N.N.N.N.N.N.N.B.N.x.u.Q W Y -.8.,.q e ~ ( ! 0 r %.r.C ",
"2 >.1.e * ^ J.( 4 O @ < W V.V.V.N.N.V.S._.S.V.N.N.N.N.N.N.N.N.N.N.N.N.N.N.N.N.N.N.N.B.N.N.N.N.N.B.w.6.6.6.U , 6 ) H.~ & r y.%.2 ",
"& e T ! ( K./.I.4 & e W m.S.F.S.S.V.V.C.S.C.V.N.N.N.N.N.N.N.N.N.N.N.N.N.N.B.N.N.N.N.B.V.N.N.N.N.M.b.w.q.6.U , 6 K./.K.( ! r 0 & ",
"= = 4 ( E./.].I.t < Q V.S._._._.F.S.N.N.B.N.N.N.N.N.N.N.N.N.N.N.N.N.N.N.N.N.N.N.N.N.N.N.N.N.N.N.N.N.M.w.6.U % t I.]./.J.( * = = ",
"& t ~ W./.'.[.I.t < >.V.F.).).).F.C.N.N.N.N.N.B.N.N.N.N.N.N.N.N.N.N.N.N.N.N.N.N.N.N.N.N.N.N.N.N.N.N.M.w.8.U & t U.[.`./.s.~ t & ",
"t ( E./.].[.[.I.t < >.V.S.).).).F.C.N.N.N.N.N.N.N.N.N.N.N.N.N.N.N.N.N.N.N.N.N.N.N.N.N.N.V.N.N.N.N.N.N.w.6.U , t I.[.{.].~.E.( 4 ",
"C ( a.K.Y.Y.Y.p.e r u.V.S.F.F.F.S.C.N.N.N.N.N.N.N.N.N.N.N.N.N.N.N.N.N.N.N.N.N.M.N.N.N.N.N.N.N.N.N.N.N.b.e.,.8 M p.Y.Y.Y.K.s.( C ",
"P.u t t b b b C r.y.c.V.V.C.S.C.C.V.N.N.N.N.N.N.N.N.N.N.N.N.N.N.N.N.N.N.N.N.N.V.N.N.N.N.N.N.N.N.N.N.N.M.b.9.,.W M b b b t t N j.",
"L.N a a * $ = e y.N.M.N.M.N.B.B.N.N.N.N.N.N.N.N.N.N.N.N.N.N.N.N.N.N.N.N.N.N.N.N.N.N.N.N.N.N.N.N.N.N.N.N.B.w.6.#.1 + % h a * Z R.",
"&X#Xh.h.h.n + e y.N.N.N.N.N.N.N.N.N.N.N.N.N.N.N.N.N.N.N.N.N.N.N.N.N.N.N.M.V.M.N.N.N.N.N.N.N.N.N.N.M.N.N.N.w.e.=.2 # n h.P.P.L.&X",
"3X5X5X5X8XG # 0 y.M.N.N.N.N.N.N.N.N.N.N.B.N.N.N.N.N.N.N.N.N.N.N.N.N.N.N.M.V.M.N.N.N.N.B.N.N.N.N.N.N.N.N.B.w.8.=.2 % g.<X3X3X5X3X",
"5X5X>XT.g.C 2 @.:.8.b.N.N.N.N.N.N.N.N.N.N.N.N.N.N.N.N.N.N.N.N.N.M.8.4.9.9.5.9.9.9.9.v.N.N.N.N.N.N.N.N.M.w.w.w.<.Y q V g.R.<X7X5X",
"5X5X$XH s l ..O.&.;.q.N.N.N.N.N.N.N.N.N.N.N.N.N.N.N.N.N.N.N.N.M.w.<.*.+.*.*.+.*.+.;.8.N.N.N.N.N.N.N.N.w.q.q.b.w.9.,.e * L &X3X5X",
"3X5X$XN + D |.}.}.D.D.4.1.>.>.>./ >.>.>.>.>.>.>.>.>.>.>.>.>.1.8.D.D.}.}.}.}.}.}.}.D.D.7.v.M.N.N.N.N.M.b.q.w.M.M.w.-.8 O B &X6X5X",
"5X5X$XN $  XtXaXaXqXD.*.w < 2 < : 1 < < < < < < < < < < < < q #.d.0XaXaXaXaXaXaXaXtXXX;.9.M.N.N.N.N.N.M.M.M.M.M.0.-.8 . Z &X5X5X",
"5X5X$Xn s @XgXfXfXaX|.g 9 3 h 3 3 h h 6 3 3 3 v 3 3 3 3 v 3 l z d.tXgXfXfXfXfXfXfXsXOX+.<.b.N.N.N.M.M.M.M.M.N.M.0.-.q O Z &X5X5X",
"5X5X*XN s @XgXfXfXiXl.l V I.I.I.I.I.I.I.I.I.I.I.I.I.I.I.I.p.f.l F rXfXfXfXfXfXfXfXsXOXo.<.b.N.N.M.b.q.q.q.w.M.w.q.-.8 O B &X5X5X",
"5X5X$XN s @XhXgXgXrXJ * p.[.{.{.{.[.[.[.[.[.[.9X[.[.[.{.{.{.U.b P -XgXgXgXgXgXgXgXpXOX+.5.b.N.N.M.q.4.3.4.w.M.b.q.-.8 . Z &X5X5X",
"5X5X*XN # F oX=X@X@Xh.p.K.~.!.!.(.].[.[.[.[.[.9X[.{.(.!.!.!.K.p.j.@X@X=X0X0X0X0X0XoXD.;.8.B.N.N.M.q.3.6.4.q.M.M.q.-.8   Z &X6X5X",
"5X5X*Xn   l &.z k b U.'.W.] ] ] Z.`.[.[.9X[.[.[.[.'.Q.] ] ] Z.(.Y.B s z 2.2.2.2.2.2.<.7.q.M.N.N.M.w.6.4.7.q.M.b.q.:.8 O Z &X6X5X",
"&X#XG v   f +.z & v U.].!.] ] ' Z.!.`.'.[.9X[.].`.!.Z.} ] ] Z.(.W.b X g +.;.+.;.;.;.5.q.b.M.N.M.M.w.q.w.q.w.M.b.4.=.7 + v L R.1X",
"#XB * # . q :.I , b U.].E.' ' J.} Z.Z.(.[.[.[.`.Q.} G.J.' | } J.s.y X w 5.5.5.5.<.4.q.M.M.N.N.N.N.M.M.M.M.M.N.w.<.O.2   $ a Z #X",
"j.x , X X w 9.U , b U.].Q.' } J.} } ] ~.[.[.[.(.Z.' J.J.| / | G._ y X w e.0.0.6.q.q.v.N.N.N.N.N.N.N.N.N.N.N.N.v.<.*.z < < < C k.",
"C @.w 1 . r e.%.1 3 U.{.!.] } J.J.' ] (.[.[.[.`.Z.]  .J.( 5 ^ H._ t & R b.b.b.b.b.b.M.N.N.N.N.N.N.N.N.N.N.N.N.M.v.8.1.u.>.>.%.C ",
"7 =.=.7 . T c.E 1 t U.'.Z./ ' G.J.' } ~.[.[.[./.} ] G.G.~ & y _ ) y & T v.b.b.M.b.b.b.b.M.b.M.N.N.N.N.N.N.N.M.N.N.N.N.N.M.N.u.l ",
"#.-.=.2 @ T c.E , t a.~.) u / H.J.' ' (.[.[.[.`.Z.] } } ~ @ y { _ y X w <.<.<.<.<.<.<.<.<.<.8.b.N.N.N.N.N.b.w.v.M.N.N.N.N.N.x.u.",
"3.6.=.7 @ T c.E , 6 ( E.~ = u { J.' ] ~.[.[.[./.Z.] } E.~ @ u _ _ t . d o.o.o.o.o.+.+.o.o.+.;.8.N.N.N.N.N.b.0.0.b.N.N.N.N.N.n.n.",
"6.3.,.7 @ T b.! , 4 ) E.p = 6 ~ ^ ! ^ A.`.`.`.W./ ! ^ ~ t O y _ _ 5 % F OXoXoXoXoXoXoXoXoXoX|.i.>.y.N.N.N.v.5.5.0.w.w.w.b.N.N.N.",
"3.3.=.7 @ R b.E < 6 ( H.p = @ & , & 6 a.^.^.^.) y & 4 & @ = u { _ t s @XdXsXsXsXsXsXsXsXsXsX=XP 2 u.N.N.N.8.;.*.5.6.8.0.b.M.N.N.",
"6.6.=.7 . T c.u.q e ^ ) p 5 t t t 5 u ) J.Q.Q._ p 5 5 t 5 5 p ( ^ e k  XrXrXrXrXrXrXrXrXuXrX@Xm , E N.B.N.q.;.;.;.5.4.3.q.w.b.b.",
"3.4.=.7 . T c.9.,.U e y ~ ) ) ) ) ) _ H.Q.J.J.G._ ) ) ) ) ) ^ y 0 8 z C S S S S S S S S S S m s , E N.N.N.q.4.:.;.;.:.3.4.q.q.0.",
"-.:.Y 2 . T c.c.w.,.9 < ~ [ [ [ H.[ [ [ H.H.H.H.A.A.A.A.H.[ ^ 6 : g ..d X X X X . o o X X X .   , Q N.N.M.b.0.5.;.+.;.:.:.-.-.:.",
"7 8 2 & @ T c.B.b.9.#.I r i u u u u u u u u u u u u u u u u e l g ..o.g f f f f d f f d f d - . , Q N.N.N.w.6.3.;.;.@.7 7 7 7 7 ",
"+ +     @ T c.B.N.M.q.-.8 .     +       = + +               : X.o.o.o.o.o.o.O.O.o.o.o.o.O.o.g o < E N.N.B.b.0.6.3.-.q   O     + ",
"H V n h @ T c.N.N.M.b.9.q   X ; ; - - - 1 - - - - - - - - - - d d d d d d d d d d d d d d d : . < %.N.N.N.w.0.6.4.-.8   3 N A A ",
":X&XT.b @ T c.N.N.N.M.x.r   : g ........................O...l o . . . . . . . . . . . X . . .   , E N.N.N.b.0.3.3.-.q   N R.&X:X",
"2X4X%XN @ R c.N.M.N.N.c.E 0 l g g g g g g g g g g g g g g g c S J J J J J J J J K K K J J J m s , E N.N.N.w.0.6.3.-.q O B %X,X,X",
"2X2X%XN @ R c.N.N.N.N.N.x.u.$.< o o o , o o & o o o o o , o F -XyXyXyXyXyXyXyXyXyXyXyXyXyXyX@Xm < E N.N.N.b.0.3.3.-.8   B %X4X4X",
"2X2X%XH v c u.x.n.N.N.N.N.N.>.2 , 1 , , < 1 , < , < , , , 1 l.qXpXpXpXpXpXpXpXpXpXpXpXpXpXpX-XC 0 u.N.n.b.w.8.5.-.=.c h f.%X2X2X",
"2X2X:XR.k.t.e W x.N.N.N.N.N.x.>.Q E >.%.%.E E E E E E %.%.%.i.}.+X.X.X.X+X+X.X.X+X+X+X+X}.}.z.i.>.x.N.b.q.0.6.:.I 9 V h.R.,X2X2X",
"2X2X4X2X>XH $ 9 x.n.N.N.N.N.N.N.M.M.M.N.M.M.N.M.N.M.N.N.N.M.8.;.+.+.+.+.+.+.+.+.+.+.+.+.+.2.<.v.V.N.M.v.6.6.6.#.2 # g.,X2X2X2X2X",
"2X2X2X2X,Xf.# 7 1.w.B.B.N.N.M.w.w.w.w.w.w.w.w.w.w.w.w.w.w.w.7.;.;.;.;.;.;.;.;.;.;.;.;.;.<.<.8.b.M.b.w.0.6.3.6.=.2 % f.,X2X2X2X2X",
"2X2X2X2X:XV # 7 =.e.b.B.N.N.b.0.6.4.6.6.7.6.6.6.7.6.4.3.7.7.3.3.4.4.4.4.4.4.4.4.4.4.4.4.0.n.n.N.M.w.6.6.0.3.6.=.2 % f.,X2X2X2X2X",
"2X2X2X2X,XP.B M R Y 9.n.M.N.9.W U U U U U U U U U U U U U @.U U U U U U @.@.@.@.@.@.@.#.1.q.b.M.M.w.q.0.3.-.#.$.M B T.,X2X2X2X2X",
"2X2X2X2X,X:X%Xf.j 7 =.q.w.N.>.2 , , & , , , , & , , , , , , , , , o , , , , , , , o , , I 5.w.M.N.M.b.q.3.Y 7 j j.%X:X2X2X2X2X2X",
",X2X4X4X,X<X3XP.h 1 Y 6.w.N.>.7 1 1 , @ O % h v v v v v v v v v v v v v v v v v v v $   q -.q.M.N.N.M.w.6.@., v T.4X2X,X2X4X2X,X",
"2X2X,X,X4X4X3XP.h 1 Y 0.w.N.y.=.#.Y I : O n P.L.L.L.L.L.L.L.L.T.L.L.L.L.L.L.L.L.L.h.m   8 -.q.b.N.N.M.w.6.@., v L.4X4X2X2X2X2X,X",
"2X4X,X4X4X4X5XL.b k #.5.e.M.w.0.3.3.:.7 + A 1X5X5X5X5X5X5X5X6X6X4X5X5X5X5X5X5X5X5X&XG % q ,.8.n.N.N.N.w.0.@.& v L.6X4X4X2X,X2X4X",
"2X2X2X4X6X6X5X*XP.A M w ,.q.0.6.3.3.:.8 + A ;X7X5X5X5X5X5X5X6X5X5X5X5X5X5X5X5X5X5X1XR.g.V q W 9.N.N.N.w.6.@., v L.6X6X6X4X2X2X2X",
"2X2X4X4X6X5X7X7X7XR.n & w 3.3.6.3.4.:.7 # A 1X5X5X5X5X5X5X5X5X5X5X5X5X5X5X5X5X5X5X5X5X3Xg.% 0 y.N.M.M.w.6.U , v P.5X5X7X4X4X2X2X",
",X4X6X6X5X3X7X5X5X&Xk.B M U I I I I $.M Z L.<X5X5X5X5X5X5X5X5X5X5X5X5X5X5X5X5X5X5X5X5X5XR.G V $.%.%.W $.U c V g.*X7X7X5X6X6X4X2X",
"4X4X6X6X7X7X5X6X5X3X;X#XV & & o & & 4 L &X8X3X5X5X5X5X5X5X5X5X5X5X5X5X5X5X5X5X5X5X5X5X4X<X;Xk.b & & , & & B T.;X<X5X7X5X6X6X4X4X",
"6X6X6X6X7X6X6X6X5X5X5X1XH +     + + * P.5X7X6X5X6X5X5X5X5X5X5X5X5X5X5X5X5X5X5X5X5X5X5X5X5X5XL.v O     O + N $X6X6X5X5X5X5X6X6X6X"
};
