/* XPM */
static char *Brown1711481215_14_1712067774[] = {
/* columns rows colors chars-per-pixel */
"64 64 238 2 ",
"   c #281F30",
".  c #321F33",
"X  c #3D1E36",
"o  c #3E1D38",
"O  c #292334",
"+  c #3E2235",
"@  c #3B2C3A",
"#  c #372834",
"$  c #3C333D",
"%  c #4A1D39",
"&  c #531E3C",
"*  c #5A1E3E",
"=  c #432435",
"-  c #4B2C39",
";  c #482938",
":  c #592539",
">  c #572939",
",  c #49353D",
"<  c #483538",
"1  c #583738",
"2  c #6C263A",
"3  c #632E39",
"4  c #65263B",
"5  c #73293C",
"6  c #7A293D",
"7  c #71273C",
"8  c #6A3639",
"9  c #74313B",
"0  c #7A363C",
"q  c #5D4137",
"w  c #774C38",
"e  c #7A523A",
"r  c #75523C",
"t  c #684537",
"y  c #3B3442",
"u  c #6A1D43",
"i  c #751C45",
"p  c #7D1B46",
"a  c #7E1D48",
"s  c #433644",
"d  c #483440",
"f  c #4D3D46",
"g  c #463A47",
"h  c #5B3A44",
"j  c #59304A",
"k  c #692745",
"l  c #772743",
"z  c #6C3944",
"x  c #773B46",
"c  c #6B3654",
"v  c #4F4349",
"b  c #584A4B",
"n  c #5B4E51",
"m  c #524656",
"M  c #5A5051",
"N  c #575151",
"B  c #4D4957",
"V  c #654548",
"C  c #76474B",
"Z  c #795B4C",
"A  c #675756",
"S  c #755554",
"D  c #724A56",
"F  c #6D615D",
"G  c #75625A",
"H  c #78614F",
"J  c #575562",
"K  c #5D5A68",
"L  c #775A6C",
"P  c #746862",
"I  c #7A6B64",
"U  c #736761",
"Y  c #686673",
"T  c #686773",
"R  c #75696F",
"E  c #8C2A3F",
"W  c #832B3E",
"Q  c #922A3F",
"!  c #85353D",
"~  c #99393F",
"^  c #94393E",
"/  c #A23B3F",
"(  c #8A5839",
")  c #89513B",
"_  c #9B633A",
"`  c #A96A3C",
"'  c #BC763E",
"]  c #B96637",
"[  c #B05D35",
"{  c #D76D35",
"}  c #C5783C",
"|  c #DA773A",
" . c #CD6937",
".. c #E07E3F",
"X. c #8C1B49",
"o. c #861C47",
"O. c #961C4A",
"+. c #A41F4C",
"@. c #8D2C41",
"#. c #832842",
"$. c #982B42",
"%. c #873543",
"&. c #9A3A42",
"*. c #963742",
"=. c #823257",
"-. c #AA2C44",
";. c #AC244C",
":. c #A42746",
">. c #B42D45",
",. c #B42B4C",
"<. c #BB2A4A",
"1. c #B7284A",
"2. c #A43B42",
"3. c #AA3C42",
"4. c #A73143",
"5. c #BC3346",
"6. c #BC314B",
"7. c #B73B45",
"8. c #AC2D58",
"9. c #AB2D56",
"0. c #A9335D",
"q. c #B83555",
"w. c #AA3B66",
"e. c #B13F63",
"r. c #C32E46",
"t. c #C82E48",
"y. c #CC3147",
"u. c #C4334B",
"i. c #CD3248",
"p. c #CC3B4A",
"a. c #C63746",
"s. c #D23549",
"d. c #D53B49",
"f. c #D93D4A",
"g. c #D33947",
"h. c #8F484D",
"j. c #BB4045",
"k. c #B44146",
"l. c #B04554",
"z. c #886C57",
"x. c #976D57",
"c. c #B17648",
"v. c #944C6A",
"b. c #B44469",
"n. c #B8587B",
"m. c #B0526F",
"M. c #856A63",
"N. c #89766B",
"B. c #907472",
"V. c #B9607C",
"C. c #C74347",
"Z. c #D44746",
"A. c #D64847",
"S. c #D5434A",
"D. c #DD434A",
"F. c #DD4849",
"G. c #DB4347",
"H. c #C84357",
"J. c #E1464A",
"K. c #E44A4A",
"L. c #E24847",
"P. c #DB7843",
"I. c #C55872",
"U. c #D6813E",
"Y. c #E0823E",
"T. c #9B8677",
"R. c #A38C7A",
"E. c #A9927D",
"W. c #B68F69",
"Q. c #AE845E",
"!. c #D79359",
"~. c #CF8851",
"^. c #E69759",
"/. c #E48C4A",
"(. c #CD9B6A",
"). c #E79B62",
"_. c #DDAB74",
"`. c #D5A26D",
"'. c #EBA86A",
"]. c #E4AF77",
"[. c #F2BA7B",
"{. c #EFB274",
"}. c #777781",
"|. c #BF6A8B",
" X c #BB6184",
".X c #BD7990",
"XX c #A06C84",
"oX c #C37694",
"OX c #C36C8A",
"+X c #8A8893",
"@X c #918890",
"#X c #AE9A82",
"$X c #AC9581",
"%X c #B59C85",
"&X c #AC8B99",
"*X c #BAA389",
"=X c #AC9CA7",
"-X c #A1A0A7",
";X c #BEBCBE",
":X c #B7AEB6",
">X c #9A97A0",
",X c #C78299",
"<X c #C3AB8E",
"1X c #C6A78E",
"2X c #C9AB91",
"3X c #CCB394",
"4X c #CDB996",
"5X c #D4B396",
"6X c #D4BB97",
"7X c #D7BD9A",
"8X c #D9BD9B",
"9X c #D6B899",
"0X c #D3AF95",
"qX c #CB8BA5",
"wX c #D59DB4",
"eX c #CC94A9",
"rX c #D8A3B9",
"tX c #CAABB7",
"yX c #F2BC80",
"uX c #BFBFC2",
"iX c #D7B9C7",
"pX c #E2BAC9",
"aX c #CBC9CF",
"sX c #CAC5CB",
"dX c #D9CED6",
"fX c #D8C3CE",
"gX c #E2C5D2",
"hX c #E8C8D6",
"jX c #E7C9D5",
"kX c #E1D0D9",
"lX c #ECD5DD",
"zX c #E3C3CF",
"xX c #F1DEE4",
"cX c #EFDDE3",
"vX c #F6EAEE",
"bX c #FEFEFD",
"nX c #F9F4F6",
"mX c #F2EBEE",
/* pixels */
"7X7X8X7X7X7X8X7X7X7X7X7X8X7X7X7X7X7X7X7X8X7X7X7X8X7X7X7X7X8X7X7X7X7X7X7X7X7X7X7X7X7X7X8X7X7X7X7X7X7X7X7X7X7X7X7X7X7X7X7X7X7X7X7X",
"7X7X7X7X7X7X7X7X8X8X7X7X7X7X7X8X8X7X7X7X8X7X7X7X7X7X7X7X7X7X7X7X7X7X7X8X7X7X7X7X8X7X7X7X7X7X7X7X7X7X7X7X7X7X7X7X7X7X7X7X7X7X7X7X",
"7X7X7X7X8X7X7X7X8X7X7X7X7X8X7X7X7X7X7X7X8X8X7X7X7X7X7X7X7X7X7X7X7X7X8X8X7X7X7X7X7X7X7X7X7X7X7X7X7X7X7X7X7X7X7X7X7X7X7X7X7X7X7X7X",
"7X7X7X8X7X7X7X8X8X8X7X8X7X7X7X7X7X7X7X7X8X8X7X8X7X7X7X7X7X7X7X7X7X7X7X8X7X7X8X7X7X8X7X7X8X7X7X7X7X7X7X7X8X7X7X7X7X7X7X7X7X7X7X8X",
"8X7X7X7X7X7X7X7X7X7X7X7X7X8X7X7X7X7X7X7X7X7X8X8X7X7X7X7X7X7X7X7X7X7X7X7X8X7X7X7X7X7X7X7X7X8X7X7X7X7X7X7X7X7X8X7X7X7X7X7X7X8X7X7X",
"7X7X8X7X8X7X7X7X7X7X7X7X7X7X7X7X7X7X7X7X7X8X8X8X7X7X7X7X7X7X7X7X7X7X7X7X7X7X7X7X7X7X7X8X7X7X7X7X8X7X7X7X7X7X8X7X7X7X8X7X8X7X7X7X",
"7X7X7X7X7X7X7X7X7X7X7X7X7X7X7X8X7X7X7X7X7X7X8X8X8X7X9X4X7X7X7X7X7X7X7X7X7X7X7X7X7X8X7X8X7X8X7X7X7X7X7X7X7X7X8X8X7X7X8X8X8X7X7X8X",
"7X8X7X7X7X7X8X7X7X7X7X7X7X7X7X7X7X7X7X7X7X7X8X8X7X9X5X5X7X7X7X7X7X7X7X7X7X7X8X8X7X7X7X7X7X7X7X7X7X7X7X7X8X7X7X7X7X7X8X7X7X7X7X7X",
"7X7X7X7X7X7X7X7X7X7X7X7X7X8X8X7X7X7X7X7X7X7X8X9X9X5X0X5X7X8X7X7X7X7X7X7X6X6X8X8X8X7X8X9X7X7X7X7X7X7X6X7X7X8X7X7X7X7X6X4X4X7X4X7X",
"7X6X4X4X2X3X6X7X7X7X7X7X7X7X7X7X7X7X7X7X7X7X9X9X5X0X5X0X7X7X7X7X7X8X8X8X9X5X9X8X8X9X7X7X7X7X8X8X8X7X7X7X7X7X7X7X6X4XE.R.R.#X<X7X",
"7X3XR.I I T.E.6X7X7X7X8X7X6X7X7X7X7X7X4X7X8X7X3X0X0X5X9X7X6X7X6X9X9X7X9X0X2X0X5X9X9X6X6X6X7X7X7X7X4X4X7X7X7X8X7X6XR.F v b F #X4X",
"3X#XG , , v N.<X6X6X7X7X4X3X4X4X3X3X3X3X3X*X2X1X2X1X1X1X#X#X%XE.#X#X$X$XE.E.E.E.$X#X#X#X#X#X#X#X#X#X*X3X4X7X7X2X*XN.q < - h N.*X",
"R.M.C 9 9 8 S N.E.3X6X6X*XT.T.N.N.T.N.N.B.N.N.N.B.N.B.N.M M M M N N n n n n n n n N N N N n M M N N F R.3X8X9XR.A w h./ 2.h.C A ",
"G b *.j.j.k.h.V N.*X3X3XR.A v v f v f q f f v , f f f f - - - - - - - - ; ; < - - - - - ; - ; - - - h N.$X*X#XM.h ! a.Z.C./ 8 z ",
"C 9 ! k.C.g.~ 0 Z B.T.B.M.8 1 3 3 3 3 3 3 3 3 3 3 3 4 3 ~ ~ ) h.&.&.&.&.&.&.&.&.&.&.&.&.&.&.&.~ &.&.h.C A A A C *.3.a.7.! 9 ! h.",
"%./ 9 1 Q a.a.3.h.V v b C / j.7.C.7.j.j.j.j.j.j.j.j.j.7.A.G.L.K.A.A.A.A.A.A.A.A.A.A.A.A.A.A.A.A.Z.A.C.! 1 , , %.C.a.5.Q 8 8 ^ 3.",
"^ ) 0 1 ! ~ r.a.4.4 > > ! Z.K.K.K.K.K.K.K.K.K.K.K.K.K.K.K.K.K.K.K.K.K.K.K.K.K.K.K.K.K.K.K.K.K.K.K.K.A.3.^ W W 4.p.>.#.0 ) ) w 6 ",
"5 9 _ ` w 3 E r.5.-.4.7.C.A.K.K.K.K.K.K.K.K.K.K.K.K.K.K.K.K.K.K.K.K.K.K.K.K.K.K.K.K.K.K.K.K.K.K.K.K.K.F.A.p.a.t.y.Q - q ` c.w 1 ",
"8 t c.~.w = 9 5.s.g.f.J.K.K.K.K.K.K.K.K.K.K.K.K.K.K.K.K.K.K.K.K.K.K.K.K.K.K.K.K.K.K.K.K.K.K.K.K.K.K.K.K.K.D.f.s.y.E = q Q.!.x.) ",
"_ c.!.`.Z + 6 5.s.f.J.K.K.K.K.K.K.K.K.K.K.K.K.K.K.K.K.K.K.K.K.K.K.K.K.K.K.K.K.K.K.K.K.K.K.K.K.K.K.K.K.K.K.K.J.f.s.Q = q Q.'./.} ",
"c.^.{._.H < 5 5.f.J.J.K.K.K.K.K.K.K.K.K.K.K.K.K.K.K.K.K.K.K.K.K.K.K.K.K.K.K.K.K.K.K.K.K.K.K.K.K.K.K.K.K.K.K.J.D.g.Q = b W.{.'.!.",
"!.'.{._.H # 6 5.f.J.K.K.K.K.K.K.K.K.K.K.K.K.K.K.K.K.K.K.K.K.K.K.K.K.K.K.K.K.K.K.K.K.K.K.K.K.K.K.K.K.K.K.K.K.J.D.y.Q ; b (.{.{.'.",
"(.(.`.W.Z 1 E r.D.K.K.K.K.K.K.K.K.K.K.K.K.K.K.K.K.K.K.K.K.K.K.K.K.K.K.K.K.K.K.K.K.K.K.K.K.K.K.K.K.K.K.K.K.K.K.J.g.4.5 C z.Q.W.Q.",
"Z H H Z %.E 4.g.K.K.K.K.K.K.K.K.K.K.K.K.K.K.K.K.K.K.K.K.K.K.K.K.K.K.K.K.K.K.K.K.K.K.K.K.K.K.K.K.K.K.K.K.K.K.K.K.D.g.3.%.V q b q ",
"q g $ $ #.5.d.F.J.K.K.K.K.K.K.K.K.K.K.K.K.K.K.K.K.K.K.K.K.K.K.K.K.K.K.K.K.K.K.K.K.J.K.K.K.K.K.K.K.K.K.K.K.K.K.K.K.G.y.$.> O y v ",
"P F q O W r.d.J.K.K.K.K.K.K.K.K.K.K.K.K.K.K.K.K.K.K.K.K.K.K.K.K.K.K.K.K.K.K.K.K.K.J.K.K.K.K.K.J.K.K.K.K.K.K.K.K.K.G.s.$.> $ P R.",
"*XR.N # E a.f.J.K.K.K.K.J.K.K.K.K.J.K.K.J.F.J.J.F.K.K.K.K.K.K.K.K.K.K.K.K.K.K.K.S.D.S.S.S.f.D.J.K.K.K.K.K.K.K.K.J.f.g.4.2 b N.*X",
"R.I C 5 4.g.f.f.J.K.K.K.K.K.K.K.F.d.a.a.u.u.u.u.u.d.K.K.K.K.K.K.K.K.K.K.K.J.p.6.,.,.,.9.,.q.u.S.K.K.K.K.K.K.J.J.g.f.f.a.4.%.C P ",
"A - @.r.d.D.f.s.f.J.K.J.K.K.K.K.S.,.+.+.+.+.O.+.+.6.D.K.C.C.C.C.C.C.C.C.S.S.H.b.b.b.b.b.b.e.b.S.J.K.K.K.K.K.K.D.s.f.J.D.a.:.> v ",
"n + @.i.D.F.D.f.D.J.K.K.K.K.F.p.H.V.OXoX.X.XoXoXoXI.H.5.9 9 9 9 9 9 6 %.4.l.OXwXrXwXwXwXwXwX,Xb.u.S.J.K.K.K.K.J.D.D.J.D.i.4.: y ",
"M + @.s.f.J.J.J.J.K.K.K.K.K.S.,.I.wXlXxXxXcXxXcXxXqX0.l < < 1 < < < < > l w.qXcXvXvXvXvXvXvXpXn.9.p.K.K.K.J.J.J.D.J.K.D.g.-.> , ",
"n = @.i.D.D.J.G.D.D.J.L.K.K.d.,.n.pXnXbXbXbXbXbXbXeX=.z z.z.z.z.z.z.z.z.c D =XmXbXbXbXbXbXnXhX X+.p.J.K.J.J.f.f.f.D.D.D.g.-.> y ",
"b X @.y.f.J.f.s.s.s.D.J.K.K.d.9.n.pXnXbXbXbXbXbXbX=Xg V _.].]._.]._._.W.Z A >XxXnXnXnXnXnXvXpX X8.p.J.K.J.f.s.i.i.s.D.D.s.:.j s ",
"N % Q s.G.J.f.s.i.s.d.D.K.K.d.<.b.qXpXpXgXgXfXaXsX@XA z.yXyX[.].'.^.).~.x.z.@X-X=XwXwXwXwXwXoXb.t.s.J.J.J.f.i.i.i.f.J.D.s.,.* s ",
"n + @.y.f.J.f.y.y.i.d.J.K.K.D.a.u.b.n. Xn.n.n.v.K N.W.~.yXyXyX'.P.{ { P.!.W.z.g c 0.w.0.w.0.8.u.i.f.K.K.J.f.i.t.t.s.J.D.i.-.: $ ",
"v % #.y.d.J.D.d.s.s.D.F.K.K.D.d.i.8.;.+.+.+.O.u   Z `.^.yX{.'./.| { { { /.~.z.# 4 :.+.;.;.;.t.t.f.J.K.K.K.D.d.d.f.f.J.D.u.$.> # ",
"# X l ;.p.J.D.D.D.D.J.J.K.K.K.D.d.i.t.<.r.<.1.7   Z ~./.[.'.P.| | Y.{ { ..P.r # 7 >.r.r.t.t.u.f.J.J.K.K.K.K.J.J.D.K.J.d.,.X.; O ",
"# > #.;.p.J.K.K.K.K.K.K.K.K.K.K.J.s.p.i.y.s.r.5   w U.| [.).P.{ Y.U.[ [ P.c.e # 5 a.s.s.s.s.f.J.K.K.K.K.K.K.K.K.K.K.K.f.6.$.l > ",
"*.2.7.p.D.J.K.K.K.K.K.K.K.K.K.J.K.D.f.f.G.f.p.0   w U.` [.).P.{ Y.} e w ` ' e ; x p.D.S.D.D.D.J.K.K.K.K.K.K.K.K.K.K.K.J.D.C.7.k.",
"K.K.K.J.K.K.K.K.K.K.K.K.K.J.J.D.J.D.J.J.D.D.Z.!   e U._ yX).| { Y.' q 1 _ ' e # l p.S.f.S.f.f.f.f.S.f.J.K.K.K.K.K.J.J.J.J.K.K.K.",
"K.K.K.K.D.f.D.J.K.K.K.K.D.u.5.u.q.6.u.<.<.<.,.l   w U._ yX'.{ { Y.' q < _ ' e # 2 :.,.,.;.,.,.8.9.,.u.p.K.K.K.J.K.D.f.f.F.K.K.K.",
"K.J.J.J.d.i.f.J.K.K.F.A.C.q.0.0.0.0.0.0.w.8.0.k O w U._ {.!. . .] ` q < ( ' e + k w.v.b.w.w.w.w.w.w.e.u.C.A.K.K.J.D.i.i.f.J.J.K.",
"J.f.f.d.u.u.d.F.K.F.a.&.v..XqXqXqXqXqXqXqXqX&XL O w | _ ^.c.( t t t # < _ ' w < L eXwXrXiXwXwXiXrXrXeXB.h./ F.K.K.S.,.<.i.d.s.f.",
"s.s.i.t.1.;.u.D.K.A.&.h L :XkXkXkXkXkXkXkXdXaXXXO r } _ /.` t < < < # q _ ` w - }.fXdXdXdXdXdXdXdXdX:XR h ! A.J.K.p.,.;.<.i.i.s.",
"s.t.r.1.;.1.p.f.K.S.&.- B +X-X-X-X-X-X-X-X-X>XL j 8 ( ( Y.' _ ( ( ( ( ( e e 2 2 L XX+X+X+X+XXX+X+X+X}.m ; %.C.J.K.d.r.;.1.<.t.i.",
"r.<.;.;.1.t.d.J.K.A.^ ; y g m f m B f m B m m c o.2 > w U.U.} } } } } [ t 1 2 o.c y s s g g s g g s y y # ! A.K.K.f.i.r.;.+.<.<.",
"@.$.O.1.r.i.f.J.K.A.*.=   % & % & % % & % & & i O.p > 8 ( ( ( ( ( _ ( ( t 4 p X.i * * * * * * * * * & o + ! A.K.K.f.s.r.1.:.@.#.",
"% * $.r.t.i.f.J.J.S.*.= o u p a a p p a a a a X.O.X.p 8 # # # .   # # # 2 E O.O.O.O.X.X.X.X.X.X.X.X.p % = ! S.K.K.D.s.t.t.-.4 . ",
"# + @.t.y.i.f.J.K.f.~ = % 4 p i i i i a i i i i i i i u % & & & & & d * * u u u u u u u u u u u u u * % + ! Z.K.K.G.s.y.t.-.* O ",
"v + @.i.y.y.f.J.K.D.~ ;   . + X o o o o o o o + + + o & X.o.X.X.X.o.X.i & X # . . . . . . . . . o . .   + ! C.K.L.f.s.y.y.-.: $ ",
"n % @.t.i.y.f.J.K.A.*.; $ B J J J J J J J J J J J J J c i i i u i i i k D Y T T Y Y Y Y Y Y Y Y Y Y J y @ ! A.K.K.f.g.y.r.-.: , ",
"n X @.i.i.i.f.J.K.A.*.- J -X;XuXuXuXuXuXuXuXuXuXuXuXuX+XX X X % o o o j +XiXaXaXaXaXaXaXaXaXaXaXaXaX:XT s ! S.K.K.L.y.y.r.4.: $ ",
"S h %.:.5.t.f.J.F.F.2.z L :XgXgXpXgXgXgXfXgXgXgXdXgXgX&X> - > ; % ; > V &XpXhXhXhXhXhXhXhXhXhXhXhXhXtXB.c &.D.F.D.f.i.r.>.@.z M ",
"$XN.x 2 $.r.s.s.D.F.C.k.l.V.OX|.|.|.|.|.OX|.|.|.OXOXOXm.3.3.2.3.3.3.3.3.m. X X X X X X X X X X X X XV.b.k.C.F.D.g.s.y.-.7 z M.R.",
"2X$XA X E r.y.s.d.D.F.D.C.q.8.9.8.8.8.8.8.8.8.8.9.8.8.q.D.J.J.J.J.J.J.f.<.+.+.+.+.+.+.+.+.+.;.+.+.+.,.p.K.J.F.f.y.y.y.$.> f T.0X",
"0X%XA . W r.i.i.s.f.D.J.D.p.u.<.<.1.1.<.1.1.1.1.1.1.1.r.g.f.g.g.s.d.d.s.t.<.<.1.<.<.<.<.<.<.1.,.q.t.p.f.K.D.d.s.y.y.y.Q > g T.0X",
"0X%XF d %.-.<.i.y.s.f.J.J.J.g.5.>.>.>.-.1.>.>.>.>.-.>.>.5.>.5.>.5.5.>.>.>.>.>.>.>.>.>.>.>.>.>.>.5.p.D.J.K.f.s.i.y.r.>.$.h b R.0X",
"0X1XR.M.C 6 4.r.g.g.J.J.J.f.5.E 5 2 l 2 7 2 5 2 5 l 2 2 4 2 2 2 2 2 2 2 2 2 2 2 2 2 2 2 2 2 2 2 6 >.f.F.J.J.f.d.y.-.l x M.B.%X0X",
"0X0X3X%XA - l r.f.J.J.K.J.g.4.: # # @ @ @ @ @ @ @ @ @ @ , , f , - d d d d d d , d d d d d s < # ; Q i.D.J.J.J.f.y.$.; b T.1X0X0X",
"9X9X7X<XF d 6 7.f.J.K.J.D.g.Q ; $ N U P P P P P P P P P F I I I I I I I I I I I I I I R I I A $ = Q r.D.K.K.K.f.s.Q % b E.9X0X0X",
"9X8X8X2XF ; l 5.f.L.K.L.D.g.-.> v T.*X3X3X3X3X3X3X3X3X4X#X<X<X*X<X<X<X*X<X*X2X<X<X<X<X<X<X<XT.M - @.u.S.J.K.K.D.i.E = b E.8X9X5X",
"8X8X7X<XF @ 6 5.f.F.K.K.a.Q x D N.*X4X8X8X8X7X7X8X7X7X7X3X7X7X7X7X7X7X7X7X7X7X7X7X8X7X7X7X7X*XN.S x *.7.D.K.J.D.s.@.+ b E.9X8X5X",
"8X6X7X<XA @ 6 5.d.J.K.F.3.> b R.<X4X7X7X7X7X7X7X8X7X7X7X<X7X7X8X7X7X8X7X7X7X7X7X7X8X7X7X7X7X4X2XR.A > &.A.K.J.f.s.Q = b E.6X8X8X",
"6X7X7X3XT.A x *.Q 2./ ~ h.D M.%X4X7X7X7X8X7X8X7X7X7X7X7X4X8X8X8X7X7X7X7X7X8X8X8X8X8X7X7X7X7X7X7X<XN.S h.&.2.2.&.$.x A M.*X6X8X9X"
};
