/* XPM */
static char *Brown1711481215_5_1711986715[] = {
/* columns rows colors chars-per-pixel */
"64 64 222 2 ",
"   c #030204",
".  c #0A0506",
"X  c #03040A",
"o  c #0B0609",
"O  c #09090C",
"+  c #0A0909",
"@  c #150E0D",
"#  c #180E0B",
"$  c #130806",
"%  c #16100D",
"&  c #1A120D",
"*  c #181107",
"=  c #140A11",
"-  c #190F11",
";  c #1C1313",
":  c #161010",
">  c #201313",
",  c #251B14",
"<  c #2A1C14",
"1  c #2B1B1A",
"2  c #261818",
"3  c #25211C",
"4  c #33231A",
"5  c #3A261E",
"6  c #3E2C1D",
"7  c #382618",
"8  c #2A2321",
"9  c #3A2721",
"0  c #3B2B22",
"q  c #382C24",
"w  c #3F3227",
"e  c #3C3228",
"r  c #432B1D",
"t  c #482A1B",
"y  c #4C331D",
"u  c #4D2D24",
"i  c #4C2E2B",
"p  c #412E26",
"a  c #542B28",
"s  c #443126",
"d  c #4D3225",
"f  c #44342A",
"g  c #4D322D",
"h  c #483A29",
"j  c #543423",
"k  c #593425",
"l  c #553924",
"z  c #593A26",
"x  c #51362A",
"c  c #53392B",
"v  c #593C28",
"b  c #5D352C",
"n  c #4C3130",
"m  c #543D31",
"M  c #6B3C2C",
"N  c #683C2B",
"B  c #703F2E",
"V  c #643C35",
"C  c #6B3D36",
"Z  c #6B3E39",
"A  c #673F3D",
"S  c #713D38",
"D  c #733E33",
"F  c #5B4436",
"G  c #5D432C",
"H  c #62422C",
"J  c #6C442D",
"K  c #72442C",
"L  c #6D4134",
"P  c #644D34",
"I  c #67423A",
"U  c #6B423B",
"Y  c #624C3D",
"T  c #6C4C3D",
"R  c #684634",
"E  c #724333",
"W  c #7C4B33",
"Q  c #72443A",
"!  c #794D3C",
"~  c #734D36",
"^  c #6F503B",
"/  c #775336",
"(  c #7A5234",
")  c #75543A",
"_  c #7A5339",
"`  c #78593C",
"'  c #584642",
"]  c #6A4941",
"[  c #6D574A",
"{  c #6E5A49",
"}  c #695546",
"|  c #735442",
" . c #765846",
".. c #78634F",
"X. c #796953",
"o. c #7C6659",
"O. c #7A6456",
"+. c #814C34",
"@. c #8C5E36",
"#. c #83543B",
"$. c #865C3C",
"%. c #8B5D3D",
"&. c #845735",
"*. c #915F36",
"=. c #915E3B",
"-. c #82603D",
";. c #8B613A",
":. c #8C6438",
">. c #91613A",
",. c #9B663F",
"<. c #9D6C3D",
"1. c #906137",
"2. c #9E763B",
"3. c #A66734",
"4. c #A46C35",
"5. c #AA6C34",
"6. c #A36739",
"7. c #A46E3E",
"8. c #A96C3B",
"9. c #A4713D",
"0. c #A7733C",
"q. c #855B42",
"w. c #895C41",
"e. c #8A5249",
"r. c #945D42",
"t. c #8C6441",
"y. c #886649",
"u. c #946443",
"i. c #9A6543",
"p. c #966A43",
"a. c #9D6C43",
"s. c #9C6649",
"d. c #976B4D",
"f. c #9A6C49",
"g. c #956549",
"h. c #9E7246",
"j. c #9E724A",
"k. c #997647",
"l. c #836B54",
"z. c #826A5A",
"x. c #946B51",
"c. c #9D6A50",
"v. c #84725D",
"b. c #8C7758",
"n. c #9A7457",
"m. c #A46E42",
"M. c #A96D43",
"N. c #A26D49",
"B. c #A76A45",
"V. c #A47142",
"C. c #A97243",
"Z. c #A3724A",
"A. c #A9744A",
"S. c #A27B4E",
"D. c #AB7B4D",
"F. c #A47753",
"G. c #A47C54",
"H. c #A97B55",
"J. c #A67C5A",
"K. c #A97959",
"L. c #A8755A",
"P. c #8B7464",
"I. c #8C7961",
"U. c #8E7968",
"Y. c #877060",
"T. c #9A7E6D",
"R. c #987965",
"E. c #A87562",
"W. c #A3825B",
"Q. c #AA8457",
"!. c #97826B",
"~. c #9C826D",
"^. c #9A896E",
"/. c #988164",
"(. c #9D8A72",
"). c #A58463",
"_. c #A78A66",
"`. c #A1846D",
"'. c #AA8569",
"]. c #AE906E",
"[. c #A38D73",
"{. c #AE8D75",
"}. c #A18472",
"|. c #B28E77",
" X c #B3957A",
".X c #B29876",
"XX c #B9A07D",
"oX c #B19B87",
"OX c #BAA485",
"+X c #BDA594",
"@X c #BCAFA7",
"#X c #BCAFA9",
"$X c #BCB0AA",
"%X c #C7AB89",
"&X c #CAB38C",
"*X c #D6BB8F",
"=X c #CCAD96",
"-X c #C5A899",
";X c #D3AE93",
":X c #D6AF98",
">X c #CCB295",
",X c #CCB49B",
"<X c #CDBB9A",
"1X c #CCB895",
"2X c #D5B296",
"3X c #D9B295",
"4X c #D5BB96",
"5X c #DABC95",
"6X c #D3B399",
"7X c #D8B799",
"8X c #D6BD9B",
"9X c #D9BC9B",
"0X c #C7AEA5",
"qX c #C2AFA8",
"wX c #C8AEA1",
"eX c #C3B4A6",
"rX c #C5B8A7",
"tX c #C2B1A9",
"yX c #D3BCA2",
"uX c #D6BAA2",
"iX c #D8C09B",
"pX c #E1C093",
/* pixels */
"9X8X9X8X8X4XiXiX4X(.$ ' x.D.S.G.G.J.J.G.J.G.G.G.G.G.G.n.F.F.J.F.G.G.D.n.G.S.G.Q.H.J.G.G.G.G.F.G.H.H.J.G.G./.y h /.4XiX9XiXiX8X8X",
"8X8X8X8X8X8X9X8XiX(.. v 1.5.5.5.V.Z.7.3.5.5.8.8.7.4.4.4.4.8.8.4.4.4.3.3.4.4.3.3.6.8.5.3.4.5.4.m.4.6.4.4.9.Z.t h b.4XyX9X4X8X8X4X",
"8X8X8XiX9X4X9X8X4X(.+ v ;.7.4.<.t.y.y.y.t.` t.r.u.>.:.;.%.=.@.%.t.%.%.@.%.@.;.;.r.%.#.=.%.&.@.u.:.,.9.9.9.Z.r f I.1X8X9X4X4X8X8X",
"9X8XiXyX8X8X7X9X4X^.+ v >.V.V.f.P w 9 4 4 q 5 s z l y j j j j d k j j j j j l k k k a b j j d z j &.a.h.V.A.t h I.1X8X9XiX9X8X8X",
"8X4X8X8X8X8X9X9X8X^.. v u.V.V.d.c & . + X O * 4 p u u u g u u u u a u u u u u u u i a i u j u t 4 K s.Z.V.D.r h Y.&XiXyX9XiX8X8X",
"8XiX8X8X8XiX9X8X4X^.. v >.7.7.d.l $     X X ; g Z Z Z Z Q Z U U I U I U U U U U U I L R H L ^ M 6 ( m.A.V.j.r s X.%X<X8X8X9X8X9X",
"8X8XiXiX9X4X9X8X4X(.. v >.C.M.p.l #     X   & f V S C C Z Z C R C C C L L Z L Z Z Z T I M E e.e.G ` N.A.h.Z.r w X.OX<X6X4X8X8X8X",
"8X8XiXiXiX4X9X8X4X^.+ v ,.V.M.u.x @     X X & g ] S C C Z Z C C I C L L C C Z Z Z L I H J &.e.c.b.k.h.9.V.S.p w X.OX6X9XiX8X8XiX",
"9X8X8X8X4XiX9X6X4X^.o v :.V.Z.g.c :   X +   & g Z S C Z Z Z C Z C I C Z C V Z Z Z Z Z C ` u.s.E.OX_.j.V.V.S.r w X.XX<XyX8X8X8X9X",
"iX8X8XiX8X8X9X4X4X^.+ v ;.7.M.s.d *         & g A C Z V Z Z C C Z Z L C Z C C Z Z Z D #.u.f.Z.'.1X XJ.B.h.Z.r f X.XXiX8X8X8X9X4X",
"8X8X8X9X8XiX8X6X1X^.+ l 1.m.M.p.j $         & g A S Z Z Z Z Z C C C Z C C C C Z S E +.,.h.<.A.'.1X XH.m.7.Z.y s ..XXiXiX5X8XiX8X",
"8X8XiX9X9XiXyX8X1X!.+ j =.m.V.i.h @     X   & n U Z Z V A Z Z S C C C V V V M M E #.r.6.V.V.V._.-X XL.m.V.V.r 0 { [.@XiXiX8X8X8X",
"8X9XiX9X9X8X8X8X6X(.+ l ;.M.V.i.c @     X X & g A Z Z Z Z A Z C S M C Z Z Z C K W r.a.V.V.m.Z._.-X XG.B.V.Z.r 0 { [.$X8X5X8X8X8X",
"iX4X8X4X9X8X8X9X6X(.O l =.m.9.i.c @     X   & g U S C Z Z Z V C C C Z C Z C M &.u.a.A.<.V.V.Z._.+X{.G.M.V.V.r 0 { [.rX8XiX5X8XiX",
"9X4XiX8X9X8X9X9X4X(.O k =.m.m.i.c @     X X & g Z Z C C Z Z C C C Z Z Z D M W u.M.9.m.<.V.V.j.d.P.n.Z.m.C.S.r 0 { [.rX8XiX8X5X4X",
"8X8XiX8X9X8XyX8X8X^.o z >.V.V.i.x #   X X   & i U Z C Z C C A C C C Z Z D E >.M.V.<.7.h.9.V.h.=.V q.f.m.C.k.r 0 } ^.rX8X5X8XiX9X",
"8X9XiXiX9XiX8X8X2X!.+ l >.V.m.i.c %     X   : n Z Z Z Z Z C C C C C C D W %.Z.m.<.4.C.0.7.<.B.i.b #.B.m.V.V.r 5 ' /.rXyXiX4X4X9X",
"8XiX<X4X8XiX9X6X2X!.+ k >.M.m.i.c @     X   & n Z Z Z Z C C C C Z N B W =.B.7.V.9.7.M.<.7.m.M.s.U w.i.7.V.h.p 5 Y I.rXiX8X5X4XiX",
"8X9X4XiX9X9X9X6X&X!.. k ;.M.V.p.c %     X   # i Z C V C C C C C M M +.u.N.m.7.V.V.V.Z.0.m.7.6.g.E w.a.8.7.V.p 9 Y /.rXyX4X5X9X8X",
"8X8XiX8X9X9X8X2X2X!.. z =.M.m.i.g %     X   ; n Z C C Z Z Z Z C M #.u.a.m.7.m.V.m.V.Z.0.V.V.7.d.E $.a.4.7.h.r q ' b.eXyXiXiX9X9X",
"8X8X8X9X9X7X6X6X;X/.+ l @.m.m.,.c #     X   ; g C C C Z Z Z L E +.u.m.m.<.7.V.V.V.a.m.9.Z.V.7.g.E %.p.4.V.h.6 5 F v.$XuX8X9X4X9X",
"9X8X8X7X7X3X2X2X;X~.O l ;.m.B.u.d $         - g L C R A Z C J +.*.6.m.m.7.<.9.V.V.7.7.7.m.m.7.i.L w.m.4.7.j.6 4 m o.$XuX9X9X4XiX",
"9XiX8X8X2X2X2X2X2X~.O k >.m.B.,.c %         # i L C V Z S M K u.,.a.V.V.7.9.9.V.V.7.4.V.B.M.7.i.E w.B.7.V.j.r 4 m o.#X6X9X4XiX8X",
"9X9X9X6X6X2X:X2X;X~.O l *.m.m.,.c @         : g Z C C Z K W >.N.m.m.m.V.V.9.7.7.7.9.7.V.M.m.7.i.L w.a.7.V.h.6 4 m o.#X6X6X8X8X9X",
"9X7X8X2X2X2X;X2X2X~.. l *.m.m.i.c @         & i Z S C E &.>.a.a.m.a.7.7.h.7.7.<.7.m.9.V.V.M.7.i.L q.B.4.m.h.r 4 c o.@X6X:X6X8X9X",
"8X6X6X2X3X;X6X;X2X~.+ l @.m.M.i.x #         : g Z S Q W >.a.m.7.m.7.m.7.7.7.7.7.7.7.8.V.V.m.7.,.E q.a.7.7.j.r 4 F o.@X=X:X2X7X8X",
"4X2X>X2X2X3X:X6X2X~.+ z =.7.m.i.c #         ; x Z D ! r.a.m.m.B.7.7.V.7.m.m.V.7.7.7.7.9.M.M.7.u.M w.m.7.7.V.r 4 c o.@X:X2X2X6X6X",
"2X;X2X>X2X3X2X;X;X~.X z @.7.B.,.x #   . X   > n E +.r.N.a.9.V.B.m.m.m.7.7.7.7.m.7.7.7.7.V.M.7.i.C %.a.7.9.f.6 4 m o.$X6X2X2X2X2X",
"2X2X2X2X2X3X6X;X2X/.X z 1.7.M.i.c #         - u W ,.V.V.C.m.7.7.7.7.m.<.7.a.7.7.7.7.7.V.m.B.7.i.E q.B.7.7.h.6 4 m o.#X6X;X3X2X;X",
"2X2X2X2X3X3X:X2X;X~.+ l =.m.m.i.g #         ; R r.7.9.9.7.V.V.M.m.7.m.7.m.m.7.7.m.C.4.V.m.m.7.i.E %.a.7.m.j.6 4 m o.#X:X3X3X7X3X",
"2X3X6X2X2X2X2X;X2XT.+ l 1.m.m.i.h *         2 ~ n.Q.Q.J.V.7.9.M.7.7.7.m.7.7.m.m.m.7.7.7.m.m.7.i.C %.m.7.m.h.6 4 m o.@X6X:X2X7X;X",
"3X6X3X6X2X2X6X2X2X`.+ l =.7.7.i.x $   X     2 ` _.oX+XoXG.2.m.M.m.7.7.7.m.7.7.7.7.7.m.7.7.7.7.i.L %.<.8.m.j.6 4 m o.@X6X2X7X6X;X",
"2X2X6X2X2X2X6X6X;X~.+ l =.M.m.u.g @   X   . 2 ` ].-X0X-X).<.7.m.7.7.7.7.m.9.m.7.7.m.m.7.9.7.7.u.E w.m.7.9.j.6 4 c o.#X6X6X2X6X2X",
"2X2X2X2X2X2X;X;X3X~.+ l =.V.V.u.c @         < ` '.-XwX-X).m.7.7.m.7.7.m.7.7.7.m.7.7.m.7.9.V.7.g.L w.m.7.7.j.6 4 m o.#X6X6X2X2X2X",
"2X2X2X2X2X2X2X>X2X~.+ x >.7.m.i.g *         , ) J. X|.{.D.M.M.m.7.V.7.7.V.7.7.7.7.m.m.9.m.V.7.i.L $.a.7.7.h.6 4 m o.$X6X7X2X2X2X",
"2X3X2X2X2X2X2X;X;XT.+ l >.7.C.u.c %         < ( S.n.F.F.Z.V.m.m.7.7.7.7.7.7.7.m.7.7.m.7.7.7.7.u.J %.a.7.7.h.6 4 m o.$X6X;X2X2X2X",
"2X2X2X2X2X2X2X2X;X`.o l =.m.V.i.c %         , ! N.h.7.<.V.9.C.m.7.m.m.9.7.m.7.7.7.7.m.9.m.8.7.i.L ;.a.9.9.j.6 4 m o.@XwX2X3X2X2X",
"2X2X2X2X2X2X2X2X;X/.+ l =.9.7.i.c @         < _ M.7.4.9.7.V.7.B.7.7.7.7.7.7.m.7.7.7.m.7.V.m.m.s.E w.a.7.7.j.6 4 m o.#X6X6X;X6X3X",
"2X3X7X2X2X6X2X2X;X~.+ l =.m.V.u.g @   X     , / m.9.8.9.a.V.7.9.7.m.m.7.m.7.7.7.7.m.m.9.m.7.M.i.E w.a.9.V.j.6 4 m z.#X6X7X;X3X;X",
"2X6X2X2X2X6X2X2X;XT.+ l =.V.M.u.g @       . , / Z.m.4.9.m.V.<.7.7.7.7.7.7.7.m.9.7.7.m.7.V.7.B.i.E w.a.4.7.j.r 4 m o.#X6X;X7X;X7X",
"2X2X:X2X2X2X2X;X:X~.O l =.m.m.u.l @         , / m.V.m.9.m.m.7.9.7.7.7.m.m.9.7.7.7.m.m.<.9.m.7.s.L %.a.7.m.a.p 4 m o.@X:X6X6X2X2X",
"6X2X:X7X2X2X6X2X:X~.O c =.m.m.,.c :         , / Z.m.m.7.m.m.9.M.V.7.7.7.7.7.m.7.m.7.m.9.7.7.7.i.E %.a.7.8.s.5 4 m o.qX:X;X6X2X2X",
"3X2X6X;X2X;X6X2X:XT.O l =.m.M.i.c %         < ( Z.B.M.9.7.m.7.M.7.V.7.m.m.7.m.7.7.m.m.7.m.7.6.s.E w.,.0.m.a.r 4 m O.#X,X;X:X2X7X",
"2X2X3X6X2X2X2X2X;XT.O j =.m.m.i.c =         , ` N.m.V.4.V.7.9.7.7.7.7.7.7.7.7.9.7.7.m.9.m.7.B.s.E w.m.7.M.f.r 4 m O.qX6X2X7X2X;X",
"2X2X;X6X2X*X2X2X;XT.O l ;.m.a.i.c @         < / Z.B.V.7.m.7.9.M.7.7.7.7.7.m.7.m.7.7.m.7.V.7.m.i.E w.a.7.8.j.p 4 F z.@X2X2X3X2X2X",
"6X2X:X2X2X;X2X;X;XT.O z >.m.m.,.c @         < / B.m.m.7.0.7.9.m.7.m.m.7.7.7.7.7.7.m.7.7.V.8.6.s.E t.a.7.7.j.r 5 F v.tX2X2X6X6X3X",
"2X3X2X2X2X;X>X;X;XT.O l *.m.m.i.c -         < / Z.m.m.7.M.m.7.m.7.7.7.7.9.m.7.m.7.7.m.7.V.M.7.i.E t.<.7.V.h.6 9 Y P.eX=X2X2X;X7X",
"2X2X2X2X2X2X6X;X=XT.O l 1.m.m.,.g -         < / M.m.V.4.m.7.7.C.7.m.9.m.m.7.7.7.7.V.m.7.V.7.7.i.E %.a.8.4.f.6 q ] U.qX2X;X:X2X2X",
"2X2X2X2X2X*X2X;X;XT.O z =.7.m.i.c @     X   < ) M.m.m.8.7.m.7.V.7.7.7.7.7.7.9.m.7.m.M.7.V.8.7.s.E w.a.9.4.j.r q Y U.qX2X2X3X2X2X",
"2X6X;X6X2X;X>X;X=XT.O k =.7.m.i.c -         < ( Z.m.7.7.m.m.7.M.m.7.m.7.7.m.7.7.9.m.V.9.m.7.7.s.E w.a.9.7.j.r 5 Y U.@X6X3X;X2X2X",
"6X7X7X;X3X2X2X;X=X`.= k =.a.m.u.c @         , ` a.7.7.7.m.m.9.8.7.9.7.m.m.7.7.7.m.7.7.4.7.7.7.a.Q %.m.m.9.h.6 9 } ~.0X6X;X3X3X2X",
";X;X;X7X3X2X6X2X;X/.# k %.B.B.,.c -         , ( V.7.7.7.M.m.7.9.7.m.9.m.7.7.m.7.7.m.7.9.8.M.7.f. .t.a.m.V.h.6 q } (.0X6X2X2X2X2X",
"3X6X2X;X3X2X6X2X;X~.= j *.m.B.i.x -         4 / Z.7.9.7.m.7.9.7.7.7.7.7.7.7.7.7.7.m.V.7.7.m.m.f.R.n.f.V.m.j.r q { `.0XwX2X3X2X2X",
"2X3X6X;X;X2X3X2X2X~.$ z *.m.B.i.c -         3 / h.m.V.4.m.m.<.7.m.m.7.m.m.7.m.7.m.7.M.7.M.m.B.'.-X|.J.m.m.S.r q { `.0X=X2X2X2X2X",
"2X2X7X:X;X6X6X6X6X~.@ k @.m.m.i.c @         < / V.m.m.7.a.a.7.9.<.m.V.7.m.7.m.7.m.7.a.V.C.C.A.[.%X XF.m.m.Z.5 q  .`.0X>X2X3X2X2X",
"2X2X6X3X:X3X9X4X7X^.O v >.m.m.i.c %         3 ` j.m.V.7.m.m.7.7.V.m.7.m.m.7.7.7.7.7.m.7.7.7.Z.'.1X XF.V.m.j.r 0 .. X,X>X2X2X2X2X",
"2X2X2X2X3X7XuX9X4X^.O v =.m.m.i.c -     X . < / V.8.V.7.M.m.9.7.7.m.a.m.m.m.7.7.7.m.V.<.M.V.V.W.,X.XS.V.V.Z.r p l.%XwX6X6X2X2X2X",
"2X2X6X6X3X9XuX8X4X^.+ v >.7.m.i.c :         < / V.7.V.7.M.m.7.m.m.m.m.m.7.m.m.9.7.m.V.7.8.M.A.W.,X.XA.m.7.N.r f z.%XyX6X6X6X2X2X",
"2X2X6X6X9XiX8X8X7X^.+ l @.m.m.,.c @         3 ( V.m.m.8.M.m.m.M.m.m.m.m.V.7.m.7.7.m.A.7.M.B.C.W.+X].A.B.7.j.r p l.&X8X9X4X3X2X2X",
"3X6X9X9X9XiX6X1X4X^.+ v 1.7.M.<.c &   X X . < ( V.M.7.7.N.m.m.V.N.m.m.m.m.m.m.7.7.m.m.m.M.B.m.t.o.y.a.M.9.Z.r w l.%X7X9X9X6X;X2X",
"9X9X8X8X5XpX8X8X6X^.= c t.h.9.p.b -       X , ) A.8.M.8.4.8.8.m.m.7.7.7.m.8.m.7.M.7.8.8.5.7.Z.,.F ;.Z.M.7.9.t n b.&XuX7X7X9X9X6X",
"8X4X8X8X4XpXyXiX9X[.+ c u.7.2.p.x - X     X * ~ M.8.V.V.5.0.C.Z.C.0.V.0.C.C.C.C.4.9.9.A.0.V.j.i.H :.B.a.9.2.t f P.*X9X9X9X9X9X3X",
"8X8X8X8XiX*XyX8X8X_.$ v >.5.9.,.j - X     X o v @.1.;.-.@.;.%.$.@.;.;.;.;.;.;.@.$.$.q.w.=.w.e.#.V w.s.s.m.k.t h I.iX8X9X8X9X9X9X",
"8X8X9X8XiX5XyX4X2X[.q P k.A.Q.W.T e 8 3 8 8 8 m ^ ) | | ^ / ) | | ) | | | ) ^ ) ) ) Y ] ! ! | #.| x.L.K.D.W.G F /.4X9X8X8X9X8X9X"
};
