/* XPM */
static char *Brown1711481215_7_1711986715[] = {
/* columns rows colors chars-per-pixel */
"64 64 220 2 ",
"   c #010102",
".  c #0B0606",
"X  c #0C0807",
"o  c #050409",
"O  c #0A060A",
"+  c #0B090A",
"@  c #060807",
"#  c #150906",
"$  c #130B0B",
"%  c #12070B",
"&  c #1E1B1A",
"*  c #2A180E",
"=  c #20110E",
"-  c #261615",
";  c #291713",
":  c #271815",
">  c #2B1913",
",  c #2B1B1B",
"<  c #261919",
"1  c #351B18",
"2  c #3B261D",
"3  c #3C2A1D",
"4  c #38221B",
"5  c #2F2F2F",
"6  c #262221",
"7  c #3A2720",
"8  c #3B2922",
"9  c #3F3634",
"0  c #3E3935",
"q  c #3E3129",
"w  c #452E15",
"e  c #4A2B16",
"r  c #452E1C",
"t  c #492E19",
"y  c #453014",
"u  c #4D301B",
"i  c #47321D",
"p  c #432C22",
"a  c #4A2D2B",
"s  c #522E2E",
"d  c #443325",
"f  c #45352B",
"g  c #4B352C",
"h  c #4E3B2D",
"j  c #493528",
"k  c #5D3B23",
"l  c #54352D",
"z  c #5B352E",
"x  c #513B2E",
"c  c #5A3B2D",
"v  c #5B3624",
"b  c #413734",
"n  c #423A35",
"m  c #463D39",
"M  c #483F3A",
"N  c #553633",
"B  c #5A3430",
"V  c #523C31",
"C  c #5A3C34",
"Z  c #5C3E39",
"A  c #693E2A",
"S  c #653D35",
"D  c #6C3D34",
"F  c #653D3A",
"G  c #6A3E3A",
"H  c #713E3C",
"J  c #46403C",
"K  c #4C453D",
"L  c #544031",
"P  c #5A4133",
"I  c #5D413C",
"U  c #51493F",
"Y  c #50463D",
"T  c #65422E",
"R  c #6D472E",
"E  c #6D492F",
"W  c #674C2F",
"Q  c #744C2E",
"!  c #794E2E",
"~  c #664234",
"^  c #6B4136",
"/  c #6E4B32",
"(  c #64413A",
")  c #6C423B",
"_  c #684836",
"`  c #734D33",
"'  c #7A4F33",
"]  c #71433A",
"[  c #744938",
"{  c #765136",
"}  c #785135",
"|  c #755239",
" . c #795339",
".. c #7F5C3C",
"X. c #4D4743",
"o. c #544B42",
"O. c #5C4D44",
"+. c #5B4743",
"@. c #6C4740",
"#. c #634B45",
"$. c #644C48",
"%. c #6B4C4C",
"&. c #6B4943",
"*. c #724A44",
"=. c #675448",
"-. c #78564E",
";. c #6A5E53",
":. c #6C5B56",
">. c #725D54",
",. c #7F5D58",
"<. c #795B52",
"1. c #7E634E",
"2. c #6A6154",
"3. c #7E6159",
"4. c #7E6B5D",
"5. c #696564",
"6. c #7E6C60",
"7. c #804F2E",
"8. c #81562D",
"9. c #845533",
"0. c #8B5E3C",
"q. c #855938",
"w. c #8C613E",
"e. c #98683B",
"r. c #9F703A",
"t. c #A46B36",
"y. c #A56B3C",
"u. c #A96B3D",
"i. c #AB6C36",
"p. c #A6703E",
"a. c #885F42",
"s. c #855B42",
"d. c #815E58",
"f. c #8E6342",
"g. c #8D6649",
"h. c #9D6E44",
"j. c #986D4C",
"k. c #9D7047",
"l. c #9F724A",
"z. c #866956",
"x. c #81625C",
"c. c #826B5D",
"v. c #836656",
"b. c #9F7D5B",
"n. c #9A7456",
"m. c #A36D44",
"M. c #AA6D41",
"N. c #A76E49",
"B. c #A37145",
"V. c #AA7043",
"C. c #A37249",
"Z. c #AB764A",
"A. c #A47D5E",
"S. c #A57851",
"D. c #826D62",
"F. c #806762",
"G. c #857362",
"H. c #8F7B6B",
"J. c #897366",
"K. c #927C6D",
"L. c #937C72",
"P. c #837574",
"I. c #A5825E",
"U. c #96866F",
"Y. c #968573",
"T. c #9D897B",
"R. c #A28464",
"E. c #A68C77",
"W. c #A88C77",
"Q. c #A98D78",
"!. c #A48A75",
"~. c #A59575",
"^. c #AD9275",
"/. c #AC927B",
"(. c #A99979",
"). c #B5967E",
"_. c #B4977B",
"`. c #9C8983",
"'. c #9C8B87",
"]. c #A08480",
"[. c #AA9884",
"{. c #B49681",
"}. c #B99681",
"|. c #B59C82",
" X c #BD9D86",
".X c #B89E89",
"XX c #A09694",
"oX c #BBA386",
"OX c #BDA489",
"+X c #BAA687",
"@X c #BAA794",
"#X c #BEB096",
"$X c #C09D87",
"%X c #C1A58A",
"&X c #C2A98B",
"*X c #CCAB8B",
"=X c #C1A487",
"-X c #D4B08E",
";X c #CBAD92",
":X c #C0AC94",
">X c #D5AF95",
",X c #D9AF97",
"<X c #D5AF98",
"1X c #D8AF99",
"2X c #CDB295",
"3X c #C1B298",
"4X c #D4B295",
"5X c #D8B194",
"6X c #D5BC96",
"7X c #D9BC96",
"8X c #D4B39A",
"9X c #D9B29A",
"0X c #D6BD9B",
"qX c #DABC9A",
"wX c #D5BEA1",
"eX c #DABBA1",
"rX c #D6C097",
"tX c #D7C19A",
"yX c #D8C09B",
"uX c #D6C1A2",
/* pixels */
"0X0XqXqXuX0X7XoX2.L  .l.l.k.B.Z.C.C.l.l.B.C.C.C.C.C.C.C.C.C.C.m.C.C.B.B.B.k.k.k.h.B.B.B.B.B.Z.m.B.B.B.C.~ q U +X2X7X0XrX0XqXqX0X",
"yX0X7XqXuX0X7XoX;.h ! t.p.p.p.y.y.m.m.y.r.y.m.m.m.u.m.y.m.m.m.M.M.m.u.p.B.p.B.p.u.u.u.B.r.y.p.i.r.t.u.Z.Q p K +X*X2X6X6X0XqXyX0X",
"yX0X7XqXwX0X0XoX;.L Q y.V.N.e.9.' ' { } ' ` } ` { ` ` ` ` ' ' ` ` ' ` } } ` ` } 9.9.7.! ! 8.9.8.r.y.t.u.' j K +X&X2X0X6XqXqXyXqX",
"0XqX7X7X0X0X7XoX2.h { m.m.j.q.c p 8 2 2 8 8 8 7 2 7 7 2 7 7 7 7 8 2 3 7 3 4 2 r l A v l k T T k w.m.y.y.' g U +X&X2X0X7X0XqX0X0X",
"0X0X7XqXyX0XqXoX2.L { C.B.j._ : + o o o   o o o o     o . o o . . o     . . . - a a a a r 2 4 w ..h.m.h./ n o.oXoX2XyXrXyXqX7X0X",
"yXyXqX7XuX0X7XoX2.h ! y.y.m./ > O o O O % . . o O O . o . . . . O O o o o   % , Z G G @.) S l j w.h.m.r.` g U (._.OX0XrX0XqXqX0X",
"0XyXqXqXyX0X0X+X2.h ! p.t.B./ > o o @ @ o o o o o   . o o   o o o o o o o o % , +.@.H H G G B u w.m.u.p.` j K ~.^.%X0XyX0X0XqXyX",
"0X0XqX7XwX0XqXOX2.h { B.i.B.E ; o o     o         o o o   o       o   o   o % ; F ) G H D @.%._ f.V.u.p.' j K ~.^.=X0XrXqXqXqX0X",
"0XqX7X7XuXqXyXOX2.L { k.i.y.R * o       .                                 . # * ( ] ^ D ] x.T.[.I.N.B.h./ g K ~.^.OX0X6X0XqX7X0X",
"0X0XqX7X0XqXqXOX2.h | l.u.m.R > o                                           X - I ) ^ ) ^ 3.`.@XI.B.M.h.[ f K ~./.&X0X6X0XyXyX0X",
"0XyX7X0XuX0X0XoX2.L { l.u.m.` ; o                                           . - ( ) / ) ^ 3.`.@XI.B.m.r.` b J ~.E.oX0X0X0X7XqX0X",
"0X0X7XqXwXtX0XoX2.c { k.u.m.R ; o                                           . < F ) ^ ) D d.`.@Xb.l.y.u./ j J U.Y.oX7X0XyX6X7XyX",
"0XtX0X0XyX0X0XoX2.h | m.u.m./ ; o                                           # : F ) ) ) ^ ,.].:Xb.h.y.y.E f J U.Y.oX7X0X0X6X6XtX",
"0X0XqX7X0X0XtX+X2.h ` C.u.m.R >   o                                         O < F G ^ ) ^ ,.].OXA.B.m.y.{ f J U.Y.|.7X6XrX0X7X0X",
"qXyXrXqXwX0XyXOX2.C | m.u.m.Q ; o                                           # - Z ) G ) D -.D.K.n.h.u.y.` f m U.Y.|.7X0XtX0X6X7X",
"qXyXrXqX0XyX0XOX;.V { m.u.m.R > o                                           . - F G D ) D ) #.~ f.m.u.u./ f 0 U.H.|.0X0X0X7X7X6X",
"qXqX7XqXeX0X0X|.=.h | C.y.m./ > o                                           . < F ) ^ ) ) S N e w.B.M.M./ f b G.G.(.7XeX0X7X7XyX",
"qX0X7XqXeX0X6X|.$.N | h.y.m.R : o                                           X : F ) ^ S ^ ) N e w.m.y.y.` d 0 D.D./.0X0XeX0X7X0X",
"qX0X7XqXwX4X4X).#.g | m.u.m.R > o o                                         X < F G D ) ] G C e 0.m.u.m./ f b 4.6.Q.0XeX0X7X7X0X",
"qX0XqXqXwX0X2X{.+.l | C.u.m.Q ;                                             X < F ) ) ) ] F z e 0.M.y.M./ f b c.D./.7X8X0X0X7X0X",
"8X6XqX7X8X2X4X).#.l  .C.y.m.R * o                                           X : F ) G ( ) ( l e w.m.y.m./ f 0 c.6.E.4X8X0X0XqXqX",
"0X7X0X8X4X4X4X X1.c } m.y.h.E > o                                           X : Z G S ~ ) ) B y w.m.y.y./ f 0 c.6.~.4X8X8X0X7X0X",
"eX0X6X8X4X5X>X Xz.L { m.y.m.E ; o                                 .         . < Z ) H G ) ( B y w.m.u.u.` f 0 c.6.Q.4X4X8X8X0XeX",
"0X8X8X4X4X4X8X$Xz.c } m.y.B.E > o       o                           . .     . - Z ) D ~ ) F C y f.m.u.u./ f 0 D.6.E.5X8X4X8X9X0X",
"8X5X8X4X5X4X4XOXz.P ` m.y.p.E > o                                           X < Z S D S G G c y a.m.u.y.` f b c.6.Q.5X>X4X4X4X8X",
"8X4X>X4X4X4X4X Xz.C { m.y.k.E > o       o                                   X - Z G D G ) G z w f.m.u.t.` f b D.D.E.4X<X8X4X4X8X",
"4X>X>X4X4X4X8X Xz.P { m.y.B.R > o                                 @         X - Z ) D ) G F B w 0.N.u.t./ f b c.6.Q.4X8X4X4X4X4X",
"4X4X>X4X4X5X4X Xz.P { m.y.B.E > o                                           % - F G D ) @.F B w a.M.y.y.` f 0 c.6.E.5X4X4X4X4X4X",
"4X4X8X4X4X4X4X Xz.P { m.u.h.E > o                                       . @ $ : Z F G ^ ) G z w f.N.u.u.` f b z.4.!.>X8X8X>X>X4X",
"4X8X4X4X5X4X4X Xz.P { m.y.m.R > o o                                       . $ 6 I ) ^ H ) G z w f.N.u.u.[ f b x.c.W.4X8X4X4X9X4X",
"4X9X4X4X5X5X>X Xz.P | m.y.y.R > o       o                               o + 6 K -.&.D D G G z w f.m.u.u./ f b c.4.E.5X2X4X4X4X4X",
"4X4X4X4X4X5X4X Xz.P { m.p.k.R > o                                     o   & X.P.L.-.G D G G z e f.m.y.u./ f n D.c.E.>X8X8X4X4X4X",
"4X4X,X>X8X4X8X{.=.x { m.y.k.E > o o                                       5 5.XX'.F.@.) ( G B t 0.m.u.y.` f n 4.6.W.4X<X4X8X>X4X",
"8X4X5X4X8X4X4X{.O.x { B.p.B.E > o @                                       5 5.'.'.x.&.G ) G B e 0.N.M.M.E b b 6.4.E.4X>X2X>X5X4X",
"4X4X4X4X8X2X4X{.O.h { m.y.k.E > o                               @       o & X.:.F.<.) ) @.G B t q.m.u.M./ f 0 4.F.W.4X1X;X5X>X5X",
"4X8X4X8X8X8X4X{.O.x { B.y.h.E > o o                                 @ @ o @ $ 6 I ( ( F ) G B p s.m.M.y./ f b 4.c.!.4X1X4X5X>X2X",
"4X5X5X4X8X8X8X{.O.x { B.y.h.R * o o                             o         @ $ < Z ( G G G F S t f.M.y.y.D f n 4.4.W.4X<X4X8X>X4X",
"4X8X5X4X8X8X4X[.O.x  .B.y.B.R >                                           X $ - F G D G D D B t f.m.M.y.E f b 4.4.E.4X8X2X8X5X4X",
"4X9X5X>X8X2X4X{.O.x | B.u.k.R > o                                       @ o $ ; Z G D S ) F B t 0.M.u.y.` f n 4.c.W.4X1X8X4X5X4X",
"4X4X5X4X8X4X4X|.O.x | B.u.m.R > o                                           . ; F ] ] F ^ G z t f.N.M.y.E f b 4.4.E.4X<X8X4X5X4X",
"4X8X5X5X2X4X4X{.O.x | B.u.h./ > o                                           X - N G G S ) S z t w.m.u.y.E f 0 4.6.W.4X8X8X4X>X4X",
"4X4X>X4X8X8X8X{.O.x } m.y.m.R > o       o                               @   X : Z ) D ^ ) G B t w.m.u.y.` d n 4.D.W.4X9X8X4X5X4X",
"4X4X4X5X8X4X4X).O.h { B.y.k./ > o                                         @ + : Z ) D S ^ S z t w.M.y.m.Q f m 4.x.Q.4X9X8X4X5X>X",
"4X8X4X5X8X4X4X).#.h { B.y.B./ : o       o                                   X ; Z D D G G S z t w.M.y.C.` f n c.D.Q.5X9X4X4X4X>X",
">X4X5X5X9X4X4X|.#.x { y.y.h._ > o                                           . ; Z ^ D ] ] G z t 0.u.u.N./ f m c.D.Q.4X1X4X4X5X>X",
"4X4X4X-X8X4X4X{.#.V { B.y.m.R ; o       o                                   . - C ) D D ) G B w 0.u.u.N./ d n 4.D.W.5X>X4X4X5X4X",
",X4X4X>X8X4X5X).$.V } m.y.m./ > o       o                                   . - Z ^ S S ) ) z w a.y.u.M./ f 9 z.J.W.>X9X4X4X5X8X",
",X4X5X>X8X5X5X).$.c } B.y.C./ > o @                                         . ; Z ^ D ^ ) F z w f.m.y.m./ f b J.J.^.4X1X4X5X5X8X",
">X4X4X5X8X4X4X}.$.x  .V.t.C.` ; o                                           X ; Z G D G S S z i 0.m.y.m./ f J H.H._.9X9X4X4X>X4X",
">X4X5X>X8X4X4X_.#.x { B.y.B.R ; o                                           . - Z D A A F S l r 0.m.M.M.E f J H.K._.5X1X4X>X5X4X",
"4X4X4X5X8X4X4X{.#.h { m.y.h.E * o     @ o                                   . ; Z D A D G S B 3 a.m.M.N.Q f m K.K.{.>X1X4X4X5X4X",
"4X2X4X4X8X4X4X_.#.h { y.t.h.R - @                                           . - Z ^ S S S F N p g.N.y.m.R d m K.K.).>X1X<X4X4X4X",
"8X2X2X4X4X2X4X_.$.h  .V.u.B./ ; o                                           . ; C ^ S ^ F *.d.J.n.N.y.m./ f m K.L.{.4X1X4X4X4X4X",
"4X4X4X4X8X-X4X{.$.V  .m.u.B.R > @       o                                   X : I ^ D T ] d.Y.[.A.C.y.m.Q f K !.T.|.4X9X8X4X,X4X",
"8X4X4X5X8X-X4X}.%.N | C.y.k.Q * o o     o                                   X : I ) D A *.c.[.3XA.B.y.M.E f X.Q.!. X2X9X8X8X>X4X",
"1X>X4X4X8X4X5X}.%.N | B.y.Z.E *         o                         o         X - ( ] D T F 3.T.#XR.n.u.M.E g o.^.Q..X4X8X8X4X4X4X",
"4X4X4X4X<X4X8X.X%.N  .m.y.B.Q ;                                             X ; I ] D T ] x.T.#XR.k.y.m./ n Y _.Q.oX4X8X4X2X4X4X",
"5X4X4X4X8X8X7X.X%.g { m.t.B.Q ; o                                           X ; Z ) D S ) x.T.#XA.h.y.m./ f Y _._.OX2X8X4X4X4X4X",
"4X4X4X8X8X8X6XoX$.h { m.t.B.` > o                                 @         O : ( ) A T G <.L.|.K.m.p.V./ f U _.{.OX6X9X4X5X4X8X",
"4X8X4X8XeX0X0X|.$.L { B.t.B./ > @       o                                   X < F ] D ~ G *.=.1.j.B.y.y.W L U =X=X2X6X7X6X4X4X4X",
"4X4X6X0XeXqX0XoXo.L | B.t.B./ , o o o                                   o   X , I ( ) _ ) ( P c f.m.u.M.` h o.*X;X2X7XqX4X4X4X4X",
"4X8X6X7X0XrX7X_.+.L { B.y.B.W ; o o o o                                     X < V S ~ ~ F N j t a.m.u.M./ h o.*X2X2X7XqX6X7X7X8X",
"8X0X7X7X6XrX6X|.U f | C.p.S.W = + o @   o o @ o o o     o o   o       o @ @ @ & p l l s s a a t s.m.u.u./ f o.*X2X6XrX7XqXqXeX0X",
"eXqX7X6X6X6XrXoX+.f | Z.Z.S.T # o o o X O o o + o + O o + o + + O O O O O o @ $ > 1 1 1 1 1 1 r ^ e.M.N.W j U >X2X6XrX7XrXqXeX8X"
};
