/* XPM */
static char *Brown1711481215_4_1711986715[] = {
/* columns rows colors chars-per-pixel */
"64 64 215 2 ",
"   c #030203",
".  c #0C0605",
"X  c #040209",
"o  c #0C0609",
"O  c #0D080B",
"+  c #0E0A07",
"@  c #110807",
"#  c #110709",
"$  c #150D0C",
"%  c #190D0C",
"&  c #16100C",
"*  c #1B100C",
"=  c #150E11",
"-  c #1D0E13",
";  c #161010",
":  c #1C1513",
">  c #1D1916",
",  c #221513",
"<  c #251A19",
"1  c #27211E",
"2  c #32241C",
"3  c #39251C",
"4  c #3F291A",
"5  c #392621",
"6  c #3B2A24",
"7  c #3D2C2B",
"8  c #332824",
"9  c #282226",
"0  c #431E13",
"q  c #42271C",
"w  c #432B1D",
"e  c #46311E",
"r  c #432C22",
"t  c #4D2C24",
"y  c #482727",
"u  c #502C26",
"i  c #512C29",
"p  c #582E20",
"a  c #443126",
"s  c #493424",
"d  c #443429",
"f  c #4B362C",
"g  c #4C392C",
"h  c #4B3925",
"j  c #563323",
"k  c #5A3425",
"l  c #533D2C",
"z  c #573629",
"x  c #463434",
"c  c #563F32",
"v  c #593F32",
"b  c #643B2C",
"n  c #6C3D2E",
"m  c #603725",
"M  c #723F2A",
"N  c #633D35",
"B  c #6B3D34",
"V  c #653E39",
"C  c #6C3E39",
"Z  c #703F3A",
"A  c #58412D",
"S  c #574032",
"D  c #594233",
"F  c #5B473B",
"G  c #6D412D",
"H  c #62432F",
"J  c #74422C",
"K  c #7A472E",
"L  c #654534",
"P  c #6C4235",
"I  c #664439",
"U  c #6C423B",
"Y  c #6E4E3B",
"T  c #644939",
"R  c #734433",
"E  c #7B4F37",
"W  c #72433B",
"Q  c #754D3B",
"!  c #7B4E3C",
"~  c #784B34",
"^  c #7C5435",
"/  c #75513B",
"(  c #7C543D",
")  c #7D5B3C",
"_  c #745036",
"`  c #6F4F40",
"'  c #784E40",
"]  c #744E41",
"[  c #6A5541",
"{  c #765243",
"}  c #7B5343",
"|  c #7D5C41",
" . c #776149",
".. c #814F34",
"X. c #83553D",
"o. c #8C573D",
"O. c #835A3D",
"+. c #8C5B3D",
"@. c #805533",
"#. c #905F3F",
"$. c #935F37",
"%. c #8C613D",
"&. c #94653D",
"*. c #9A673E",
"=. c #97683B",
"-. c #9D6B3E",
";. c #966233",
":. c #A66B35",
">. c #A86B35",
",. c #A46E3E",
"<. c #A96C3C",
"1. c #AA673D",
"2. c #A4713E",
"3. c #A9703E",
"4. c #825C42",
"5. c #8C5B42",
"6. c #885743",
"7. c #915D42",
"8. c #8B6146",
"9. c #8D6348",
"0. c #8A6848",
"q. c #936443",
"w. c #9A6644",
"e. c #966A46",
"r. c #9B6B43",
"t. c #946648",
"y. c #966B4A",
"u. c #9D6D4B",
"i. c #967147",
"p. c #9D7142",
"a. c #9C714B",
"s. c #9C794F",
"d. c #8B6F5C",
"f. c #846756",
"g. c #966951",
"h. c #9E6A52",
"j. c #8C715D",
"k. c #84725E",
"l. c #947353",
"z. c #9C7353",
"x. c #93735C",
"c. c #9D7D5C",
"v. c #A46E41",
"b. c #A96E43",
"n. c #A26E4B",
"m. c #A86E49",
"M. c #A57143",
"N. c #A97244",
"B. c #A57249",
"V. c #A9724B",
"C. c #A4794C",
"Z. c #AA794B",
"A. c #A37452",
"S. c #A87651",
"D. c #A57C54",
"F. c #A97C55",
"G. c #A77B59",
"H. c #AA7D59",
"J. c #8C7562",
"K. c #8D7961",
"L. c #867467",
"P. c #917762",
"I. c #917862",
"U. c #9B7E6B",
"Y. c #997E65",
"T. c #A17E60",
"R. c #A98159",
"E. c #A5835B",
"W. c #9C826D",
"Q. c #9E896E",
"!. c #9F8564",
"~. c #9E8371",
"^. c #9E8971",
"/. c #A68565",
"(. c #A4896D",
"). c #AC8A6E",
"_. c #A88668",
"`. c #B18A6D",
"'. c #A28A73",
"]. c #A38B78",
"[. c #B38E74",
"{. c #A4937F",
"}. c #A99275",
"|. c #B49577",
" X c #AD9782",
".X c #AB9884",
"XX c #AC9B89",
"oX c #B49A84",
"OX c #BCA08B",
"+X c #BCAD9C",
"@X c #B7A697",
"#X c #BEB19E",
"$X c #BFAEA4",
"%X c #C1A58B",
"&X c #D0AD8F",
"*X c #DDB98E",
"=X c #D8B28E",
"-X c #C6AA98",
";X c #D3AF95",
":X c #CFB197",
">X c #D5B295",
",X c #D8B294",
"<X c #D6BC96",
"1X c #DABC97",
"2X c #D5B399",
"3X c #D9B699",
"4X c #D6BD9A",
"5X c #D9BC9B",
"6X c #E0BD95",
"7X c #C2B2A2",
"8X c #D2BEA1",
"9X c #D1B7A0",
"0X c #D8C09C",
"qX c #E2C093",
"wX c #D7C0A1",
/* pixels */
"4X4X4X0X5X5X6X3X4X^.+ 1 0.F.F.F.G.F.H.E.R.R.R.R.F.R.F.S.F.G.A.F.R.C.F.F.D.D.D.E.F.D.R.D.F.D.F.D.G.D.D.E.!.Q.s s j.4X0XwX5X4X4X4X",
"4X4X4X1X1X5X5X8X4XQ.  > ^ M.2.2.M.B.Z.M.2.3.3.3.>.>.:.:.:.>.>.:.:.:.>.>.:.:.:.:.:.:.1.:.:.:.M.v.<.<.:.:.:.C.w s j.4X5X8X4X0X4X4X",
"4X4X4X<X4X5X5X4X4X(.  > X.m.3.Z.h.g.8.X.O.9.q.8.&.5.q.+.+.8.&.+.%.%.%.+.+.+.+.%.+.%.5.+.O.%.8.5.O.*.,.:.2.Z.e d P.1X4X8X4X<X5X0X",
"4X5X4X4X4X5X5X5X4XQ.  < ( S.S.A.Y f 3 2 3 r i j j j j j j j j j j j j j p k j j j p j k j j j z p O.2.2.3.C.e d P.1X4X4X4X4X4X4X",
"4X4X0X4X4X5X4X4X1XQ.  > O.Z.A.z.c : o   # 1 r u t i u u u u u t i i t i t t t t t t q y y i u y 0 ~ -.2.3.C.e d I.6X4X8X<X1X4X4X",
"4X4X5X4X4X4X4X4X4XQ.  > +.N.B.l.D : X X = 7 V I C U C C V ` U C ` I U C I U ` I I U B N U Q W N 0 ^ ,.>.N.A.h d I.1X8X4X<X0X4X0X",
"4X4X0X5X1X5X5X4X4XQ.  : @.2.N.s.c $ X   $ 5 N U U U T C C U U B B C C C N C C Z C B R B X.5.5./ 4 _ r.<.N.D.w d I.1X4X4X0X4X4X4X",
"4X4X0X5X4X0X4X4X<XQ.  : %.C.N.l.l $ X   # 6 C W W W ] Z C Z C C C B B C C V B C Z W K K 7.r.r.0.T f.u.,.M.D.4 d I.1X4X4X1X1X4X<X",
"4X4X4X5X4X4X4X4X<X^.  > O.V.V.u.l -   X # y I U U W U U U U C C U B C U B N n n K X.w.w.r.v.B.c.{.{.G.v.M.z.w d I.1X4X4X4X<X4X4X",
"5X4X4X4X4X4X4X4X4X^.  > | Z.N.u.z * X X # 7 L U U U U C C C C C C C C C B R E X.+.q.N.m.v.,.B.E.+XoXH.<.B.D.r d I.1X4X4X4X4X4X4X",
"4X0X5X4X1X4X5X4X4XQ.  > | C.Z.i.l & X   + 8 V U U W C C C C Z C C C W W R ..q.v.r.v.b.v.,.2.N./.7XoXS.>.v.A.r f P.6X4X4X<X4X4X4X",
"4X4X4X4X4X<X0X5X5X'.  > | Z.V.i.g $     $ 3 b B W U C C U U W C ] C E &.$.;.-.v.m.V.b.M.M.2.C.).7X.XG.,.m.S.r d I.4X4X4X0X<X4X0X",
"4X4X5X0X<X4X4X5X5X^.X > | Z.V.a.g *     # 5 N U U U U C Z B B W W ! +.u.v.,.M.v.v.v.b.N.-.2.C.).@X XG.b.M.A.r d I.1X5X5X<X0X<X4X",
"4X4X4X4X4X3X4X5X5X^.  > ) Z.V.a.l $     # 5 N U U W W B n n M 6.g.w.u.V.M.M.2.2.M.v.,.M.M.M.B._.@XoXS.b.C.A.w d J.4X4X5X1X<X4X4X",
"4X4X4X4X<X<X4X5X4X^.  : ) V.V.a.g $   . # 7 V U P B n R X.6.+.w.V.V.B.B.M.,.M.M.M.M.v.m.B.M.M.x.f.P.n.:.C.A.r d K.4X5X5X<X<X0X4X",
"4X0X5X4X4X5X5X4X3X^.  : ) V.V.i.g $     # 5 N B W ~ J X.y.A.v.C.v.M.M.2.v.M.,.M.M.M.N.M.M.M.M.0.p } r.v.M.A.r d K.1X5X4X4X<X4X4X",
"4X4X4X0X1X5X0X4X<XQ.  : ) Z.V.u.g =     @ r b R E q.5.&.r.V.M.2.,.2.v.,.2.m.N.M.v.M.3.M.v.2.v.+.m 6.r.2.M.a.r d K.0X5X5X5X1X5X5X",
"4X4X4X0X1X5X5X3X>XW.  * ) V.V.u.g $     @ i J K +.A.V.V.M.M.2.2.2.B.m.M.B.B.m.B.B.B.2.r.V.N.a.e.B 5.r.,.-.A.w d K.1X5X8X8X1X0X5X",
"4X<X4X4X4X5X4X3X>XQ.  : ) V.V.a.g &     $ c t.r.v.V.C.M.2.M.2.2.,.v.v.v.N.m.B.M.v.M.2.M.v.v.p.&.J 7.m.2.M.A.w d J.4X5X6X1X0X4X4X",
"0X4X4X4X<X4X4X2X,XW.  : ) V.V.a.g &     * T u.C.B.B.N.M.M.2.M.M.n.v.M.B.M.,.N.M.M.M.2.M.v.v.M.&.n 7.v.2.b.S.w d J.3X9X5X1X0X4X4X",
"4X0X4X4X<X3X>X>X&XW.  : O.V.V.a.g $     % T r.V.B.M.N.M.M.M.,.B.B.M.B.M.N.,.M.M.2.M.2.B.M.r.p.e.M 7.n.,.N.V.w d J.>X2X<X<X4X4X4X",
"<X4X4X5X3X>X;X>X;XU.o : O.N.N.a.g $     $ I *.B.M.M.M.M.M.B.N.B.m.M.v.v.v.B.2.M.M.M.2.M.2.-.p.q.J 5.v.,.b.z.e 7 j.3X2X2X4X4X0X4X",
"4X4X4X<X3X>X;X:X;XY.  % ( N.M.i.g =     % I r.M.M.M.N.M.M.M.B.v.v.B.B.v.B.2.2.M.M.M.M.N.M.2.2.w.J 6.v.,.v.B.6 a j.>X:X4X4X0X0X4X",
"4X4X<X>X,X;X2X2X2X^.  : O.V.N.a.g %     $ T *.B.M.M.N.M.M.M.M.v.M.v.v.B.M.2.B.M.M.2.M.M.2.2.p.t.J 5.r.b.b.h.w d j.>X:X,X,X3X0X4X",
"4X<X>X>X;X2X,X2X2XU.X - X.b.B.a.g =     % L w.M.M.M.M.M.N.M.M.M.v.N.M.N.v.M.M.M.M.M.M.M.2.2.M.q.M 6.w.v.b.A.w d d.,X;X:X2X3X4X4X",
"4X>X>X>X;X2X,X;X;XU.X : ) V.N.r.g =     % I *.,.M.M.N.M.M.M.M.2.M.m.M.M.M.M.2.M.M.M.2.b.M.2.-.q.K 5.v.v.b.a.4 d d.=X;X>X>X3X3X<X",
"<X&X>X>X,X2X;X;X;XU.X , O.N.N.a.g $     % T =.p.2.M.M.M.M.M.M.v.M.M.M.M.2.M.M.M.M.v.v.b.,.2.v.w.M 7.v.v.v.u.r a d.,X2X2X>X>X3X2X",
"2X:X;X;X2X2X>X2X3X(.  , X.b.N.i.g $     $ T =.2.M.M.M.M.M.M.M.2.v.M.M.v.v.v.M.,.2.2.v.M.v.,.r.w.M 5.r.1.v.u.4 d j.>X;X;X>X>X>X>X",
";X;X>X3X;X;X;X2X2XT.X < 6.m.M.a.f $     $ L =.M.2.M.M.2.M.M.M.2.N.M.N.,.v.M.v.,.v.2.v.M.,.,.v.q.M 5.b.v.v.n.w 7 d.,X;X;X:X&X>X>X",
">X3X>X,X,X2X;X;X>XU.O x 5.m.M.a.s $     $ L =.2.2.M.M.M.M.M.M.v.N.N.,.M.v.,.,.M.,.v.v.M.M.,.r.q.M 7.v.v.v.A.4 d j.,X2X;X>X>X;X>X",
"2X>X2X>X,X>X>X>X>X'.# v 9.N.M.r.f $     $ T e.E.E._.H.V.v.v.v.N.M.M.M.M.,.M.N.,.2.v.M.,.2.,.v.q.M o.v.v.v.u.w d j.,X2X2X3X>X>X>X",
"2X2X>X>X2X,X,X;X2XU.O v y.B.B.r.g =     & L l.|.%XOX).S.v.,.v.B.M.M.M.M.N.v.v.v.v.v.,.M.M.2.v.7.M o.w.1.m.u.w d d.,X2X>X>X>X>X>X",
">X>X>X>X>X=X&X;X;X~.= D t.B.M.e.g $     & L !.%X:X:X[.G.M.,.M.M.2.M.M.M.,.,.M.v.v.,.2.v.3.2.-.w.G +.-.,.v.u.w d j.;X2X>X;X>X2X>X",
">X>X>X>X2X,X,X;X2X~.o D t.N.B.e.g $     $ L c.%X:X-X).A.M.2.M.a.v.M.M.M.M.v.v.v.M.v.,.M.M.2.-.w.J o.r.:.v.z.q a d.,X>X>X>X>X>X>X",
">X>X>X>X2X>X,X:X:XU.o S t.N.M.r.f =     $ T l.).|.`.H.B.,.2.M.M.M.M.2.,.,.M.M.,.,.M.,.v.2.,.r.q.J o.v.,.v.u.4 d j.,X2X2X>X>X>X>X",
">X>X>X,X>X>X,X;X:XW.o D t.N.B.r.g =     & L e.C.G.A.M.2.,.,.v.M.,.M.v.M.M.v.v.v.v.v.M.2.M.2.,.t.J o.v.,.m.u.w d d.,X2X>X>X>X>X>X",
">X>X>X>X>X>X,X;X;X~.X S t.N.B.e.g $     & L &.p.B.,.,.2.3.3.N.m.M.M.v.2.,.v.v.v.v.v.M.M.2.,.-.q.J #.v.,.v.u.4 d d.,X2X2X>X>X>X>X",
">X>X>X>X>X>X,X;X;XW.o S t.N.M.r.x -     & L =.2.v.,.,.,.2.2.N.m.2.M.M.M.v.M.,.M.,.v.M.2.2.,.,.q.J o.r.<.v.u.w d d.,X2X2X2X>X>X>X",
">X>X>X>X>X,X,X;X>XW.o S t.B.M.r.g $     & L =.M.,.v.v.v.M.M.M.M.M.M.M.M.,.N.v.M.v.M.M.2.,.,.-.q.J o.v.,.b.a.r d d.,X2X2X,X,X2X2X",
"3X3X>X>X>X>X;X;X>XW.O S e.B.B.e.g %     & L =.1.b.v.V.N.p.M.M.M.M.M.M.M.v.M.v.,.v.,.M.v.v.2.,.q.J $.w.,.b.u.w d d.,X2X2X;X2X;X2X",
"3X3X>X2X2X>X,X;X:XW.. S q.B.M.e.g =     & L *.,.M.v.M.M.M.M.M.2.2.M.M.2.v.,.M.2.v.,.M.,.,.2.r.7.J o.r.,.v.u.r d d.;X2X;X2X>X2X>X",
">X>X>X>X2X>X,X;X>XW.. S q.M.m.e.g *     = L w.,.v.M.M.M.M.M.M.M.v.v.v.v.v.,.v.b.v.M.M.M.b.2.,.q.J +.r.,.b.n.q a x.,X:X;X>X>X>X>X",
">X>X>X>X>X,X,X;X&XW.. S q.M.M.r.s &     $ L *.,.v.M.M.v.M.M.M.,.v.M.v.v.v.N.v.,.M.v.M.,.,.2.,.q.J 5.v.1.v.n.w a d.,X;X>X>X,X>X2X",
">X2X2X>X2X,X;X;X>XW.. S q.B.B.e.g $     $ L *.,.2.B.M.v.M.M.M.M.v.v.,.M.v.v.M.v.,.,.M.M.v.,.-.q.J o.w.v.v.n.q r d.2X2X>X>X;X>X>X",
">X>X>X>X2X>X,X:X>XW.. S q.M.B.y.g $     = L *.,.M.M.M.M.M.M.M.,.,.N.M.v.N.,.,.N.M.v.M.,.v.2.-.q.J o.v.v.v.u.q d d.>X2X;X>X2X>X2X",
">X>X>X2X2X>X;X;X&XW.. S q.M.m.r.h $   X = L w.,.2.M.M.M.M.M.M.M.,.v.,.v.v.v.v.v.v.v.N.v.,.2.v.q.M 7.w.v.v.u.q y d.;X2X>X>X>X>X,X",
">X2X>X>X3X>X,X;X>XW.o S q.M.v.e.f @     $ H =.,.M.M.M.M.M.M.M.v.v.v.v.v.v.b.2.M.M.M.M.,.,.,.-.&.M 5.v.,.v.n.w r d.;X2X2X2X;X>X>X",
">X>X2X>X2X,X,X;X:XW.o A t.M.B.e.h $     = H *.,.2.M.M.M.M.M.M.,.M.v.N.,.M.,.v.v.,.v.,.v.v.2.-.8.M #.w.v.v.n.q d d.;X>X;X;X;X>X>X",
",X,X2X2X2X>X>X;X;XW.o S q.B.v.r.f *     = T *.,.2.M.M.M.M.M.2.M.M.v.,.N.v.M.v.M.,.v.M.,.,.2.r.q.M 6.b.1.v.n.w a d.;X2X2X>X>X>X>X",
"2X2X2X,X2X>X>X;X;XW.. v q.B.V.r.g $     % L w.,.v.M.M.M.M.M.M.v.v.v.v.v.,.,.b.,.v.M.v.v.p.,.v.7.J 7.r.v.v.h.w a d.,X2X3X>X>X>X>X",
">X>X>X;X2X>X>X;X;XW.o v q.M.B.e.f =     ; L *.,.2.M.B.M.M.M.M.M.v.,.v.,.M.v.v.M.M.v.M.p.,.,.v.7.P +.,.:.n.u.w d d.,X3X>X>X>X>X>X",
">X>X,X2X2X>X>X:X;XW.# v q.B.M.r.f =   X & T w.,.,.2.M.M.M.M.M.M.N.N.N.,.M.v.M.,.,.v.v.M.v.b.v.q.Y O.*.>.v.z.w r d.=X2X>X>X>X>X>X",
">X>X>X2X2X>X=X:X2X~.O v q.B.v.r.g =     $ L &.,.,.M.M.2.M.M.,.v.,.v.v.v.M.v.,.b.v.,.b.v.v.b.v.z.d.d.-.:.C.s.w d j.>X:X2X>X>X>X>X",
";X2X,X,X>X>X>X>X2X].# S t.V.B.e.f $     $ L *.M.,.2.M.M.M.2.M.2.v.,.,.v.v.,.M.v.M.b.b.v.,.,.V./.@X}.s.2.n.B.6 d d.>X:X2X>X>X>X2X",
"2X,X>X3X2X>X=X:X2X^.O S q.V.M.r.f =     + D *.,.M.M.M.2.2.M.M.M.,.,.,.v.,.v.v.2.M.v.1.N.M.M.C._.#X{.s.2.V.A.r d j.=X:X2X>X>X>X>X",
">X>X2X2X3X>X<X>X4X^.o S t.n.v.r.g $     & L &.,.,.2.M.M.2.M.2.M.M.,.N.M.v.N.M.v.M.M.1.N.p.2.C.(.+X{.R.:.v.z.w d J.<X2X2X>X;X2X>X",
">X>X>X2X2X<X0X:X2X^.o S 9.B.2.r.f $     $ L =.v.2.v.M.2.,.v.2.,.M.b.M.b.v.v.M.,.v.v.,.M.a.2.B._.+X Xs.:.,.s.6 h J.1X9X3X2X>X>X>X",
"2X>X>X3X4X<X<X4X4X^.o S q.M.2.e.f $     & T r.M.,.M.M.v.v.,.M.v.M.,.M.v.,.v.,.,.,.v.v.M.p.2.C./.+X XG.,.,.s.w 7 J.1X8X3X>X>X>X>X",
";X>X>X<X4X<X0X<X4X^.X S 8.M.2.&.f $     & T w.v.M.M.B.2.v.M.v.v.M.m.v.v.v.v.m.v.v.v.V.v.*.,.M.Y.XX].D.:.,.m.w h I.5X8X3X4X3X>X>X",
">X>X:X4X2X<X4X4X4X^.o S &.,.2.=.f #     & T w.v.u.M.B.v.v.M.M.M.v.v.M.v.v.v.B.M.N.v.1.m.M.N.v.0.F  .i.2.,.B.w d K.1X5X5X4X4X>X>X",
">X4X4X3X<XqX4X4X3X'.O S %.2.2.0.h &     % L -.2.,.v.,.v.,.,.v.1.,.v.,.v.,.,.,.v.v.,.:.,.,.1.r.8.m O.r.>.<.C.w g L.8X0X<X3X3X1X4X",
"4X4X5X5X0X*XwX4X1X'.o S =.2.2.i.s +     % D e.a.V.M.M.V.V.C.b.V.B.B.B.V.V.V.n.B.V.B.r.V.m.V.B.9.n +.v.:.2.z.q 6 L.4X4X1X0X0X4X3X",
"4X4X5X0X<X*XwX4X<X(.. A *.3.M.y.s $   X $ x } 8.9.9.5.5.6.5.5.+.6.5.5.5.5.5.5.5.5.5.O.5.5.+.+.( n 6.v.,.2.s.w 6 k.8X5X1X5X5X3X4X",
"4X0X5X5X<X1XwX<X<X}.8 [ C.F.F.s.T 6 < 1 8 F ` { { { { { ] Y { { } } ! } ' ' Q ] ' Q _ / Q _ _ Q Q g.A.V.Z.c.A D U.4X1X4X4X5X1X4X"
};
