/* XPM */
static char *Brown1711481215_8_1711986715[] = {
/* columns rows colors chars-per-pixel */
"64 64 215 2 ",
"   c #030203",
".  c #090504",
"X  c #040806",
"o  c #0B0806",
"O  c #060509",
"+  c #09060A",
"@  c #060909",
"#  c #0C0B0D",
"$  c #130C07",
"%  c #190C07",
"&  c #150C0A",
"*  c #190E0B",
"=  c #0C110D",
"-  c #17100A",
";  c #1A110C",
":  c #0E0B11",
">  c #120C11",
",  c #121114",
"<  c #1E1412",
"1  c #181319",
"2  c #21130E",
"3  c #221413",
"4  c #251918",
"5  c #371E14",
"6  c #3B251E",
"7  c #392319",
"8  c #221D21",
"9  c #3C1E20",
"0  c #392720",
"q  c #3C2921",
"w  c #372623",
"e  c #3E342B",
"r  c #44251E",
"t  c #432C1E",
"y  c #432117",
"u  c #432521",
"i  c #442D23",
"p  c #492D27",
"a  c #412628",
"s  c #452D2A",
"d  c #4A2E2A",
"f  c #482529",
"g  c #43322B",
"h  c #4A322B",
"j  c #483528",
"k  c #5A332C",
"l  c #593727",
"z  c #4E3E35",
"x  c #413839",
"c  c #503E36",
"v  c #5E3934",
"b  c #5D3B39",
"n  c #5B3534",
"m  c #653D2E",
"M  c #6A3B2F",
"N  c #663B34",
"B  c #6A3C34",
"V  c #653E3A",
"C  c #6B3F39",
"Z  c #5E432D",
"A  c #4C4034",
"S  c #524135",
"D  c #5C4236",
"F  c #524139",
"G  c #5C493D",
"H  c #65452D",
"J  c #6C432C",
"K  c #6D482D",
"L  c #63482D",
"P  c #654632",
"I  c #6A4334",
"U  c #654934",
"Y  c #694A34",
"T  c #63423C",
"R  c #6B423A",
"E  c #6B4A3B",
"W  c #674A38",
"Q  c #734E34",
"!  c #7A4E34",
"~  c #734938",
"^  c #6A5039",
"/  c #74523A",
"(  c #795239",
")  c #5E4B41",
"_  c #50464E",
"`  c #644441",
"'  c #6C4542",
"]  c #614E42",
"[  c #6C4A42",
"{  c #734E49",
"}  c #704E42",
"|  c #675547",
" . c #6A5649",
".. c #6C594B",
"X. c #685546",
"o. c #745E4E",
"O. c #75524D",
"+. c #7A5D53",
"@. c #7F5A59",
"#. c #705953",
"$. c #685A59",
"%. c #75614E",
"&. c #7C634E",
"*. c #776151",
"=. c #7C6455",
"-. c #7E6A54",
";. c #7D6058",
":. c #645E60",
">. c #7A6966",
",. c #6C6368",
"<. c #845334",
"1. c #8E5E37",
"2. c #8E5E3A",
"3. c #815238",
"4. c #925E37",
"5. c #915E3A",
"6. c #8D6039",
"7. c #93623D",
"8. c #9E6B3D",
"9. c #9F6438",
"0. c #AC6C36",
"q. c #A36C3E",
"w. c #AA6B3C",
"e. c #A76835",
"r. c #825C44",
"t. c #8A6347",
"y. c #936442",
"u. c #986341",
"i. c #9C6E45",
"p. c #9E6E4A",
"a. c #956B44",
"s. c #977047",
"d. c #9C7046",
"f. c #967149",
"g. c #9C714A",
"h. c #826652",
"j. c #836954",
"k. c #836C5D",
"l. c #83685C",
"z. c #986C58",
"x. c #9B7454",
"c. c #91755F",
"v. c #A36E42",
"b. c #A96E43",
"n. c #A26E4A",
"m. c #AC6D49",
"M. c #A37044",
"N. c #AA7244",
"B. c #A1714B",
"V. c #A8744B",
"C. c #A47A55",
"Z. c #A47D58",
"A. c #A07250",
"S. c #866E67",
"D. c #8C7563",
"F. c #85746D",
"G. c #917664",
"H. c #947C64",
"J. c #977D69",
"K. c #887672",
"L. c #A8805B",
"P. c #97826B",
"I. c #9A836B",
"U. c #9E896E",
"Y. c #998167",
"T. c #9F8971",
"R. c #A58261",
"E. c #A88361",
"W. c #A28B6C",
"Q. c #A68B75",
"!. c #A98D75",
"~. c #AA9376",
"^. c #A69379",
"/. c #AA9379",
"(. c #AE997D",
"). c #A49077",
"_. c #B1977C",
"`. c #B1997C",
"'. c #978A89",
"]. c #AE9683",
"[. c #AE9B82",
"{. c #A49182",
"}. c #B49D81",
"|. c #B29680",
" X c #AFA083",
".X c #BBA484",
"XX c #BEA78A",
"oX c #B4A289",
"OX c #BBA694",
"+X c #BCAB92",
"@X c #B5A491",
"#X c #C0A686",
"$X c #C4A68E",
"%X c #C9A68C",
"&X c #C4AB8B",
"*X c #CAA98D",
"=X c #C3AB85",
"-X c #D3AF8F",
";X c #C5AC90",
":X c #CCAC92",
">X c #C7A591",
",X c #D3AF94",
"<X c #D9AF99",
"1X c #CDB493",
"2X c #D5B296",
"3X c #D8B196",
"4X c #D4BB96",
"5X c #D8BD96",
"6X c #D4B399",
"7X c #D9B59A",
"8X c #D6BC9A",
"9X c #D9BC9C",
"0X c #DCBEA0",
"qX c #D9C09D",
"wX c #D7C097",
/* pixels */
"9X5X4X9X8X8X1XT.e j L.x.f.M.g.x.g.B.B.p.x.p.d.d.d.d.d.d.d.d.d.d.n.p.M.B.g.g.g.A.A.B.p.n.p.p.d.B.B.g.z.x.^ ; &.`.4X=X4X8X8X9X9X8X",
"9X5X4X0XqXwX1X).e q g.q.0.0.w.g.M.q.v.q.q.v.v.v.v.v.v.v.v.v.v.v.v.v.M.q.M.q.v.v.v.b.v.b.q.8.q.w.q.e.m.V.K 2 -.`.&X=X4X8X8X8X8X9X",
"9X8X4X0X9X8X4X~.g t f.M.w.q.7.( ( ( ! Q Q ( Q Q Q Q Q Q Q Q Q Q / / Q Y Q Y ~ Q ( ( <.<.<.<.<.4.9.w.w.M.K ; j.(.;X=X4X4X8X8X8X8X",
"9X0X4X0X8X5X4X/.j t f.B.v.u.( j q 6 6 q q q 6 w 0 0 0 6 w 6 w w w q q 6 6 6 w 6 i k l l l l l ! u.n.q.n.D < j.`.=X=X4XqX8X9X8X8X",
"0X9X8X0X4X8X4X/.h t d.M.v.7.H *     .   . . . . X . . . . . . . o . . . o o . o ; 5 r r t t 9 m 2.p.M.g.W , -./..XXX8XqXqX0X8X9X",
"0X9X8X0X4X4X1X(.h t f.q.q.7.U * O # > : > : : : : # : : : : : : : > $ # # # # & 4 f v v N D f I 2.v.0.q.D < %.T.(.[.1X8X8X8X8X9X",
"8X8X9XqX8X4X1X/.j t d.q.w.7.Y * @ + + + + + + . + + + + + + + + + @ + + O . O o 3 d V V R T f R y.v.e.n.K * ..I.^.~.4XqX8X8X8X8X",
"9X8X8X0X8X4X4X^.j t f.N.w.7.U $   O                                         X   3 p N C ' ] ` r.a.m.w.n.U * ..P.).~.1XqX8X8XqX9X",
"8X8X8X0XqXwX1X(.g t d.M.q.5.P $ . O     . .                           .     O   < d C B E =.].!.C.i.b.v.L ; ..U.~.~.4X9XqX8X8X9X",
"9X8X8X8XwXwX1X^.g t f.d.v.7.U $                                                 3 d B B R o.OX}.Z.p.m.n.H < ..P.^._.1X8XqX9X4X8X",
"4X9X4X0X4XwX1X~.g t f.M.i.7.U -                                             O   3 d C B R +.OX}.E.v.n.g.L * | D.U.W.1X8X0X9X8X8X",
"8X5XwX8XqX4X1X~.g t d.d.v.7.P * O                                           O   3 d B m T @.@X].Z.0.n.f.L * ^ D.Y.Y.&X5X8X9X8X8X",
"8X8XwX9X8X8X1X^.j t a.v.q.7.P * O     O                                     O O 3 h B m I @.OX^.C.w.m.g.H % ] D.I.U.1X4X9X8X4X8X",
"9X5X5X9X9X5X1X^.j t s.v.b.7.P - . .   O                                         3 p B m R @.@X~.C.w.n.p.H % F k.H.H.;X8X8X5X9X9X",
"8X8X8X9X5X4X1X~.g t d.v.v.7.P - O                                             O < j N m R O.F.D.p.w.v.i.H * G S.J.P.1X9X8X8X8X9X",
"9X8X9X9X8X4X1X!.j t f.v.v.7.L $                                               O < p B M N V D / 7.w.v.p.L - ) -.H.P.1XqXqX8X8X9X",
"8X5X9X0X9X8X:X!.g t i.M.v.7.P -   X                                         O   < p M B C v 7 H 6.v.V.B.H % h ..-.j.&XqX8X5XqXqX",
"8X5X9X0X6X4X*X^.h t p.v.M.6.P -   X   O                                     O   < p B M C V t J 6.v.v.i.H o z | *.j.+X8XqX8X5X8X",
"8X9XqX9X4X4X*X~.g t f.v.v.7.P $   .   O                                     O   < p B M B V q J 5.v.b.i.H $ z  .*.j.;XqXqX5X4X4X",
"4X9XqX0X6X2X*X!.g t f.M.b.7.P * .                                           O   < p B B R V 6 J 2.v.v.n.P & c o.=.-.1XwX8X8X4X8X",
"8X8X9X0X9X2X&XQ.g t s.v.v.7.P *       O                         O               < d N B B R q J 7.v.v.i.H # c  .%.-..X4X8X8X8XqX",
"9X9X9X6X6X,X%XQ.e t p.v.M.7.P -                                 O O         O   < i N M I R r J 4.i.v.p.I % c  .o.h.$X6X4X2X9X9X",
"qX9X9X6X2X,X%XQ.e i p.v.v.7.U ; . O                                       O     < i N B R C r J 1.v.v.B.I $ z  .+.h.$X6X2X2X4X9X",
"9X9X3X6X2X,X%XQ.g q p.v.v.u.U -   O                                   X         < p N B R B f J 1.q.v.n.H # z  .*.h.$X2X2X2X7X3X",
"6X2X2X1X,X,X%XQ.g t i.v.v.7.U -   O X                             O     X       3 d N B B C u J 6.v.v.n.P $ z ..*.j.$X6X6X,X2X2X",
"6X2X6X6X<X,X%X!.e i i.v.v.y.U -                                   +       X     3 d N B B V r J 7.v.v.v.P $ A ..*.j.$X,X,X2X-X2X",
"2X2X2X1X<X,X%XQ.e t p.v.q.7.U *                                     .           3 d B B C V u J 6.q.8.n.H $ z | *.j.$X6X2X2X2X2X",
"2X,X,X6X,X,X%XQ.g r p.p.i.y.U -                                     . X     O O 3 p V N C V u J 7.M.v.n.U $ A ..+.h.;X6X2X2X2X2X",
"6X2X2X6X6X6X%XQ.e i p.v.v.y.U *   O                             . o       + : . < a N I C C u J 6.q.q.B.H $ A ..%.h.$X6X2X2X2X2X",
"3X-X2X6X2X,X%XQ.e t p.v.n.5.U - .     O                         X         . O . 3 s R N C C u J 1.q.v.M.U $ A X.%.h.$X6X2X2X6X2X",
"2X3X2X2X2X2X%XQ.e t p.n.v.u.U -   O                                     . .   8 x ) } R C V u J 6.8.v.n.H $ S ..*.h.$X6X2X2X2X2X",
"3X2X3X6X7X,X%XQ.g t p.v.v.7.U *   O                                       . > _ >.F.@.' C V u J 2.q.v.M.K $ c  .*.h.$X2X2X2X7X2X",
"6X2X6X6X2X,X%XQ.e i g.v.M.7.P - O                                         @ > ,.'.'.K.{ ' ` 0 M 4.q.M.n.P o c X.o.j.$X2X2X2X2X2X",
"3X2X2X6X2X2X%XQ.e q n.M.v.7.P * .                                         . , :.'.'.S.{ ' V r J 6.w.v.B.P % c  .+.h.$X6X6X3X2X2X",
"2X7X2X6X2X2X%XQ.e t g.v.v.7.L * O                                           + e $.>.#.} ' T 0 J 4.q.q.p.P o z | o.j.%X2X2X2X,X2X",
"2X3X3X6X2X-X%XQ.e i B.v.b.7.U -                                       . @ O   # 4 h V B R V u M 4.v.q.g.I % z  .o.h.$X6X2X2X2X2X",
"2X<X2X6X6X2X%XQ.e i g.M.b.7.U - .     O                                 X   O   3 p B C T T u J 7.q.M.M.P $ c  .o.j.$X6X3X2X2X2X",
"2X3X,X6X2X2X%XQ.e t M.M.q.7.U -                                     O O X   X   2 p B C C V u J 7.q.v.g.P & z  .o.j.$X2X2X2X2X2X",
"2X,X2X6X2X,X%XQ.g t g.M.M.7.U -   O               X                 +           2 f B B R V u J 5.v.v.d.P & z  .&.h.$X2X2X2X2X2X",
"2X6X6X6X2X2X%XQ.e i p.v.q.7.P -       O                                     X X 3 f C B C T u I 5.v.i.g.P $ c X.o.j.$X2X2X2X2X2X",
"2X2X,X6X6X,X%XQ.e t n.M.v.u.U ; O     O                                 O   O   3 d N M R I u J 7.v.v.A.P & z  .+.h.$X6X2X2X2X2X",
"6X2X6X6X6X,X%XQ.e t p.v.v.7.U ;   .   O                                         3 d B M R b u J 2.v.i.g.P & z  .%.j.$X2X2X2X2X2X",
"3X2X2X6X2X2X*X!.g t p.M.b.7.U * O     O                                         3 f B M C R u J 2.v.i.n.P # c  .o.j.$X2X2X2X2X2X",
"2X3X2X6X<X3X%X!.g t g.M.v.7.Y -   O                                         O   < f M N C ` q M 2.v.v.p.I % c ..*.j.>X6X2X3X2X2X",
"2X2X6X6X3X3X%XQ.s t d.v.v.7.U &   O                                         O   < i M B B b 6 J 5.b.N.n.I $ c ..&.h.>X2X2X2X2X2X",
"3X3X6X:X3X,X%X!.g t g.v.v.y.U *   O                         X       X       O   < d B C R T 6 K 4.v.v.n.P $ F  .o.=.*X6X2X2X2X2X",
"2X7X2X6X3X,X%XQ.g t g.M.q.7.W *                                               O < d B B C R 7 J 4.q.8.p.Y * F ..o.h.$X3X2X2X,X2X",
"2X<X6X6X3X2X*X!.g t g.M.q.7.U *             .                                   < d B B R R q J 4.q.i.B.U $ F o.=.j.$X2X2X2X2X2X",
"2X3X2X6X<X3X*XQ.g t g.v.q.7.Y *       O                                     O   3 j B M E T i J 7.b.v.M.H $ ) =.S.c.*X2X2X2X2X2X",
"<X2X6X6X3X-X*XQ.p t f.v.v.7.U - . O O                                       O O < p N M R T 6 J 5.b.v.p.P * ) =.D.H.*X2X,X2X2X2X",
",X2X6X6X3X-X%XQ.g t p.v.v.7.U ;                                                 < p N M R R q I 5.v.v.g.P ; W S.G.H.*X3X2X2X2X,X",
"7X,X6X6X<X3X*XQ.g t p.M.M.y.U -     O O                                     O   < p B B R T d Y y.v.n.n.P $ ) k.G.H.*X2X2X,X3X6X",
",X7X6X6X<X,X%XQ.g t g.M.q.7.^ -   O   O     O               X       X           < p B M R  .>.z.p.v.n.v.N & ) k.G.G.%X2X3X-X2X2X",
",X2X2X7X3X,X%XQ.g t f.M.w.7.U -           X                               + O   < j B m R +.{.Q.C.v.n.n.J * | D.J.W.>X6X2X2X,X,X",
"2X2X3X<X7X1X%XQ.h i f.d.d.7.^ -   O                           .           + .   < g I N E S.+X}.Z.b.b.n.I ; ..I.Q.!.:X,X2X2X2X2X",
"7X2X2X7X3X2X%XW.g i s.i.q.y.U -     O                           X   X       O . ; p N I [ S.+X XJ.m.w.v.J * ..P.Q.!.:X6X3X2X2X2X",
",X6X,X<X2X2X*XQ.g t f.v.q.7.Y ;                 X                   . X         3 d B m W l.+X XR.q.M.B.L - ..U.!.!.:X6X3X2X2X2X",
"7X,X6X<X2X2X:XQ.h t d.v.q.7.Y *       X                             X X     .   3 d B B R +.;X`.L.q.q.B.L $ %.P.~./.1X6X2X2X2X6X",
"6X2X6X7X6X2X1X~.h i g.q.q.7.Y - .                                       O       3 d B B E +./.!.L.M.8.M.K ; %.U.`.`.1X6X6X2X6X7X",
",X2X6X7X4X5X6X/.g p d.M.b.8.Y -   .                   X         .       O       3 d N v C { +.h.a.N.q.v.U < -.(.XX.X6X9X4X2X,X,X",
",X2X2X9X8X4X1X).g i f.q.q.7.Y * o @                         X X   . X           4 h V V ' ' l / y.N.q.B.L ; h.(.XX.X4XwX9X3X2X6X",
"6X2X2X7X4X4X1XQ.e i g.d.q.7.Y * # @ o         O           X           X X . O   < s n k b b 7 Y y.v.q.M.U < -.`.&X.X4X8X5X9X4X8X",
"2X6X5X9X8XwX1X).e i x.V.M.7.U ; # , @ O   O @ O @       O O . @ + + @ o X + # . ; w d f f d 5 H t.q.8.s.U 3 -.(.;XXX4XwX5X8X9X6X",
"4X4X9X0X8XwX1X^.g j L.V.N.a.^ - , , : : # : , : : : : : : = # # : : = @ # # 1 O o 3 6 u a a 7 S 6.M.d.7.Z 4 &.[.&X&X4XwX4XwX9X9X"
};
