/* XPM */
static char *Brown1711481215_6_1711986715[] = {
/* columns rows colors chars-per-pixel */
"64 64 219 2 ",
"   c #020102",
".  c #0A0304",
"X  c #050509",
"o  c #0A050B",
"O  c #090A0D",
"+  c #080A09",
"@  c #140604",
"#  c #140906",
"$  c #1A0A05",
"%  c #150A09",
"&  c #140708",
"*  c #141214",
"=  c #3A1D0D",
"-  c #271911",
";  c #2A1B14",
":  c #2B1B17",
">  c #3C1E13",
",  c #3A1C17",
"<  c #29211E",
"1  c #3B2114",
"2  c #312019",
"3  c #2C2C2A",
"4  c #3D2724",
"5  c #401F0E",
"6  c #401F1A",
"7  c #42230F",
"8  c #44231C",
"9  c #452718",
"0  c #452C26",
"q  c #492A26",
"w  c #4C2C29",
"e  c #472527",
"r  c #463426",
"t  c #4C3325",
"y  c #46352A",
"u  c #49352B",
"i  c #44382C",
"p  c #4C3A2C",
"a  c #4A3822",
"s  c #54352D",
"d  c #533C2E",
"f  c #463633",
"g  c #493633",
"h  c #463A33",
"j  c #493B35",
"k  c #493C39",
"l  c #473B3B",
"z  c #533532",
"x  c #533935",
"c  c #593D33",
"v  c #5E3D38",
"b  c #663D2E",
"n  c #6A3D2E",
"m  c #663D27",
"M  c #653D34",
"N  c #6A3D36",
"B  c #643C39",
"V  c #6B3E39",
"C  c #613738",
"Z  c #5D432D",
"A  c #4C4137",
"S  c #4E4138",
"D  c #5B4235",
"F  c #534239",
"G  c #65422E",
"H  c #69442D",
"J  c #6B482E",
"K  c #644529",
"L  c #7C512F",
"P  c #644432",
"I  c #6A4332",
"U  c #694C34",
"Y  c #66413A",
"T  c #6B413C",
"R  c #62493B",
"E  c #684C36",
"W  c #71433A",
"Q  c #6B523E",
"!  c #765136",
"~  c #795335",
"^  c #76533B",
"/  c #7A5339",
"(  c #7C593B",
")  c #4F4D4E",
"_  c #524D4E",
"`  c #5C4C4A",
"'  c #5F4B44",
"]  c #5E5047",
"[  c #554E51",
"{  c #5A5552",
"}  c #6B4541",
"|  c #654B42",
" . c #6A4F46",
".. c #754F48",
"X. c #734341",
"o. c #645145",
"O. c #6A5147",
"+. c #68554D",
"@. c #74544A",
"#. c #78564F",
"$. c #75594E",
"%. c #7A5C47",
"&. c #6B5754",
"*. c #685B55",
"=. c #6B5F59",
"-. c #655C56",
";. c #755953",
":. c #7B5B54",
">. c #795A55",
",. c #7B604D",
"<. c #6D6256",
"1. c #6D645C",
"2. c #73655A",
"3. c #79695D",
"4. c #776558",
"5. c #796D67",
"6. c #7A6E69",
"7. c #7B6760",
"8. c #7F7472",
"9. c #835636",
"0. c #845935",
"q. c #835639",
"w. c #83593A",
"e. c #8D5D3C",
"r. c #8A5B37",
"t. c #8E623B",
"y. c #8F6437",
"u. c #90653A",
"i. c #9E6D3C",
"p. c #9D653A",
"a. c #AE672F",
"s. c #AB6B33",
"d. c #A46D3E",
"f. c #A86C3C",
"g. c #A26A37",
"h. c #A2713D",
"j. c #A9713F",
"k. c #855D41",
"l. c #8B6342",
"z. c #856445",
"x. c #926442",
"c. c #9E6E44",
"v. c #996A47",
"b. c #9F7144",
"n. c #9F7248",
"m. c #896D5B",
"M. c #856954",
"N. c #997458",
"B. c #A56742",
"V. c #A36C44",
"C. c #A96F42",
"Z. c #A36E4A",
"A. c #A37144",
"S. c #A37149",
"D. c #AB7342",
"F. c #A37657",
"G. c #836D64",
"H. c #877466",
"J. c #967966",
"K. c #8C7C79",
"L. c #917E78",
"P. c #A57E61",
"I. c #AB825E",
"U. c #A4825C",
"Y. c #B0855E",
"T. c #998277",
"R. c #9A846D",
"E. c #A98361",
"W. c #A68266",
"Q. c #B08260",
"!. c #B9977B",
"~. c #AF8E74",
"^. c #C09D7D",
"/. c #C3A27F",
"(. c #9C8783",
"). c #9E8B88",
"_. c #AD9983",
"`. c #AA998B",
"'. c #BC9E85",
"]. c #B29A87",
"[. c #AC9897",
"{. c #BEA183",
"}. c #B2A18D",
"|. c #BEA289",
" X c #BEA98F",
".X c #B6A396",
"XX c #B3A79F",
"oX c #BAA69B",
"OX c #B5A9A1",
"+X c #C19E88",
"@X c #C09D87",
"#X c #C2A284",
"$X c #C5AA86",
"%X c #C4A58B",
"&X c #C8A68B",
"*X c #C3AA8B",
"=X c #CCAA88",
"-X c #D2AC8E",
";X c #CBB48D",
":X c #D3B38F",
">X c #C2A792",
",X c #C9AA91",
"<X c #C3AE91",
"1X c #D4AE93",
"2X c #D8AF93",
"3X c #CDB795",
"4X c #D5B295",
"5X c #D8B195",
"6X c #D6BB96",
"7X c #DABC96",
"8X c #D5B399",
"9X c #D9B399",
"0X c #D6BD9A",
"qX c #D9BC9B",
"wX c #DABDA1",
"eX c #D5BDA1",
"rX c #D5C09B",
"tX c #DCC19D",
"yX c #D7C0A1",
/* pixels */
"0X0X0XqXqXrX7X*Xo.4 D w.0.0.w.k.k.9.0.q.( 0.w.0.w.w.w.q.q.q.q.~ 0.w.0.w.w.9.q.9.9.0.q.9.0.0.( w.q.9.q.( Z A 1.:X6XrX7X6X7X0X0XqX",
"0X0XrXtXqX0X0X*XF j / A.s.s.V.S.S.S.Z.A.A.b.S.Z.Z.S.c.n.V.V.V.V.b.d.b.A.A.h.A.A.h.V.A.A.A.A.A.Z.V.f.C.Z.D A 2.6X6X7X0X6X0XqXqXrX",
"0X0X0XtX0X0XrX*Xp t L g.s.a.p.t.k.x.l.z.l.l.l.k.l.l.z.t.x.x.t.t.y.y.y.y.y.y.y.u.t.y.x.u.u.x.x.v.B.f.f.Z.P A 3.7X0X0X0X0XqXeX0X0X",
"qX0XqXqX0XrXrX|.p t L d.C.v.J 1 $ @ & @ & & @ @ # $ . $ = 6 1 1 > = = = = = = = = = > = 5 7 9 J e.h.b.n.Z j 3.7X0X0X0XrXqX0X0XwX",
"0X0X7X7XqXyX0X Xj u / S.V.Z.P : . O O O O % O O o . X % 0 x c c z z z s z z z s s z s s s q > K e.i.A.A.P S 4.=X6X0XqX0X7XqX0X0X",
"0X0X7X7X0XtX0X Xj p ( b.f.Z.J ;   + O X O . O + +   . $ g V V B Y B N M Y M V Y Y Y B V Y v , b e.Z.B.Z.P S 4./.6X0X0X7X7XqX0X0X",
"qX0XrX7X6X6X0X Xj p ^ c.g.A.K -   .   X   .           @ x V N n N N N N I N N N N N I N T Y 0 b e.A.C.Z.P F 3.#X6X6X0X0XqXqX0X0X",
"0X0X7XtX0X0XrX*Xy p %.S.C.S.J ; .                     # x } N b N N M M M N N M M M n n P D p U l.D.C.Z.G S 3.:X0X0X0XqXqXeXqXqX",
"0XrXqXrX0X7XtX$Xu t / S.V.Z.P : o       X   . X       # x } V Y I N T N V N N N V N N X.} &.`._.U.i.j.V.G A 4.=X0X0X0X3X7XqXqX0X",
"0XqX0XqX0X0X7X|.p u / Z.C.Z.I :       X               # x T N b N N N N N N N N N N V V Y #..X].E.c.i.V.G A 2./.4X8X0XyXrXrXqXqX",
"qXrXqXqX0X0XqX*Xf y / C.f.V.U :       X             . # x V N b N N N N V N N N V N V N I #..X].W.c.i.d.Z A 1.^.6X7X0XeX0XtX0X0X",
"7X0XqXqX7X0X0X Xh y / A.V.V.I :                       & g } N n V V V V V V V V V V V N Y @.oX_.P.Z.V.f.Z k 2./.6X7X7X0X0X7X0X0X",
"0X0XrXqXrXtX0X*Xi i ~ Z.d.V.I -                     . # x V M b V V V V N V V V V V N N V ..oX_.P.A.A.d.K j 2./.7X7XqXyX0X0X0X0X",
"0X0XqXrXrXqX0X*Xh u / V.d.V.I -       X               # x T N M V N V V V V V V N V V V V ...X].I.A.i.d.J j <.#X:X7X0XyXrX0X7X0X",
"rX6X0XqXrXqXrX$Xj u ^ Z.f.V.I -                       # z Y N n N N N N N N V N V V N V V V M.m.n.V.g.A.G A <.{.7X7X7X0X0X0X0X0X",
"0X7X0X0XrXtXqX Xp i ^ V.f.V.U :                       # z Y N b N V V N N N N N N N N V V C x W l.d.V.A.G h -.!.4X7XqX0X0XrX0X0X",
"0X0X0XqX0XqXqX%Xg y ^ A.d.V.I :                       # g T N b N N V V V N N N N N N Y Y C 8 G e.V.h.S.I j -.~.3X0XqX0X0X0X0X0X",
"0X0X0XtXtX0X9X{.i y ! V.f.V.J :                     . # x T N b N N C V N N V N N N N M T B , b e.A.V.S.P l { R.<X4X7X7XqX0XrX0X",
"0XrX7XqX0X6X4X{.i r ! V.V.V.b -                       # x T N n N N V V N V N N N N T N Y V 8 G e.d.d.S.P l { J. X6X0XqX7XrX0XrX",
"0X0X0XqX4X4X3X{.r y ! Z.d.c.I -                     + # z Y M M N N V N N N N N N N V V V B 8 G e.V.d.A.P l [ H.>X4X6X8XqXtX7X0X",
"0X0XqXwX7X3X4X'.u u ( Z.g.V.I ;                     . % z T n b N N N N N N N N N N N V V v 0 n e.d.d.n.P g [ 6.%X4X4X8X8XqXqX0X",
"0X0X8X9X8X4X4X{.D u ..A.h.Z.I ;       X       X       # z T N N N N V N N V N N N N V N V C 6 I e.d.d.b.P g [ 6.%X4X4X4X4X0XqX0X",
"0X0X8X4X8X4X4X#X .d / A.h.V.J ;                       # z T N I V N N N N N V N V N V N V B 8 G t.d.d.b.G h ) 6.&X1X4X,X1X4X0X0X",
"8X4X8X2X4X4X4X%X$.c / Z.d.Z.I :                       @ g V N I N N N V V N N N N N V V V B 8 n e.c.d.b.P h _ 6.%X5X4X8X4X8X0X9X",
"4X4X4X4X4X4X4X&X;.c / Z.h.V.I ;                       @ g V V n V N N V N N N N N N V V V C 8 H e.d.V.b.P h ) 5.%X1X4X4X4X4X4X4X",
"4X4X4X4X4X8X1X&X@.c ! Z.d.Z.I ;       X               # x T N N V N N V N V N V V N N V T C 8 H e.d.d.b.P h ) 6.%X5X4X1X4X4X4X4X",
"4X4X4X4X9X2X4X%X@.c / V.A.V.I ;                       % z T N n N N V N N N N N N N N N T C e G e.V.i.b.G h ) 6.%X4X5X4X1X4X4X6X",
":X4X8X2X9X2X4X&X@.c ~ Z.g.Z.I ;       X             X # z V n b V N N N N N N N V N N N V C 6 N e.h.d.b.G l ) 6.&X1X4X4X4X1X6X4X",
"4X4X8X1X8X8X1X%X$.Z / Z.g.V.I -                   X   % x I N H N N N V N N V N N N N N V B 8 n e.V.d.b.P g ) 6.%X1X1X4X4X:X4X4X",
"4X4X1X1X4X2X2X%X+.x ! Z.f.Z.J ;                     . # x } T Y C V N V N N V N N N N N V C 8 G e.d.h.b.G h [ 6.&X4X4X3X4X4X4X4X",
"4X5X4X2X4X9X9X+Xo.d ! V.f.V.J ;                     + * ` >.>...V N V V V N N N N N B V V v 8 H e.d.d.b.P j _ 6.>X4X4X4X4X4X4X:X",
"4X4X4X2X8X9X1X'.S y / A.d.V.J : X                     < 6.).T.G.X.N C V N N V N N N N V V C 8 b e.d.d.A.G h _ 6.%X4X4X4X4X4X8X8X",
"4X4X4X8X4X8X2X'.y 0 / Z.f.V.J ;               . X   X 3 K.[.).H.X.N N N N N N N N V V N V C 8 G e.f.f.c.G h _ 5.&X4X4X4X4X4X4X8X",
"4X4X9X8X1X1X4X|.y p / V.V.V.H -     .             X O 3 8.).L.7.V N N N N V N V N V N N V C 8 M e.d.V.c.P k [ 5.&X4X1X8X4X4X4X4X",
"4X4X4X4X4X4X4X|.i y / V.f.Z.H -                     O < *.6.>.O.V N N N V C N V N N N N V B 8 I e.d.d.b.J h _ 6.%X2X4X3X4X4X4X4X",
"4X4X4X4X8X4X4X'.g y / Z.f.V.J ;           X           & x } I b V N N N V V N N V N N N V B 8 M e.d.d.b.P h ) 5.*X2X4X8X4X4X8X8X",
"1X1X4X4X8X4X1X'.p r ! Z.f.V.H - X                     $ z T W N N V V N V N V N N N N N Y B 8 I e.d.d.n.G h ) 6.%X4X1X1X2X4X4X4X",
"8X8X4X8X8X1X1X'.i y ! V.V.c.J -           X           # z Y N n N N N N V N N N N N N N V C 8 n e.d.d.S.I h _ 5.%X1X1X3X4X4X8X2X",
"9X4X4X9X8X4X1X%Xy y ^ V.f.V.J :                       % z V N n N V N N N N N N V N V V V B 8 H e.d.d.b.P l [ 6.%X1X1X8X8X4X8X2X",
"4X4X4X8X4X8X4X+Xy y / V.f.V.J ;                       # s N N H N N V N N N N N N N V V V C 8 H e.V.d.c.G h [ 6. X1X4X4X1X4X8X8X",
"8X4X8X4X9X4X4X@Xi u / V.d.v.J :                       # x T N M C N N V V N N N V V V V T C e G e.V.d.b.I h ` H. X1X4X4X4X4X4X4X",
"9X8X8X4X9X4X4X@Xi y / V.d.B.I :         X             % x T M I V V N N V N N V N V N X.V B 6 b e.V.f.Z.I l ` m.oX8X4X4X1X4X8X4X",
"4X9X8X4X9X4X4X@Xi u ! V.d.V.I ;       X               # z T M b V C N N N N V N N V N V V V 8 I e.d.d.c.G f ` H.>X2X1X1X6X8X4X4X",
"4X4X4X4X9X4X8X@Xi y / V.d.v.I -                     . & z T N I N N N N V N N N V V N V V V 8 n e.i.g.c.c f [ m.>X2X4X4X1X4X4X4X",
"4X4X8X4X9X1X8X@Xi y / V.d.V.I ;                       # z T N b V N V V V N N V N V N X.C C 6 n r.V.g.c.G f _ m.,X4X4X4X4X4X4X4X",
"4X9X8X4X9X1X8X@Xi u / V.d.Z.I ;       X             . $ z T N N N V V V V N N N N N N V V N 6 n e.V.d.c.Z f ` N.&X4X8X8X4X4X4X4X",
"4X8X8X1X9X4X4X@Xi y / V.i.V.I -                     . $ z W N n V V V V V V N N N V V V V V e n e.d.d.n.P l +.P.1X2X4X9X9X2X4X5X",
"4X4X8X1X9X4X8X@Xy y / c.d.V.I :                     X % z V n N V V N V V N N N N V N V V C 6 n e.V.d.Z.P f +.~.-X4X4X8X8X4X5X4X",
"4X4X8X4X5X5X4X+Xi u / V.d.V.I :                       & z V V n N V N V V N N V N N N V N M 8 b r.C.V.A.P h *.!.-X2X8X8X4X5X5X4X",
"9X4X8X1X5X1X8X+Xy y / V.d.V.I -                       $ x T V N N N T N V V N N V V V V M C 8 G r.d.A.A.P j *.^.-X-X4X8X8X1X4X4X",
"4X4X4X1X4X4X8X'.f y / Z.f.Z.H -                       & x T N N V V N N N T N I W W V Y V C 4 P t.f.j.A.P j *.^.-X2X5X8X9X-X4X4X",
"4X1X8X8X4X8X4X'.f y / Z.V.V.I -                     . % c T N n Y N N N N N N N W V N T } V 4 R x.f.g.Z.P g *.^.-X1X1X4X8X5X5X4X",
"8X4X1X8X1X4X8X|.g 0 / V.d.V.I :                       % c T n G N V V V V V V N N W T N V ..K.J.F.d.g.Z.I h *./.-X4X4X3X8X8X2X8X",
"4X4X8X8X2X4X4X+Xg y / V.d.V.I -                       % x } N N V V V V V V N V N N V V V #.XX}.I.d.f.V.G l =.#X4X4X4X4X8X9X2X4X",
"8X4X1X8X4X9X9X'.g u / B.f.Z.H -                       % x } I n N N V V V V T V T W V V E >.OX}.I.d.D.V.G l =.#X8XqX4X8X8X4X4X8X",
"1X8X8X1X4X7XqX*Xf u / V.f.V.I -                       % x T N M N V V V V V V V V V X.T Y $.OX_.I.A.d.Z.G k 1.$X9XqX0X8X8X1X4X4X",
"4X8X1X8X7XqXqX$Xf u / d.j.Z.H -                     . % c T N I N V W V V N N N N V V N T :.XX}.E.d.g.V.G j 1.$XqXqX7X6X8X:X4X8X",
"8X8X8X9X6XqXqX|.p u / d.g.Z.I -                       % x T N n N N V V V N N V V N N N T :.OX`.I.d.d.Z.G A 1.$X4XqX0X0X0X4X4X4X",
"4X8X0X0X0XqXqX*Xh r / V.f.V.H -                       & x } N m N W V V V N V W V V V I I @.(.R.N.j.h.Z.Z k 1.$X0X6X6XrXqX9X9X4X",
"8X8XwX0XrX7X0X$Xh r ~ d.f.V.I -                       & x } T n V V V W W N N I V I V Y T } | ,.v.g.h.S.G j 2.;X4X0X0X0XwXqXqX8X",
"qX7X7X0X3XrXtX|.i r / d.a.p.c - . X                 . $ g } T N V V V V N N P B Y T T B T } e n e.h.h.b.Z A 4.3X0XwX7XrX0XqXqX8X",
"7X0X0X0X0X7X7X$Xp a / h.s.i.m - .       +           . # y D I M V V V V N N N N M N B I I N 6 m t.i.h.i.Z r R ;X0X0X7X7XwX0X0XqX",
"0X7X0X3XyXqX7X*Xp a ( A.j.U.^ , . . X . . X X       . . 2 0 q q s w q q e w q q e e q q w w 6 b t.S.S.A.K 9 D ;X0XwXqX7XwX0X0XwX",
"rX7XrX0XtX7X7X<X<.,.N.Y.I.!.J.o.i j h A j h A 4 A h h i F | o.|  . .| | | |  .| | | | | | | R ,.N.I.Y.Q.z.O.M.;X0XwXqX7XeX0X0XqX"
};
