/* XPM */
static char *Brown1711481215_3_1711986715[] = {
/* columns rows colors chars-per-pixel */
"64 64 196 2 ",
"   c #150906",
".  c #160B0A",
"X  c #190E0C",
"o  c #1F150E",
"O  c #1F180E",
"+  c #160E11",
"@  c #1A0911",
"#  c #1F1810",
"$  c #24170E",
"%  c #24190F",
"&  c #290A10",
"*  c #210A12",
"=  c #231711",
"-  c #221811",
";  c #2A1510",
":  c #4B301D",
">  c #40312C",
",  c #583E27",
"<  c #5C3621",
"1  c #513430",
"2  c #713F26",
"3  c #683B28",
"4  c #4E4130",
"5  c #6F412A",
"6  c #6A452E",
"7  c #754227",
"8  c #74432A",
"9  c #79452E",
"0  c #7B4A2D",
"q  c #744533",
"w  c #7B4630",
"e  c #754933",
"r  c #7C4C34",
"t  c #7C4D39",
"y  c #69503A",
"u  c #7B5336",
"i  c #76543A",
"p  c #7A543B",
"a  c #7C5F3F",
"s  c #6D5B4D",
"d  c #6F5441",
"f  c #7E5441",
"g  c #775A44",
"h  c #7B5C45",
"j  c #785748",
"k  c #715B4E",
"l  c #7C5C49",
"z  c #6D5B51",
"x  c #715E51",
"c  c #776247",
"v  c #7A6144",
"b  c #78644C",
"n  c #6F6254",
"m  c #736453",
"M  c #776855",
"N  c #824D2E",
"B  c #804E34",
"V  c #834E39",
"C  c #855336",
"Z  c #8F5B36",
"A  c #83543B",
"S  c #89533A",
"D  c #87583E",
"F  c #8E5C3C",
"G  c #875634",
"H  c #915C3A",
"J  c #925A37",
"K  c #8F613E",
"L  c #93623C",
"P  c #99643C",
"I  c #96693F",
"U  c #9D6B3D",
"Y  c #9B6835",
"T  c #9E703F",
"R  c #A16D35",
"E  c #A46D3E",
"W  c #A96D3E",
"Q  c #A4703E",
"!  c #AA723E",
"~  c #A47034",
"^  c #865741",
"/  c #865B45",
"(  c #8C5C43",
")  c #865C48",
"_  c #895B48",
"`  c #806240",
"'  c #846947",
"]  c #8F6442",
"[  c #956443",
"{  c #9A6743",
"}  c #9D6B44",
"|  c #9B6649",
" . c #956B49",
".. c #9E6C4A",
"X. c #9C7145",
"o. c #9B734A",
"O. c #856451",
"+. c #8D6F57",
"@. c #876D5B",
"#. c #886E5A",
"$. c #966F55",
"%. c #906F5C",
"&. c #85715F",
"*. c #8A725D",
"=. c #9A785F",
"-. c #9A7354",
";. c #A46E42",
":. c #A96E42",
">. c #A36F4A",
",. c #A96D49",
"<. c #A47041",
"1. c #A97444",
"2. c #A87A45",
"3. c #A4724A",
"4. c #AA7349",
"5. c #A77A4B",
"6. c #AB7B4D",
"7. c #A27846",
"8. c #A47B54",
"9. c #A97C54",
"0. c #A37E5B",
"q. c #A97D5D",
"w. c #A07352",
"e. c #8A7665",
"r. c #8F7A67",
"t. c #8A7768",
"y. c #877463",
"u. c #947761",
"i. c #9C7763",
"p. c #977F67",
"a. c #9D7B63",
"s. c #9A7968",
"d. c #A17C63",
"f. c #A88156",
"g. c #A6815D",
"h. c #A9835C",
"j. c #9A816D",
"k. c #A38463",
"l. c #AA8564",
"z. c #AB8A64",
"x. c #A5886E",
"c. c #A38668",
"v. c #B58E67",
"b. c #BC9569",
"n. c #B59269",
"m. c #B68F70",
"M. c #AF977F",
"N. c #B09270",
"B. c #B9937A",
"V. c #B4947D",
"C. c #B49C85",
"Z. c #B09F8B",
"A. c #BC9F8F",
"S. c #B89E83",
"D. c #BB9E90",
"F. c #BCA28B",
"G. c #BCAC93",
"H. c #BDA193",
"J. c #BFB099",
"K. c #C5A48C",
"L. c #CAA78B",
"P. c #C6AC8C",
"I. c #CBAA8C",
"U. c #D0AF8E",
"Y. c #C6B28A",
"T. c #CAB18E",
"R. c #CEB98C",
"E. c #D4B28F",
"W. c #C7A490",
"Q. c #C1AB94",
"!. c #CBAC91",
"~. c #C7A99C",
"^. c #D5AF95",
"/. c #D8AF99",
"(. c #C7B291",
"). c #CDB594",
"_. c #CEBA92",
"`. c #C6B39C",
"'. c #CFB898",
"]. c #CEB69C",
"[. c #D5B296",
"{. c #D8B195",
"}. c #D4BB95",
"|. c #D8BC96",
" X c #D5B499",
".X c #D8B59A",
"XX c #D6BC9A",
"oX c #D9BC9B",
"OX c #E0BE98",
"+X c #CCAFA1",
"@X c #D7BDA0",
"#X c #D9BEA2",
"$X c #D7C097",
"%X c #D5C09C",
"&X c #D9C09E",
"*X c #D7C0A0",
/* pixels */
"XXXX$X%X*X#XR._.m ; i f.6.4.2.7.<.<.1.7.<.3.2.4.2.! 1.2.1.<.1.1.1.1.4.4.2.4.2.2.4.1.4.2.2.2.4.4.2.1.4.[ >   @.P.}.}.XXXXXXXXXXXX",
"XXXXXXoXoXoX}.}.m $ u E E E Q E R W E E E Q Y R R R R R R R R R R R R R R U E R R U ~ Y R Y R E R :.:.4.' o *.P.$XXX@X&X|.XXXXXX",
"XXXXXXXX#XXX}.].m ; u U :.;.;.H H J H H Z F F J F J J J ( J Z Z J Z Z J J Z Z S F F H F F F Z H ;.>.W E v o &.P.}.|.XX&X$X|.XX|.",
"XXXXXXXXoXoX_.}.M % u <.1.>.I C w w N w 9 9 9 9 w w w w 2 w w 9 9 9 0 9 9 9 9 9 9 9 w w w w 0 N } ;.E U a X &.P.$XoXXXoXXX|.XXXX",
"XXXXXXXXXXXX_.}.M - u } ;.3.L 0 e A S S C C C C V C A C C C C C C A C C A C C A A C S C C u 0 8 { ;.Q X.v . y.(.$XXXoXXXoX|.&XXX",
"$XoX$XXXoXXX'.}.M - u X.E ;.[ 0 A | >.3.3.4.3.3.3.,.,.3.>.;.>.;.3.3.3.3.,.3.3.;.3.3.3.4.X.K e 8 [ ;.X. .c + t.(.$X&XXXXX$XXXXXXX",
"XXoX$XXXoXXX_._.m $ u } E :.{ 0 V { ;.;.<.1.<.3.<.>.<.<.<.;.>.3.<.<.Q <.<.<.<.Q <.Q Q Q 1.K e e I ;.<.o.c + t.(.XX|.#XXX&XoXXXoX",
"XXXXXX$XoX&X). Xm $ u X.E 4.{ u A ..>.E R E ;.E ;.;.E ;.;.E ;.;.E ;.E U Q E E E Q R <.E 1.3.=.a.3.<.<.} c . y.P.$X|.oXoX|.oXXX|.",
"XXXX$XXXXXoX)._.m $ i } 3.>.{ B p { >.E E ;.Q E Q E E E E E ;.;.} E ;.E E U Q R ;.;.,.E 3.l.C.A.9.;.E } ) @ e.T.$X}.@XXX}.XXXXXX",
"XXXXXXXXXXXX). Xm $ i o.E 3.[ r A { <.Q ;.4.<.<.<.<.<.Q <.;.<.1.Q E U ;.;.E Q ;.;.:.;.W ;.c.G.(.q.<.;...h . e.(.}.|.@XXXXXXXXXXX",
"$XoXXX$XoXXX).'.m $ u } E E P r C { <.<.;.;.>.>.>.<.<.>.<.>.<.<.<.<.<.<.<.<.Q ;.;.:.;.:.Q z.H.`.h.1.;.;.h . *.T.}.|.oX}.oXXXXXXX",
"oXXX$XoXoXXX'.).m = p ..;.W L t p ;.:.;.<.;.;.;.;.;.;.;.<.;.<.;.<.<.<.<.<.<.<.<.;.;.:.1.3.k.H.~.0.;.;.<.h X *.Y.$XXXXX$XXXXXXXXX",
"XXXXXX$XXXXX'.'.n - i  .<.E P t p ;.;.;.<.;.;.;.<.<.:.;.;.Q <.<.<.<.Q ;.<.<.<.<.;.<.;.1.;.k.D.+X8.3.<.U h X *.T.%XoXXX$X$XoXXXXX",
"XX&X}.XXXXXX_.'.n - p ..E E P t A } :.;.<.;.<.:.E ;.:.<.;.<.<.<.<.<.<.<.<.<.<.<.<.<.<.;.<.g.C.H.w.<.Q ..h . *.T.XXoXXX$XoX#XXXXX",
"$XXX$XXXXXXX_._.m - i ..Q E P t A ;.:.;.<.<.;.Q Q ;.W <.<.:.<.<.<.<.<.<.<.E <.<.<.;.<.;.X. .O.b X.<.E } h . *.(.XXoX$XXXoXXXXXXX",
"XXXXXXXXXXXX'. Xm - i X.E Q P t A } :.<.<.<.<.:.;.;.:.;.;.E <.<.Q <.<.<.<.<.<.<.<.<.;.<.<.K 6 < I U R } h   y.!.oXoXXX$XXXoXoX$X",
"XXXXXXXXXX}.[.'.m $ i  .E E P t A ;.;.W ;.;.;.;.;.<.:.;.;.:.<.<.Q <.<.<.;.Q <.<.<.<.;.:.<.K q 3 I W W { h   *.P.XXoXXXXXXX#XXXXX",
"XXXX$XXXXXXXT.(.x % p ..Q E L t A { ;.;.;.;.;.;.Q :.:.E E <.<.<.;.<.<.<.<.<.<.<.<.;.<.;.<.L t e E :.! } h   *.I..X#XoXXXXX%XXXoX",
"$XXXXX$XoXoXT.).z - i } <.Q P t A { :.E Q ;.;.<.<.;.:.<.<.;.<.Q <.<.Q ;.<.<.;.<.;.<.<.E Q L e q >.:.;.} h   @.Y.oXoXXXXX%X&XXXXX",
"XXXX$XXXXX}.T.I.z - p o.Q W P t p ;.;.W <.;.<.<.;.<.W ;.<.:.<.<.<.<.<.<.<.<.Q <.<.<.<.Q U L e 8 ;.E :.} g   #.F. X.XXXXXXXoXXXXX",
"XX$XXX#XoX[.I.!.s - u X.E ! P t A { :.:.<.;.<.;.Q ;.:.;.;.;.<.;.<.Q ;.<.<.<.<.<.<.<.<.<.U L r 5 { W E ;.g   @.K. X X XXXoXoXXXXX",
"XXXXoX#X@X[.L.I.s - p ..Q E P A A U E E <.<.E <.:.<.;.Q <.<.<.Q <.<.<.<.;.Q <.<.<.<.<.<.E K r 5 ..;.;.{ g   @.K.).[. X X#XoXXXXX",
"%XXXXXXX X.XL.L.s O i ..E ! P t A U :.:.<.1.;.<.<.;.;.<.Q <.<.<.<.<.<.<.<.<.<.;.<.<.>.E ;.H N 7 { ;.;.} l   *.L.[.E. X X.XoXXXXX",
"XXXX X}. X{.L.L.s % i } Q W P t A } :.E ;.:.:.;.:.<.E ;.<.<.<.<.<.;.Q <.<.<.<.Q <.<.;.Q U L V 9 ..;.:.| g   *.K.[.[.[..X.XoX$XXX",
"XX}.[. X).^.L.L.s - i } E W P t A >.:.W <.:.<.<.;.;.;.<.<.<.Q <.<.<.<.<.<.<.Q <.<.<.;.E } L B 7 | :.:.{ g   #.K.).^. X[.[..XXXoX",
" X X[.[.[.^.L.L.s = i ..;.E P r p ;.;.W <.:.<.<.;.<.Q :.<.<.;.<.<.<.<.<.<.;.<.<.<.<.<.;.U L B 8 >.:.W ;.i   #.K.[.[.^.^.[. XXX X",
"[.[.[.[.^.[.L.L.z % i X.;.W P V V E :.;.Q <.<.;.<.E ;.;.<.<.<.E Q Q <.Q <.<.<.<.E <.3.<.U L 0 8 { ;.E } g   @.K.[.[.^.[.[.[.[. X",
"[.).[.[.[.[.L.L.s O i ..E W P t t [ ;.;.<.;.:.<.:.<.:.<.<.<.<.<.;.X.<.;.<.Q ;.<.<.Q ;.E ;.K r 7 | :.Q ..g   @.K.[.{.[.[.[.[.[.[.",
"[.[.[.^.[.[.L.L.s o i ;.;.W P t i { >.;.X.3.>.E <.;.<.;.Q <.<.<.<.<.Q <.<.;.<.Q <.<.<.Q U L r 8 { ;.;.{ g   @.K. X[. X^.[.[.[.[.",
"[.[.[.[.[.[.L.K.s o i >.W W P t p { <.4.X.3.<.;.Q ;.:.<.<.<.<.<.<.<.<.;.<.<.<.<.<.<.;.;.} P 0 8 >.;.W >.j   @.K.[.{.!.^.[.[.^.[.",
"[.[.[.[.[.).L.L.s - u >.W W P B A  .d.m.n.x.3.<.<.:.<.;.;.<.Q <.<.;.<.<.<.Q <.<.<.E ;.Q E L 0 8 { ;.E { j   @.K.^.{. X^.[.[.[.[.",
"[.[.^.[.[.[.L.L.s # p o.;.E Y r A $.B.~.G.Z.6.;.<.;.E <.;.<.<.<.<.Q <.<.<.;.<.<.<.<.;.Q } L B 8 ..;.:.{ j   @.K.[.{.[. X[.[.{.^.",
"^.[.{./.[.[.L.L.s % u 3.3.<.P r p $.B.!.Q.Z.8.<.<.<.:.<.<.;.Q ;.<.X.;.<.<.<.<.<.;.<.;.E } L 0 8 ..<.;.;.j   @.K. X[.[.[.[.[.[.^.",
"[.^.{.[.[.[.L.L.s = i ..} ;.L e ^ -.B.L.L.S.5.<.<.;.<.E ;.;.<.<.<.E <.<.Q <.<.;.<.<.;.<.} L C 8 } <.;.{ j   @.K.^.{.[. X[.[.[.^.",
"{.[.[.[.[.).L.K.s o p ..<.<.L t t [ 8.d.0.=.1.<.Q ;.:.<.<.E <.<.<.<.Q <.<.<.<.Q <.<.;.Q Q L 0 8 | ;.W } j   @.K.[.{.[.[.[.^.[.[.",
"[.[.^.[.[. XL.L.s $ i ;.Q Q P V V { 3.X.3.7.<.<.<.:.<.;.;.<.<.<.<.<.<.<.;.<.<.<.<.<.;.E } L 0 7 { :.;.;.j   @.W.[.{.[.[.[.[.[.[.",
"[.[.[./. X).L.L.s = i ..E E P V A { :.E E 3.Q <.<.;.<.;.<.;.<.<.<.<.<.<.<.<.<.<.<.<.;.Q U L 0 7 | >.;.;.j   @.K.[.[. X[.[.[.[.{.",
"[.[.^.[.[.[.L.L.s = i ;.E ! Y B V { ;.E E E E <.Q ;.:.<.;.;.<.Q Q ;.<.<.<.Q ;.<.<.<.<.;.E F 0 7 { ;.:.} g   @.K.[.^.^.[.[.[.[.[.",
"[.[.[.{.[. XL.L.x - p ..E E H t V U <.<.<.;.<.<.<.W Q ;.<.<.<.;.<.<.<.Q <.<.<.<.Q <.;.Q } L 0 7 } >.W } g . @.K. X^. X[.[.[.[.[.",
"{.[..X{. X[.P.L.s - u ..;.E [ t ( } <.E E <.;.<.<.;.<.;.E ;.<.<.<.<.<.;.<.<.<.Q <.<.} E E L C 8 { :.E ;.g   +.K. X{.[.[.[.[.{.[.",
"[.[./.{. X XI.K.s = p ..<.;.P t ^ { ;.E ;.>.E :.E <.<.<.<.<.<.<.<.<.Q <.<.<.<.<.<.<.E U ;.L r 8 } ;.;.} f   #.K.[.^.{.[.[.[.[.^.",
"[.[.[. X X[.I.L.s = p ;.:.E L t p } ;.:.E :.E E ;.<.<.<.<.<.Q <.;.<.<.<.<.Q ;.<.Q <.Q <.E L r 9 P >.:.} l   #.K.{.[./.[.[.[.[.[.",
"[.[.{.{.[. XP.L.s = u ..E W P r p { :.;.;.:.<.;.;.<.Q <.<.<.;.<.Q <.X.E <.<.<.<.<.Q E ;.<.L B 9 E ;.;.;.l   #.W.[.{./.[.[.[.[.^.",
"[. X[.[. X[.L.L.k - i >.;.W P r A ;.:.W ;.:.<.<.<.<.<.<.Q <.<.<.<.<.<.<.<.;.<.Q <.<.;.;.} H w 2 P ;.;.} /   #.K.[.[.{.[.[.[.[.[.",
"[.{./.[.[. XP.L.s - i X.E E P t A { :.;.;.:.<.<.Q <.<.;.<.Q ;.<.<.<.<.Q <.<.<.<.<.<.Q ;.} L t 2 { ;.>.;.l   +.K.[.[..X[.[.[.[.[.",
"[.[.[.[. X XI.K.s - u ..<.E P t A { W W <.:.<.<.<.<.<.<.<.<.<.<.<.;.<.<.;.<.<.;.<.<.E ;.;.K t 8 } >.>.} l   @.K.^.{./.[.[.[.[.[.",
"[.[.^.[. X XI.I.k - i ..;.R L r A } E ;.<.;.<.<.<.;.<.Q <.<.<.<.<.<.<.;.<.Q <.<.<.<.E } ;.[ r 8 { ;.W } /   @.L.[.{.{.[.[.[.[.[.",
"[.[.[.^.[.[.I.I.s - u 3.<.<.P t A P :.E <.;.<.<.<.<.<.<.<.;.<.Q <.Q <.<.<.<.<.<.<.<.E ;.X.L V 9 } ;.;.;.l   @.K.[.[.{.[.[.[.[.{.",
"[.[.{.^.[.[.I.!.s = i >.<.Q I r A P :.;.;.;.Q <.<.<.<.<.<.<.;.<.<.<.<.<.<.<.<.<.<.<.Q ;.Q L N 9 U >.:.;.v   #.K.[.{./.[.[.^.[.[.",
".X.X{.[.[. XI.I.z = i ;.;.Q P t A { :.E <.<.;.<.<.<.<.<.E X.<.;.Q <.<.<.<.<.<.<.<.<.E E Q H r 9 P ;.;.} l   @.K.[.[.{.[.[.[.[.[.",
".X{.[.[.{.[.I.!.k - p >.<.Q L t D U ;.:.Q >.Q <.<.<.<.<.<.Q <.<.<.<.Q <.<.<.<.<.Q <.Q E W [ i 6 P } :...l   @.K.[./..X[.[.[.[.[.",
"[.[.[.[.{./.I.U.x ; p ..;.E L t ^ U E W <.<.<.<.<.<.E <.<.<.<.;.<.<.1.<.<.<.<.<.<.Q Q E >.| %.+.;.;.;...h   @.L.[.[..X[.[.[.{.[.",
"[.[.[./.[.[.P.I.k = i ;.:.E P r A { <.<.<.<.;.;.<.<.Q ;.<.<.<.Q <.<.<.<.<.<.<.<.<.<.<.<.;.q.M.S.3.U ;...l   @.L.[.[.[.[.[. X[.{.",
"{.[.[.{. X^.I.I.x - g } :.E P t F } <.<.Q } <.;.<.<.<.<.<.<.<.<.;.Q E ;.Q <.;.U <.E R 4.Q l.G.Q.f.<.;...h   *.P. X[.[.E.[.[.[. X",
"[.[.[./. X[.I.^.m % i ..W Q P r A } <.<.<.<.;.E <.;.<.<.<.<.;.<.<.<.<.<.<.<.<.<.<.<.3.<.T z.J.J.9.3.1.>.g   y.Q. X[.[.[.[.[.[.[.",
"[.[.[.[. X X X'.m % u ..E Q P e p U <.;.E ;.;.;.Q <.<.<.<.Q <.<.<.E <.<.;.Q <.<.Q Q 3.E T z.G.J.8.X.<.>.h   &.I.}. X X[.[.[.[.[.",
"[.[.{.[. X}.}. Xm o i U E E { t A [ <.:.E ;.;.E ;.<.;.;.;.<.E ;.} Q ;.E E U E ;.E ;.3.U <.z.G.`.f...;.;.v   *.(.XX.X X X X[.[.[.",
"[.[.[. X XXX_. Xn $ i } ;.:.P t A U <.>.W >.;.;.E E :.:.<.E ;.E E Q ;.;.;.;.E ;.;.;.;.;.7.h.C.G.9.;.U U h   *.T.XXoXoX}..X X[.[.",
"[.[.[. X].XX X_.n O i E :.:.{ t A { >.:.;.:.:.;.<.:.<.1.:.W :.E <.:.1.:.1.:.<.1.:.:.;.;.Q 5.p.j.8.} R } /   *.T.XXoXXX|.oX.X[.[.",
"[.{.XXXXXXXX'.}.m % i 7.:.1.{ t A { >.:.;.,.:.;.:.:.:.<.:.:.;.;.>.:.:.:.:.:.:.>.:.>.;.;.E G , : } E R U v   *.T.XX|.XX}.oX X[.[.",
"oXXXoXoX].%XXX].n - j U :.,.| t ^ | ,.:.E 7.<.Q Q ;.<.<.X.Q E T E ;.E ;.;.;.;.;.;.E >.1.>.( e 8 } } E ;.v X e.T.oX@XoX@XXXoX^.[.",
"XXoX|.|.@XXX}.].n = d ;.W <.[ t e ( H H Z K F F F H F H F ] F ( F F F F F F H H F F J H F ^ e e { E Q U a * e.Y.}.#XXX XXX|. X X",
"XXXX|.oX@X_.}. XM = y 5.6.9.o.` p ] ( ( ^ O.) ) _ _ _ _ ) ) ) ) / _ _ _ _ _ _ _ _ / ^ ^ / g p D 7.f.2.7.' & u.Y.}.#XoX@XoX}.XX@X",
"XX|.oXoXXXXXOXXXr.4 v v.b.b.n.x.a.d.d.0.i.s.a.a.a.a.a.s.a.a.a.a.i.i.d.d.a.a.i.i.i.d.d.i.=.=.=.=.v.b.b.v.j.1 x.R.|.oXoXXX&XXX.XoX"
};
