/* XPM */
static char *coin11711651278[] = {
/* columns rows colors chars-per-pixel */
"64 64 165 2 ",
"   c #FFA309",
".  c #FFAB0D",
"X  c #FFB00F",
"o  c #FFA913",
"O  c #FDAB1D",
"+  c #FFB411",
"@  c #FFBC15",
"#  c #FEB219",
"$  c #FDBC1A",
"%  c #F7AA25",
"&  c #F5A92C",
"*  c #FFB525",
"=  c #FDBE21",
"-  c #F9BF29",
";  c #F5B733",
":  c #FFB430",
">  c #F5B936",
",  c #FFBC32",
"<  c #FFB43B",
"1  c #FFC017",
"2  c #FFC51A",
"3  c #FECC1D",
"4  c #FED01F",
"5  c #FBC525",
"6  c #FBC925",
"7  c #FCC629",
"8  c #F9C92D",
"9  c #FED522",
"0  c #FEDB24",
"q  c #FAD12D",
"w  c #F7CF36",
"e  c #FCCC33",
"r  c #F5C539",
"t  c #F5CC3A",
"y  c #F7D036",
"u  c #F9D433",
"i  c #FAD830",
"p  c #F6D33B",
"a  c #FBDB3B",
"s  c #FEE027",
"d  c #FEE429",
"f  c #FEEB2C",
"g  c #F9E137",
"h  c #FEEB32",
"j  c #F7E23F",
"k  c #F9E43C",
"l  c #FEEB3B",
"z  c #F0B443",
"x  c #FFBE43",
"c  c #EBB050",
"v  c #EBB954",
"b  c #FFBD53",
"n  c #DEBE7D",
"m  c #E8BD62",
"M  c #E1B674",
"N  c #E1BB76",
"B  c #EFC54D",
"V  c #FFC741",
"C  c #F3CF42",
"Z  c #F1CF4A",
"A  c #FFCB4A",
"S  c #F5D241",
"D  c #F4DD44",
"F  c #F2D249",
"G  c #F3DD4A",
"H  c #EECD51",
"J  c #EBC359",
"K  c #EBCE5F",
"L  c #FFCF50",
"P  c #FFC75A",
"I  c #EFD353",
"U  c #EFD956",
"Y  c #ECD45C",
"T  c #EED859",
"R  c #F0D751",
"E  c #F1DB54",
"W  c #FFD951",
"Q  c #F0DB5E",
"!  c #FFD95D",
"~  c #F5E044",
"^  c #FCE346",
"/  c #FEEC43",
"(  c #F8E54C",
")  c #FEEC4C",
"_  c #FEEC52",
"`  c #FBE65B",
"'  c #FEEC5C",
"]  c #DFC07C",
"[  c #E7C666",
"{  c #E7CC66",
"}  c #E9CE62",
"|  c #E4C76F",
" . c #E6CB6A",
".. c #E9CC68",
"X. c #FFC86E",
"o. c #EBD462",
"O. c #EFDA62",
"+. c #E7D06C",
"@. c #E8D269",
"#. c #FFD262",
"$. c #F1DB63",
"%. c #FFD06C",
"&. c #F3DD69",
"*. c #FFDE68",
"=. c #E2C573",
"-. c #E4CD73",
";. c #E1C37A",
":. c #E2CA7B",
">. c #FFCE79",
",. c #E7D073",
"<. c #EAD171",
"1. c #EDD871",
"2. c #F2DC71",
"3. c #FFD77E",
"4. c #F9E660",
"5. c #FEEC63",
"6. c #F5E16F",
"7. c #FFE26D",
"8. c #FDEC6C",
"9. c #F5E170",
"0. c #FEED73",
"q. c #F6E179",
"w. c #FEED7B",
"e. c #DCBC83",
"r. c #D9B78E",
"t. c #DAB98A",
"y. c #D3AF95",
"u. c #D5B296",
"i. c #D6BC97",
"p. c #D9BF96",
"a. c #D6B599",
"s. c #D7BD9A",
"d. c #D8BC99",
"f. c #DEC684",
"g. c #DCC28C",
"h. c #DAC091",
"j. c #E0C680",
"k. c #FFDA80",
"l. c #FFD188",
"z. c #FFD692",
"x. c #FFDD95",
"c. c #F9E481",
"v. c #FEEC84",
"b. c #FAE78A",
"n. c #FFEE8C",
"m. c #FFE394",
"M. c #FEED94",
"N. c #FFE599",
"B. c #FFEE9D",
"V. c #FFDBA2",
"C. c #FFDFAF",
"Z. c #FFEEA4",
"A. c #FFEEAB",
"S. c #FFE3B1",
"D. c #FFEEB4",
"F. c #FFE4BC",
"G. c #FFEFBB",
"H. c #FFE6C7",
"J. c #FFEFC2",
"K. c #FFEFCB",
"L. c #FFEFD2",
"P. c #FFF0D7",
"I. c #FFF0DB",
"U. c #FFEFE5",
"Y. c #FFF0E3",
/* pixels */
"s.s.s.s.s.s.s.s.s.s.s.s.s.s.s.s.s.s.s.s.s.h.-.Y ~ f f f f f f f f f f f f h G @.f.i.s.s.s.s.s.s.s.s.s.s.s.s.s.s.s.s.s.s.s.s.s.s.",
"s.s.s.s.s.s.s.s.s.s.s.s.s.s.s.s.s.s.s.s.s.h.-.Y ^ f f f f f f f f f f f f f G @.f.s.s.s.s.s.s.s.s.s.s.s.s.s.s.s.s.s.s.s.s.s.s.s.",
"s.s.s.s.s.s.s.s.s.s.s.s.s.s.h.h.g.g.g.g.g.f. .R a s d d s s d d d d s d d d D K :.g.g.g.g.g.g.i.p.s.s.s.s.s.s.s.s.s.s.s.s.s.s.s.",
"s.s.s.s.s.s.s.s.s.s.s.s.s.h.h.j.:.+.-.-.-. .Y C q 4 4 4 4 4 4 6 4 4 4 4 4 6 w Z Y -.+.+.-.-.:.f.h.s.s.s.s.s.s.s.s.s.s.s.s.h.s.s.",
"s.s.s.s.s.s.s.s.s.s.s.s.s.h.g.,.o.T T R T G C e 5 @ @ @ 1 @ @ @ @ @ @ @ @ 1 5 t F U U U T T @.:.g.s.s.s.s.s.s.s.s.s.s.s.s.s.s.s.",
"s.s.s.s.s.s.s.s.s.s.s.s.s.h.:.o.G k k k k g q 5 + . . . . . . . . . . . . . $ 6 i k k k k k R  .j.s.s.s.s.s.s.s.s.s.s.s.s.s.s.s.",
"s.s.s.s.s.s.s.s.s.h.h.h.g.g.,.$.( / l / / k u 7 * O O o o . . . . .   . . . @ 2 4 f d d d d D Y -.g.h.p.s.s.s.s.s.s.s.s.s.s.s.s.",
"s.s.s.s.s.s.s.s.s.h.g.f.-.,.1.9.8.8.0.0.8.8.7.#.P b x , = @ + @ @ @ @ @ @ @ 2 2 3 4 4 4 4 4 w Z } -.:.f.h.s.s.s.s.s.s.s.s.s.s.s.",
"s.s.s.s.s.s.s.s.s.h.f.,.o.T 9.c.M.B.B.B.B.B.m.x.z.l.%.L q 4 4 4 2 3 4 3 4 3 3 2 1 @ @ @ @ 1 7 t F T @.-.g.s.s.s.s.s.s.s.s.s.s.s.",
"s.s.s.s.s.s.s.h.s.h.-.o.( ( 6.M.D.K.K.K.K.K.K.H.H.F.m.7.^ d f f s s s s s 0 4 2 @ . . . . . $ 6 i k E  .f.s.s.s.s.s.s.s.s.s.s.s.",
"s.s.s.s.s.s.h.h.h.g.,.O.( ) 0.Z.K.Y.Y.I.P.P.P.P.P.K.B.0.) f f f f f f f f f 0 2 @     .     + 1 9 d D Y -.g.h.p.h.s.s.s.s.s.s.s.",
"s.s.s.s.s.h.g.f.j.,.1.q.0.w.M.D.P.I.P.J.D.Z.Z.Z.Z.B.v.5.l f f f f f f f f f 0 4 2 @ + . .   . @ 2 9 y Z } -.:.f.h.s.s.s.s.s.s.s.",
"s.s.s.s.h.h.g.,.o.T 2.c.M.Z.D.K.I.I.J.Z.n.0.0.0.0.0.5.) l f f f f f f f f f s 0 9 3 2 + .   . X + 1 7 t F T @.:.g.s.s.s.s.s.s.s.",
"s.s.s.s.h.h.:.o.( ( 6.M.D.K.P.I.Y.P.D.n.5.) ) ) ) / / l h f f f f f f f f f f f d 0 3 @ .     . . o $ 6 u k E +.j.s.s.s.s.s.s.s.",
"s.h.s.h.h.f.,.Q ( ) 0.Z.K.Y.I.I.P.K.B.0.) f h l l l l l l l l h f f f f f f f f f f 9 2 @           X 1 9 d D Y :.h.h.h.s.s.s.s.",
"s.h.h.g.:.,.1.6.6.w.B.D.P.I.P.J.D.B.v.5.l h l _ 5.8.8.8.8.8._ ) l f f f f f f f f f 0 9 2 @ + . .   . @ 1 9 w F o.,.j.g.h.s.s.s.",
"s.h.f.,.o.Q 9.c.M.Z.D.K.I.I.G.Z.n.0.5.) h h ) 8.n.M.B.B.M.M.w.' l f f f f f f f f f d 4 4 4 1 + .   . . + 1 5 t F T @.-.g.i.s.s.",
"s.h.:.O.G ( 6.M.D.K.L.I.Y.I.D.n.5.) / l h l ' n.A.K.K.J.K.G.M.0.) f f f f f f f f f f d d s 4 1 .       . . $ 6 q k U @.f.i.s.s.",
"h.g.,.Q ) ) w.Z.K.Y.Y.I.P.K.B.0.) f h h l / 8.M.G.P.P.I.P.K.Z.w.) f f f f f f f f f f f f f 4 4 @   .       X 1 9 d D Y -.h.h.h.",
":.,.1.9.8.w.M.D.L.Y.L.J.D.B.w.5.l h / ) 5.0.w.n.B.A.A.A.A.Z.v.5./ f f f f f f f f f f f f f d 4 2 @ + . .   . @ 2 9 y Z } -.:.g.",
"T O.9.q.b.Z.D.K.I.I.J.Z.n.0.5.) l h ) 8.n.M.n.n.w.w.w.w.w.w.5.) l f f f f f f f f f f f f f f 4 4 3 1 @ .   . . @ 1 5 t F T  .:.",
"~ ( 0.M.D.K.L.P.Y.P.D.n.5./ / l h l ' n.A.G.Z.w.5.) ) ) ) ) / l h f f f f f f f f f f f f f f d s 0 3 1 .     . . . $ 6 i k E @.",
"f / 8.Z.K.Y.Y.I.I.K.B.0.) f f h h ) 0.M.G.K.B.w.) f f f f f f f f f f f f f f f f f f f f f f f f f 0 2 +     .     + 2 0 f D o.",
"f / 0.Z.K.Y.L.J.D.B.w.' / h / ) ' 8.w.n.Z.B.v.5./ f f f f f f f f f f f f f f f f f f f f f f f f f 0 9 2 @ + o     X 2 9 f ~ o.",
"f / 8.B.K.I.J.Z.n.0.' ) l h _ 8.n.M.n.n.v.w.5.) l f f f f f f f f f f f f f f f f f f f f f f f f f d 0 4 3 2 + .   + 2 9 f D o.",
"f / 8.Z.K.P.D.n.5.) / l h l 5.v.A.G.B.w.5.) / l h f f f f f f f f f f f f f f f f f f f f f f f f f f d d 0 4 1 .   + 2 0 f ~ Y ",
"f / 0.B.K.P.Z.0./ f f f f l 8.B.K.P.A.w.) f f f f f f f f f f f f f f f f f f f f f f f f f f f f f f f f f 4 3 +   + 2 0 f ~ o.",
"f / 0.B.K.P.Z.w.) f f f f l 8.M.K.P.A.w.) f f f f f f f f f f f f f f f f f f f f f f f f f f f f f f f f f 0 2 +   + 1 9 f ~ o.",
"f / 0.B.K.P.Z.0./ f f f f / 8.B.K.L.A.w.) f f f f f f f f f f f f f f f f f f f f f f f f f f f f f f f f f 0 2 X   + 2 9 f D Y ",
"f / 0.B.K.P.Z.0.) f f f f l 8.B.K.L.Z.w.) f f f f f f f f f f f f f f f f f f f f f f f f f f f f f f f f f 0 2 @   + 2 0 f ~ o.",
"f l 0.B.K.K.Z.w./ f f f f l 8.M.G.K.Z.0.) f f f f f f f f f f f f f f f f f f f f f f f f f f f f f f f f f 0 2 X   + 2 4 f ~ o.",
"f / 0.B.K.P.Z.0./ f f f f l _ w.B.Z.v.5./ f f f f f f f f f f f f f h f f f f f f f d d 4 4 4 s f f f f f f 0 2 X   X 2 0 f ~ o.",
"f / 0.Z.K.K.Z.0.) f f f f h ) ' 0.w.5._ l f f f f f f f f f f f f f f f f f f f f f d 4 4 1 4 4 d f f f f f 4 2 +   + 2 4 f j T ",
"f / 8.B.K.L.Z.w./ f f f f f l / ) _ / l h f f f f f f f f f f f f f f f f f f f f f s 4 1 X 1 4 s f f f f f s 2 +   + 2 0 f ~ o.",
"f / 0.B.L.L.Z.0./ f f f f f f f f f f f f f f f f f f f f f f f f f f f f f f f f f 4 1 X   + 2 4 f f f f f 4 2 +   + 2 9 f ~ o.",
"f / 8.Z.K.L.Z.0.) f f f f f f f f f f f f f f f f f f f f f f f f f f f f f f f f f 4 2 X   + 3 s f f f f f s 2 +   + 2 9 f D K ",
"f l 0.B.K.L.Z.w./ f f f f f f f f f f f f f f f f f f f f f f f f f f f f f f f f f 4 2 X   + 2 4 f f f f f s 2 X   + 2 9 f ~ K ",
"f / 0.B.K.L.Z.w.) f f f f f f f f f f f f f f f f f f f f f f f f f f f f f f f f f 4 3 +   + 2 s f f f f f 4 3 +   + 2 9 f ~ K ",
"f / 0.B.K.P.Z.w.) h h f h f f f f f f f f f f f f f f f f f f f f f f f f f f f f d 4 2 +   @ 3 4 f f f f f 4 2 +   + 2 4 f ~ K ",
"f / 0.B.K.P.G.M.w.' ) / h f f f f f f f f f f f f f f f f f f f f f f f f f f f s 4 4 1 1 @ 2 4 d f f s 4 4 4 1 .   X 2 0 f ~ K ",
"f / 8.B.K.I.K.D.B.n.8._ l f f f f f f f f f f f f f f f f f f f f f f f f f d 4 4 2 2 2 3 3 4 4 d f s 9 3 2 @ X .   + 2 9 f D K ",
"f / 0.Z.K.Y.I.K.K.A.n.5./ f f f f f f f f f f f f f f f f f f f f f f f f f 4 4 1 X 1 3 4 s s d f f 0 3 @ + . .     # 2 9 f ~ K ",
"f / 0.B.K.Y.Y.Y.Y.I.A.w.) f f f f f f f f f f f f f f f f f f f f f f f f f 4 2 +   + 3 4 f f f f d 9 2 +           + 2 q f G K ",
"( ( 9.b.Z.G.J.P.I.P.G.M.w.' ) / h f f f f f f f f f f f f f d s 4 s 4 s 4 4 4 2 1 + 1 4 s f d d 9 9 3 @ .     . X + 2 8 y D Y | ",
"@.@.1.q.v.M.Z.J.P.I.K.D.B.n.8._ l f f f f f f f f f f f f f 0 0 4 2 2 2 2 2 2 2 3 2 4 4 d f s 4 4 2 @ X .   . X @ 2 8 t H { | ] ",
"n =.,.O.` 5.n.A.L.Y.P.K.J.A.n.8./ f f f f f f f f f f f f f 0 3 1 X X + X X 1 2 4 4 s d f f s 4 1 + . .     X $ 3 0 p H [ ] n t.",
"u.t.| U k / 8.B.K.Y.Y.Y.Y.P.Z.w._ h h f f f f f f f f f f d 9 1 X           @ 3 d f f f f f s 1 X           + 2 0 f D K ] u.y.y.",
"u.t.] { U E 6.b.Z.G.K.P.I.I.G.M.0.' ) / h f f f f f f f f f 0 3 1 + + + + @ 1 4 d f d d 4 4 3 @ .     . X + $ 8 p R Y | f.a.y.y.",
"u.r.e.=.[ @.&.2.b.M.Z.J.P.I.K.D.B.v.8._ l f f f f f f f f f s 0 3 2 3 2 3 2 9 0 s f s 9 3 2 @ + .   . X @ 2 8 t H { | ] t.u.u.u.",
"u.u.r.t.e.;.<.&.` 5.n.A.P.Y.P.K.J.D.n.5./ f f f f f f f f f d s 0 9 0 9 0 0 0 d f f 0 3 1 X . .     X @ 3 0 p H [ n e.t.r.u.u.u.",
"u.u.u.u.u.t.=.R k / 8.B.K.U.Y.Y.U.L.A.w.) f f h f f f f f f f f f f f f f f f f f d 9 2 +           + 3 0 f G o.n u.u.u.u.u.u.u.",
"u.u.u.u.u.r.;...I E 6.b.Z.D.D.S.C.V.k.! a 0 0 d f f f f f f f f f f f f f f d s 0 9 2 @ .     . X # $ 8 t D Y | n y.u.u.u.u.u.u.",
"u.u.u.u.u.r.e.=.[ @.2.q.c.v.c.k.>.X.P r 7 2 9 9 d f f f f f f f f f f f f f s 0 4 2 @ + .   . + 1 3 8 p H { | ] t.u.u.u.u.u.u.u.",
"u.u.u.u.u.u.r.t.e.:.<.&.4.` W A x < : * # @ 2 9 s f f f f f f f f f f f f d 0 3 1 + . .     . @ 3 9 p I @.] t.i.u.u.a.u.u.u.u.u.",
"u.u.u.u.u.u.u.u.s.t.-.T k d 6 1 .           + 3 0 f f f f f f f f f f f f f 9 1 .           + 2 9 f G o.] s.h.a.u.u.u.u.u.u.u.u.",
"u.u.u.u.u.u.u.u.s.h.:.@.R D y 5 $ + . + + @ @ 3 9 0 0 9 0 0 0 9 0 0 0 0 0 9 3 @ .     . + + = 8 p G T ,.f.h.s.s.u.u.u.u.u.u.u.u.",
"y.a.a.y.y.y.a.s.s.p.f.:.@.Y Z t 6 3 2 3 2 2 2 2 3 3 2 3 2 3 2 3 2 3 2 2 2 2 @ X .   . + @ 3 8 C R o.,.j.g.s.s.s.s.a.u.y.y.u.u.y.",
"u.y.a.y.u.a.s.s.s.s.g.g.f.-.K F i s 4 0 0 4 3 2 @ X X + X + X X + + + + + + X .     . @ 3 9 p I  .j.j.g.h.s.s.s.s.i.a.u.u.u.u.u.",
"a.u.u.u.a.s.s.s.s.s.s.s.s.g.-.T ~ f f f f d 4 2 .                                   + 2 0 h G o.j.s.s.s.s.s.s.s.s.s.s.u.u.u.u.a.",
"u.u.u.a.a.d.s.h.s.s.s.s.s.h.:. .U ~ ~ ~ ~ D u 6 $ X + + X X + X X + X + X X # O % & ; r S ~ Y ,.j.s.s.s.s.s.s.s.s.s.s.s.u.u.u.u.",
"y.y.a.d.d.s.s.i.s.s.s.s.s.p.f.:.@.O.o.O.o.T F t 6 2 2 2 2 2 2 3 2 2 2 2 2 2 - > z c v J } o.,.j.h.s.s.s.s.s.s.s.i.i.s.s.a.a.a.y.",
"u.y.a.d.s.i.i.s.s.s.s.s.s.s.g.g.f.f.] j.] ] K F u 9 9 9 9 9 9 9 9 9 9 9 9 0 t B m M N ;.:.j.j.g.h.s.s.s.s.s.s.s.s.s.i.s.s.d.a.u.",
"a.d.d.d.s.p.s.s.s.s.s.s.s.s.s.s.s.s.s.h.h.h.,.T j f f f f f f f f f f f f f G { j.s.s.s.s.p.s.s.s.s.s.s.s.s.s.s.s.s.s.s.s.s.a.a.",
"d.s.s.s.s.s.d.s.s.s.s.s.s.s.s.s.s.s.s.s.h.h.] T j f f f f f f f f f f f f h G @.j.s.s.s.s.s.s.s.s.s.s.s.s.s.s.s.s.s.s.s.s.s.d.d."
};
