/* XPM */
static char *coin21711651278[] = {
/* columns rows colors chars-per-pixel */
"64 64 95 2 ",
"   c #FFA309",
".  c #FFAA0D",
"X  c #FFB412",
"o  c #FFBC15",
"O  c #FEB918",
"+  c #FFC117",
"@  c #FFC51A",
"#  c #FECC1D",
"$  c #FED11F",
"%  c #FBC424",
"&  c #FCC822",
"*  c #FED521",
"=  c #FEDC25",
"-  c #FBD62E",
";  c #FCDC2A",
":  c #F7CB34",
">  c #F8CF33",
",  c #FEE127",
"<  c #FEE429",
"1  c #FEEB2C",
"2  c #FBE735",
"3  c #FDEA33",
"4  c #F7E13D",
"5  c #F9E43B",
"6  c #FEEB3B",
"7  c #DEBE7F",
"8  c #F2CD47",
"9  c #EFD84F",
"0  c #F3D343",
"q  c #F5DC42",
"w  c #F2DB4D",
"e  c #ECCD5A",
"r  c #EFD752",
"t  c #EFD956",
"y  c #EDD55C",
"u  c #EED859",
"i  c #F0D753",
"p  c #F1DB52",
"a  c #F3DE5A",
"s  c #F5E045",
"d  c #FEEC45",
"f  c #FEEC4C",
"g  c #FAE755",
"h  c #FEEC53",
"j  c #F9E659",
"k  c #FEEC5A",
"l  c #DFC77E",
"z  c #E7CC66",
"x  c #E9CD64",
"c  c #E4C56F",
"v  c #E6CC6C",
"b  c #EAD265",
"n  c #E7D06C",
"m  c #E9D26A",
"M  c #F1DD65",
"N  c #E2C473",
"B  c #E4CD74",
"V  c #E2C478",
"C  c #E2C97D",
"Z  c #E9D372",
"A  c #F0DB71",
"S  c #FEED65",
"D  c #F6E26E",
"F  c #FEED6B",
"G  c #F5E274",
"H  c #FEED74",
"J  c #FDEC7B",
"K  c #DCBC83",
"L  c #D8B78D",
"P  c #D9B88B",
"I  c #D3AF95",
"U  c #D5B296",
"Y  c #D6BC97",
"T  c #D9BE95",
"R  c #D5B599",
"E  c #D7BD9A",
"W  c #D8BD9A",
"Q  c #DEC585",
"!  c #DCC38C",
"~  c #DAC092",
"^  c #E0C682",
"/  c #E0C880",
"(  c #F9E786",
")  c #FEED83",
"_  c #FFEE8D",
"`  c #FFEE94",
"'  c #FEED9B",
"]  c #FFEEA4",
"[  c #FFEEAD",
"{  c #FFEFB3",
"}  c #FFEFBB",
"|  c #FFEFC4",
" . c #FFEFCB",
".. c #FFEFD2",
"X. c #FFF0DB",
/* pixels */
"E E E E E E E E E E E E E E E E E E E E E E Q n p 2 1 1 1 1 1 1 1 1 1 1 1 1 5 a B ! ~ E E E E E E E E E E E E E E E E E E E E E ",
"E E E E E E E E E E E E E E E E E E E E E E Q n p 2 1 1 1 1 1 1 1 1 1 1 1 1 5 t n ! E E E E E E E E E E E E E E E E E E E E E E ",
"E E E E E E E E E E E E E E E E E E ~ ~ ~ ~ / Z u d d d d d 6 6 3 1 1 1 1 1 2 p m l ~ ~ ~ ~ E E E E E E E E E E E E E E E E E E ",
"E E E E E E E E E E E E E E E E E E ~ ! Q B A A G H F H H H S h d 1 1 1 1 1 2 s u n B / ~ ~ E E E E E E E E E E E E E E E E E E ",
"E E E E E E E E E E E E E E E E E E ~ l n u M G ( ' ] ' ' ] _ H h 6 1 1 1 1 3 5 s p u n Q ~ E ~ E E E E E E E E E E E E E E E E ",
"E E E E E E E E E ~ E E E E E E ~ ~ ~ B u s g J ' |  . . . .{ _ S 6 1 1 1 1 1 2 2 5 s b B ~ E ~ E E E E E E E E E E E E E E E E ",
"E E E E E E E E E E E E E E ~ ~ ~ ! Q n u d k J ]  .........} ` F 6 1 1 1 1 1 1 1 1 2 p n / ~ ~ ~ E E E E E E E E E E E E E E E ",
"E E E E E E E E E E E E E E ~ ~ l B Z A G F J ) _ ' ] ] ] ] ` H h 6 1 1 1 1 1 1 1 1 3 s u n C / ~ ~ E E E E E E E E E E E E E E ",
"E E E E E E E E E E E E E E ~ / m u M G ( ' ' _ ) J H J H H F k d 3 1 1 1 1 1 1 1 1 3 5 s p b n / ~ E E E E E E E E E E E E E E ",
"E E E E E E E E E E E E E E ! Z u s g J ' } { ` H k d d d d d d 6 1 1 1 1 1 1 1 1 1 1 3 2 5 s u C ~ E ~ E E E E E E E E E E E E ",
"E E E E E E E E E E E ~ ~ ~ / m a d k ) ]  .{ _ S 6 1 1 1 1 1 1 1 1 1 1 1 1 1 1 1 1 1 1 1 1 2 p m C ~ ~ ~ E E E E E E E E E E E ",
"E E E E E E E E E E ~ ~ / B Z A D H H ) ` ] ` H h 6 1 1 1 1 1 1 1 1 1 1 1 1 1 1 1 1 1 1 1 3 3 s u n C Q ~ ~ E E E E E E E E E E ",
"E E E E E E E E E E ! C Z y M G _ ` ` _ ) H F k d 1 1 1 1 1 1 1 1 1 1 1 1 1 1 1 1 1 1 1 1 1 3 5 s p u B / ~ ~ E E E E E E E E E ",
"E E E E E E E E E E Q B a s j J ' } { ` H k d 6 6 1 1 1 1 1 1 1 1 1 1 1 1 1 1 1 1 1 1 1 1 1 1 3 2 5 s u B ! ~ E E E E E E E E E ",
"E E E E E E E ~ ~ ~ C m a d k J ]  .{ _ S 6 1 1 1 1 1 1 1 1 1 1 1 1 1 1 1 1 1 1 1 1 1 1 1 1 1 1 1 1 5 p m / ~ ~ E E E E E E E E ",
"E E E E E E ~ ! / B Z A A F J ) ` ] ` H h 6 1 1 1 1 1 1 1 1 1 1 1 1 1 1 1 1 1 1 1 1 1 1 1 1 1 1 1 1 2 s u A / / ~ ~ E E E E E E ",
"E E E ~ E E ~ / n y M G ( ' ` _ ) J S k d 3 1 1 1 1 1 1 1 1 1 1 1 1 1 1 1 1 1 1 1 1 1 1 1 1 1 1 1 1 3 5 s p b n l ! E E E E E E ",
"E ~ E E E E ! Z u s j J ] } [ ` H h d 6 6 1 1 1 1 1 1 1 1 1 1 1 1 1 1 1 1 1 1 1 1 1 1 1 1 1 1 1 1 1 1 3 2 5 s b B ! E ~ E E E E ",
"E E E ~ ~ ~ / m j 5 k ) ] ..} _ S 6 1 1 1 1 1 3 6 6 6 6 6 6 6 1 1 1 1 1 1 1 1 1 1 1 1 1 1 1 1 1 1 1 1 1 1 1 2 p b l ~ ~ E E E E ",
"E E ~ ~ / B Z A D F H ) ` ] ` H h 2 1 1 1 1 6 d h S F F S F S f d 1 1 1 1 1 1 1 1 1 1 1 1 1 1 1 1 1 1 1 1 1 3 s u n B / ~ ~ E E ",
"E E ! C Z y M G ( ` ` _ ) J F k d 6 1 1 1 1 6 k H _ ` ' ' ` _ F h 2 1 1 1 1 1 1 1 1 1 1 1 1 1 1 1 1 1 1 1 1 3 5 s t b Z / ~ ~ E ",
"E E Q n u s j ( ' | { _ H h d 6 6 1 1 1 1 1 d F ` }  .| | | { _ S 6 1 1 1 1 1 1 1 1 1 1 1 1 1 1 1 1 1 1 1 1 1 3 2 5 s u B ! E E ",
"E E Q b w 3 h J [ X.| ` S 6 1 1 1 1 1 1 6 6 h J ]  .X.X.X.X.} ` F 6 1 1 1 1 1 1 1 1 1 1 1 1 1 1 1 1 1 1 1 1 1 1 1 1 2 p n ! E E ",
"E E Q m s 3 h ) { X.| ` S 6 1 1 1 1 6 d h S H ) ` ] ] [ [ [ ' H k 6 1 1 1 1 1 1 1 1 1 1 1 1 1 1 1 1 1 1 1 1 1 1 1 1 2 p n ! E E ",
"E E Q m r 3 h ) { X.| ` S 6 1 1 1 1 6 h H _ ` _ ) J J J J J H k d 3 1 1 1 1 1 1 1 1 1 1 1 1 1 1 1 1 1 1 1 1 1 1 1 1 2 p n ! ~ E ",
"E E Q b s 3 h J { X.| ` S 6 1 1 1 1 f F ` } { ` H k f h f f f d 6 3 1 1 1 1 1 1 1 1 1 1 1 1 1 1 1 1 1 1 1 1 1 1 1 1 2 p n / E E ",
"E Y Q b s 2 h ) { X.| ` S 6 1 1 1 1 f J ] X. .' F 6 1 1 1 1 1 1 1 1 1 1 1 1 1 1 1 1 1 1 1 1 1 1 1 1 1 1 1 1 1 1 1 1 2 p n ! ~ E ",
"E E Q b w 1 h ) { X.| ` S 6 1 1 1 1 f J [ X. .` F 6 1 1 1 1 1 1 1 1 1 1 1 1 1 1 1 1 1 1 1 1 1 1 1 1 1 1 1 1 1 1 1 1 2 p n ~ E E ",
"E E Q b w 3 h J { X.| ` S 6 1 1 1 1 f J [ X. .` F d 1 1 1 1 1 1 1 1 1 1 1 1 1 1 1 1 1 1 1 1 1 1 1 1 1 1 1 1 1 1 1 1 2 p n ! ~ ~ ",
"E E Q m w 3 h ) { X.| ` S 6 1 1 1 1 f J ] X. .` F 6 1 1 1 1 1 1 1 1 1 1 1 1 1 1 1 1 1 1 1 1 1 1 1 1 1 1 1 1 1 1 1 1 2 p n ! E E ",
"~ E Q b w 1 h J ] ..} _ S 3 1 1 1 1 f H ]  .| ` S 6 1 1 1 1 1 1 1 1 1 1 1 1 1 1 < 1 < 1 1 1 1 1 1 1 1 1 1 1 1 1 1 1 2 9 n ! E E ",
"E E Q m w 1 d S ) ] ` H h 3 1 1 1 1 d S ) ] ` J k 6 1 1 1 1 1 1 1 1 1 1 1 1 1 1 = = * = , < 1 1 1 1 1 , = * * = 1 1 2 p n ! E E ",
"E Y 7 z w 3 6 h S J H k d 3 1 1 1 1 6 f S J H k d 3 1 1 1 1 1 1 1 1 1 1 1 1 1 = $ # @ $ = < 1 1 1 1 < , $ # @ $ $ 1 2 9 z K Y E ",
"E U 7 z w 3 6 6 d h d d 6 1 1 1 1 1 3 6 d h f 6 6 1 1 1 1 1 1 1 1 1 1 1 1 1 < $ @ X X @ $ < 1 1 1 1 < $ @ X X @ $ < 2 9 z K R E ",
"R I 7 z w 1 1 1 1 1 1 1 1 1 1 1 1 1 1 1 1 1 1 1 1 1 1 1 1 1 1 1 1 1 1 1 1 1 < $ + . . o $ , 1 1 1 1 < $ + . . o $ = 2 9 v K I R ",
"U I 7 z 9 1 1 1 1 1 1 1 1 1 1 1 1 1 1 1 1 1 1 1 1 1 1 1 1 1 1 1 1 1 1 1 1 1 , $ o . . o $ < 1 1 1 1 < $ + . . X $ = 2 9 z P I R ",
"U U K z 9 1 1 1 1 1 1 1 1 1 1 1 1 1 1 1 1 1 1 1 1 1 1 1 1 1 1 1 1 1 1 1 1 1 , $ o . . o $ , 1 1 1 1 < $ + .   o # = 2 9 v 7 I I ",
"U U K z 9 1 1 1 1 1 1 1 1 1 1 1 1 1 1 1 1 1 1 1 1 1 1 1 1 1 1 1 1 1 1 1 1 1 , $ o . . o $ , 1 1 1 1 < $ + . . o # = 2 9 z P U I ",
"U U Q x s 2 1 1 1 1 1 1 1 1 1 1 1 1 1 1 1 1 1 1 1 1 1 1 1 1 1 1 1 1 1 1 1 1 = $ o . . + $ , 1 1 1 1 < $ + . . o # , 2 9 v K U U ",
"I I 7 x 9 3 1 1 1 1 1 1 1 1 1 1 1 1 1 1 1 1 1 1 1 1 1 1 1 1 < < < $ $ $ $ $ $ # @ o o # $ < 1 1 1 1 < $ + . . X # , 2 9 v K U U ",
"U U K x w 3 1 1 1 1 1 1 1 1 1 1 1 1 1 1 1 1 1 1 1 1 1 1 1 1 1 = $ # @ @ + @ @ @ @ # $ $ , < 1 1 1 1 < $ + .   o # , 2 9 z K U U ",
"U U K x w 1 1 1 1 1 1 1 1 1 1 1 1 1 1 1 1 1 1 1 1 1 1 1 1 1 < $ # X X X X X X + # $ = < < 1 1 1 1 1 < $ + . . O # = 2 9 v K U U ",
"U U K z 9 2 1 1 1 1 1 1 1 1 1 1 1 1 1 1 1 1 1 1 1 1 1 1 1 1 , $ + .         . + $ < 1 1 1 1 1 < 1 1 , $ o X . O # , 5 r v K U U ",
"U U K N e w q 4 2 1 1 1 1 1 1 1 1 1 1 1 1 1 1 1 1 1 1 1 1 1 , $ @ X X X X X + # $ < 1 1 1 1 1 < , $ $ # + o O % > 0 9 x l P U U ",
"U R P 7 N x y w 4 1 1 1 1 1 1 1 1 1 1 1 1 1 1 1 1 1 1 1 1 1 < , $ $ $ # @ @ $ $ , < 1 1 1 1 1 , $ # @ @ @ @ & : 8 e z N 7 P I U ",
"U I L L K K v y s 1 1 1 1 1 1 1 1 1 1 1 1 1 1 1 1 1 1 1 1 1 1 < < $ $ , $ = , < < 1 1 1 1 1 < $ # o X + # * - 0 e c 7 K L I U U ",
"U U U U R I 7 z w 3 3 1 1 1 1 1 1 1 1 1 1 1 1 1 1 1 1 1 1 1 1 1 1 1 1 1 1 1 1 1 1 1 1 1 1 < < $ o . . o & < 5 r c K U U U U U U ",
"U U U U U I K N b w s 5 3 1 1 1 1 1 1 1 1 1 1 1 1 1 1 1 1 1 1 1 1 1 1 1 1 1 1 1 1 1 1 < , = $ # + o O % : > 9 x N P U U U U U U ",
"U U U U U U L K c x e w 5 3 1 1 1 1 1 1 1 1 1 1 1 1 1 1 1 1 1 1 1 1 1 1 1 1 1 1 1 1 1 = $ # @ @ @ # & : 8 e z c K L U U U U U U ",
"U U U U U U L L K 7 v e q 3 1 1 1 1 1 1 1 1 1 1 1 1 1 1 1 1 1 1 1 1 1 1 1 1 1 1 1 1 < * # o O + # * - 8 e N 7 P P I U U U U U U ",
"U U U U U U U U U U K z i 3 1 1 1 1 1 1 1 1 1 1 1 1 1 1 1 1 1 1 1 1 1 1 1 1 1 1 1 1 , # o . . O # ; 2 i c K U U U U U U U U U U ",
"U U U U U U U U R U P N b w s 5 2 1 1 1 1 1 1 1 1 1 1 1 1 1 1 1 1 1 1 1 1 1 1 < = = $ # + o O % > 4 w x V L U U U U U U U U U U ",
"U U U U U U U U I U P Q B b u w 5 3 1 1 1 1 1 1 1 1 1 1 1 1 1 1 1 1 1 1 1 1 1 = * @ @ @ @ @ & : 8 y m B Q L U I U U U U U U U U ",
"U U U U U U U U U U T ! ^ C n u s 3 1 1 1 1 1 1 1 1 1 1 1 1 1 1 1 1 1 1 1 1 , * # o o + # * - 0 e v l ! T W R I U U U U U U U U ",
"U U U U U U R U R W E E E W ! m w 3 1 1 1 1 1 1 1 1 1 1 1 1 1 1 1 1 1 1 1 1 , # o . . O # < 2 t B ! W E T E W U U U U U U U U U ",
"U U U U U U U U E E E E E W Q B b w s 5 2 1 1 1 1 1 1 1 1 1 1 1 , = = * = * * # o o O % > q p b C ^ W E E E W W U U U U U U U U ",
"I U R I I U R E E E E E E E T Q B m u p 5 3 1 1 1 1 1 1 1 1 < = $ # @ @ @ @ @ @ @ @ & : 8 y m B ^ ~ E E E E E E E R U I U R U I ",
"U U U R U U E E E E E E E E T ! ! Q n u s 3 1 1 1 1 1 1 1 1 < * @ o X X X X o + # * - 0 e B C ! ~ ~ E E E E E E E Y R U U U U U ",
"R U I U R E E E E E E E E E E E E E Q m t 2 1 1 1 1 1 1 1 1 , # o .         . o $ , 2 i v ! E E E E E E E E E E E E W R I U U U ",
"U U U R R W E ~ E E E E E E E E E ~ Q l b s s 5 2 1 1 1 1 1 , * @ o X X X X O & > q i b C ! E E E E E E E E E E E E W R R U U U ",
"I U R R W E Y Y E E E E E E E E E E ~ Q B b y s 4 3 1 1 1 1 < = * # @ @ + @ & : 0 y b C ^ ~ E E E E E E E E E E E Y E W W W U I ",
"I R W W E Y E E E E E E E E E E E E ~ ~ Q Q Z y s 2 1 1 1 1 1 < = * * * * * - 0 e B ^ Q ~ E E E E E E E E E E E E Y Y E W R R I ",
"R E W W E E E E E E E E E E E E E E E E ~ ~ Q n p 2 1 1 1 1 1 1 1 1 1 1 1 1 5 t B ! E ~ E E E E E E E E E E E E E E W E E W R R ",
"W W W W E E E E E E E E E E E E E E E E E E Q m p 2 1 1 1 1 1 1 1 1 1 1 1 1 5 t Z ~ E E E E E E E E E E E E E E E E E E E W W W "
};
