/* XPM */
static char *coin61711651278[] = {
/* columns rows colors chars-per-pixel */
"64 64 177 2 ",
"   c #FFA309",
".  c #FFAC0D",
"X  c #FFB00F",
"o  c #FDAE15",
"O  c #FBAC1B",
"+  c #FFB411",
"@  c #FFBC15",
"#  c #F7A726",
"$  c #F7A826",
"%  c #F9AA21",
"&  c #F4A52C",
"*  c #F5A92C",
"=  c #FABE25",
"-  c #F7B62D",
";  c #F8BB2B",
":  c #F4B433",
">  c #F5BB35",
",  c #F1B33E",
"<  c #F4BF38",
"1  c #FFC117",
"2  c #FFC519",
"3  c #FECB1C",
"4  c #FED01F",
"5  c #FACB2C",
"6  c #FED421",
"7  c #FEDC25",
"8  c #FCDC2C",
"9  c #F7C434",
"0  c #F7CD35",
"q  c #F4C53B",
"w  c #F4CD3E",
"e  c #FADE33",
"r  c #F6D23B",
"t  c #F8DF3C",
"y  c #FEE027",
"u  c #FEE529",
"i  c #FEEB2C",
"p  c #FBE736",
"a  c #FEEB33",
"s  c #F9E53B",
"d  c #FEEB3D",
"f  c #EFAC42",
"g  c #EBAB4D",
"h  c #EDB44E",
"j  c #EDB94E",
"k  c #F1BF45",
"l  c #EBAC51",
"z  c #EAB354",
"x  c #EBBC55",
"c  c #E7B25F",
"v  c #EABE5A",
"b  c #DFAE72",
"n  c #DFB877",
"m  c #DFB77C",
"M  c #DFBC79",
"N  c #E3B56E",
"B  c #E0AE72",
"V  c #E0B475",
"C  c #E3BA71",
"Z  c #E0B779",
"A  c #E2BD7A",
"S  c #F0C548",
"D  c #F4D241",
"F  c #F5DE44",
"G  c #F0D24D",
"H  c #F4DE49",
"J  c #ECC556",
"K  c #E9C45C",
"L  c #EACC5D",
"P  c #EFDA55",
"I  c #ECD45D",
"U  c #EED959",
"Y  c #F0DA55",
"T  c #F3DE5F",
"R  c #F6E242",
"E  c #FBE742",
"W  c #FEEC45",
"Q  c #F6E04F",
"!  c #FEEC4B",
"~  c #F4E056",
"^  c #FEEC53",
"/  c #F6E15C",
"(  c #FEEC5B",
")  c #DFC07B",
"_  c #E9CF61",
"`  c #E6CF6F",
"'  c #EAD464",
"]  c #E7D06D",
"[  c #E9D26B",
"{  c #E2C376",
"}  c #E5CD72",
"|  c #EACF70",
" . c #E2C57A",
".. c #E2CA7C",
"X. c #ECD573",
"o. c #EBD57E",
"O. c #F6E164",
"+. c #FEED65",
"@. c #F6E16F",
"#. c #FEED6B",
"$. c #F5E174",
"%. c #FEED74",
"&. c #F5E179",
"*. c #FEED7C",
"=. c #DDB985",
"-. c #DABB8E",
";. c #D3AF95",
":. c #D5B296",
">. c #D9B197",
",. c #D6BC97",
"<. c #D9BE95",
"1. c #D5B599",
"2. c #D8B49A",
"3. c #D7BD9A",
"4. c #D9BC9B",
"5. c #DFC584",
"6. c #DCC38C",
"7. c #DAC092",
"8. c #DCC39D",
"9. c #E1C483",
"0. c #E0C881",
"q. c #EACF87",
"w. c #E1C48E",
"e. c #E3CA8C",
"r. c #ECD585",
"t. c #ECD38A",
"y. c #F4DE80",
"u. c #F1DE8B",
"i. c #E2C493",
"p. c #E2C59C",
"a. c #E4CB9E",
"s. c #ECD394",
"d. c #EBD39B",
"f. c #F3DE96",
"g. c #F6E184",
"h. c #F8E584",
"j. c #FEED83",
"k. c #FFEE8B",
"l. c #F7E294",
"z. c #F8E697",
"x. c #FFEE92",
"c. c #F6E29A",
"v. c #FFEE9B",
"b. c #DBC2A2",
"n. c #DEC6A8",
"m. c #DFC8AA",
"M. c #E2C5A5",
"N. c #E1C5AD",
"B. c #E2C9AB",
"V. c #ECD4A4",
"C. c #ECD4AE",
"Z. c #ECD9AF",
"A. c #F4DEA2",
"S. c #E4CEB3",
"D. c #EBD3B3",
"F. c #EAD4BC",
"G. c #F7E2A7",
"H. c #FFEEA4",
"J. c #F7E3AB",
"K. c #FFEEAB",
"L. c #F7E5B5",
"P. c #FFEFB4",
"I. c #F6E2BC",
"U. c #FFEFBB",
"Y. c #ECD4C3",
"T. c #EFDCC9",
"R. c #F1DECB",
"E. c #F5E1C2",
"W. c #FFEFC4",
"Q. c #F7E3CC",
"!. c #FFEFCB",
"~. c #F7E3D6",
"^. c #FFEFD2",
"/. c #FAEADB",
"(. c #FFF0D6",
"). c #FFF0DB",
"_. c #FFF0E3",
/* pixels */
"3.3.3.3.3.3.3.3.3.3.3.3.3.3.3.3.3.3.3.3.3.3.3.3.3.3.) ' R i i i i a H ' 0.b.7.3.3.3.3.3.3.3.3.3.3.3.3.3.3.3.3.b.,.,.3.3.3.3.3.3.",
"3.3.3.3.3.3.3.3.3.3.3.3.3.3.3.3.3.3.3.3.3.3.3.7.3.7...' R i i i i i H ' 0.7.3.3.3.3.3.3.3.3.3.3.3.3.3.3.3.3.3.3.3.3.3.3.3.3.3.3.",
"3.3.3.3.3.3.8.3.3.3.3.3.3.3.3.3.3.3.3.3.3.3.,.7.7.6.` U R i a d d W ~ X.e.b.b.b.3.3.3.,.3.,.,.3.3.3.3.3.3.3.3.3.3.3.3.3.3.3.3.3.",
"3.3.3.3.3.3.3.3.3.3.3.3.3.3.3.3.3.3.3.3.3.8.7.5...` I H s i d ! +.%.h.f.Z.S.m.b.b.3.3.,.3.b.3.3.3.3.3.3.3.3.3.3.3.3.3.3.3.3.3.3.",
"3.3.3.3.3.3.3.3.3.3.3.3.3.3.3.3.3.3.3.3.8.7.5.} ' P H s p a ! #.j.v.J.L.T.T.F.m.m.7.b.,.3.3.b.3.3.3.3.3.3.3.3.3.3.3.3.3.3.3.b.,.",
"3.3.3.3.3.3.3.3.3.3.3.3.3.3.3.3.3.3.3.3.,.8.) [ H s s p i a ( *.K.!.(.^././.R.F.m.7.,.b.3.,.,.3.3.3.3.,.3.3.3.3.3.3.3.3.3.3.3.,.",
"3.3.3.3.3.3.3.3.3.3.3.3.3.3.3.3.7.3.7.7.7.6.} U R i a a d W %.v.W._._.).(.(.E.Z.a.7.7.7.,.3.3.3.3.3.3.,.3.3.3.3.3.3.3.3.3.3.3.3.",
"3.3.3.3.3.3.3.3.3.3.3.3.3.8.3.3.8.7.7.5.) ` ' H s i W ! ( %.x.K.^._.(.W.P.H.z.u.o.} ) 6.7.3.3.3.3.3.3.b.3.3.3.3.3.3.3.3.3.3.3.3.",
"3.3.3.3.3.3.3.3.3.3.3.3.3.3.3.3.3.<.5.} ' P Q s p i ! #.j.v.P.W.(._.!.K.x.%.#.@.T U [ ..6.7.b.3.3.3.3.3.3.3.3.3.3.3.3.3.3.3.3.3.",
"3.3.3.3.3.3.3.3.3.3.3.3.3.3.3.3.3.7.) [ ~ s p p a a ( j.K.!.(.)._._.U.x.#.! W E s s P [ 6.7.,.,.3.3.3.3.3.3.3.,.3.3.3.3.3.3.3.3.",
"3.3.3.3.3.3.3.3.3.3.3.3.3.3.3.3.3.7...I R i a a d W #.v.W._._.).(.(.K.*.^ i a a d W ~ [ 5.7.,.3.3.3.3.3.3.3.b.,.3.3.b.3.3.3.3.3.",
"3.3.3.8.3.3.3.3.3.3.3.3.3.3.3.3.3.7...U R i W ! ( %.x.P.!._.(.W.P.H.j.#.! i d ! ( #.$.r.7.3.3.3.3.3.3.3.3.3.3.3.3.3.,.,.3.3.3.3.",
"3.3.3.3.3.3.3.3.3.3.3.3.3.3.3.3.3.7...' R a ! #.j.v.P.W.(._.W.K.x.%.+.! d i W +.*.v.c.d.a.7.3.3.3.3.3.3.3.3.3.3.3.3.3.3.3.3.3.3.",
"3.3.3.3.3.3.3.3.3.3.3.3.3.3.3.8.3.<...U R a ( j.K.!.(.(._._.U.x.#.! W d a i ^ *.H.!.I.Z.n.b.3.,.3.3.,.b.3.3.3.3.3.3.3.3.3.3.3.3.",
"3.3.3.3.3.3.3.3.3.3.3.3.3.3.3.3.3.7...' Q W #.v.W._._.).).(.H.*.^ i a a d W +.k.P.(.E.F.m.3.3.,.3.3.,.,.3.3.3.3.3.3.3.3.,.b.3.3.",
"3.3.3.3.3.3.3.3.3.3.3.3.3.3.3.3.3.8.e.o.$.%.x.P.!._.(.W.P.H.j.#.! i d ! ( #.*.k.v.H.A.d.8.7.3.b.3.3.3.3.3.3.3.3.3.3.3.3.,.3.3.3.",
"3.3.3.3.3.3.3.3.3.3.3.3.3.3.3.3.3.4.8.s.c.v.P.W.(._.W.K.x.*.+.! d i ! +.j.v.x.j.*.*.y.q.<.1.4.4.b.,.,.3.3.3.3.3.3.3.3.3.3.3.3.3.",
"3.3.3.3.3.3.3.3.3.3.3.3.3.3.3.3.4.4.n.F.I.!.(./._._.U.x.#.! W d a i ( *.H.W.K.k.#.! T } 9.:.1.3.,.,.3.3.3.3.3.3.3.3.3.3.3.3.3.3.",
"3.3.3.3.3.3.3.3.3.3.3.3.3.3.3.3.1.1.N.Y.~._._.).).(.H.*.^ i a a a W +.k.P.(.K.j.^ i F _ A :.:.1.3.3.b.,.3.,.3.3.3.3.3.3.3.3.3.3.",
"3.3.3.3.3.3.3.8.3.3.3.4.4.4.1.3.;.1.N.Y.~._.(.W.P.H.j.+.W i d ! ( #.*.k.v.H.k.#.! i F ' M ;.:.:.1.1.3.3.3.3.3.3.3.3.3.3.3.3.3.3.",
"3.3.3.3.3.3.3.3.3.3.3.4.3.3.1.:.:.2.N.Y.~._.!.K.x.*.+.! d i ! #.j.x.x.k.j.%.+.^ W i F _ ) :.:.:.;.1.1.3.b.,.3.3.3.3.3.3.3.3.3.3.",
"3.3.3.3.3.3.3.3.3.3.3.4.4.:.:.;.:.2.N.Y.~._.U.x.#.! W d a i ( *.H.W.K.j.#.! W d a i H _ ) :.:.:.;.;.,.b.3.,.3.3.3.3.3.3.3.3.3.3.",
"3.3.3.3.3.3.3.3.3.3.3.3.:.:.;.:.>.2.M.F.Q.(.H.*.^ i i a d d +.k.P.(.K.j.( i i i u y F L A :.:.:.;.;.;.;.,.3.3.3.3.3.3.3.3.3.3.3.",
"3.3.3.3.3.3.3.3.3.3.3.3.;.;.:.:.:.1.p.V.G.H.j.+.W a d ! ( #.*.k.v.H.k.+.! i y 7 7 6 D v Z :.:.;.1.;.;.,.1.3.3.3.3.3.3.3.3.,.b.3.",
"3.3.3.3.3.3.3.3.4.4.1.1.>.;.:.:.:.1.w.r.g.*.+.! d a ! +.*.x.x.k.j.*.+.^ d i y 6 3 1 < x n ;.:.:.:.:.:.:.:.1.1.3.3.3.3.3.3.3.3.3.",
"3.3.3.3.3.3.3.3.3.1.1.;.:.:.:.:.:.:.9.[ / ! W d a a ( *.H.W.H.j.#.! W d a i 7 3 @ + : l b :.:.:.:.:.:.:.;.1.1.3.3.3.3.3.3.3.3.3.",
"3.3.3.3.3.3.3.,.1.1.;.;.:.:.:.:.;.>.{ I R i a a a d +.k.U.(.K.*.( i i i i u 7 2 +   * l b :.:.:.:.:.:.:.:.;.:.3.3.,.b.,.3.3.3.3.",
"3.3.3.3.3.3.3.,.;.1.;.;.:.:.:.:.;.-.{ I F i d ! ( #.*.k.v.H.k.#.W i i 7 7 6 3 2 @ @ > z n :.:.:.:.:.:.:.1.;.:.:.;.b.,.3.3.,.3.3.",
"3.3.3.4.4.4.1.;.:.:.;.:.:.:.:.;.>.-.{ L t i ! +.j.x.x.k.j.*.+.^ d i y 6 3 1 2 2 2 3 q v Z :.:.:.;.:.:.:.;.1.;.:.;.1.1.3.3.3.3.3.",
"3.3.3.3.4.1.;.;.:.:.:.:.:.:.:.>.:.:.{ I R a ( *.H.W.H.j.#.! W d a i 7 4 @ o @ 2 6 7 D K M :.:.:.:.:.:.:.1.;.:.:.;.1.1.1.3.3.3.3.",
"3.3.3.3.:.1.;.:.:.:.:.:.:.:.:.>.:.:.C ' H d +.x.U.(.K.*.^ i i i i u 6 2 + . + 3 7 i H _ M :.:.:.:.:.:.:.1.;.,.;.;.;.1.1.3.3.3.3.",
"3.3.3.1.;.;.:.:.:.:.:.:.:.:.:.2.:.-.9.o.@.#.*.k.v.K.j.#.! i u y 6 6 3 2 1 + 2 4 7 i H _  .:.:.:.>.:.:.:.;.;.;.;.,.;.;.;.1.3.3.3.",
"b.4.:.:.>.>.:.;.:.:.1.:.:.:.:.:.:.1.i.s.l.x.k.k.j.*.+.^ s i u 6 3 2 2 2 2 3 4 7 u i H _ ) :.:.:.:.:.:.:.:.:.:.:.:.:.:.>.:.1.4.b.",
"1.1.:.:.;.:.:.:.:.:.;.:.:.:.:.:.:.1.M.C.L.U.H.j.#.^ W p a u 7 3 @ + @ 2 6 y y u u i F _ ) :.:.:.:.:.:.:.:.:.:.:.>.1.:.;.;.:.1.1.",
"1.1.;.:.:.:.:.:.:.:.:.:.:.:.:.:.:.1.m.Y.~.(.K.*.^ i i i i i 6 2 + . + 3 6 i i i i u F _ ) :.:.:.:.:.:.:.:.:.:.:.>.:.:.:.:.;.1.1.",
";.;.:.:.:.:.:.:.:.:.:.:.:.:.:.:.:.1.8.V.J.H.k.#.W i i y 7 4 3 2 1 + 2 4 y i u y 7 6 q K M :.:.:.:.:.:.:.:.:.:.:.:.:.:.:.;.;.;.:.",
":.:.;.:.:.:.:.>.:.>.;.:.:.:.:.:.:.:.e.t.g.j.+.^ s i u 6 3 2 2 3 2 3 4 6 u i y 4 3 1 9 v V :.:.:.:.:.:.:.:.:.:.:.;.:.:.:.:.:.:.:.",
":.1.:.:.:.:.:.:.:.1.:.:.:.:.:.:.:.:.9.X./ ^ ! d a i 7 4 @ + @ 2 4 7 u u i i 7 4 @ o : l V :.:.:.:.:.:.:.:.:.:.:.:.:.:.:.:.:.:.:.",
":.:.:.:.:.:.;.>.:.:.:.:.>.:.:.:.;.-.{ I R u i u i u 6 2 +   + 3 7 i i i i i 6 2 +   & l B :.:.:.:.:.:.:.:.:.:.:.:.:.:.:.:.:.:.:.",
";.:.:.:.:.:.1.>.:.:.:.:.>.1.:.:.;.-.{ L R i u y 7 4 3 2 @ @ 2 4 y i u y 7 6 2 @ .   & g B :.:.:.:.:.:.:.:.:.:.:.>.1.:.:.:.:.:.:.",
"1.:.:.:.:.:.:.:.:.:.:.:.:.:.:.:.;.-. .I t u 7 6 3 2 2 3 2 3 4 7 u i y 4 3 2 @ X .   & g B :.:.;.:.:.:.:.:.:.:.:.>.;.>.:.:.:.:.:.",
":.:.:.:.1.;.:.:.:.:.:.:.:.:.:.:.;.>.{ I F i 7 3 1 + @ 2 4 7 y u i i 7 4 1 X . .     & g B ;.:.:.:.:.:.:.:.:.:.:.:.:.1.:.:.:.:.:.",
":.:.:.:.1.:.:.:.:.:.:.:.:.:.:.:.:.;.C I R i 6 2 +   + 3 7 i i i i i 4 3 X           & l b ;.:.:.:.1.;.:.:.:.:.:.:.:.:.:.:.:.:.:.",
":.:.:.:.>.:.:.:.:.:.:.:.:.:.:.:.;.-.C J r 6 3 2 1 + 2 4 y u u y 6 4 3 @ X     . o + > z m ;.1.:.:.;.1.:.:.:.:.:.:.:.:.:.:.:.:.:.",
":.:.:.:.;.:.:.:.:.:.:.:.:.:.:.:.;.:.C J 9 2 2 2 3 3 4 7 u i y 6 4 2 @ X .   . X @ 2 q K M 1.:.;.:.:.:.:.:.:.:.:.:.:.:.;.:.:.:.:.",
":.:.:.;.:.:.:.:.:.:.:.:.:.:.:.:.;.-.N j - X 1 2 4 7 7 u u u 7 3 1 X . .     X 1 3 7 D L  .3.1.;.:.:.:.:.:.>.:.:.:.:.:.>.:.:.1.:.",
":.:.1.>.:.:.:.:.:.:.:.:.:.:.:.:.1.-.N g $ . + 3 7 i i u i u 6 2 X           + 2 7 i R I ..3.3.:.:.:.:.1.:.1.:.:.:.:.:.1.:.:.;.:.",
":.:.:.:.:.:.:.:.:.:.:.:.:.:.:.:.3.-.C j - + 2 6 u i u u y 6 3 @ .     . . X 3 4 7 i Q ' ..3.3.4.:.:.;.>.:.:.:.:.:.:.:.:.:.:.:.:.",
":.:.:.:.;.:.:.:.;.:.1.>.;.:.1.4.7.,.) J 9 3 4 7 u i y 7 3 2 @ + .   . + @ 3 4 7 i i H ' 5.,.3.3.4.1.;.;.;.1.:.;.:.:.:.:.:.:.:.:.",
":.:.:.1.>.1.:.:.:.:.;.2.;.1.1.1.b.7.) L r 7 y u u u 7 3 1 X X       X @ 3 7 y u i i H ' ) 3.3.3.4.2.1.1.>.1.:.:.:.:.:.:.:.:.:.:.",
":.:.:.:.:.:.:.:.:.1.;.:.:.3.b.3.7.7...' s i i i u u 6 2 o           + 3 7 i i i i i H ' 0.7.,.3.3.3.1.1.:.;.:.:.:.:.:.:.:.:.:.1.",
":.:.:.:.:.:.:.:.:.:.;.1.3.3.3.8.7.7...U t i u u 7 6 3 @ .     . X + 1 4 y i i i i i H ' ) b.,.,.8.3.3.4.:.:.:.:.:.:.:.:.:.:.:.>.",
":.:.:.:.:.:.:.:.;.:.:.3.3.3.3.,.3.7.) I s i u 4 4 2 @ X .   . + 1 3 4 6 u i i i i i R ' ) 8.7.b.3.,.3.3.3.1.:.;.:.:.:.:.:.:.:.:.",
":.:.:.:.:.:.:.:.:.1.4.3.3.,.,.3.,.7...' R i 4 4 1 + . .     X @ 3 6 y u i i i i i i R ' 5.7.b.,.3.3.,.3.4.3.1.;.:.:.:.:.:.:.:.:.",
":.:.1.:.1.:.:.:.1.1.3.3.,.3.3.3.b.7.) I R i 4 2 o           + 3 7 i i i i i i i i i H ' ) 8.3.3.3.3.,.,.4.3.3.:.:.:.1.;.:.:.:.:.",
":.:.;.:.>.;.:.:.3.3.3.,.3.3.3.4.7.7...` U H 9 5 o     . . + 2 4 y i i i i i p s s H I ` 6.3.3.3.3.3.3.3.,.3.3.3.1.:.:.:.:.:.:.:.",
";.:.:.:.;.:.1.3.3.3.3.3.3.3.3.3.3.,.7.) ] ' S : O   . + @ 3 6 7 u u i i i i s H P ' } ) 6.8.3.3.3.3.3.3.3.3.3.3.4.1.:.:.:.1.:.;.",
":.:.:.:.:.:.3.3.3.3.3.3.3.3.3.3.3.3.7.6...) v , %   X 1 3 7 7 u u i i i i i s P [ ) 5.6.7.8.3.3.3.3.3.3.3.3.3.3.3.2.1.:.:.;.:.:.",
":.:.:.:.1.3.3.3.3.3.3.3.3.3.3.3.b.,.3.3.7.7.n g &   + 3 7 u i i i i i i i i H ' 5.8.3.3.8.7.3.3.3.3.3.3.3.3.3.3.3.3.4.1.1.;.:.:.",
">.1.:.:.1.3.,.8.3.3.3.3.3.3.3.3.3.3.3.3.7.7.m c f * ; 5 8 i i i i i i s s H I ` 5.3.3.3.,.,.3.3.3.3.3.3.3.3.3.3.3.3.3.2.1.:.:.:.",
";.:.1.2.3.3.3.,.8.3.3.3.3.3.3.3.3.3.3.3.,.,.=.b c g q w e i i i i i s H U ' ` ) 6.3.3.3.3.3.3.3.3.3.3.3.3.3.3.3.,.3.3.3.2.1.:.;.",
";.1.4.3.3.,.,.3.3.3.3.3.3.3.3.3.3.3.3.3.7.7.-.,.M n K G s i i i i i s P ] ..5.6.7.3.3.3.3.3.3.3.3.8.3.3.3.3.3.3.3.,.,.3.4.4.1.;.",
"1.1.3.3.3.,.3.4.3.3.3.3.3.3.3.3.3.3.3.3.3.3.,.3.7.7.) I H i i i i p H ' 5.7.7.8.3.3.3.3.3.3.3.3.3.3.3.3.3.3.3.3.3.3.3.,.3.3.1.1.",
"3.3.3.3.3.3.4.3.3.3.3.3.3.3.3.3.3.3.3.3.3.3.,.7.b.7...U s i i i i i H ] 5.,.b.7.3.3.3.3.3.3.3.3.3.3.3.3.3.3.3.3.3.3.3.8.3.3.3.3."
};
