/* XPM */
static char *coin71711651279[] = {
/* columns rows colors chars-per-pixel */
"64 64 76 1 ",
"  c #FFA309",
". c #FFAB0D",
"X c #FFB411",
"o c #FFBB15",
"O c #FFC117",
"+ c #FFC419",
"@ c #FECB1C",
"# c #FED01F",
"$ c #FED521",
"% c #FEDC25",
"& c #FEE127",
"* c #FEE429",
"= c #FEEB2C",
"- c #FBE635",
"; c #FDEA33",
": c #F7E33F",
"> c #F9E53A",
", c #FEEB3B",
"< c #F0D74F",
"1 c #F2DA4D",
"2 c #EFD751",
"3 c #EFD957",
"4 c #EDD75D",
"5 c #EED85A",
"6 c #F0D750",
"7 c #F1DA51",
"8 c #F5E144",
"9 c #FEEC43",
"0 c #FEEC4B",
"q c #FEEC55",
"w c #FEEC5B",
"e c #EACF63",
"r c #E6CB6A",
"t c #E8CF6C",
"y c #E9D366",
"u c #E7D06D",
"i c #E9D16A",
"p c #E1C475",
"a c #E4CC74",
"s c #E0C77F",
"d c #E1C97D",
"f c #FEEC63",
"g c #FEED6C",
"h c #FEED73",
"j c #FEED7C",
"k c #DCBC84",
"l c #D7B78E",
"z c #DBBB8B",
"x c #D3AF95",
"c c #D5B296",
"v c #D9B197",
"b c #D6BC97",
"n c #D9BF95",
"m c #D5B598",
"M c #D7BD9A",
"N c #D8BC9B",
"B c #DEC586",
"V c #DCC38C",
"C c #DAC092",
"Z c #E0C583",
"A c #E0C880",
"S c #E0C589",
"D c #FEED83",
"F c #FFEE8B",
"G c #FFEE93",
"H c #FFEE9C",
"J c #FFEEA3",
"K c #FFEEAB",
"L c #FFEFB3",
"P c #FFEFBB",
"I c #FFEFC6",
"U c #FFEFCD",
"Y c #FFEFD1",
"T c #FFF0D6",
"R c #FFF0DB",
"E c #FFF0E3",
/* pixels */
"MMMMMMCMMMMMCMMMMMMMMCu3>============>7uVCMMMMMMMMMMMMMMMMMMMMMM",
"MMMMMMNNMMMMMMMMMMMMCVu3>============,7uVCMMMMMMMMMMMMMMMMMMMMMM",
"MMMMMMMMMNMMMMMMMCCVCBy1;;;,99,;=====;7yAVCCMMMMMMMMMMMMMMMMMMMM",
"MMMMMNMMMMMMMMMMCCVBsi38>;9qfgq0;====;83yaAVCMMMMMMMMMMMMMMMMMMM",
"MMMMMMMMMMMMMMMMCCBu418>=,qhGGhq,====->875uACMMMMMMMMMMMMMMMMMMM",
"MMMMMMMMMMMMMMMMCVay8>-;=9fGPPFg9=====;->84aCMMCMMMMMMMMMMMMMMMM",
"MMMMMMMMMMMMMCMCCsy1-;,,,qDKYYJh9========;1yACCCMMMMMMMMMMMMMMMM",
"MMMMMMMMMMMMMCVBay38;,9qgjHPTYJh9========;83yaAVCMMMMMMMMMMMMMMM",
"MMMMMMMMMMMMMCAu478>;,qhGKPURUJh9=========>874udCMMMMMMMMMMMMMMM",
"MMMMMMMMMMMMMVay8>>;=9gGPUTRETJh9=========---85aVMMMMMMMMMMMMMMM",
"MMMMMMCMMMCCVBy8,=;,,qDKTEETTIGg9============-1yAVCCMMMMMMMMMMMM",
"MMMMMMMMMCCAai50=;0qgjHPTTUPLGhw,============;83gAAVCMMMMMMMMMMM",
"MMMMMMMMCVsu438>=,whGJPUETPJDgw0,=============>874uAVMMMMMMMMMMM",
"MMMMMMMMMVa58>-;=9gGPUTRETKDw0,,;=============;>>84aVMMMMMMMMMMM",
"MMMMMMMMMVu7-=;,,wDKTERRTPGg,====================;7iVMMMMMMMMMMM",
"MMMMMMMMCVi3-,9qfDHPTRUILGjw,====================;7iVMMMMMMMMMMM",
"MMMMMMMMMVu7,,qhGJPURTPHDhw0,====================-7uVCbMMMMMMMMM",
"MMMMMMMMCVu7-0gGPUTRETKDw0,,=====================-7iVbCMMMMMMMMM",
"MMMMMMMMNVu7-9hHITTTRPGg,========================;7iVCMMMMMMMMMM",
"MMMMMMMMCBu7-9fjHKKKKHjq,========================;7uCMMMMMMMMMMM",
"MMMMMMMMMBu7-,0fhjjjjhq0,========================;1uBCMMMMMMMMMM",
"MMMMMMMMMBu7-=,99000099,=========================-2uCCMMMMMMMMMM",
"MMMMMMMMCVu6-=============;;,;;==================-7yVCMMMMMMMMMM",
"MMMMMMMMMBu2-============;9qffq9;================-7uBbMCMMMMMMMM",
"MMMMMMMMMVa2-============,qgDFgq,================-<rkmMMMMMMMMMM",
"MMMMMMMMNzr<-============9gFLLFg,================*<rkmmMMMMMMMMM",
"MMMMMNMMckr<-==========;,0hHUIHg0================-<rkxcmMMMMMMMM",
"MMMMMMMmckr<-========;9qfgDGJHjw,================-<rkxccmMMMMMMM",
"MMMMNNmxckr6-========,qgDGFDDhf0;================-<rkxmcxmmMMMMM",
"MMMNNmmxxkr6-========9gFLLHjw09,=================-<rkxccxmmMMMMM",
"MMMMmmxxckr6>========9hHUIHg9====================-<rkmxmxxxmMMMM",
"MMMMxxxmxkr6-========,fjHHjw,=====*&##&**========*<rkxmmmxxmmMMM",
"NMcccvccxkr2-========,0wjhw0;=====%#@+#%*========;1rkcccccxvccMN",
"Nccxcxccckr2>========;,9009;;====*$+oX@#&=========1rkcccccvcccmN",
"mmccccccckr2;===========;========&#O..o#&========*<rkccccccccxcm",
"cmcxccccckr2-=================&&$#@Ooo@$*========-<rkcccccccccxm",
"xcccccccckr2-=================%#@+@+@@#&=========-<rklcccccccccx",
"cxccccccckr1-================&#@XXO@#&**=========-<rkxcccccccccc",
"vcccccccckr2-;===============&#O..O#&============-<rkccccvcccccx",
"ccccccccckr2-=================##Oo@#*============-<rkcccvccccccc",
"ccccccccckr1-=================&#@@#&*============-<rkccccccccccc",
"ccccccccxkr2-=================&&%%**=============*<rkccccccccccc",
"ccccccccxBr2-====================================-1rkccccccccccc",
"ccccccccxkr2-========================**&%#%###&&*-1rkcccccccccvc",
"cccccccvmkr2;========================*&#@+OO+@#&*-1rkccccccccccc",
"ccccccccxkr2>========================*#@oXXXXX+#&-<rkccccccccccc",
"ccccccccxkr1;========================*#O.    .o#%-<ekvmccccccccc",
"cccmccccxBr1>=====================*&%#+X.  .XX+#&-<rkccccccccccc",
"cccccmccckr6>====================*&#@+o.. .oO@$%*-1rzvcccccccccc",
"ccccccvcckr2>*====================#@o..   XO@%&**;<rkccccccccccc",
"ccccccccckr2>====================*#o.    .o#&====;1rkxcccccccccc",
"cccccccmckpe18>-==============*&%#OX. ..XX+$*=->81ypzxcxcccccccc",
"vcccccccxlkai51>;=============&#@+o.. .oO@$%*;:15yaBncmxcccccccc",
"ccccccccxbCBAa51;============*#@o...  X+#%%&=;84uBBVnNmccccccccc",
"cccccccccNMMMBu7;============*#o.    .o#&;===;3iBMMnMMMccccccccc",
"ccccccccNMMMMVay78>>;========*#O. ...o@#&=-::1yaVMMMnMMNcccccccc",
"xccxxxmMMMMMMCAay518;========&#o. .oO@#%*;:75yaBCMMMMMMMMmcccccc",
"cccmxmMMMMMMMnCBBa48;========*#O. X+#%&&=-84uBVVCMMMMMMMMNcccxcc",
"ccccmMMMMMMMMMMMCCu3>========*#O. o#&===;,8uBMMMMMMMMMMMMMNvcxcc",
"cccmmMMMMMMMMMMMCCay18>;=====*#@oo@#*=->88uaVMMMMMMMMMMMMMMNmccc",
"cmmmMMMMMMMMMMMMMCVay51>;====*%#@@#%*;:15yaBCMMMMMMMMMMMMbMMNmcc",
"xcNNMMnMMMMNMMMMMCCVsa41-=====*%%%&*=-84aBBCCMMMMMMMMMMMMbbMNmmx",
"mMNNMMNNMMMMMMMMMMMMCVu3>=======*===;-2uBCCMMMMMMMMMMMMMMMbMMNNm",
"NMMMCMNNMNMMMMMMMMMCCVu2>============-3uCNNMMMMMMMMMMMMMMMMMMNNN"
};
