/* XPM */
static char *coin81711651279[] = {
/* columns rows colors chars-per-pixel */
"64 64 105 2 ",
"   c #FFA50A",
".  c #FFAD0E",
"X  c #FFB00F",
"o  c #FFAF10",
"O  c #FFB411",
"+  c #FFBB15",
"@  c #FDBC1B",
"#  c #FFC017",
"$  c #FFC419",
"%  c #FECB1C",
"&  c #FED11F",
"*  c #FAC927",
"=  c #FAC629",
"-  c #FAC928",
";  c #FED421",
":  c #FEDC25",
">  c #F7CF36",
",  c #F6CB39",
"<  c #F7D237",
"1  c #F9D534",
"2  c #FEE127",
"3  c #FEE529",
"4  c #FEEB2C",
"5  c #FBE734",
"6  c #FDEA32",
"7  c #F7E23F",
"8  c #F9E43B",
"9  c #FEEB3C",
"0  c #DFBF7D",
"q  c #F1CE4B",
"w  c #F4D744",
"e  c #F5DD44",
"r  c #F1D14A",
"t  c #F3DE4A",
"y  c #E9CB5D",
"u  c #EED555",
"i  c #EFD956",
"p  c #ECD35D",
"a  c #EED959",
"s  c #F0DA54",
"d  c #F6E242",
"f  c #F8E340",
"g  c #FEEC43",
"h  c #F5E14F",
"j  c #FEEC4C",
"k  c #F5E154",
"l  c #FEEC54",
"z  c #FAE75E",
"x  c #FEEC5C",
"c  c #DEC277",
"v  c #DFC07B",
"b  c #EACE61",
"n  c #E4C76F",
"m  c #E6CC6C",
"M  c #EBD463",
"N  c #E7D06D",
"B  c #E9D26A",
"V  c #F2DE67",
"C  c #F2DE6B",
"Z  c #E3C572",
"A  c #E5CD73",
"S  c #E1C279",
"D  c #E2CA7B",
"F  c #EBD572",
"G  c #F1DD71",
"H  c #F9E663",
"J  c #FEED64",
"K  c #F7E56E",
"L  c #F8E56D",
"P  c #FEED6B",
"I  c #F7E570",
"U  c #FEED74",
"Y  c #F6E37A",
"T  c #FEED7C",
"R  c #DCBC84",
"E  c #D9B78D",
"W  c #D7B98F",
"Q  c #D9B98B",
"!  c #D3AF95",
"~  c #D5B296",
"^  c #D8B590",
"/  c #D6BC97",
"(  c #D8BE96",
")  c #D5B599",
"_  c #D7BD9A",
"`  c #D8BC9A",
"'  c #DEC685",
"]  c #DCC28C",
"[  c #DAC092",
"{  c #E0C682",
"}  c #E0C880",
"|  c #FDEC83",
" . c #FEED8A",
".. c #FFEE93",
"X. c #FFEE9B",
"o. c #FEEDA5",
"O. c #FFEEAC",
"+. c #FFEFB5",
"@. c #FFEFBB",
"#. c #FFEFC6",
"$. c #FFEFCC",
"%. c #FFEFD2",
"&. c #FFF0D6",
"*. c #FFF0D9",
"=. c #FFF0E4",
/* pixels */
"_ _ _ _ _ _ _ _ _ _ _ _ _ _ _ _ _ _ _ _ _ _ [ _ ] M t 4 4 4 4 4 4 4 4 4 4 4 4 4 d a D [ [ _ _ _ _ _ _ _ _ _ _ _ _ _ _ _ _ _ _ _ ",
"_ _ _ _ _ _ _ _ _ _ _ _ _ _ _ _ _ _ _ _ _ _ [ [ ' B t 6 4 4 4 4 4 4 4 4 4 4 4 4 7 M A [ _ _ _ _ _ _ _ _ _ _ _ _ _ _ _ _ _ _ _ _ ",
"_ _ _ _ _ _ _ _ _ _ _ _ _ _ _ _ _ _ _ _ [ [ [ [ D N k g g g g g 9 9 6 4 4 4 4 4 7 i N ' [ [ [ [ _ _ _ _ _ _ _ _ _ _ _ _ _ _ _ _ ",
"_ _ _ _ _ _ _ _ _ _ _ _ _ _ _ _ _ _ _ _ [ [ ' A F G K U U P U U J j 9 4 4 4 4 4 8 t M N D ' [ [ _ _ _ _ _ _ _ _ _ _ _ _ _ _ _ _ ",
"_ _ _ _ _ _ _ _ _ _ _ _ _ _ _ _ _ _ _ _ ] c B a V Y  .X.X.o.X.X. .P j 6 4 4 4 4 5 7 t i M A ' [ _ _ _ _ _ _ _ _ _ _ _ _ _ _ _ _ ",
"_ _ _ _ _ _ _ _ _ _ _ _ _ _ _ _ _ [ _ _ } B i 7 z T o.$.$.%.$.%.O.| x 6 4 4 4 4 4 6 5 8 h B D [ _ _ _ _ _ _ _ _ _ _ _ _ _ _ _ _ ",
"_ _ _ _ _ _ _ _ _ _ _ _ _ _ _ [ [ [ [ [ D V k g J | O.%.%.%.%.%.O. .x 6 4 4 4 4 4 4 4 4 7 a N ] [ [ [ _ _ _ _ _ _ _ _ _ _ _ _ _ ",
"_ _ _ _ _ _ _ _ _ _ _ _ _ _ _ _ [ ' D A F G I P T  ...o.o.o.o.X. .P j 6 4 4 4 4 4 4 4 4 8 t a N ' ' [ [ _ _ _ _ _ _ _ _ _ _ _ _ ",
"_ _ _ _ _ _ _ _ _ _ _ _ _ _ _ _ ' D B i V Y  .X... .T T U U T U J l g 4 4 4 4 4 4 4 4 4 6 f h i M A ' [ _ _ _ _ _ _ _ _ _ _ _ _ ",
"_ _ _ _ _ _ _ _ _ _ _ _ _ _ _ _ ' N s 8 z | o.$.O. .P j j j g g 9 9 6 4 4 4 4 4 4 4 4 4 4 6 5 8 h B D [ _ _ _ _ _ _ _ _ _ _ _ _ ",
"_ _ _ _ _ _ _ _ _ _ _ _ [ [ [ [ D M k g J | O.%.O. .x 4 4 4 4 4 4 4 4 4 4 4 4 4 4 4 4 4 4 4 4 4 7 a N ' [ [ [ [ _ _ _ _ _ _ _ _ ",
"_ _ _ _ _ _ _ _ _ _ _ _ [ { } D F G K P T  .X.o. .P j 4 4 4 4 4 4 4 4 4 4 4 4 4 4 4 4 4 4 4 4 4 5 t M A D ] [ [ _ _ _ _ _ _ _ _ ",
"_ _ _ _ _ _ _ _ _ _ _ _ [ D B a K Y  .X... .| T J l 9 4 4 4 4 4 4 4 4 4 4 4 4 4 4 4 4 4 4 4 4 4 5 d t a B N ' [ _ _ _ _ _ _ _ _ ",
"_ _ _ _ _ _ _ _ _ _ _ [ } B s g x  .o.#.O. .P j g 9 6 4 4 4 4 4 4 4 4 4 4 4 4 4 4 4 4 4 4 4 4 4 4 5 5 8 t M D [ _ _ _ _ _ _ _ _ ",
"` ` _ _ _ _ _ _ _ [ [ ] D M k 9 J  .O.&.O.| x 4 4 4 4 4 4 4 4 4 4 4 4 4 4 4 4 4 4 4 4 4 4 4 4 4 4 4 4 4 7 i N ' [ [ [ _ _ _ _ _ ",
"_ ` _ _ _ _ _ [ [ ] } A F G L P T  ...o. .P j 4 4 4 4 4 4 4 4 4 4 4 4 4 4 4 4 4 4 4 4 4 4 4 4 4 4 4 4 4 5 h M F } ] [ _ _ _ _ _ ",
"_ _ _ _ _ _ _ _ ' c M a C Y  .X... .| T J l 9 4 4 4 4 4 4 4 4 4 4 4 4 4 4 4 4 4 4 4 4 4 4 4 4 4 4 4 4 4 5 7 t i M A } [ [ _ _ _ ",
"_ _ _ _ _ _ _ [ ' N s f H  .o.#.o. .P j g 9 6 4 4 4 4 4 4 4 4 4 4 4 4 4 4 4 4 4 4 4 4 4 4 4 4 4 4 4 4 4 4 6 8 8 h M D [ [ _ _ _ ",
"_ _ _ _ [ [ [ [ c V t 9 J  .+.&.O.| l 4 4 4 4 4 4 6 6 9 9 9 9 9 5 6 4 4 4 4 4 4 4 4 4 4 4 4 4 4 4 4 4 4 4 4 4 4 8 i N ] [ [ _ _ ",
"_ _ _ _ [ ' } D F G K P T  .X.o. .P j 4 4 4 4 4 9 j x J P P J P x j 6 4 4 4 4 4 4 4 4 4 4 4 4 4 4 4 4 4 4 4 4 4 8 t a N D ] [ [ ",
"_ _ _ _ ] D B a V Y  .X. . .| T J l g 4 4 4 4 4 g J T X.X.X.X.X.| J j 6 4 4 4 4 4 4 4 4 4 4 4 4 4 4 4 4 4 4 4 4 6 7 t i B A } [ ",
"_ _ _ _ { F i f J  .o.#.o. .P j g 9 6 4 4 4 4 4 j U X.#.#.#.#.#.o.T x 6 4 4 4 4 4 4 4 4 4 4 4 4 4 4 4 4 4 4 4 4 4 5 8 8 s M D [ ",
"_ _ _ [ D M d 6 J  .@.=.+. .x 4 4 4 4 4 4 6 9 9 J  .O.&.&.&.*.*.+. .x 6 4 4 4 4 4 4 4 4 4 4 4 4 4 4 4 4 4 4 4 4 4 4 4 4 8 i A [ ",
"_ _ [ [ D M d 6 x  .@.=.+. .l 4 4 4 4 4 9 j l J U  .X.o.O.O.O.O. .P l 6 4 4 4 4 4 4 4 4 4 4 4 4 4 4 4 4 4 4 4 4 4 4 4 4 7 i A [ ",
"_ _ _ [ D p d 6 J  .@.=.+. .l 4 4 4 4 4 g J T .... .| T T T T T P x g 4 4 4 4 4 4 4 4 4 4 4 4 4 4 4 4 4 4 4 4 4 4 4 4 4 7 a A [ ",
"_ _ _ _ D M d 6 x  .@.=.+. .x 4 4 4 4 4 j T X.#.O. .P l l j j l g 9 9 4 4 4 4 4 4 4 4 4 4 4 4 4 4 4 4 4 4 4 4 4 4 4 4 4 8 i A [ ",
"_ _ _ [ D M d 6 x ..@.=.+. .x 4 4 4 4 4 x  .+.=.@. .x 6 4 4 4 4 4 4 4 4 4 4 4 4 4 4 4 4 4 4 4 4 4 4 4 4 4 4 4 4 4 4 4 4 7 i N [ ",
"_ _ _ _ D M d 6 J  .@.=.+. .l 4 4 4 4 4 x  .+.=.@...x 4 4 4 4 4 4 4 4 4 4 4 4 4 4 4 4 4 4 4 4 4 4 4 4 4 4 4 4 4 4 4 4 4 8 i A [ ",
"_ _ _ [ } M e 4 x  .@.=.@. .x 4 4 4 4 4 x  .+.=.@. .J 4 4 4 4 4 4 4 4 4 4 4 4 4 4 4 4 4 4 4 4 4 4 4 4 4 4 4 4 4 4 4 4 4 8 a A ] ",
"_ _ _ _ D M e 6 x ..@.=.+. .x 4 4 4 4 4 x  .+.=.@. .x 4 4 4 4 4 4 4 4 4 4 4 4 4 4 4 4 4 4 4 4 4 4 4 4 4 4 4 4 4 4 4 4 4 7 a A ] ",
"_ _ _ _ S p e 6 x  .+.*.O.| l 4 4 4 4 4 l | O.*.+. .x 6 4 4 4 4 4 4 4 4 4 4 4 4 4 4 4 3 4 4 4 4 4 4 4 4 4 4 4 4 4 4 4 4 8 a A [ ",
"_ _ _ ) S y e 4 l P  .O. .P j 4 4 4 4 4 j P  .O...U j 4 4 4 4 4 4 4 4 4 4 4 4 4 4 : : ; : : 2 4 4 4 4 4 3 2 : ; : 2 4 4 7 a A ] ",
"_ _ ~ ^ S y t 4 g l P T P l 9 4 4 4 4 4 9 l P T P l g 4 4 4 4 4 4 4 4 4 4 4 4 4 3 & & % % & 2 4 4 4 4 4 3 : & $ % & : 4 8 u c [ ",
") ) ~ ~ S p e 4 6 g j j j 9 6 4 4 4 4 4 6 9 j l j 9 6 4 4 4 4 4 4 4 4 4 4 4 4 4 2 & $ X + % & 3 4 4 4 4 3 & $ X + $ ; 3 8 u A [ ",
") ) ~ ~ c p e 4 4 4 4 4 4 4 4 4 4 4 4 4 4 4 4 4 4 4 4 4 4 4 4 4 4 4 4 4 4 4 4 4 : % +   X $ & 4 4 4 4 4 : % + . X + & 3 7 u n W ",
"~ ~ ~ ^ S y e 4 4 4 4 4 4 4 4 4 4 4 4 4 4 4 4 4 4 4 4 4 4 4 4 4 4 4 4 4 4 4 4 4 : % X   X # & 4 4 4 4 4 2 % +   X # & 4 7 u n Q ",
"~ ~ ~ ~ c p d 4 4 4 4 4 4 4 4 4 4 4 4 4 4 4 4 4 4 4 4 4 4 4 4 4 4 4 4 4 4 4 4 4 : % +   X $ & 4 4 4 4 4 2 % +   . # ; 2 7 u n Q ",
"~ ~ ~ ~ c y t 4 4 4 4 4 4 4 4 4 4 4 4 4 4 4 4 4 4 4 4 4 4 4 4 4 4 4 4 4 4 4 4 4 3 % +   X $ & 3 4 4 4 4 2 % +   . + ; 3 8 u n E ",
"~ ~ ~ ~ c M d 4 4 4 4 4 4 4 4 4 4 4 4 4 4 4 4 4 4 4 4 4 4 4 4 4 4 4 4 4 3 4 4 4 & % +   X $ & 3 4 4 4 4 : % +   . # ; 2 1 u n E ",
"~ ~ ~ ~ c p t 4 4 4 4 4 4 4 4 4 4 4 4 4 4 4 4 4 4 4 4 4 4 4 4 4 3 3 3 & & 2 & 2 & $ # + # % 2 3 4 4 4 4 2 % +   . @ ; 3 7 u n E ",
"~ ~ ~ ^ c p e 4 4 4 4 4 4 4 4 4 4 4 4 4 4 4 4 4 4 4 4 4 4 4 4 4 2 & & % $ $ $ $ $ % $ $ % & 3 4 4 4 4 4 : % +   . # * 3 8 u Z Q ",
"~ ~ ~ ~ c M e 4 4 3 4 4 4 4 4 4 4 4 4 4 4 4 4 4 4 4 4 4 4 4 4 4 2 % $ O X X X X O $ & & 2 3 3 4 4 4 4 4 2 % +   . # ; 3 8 u Z Q ",
"~ ~ ~ ~ S y e 6 4 5 4 4 4 4 4 4 4 4 4 4 4 4 4 4 4 4 4 4 4 4 4 4 & % O           O $ & 4 4 4 4 4 4 4 4 4 : % + . . # ; 3 1 u Z Q ",
"~ ~ ~ ^ R m y t 7 8 5 4 4 4 4 4 4 4 4 4 4 4 4 4 4 4 4 4 4 4 4 4 3 & $ + O O O O # % 2 4 4 4 4 4 4 2 : ; ; % # O @ = > w a m 0 E ",
"~ ~ ~ ~ R v m b u e 8 4 4 4 4 4 4 4 4 4 4 4 4 4 4 4 4 4 4 4 4 4 3 2 & % % % % % % & 3 3 4 4 4 4 2 : & $ $ $ $ % * , q y m S R ^ ",
"~ ~ ~ ~ ^ Q R 0 m u 7 4 4 4 4 4 4 4 4 4 4 4 4 4 4 4 4 4 4 4 4 4 3 3 3 & 2 & 2 & 2 3 3 4 4 4 4 4 2 ; $ O + $ % : 1 q y S R Q ^ ^ ",
"~ ~ ~ ~ ~ ~ ~ ~ c b d 4 4 4 4 4 4 4 4 4 4 4 4 4 4 4 4 4 4 4 4 4 4 4 4 4 4 4 4 4 4 4 4 4 4 4 4 4 : % + . o @ ; 3 7 u Z Q ~ ~ ~ ~ ",
"~ ~ ~ ~ ~ ~ ~ ~ v A p h f 9 6 4 4 4 4 4 4 4 4 4 4 4 4 4 4 4 4 4 4 4 4 4 4 4 4 4 4 4 4 4 3 3 & 2 ; $ # O @ = > < u m v ^ ~ ~ ~ ~ ",
"~ ~ ~ ~ ~ ~ ~ ) Q 0 n b u e 8 4 4 4 4 4 4 4 4 4 4 4 4 4 4 4 4 4 4 4 4 4 4 4 4 4 4 4 4 4 3 : & $ $ $ % % * , q y b 0 R ^ ~ ~ ~ ~ ",
"~ ~ ~ ~ ~ ~ ) ! E Q R 0 m u 7 4 4 4 4 4 4 4 4 4 4 4 4 4 4 4 4 4 4 4 4 4 4 4 4 4 4 4 4 4 2 & $ X + $ % & 1 q y 0 0 R ^ ~ ~ ~ ~ ~ ",
"~ ~ ~ ~ ! ~ ~ ~ ~ ~ ! ~ S M t 4 4 4 4 4 4 4 4 4 4 4 4 4 4 4 4 4 4 4 4 4 4 4 4 4 4 4 4 4 : % + . O # ; 3 7 u Z ^ ! ~ ~ ~ ~ ~ ~ ~ ",
"~ ~ ~ ~ ) ~ ~ ~ ~ ~ ! ) { A p e d 8 6 4 4 4 4 4 4 4 4 4 4 4 4 4 4 4 4 4 4 4 4 4 4 2 2 : & $ @ + @ - < w u m 0 ^ ! ! ~ ~ ~ ~ ~ ~ ",
"~ ~ ~ ~ ~ ~ ~ ~ ! ) ) ) ] D A M i t 8 4 4 4 4 4 4 4 4 4 4 4 4 4 4 4 4 4 4 4 4 4 2 : & $ $ $ % $ * , q p m v R ^ ~ ~ ~ ~ ~ ~ ~ ~ ",
"~ ~ ~ ~ ~ ~ ~ ~ ~ ) _ _ ( ] ' D B a d 4 4 4 4 4 4 4 4 4 4 4 4 4 4 4 4 4 4 4 4 4 2 & $ + + $ % ; 1 r b A ' ] W ~ ~ ~ ~ ~ ~ ~ ~ ~ ",
"~ ~ ~ ~ ~ ~ ~ ) ) ) _ [ [ ) ` ` c M d 4 4 4 4 4 4 4 4 4 4 4 4 4 4 4 4 4 4 4 4 4 : % +   o # ; 3 7 a A [ ( _ ) ) ~ ~ ~ ~ ~ ~ ~ ~ ",
"~ ~ ~ ~ ~ ~ ~ ~ _ _ _ _ _ ` ` ` ' A a h d 8 6 4 4 4 4 4 4 4 4 4 4 3 2 & : : : : & $ # X @ = < e i N ' [ _ _ _ _ ~ ~ ~ ~ ~ ~ ~ ~ ",
"! ! ) ! ~ ~ ) _ _ _ _ _ _ _ _ _ ] } F M s h 8 4 4 4 4 4 4 4 4 4 2 & & $ $ $ % % $ $ $ $ - > q p F } ] [ _ _ _ _ ` ) ) ! ! ) ! ! ",
"~ ) ! ) ~ ) ) _ _ _ _ _ _ _ _ _ [ [ ' ' B i d 4 4 4 4 4 4 4 4 4 3 & $ X O O X X + $ & ; 1 r M D ' { [ _ _ _ _ _ _ ) ) ) ) ! ! ) ",
") ! ~ ~ ) ) _ _ _ _ _ _ _ _ _ _ _ _ _ _ c M t 4 4 4 4 4 4 4 4 4 : % X .         X # ; 3 d p A [ ) [ _ _ _ _ _ _ _ _ _ ) ) ! ) ) ",
"~ ) ) ) ) [ _ _ _ _ _ _ _ _ _ _ _ _ _ _ ' F p t 7 8 4 4 4 4 4 4 2 & $ O X O X X @ = < e a N } [ _ _ _ _ _ _ _ _ _ [ ` ) ) ! ) ! ",
"! ~ ) ` ` _ _ _ _ _ _ _ _ _ _ _ _ _ _ _ ] c A B i d 7 4 4 4 4 4 3 & & % % $ % $ - , r p N D ] [ _ _ _ _ _ _ _ _ _ _ _ _ ) ) ) ! ",
"! ) ` ` _ _ _ _ _ _ _ _ _ _ _ _ _ _ _ _ [ ] ' ' B i d 4 4 4 4 4 4 3 2 & & & & : 1 r M D } ] [ _ _ _ _ _ _ _ _ _ _ _ _ _ ` ` ) ! ",
") ) ` ` _ _ _ _ _ _ _ _ _ _ _ _ _ _ _ _ [ _ _ [ v M h 4 4 4 4 4 4 4 4 4 4 4 4 4 f p D [ [ _ _ _ _ _ _ _ _ _ _ _ _ _ ) [ ` ` ) ) ",
"_ _ _ ) _ _ _ _ _ _ _ _ _ _ _ _ _ _ _ _ _ _ [ [ ' B t 4 4 4 4 4 4 4 4 4 4 4 4 4 f M D [ _ _ _ _ _ _ _ _ _ _ _ _ _ _ _ _ ` ` ` ` "
};
