/* XPM */
static char *enemy_2_1712245309[] = {
/* columns rows colors chars-per-pixel */
"64 64 223 2 ",
"   c #221F30",
".  c #211E2F",
"X  c #23222F",
"o  c #222A2D",
"O  c #292D2E",
"+  c #21302B",
"@  c #263C28",
"#  c #333B2C",
"$  c #252331",
"%  c #2A2833",
"&  c #392A32",
"*  c #352A35",
"=  c #39343B",
"-  c #2B3031",
";  c #1B302F",
":  c #492C36",
">  c #5A3139",
",  c #553230",
"<  c #4D2F33",
"1  c #6C2829",
"2  c #6E373C",
"3  c #653C35",
"4  c #73393C",
"5  c #72362C",
"6  c #265B1D",
"7  c #26631A",
"8  c #29691A",
"9  c #277115",
"0  c #287815",
"q  c #3A7919",
"w  c #34691C",
"e  c #16582D",
"r  c #244B21",
"t  c #264624",
"y  c #3D4C2A",
"u  c #37472A",
"i  c #2C5B23",
"p  c #374436",
"a  c #36572F",
"s  c #176A27",
"d  c #396422",
"f  c #287425",
"g  c #387D23",
"h  c #2D6121",
"j  c #45781C",
"k  c #475738",
"l  c #46542F",
"z  c #79402F",
"x  c #664539",
"c  c #7A4735",
"v  c #7D533B",
"b  c #4B6726",
"n  c #467525",
"m  c #556438",
"M  c #597628",
"N  c #627639",
"B  c #3E3840",
"V  c #463C42",
"C  c #553E44",
"Z  c #6F3E41",
"A  c #4C4247",
"S  c #564C4E",
"D  c #54494B",
"F  c #565949",
"G  c #5D5352",
"H  c #545649",
"J  c #664541",
"K  c #6A4844",
"L  c #67534A",
"P  c #6C5249",
"I  c #74594D",
"U  c #6A5D5A",
"Y  c #655855",
"T  c #755E58",
"R  c #75665A",
"E  c #6F6C53",
"W  c #7C6A63",
"Q  c #776761",
"!  c #7A7464",
"~  c #527B51",
"^  c #B22E1F",
"/  c #85322F",
"(  c #B22E21",
")  c #B63623",
"_  c #A42D24",
"`  c #944A2F",
"'  c #9F492E",
"]  c #894A33",
"[  c #8D4F33",
"{  c #A8522F",
"}  c #A55633",
"|  c #B7542F",
" . c #B5713D",
".. c #AF6738",
"X. c #C24B29",
"o. c #C9562D",
"O. c #C85B31",
"+. c #D05D2E",
"@. c #D3612F",
"#. c #C96835",
"$. c #D66C34",
"%. c #D66A34",
"&. c #DE7C3A",
"*. c #DA7437",
"=. c #CB6F37",
"-. c #E17F3B",
";. c #863844",
":. c #963F45",
">. c #8C4242",
",. c #9D4944",
"<. c #825248",
"1. c #865B4B",
"2. c #975747",
"3. c #A34A45",
"4. c #A14845",
"5. c #A95349",
"6. c #AC5B4D",
"7. c #A6544B",
"8. c #B05F4E",
"9. c #836857",
"0. c #926D55",
"q. c #AF604F",
"w. c #B1634F",
"e. c #B16350",
"r. c #B56952",
"t. c #B96D53",
"y. c #BC7558",
"u. c #826E65",
"i. c #846F69",
"p. c #8C7A6D",
"a. c #867569",
"s. c #937C6F",
"d. c #937D71",
"f. c #9B7F71",
"g. c #CC6846",
"h. c #CB6340",
"j. c #C07B5C",
"k. c #CF7053",
"l. c #D47247",
"z. c #CB7168",
"x. c #2A860E",
"c. c #298310",
"v. c #298710",
"b. c #3D8D13",
"n. c #348613",
"m. c #3D8122",
"M. c #468917",
"N. c #568D1E",
"B. c #4B9216",
"V. c #5C9919",
"C. c #5A941D",
"Z. c #639B1B",
"A. c #6B9D1C",
"S. c #65951E",
"D. c #709E1D",
"F. c #6EA01C",
"G. c #72A11D",
"H. c #458622",
"J. c #568A21",
"K. c #589028",
"L. c #668C20",
"P. c #6B9522",
"I. c #759038",
"U. c #7AA723",
"Y. c #6B8C5F",
"T. c #698B58",
"R. c #85B12A",
"E. c #88B032",
"W. c #DF823C",
"Q. c #E2843D",
"!. c #E58B3F",
"~. c #E88C3F",
"^. c #98C03B",
"/. c #B98556",
"(. c #998876",
"). c #978474",
"_. c #8F9271",
"`. c #A48A7A",
"'. c #A7937E",
"]. c #B38C66",
"[. c #93B441",
"{. c #D28751",
"}. c #E78D41",
"|. c #E88D42",
" X c #E28A47",
".X c #E69955",
"XX c #E69349",
"oX c #CD996A",
"OX c #C39466",
"+X c #CB8867",
"@X c #E59960",
"#X c #E9AA6A",
"$X c #EAB67C",
"%X c #EEB170",
"&X c #F1B776",
"*X c #E6A35F",
"=X c #A2CB41",
"-X c #AC9882",
";X c #B39C84",
":X c #BD9E89",
">X c #B69884",
",X c #BEA08A",
"<X c #B7A287",
"1X c #BAB18A",
"2X c #DB9C96",
"3X c #C5A58D",
"4X c #C6AA8E",
"5X c #CCAB91",
"6X c #C6AE91",
"7X c #D2AF95",
"8X c #DEA59E",
"9X c #C7B091",
"0X c #CBB293",
"qX c #D5B296",
"wX c #D5BB97",
"eX c #D5B599",
"rX c #D7BD9A",
"tX c #D9BC9B",
"yX c #D8BF97",
"uX c #DCB4A2",
"iX c #E2B0AB",
"pX c #FFFFFF",
"aX c #FBF6F3",
/* pixels */
"rXrXrXrXrXrXrXrXrXrXrXrXrXrXrXrXrXrXrXrXrXrXyXyXyXrXrXrXrXrX4Xa.! a.9.9.9.9.1.[ R u.! '.yXrXrXrXrXrXrXrXrXrXrXrXrXrXrXrXrXrXrXrX",
"rXrXrXrXrXrXrXrXtXrXrXrXrXrXrXrXrXtXrXrXtX0X6X9X1X6XwXrXrX0X(.A = A oX&X&X&X#XXX[ - & R 6XwXrXrXrXrXrXrXrXrXrXrXrXrXrXrXrXrXrXrX",
"rXrXrXrXrXtXrXrXrXyXrXrXrXrXrXrXrXrXrXrXrX).A D D G ;XrXwXu.I ].].oX.X.X.X.XXX~.l...} v G ;XrXrXrXrXrXrXwXrXrXrXrXrXrXyXrXrXrXrX",
"rXrXrXrXrXrXrXrXrXrXrXrXrXrXrXrXrXrXrX6X(.R P x x 3 u.).).R 0.#X.X{.l.%.$.W.!.W.Q.Q.*.} x 9.-XrXrX9X(.).).).-XwXrXrXrXrXtXrXrXrX",
"rXrXrXrXrXtXrXrXrXrXrXrXrXrXrXrXtXrXrX(.* 0.%XXX*.| < X X ].%X|.O.( ( ( ) *.-.@.&.}.~.&.O., Y eXrX-X= $     E wXrXrXrXrXrXrXrXrX",
"rXrXrXrXrXrXrXrXrXrXrXrXrXrXrXrXtX0Xa.R ].OX{.] } &.} 3 X [ l.o.+XiXiXiXuXk.+.&.!.}.|.&.| , G eX).F h d M I.E U -XrXrXrXrXtXrXrX",
"rXrXrXrXtXrXrXtXrXrXrXrXrXrXrXrXrX0XS L $X{...> c  .=.{ : ' X.) 2XpXpXpXaXz.X.Q.}.!.}.W.=.z I '.F r n.C.D.E.I.k _.'.rXrXrXrXrXtX",
"rXrXrXrXtXrXrXrXrXrXrXrXrXrXrXrXrX0XS L $Xl.) ( 5 <  .#._ | o.^ 2XpXpXpXaXz.X.!.}.}.}.!.Q.#.[ * h n.Z.A.G.G.R.[.m Y 0XrXrXrXrXrX",
"rXrXrXrXtXtXrXrXrXrXrXrXrXyXtXtXrX0XS J *X#.( ( 1 * /. XX.#.%.) 2XpXpXpXaXz.X.Q.|.|.|.~.!.%.` X @ i b j B.A.U.R.l S 9XrXrXrXrXrX",
"rXrXrXrXtXyXrXrXrXrXrXrXrXtXrXrXrX0XS x  Xo.( ( 1 = OX@X@.W.*.) 2XpXpXpXaXz.X.Q.|.~.}.}.!.$.`   X o o 6 b.Z.G.D.y S 9XrXrXrXrXrX",
"rXrXrXrXrXrXtXrXrXrXrXrXrXrXrXrXrX0XS L #X#.( ( 1 * ].*X@.-.*.) 2XpXpXpXaXz.| !.|.}.}.|.!.%.'   r 9 9 M.A.F.G.D.y S 9XrXrXtXrXrX",
"rXrXrXrXrXrXyXtXrXrXrXtXrXrXrXrXrX0XS L yX#.( ( 1 = /. X@.-.W.O.+X8XiX8X8Xk.@.}.!.}.}.}.!.$.`   6 x.x.B.G.G.G.G.y S 9XrXtXrXrXwX",
"rXrXrXrXrXrXrXrXrXrXrXrXrXrXrXrXrX9XS L $Xg.( ( 1 &  .&.@.&.!.}.+.( ) ^ ) *.}.}.|.}.}.}.}.$.` X 6 x.x.B.G.G.G.A.y S 9XrXrXrXrXrX",
"rXrXrXrXrXrXrXrXrXrXrXrXrXrXrXrXrX0XS L $Xg.( ( 1 &  .&.@.W.~.~.l.%.$.*.*.W.}.}.|.}.}.}.!.$.`   6 x.x.B.G.G.G.G.y S 9XrXyXrXrXrX",
"rXrXrXrXrXrXrXrXrXrXrXrXrXrXrXrXrX0XS L $Xg.( ( 1 &  .&.@.W.}.~.|.|.|.|.}.}.}.}.!.}.}.}.!.$.` X r 9 x.b.V.V.N.M m ! 0XrXrXrXrXrX",
"rXrXrXrXrXtXrXrXrXrXrXrXrXrXrXrXrX0XS L $Xg.( ^ 1 &  .&.@.W.}.}.|.|.|.~.}.}.}.}.|.}.|.~.}.$.` X . t 0 x.x.n.7 % ).eXrXrXrXrXrXrX",
"rXrXrXrXrXrXrXrXrXrXrXrXrXrXrXrXtX0XS L $Xg.( ( 1 &  .&.+.W.~.}.}.}.}.}.}.}.|.!.~.|.|.~.!.$.' . t 6 r r r r a I.E d.0XtXrXrXrXrX",
"rXrXrXrXrXrXrXrXrXrXrXrXrXrXtXrXtX6XS L $Xg.( ( 1 &  .&.+.W.~.!.}.|.}.|.|.}.}.}.}.!.Q.Q.!.$.` . 6 9 # @ # # N E.k D 9XrXrXrXrXrX",
"rXrXrXrXtXtXrXrXrXrXrXrXrXrXtXrXeX3XS L qXg.( ( 1 &  .&.@.&.!.!.}.~.}.}.}.}.}.}.}.!.$.&.!.%.` . 6 b.N.L.L.L.P.U.l D 9XrXrXrXtXrX",
"rXrXrXrXyXtXtXtXrXrXrXtXtXtXrXeXqX3XS K .X#.( ( 1 *  .W.@.W.~.~.|.~.~.~.|.|.!.!.}.!.&.Q.Q.$.` . 6 x.B.Z.G.G.G.D.y D 9XrXrXrXrXrX",
"rXrXrXrXyXrXrXrXrXrXrXrXuXtXqX7XqX3XD x ~.o.^ ( 1 *  .&.+.&.}.!.|.|.!.}.~.!.!.!.!.!.|.!.W.#.[ * 6 x.x.B.F.F.P.P.a G wXrXrXrXrXrX",
"rXrXrXrXrXrXrXrXrXrXtXrXtXeXqX7XqX3XD x !.o.( ( 1 *  .$.) +.*. X~.|.~.|.!.*.$.*.&.!.!.W.%.4 P `.F r 0 n.b.b.g y ! ;XwXrXrXrXrXrX",
"rXrXrXrXrXrXrXrXrXrXrXwXeXqXqXqXqX3XS x &.@.| / 5 c =.| / | $.}.}.!.W.!.!.*.@.@.&.!.}.&.| , G 7Xa.k h 7 7 7 a G ;XrXrXrXrXrXrXrX",
"rXrXrXrXrXrXrXrXrXrXrXqXqXqXqXeXqX5XS , +.*...: v W.%.` . ` %.}.}.!.$.*.!.$.@.@.&.}.}.&.o., G 7XqX`.= X X X U wXrXrXrXrXtXrXrXrX",
"rXrXrXrXrXrXrXrXtXrXeXeXqXqXqXqXqX7X`.9.3 } #.` ..#.] < . < ] =.W.}.Q.Q.~.-.&.-.$.*.$.} 3 9.-X7XqX3Xd.p.s.p.-XtXrXrXrXrXrXrXrXrX",
"rXrXrXrXrXrXtXrXuXwXeXeXqXqXqXqXqXqXqX`.D ] { { { ' J V A A x ' #.W.Q.Q.Q.Q.-.Q.#.{ { v S >XqXqXqXqXqXqXqXqXeXtXrXrXrXrXrXrXrXrX",
"rXrXrXrXrXtXrXrXeXqX5XqXqXqXqXqXqXqXqX5X3XP & & & : ).:X:X:X).: ] %.%.@.@.$.@.@.] & & T 3X5XqXqXqXqXqXqXqX7XqXeXrXrXrXrXrXrXrXrX",
"rXrXrXrXtXtXwXeXeX7XqXqXqXqXqXqXqXqXqXqX7X`.R W W i.3XqXqXqX,Xi.I 5 z z z z z z I R W `.7X7XqXqXqXqXqXqXqXqX7XqXwXeXrXtXtXrXrXrX",
"rXrXrXtXtXtXeX0XqXqXqXqXqXqXqXqX5X3X:X3XqXqXqXqXqXqXqXqXqXqXqXqXW = $ $ O $ % = p.qXqXqXqXqXqX<X3X,X3X3XqXqXqXqXqXeXeXrXrXrXrXrX",
"tXrXrXtXtXtXeX7XqXqXqXqXqXqXqXqX).> A R 7XqXqXqXqXqXqXqXqXqXqXqX:X).= u N.# V `.3XqXqXqXqXeX`.D C V C d.qXqXqXqX0XeXeXrXtXtXrXrX",
"yXrXrXrXtXeXeX7XqXqXqXqXqXqX3X).E m m E p.d.(.5XqXqXqXqXqXqXqXqX>XW p d D.u S 5XqXqXqX>Xp.s.E l k m F E f.3XqXqXqXqXqXqXtXrXrXrX",
"rXrXrXrXeXeX7XeXqXqXqXqXqXqX>XV N =X=XI.$ X V :X7XqX7XqXqXqXqXqXQ o e d D.l S 5XqX7X7Xu.X X y G.E.=X=XN = '.qXqXqXqXqXeXeXrXrXrX",
"tXtXqXqXqXqXqXqXqXeXqXqXqX).L E I.E.R.U.M d h F G U >XqXqXqXeXrX! e g n l R -X5Xf.G Y k 7 n J.D.U.R.R.U.E E a.qXqXqXqXqXqXeXtXtX",
"tXeXqXqXqXqXqXqXqXqXqXqXqXU p E.R.G.J.K.K.B.q y t p a.>XqXqXrXrXY.s K.n O ).3X`.F @ p d b.N.N.N.P.G.D.E.E.l L qXqXqXqXqXqXqXeXtX",
"eXqXqXqXqXqXqXqXqXqXqXqXqXU # L.G.G.f s s H.Z.S.M.9 p U eXrXrXrXY.s K.n.e _.`.V i n.Z.P.Z.f s s H.G.D.G.L.# U qXqXqXqXqXqX0XqXeX",
"qXqXqXqXqXqXqXqXqXqXqXqXeXR @ j V.G.H.b.m.m.m.m.M.N.8 k Q ;X9XY.K.g m.T.Y.Q F i q B.m.m.g m.m.m.P.G.G.Z.M.- U qXqXqXqXqXqXqXqXqX",
"qXqXqXqXqXqXqXqXqXqXqXqXqXu.p w M.A.F.G.G.m.s s m.C.b.h ; a._.e m.P.s ~ <XH r n.N.J.f s f K.G.G.G.F.F.M.9 p Q 7XqXqXqXqXqXqXqX7X",
"qXqXqXqXqXqXqXqXqXqXqXqXqX3X).p 6 b.Z.G.F.P.C.P.m.f N.B.9 a = ; n P.s e A h q V.m.f H.C.C.P.G.G.F.Z.M.h p p.3XqXqXqXqXqXqXqXqXqX",
"qXqXqXqXqXqXqXqXqXqXqXqXqXqX3Xi.F 6 M.V.G.G.G.G.N.g n n v.r . . b L.i ; X 8 q b n b.A.G.G.G.G.G.V.M.7 k W :XqXqXqXqXqXqXqXqXqXqX",
"qXqXqXqXqXqXqXqXqXqXqXqXqXqXqXqXa.% 8 b.A.D.G.G.A.S.u t 0 t o . b L.# X o 7 8 o b G.G.G.G.G.G.F.M.9 - u.eXqXqXqXqXqXqXqXqXqXqXqX",
"qXqXqXqXqXqXqXqXqXqXqXqXqXqXqXqX<X).H 6 b.C.D.G.F.Z.q 6 @ 6 6 . b L.# @ 7 r r 7 M.G.G.G.G.G.V.M.6 l s.3XqXqXqXqXqXqXqXqXqXqXqXqX",
"qXqXqXqXqXqXqXqXqXqXeXqXqXqXqXqXqX4XW k 7 M.V.C.F.F.b.6 . 7 7 o b L.# r c.t @ c.M.V.F.G.G.V.M.8 k R 3XqXqXqXqXqXqXqXqXqXqXqXqXqX",
"qXqXqXqXqXqXqXqXqXqXqXqXqXqXqXqXqXqX7Xs.O 7 x.x.B.F.b.6 . 7 7 o b L.# r c.@ t 0 x.b.F.F.F.b.7 $ p.5XqXqXqXqXqXqXqXqXqXqXqXqXqXqX",
"qXqXqXqXqXqXqXqXqXqXqXqXqXqXqXqX7XqX7X:Xp.F r r w B.v.0 6 9 9 ; i M.O r v.8 7 c.x.x.M.j l r k a.>XqXqXqXqXqXqXqXqXqXqXqXqXqXqXqX",
"qXqXqXqXqXqXqXqXqXqXqXqXqXqXqXqX7XqX,X;X;XG . . t 9 9 9 9 9 6 o t 7 + t 9 9 9 9 9 9 9 r     G 7XqXqXqXqXqXqXqXqXqXqXqXqXqXqXqXqX",
"qXqXqXqXqXqXqXqXqXqXqXqXqXqXqXqXqX0XU V = *     o + o + + + o X o o X o + o + + + + + $     Y 5XqX7XqXqXqXqXqXqXqXqXqXqXqXqXqXqX",
"qXqXqXqXqXqXqXqXqXqXqXqXqXqXqXqX-Xu.R I I P J J x K P P x P I E I I I I I I I x x J J P I I R i.>XqXqXqXqXqXqXqXqXqXqXqXqXqXqXqX",
"qXqXqXqXqXeXqXqXqXqXqXqXqXqXqX7Xp.% 0.oXoXy.t.t.t.y.+X+Xr.+XoXoXoXoXoXoXoXoXOXt.t.t.t./.oXoX0.$ s.qXqXqXqXqXqXqXqXqXqXuXqXqXqXqX",
"qXqXqXqXqXqXqXqXqXqXqXqXqXqXtXtX! % 1.z.j.y.r.t.t.t.y.y.t.y.z.y.j.j.j.z.j.j.j.r.t.t.t.y.z.y.1.$ d.qXqX7XqXqXqX7XqXqXqXqXqXqXqXqX",
"qXqXqXqXqXqXqXqXqXqXqXqXqXqXeXtX-XY I <.<.<.<.<.2.7.6.6.8.8.w.t.t.t.t.r.e.6.7.7.2.<.<.<.I <.I G -XqXeXqXqXeXqXqXqXqXqXqXqXqXqXqX",
"qXqXqXqXqXqXqXqXqXqXqXqXqXtXtXtXwX6XS $ . $   . V ;.;.;.4.4.5.t.t.t.r.q.,.;.;.;.: . $   X X G wXeXrXtXqXqXqXqXqXqXqXqXqXqXqXqXqX",
"qXqXqXqXqXqXqXqXqXqXqXqXtXrXrXrXrXwX-XU X < 4 4 ;.:.:.7.8.8.e.t.t.t.t.r.q.,.,.:.;.2 4 : % R -XrXrXrXtXtXqXqXqXqXqXqXqXqXqXqXqXqX",
"qXqXqXqXqXqXqXuX7XqXeXtXtXrXrXyXrXrXrX(.% 2 4.4.4.4.5.6.t.t.t.t.t.t.t.t.t.6.3.3.4.,./ K G ;XrXrXrXrXrXrXtXeXqXqXqXqXqXqXqXqXqXqX",
"qXeXqXqXqXqXqXqXqXqXtXrXtXeXwXrXrXrXrX(.% 2 4.4.5.r.r.t.t.t.t.t.t.t.t.t.t.t.t.r.7.>.& Q 6XwXrXrXrXyXyXtXtXtXeXqXqXqXqXqXqXqXqXqX",
"qXqXqXqXqXqXqXqXeXeXrXyXyXrXrXrXrXrXrX(.% 2 4.4.6.t.t.t.t.t.t.t.t.t.t.t.t.t.t.t.5.:.* Q rXrXrXrXrXrXyXwXtXrXeXeXqXqXqXqXqXqXeXqX",
"qXqXqXqXqXqXqXqXtXrXtXwXrXrXrXtXrXrXrX).$ 2 4.3.6.t.t.t.t.t.t.t.t.t.r.r.r.t.t.r.7.Z V i.rXrXrXtXtXrXrXrXyXrXrXrXqXeXqXqXqXqXqXqX",
"7XqXqXqX5XqXeXrXrXrXrXrXrXrXrXrXrXrXrX(.% Z ,.q.r.t.t.t.t.t.t.t.t.r.7.5.5.e.r.5.Z V (.4XrXrXrXrXrXrXrXtXtXtXtXrXtXeXqX7XqXqXqXqX",
"qXqXqXqXqXwXrXrXrXrXrXrXrXrXrXrXrXrXrX(.$ 2 7.r.t.t.t.t.r.t.r.8.r.r.7.4.4.q.q.4.> A <XrXrXrXrXrXrXrXrXrXrXtXtXrXtXtXeXqXqXqXqXqX",
"qXqXqXqXeXtXrXrXrXrXrXrXrXrXrXrXrXrXrX(.% 2 3.r.t.t.t.t.t.t.e.5.6.r.7.,.4.e.q.,.> A <XrXrXrXrXrXrXrXrXrXrXrXtXrXtXrXtXeXqXqXqXqX",
"qXeXqXeXeXrXrXyXrXrXrXtXrXrXrXrXrXrXrX6X(.U 2 ,.w.t.t.t.t.t.t.w.r.t.e.6.q.7.>.> U -XwXrXrXrXrXrXrXrXrXrXrXrXrXrXrXtXtXeXqXqXqXqX",
"qXqXeXtXtXrXyXrXrXrXrXrXrXrXrXrXrXrXrXrXrXU : >.5.w.w.w.w.w.w.w.w.w.e.e.q.5.4 % p.rXrXrXrXrXrXrXrXrXrXrXrXrXrXrXrXwXrXrXtXqXqXqX",
"qXqXtXtXtXrXyXrXrXrXrXrXrXrXrXrXrXrXrXrXrXU & ;.4.4.4.5.4.3.3.3.3.4.4.4.3.4.4   p.rXrXrXrXrXrXrXtXyXrXrXrXrXrXrXrXyXwXrXtXtXqXqX",
"qXtXeXtXyXtXrXtXrXrXrXrXrXrXrXrXrXtXrXrXrX'.R Z > > > > > > > > > > > > > > K a.<XrXrXrXrXrXrXrXrXrXrXrXrXrXrXrXrXrXrXrXrXrXeXeX",
"tXrXrXrXrXrXtXtXrXrXrXrXrXrXrXrXrXrXrXrXrXrX;X=                             G qXrXrXrXrXrXtXrXyXrXrXrXrXrXrXrXrXrXrXrXrXrXrXtXtX"
};
