/* XPM */
static char *bullet_2_1712251713[] = {
/* columns rows colors chars-per-pixel */
"64 64 108 2 ",
"   c #211E2F",
".  c #221F30",
"X  c #222C2B",
"o  c #233329",
"O  c #2C312D",
"+  c #222031",
"@  c #313830",
"#  c #24501F",
"$  c #266F16",
"%  c #25631A",
"&  c #266E18",
"*  c #34681D",
"=  c #267613",
"-  c #277F11",
";  c #2C7118",
":  c #3E7F17",
">  c #3C771A",
",  c #244D21",
"<  c #275121",
"1  c #315223",
"2  c #3C5626",
"3  c #3C5533",
"4  c #2F6323",
"5  c #306223",
"6  c #4D7F1E",
"7  c #507D1E",
"8  c #4A5F27",
"9  c #475B28",
"0  c #485A28",
"q  c #535D38",
"w  c #5A742B",
"e  c #566137",
"r  c #607D29",
"t  c #423A43",
"y  c #454442",
"u  c #4A4A44",
"i  c #4D474B",
"p  c #524F44",
"a  c #50454B",
"s  c #675757",
"d  c #665857",
"f  c #685C5A",
"g  c #5C614B",
"h  c #6A6A4E",
"j  c #7B6E5E",
"k  c #7C6762",
"l  c #7B6C63",
"z  c #7D7162",
"x  c #817664",
"c  c #89756C",
"v  c #8B796E",
"b  c #937B6F",
"n  c #957E72",
"m  c #28860E",
"M  c #2E890E",
"N  c #2C8711",
"B  c #2E8810",
"V  c #338A10",
"C  c #3E8E13",
"Z  c #4F8E19",
"A  c #528F1A",
"S  c #479114",
"D  c #4A9215",
"F  c #4E9418",
"G  c #569717",
"H  c #569817",
"J  c #5F9B17",
"K  c #5E9A19",
"L  c #659C1A",
"P  c #6C9F1B",
"I  c #72A11D",
"U  c #608422",
"Y  c #759B2A",
"T  c #77A521",
"R  c #79A721",
"E  c #7EAC26",
"W  c #84AF2A",
"Q  c #84B12A",
"!  c #89B52E",
"~  c #88B033",
"^  c #93BD35",
"/  c #97C139",
"(  c #98C23A",
")  c #958374",
"_  c #988775",
"`  c #AD917E",
"'  c #A3CC42",
"]  c #AF9380",
"[  c #AF9B82",
"{  c #B29B84",
"}  c #B99D87",
"|  c #B5A085",
" . c #B6A088",
".. c #B8A28A",
"X. c #C4A48C",
"o. c #C8A68D",
"O. c #C3AB8E",
"+. c #C7AD92",
"@. c #CCA991",
"#. c #D3AF95",
"$. c #CBB393",
"%. c #D5B296",
"&. c #D6BC97",
"*. c #D5B598",
"=. c #D8B69A",
"-. c #D7BD9A",
";. c #D9BC9B",
":. c #D9BEA0",
/* pixels */
"-.-.-.-.-.-.-.-.-.-.-.-.-.-.-.-.-.-.-.-.-.-.-.-.-.-.-.-.-.-.-.-.-.-.-.-.-.-.-.&.-.-.-.-.-.;.-.-.-.-.-.;.-.-.-.-.-.-.-.-.-.-.-.-.",
"-.-.-.-.-.-.-.-.-.-.-.-.-.-.-.-.-.-.-.-.-.-.-.-.-.-.-.-.-.-.-.-.-.-.-.-.-.-.-.-.-.-.-.-.-.-.-.-.-.-.-.-.-.-.-.-.-.-.-.-.-.-.-.-.",
"-.-.-.-.-.-.-.-.-.-.-.-.-.-.-.-.-.-.-.-.-.-.-.-.-.-.-.-.-.-.-.&.-.-.-.-.-.-.-.-.-.-.-.-.-.-.-.-.-.-.-.-.-.-.-.-.-.-.-.-.-.-.-.-.",
"-.-.-.-.-.-.-.;.-.-.-.-.-.-.-.-.-.-.-.-.-.-.-.-.-.-.-.-.;.-.-.*.&.&.:.;.-.-.-.-.-.-.-.-.-.-.-.-.-.-.-.-.-.-.-.-.-.-.-.-.-.-.-.-.",
"-.-.-.-.-.-.-.-.-.-.-.-.-.-.-.-.-.-.-.-.-.-.-.-.-.-.;.:.;.;.*.%.$.*.=.-.;.-.-.-.-.-.-.-.-.-.-.-.-.-.-.-.-.-.-.-.-.-.-.-.-.-.-.-.",
"-.-.-.-.-.-.-.-.-.-.-.-.-.-.-.-.-.-.-.-.-.-.-.-.;.-.;.;.;.=.*.@.%.%.%.&.:.-.-.;.-.-.-.-.-.-.-.-.-.-.-.-.-.-.-.-.-.:.-.-.-.-.-.-.",
"-.-.-.-.-.-.;.-.-.-.-.-.-.-.-.-.-.-.-.-.-.;.-.-.-.-.-.&.%.%.%.%.%.#.%.*.-.-.-.-.-.-.-.-.-.-.-.-.-.-.-.-.-.:.-.-.-.-.-.-.-.-.-.-.",
"-.-.-.-.-.-.-.-.-.-.-.-.-.-.-.-.-.-.-.-.-.-.-.-.-.-.-.&.%.%.%.%.%.%.%.%.*.&.-.-.-.-.-.-.-.-.-.-.-.-.-.-.-.-.-.-.-.-.-.-.-.-.-.-.",
"-.-.-.-.-.-.-.-.-.-.:.-.-.-.-.-.&.-.-.-.-.-.-.-.;.=.%.%.%.%.%.%.%.%.%.%.%.=.=.:.-.-.-.-.-.-.-.-.-.-.-.-.-.-.-.-.-.-.-.-.-.-.-.-.",
"-.-.-.-.-.-.-.-.-.-.-.-.-.-.-.-.-.-.&.-.-.-.-.-.;.=.%.%.%.%.%.%.%.%.%.%.%.%.%.;.;.;.-.-.-.-.-.-.-.-.-.-.-.-.-.-.-.-.-.-.-.-.-.-.",
"-.-.-.-.-.-.-.-.-.-.-.-.-.:.-.-.-.-.-.;.-.-.-.-.%.%.#.%.%.%.%.%.%.%.%.%.%.#.%.%.-.-.-.-.-.&.-.-.-.-.-.-.-.-.-.-.-.-.-.-.-.-.-.-.",
"-.-.-.-.-.:.-.-.-.-.-.-.-.-.-.-.-.-.-.;.;.;.-.&.%.%.%.%.%.%.%.%.%.%.%.%.%.%.%.%.*.;.;.:.;.-.-.-.-.-.-.-.-.-.-.-.-.:.-.-.-.-.-.-.",
"-.-.-.-.-.-.-.-.-.-.-.-.-.-.-.-.-.-.-.:.;.=.%.#.%.%.%.%.%.%.%.%.%.%.%.%.%.%.%.%.%.*.&.;.;.;.-.-.-.-.-.-.-.-.-.-.-.-.-.-.-.-.-.-.",
"-.-.-.-.-.-.-.-.-.-.-.-.-.-.-.-.;.-.-.;.=.=.%.#.%.%.%.%.%.%.%.%.%.%.%.%.%.%.%.%.$.%.*.&.;.;.-.-.-.-.-.-.-.-.-.-.-.:.-.-.-.-.-.-.",
"-.-.-.-.-.-.-.-.-.-.-.-.-.-.-.-.-.-.&.&.&.%.%.%.%.%.%.%.%.%.%.%.%.%.%.%.%.%.%.%.%.#.%.*.-.-.-.-.-.-.-.-.-.-.-.-.-.-.-.-.-.-.-.-.",
"-.-.-.-.-.-.-.-.-.-.-.-.-.-.-.-.-.&.;.%.%.#.%.=.%.%.%.%.%.%.%.=.%.%.%.%.%.%.%.%.%.%.#.%.*.-.-.-.-.-.-.-.-.-.-.-.-.-.-.-.-.-.-.-.",
"-.-.-.-.-.-.-.-.-.-.-.-.-.-.-.-.:.:.*.%.#.=.#.%.%.%.%.%.%.%.%.%.%.=.%.%.%.%.%.%.%.%.%.%.%.=.=.:.-.-.-.-.-.-.-.-.-.-.-.-.-.-.-.-.",
"-.-.-.-.-.-.-.-.-.;.-.-.-.-.-.:.-.*.*.#.%.#.%.%.%.%.%.%.%.=.%.%.%.%.%.%.%.%.%.%.%.%.%.%.#.=.=.=.-.:.-.-.-.&.-.-.-.-.-.-.-.-.-.-.",
"-.-.-.-.&.&.&.O. . . ... .....} [ { } X.#.%.=.#.%.%.%.%.%.%.%.%.%.%.%.%.%.%.%.%.%.%.%.%.%.#.%.%.-.-.-.-.-.-.-.-.-.-.-.-.-.-.-.-.",
"-.-.-.-.-.&.` ) l l l z z l l l k k b ] #.#.=.#.%.%.%.%.%.%.%.%.%.%.%.%.%.%.%.%.%.%.%.%.%.#.%.%.&.-.-.:.;.-.-.-.-.-.-.-.-.-.-.-.",
"-.-.-.-.-.$._ f t t t t t t t t t t d n X.#.%.#.%.%.%.%.%.%.%.%.%.%.%.%.%.%.%.%.%.%.%.%.%.%.%.%.&.&.&.;.;.;.-.-.-.-.-.-.-.-.-.-.",
"-.-.&.$...| z p O O O O O O O O X X u j ` X.@.#.%.%.%.%.%.%.%.%.%.%.%.%.%.%.%.%.%.%.%.%.%.%.%.%.#.#.*.&.;.;.-.-.-.-.;.-.-.-.-.-.",
"-.-.&.[ _ z h e 9 9 9 9 9 9 9 2 1 < 3 g k n ` @.%.%.%.%.%.%.%.%.%.%.%.%.%.%.%.%.%.%.%.%.%.%.%.%.%.%.%.%.-.-.-.-.-.-.-.-.-.-.-.-.",
"-.-..._ f u e w U U U U U U w Z > ; 4 3 y s n X.%.%.%.%.%.=.%.%.%.%.%.%.%.%.%.%.%.%.%.%.%.%.%.%.%.%.#.#.*.-.-.-.-.-.-.-.-.-.-.-.",
"$.+.[ z u @ 8 U T T T T R T I K D V ; < o y k ` X.X.%.%.%.%.%.%.%.%.%.=.%.%.%.%.=.%.%.%.%.%.=.%.%.%.#.=.%.%.;.:.-.-.-.-.-.-.-.-.",
"| _ z h q 9 U Y ~ ! ! ! E R P L G D : * < 3 g l c c %.%.%.%.%.%.%.%.%.%.%.%.%.%.%.%.%.%.%.%.%.%.%.%.%.%.%.%.=.;.-.:.-.-.-.-.-.-.",
") f p e w U Y ~ / / ( / ! E T P L J Z : ; 5 3 u a a %.%.%.%.%.%.%.%.%.%.%.%.%.%.%.%.%.%.%.%.%.%.%.%.%.%.%.$.%.%.-.-.-.-.-.-.-.-.",
"z t O 8 U T ! / ' ' ' ' ^ E I I I I J S B $ , X     %.%.%.%.%.%.%.%.%.%.%.%.%.%.%.%.%.%.%.%.%.%.%.%.%.%.#.%.%.%.&.-.-.;.&.-.-.-.",
"z t O 9 U T ! / ' ' ' ' ^ E I I I I K S N & , X   + %.%.%.%.%.%.%.%.%.%.%.=.%.%.%.%.%.%.%.%.%.%.%.%.%.%.%.%.%.%.%.*.*.-.;.;.;.;.",
"z t O 9 U T ! ( ' ' ' ' / E T P I I K S B & , X +   =.%.%.%.%.%.%.=.%.%.%.%.%.%.%.%.%.%.%.%.%.%.%.%.%.%.%.%.#.%.$.%.*.&.;.;.-.;.",
"l t O 9 U T ! ( ' ' ' ' ^ E T I I I K S B $ , X     %.%.%.%.%.%.%.%.%.%.%.%.%.%.%.%.%.%.%.%.%.%.%.%.%.%.%.%.%.%.%.#.%.*.;.-.-.-.",
"l t O 9 U T E ! / ^ ^ ^ ! E T P I I J S M $ , X + . %.%.%.%.%.%.%.%.%.%.%.%.%.%.%.%.%.%.%.%.%.%.%.%.%.%.%.%.%.%.%.%.%.%.&.-.-.-.",
"l t O 0 A Y T E W W W W W I I I I I L S m $ , X . . %.%.&.&.&.-.=.=.#.#.#.%.%.%.%.%.%.%.%.%.%.%.%.%.%.%.%.%.%.%.%.%.%.%.%.%.=.:.",
"l t O 0 r T P T I I I I I I I I I I J S M $ , X . . %.%.&.&.;.-.;.=.&.%.#.%.%.%.%.%.%.%.%.%.%.%.%.%.=.%.%.%.%.%.%.%.=.%.%.%.=.;.",
"k t O 2 7 L L P I I I I P I I P L G F C M & , X . . %.%.&.&.-.-.;.;.;.=.%.%.%.%.%.%.%.%.%.%.%.%.%.%.%.%.%.%.%.%.%.%.%.%.%.#.%.=.",
"k t X 1 > S G L I I I I I I I L G S C M M & , X . + %.%.=.;.&.-.;.;.;.=.%.%.%.%.%.%.%.%.%.%.%.%.%.%.%.%.%.=.%.%.%.%.%.%.#.%.%.%.",
"k @ O , ; B D K I I I I I I I G S B N N m & , X + . %.=.&.-.-.&.-.-.-.&.=.=.%.%.%.%.%.%.%.%.%.%.%.%.%.%.%.%.%.%.%.%.%.%.%.%.%.%.",
"b d i 9 < % C A J K K K J L L D S m - = & < 3 u p a ;.;.-.&.&.&.-.;.&.-.;.=.*.%.%.%.%.%.%.%.%.%.%.%.%.%.%.%.%.%.%.%.%.%.%.%.%.%.",
"] ) l g 3 , * 6 S S S S S S S C V m = % , 3 g j v v ;.;.-.-.:.;.-.-.&.-.;.&.&.*.%.%.%.%.%.%.%.%.%.%.%.%.%.%.%.%.%.%.%.%.%.%.%.%.",
"@...] l q o , ; B B M M B B M M M m & # X q j ` $.@.;.&.-.&.-.:.;.;.-.-.&.-.&.;.%.%.%.%.%.%.%.%.%.%.%.%.%.%.%.%.%.%.%.%.%.%.%.%.",
"%.%.X.n s q 3 < & & & & & $ & & & & 5 3 y d n O.-.-.-.-.-.-.-.-.-.-.-.-.-.-.-.-.;.&.%.%.%.=.%.#.%.%.%.%.%.%.%.%.%.%.%.%.%.%.%.%.",
"%.%.@.] n k g 3 , , # , , # , , , # 3 g j n [ $.-.-.-.-.-.-.-.-.-.-.-.-.-.-.-.-.;.&.*.%.#.%.#.=.%.%.%.%.%.%.%.%.%.%.%.%.%.%.%.%.",
"%.%.#.@.} ] l u X X X X X X X X X X u l ] +.$.-.:.-.-.-.-.-.-.-.-.-.-.-.-.-.-.;.-.-.&.=.%.%.%.%.%.%.%.%.%.%.%.%.%.%.%.%.%.%.%.%.",
"=.#.%.%.%.X.c i . . . .       . .   a c X.&.-.-.-.-.-.-.-.-.-.-.-.-.-.-.-.-.-.-.-.-.&.=.%.%.%.%.%.%.%.%.%.%.%.%.%.%.%.%.%.%.%.%.",
"%.%.%.%.%.X.c i . . . . . . . . + + a v O.-.-.&.-.-.-.-.-.-.-.-.-.-.-.-.-.-.-.-.-.&.-.&.&.*.%.#.%.%.%.%.%.%.%.%.%.%.%.%.%.%.%.%.",
"%.%.%.#.%.%.%.#.%.%.%.%.%.%.%.%.%.*.-.-.-.-.&.-.-.-.-.-.-.-.-.-.-.-.-.-.-.-.-.-.-.-.-.-.;.;.*.%.%.%.%.=.%.%.=.%.%.%.%.%.%.%.%.%.",
"%.%.#.=.%.%.#.%.%.%.%.%.%.%.%.%.*.&.-.-.-.-.-.-.-.-.-.-.-.-.-.-.-.-.-.-.-.-.-.-.;.-.&.-.;.&.&.=.%.%.%.%.%.%.%.%.%.%.%.%.%.%.%.%.",
"%.%.=.%.%.%.#.=.%.%.%.%.%.%.%.%.-.-.-.-.&.-.-.-.-.-.-.-.-.-.-.-.-.-.-.-.-.-.;.-.;.;.-.-.-.-.-.-.%.%.%.%.%.%.%.%.%.%.%.%.%.%.%.=.",
"%.%.%.%.%.%.%.%.%.%.=.%.#.%.=.=.-.-.-.-.-.-.-.-.-.-.-.-.-.-.-.-.-.-.-.-.-.-.-.-.-.-.-.-.-.-.-.-.=.=.%.#.%.=.%.#.%.%.%.%.%.%.%.%.",
"%.%.%.%.%.%.%.%.%.%.%.%.%.%.-.&.-.-.-.-.-.-.-.-.-.-.-.-.-.-.-.:.-.-.-.-.:.-.-.-.-.-.-.-.-.-.-.-.;.;.%.%.#.%.%.%.%.%.%.%.%.%.%.%.",
"%.%.%.%.%.%.%.%.%.%.%.%.=.&.;.;.-.-.-.-.-.-.-.-.-.-.-.-.-.-.-.-.-.-.-.-.-.-.-.-.-.-.-.-.-.-.-.-.&.;.=.=.%.%.%.%.%.%.%.%.%.%.%.%.",
"%.%.%.%.%.%.%.%.%.%.%.=.=.-.-.-.-.-.-.-.-.-.-.-.-.-.-.-.-.-.-.-.-.-.-.-.-.-.-.-.-.-.-.-.-.-.-.-.-.;.;.=.%.%.%.%.%.%.%.%.%.%.%.%.",
"%.%.%.%.%.%.%.%.#.%.=.&.&.-.-.-.-.-.-.-.-.-.-.-.-.-.-.-.-.-.-.-.-.-.:.-.-.-.-.-.-.-.-.-.-.-.-.-.&.&.-.;.-.=.%.#.%.%.%.%.%.%.%.%.",
"%.%.%.%.%.%.%.%.#.=.&.-.;.&.-.-.-.-.-.-.-.-.:.-.-.-.-.-.-.-.-.-.-.-.-.-.-.-.-.-.-.-.-.-.-.-.-.:.-.-.&.-.;.-.%.&.%.%.%.%.%.%.%.%.",
"%.%.%.%.%.%.%.%.*.&.&.-.-.-.-.-.-.-.-.-.-.-.-.-.-.-.-.-.-.-.-.-.-.-.-.-.-.-.-.-.-.-.-.-.-.-.-.-.;.-.&.&.;.&.-.=.=.%.%.%.%.%.%.%.",
"%.%.%.%.%.%.%.%.;.;.-.-.&.;.&.-.-.-.-.-.-.-.-.-.-.-.-.-.-.-.-.-.-.-.-.-.-.-.-.-.-.-.-.-.-.-.-.-.;.;.-.&.&.-.-.-.%.%.%.%.%.%.%.%.",
"#.%.%.%.#.%.&.&.-.-.-.-.-.-.-.-.-.-.-.-.-.-.-.-.-.-.-.-.-.-.-.-.-.-.-.-.-.-.-.-.-.-.-.-.-.-.-.-.-.-.;.-.-.-.-.-.;.=.%.#.%.%.%.%.",
"%.%.%.%.%.*.&.-.-.-.-.-.-.-.-.-.-.-.-.;.-.-.-.-.-.-.-.-.-.-.-.-.-.-.-.-.-.-.-.-.-.-.-.-.-.-.-.-.-.-.-.-.-.-.-.-.;.=.*.%.#.%.%.%.",
"%.%.#.%.*.&.-.-.-.-.-.-.-.;.-.-.-.-.-.-.-.-.-.-.-.-.-.-.-.-.-.-.-.-.-.-.-.-.-.-.-.-.-.-.-.-.-.-.-.-.-.-.-.-.-.-.&.-.;.=.%.%.%.%.",
"*.%.%.*.=.&.-.-.-.-.;.-.-.-.-.-.-.-.-.-.-.-.:.-.-.-.-.-.-.-.-.-.-.-.-.-.:.-.-.-.-.-.-.-.-.-.-.-.-.-.-.-.-.-.-.-.;.-.;.&.=.%.%.%.",
"#.%.=.=.-.-.-.-.-.-.-.-.-.-.-.-.;.-.-.-.-.-.-.-.-.-.-.-.-.-.-.-.-.-.-.-.-.-.-.-.-.-.-.-.-.-.-.-.-.-.-.-.-.-.-.-.-.-.-.-.=.=.%.#.",
"#.*.;.;.-.&.-.-.-.-.-.-.-.-.-.-.-.-.-.-.-.-.-.-.-.:.-.-.-.-.-.-.-.-.-.-.-.-.-.-.-.-.-.-.-.-.-.-.-.-.-.-.-.-.-.-.-.&.&.-.&.&.=.#.",
"%.-.-.;.-.&.-.;.-.-.-.-.-.-.-.-.-.-.-.-.-.-.-.-.-.-.-.-.-.-.-.-.-.-.-.-.-.-.-.-.-.-.-.-.-.-.-.-.-.-.-.-.-.-.-.-.&.-.&.&.-.-.*.*.",
"-.-.&.-.-.-.;.:.-.-.;.-.-.-.-.-.-.-.-.-.-.-.-.-.-.-.-.-.-.-.-.-.-.-.-.-.-.-.-.-.-.-.;.-.-.-.-.-.-.-.-.:.-.-.-.-.;.-.-.-.-.-.;.;."
};
