/* XPM */
static char *bullet_5_1712251712[] = {
/* columns rows colors chars-per-pixel */
"64 64 108 2 ",
"   c #221E2F",
".  c #221F30",
"X  c #22212F",
"o  c #223E27",
"O  c #223E28",
"+  c #232131",
"@  c #2B2736",
"#  c #2A2835",
"$  c #255D1C",
"%  c #266A17",
"&  c #25631A",
"*  c #2C621C",
"=  c #276B18",
"-  c #3B6A1D",
";  c #277414",
":  c #277E13",
">  c #397B19",
",  c #244625",
"<  c #2E4128",
"1  c #354329",
"2  c #39462A",
"3  c #3F4F28",
"4  c #3F5026",
"5  c #365E2A",
"6  c #46533E",
"7  c #48513E",
"8  c #4A583F",
"9  c #4B7022",
"0  c #577424",
"q  c #587525",
"w  c #5B7E23",
"e  c #58742A",
"r  c #576B30",
"t  c #586932",
"y  c #53494D",
"u  c #594D4F",
"i  c #4B5A40",
"p  c #565841",
"a  c #5B5E41",
"s  c #5A4E50",
"d  c #5E5252",
"f  c #6B5C5A",
"g  c #6C605B",
"h  c #716B55",
"j  c #726B5A",
"k  c #7A6F5C",
"l  c #72705B",
"z  c #877369",
"x  c #88746A",
"c  c #897A6C",
"v  c #937B6F",
"b  c #957E72",
"n  c #29870F",
"m  c #2D8810",
"M  c #338910",
"N  c #3F8E13",
"B  c #438E14",
"V  c #4D8C19",
"C  c #449014",
"Z  c #4A9316",
"A  c #559617",
"S  c #5B9817",
"D  c #5C9918",
"F  c #649C1A",
"G  c #6B9E1B",
"H  c #6EA01B",
"J  c #72A11D",
"K  c #71972A",
"L  c #72982B",
"P  c #76A521",
"I  c #79A721",
"U  c #7CAA24",
"Y  c #83AE29",
"T  c #83B12B",
"R  c #89B52E",
"E  c #86AC32",
"W  c #8BB730",
"Q  c #92BC34",
"!  c #97BF38",
"~  c #96C038",
"^  c #9DC63C",
"/  c #958473",
"(  c #9B8474",
")  c #9F8578",
"_  c #A08478",
"`  c #A28D7A",
"'  c #AA8F7E",
"]  c #AD917F",
"[  c #A4CC42",
"{  c #AC9581",
"}  c #B29583",
"|  c #B39B83",
" . c #B89986",
".. c #B69D89",
"X. c #B8A388",
"o. c #C5A58E",
"O. c #C7AE8F",
"+. c #C6AF90",
"@. c #D3AF95",
"#. c #D5B296",
"$. c #D6BC97",
"%. c #D8BC97",
"&. c #D5B598",
"*. c #D8B69A",
"=. c #D7BD9A",
"-. c #D9BC9B",
";. c #D9BEA0",
":. c #D7C097",
/* pixels */
"=.=.=.=.:.=.=.=.=.=.=.=.=.;.=.=.=.:.-.=.=.=.=.=.=.=.=.:.=.=.=.=.:.;.=.=.=.=.=.=.=.=.=.=.;.=.=.=.=.=.=.=.=.=.=.=.:.=.=.=.=.=.=.=.",
"=.=.=.=.=.=.=.=.=.=.=.=.=.:.=.=.=.=.=.=.=.=.=.=.=.=.=.;.=.$.=.=.=.=.=.=.=.$.=.=.=.=.=.=.=.=.=.=.=.=.=.=.=.=.=.=.=.-.=.=.=.=.:.-.",
"=.=.=.=.=.=.=.=.=.=.=.=.=.=.=.=.=.=.=.=.=.=.=.=.=.=.=.=.=.=.$.$.=.=.=.=.=.=.&.:.=.=.=.=.=.=.=.=.=.=.=.=.=.=.=.=.=.=.=.=.=.=.;.=.",
"=.=.=.=.-.=.=.=.=.=.=.-.=.=.=.=.=.=.=.=.=.=.=.=.=.=.=.=.;.=.=.$.&.=.=.;.=.=.=.=.=.=.=.=.=.=.=.=.:.=.=.=.=.=.=.=.=.=.=.=.=.=.=.=.",
"=.=.=.=.=.=.-.=.=.:.=.=.=.=.=.=.=.=.=.=.=.=.=.=.=.=.=.-.;.-.@.@.@.&.-.=.;.=.=.=.=.=.=.:.=.=.=.=.=.=.=.;.=.=.=.=.=.=.=.=.=.=.=.=.",
"=.=.=.=.=.=.:.=.=.-.=.=.=.=.=.=.=.=.=.=.=.=.=.=.=.=.=.-.-.#.#.@.@.#.&.$.=.-.=.-.=.=.=.=.=.=.=.=.=.=.=.=.=.=.=.=.=.=.=.=.=.=.=.=.",
"=.=.=.=.=.=.=.-.=.=.=.=.=.=.=.=.-.=.-.-.=.=.=.=.=.=.=.=.#.#.#.#.#.@.&.#.-.=.=.=.=.=.=.=.=.=.=.=.=.=.=.=.=.=.=.=.=.:.=.=.=.=.=.=.",
"=.=.=.=.=.=.=.=.=.=.=.=.=.=.=.=.=.:.-.:.=.=.=.=.=.=.=.&.#.#.#.#.&.#.@.@.&.=.=.:.=.=.=.=.=.=.=.=.=.=.=.=.=.=.=.=.=.;.=.=.=.=.=.=.",
"=.=.:.=.=.=.=.=.=.=.=.=.=.=.=.=.=.=.=.=.=.=.=.=.-.*.#.#.#.#.#.#.#.#.#.#.#.*.-.;.=.=.=.=.:.=.=.=.=.=.=.=.=.=.=.=.=.=.=.=.=.=.=.=.",
"=.=.;.=.=.=.=.=.=.=.=.=.=.=.=.=.=.=.=.=.=.=.=.=.*.*.#.#.#.#.#.#.#.#.@.#.@.#.&.-.=.=.=.=.=.&.=.=.=.=.=.=.=.=.=.=.=.=.=.=.=.=.=.=.",
"=.=.=.=.=.=.=.=.=.=.=.=.=.=.=.=.=.=.=.=.=.=.=.=.*.#.#.#.#.#.#.#.#.#.#.#.#.#.#.#.=.=.=.=.=.=.=.=.=.=.=.=.=.=.=.=.=.=.=.=.=.-.=.=.",
"=.=.=.=.=.=.=.=.;.=.=.=.=.=.=.=.=.=.=.-.-.-.=.&.#.#.#.#.#.#.#.#.#.#.#.#.@.#.#.@.&.-.-.-.-.=.=.=.=.=.=.=.=.;.=.=.=.=.=.=.=.=.=.=.",
"=.=.=.=.=.=.=.=.-.=.=.=.=.=.=.-.=.=.=.-.-.-.#.@.*.#.#.#.#.#.#.#.#.#.#.#.#.#.#.*.#.#.=.-.=.=.=.=.=.=.=.=.-.:.=.=.=.=.=.=.=.;.=.=.",
"=.=.=.=.=.=.=.=.:.=.=.=.=.=.=.:.=.=.=.-.-.#.#.@.#.#.#.#.#.#.#.#.#.#.#.#.#.#.@.#.@.#.&.$.;.=.=.=.=.=.-.=.=.=.=.=.=.=.=.=.=.:.=.=.",
"=.=.=.=.=.=.=.=.;.=.=.=.=.=.=.=.=.=.%.*.#.#.#.#.#.#.#.#.#.#.#.#.#.#.#.#.#.#.#.#.#.@.#.$.-.=.=.=.=.=.:.=.=.=.=.=.=.=.=.=.=.=.=.=.",
"=.=.=.=.=.=.=.=.=.=.=.=.=.=.=.=.=.=.%.%.#.@.#.#.#.#.#.#.#.#.#.*.#.#.#.#.#.#.#.#.#.#.@.@.&.=.=.$.=.=.=.=.=.=.=.=.=.=.=.=.=.=.=.=.",
"=.-.=.=.=.=.=.=.=.=.=.=.=.=.=.=.;.-.&.&.#.#.#.#.#.#.#.#.#.#.#.#.#.#.#.#.#.#.#.#.#.@.#.@.#.&.-.-.;.=.:.=.=.=.=.=.=.=.=.=.=.=.=.=.",
"=.=.=.;.=.=.=.=.=.=.=.=.=.=.=.=.-.&.#.@.#.#.#.#.#.#.#.#.#.#.#.#.#.#.#.#.#.#.#.@.#.#.#.#.#.#.*.*.=.=.=.=.=.=.=.=.=.=.=.=.=.=.=.=.",
"=.=.=.:.=.=.=.=.=.=.=.=.=.=.=.=.#.#.&.@.#.#.#.#.#.#.#.#.#.#.#.#.#.#.#.#.#.#.@.@.#.#.#.#.#.#.@.#.=.=.=.=.$.=.=.=.=.=.=.=.=.=.=.=.",
"=.=.=.=.=.=.=.=.=.=.=.=.-.-.=.&.#.#.@.@.#.#.#.#.#.#.#.#.#.#.#.#.#.#.@.o. .] ' ' ] ] ' ' ' '  .o.&.=.-.;.=.=.=.=.=.=.=.=.=.=.=.=.",
"=.=.=.=.=.=.=.=.=.=.=.;.-.-.#.#.#.#.#.#.#.#.#.#.#.#.#.#.#.#.#.#.#.#.#.] z f f f f f f f g f x } @.#.-.-.-.=.=.$.=.=.=.=.=.=.=.=.",
"=.=.=.=.=.=.=.=.=.=.:.-.-.*.#.@.#.#.#.#.#.#.#.#.#.#.#.#.#.#.#.#.#.#.#.b u   @ @ @ @ @ @ @ @ s b @.#.-.=.-.-.=.=.=.=.=.=.=.=.=.=.",
"=.=.=.=.-.=.=.=.=.=.=.=.#.#.#.@.#.#.#.#.#.#.@.#.#.#.#.#.#.#.#.#.o.] _ z a 7 o 1 1 7 2 o o o 7 j / { o.#.=.=.=.=.=.=.=.=.=.=.=.=.",
"=.=.=.:.=.=.=.=.=.=.=.#.#.@.#.#.#.#.#.#.#.#.#.#.#.#.#.#.#.#.#.#. .z u t t q q 0 0 q q 0 - & 5 i d z { #.&.-.=.=.=.-.=.=.=.=.=.=.",
"=.=.=.=.=.=.=.=.;.=.&.#.#.#.#.#.#.#.#.#.#.#.#.#.#.#.#.#.#.#.@.#.b d   4 w Y H J J J J F Z M = , . s ) @.@.&.-.=.:.=.=.=.=.=.=.=.",
"=.=.=.=.=.$.=.=.;.&.@.&.#.#.#.#.#.#.#.#.#.#.#.#.#.#.#.#.#.o.] b z a 4 q L Y Y Y Y U J G A C > * , i j c b #.&.-.=.=.=.=.=.=.=.=.",
"=.=.=.=.=.=.$.$.&.&.@.@.#.#.#.#.#.#.#.#.#.#.#.#.#.#.#.#.@. .z u p t w K Y ! ! ! Q T I G F F V > = 5 i y y @.#.&.=.=.=.=.=.=.=.=.",
"=.=.=.-.;.=.=.$.#.@.@.@.#.#.#.#.#.#.#.#.#.#.#.#.*.#.#.#.@.] f @ 2 0 J Y ! [ [ [ ^ R I J J J D C m & O .   #.@.#.&.=.-.;.=.=.=.=.",
"=.=.=.;.-.-.#.@.#.#.#.#.#.#.#.#.#.#.#.#.#.#.#.#.#.#.#.#.#.] f @ 2 0 J Y ! [ [ [ ^ W I J J J D C n & O + + #.#.#.@.&.-.=.-.=.=.=.",
"=.=.=.=.-.*.#.@.#.#.#.#.#.#.#.#.#.#.@.@.#.#.*.#.#.#.#.#.@.] f @ 2 q J Y ! [ [ [ ^ W I J J J D C n $ O .   #.#.#.@.#.&.=.-.-.=.-.",
"=.=.=.=.#.#.#.#.#.#.#.#.#.#.#.#.*.#.#.*.#.#.#.#.#.#.#.#.#.] f @ 2 0 J Y Q ^ ^ ^ ~ R P J J J S C n & O . + #.#.#.#.@.#.@.-.=.=.=.",
"=.=.=.&.#.@.#.#.#.#.#.#.#.#.#.#.@.#.#.#.#.#.#.#.#.#.#.#.#.] f @ 2 0 H Y Y W R W W U J J J J S C n & O . X #.#.#.#.#.@.#.&.=.=.:.",
";.*.#.#.#.#.#.#.#.#.#.#.#.#.#.#.#.#.&.#.#.#.#.#.@.#.&.#.@.' g # 2 0 H J J I I I U P J J J J D C n & O . . #.#.#.#.#.#.#.*.#.;.;.",
"-.*.#.#.#.#.#.#.#.#.#.#.#.#.#.#.#.#.#.#.#.#.#.#.#.#.#.#.#.{ g # 2 9 F G J J J J J J H H G F A N n & O . . #.#.#.#.#.#.#.#.#.&.*.",
"#.#.@.#.#.#.#.#.#.#.#.#.#.#.#.#.#.#.#.#.#.#.#.#.#.#.#.#.&.{ g # < - Z S G J J J J J H H D Z N M n & O . . #.#.#.#.#.#.#.#.@.#.&.",
"#.#.#.#.#.#.#.#.#.#.#.*.#.#.#.#.#.#.#.#.#.#.#.#.#.#.#.#.=.{ g # o % M C S J J J J H H F Z M m m n & O . . #.#.#.#.#.#.#.#.#.#.#.",
"#.#.#.#.#.#.#.#.#.#.#.#.#.#.#.#.#.#.#.#.#.#.#.#.@.#.&.&.=.X.c d 8 5 = > V D D D S S D A N m : ; % 5 i y y @.#.#.#.#.#.#.#.@.#.#.",
"#.@.#.#.#.#.#.#.#.#.#.#.#.#.#.#.#.#.#.#.#.#.#.#.#.&.-.-.=.O.] / l 8 , $ > B C B C C C N M n ; $ , 8 j b b @.#.#.#.#.#.#.#.#.@.#.",
"#.#.#.#.#.#.#.#.#.#.#.#.#.#.#.#.#.#.#.#.#.#.#.#.&.=.=.=.=.=.=.-.` f   , = n n n n n n n n n % , X d ) #.@.#.@.#.#.#.#.#.#.#.#.#.",
"*.#.#.#.#.#.*.#.#.#.#.#.#.#.#.#.#.#.#.#.#.#.#.#.=.=.=.=.=.=.-.;.| z f 8 5 & & & & & & & & & 5 8 d z { #.@.#.#.#.#.#.#.#.#.#.#.#.",
"@.#.#.#.#.#.#.#.#.#.#.#.#.#.#.#.#.#.*.#.@.@.&.;.=.=.=.=.-.:.=.=.+.| ` l i O O O O O O O O O i g _ ] o.*.#.#.#.#.#.#.#.#.#.#.#.#.",
"#.#.#.#.#.#.#.#.#.#.#.#.#.#.#.#.#.#.#.#.#.#.&.-.=.=.=.=.=.=.=.=.=.=.=./ y .       .     +   y v #.#.#.#.#.#.*.#.#.#.#.#.#.#.*.#.",
"#.#.#.#.#.#.#.#.#.#.#.#.#.*.#.#.#.#.#.#.&.=.-.=.=.=.=.=.=.=.=.=.=.=.$./ y + +     . X       y b #.#.#.#.#.#.#.#.#.#.#.#.#.#.#.#.",
"#.#.#.#.#.#.#.#.#.#.#.#.#.#.#.#.#.#.#.*.&.=.=.=.=.=.=.=.=.=.=.=.=.=.-.=.=.=.=.;.$.=.-.=.#.#.#.#.#.#.#.#.#.#.#.#.#.#.#.#.#.#.#.#.",
"#.#.#.#.#.#.#.#.#.#.#.#.#.#.#.#.#.#.*.-.=.=.=.$.=.=.=.=.=.=.=.=.=.=.=.=.=.=.=.=.:.=.=.=.-.*.#.@.#.#.#.#.#.#.#.#.#.#.#.#.#.#.#.#.",
"#.#.#.#.*.#.#.#.#.#.#.#.#.#.#.#.#.#.*.=.=.=.=.=.=.=.=.=.=.=.=.=.=.=.=.=.=.-.=.:.=.=.$.=.-.-.&.#.#.#.#.#.#.#.#.#.#.#.#.#.#.#.#.#.",
"#.#.#.#.#.#.#.#.#.#.#.#.#.#.#.#.&.=.=.=.=.%.=.=.=.=.=.;.:.=.-.=.=.=.=.=.=.=.=.=.=.=.%.%.%.=.=.#.#.#.#.#.#.#.#.*.#.#.#.#.@.@.#.#.",
"#.#.#.#.#.#.#.#.#.#.#.#.#.#.#.@.=.=.=.:.$.=.=.=.=.=.=.=.=.=.=.=.=.=.=.=.=.=.=.=.=.=.=.=.$.=.=.-.#.#.#.#.#.#.#.#.#.#.#.@.*.*.#.#.",
"#.#.#.#.#.*.#.#.@.#.#.#.@.@.*.*.=.=.=.=.=.=.;.=.=.=.=.=.=.=.=.=.=.=.=.=.=.=.=.-.=.=.=.=.=.=.=.=.*.*.#.#.&.&.#.@.#.#.#.#.#.#.#.#.",
"#.#.#.#.#.#.#.#.#.#.#.#.*.*.-.*.=.:.=.=.=.=.:.-.=.=.=.=.=.=.=.=.=.=.=.=.=.=.=.=.=.-.=.=.=.=.=.=.%.*.#.#.@.#.#.#.#.#.#.#.#.#.#.#.",
"#.#.#.#.#.#.#.#.#.#.#.#.*.-.=.=.=.-.=.=.=.=.=.=.=.=.=.=.=.=.=.=.=.=.=.=.:.;.=.=.=.=.=.=.=.=.=.=.-.-.*.*.#.#.#.#.#.#.#.#.#.#.#.#.",
"#.#.#.#.#.#.#.#.#.#.#.#.*.=.=.%.=.=.=.=.=.=.=.=.=.=.=.=.=.=.=.=.=.=.=.=.=.=.=.=.=.=.=.=.=.:.=.=.:.:.*.%.#.#.#.#.#.#.#.#.#.#.#.#.",
"#.#.#.#.#.#.#.#.@.#.*.-.%.=.$.$.=.=.=.=.=.=.=.=.=.=.=.=.=.=.=.=.=.=.=.=.=.=.=.=.=.=.=.=.=.=.=.=.=.:.=.=.-.#.#.@.#.#.#.#.#.#.#.#.",
"#.*.#.#.#.#.#.#.#.#.-.=.=.$.%.=.=.=.=.=.=.=.=.=.=.=.=.=.=.=.=.=.=.=.=.=.=.=.=.=.=.=.:.=.;.=.=.=.-.%.$.=.-.-.#.#.#.#.#.#.#.#.#.#.",
"#.#.#.#.#.*.#.#.&.=.=.=.=.=.:.=.=.=.=.=.=.;.=.=.=.=.=.=.=.:.;.=.=.=.=.=.=.=.=.=.=.=.;.=.=.=.=.=.-.-.%.:.=.=.$.&.#.#.#.#.#.#.#.#.",
"#.#.#.#.#.#.#.#.=.=.=.:.$.=.-.-.=.=.=.=.=.=.=.=.=.=.=.=.=.=.=.=.=.=.=.=.=.=.=.=.=.=.=.=.=.=.=.=.-.-.:.=.=.=.=.-.#.#.#.#.#.#.#.#.",
"@.#.&.#.@.#.&.-.=.=.=.=.=.=.=.=.=.=.=.=.=.=.=.=.=.=.=.=.=.=.=.=.=.=.;.=.=.=.=.=.=.=.=.=.=.=.=.=.=.=.=.=.=.=.=.=.;.*.#.@.#.#.#.#.",
"#.#.#.@.#.&.=.=.=.=.=.=.=.=.=.=.=.=.=.=.=.=.=.=.=.=.=.=.=.=.=.=.-.=.=.=.=.=.=.=.=.=.=.=.=.=.=.=.=.=.=.=.=.=.=.=.-.-.#.#.#.#.#.#.",
"#.#.#.#.&.=.=.=.=.=.=.=.=.=.=.=.=.=.=.=.=.=.=.=.=.=.=.=.=.=.=.=.:.=.=.=.=.=.=.=.=.=.=.=.=.=.=.=.=.=.=.-.=.=.=.=.-.=.-.*.#.@.#.#.",
"#.#.#.#.&.=.=.:.=.=.=.=.=.=.=.=.=.=.=.=.=.=.-.:.:.=.=.=.=.=.=.=.=.=.=.=.=.=.=.=.=.=.=.=.=.=.:.-.-.:.=.=.=.=.=.=.=.=.-.*.#.#.#.#.",
"#.#.&.*.=.=.$.:.=.=.=.=.=.=.=.=.=.=.=.=.=.=.=.=.;.=.=.=.=.=.=.=.=.=.=.=.=.=.=.=.=.=.=.=.=.=.=.=.-.=.=.=.=.=.=.=.=.=.=.=.-.#.#.@.",
"#.&.*.-.=.$.$.=.=.=.=.=.=.=.=.=.=.=.=.=.=.=.=.=.=.=.=.=.=.=.=.=.=.=.=.=.=.=.=.=.=.=.=.=.=.=.=.=.=.=.-.=.=.=.=.=.=.=.$.=.-.-.&.#.",
"#.=.-.=.=.$.=.-.=.=.=.=.=.=.=.=.=.=.=.=.-.=.=.=.=.=.=.=.:.;.=.=.=.=.=.=.=.=.=.=.=.=.=.=.-.:.=.=.=.=.:.=.=.=.=.=.=.=.$.:.=.=.&.&.",
"-.=.=.=.=.-.=.-.=.=.=.=.=.-.=.=.;.:.=.=.=.=.=.=.=.=.=.=.-.=.=.=.=.=.:.-.=.=.=.=.=.=.=.=.;.=.=.=.=.=.=.=.=.=.=.=.=.=.=.=.=.=.=.=."
};
