/* XPM */
static char *bullet_7_1712251712[] = {
/* columns rows colors chars-per-pixel */
"64 64 203 2 ",
"   c #221F30",
".  c #22212F",
"X  c #213D26",
"o  c #223E27",
"O  c #253F26",
"+  c #223E28",
"@  c #233F29",
"#  c #232230",
"$  c #232033",
"%  c #292734",
"&  c #2B2736",
"*  c #2A2835",
"=  c #2A2836",
"-  c #2C2837",
";  c #2B2738",
":  c #256A17",
">  c #246219",
",  c #25631A",
"<  c #28641A",
"1  c #30611F",
"2  c #3B691E",
"3  c #397B19",
"4  c #264525",
"5  c #244625",
"6  c #2D4128",
"7  c #354329",
"8  c #384529",
"9  c #39462A",
"0  c #3F4F28",
"q  c #3E5028",
"w  c #365E2A",
"e  c #46523E",
"r  c #49573E",
"t  c #4B7022",
"y  c #577424",
"u  c #587324",
"i  c #5B7E20",
"p  c #5B7E22",
"a  c #58742A",
"s  c #586C31",
"d  c #53484C",
"f  c #594D4F",
"g  c #4B5741",
"h  c #565A41",
"j  c #585840",
"k  c #5A4E50",
"l  c #5B5152",
"z  c #5E5254",
"x  c #605252",
"c  c #605654",
"v  c #6B5B5B",
"b  c #6D5B59",
"n  c #6B5C59",
"m  c #5B6042",
"M  c #5C6143",
"N  c #6B605A",
"B  c #6B605C",
"V  c #6C615D",
"C  c #716C59",
"Z  c #7B705C",
"A  c #7B735E",
"S  c #87736A",
"D  c #88746B",
"F  c #8A7A6D",
"G  c #89786E",
"H  c #937D70",
"J  c #947C70",
"K  c #977F73",
"L  c #28870F",
"P  c #29870F",
"I  c #2F8810",
"U  c #4D8C19",
"Y  c #429114",
"T  c #449014",
"R  c #479114",
"E  c #449016",
"W  c #4A9215",
"Q  c #589617",
"!  c #5C9918",
"~  c #5D9A19",
"^  c #619A19",
"/  c #639C1B",
"(  c #669D1B",
")  c #689D1B",
"_  c #6C9F1C",
"`  c #73A11B",
"'  c #72A21B",
"]  c #72A11D",
"[  c #73A11D",
"{  c #73A21E",
"}  c #75A01D",
"|  c #75A31F",
" . c #76A41E",
".. c #71972A",
"X. c #72962A",
"o. c #77A521",
"O. c #79A721",
"+. c #78A622",
"@. c #7BA922",
"#. c #7DAB27",
"$. c #83AE29",
"%. c #84AF2A",
"&. c #83B12A",
"*. c #83B12B",
"=. c #83B12D",
"-. c #86B42D",
";. c #88B42D",
":. c #88AC32",
">. c #89B730",
",. c #8BB730",
"<. c #93BC32",
"1. c #92BC34",
"2. c #95BF37",
"3. c #97BF38",
"4. c #96C038",
"5. c #9FC53C",
"6. c #9DC63C",
"7. c #978674",
"8. c #9F8578",
"9. c #A08478",
"0. c #A08B7A",
"q. c #A28D7A",
"w. c #AA8F7C",
"e. c #A98F7E",
"r. c #AB8E7E",
"t. c #AA8F7E",
"y. c #AD927D",
"u. c #A5CB42",
"i. c #A2CC42",
"p. c #A3CC42",
"a. c #A3CB44",
"s. c #AC9180",
"d. c #AC9880",
"f. c #B19683",
"g. c #B19484",
"h. c #B09C83",
"j. c #B39D85",
"k. c #B39F86",
"l. c #B89985",
"z. c #B8A388",
"x. c #C7A48E",
"c. c #C6A68F",
"v. c #C6AF8F",
"b. c #D3AF95",
"n. c #C7B091",
"m. c #CFB093",
"M. c #D3B092",
"N. c #D2B192",
"B. c #D5B093",
"V. c #D0B194",
"C. c #D2B094",
"Z. c #D3B195",
"A. c #D2B394",
"S. c #D5B095",
"D. c #D4B195",
"F. c #D5B294",
"G. c #D6B395",
"H. c #D4B096",
"J. c #D5B096",
"K. c #D5B197",
"L. c #D6B196",
"P. c #D4B296",
"I. c #D5B296",
"U. c #D4B297",
"Y. c #D5B397",
"T. c #D7B297",
"R. c #D6B397",
"E. c #D3B696",
"W. c #D4B596",
"Q. c #D5B697",
"!. c #D4B797",
"~. c #D9B197",
"^. c #D6BC97",
"/. c #D4B598",
"(. c #D6B498",
"). c #D7B498",
"_. c #D7B599",
"`. c #D5B699",
"'. c #D4B799",
"]. c #D7B899",
"[. c #D6B999",
"{. c #D4BA99",
"}. c #D5BB9A",
"|. c #D7BA9A",
" X c #D7BD98",
".X c #D6BC99",
"XX c #D6BE98",
"oX c #D7BF99",
"OX c #D7BD9A",
"+X c #D6BC9B",
"@X c #D6BE9A",
"#X c #D7BA9C",
"$X c #D8BB99",
"%X c #D8B99A",
"&X c #D9BA9B",
"*X c #D8BB9B",
"=X c #D9BD98",
"-X c #D8BE99",
";X c #D9BC9A",
":X c #D8BE9B",
">X c #D9BC9C",
",X c #DABD9D",
"<X c #D9BEA0",
/* pixels */
"OXOXOXOXOXOXOXOXOXOXOXOXOXOXOXOXOXOXOXOXOXOXOXOXOXOXOXOXOXOXOXOXOXOXOXOXOXOXOX{.OXOXOXOXOXOXOXOXOXOXOXOXOXOXOXOXOXOXOXOXOXOXOXOX",
"OXOXOXOXOXOXOXOXOXOXOXOXOXOXOXOXOXOXOXOXOXOXOXOXOXOXXXOXOXOX:XOXOX:XOXOXOXOXOXOXOXOXOXOXOXOXOXOXOXOXOXOXOXOXOXOXOXOXOXOXOXOXOXOX",
"OXOXOXOXOXOXOXOXOXOXOXOXOXOXOXOXOXOXOXOXOXOXOXOXOXOXXXOX,X=XOXOXOXOXOXOXOX^.OXOXOXOXOXOXOXOXOXOXOXOXOXOXOXOXOXOXOXOXOXOXOXOXOXOX",
"OXOXOXOXOXOXOXOXOXOXOXOXOXOXOXOXOXOXOXOXOXOXOXOXOXOXOX{.,X=X{.!.'.{.,X,XOXOXOXOXOXOXOXOXOXOXOXOXOXOXOXOXOXOXOXOXOXOXOXOXOXOXOXOX",
"OXOXOXOXOXOXOXOXOXOXOXOXOXOXOXOXOXOXOXOXOXOXOXOXOXOXOX,X,X#XW.A.A.W.%X#X,XOXOXOXOXOXOXOXOXOXOXOXOXOXOXOXOXOXOXOXOXOXOXOXOXOXOXOX",
"OXOXOXOXOXOXOXOXOXOXOXOXOXOXOXOXOXOXOXOXOXOXOXOX%XOX=X,X%X_.H.F.A.H._.%X%X:X:X=XOXOXOXOXOXOXOXOXOXOXOXOXOXOXOXOXOXOXOXOXOXOXOXOX",
"OXOXOXOXOXOXOXOXOXOXOXOXOXOXOXOXOXOXOXOXOXOXOXOXOX@XOX{.W.H.H.H.H.H.A.W.{.OXOXOXOXOXOXOXOXOXOXOXOXOXOXOXOXOXOXOXOXOXOXOXOXOXOXOX",
"OXOXOXOXOXOXOXOXOXOXOXOXOXOXOXOXOXOXOXOXOXOXOXOX@XOXOX!.A.A.H.W.W.H.b.A.{.OXOXOXOXOXOXOXOXOXOXOXOXOXOXOXOXOXOXOXOXOXOXOXOXOXOXOX",
"OXOXOXOXOXOXOXOXOXOXOXOXOXOXOXOXOXOXOXOXOXOXOXOX<X#XW.W.W.H.H.~.~.~.H.W._.A.,X<XOXOXOXOXOXOXOXOXOXOXOXOXOXOXOXOXOXOXOXOXOXOXOXOX",
"OXOXOXOXOXOXOXOXOXOXOXOXOXOXOXOXOXOX{.OXOXOXOXOX#X{.H.H.~.~.H.W.H.H.H.~.H.A.'.#XOX:XOXOXOXOXOXOXOXOXOXOXOXOXOXOXOXOXOXOXOXOXOXOX",
"OXOXOXOXOXOXOXOXOXOXOXOXOXOXOXOXOXOXOXOXOX:XOXOX_.W.M.H.F.H.H.H.H.W.~.F.F.M.W.W.{.:X:XOXOX^.OXOXOXOXOXOXOXOXOXOXOXOXOXOXOXOXOXOX",
"OXOXOXOXOXOXOXOXOXOXOXOXOXOXOXOXOXOX{.#X=X,X{._.H.H.H.F.W.H.W.H.H.H.W.H.H.H.H.H._.{.:X,XOXOXOXOXOXOXOXOXOXOXOXOXOXOXOXOXOXOXOXOX",
"OXOXOXOXOXOXOXOXOXOXOXOXOXOXOXOX:X:XOX,X,X%XW.A.H.W.F.H.W.H.H.F.F.W.W.H.~.H.W.~.A.A.%X,X,X=XOXOXOXOXOXOXOXOXOXOXOXOXOXOXOXOXOXOX",
"OXOXOXOXOXOXOXOXOXOXOXOXOXOXOXOX=XOX:X:X%X_.W.M.~.H.W.H.H.~.W.~.~.H.G.H.H.W.H.~.A.W._.%X,X:XOXOXOXOXOXOXOXOXOXOXOXOXOXOXOXOXOXOX",
"OXOXOXOXOXOXOXOXOXOXOXOXOXOXOXOXOX@X=X%XW.H.F.H.~.W.~.H.G.W.~.~.H.~.H.G.W.W.~.G.b.H.W.H.{.OXOXOXOXOXOXOXOXOXOXOXOXOXOXOXOXOXOXOX",
"OXOXOXOXOXOXOXOXOXOXOXOXOXOXOXOXOXOXOXW.A.A.H.G.H.H.H.W.H.H.W.G.G.G.W.H.H.H.H.H.K.H.A.A._.OXOXOXOXOXOXOXOXOXOXOXOXOXOXOXOXOXOXOX",
"OXOXOXOXOXOXOXOX{.OXOXOXOXOXOXOX<X:XW.W.H.~.H.W.H.G.W.W.H.H.H.H.W.H.G.H.~.W.H.W.~.H.G.H._._.#X<XOXOXOXOXOXOXOXOXOX^.OX:XOXOXOXOX",
"OXOXOXOXOXOXOXOXOXOXOXOXOXOXOXOX#X'.H.H.~.H.G.H.H.W.~.H.W.G.W.H.H.~.W.H.H.G.H.H.H.W.~.~.A.A._.#XOXOXOXOXOXOXOXOXOXOX:X@XOXOXOXOX",
"OXOXOXOXOXOXOXOXOXOX{.OXOXOXOXOX'.K.A.H.W.~.H.G.~.H.H.W.~.H.H.~.H.G.H.W.W.H.W.~.W.H.H.H.b.m.W.W.OX=XOXOXOXOXOXOXOXOXOX@X@X@XOXOX",
"OXOXOXOXOXOXOXOXOXOXOX=X,XOX{._.H.A.b.H.H.H.H.W.W.G.H.H.H.W.G.W.~.W.~.W.G.H.G.H.W.H.W.H.H.H.F.H.A.{.OX,X{.OXOXOX{.n.z.y.d.d.d.y.",
"OXOXOXOXOXOXOXOXOXOXOX,X,X=XW.A.~.H.F.~.W.W.H.H.W.H.H.~.~.W.H.W.H.H.G.W.H.W.~.H.H.W.~.H.W.H.~.~.A.'.%X,X,XOXOXOX:Xd.F V V N N V ",
"OXOXOXOXOXOXOXOXOXOX:X,X#X_.H.M.H.H.H.W.H.~.H.W.H.~.G.W.H.G.H.H.W.H.H.~.W.H.H.W.H.G.H.W.G.H.F.H.b.A._.#X,X=XOX:XOX7.l * = = * * ",
"OXOXOXOXOXOXOXOXOXOX=X{.W.H.G.F.W.H.W.H.~.H.~.H.G.W.H.~.W.H.W.~.H.~.W.H.W.~.~.H.H.~.H.W.H.G.H.H.H.b.H.A.{.:Xv.j.q.A h 9 9 9 9 9 ",
"OXOXOXOXOXOXOXOXOXOXOX_.A.A.H.G.~.G.H.H.W.W.~.G.H.H.W.W.G.H.G.H.W.W.G.H.H.H.W.W.G.G.H.~.W.H.G.~._.A.M.A._.=Xj.G c M s y y y y y ",
"OXOXOXOXOXOXOXOX<X#X'.K.~.H.~.H.H.W.~.F.H.G.W.W.H.W.~.H.G.W.~.H.H.H.H.H.G.H.W.H.W.~.H.H.G.W.G.W.H.~.H.H.b.H.q.z # q i } } } } { ",
"OXOXOXOXOXOXOXOX:X'.H.A.G.H.W.H.W.H.W.H.H.W.~.H.H.G.H.W.H.H.H.W.W.G.W.H.W.~.G.H.G.H.W.H.H.~.H.H.W.H.F.x.s.7.Z M q a X.&.&.&.&.@.",
"OX{.{.OXOXOX=X{._.W.A.b.H.~.H.H.W.H.H.H.~.H.H.W.H.W.H.G.H.W.H.H.~.H.H.~.G.H.W.~.W.H.G.H.W.G.W.W.G.H.H.l.S k j s U X.:.4.4.4.<.&.",
"OXOXOX=X,X,X%X{.H.H.H.H.G.H.W.W.H.~.W.G.W.G.H.H.H.H.~.W.~.W.G.W.H.W.G.W.W.H.W.H.H.~.W.H.H.H.~.H.W.H.H.e.v & 9 y X.;.3.u.p.p.6.,.",
"OXOX:X,X,X#XW.A.H.W.F.W.H.H.H.F.H.G.H.G.W.~.W.~.G.W.G.W.~.H.~.H.G.H.H.~.~.H.H.G.H.G.W.W.F.~.H.W.F.H.W.y.b * 8 y ` =.4.a.p.u.6.;.",
"=XOX=X,X%X_.H.M.~.H.H.H.~.W.H.W.~.W.H.W.W.H.G.H.H.~.H.H.H.W.W.G.W.H.W.W.H.W.~.W.H.W.~.H.H.W.H.~.H.~.H.e.n - 9 u { &.4.p.p.p.6.,.",
"OXOXOX{.W.H.H.H.H.G.W.W.H.W.~.~.H.H.G.H.H.W.~.H.W.G.W.W.H.~.H.H.~.H.H.G.~.W.H.W.~.H.H.W.W.H.W.H.~.H.H.y.n & 8 y { $.1.6.6.6.4.;.",
"OXOXOX!.A.A.H.W.H.H.~.H.W.H.~.H.W.H.W.~.H.G.H.W.H.H.~.H.G.W.W.H.H.W.H.W.H.G.H.H.W.G.H.H.~.W.H.W.~.H.H.e.n & 8 y ` @.&.,.,.,.;.#.",
"<X#X_.K.~.G.~.H.W.G.W.H.H.H.~.W.H.~.H.H.W.G.W.H.F.K.K.K.b.A._.=X%X].A.b.K._.H.M.H.W.H.W.~.H.~.H.W.W.H.y.n & 8 y { } o.@.o. .@. .",
"#X{.A.A.H.H.H.~.~.H.H.~.G.W.H.G.W.W.G.W.~.H.H.~.H.K.K.H.U.'.{.OX=X]._.H.H.K.H.H.~.W.H.G.H.W.W.G.~.H.H.e.n - 7 t ( ( ) ` { { { { ",
"_.K.M.A.W.~.H.W.H.W.G.W.W.~.H.H.H.H.~.H.H.W.G.W.W.K.A.K._.{.=XOXOX=X{._.W.H.W._.H.G.~.W.H.~.H.H.~.W.H.y.n & 6 2 W Q ( { ] ] { _ ",
"H.A.H.F.H.F.W.H.H.H.H.H.W.H.W.H.W.G.W.G.H.H.H.H.K.K.U._._.=X:X@X@X:X=X%X_.H.H.H.H.W.H.G.G.W.W.H.H.H.H.e.n & O < I R ^ { ] { ` { ",
"H.H.H.W.H.W.~.H.G.H.W.H.W.H.H.~.~.H.H.G.H.G.W.W.b.A._.%XOXOX^.XXXX^.OXOX%X_.W.b.W.~.H.H.H.H.~.W.W.H.~.l.D f e w : 3 U ~ Q ! ! ~ ",
"~.H.W.H.G.H.H.W.W.~.G.H.H.~.G.W.H.W.~.W.H.W.~.H.H._.#X=XOX^.^.OXOX X^.OX%X%X_.H.G.H.W.H.G.W.H.G.G.H.W.c.r.7.C r 4 1 3 Y Y T T R ",
"~.W.~.H.H.W.H.~.G.H.W.~.G.W.H.~.~.W.H.W.~.H.H.H._.{.{.=XOX^.:X=X=XOX^.XXOXOX{._.W.H.G.H.W.~.H.H.H.~.H.H.H.F.8.z # 5 : L L I L L ",
"H.H.H.W.H.W.~.~.W.H.W.H.H.H.W.W.H.G.H.H.W.H.W.H.:XOX:X=XOX:X{.,X,X=X@X^.OXOXOX=XH.~.W.H.W.H.W.H.G.W.W.H.H.~.f.S z g w , , > > > ",
"H.W.W.~.H.H.G.W.G.W.~.H.H.G.H.G.F.H._.H.H.H._.=XOXOXOXOXOXOXOXOXOXOXOXOXOXOXOXOX#X_.A.b.K._.H.F.H.~.H.W.~.W.x.f.8.C e O X + + + ",
"H.~.G.H.W.H.H.~.H.H.H.W.~.W.H.W.W.H.H.H.W._.{.OXOXOXOXOXOXOXOXOXOXOXOXOXOXOXOXOX=X{.'.K.H.K.H.W.W.W.H.H.H.G.H.H.b.J d           ",
"W.~.F.H.H.~.W.H.H.W.H.H.H.H.G.H.G.K.H.H._.OXOXOXOXOXOXOXOXOXOXOXOXOXOXOXOXOXOXOXOX,X%XK.K.H.K.K.H.W.W.~.H.W.H.W.b.J d .   $     ",
"H.W.H.W.W.W.G.H.~.W.G.W.W.H.W.~.K.K.H._.{.OXOXOXOXOXOXOXOXOXOXOXOXOXOXOXOXOXOXOX@X=X%X#XK.K.K.H.G.~.H.W.H.~.W.H.H.H.H.W.H.W.H.H.",
"H.~.H.H.H.W.~.H.H.H.G.H.W.H.~.H.H.K._.{.%XOX^.^.OXOXOXOXOXOXOXOXOXOXOXOXOXOXOXOXXXXXOX{.{._.A.b.F.H.H.G.G.G.W.G.H.W.H.~.~.H.W.~.",
"W.W.G.W.H.G.H.W.W.H.W.~.~.H.W.W.H.W.%XOX=XOXOXOXOXOXOXOXOXOXOXOXOXOXOXOXOXOXOXOX=X X^.OX=X%X'.A.H.W.~.W.H.H.~.H.H.H.W.W.W.H.W.H.",
"H.H.~.H.H.W.H.G.W.~.W.H.H.W.W.H._.{.OXXX^.OXOX=XOXOXOXOXOXOXOXOXOXOXOXOXOXOXOXOX=X:XOXXX=XOX{._.~.W.H.W.H.W.H.H.G.W.F.H.W.H.G.H.",
"W.G.W.G.H.H.~.W.G.H.H.~.W.H.H.H.=XOXOX@X^.OX=X,XOXOXOXOXOXOXOXOXOXOXOXOXOXOXOXOX,X=XOXXXOXOXOX,XH.G.H.H.~.W.G.W.H.~.~.W.H.~.W.H.",
"~.H.H.G.W.H.H.~.F.F._.H.H.A._.%XOXOXOXOXOXOXOXOXOXOXOXOXOXOXOXOXOXOXOXOXOXOXOXOXOXOXOXOXOXOXOXOX=X_.A.b.K._.H.F.H.W.H.W.H.W.~.H.",
"H.W.~.W.H.~.G.W.H.H.H.H.H._.{.OXOXOXOXOXOXOXOXOXOXOXOXOXOXOXOXOXOXOXOXOXOXOXOXOXOXOXOXOXOXOXOXOX=X{._.K.H.K.H.W.~.H.~.W.H.G.H.W.",
"~.W.H.W.G.W.H.~.W.H.H.W._.OXOXOXOXOXOXOXOXOXOXOXOXOXOXOXOXOXOXOXOXOXOXOXOXOXOXOXOXOXOXOXOXOXOXOX:X:X{._.K.H.K.K.W.W.~.H.H.W.H.G.",
"H.G.H.H.H.H.W.W.H.~.H._.{.OX:X@XOXOXOXOXOXOXOXOXOXOXOXOXOXOXOXOXOXOXOXOXOXOXOXOXOXOXOXOXOXOXOXOXOX=X=X_.K.K.K.H.H.H.H.W.H.H.~.W.",
"W.H.W.H.H.G.H.G.A.K._.{.%X=XOX^.OXOXOXOXOXOXOXOXOXOXOXOXOXOXOXOXOXOXOXOXOXOXOXOXOXOXOXOXOXOXOXOXOXOXOXOX{._.A.b.H.W.W.G.G.H.W.H.",
"G.H.H.~.~.W.H.W.A._.%X=X=X^.OXOXOXOXOXOXOXOXOXOXOXOXOXOXOXOXOXOXOXOXOXOXOXOXOXOXOXOXOXOXOXOXOXOXOX^.^.OX=X%X'.A.H.H.~.H.W.~.G.H.",
"W.W.H.W.H.H.G.H._.{.OX^.^.^.OX=XOXOXOXOXOXOXOXOXOXOXOXOXOXOXOXOXOXOXOXOXOXOXOXOXOXOXOXOXOXOXOXOX=XOXOX@X=XOX{._.G.W.W.H.G.H.W.~.",
"~.H.H.G.W.H.W.~.#X#XOXXX@XOXOX,XOXOXOXOXOXOXOXOXOXOXOXOXOXOXOXOXOXOXOXOXOXOXOXOXOXOXOXOXOXOXOXOX,X=XOX^.OXOXOXOXH.~.H.~.W.H.W.H.",
"F.K.K.K.b.A._.=X=XOXOXOXOXOXOXOXOXOXOXOXOXOXOXOXOXOXOXOXOXOXOXOXOXOXOXOXOXOXOXOXOXOXOXOXOXOXOXOXOXOXOXOXOXOXOXOX=X_.A.b.K.K.K.A.",
"H.K.K.H.U.'.{.OXOXOXOXOXOXOXOXOXOXOXOXOXOXOXOXOXOXOXOXOXOXOXOXOXOXOXOXOXOXOXOXOXOXOXOXOXOXOXOXOXOXOXOXOXOXOXOXOX=X{._.K.H.K.H.H.",
"W.K.A.K._.{.@X=XOXOXOXOXOXOXOXOXOXOXOXOXOXOXOXOXOXOXOXOXOXOXOXOXOXOXOXOXOXOXOXOXOXOXOXOXOXOXOXOXOXOXOXOXOXOXOXOXOXOX{._.H.H.K._.",
"K.K.U._._.=X:X@XOXOXOXOXOXOXOXOXOXOXOXOXOXOXOXOXOXOXOXOXOXOXOXOXOXOXOXOXOXOXOXOXOXOXOXOXOXOXOXOXOXOXOXOXOXOXOXOXOX=X=X%X_.W.H.H.",
"b.A._.%XOXOX^.XXOXOXOXOXOXOXOXOXOXOXOXOXOXOXOXOXOXOXOXOXOXOXOXOXOXOXOXOXOXOXOXOXOXOXOXOXOXOXOXOXOXOXOXOXOXOXOXOXXX^.OXOX%X_.K.H.",
"H._.#X=XOX^.^.OXOXOXOXOXOXOXOXOXOXOXOXOXOXOXOXOXOXOXOXOXOXOXOXOXOXOXOXOXOXOXOXOXOXOXOXOXOXOXOXOXOXOXOXOXOXOXOXOXOX X^.OX=X%X_.H.",
"_.{.{.=X@X^.:X=XOXOXOXOXOXOXOXOXOXOXOXOXOXOXOXOXOXOXOXOXOXOXOXOXOXOXOXOXOXOXOXOXOXOXOXOXOXOXOXOXOXOXOXOXOXOXOXOX=XOX^.XXOXOX{._.",
":XOX:X=XOXOX%X,XOXOXOXOXOXOXOXOXOXOXOXOXOXOXOXOXOXOXOXOXOXOXOXOXOXOXOXOXOXOXOXOXOXOXOXOXOXOXOXOXOXOXOXOXOXOXOXOX,X=X@XXX^.OXOXOX"
};
