/* XPM */
static char *bullet_1_1712251713[] = {
/* columns rows colors chars-per-pixel */
"64 64 197 2 ",
"   c #221F30",
".  c #22202E",
"X  c #22212F",
"o  c #223E27",
"O  c #243D27",
"+  c #253F26",
"@  c #223E28",
"#  c #233F28",
"$  c #212030",
"%  c #232031",
"&  c #232230",
"*  c #292734",
"=  c #2B2735",
"-  c #2A2833",
";  c #2A2835",
":  c #255D1C",
">  c #256A17",
",  c #266A17",
"<  c #246219",
"1  c #25631A",
"2  c #25621C",
"3  c #28641A",
"4  c #2F601E",
"5  c #276B18",
"6  c #3B691E",
"7  c #267313",
"8  c #277414",
"9  c #277E13",
"0  c #397B19",
"q  c #3A7A19",
"w  c #234524",
"e  c #244625",
"r  c #2D4128",
"t  c #354329",
"y  c #39462A",
"u  c #365E2A",
"i  c #375F2B",
"p  c #46523E",
"a  c #46543D",
"s  c #48513E",
"d  c #4B573F",
"f  c #4A583F",
"g  c #4A5A3F",
"h  c #4B7022",
"j  c #567321",
"k  c #577424",
"l  c #53484C",
"z  c #53484E",
"x  c #455240",
"c  c #4B5B41",
"v  c #5B5150",
"b  c #5E5252",
"n  c #5F5353",
"m  c #5F5554",
"M  c #5E5455",
"N  c #6A5F5B",
"B  c #6D5F5C",
"V  c #6B605A",
"C  c #6B605C",
"Z  c #716B5B",
"A  c #716C59",
"S  c #72705B",
"D  c #87736A",
"F  c #8A7A6D",
"G  c #89786E",
"H  c #937B6F",
"J  c #927C71",
"K  c #937D72",
"L  c #28860C",
"P  c #28860E",
"I  c #29870F",
"U  c #2A8810",
"Y  c #2B8911",
"T  c #2D8811",
"R  c #2F8810",
"E  c #318B10",
"W  c #348910",
"Q  c #3F8D13",
"!  c #3E8E13",
"~  c #3F8F14",
"^  c #4D8C19",
"/  c #449012",
"(  c #449014",
")  c #479114",
"_  c #489215",
"`  c #4B9316",
"'  c #539517",
"]  c #569717",
"[  c #5B9817",
"{  c #5A9819",
"}  c #5B9A18",
"|  c #5D9818",
" . c #5C9918",
".. c #609B1A",
"X. c #649B19",
"o. c #639C1B",
"O. c #669D1B",
"+. c #689D1B",
"@. c #699E1A",
"#. c #6D9F1C",
"$. c #6EA01B",
"%. c #72A21B",
"&. c #71A01C",
"*. c #72A11D",
"=. c #70A21D",
"-. c #73A21E",
";. c #75A31F",
":. c #76A420",
">. c #77A521",
",. c #79A721",
"<. c #7BA621",
"1. c #78A622",
"2. c #79A723",
"3. c #7BA923",
"4. c #7EAC26",
"5. c #83AE29",
"6. c #83B12A",
"7. c #88B42D",
"8. c #8BB730",
"9. c #92BC34",
"0. c #97BF38",
"q. c #9FC53C",
"w. c #9CC63C",
"e. c #9DC63C",
"r. c #978674",
"t. c #9F8578",
"y. c #9D8779",
"u. c #9F8E7C",
"i. c #AA9880",
"p. c #AC9880",
"a. c #AF9B82",
"s. c #B29583",
"d. c #B49C82",
"f. c #B39D85",
"g. c #B8A388",
"h. c #C5A58E",
"j. c #C5AE8F",
"k. c #D3AF95",
"l. c #D4AF95",
"z. c #C7B091",
"x. c #D3B092",
"c. c #D2B192",
"v. c #D0B194",
"b. c #D2B094",
"n. c #D3B195",
"m. c #D2B394",
"M. c #D5B095",
"N. c #D4B195",
"B. c #D5B294",
"V. c #D7B295",
"C. c #D4B096",
"Z. c #D5B197",
"A. c #D6B196",
"S. c #D4B296",
"D. c #D5B296",
"F. c #D4B297",
"G. c #D5B397",
"H. c #D7B297",
"J. c #D6B397",
"K. c #D4B596",
"L. c #D5B697",
"P. c #D4B797",
"I. c #D7B697",
"U. c #D9B197",
"Y. c #D6BC97",
"T. c #D4B598",
"R. c #D6B498",
"E. c #D7B498",
"W. c #D7B599",
"Q. c #D5B699",
"!. c #D4B799",
"~. c #D7B899",
"^. c #D6B999",
"/. c #D5BB98",
"(. c #D4BA99",
"). c #D5BB9A",
"_. c #D7BA9A",
"`. c #D7BD98",
"'. c #D6BC99",
"]. c #D6BE98",
"[. c #D7BF99",
"{. c #D7BD9A",
"}. c #D6BC9B",
"|. c #D6BE9A",
" X c #D7BA9C",
".X c #D7BD9C",
"XX c #D8BB99",
"oX c #D8B99A",
"OX c #D9BA9B",
"+X c #D8BB9B",
"@X c #D9BD98",
"#X c #D8BE99",
"$X c #D9BC9A",
"%X c #D8BE9B",
"&X c #D9BC9C",
"*X c #DABD9D",
"=X c #D9BEA0",
/* pixels */
"{.{.{.{.{.{.{.{.{.{.{.{.{.{.{.{.{.{.{.{.{.{.{.{.{.{.{.{.{.{.{.|.|.{.{.{.|.{.{.{.{.{.{.{.{.{.{.{.{.{.{.{.{.{.{.{.{.{.{.{.{.{.{.{.",
"{.{.{.{.{.{.{.{.{.{.{.{.{.{.{.{.{.{.{.{.{.{.{.{.{.{.Y.{.{.{.{.{.{.%X{.|.{.{.{.{.{.{.{.{.{.{.{.{.{.{.{.{.{.{.{.{.{.{.{.{.{.{.{.{.",
"{.{.{.{.{.{.{.{.{.{.{.{.{.{.{.{.{.{.{.{.{.{.{.{.{.Y.{.{.$X%X$X{.{.$X{.$X{.{.{.{.{.{.{.{.{.{.{.{.{.{.{.{.{.{.{.{.{.{.{.{.{.{.{.{.",
"{.{.{.{.{.{.{.{.{.{.{.{.{.{.{.{.{.{.{.{.{.{.{.{.{.{.).{.&X$X).K.P.).&X&X).{.{.{.{.{.{.{.{.{.{.{.{.{.{.{.{.{.{.{.{.{.{.{.{.{.{.{.",
"{.{.{.{.{.{.{.{.{.{.{.{.{.{.{.{.{.{.{.{.{.{.{.{.{.{.{.&X&X&XS.m.n.K.OX$X$X{.{.{.{.{.{.{.{.{.{.{.{.{.{.{.{.{.{.{.{.{.{.{.{.{.{.{.",
"{.{.{.{.{.{.{.{.{.{.{.{.{.{.{.{.{.{.{.{.{.{.{.{.$X{.{.$XOXW.S.m.n.n.W.OX&X$X{.$X{.{.{.{.{.{.{.{.{.{.{.{.{.{.{.{.{.{.{.{.{.{.{.{.",
"{.{.{.{.{.{.{.{.{.{.{.{.{.{.{.{.{.{.{.{.{.{.{.{.{.{.{.).K.n.S.S.n.n.S.K.).{.|.|.{.{.{.{.{.{.{.{.{.{.{.{.{.{.{.{.{.{.{.{.{.{.{.{.",
"{.{.{.{.{.{.{.{.{.{.{.{.{.{.{.{.{.{.{.{.{.{.{.{.{.{.{.P.n.n.S.S.S.S.n.m.K.{.{.|.{.{.{.{.{.{.{.{.{.{.{.{.{.{.{.{.{.{.{.{.{.{.{.{.",
"{.{.{.{.{.{.{.{.{.{.{.{.{.{.{.{.{.{.{.{.{.{.{.{.=XOXK.S.S.U.U.S.S.S.U.S.S.W.).=X{.{.{.{.{.{.{.{.{.{.{.{.{.{.{.{.{.{.{.{.{.{.{.{.",
"{.{.{.{.{.{.{.{.{.{.{.{.{.{.{.{.{.{./.{.{.].{.$X X).S.S.U.S.S.S.S.U.U.S.l.S.W. X{..X{.{.{./.{.{.{.{.{.{.{.{.{.{.{.{.{.{.{.{.{.{.",
"{.{.{.{.{.{.{.{.{.{.{.{.{.{.{.{.{.{.{.$X{.{.{.).T.G.n.n.x.S.S.U.S.S.S.S.S.m.W.K.{.{.{.{.{.{.{.{.{.{.{.{.{.{.{.{.{.{.{.{.{.{.{.{.",
"{.{.{.{.{.{.{.{.{.{.{.{.{.{.{.{.{.{.{.$X.X&X).).S.k.x.S.U.S.S.S.S.x.U.S.x.S.S.x.m.{.&X&X$X{.{.{.{.{.{.{.{.{.{.{.{.{.{.{.{.{.{.{.",
"{.{.{.{.{.{.{.{.{.{.{.{.{.{.{.{.{.{.{.&X*XOXK.m.S.S.S.S.S.S.U.x.S.S.S.S.S.x.S.U.m.W.OXOX&X{.{.{.{.{.{.{.{.{.{.{.{.{.{.{.{.{.{.{.",
"{.{.{.{.{.{.{.{.{.{.{.{.{.{.{.{.{.{.{.$XOXK.S.k.U.l.S.S.S.S.K.S.S.U.S.S.K.U.l.S.n.m.W.OX&X$X{.{.{.{.{.{.{.{.{.{.{.{.{.{.{.{.{.{.",
"{.{.{.{.{.{.{.{.{.{.{.{.{.{.{.{.{.{.{.OXK.S.S.S.U.S.U.S.U.S.U.S.S.S.S.U.S.S.U.U.n.S.S.m.{.{.{.{.{.{.{.{.{.{.{.{.{.{.{.{.{.{.{.{.",
"{.{.{.{.{.{.{.{.{.{.{.{.{.{.{.{.{.{.{.K.m.k.x.U.S.S.S.S.S.S.S.U.U.U.S.S.S.S.S.S.W.n.k.m.P.{.{.{.{.{.{.{.{.{.{.{.{.{.{.{.{.{.{.{.",
"{.{.{.{.$X.X{.{.{.{.{.{.Y.{.{.{.&X XK.G.S.l.U.S.U.S.S.U.S.S.S.S.U.S.U.S.S.S.S.K.A.A.U.S.S.W. X=X{.{.{.{.{.{.{.{.{.{.{.{.{.{.{.{.",
"{.{.{.{.{.{.{.{.{.{.{.{.{.$X{.{. X!.S.S.U.S.S.S.S.K.S.S.S.S.U.S.S.K.x.S.S.S.U.x.S.S.S.U.n.n.!.OX{.{.{.{.{.{.{.{.{.{.{.{.{.{.{.{.",
"{.{.{.{.{.{.{.{.{./.{.$X{.$X{.$X!.G.n.n.S.U.U.S.U.x.K.U.U.S.S.K.S.S.S.S.U.K.S.U.S.U.S.S.S.n.U.K.{.$X{.{.{.Y.{.{.{.{.{.{.{.{.{.{.",
"i.p.p.p.p.p.g.z.{.{.{.$X&X&X).).S.n.n.n.S.S.S.S.S.S.S.S.K.S.U.x.U.S.U.S.S.S.S.S.S.S.S.S.n.n.S.S.P.).{.&X{.{.{.{.{.{.{.{.{.{.{.{.",
"N N N N C V F a.OX{.{.&X$XOXK.m.U.S.S.K.S.S.U.x.S.S.U.S.S.U.S.S.K.S.U.S.K.S.S.S.x.S.U.S.K.x.S.S.m.m.OXOX&X$X{.{.{.{.{.{.{.{.{.{.",
"= = = = ; ; v r.).{.{.&XOXK.S.k.S.l.S.U.S.S.S.S.S.S.S.S.S.S.S.U.S.S.S.S.B.U.S.U.S.S.S.S.U.S.S.U.n.K.S.OX&X%X{.{.{.{.{.{.{.{.{.{.",
"y y t t + w a S u.f.j.$XK.S.S.x.U.x.S.S.S.S.U.S.S.U.S.S.S.S.K.S.S.U.S.U.S.S.S.S.S.S.S.S.S.S.U.x.n.S.S.K.{.{.{.{.{.{.{.{.{.{.{.{.",
"k k j h h 3 i c M F d.K.n.n.S.U.U.S.S.S.S.S.U.U.K.x.U.S.K.U.x.U.S.S.K.x.S.S.U.S.U.U.S.U.S.S.S.U.G.S.k.m.W.{.{.{.{.{.{.{.{.{.{.{.",
"*.*.*.o._ E 5 e % N r.l.l.A.A.U.S.S.U.S.S.S.S.S.S.K.S.S.S.U.K.S.S.S.K.S.U.S.S.U.S.S.S.K.S.U.S.S.A.A.A.A.G.W.OX=X].{.{.{.{.{.{.{.",
"5.3.:.+.] _ 0 : e c Z H H S.S.l.S.S.S.S.S.U.U.S.S.U.U.S.S.S.S.S.K.U.x.U.S.S.S.K.K.U.U.x.S.S.S.K.U.S.A.A.n.n.).OX{.{.{.{.{.{.{.{.",
"9.6.:.#.+. .^ 0 > u p l l U.S.S.U.S.S.U.K.S.S.S.S.S.x.K.U.S.S.U.S.U.S.S.S.S.S.S.S.S.S.S.S.S.S.U.S.S.S.S.n.n.S.K.{.{..X{.{.!.].{.",
"e.8.1.*.*.*. .( P : O     S.S.S.x.S.S.K.x.U.S.K.S.S.U.S.S.S.S.S.S.S.S.S.U.S.S.U.S.S.U.S.S.U.S.S.S.S.S.S.n.n.S.x.m.{.&X&X{.{.{.{.",
"e.8.<.*.*.%.} ( P 3 o     S.S.S.K.S.S.S.S.U.S.U.U.S.U.S.S.S.x.K.S.S.U.S.x.U.S.S.U.x.K.S.S.K.S.S.S.U.S.S.S.S.U.U.m.K.).OX&X{.{.{.",
"e.8.1.*.*.*.} ( I 2 @     S.S.S.S.U.K.U.K.x.S.S.S.S.S.K.U.S.U.S.U.S.S.K.K.S.S.S.S.S.S.U.U.x.U.S.S.S.S.S.S.S.l.S.k.S.W.OX&X%X{.$X",
"0.7.1.*.*.*.| / I 1 o     S.U.U.S.U.S.S.S.S.S.S.S.S.S.x.S.S.U.S.K.S.U.x.S.U.U.K.K.S.S.S.S.S.U.S.U.S.S.U.S.S.S.S.S.x.n.K.).{.|.|.",
"7.4.:.*.*.*.| / I 1 o     S.S.U.S.S.S.S.U.S.S.U.U.K.S.U.S.S.K.S.S.S.S.S.S.S.S.S.U.S.S.U.S.S.S.S.S.U.S.S.S.U.S.U.S.S.k.m./.$X{.|.",
"1.:.;.*.*.*.{ ( P 1 o   . S.S.S.K.x.S.S.S.U.x.U.l.G.G.G.k.k.W.$XOXI.S.k.S.E.S.k.S.U.S.S.U.x.U.S.S.U.x.K.S.S.U.S.U.S.U.S.K.K.OX=X",
"*.*.*.#.+.X.' ~ I 1 o     U.S.K.S.U.S.K.S.S.K.S.S.Z.G.n.n.!.].{.{.OXK.S.l.G.S.S.S.S.S.S.S.K.S.S.S.S.U.S.S.S.x.K.U.S.x.U.S.S.W.OX",
"*.*.&.+.} ` Q W P 3 o %   S.S.U.U.S.S.U.S.S.S.S.U.S.n.G.W.).$X|.{.{.OXW.S.l.S.U.U.K.S.U.U.S.S.S.S.K.S.S.S.U.U.S.S.S.U.S.n.k.T.!.",
";.*.*.X.` E T I P 1 O     S.S.S.S.S.S.S.S.U.K.U.G.l.n.W.W.{.Y.[.Y.$X$X/.E.S.G.S.S.S.S.S.S.S.U.K.S.U.S.S.S.S.K.S.S.S.S.S.n.S.k.S.",
"} { | ' ( I 9 7 > u p l l U.S.U.S.S.S.S.S.U.S.S.l.T.G.).Y.{.Y.[.[.Y.{.{.W.W.S.S.S.S.S.K.S.S.S.S.S.U.S.U.K.S.S.S.x.U.S.S.S.S.S.U.",
"/ ( / Q W P 7 : w d Z J K S.S.S.U.S.K.U.S.S.S.S.l.W.OXOX{.Y.{.{.{.@XY.{.&XOXW.n.S.U.U.x.S.U.S.S.S.S.S.S.S.S.U.S.K.S.S.S.S.S.l.S.",
"I P I I L L > w . N t.n.l.S.S.S.S.K.S.S.U.S.S.S.W.).).$X[.Y.{.$X$X{.Y.[.{.{.).W.S.S.U.S.S.U.S.U.S.x.K.S.U.S.S.K.U.S.S.U.S.S.S.U.",
"1 1 1 1 1 1 u p v D s.S.S.U.x.K.U.x.U.S.S.S.S.S.{.{.$XY.|.|.$X&X$X$X|.Y.Y.{.).).S.K.B.S.S.S.S.S.S.U.S.U.S.S.U.x.S.U.S.S.S.U.S.x.",
"@ o O o o O p A t.s.h.K.S.U.S.U.x.S.E.G.l.l.W.OX{.{.{.{.{.{.{.{.{.{.{.{.{.{.{.{.OXW.n.n.Z.E.S.l.S.S.U.S.S.K.S.S.S.S.S.S.S.K.S.U.",
"      . % . l K S.S.x.U.S.S.K.S.S.S.G.l.G.G.!..X{.{.{.{.{.{.{.{.{.{.{.{.{.{.{.{.{.).!.n.Z.G.l.G.U.S.S.S.S.U.S.S.S.U.K.U.U.x.S.S.",
"    %       l K S.S.S.S.V.U.S.U.U.S.l.S.W.{.{.{.{.{.{.{.{.{.{.{.{.{.{.{.{.{.{.{.{.$X).E.S.l.Z.G.K.S.S.S.S.U.S.U.S.U.S.S.S.S.S.S.",
"S.S.S.S.S.S.S.G.x.U.S.K.x.S.S.S.S.S.S.W.).$X|.|.{.{.{.{.{.{.{.{.{.{.{.{.{.{.{.{.|.$X$XW.G.S.Z.S.S.S.U.S.K.x.S.S.S.S.S.S.U.S.S.U.",
"U.S.U.S.S.S.S.S.U.x.S.U.S.S.S.S.l.S.K.OXOX{.Y.Y.{.{.{.{.{.{.{.{.{.{.{.{.{.{.{.{.[.[.{.{.).K.!.k.U.S.U.S.U.x.K.S.S.K.S.S.K.S.U.x.",
"S.S.K.S.S.U.S.U.S.S.S.S.S.U.S.S.n.K.OX$X{.Y.Y.{.{.{.{.{.{.{.{.{.{.{.{.{.{.{.{.{.{.@XY.{.$XOXm.n.x.K.S.S.S.S.S.U.U.x.U.S.S.S.S.K.",
"S.S.S.S.S.S.S.x.U.K.U.S.S.U.S.U.W.).{.[.|.Y.[.$X{.{.{.{.{.{.{.{.{.{.{.{.{.{.{.{.$X{.Y.Y.$X{.).W.U.S.S.U.K.S.S.S.S.S.U.K.S.U.U.S.",
"U.S.U.S.S.S.U.S.S.S.S.S.S.S.E.S.).{.{.Y.[.|.$X&X{.{.{.{.{.{.{.{.{.{.{.{.{.{.{.{.$X$X{.[.Y.|.{.$XK.S.S.S.U.S.S.U.S.S.S.S.S.S.S.S.",
"K.S.U.x.S.S.S.K.x.S.E.G.l.k.W. X{.{.{.{.{.{.{.{.{.{.{.{.{.{.{.{.{.{.{.{.{.{.{.{.{.{.{.{.{.{.{.{.OXK.S.l.Z.E.S.l.S.S.S.S.S.B.K.S.",
"S.S.S.K.K.U.U.x.S.U.G.l.G.G.!.{.{.{.{.{.{.{.{.{.{.{.{.{.{.{.{.{.{.{.{.{.{.{.{.{.{.{.{.{.{.{.{.{.$X/.W.S.Z.G.l.G.U.S.U.S.S.U.S.S.",
"S.U.U.S.S.S.S.S.U.S.l.S.W.{.{.{.{.{.{.{.{.{.{.{.{.{.{.{.{.{.{.{.{.{.{.{.{.{.{.{.{.{.{.{.{.{.{.{.|.$X).G.S.l.Z.G.S.S.U.S.x.U.U.S.",
"S.S.S.S.S.S.U.S.S.S.S.W.).$X[.|.{.{.{.{.{.{.{.{.{.{.{.{.{.{.{.{.{.{.{.{.{.{.{.{.{.{.{.{.{.{.{.{.|.$X$XW.G.S.Z.G.S.S.S.S.K.S.S.S.",
"S.S.S.S.U.S.U.S.k.S.I.).OX$XY.[.{.{.{.{.{.{.{.{.{.{.{.{.{.{.{.{.{.{.{.{.{.{.{.{.{.{.{.{.{.{.{.{.[.[.{.{.).W.S.n.K.U.S.S.S.S.S.S.",
"K.U.S.S.S.S.S.K.n.K.OX$X{./.Y.{.{.{.{.{.{.{.{.{.{.{.{.{.{.{.{.{.{.{.{.{.{.{.{.{.{.{.{.{.{.{.{.{.{.@XY.{.$XOXK.n.S.S.S.U.U.S.K.U.",
"S.U.x.U.S.S.S.x.W.).{.[.|.Y.{.$X{.{.{.{.{.{.{.{.{.{.{.{.{.{.{.{.{.{.{.{.{.{.{.{.{.{.{.{.{.{.{.{.$X{.Y.Y.@X{.).W.S.S.K.S.S.S.S.S.",
"S.S.K.S.U.K.S.U.OX).{.Y.[.|.$X$X{.{.{.{.{.{.{.{.{.{.{.{.{.{.{.{.{.{.{.{.{.{.{.{.{.{.{.{.{.{.{.{.$X$X|.[.Y.|.{.).S.U.x.U.S.S.U.S.",
"l.S.G.G.k.k.W.$X{.{.{.{.{.{.{.{.{.{.{.{.{.{.{.{.{.{.{.{.{.{.{.{.{.{.{.{.{.{.{.{.{.{.{.{.{.{.{.{.{.{.{.{.{.{.{.{.OXK.n.k.S.E.S.k.",
"S.Z.G.S.n.!.].{.{.{.{.{.{.{.{.{.{.{.{.{.{.{.{.{.{.{.{.{.{.{.{.{.{.{.{.{.{.{.{.{.{.{.{.{.{.{.{.{.{.{.{.{.{.{.{.{.{.OXW.S.l.G.S.S.",
"U.S.n.S.W.).$X{.{.{.{.{.{.{.{.{.{.{.{.{.{.{.{.{.{.{.{.{.{.{.{.{.{.{.{.{.{.{.{.{.{.{.{.{.{.{.{.{.{.{.{.{.{.{.{.{.{.{.).K.S.l.l.U.",
"Z.S.n.W.W.{.[.[.{.{.{.{.{.{.{.{.{.{.{.{.{.{.{.{.{.{.{.{.{.{.{.{.{.{.{.{.{.{.{.{.{.{.{.{.{.{.{.{.{.{.{.{.{.{.{.{.[.@X$XOXE.S.G.S.",
"l.n.W.).{.{.Y.|.{.{.{.{.{.{.{.{.{.{.{.{.{.{.{.{.{.{.{.{.{.{.{.{.{.{.{.{.{.{.{.{.{.{.{.{.{.{.{.{.{.{.{.{.{.{.{.{.|.Y.{.Y.OXW.n.n.",
"l.W.OXOX{.Y.Y.|.{.{.{.{.{.{.{.{.{.{.{.{.{.{.{.{.{.{.{.{.{.{.{.{.{.{.{.{.{.{.{.{.{.{.{.{.{.{.{.{.{.{.{.{.{.{.{.{.{.@XY.{.OXOXW.n.",
"W.).).$XY.Y.{.$X{.{.{.{.{.{.{.{.{.{.{.{.{.{.{.{.{.{.{.{.{.{.{.{.{.{.{.{.{.{.{.{.{.{.{.{.{.{.{.{.{.{.{.{.{.{.{.{.$X{.Y.[.{.).).W.",
"{.|.$XY.{.{.$X&X{.{.{.{.{.{.{.{.{.{.{.{.{.{.{.{.{.{.{.{.{.{.{.{.{.{.{.{.{.{.{.{.{.{.{.{.{.{.{.{.{.{.{.{.{.{.{.{.$X$X{.[.Y.{.{.)."
};
