/* XPM */
static char *bullet_3_1712251712[] = {
/* columns rows colors chars-per-pixel */
"64 64 104 2 ",
"   c #211E2F",
".  c #221F30",
"X  c #22212F",
"o  c #223E27",
"O  c #233E28",
"+  c #222030",
"@  c #2B2736",
"#  c #255D1C",
"$  c #266A17",
"%  c #25631A",
"&  c #2C621C",
"*  c #276B18",
"=  c #3B6A1F",
"-  c #277414",
";  c #277E13",
":  c #397B19",
">  c #244625",
",  c #2D4128",
"<  c #35432A",
"1  c #39462A",
"2  c #3F4F28",
"3  c #375F2B",
"4  c #46533D",
"5  c #49573E",
"6  c #4A593F",
"7  c #4B7021",
"8  c #577424",
"9  c #587324",
"0  c #5B7F22",
"q  c #58742A",
"w  c #586932",
"e  c #544A4D",
"r  c #594E4F",
"t  c #4B5B40",
"y  c #565840",
"u  c #5B5E41",
"i  c #5B4F52",
"p  c #5E5353",
"a  c #605252",
"s  c #6B5C57",
"d  c #6B5C59",
"f  c #716C5A",
"g  c #7A6F5C",
"h  c #72715B",
"j  c #87736A",
"k  c #88746B",
"l  c #87796C",
"z  c #927C6E",
"x  c #967F72",
"c  c #29870F",
"v  c #298611",
"b  c #2D8810",
"n  c #338910",
"m  c #3F8E13",
"M  c #458F14",
"N  c #4D8C19",
"B  c #449014",
"V  c #4B9316",
"C  c #539517",
"Z  c #5B9817",
"A  c #569719",
"S  c #579818",
"D  c #5C9919",
"F  c #649C1A",
"G  c #6A9E1B",
"H  c #6EA019",
"J  c #72A11D",
"K  c #71972A",
"L  c #77A421",
"P  c #79A721",
"I  c #7CAA24",
"U  c #84AF2A",
"Y  c #83B12B",
"T  c #88B42D",
"R  c #86AC32",
"E  c #8BB730",
"W  c #93BD35",
"Q  c #97BF38",
"!  c #96C038",
"~  c #9DC63C",
"^  c #958374",
"/  c #9F8D77",
"(  c #9F8578",
")  c #9E8F78",
"_  c #A08679",
"`  c #AA8F7E",
"'  c #AD927F",
"]  c #A3CC42",
"[  c #AA8E80",
"{  c #B29583",
"}  c #B59C85",
"|  c #B89985",
" . c #C5A58E",
".. c #C5A590",
"X. c #C7AE90",
"o. c #D3AF95",
"O. c #D5B296",
"+. c #D8B096",
"@. c #D6BC97",
"#. c #D8BC97",
"$. c #D5B599",
"%. c #D7BD9A",
"&. c #D9BC9B",
"*. c #D9BEA0",
/* pixels */
"%.%.%.%.%.%.%.%.%.%.%.%.%.%.%.%.%.%.%.%.%.%.%.%.%.%.%.%.%.%.%.%.%.%.%.%.%.%.%.%.%.%.%.%.%.%.%.%.%.%.%.%.%.%.%.%.%.%.%.*.%.%.%.%.",
"%.%.%.%.%.%.%.%.%.%.%.%.%.%.%.%.%.%.%.%.%.%.*.%.%.%.%.%.%.%.%.%.%.*.%.%.%.%.%.%.%.%.%.%.%.%.%.%.%.%.%.%.%.%.%.%.%.%.%.%.%.%.%.%.",
"%.%.%.%.%.%.%.%.%.%.%.%.%.%.%.%.%.%.%.%.%.%.%.%.%.@.%.%.%.%.%.@.%.%.%.%.%.%.%.%.%.%.%.%.%.%.%.%.%.%.%.%.%.%.%.%.%.%.%.%.%.%.%.%.",
"%.%.%.%.&.%.%.%.%.%.%.%.%.%.%.%.%.%.%.%.%.%.%.%.%.%.%.%.%.%.%.$.$.%.%.%.%.%.%.%.%.%.%.%.%.%.%.%.%.%.%.%.%.%.%.%.%.%.%.%.%.%.%.%.",
"%.%.%.%.%.%.%.%.*.%.%.%.%.%.%.%.%.%.%.%.%.%.%.%.%.%.%.&.&.&.$.o.O.O.$.%.%.%.%.%.%.%.%.%.%.%.%.%.%.%.%.%.%.%.%.%.%.%.%.%.%.%.%.%.",
"%.%.%.%.%.%.%.%.%.%.%.%.%.%.%.%.%.%.%.%.%.%.%.%.%.%.%.%.&.$.O.o.o.O.$.@.&.%.%.&.%.%.%.%.%.%.%.%.%.%.%.%.%.%.%.%.%.%.%.%.%.%.%.%.",
"%.%.%.%.%.%.%.%.%.%.%.%.%.%.%.%.%.%.%.%.%.%.%.%.%.%.%.%.+.O.O.O.O.O.o.@.%.%.%.%.%.%.%.%.%.%.%.%.%.%.%.%.%.%.%.%.&.%.%.%.%.%.&.%.",
"%.%.%.%.%.%.%.%.%.%.%.%.%.%.%.%.%.%.%.%.%.%.%.%.%.%.%.@.O.o.O.O.O.O.o.$.O.%.%.*.%.%.%.%.%.%.%.%.%.%.%.%.%.%.%.%.%.%.%.%.%.%.%.%.",
"%.%.%.%.%.%.%.%.%.%.%.%.%.%.%.%.%.%.%.%.%.%.%.%.*.%.O.O.+.O.O.O.O.O.O.O.O.O.%.*.%.%.%.%.%.%.%.%.%.%.%.%.%.%.%.%.%.%.%.%.%.%.%.%.",
"%.%.%.%.%.%.%.%.%.%.%.%.%.&.%.%.%.%.%.%.%.@.%.%.$.@.O.o.O.+.O.O.O.O.O.O.O.O.$.%.%.%.%.%.%.%.%.%.%.%.%.%.%.%.%.%.%.%.%.%.*.#.%.%.",
"%.%.%.%.%.%.%.%.%.%.%.%.%.%.%.%.%.%.%.%.%.%.%.%.$.O.O.O.O.O.O.O.O.O.O.O.O.o.O.$.@.%.%.%.%.%.%.%.%.%.%.%.%.%.%.%.%.%.%.%.%.%.%.%.",
"%.%.%.%.%.%.%.%.%.%.%.%.%.%.%.%.%.%.%.&.%.*.&.$.O.O.O.O.O.O.O.O.O.O.O.O.O.O.O.O.$.&.*.%.%.%.%.%.%.%.%.%.%.%.%.%.%.%.%.%.%.%.%.%.",
"%.%.%.%.%.%.%.%.%.%.%.%.%.%.%.%.%.%.%.%.&.%.$.o.+.O.O.O.O.O.O.O.O.O.O.O.O.O.O.+.o.O.&.&.&.%.%.%.%.%.%.%.%.%.%.%.%.%.*.%.%.%.%.%.",
"%.%.%.%.%.%.%.%.%.%.%.%.%.%.%.*.%.%.%.%.$.@.o.o.O.O.O.O.O.O.O.O.O.O.O.O.O.O.o.+.$.O.O.%.&.&.%.%.%.%.%.%.%.%.%.%.%.%.#.%.%.%.%.%.",
"%.%.%.%.%.%.%.#.%.%.%.%.%.%.%.%.%.%.%.@.$.O.O.O.O.O.O.O.O.O.+.O.O.O.O.O.O.O.O.O.o.o.$.@.&.%.%.%.%.%.%.%.%.%.%.%.%.%.%.%.%.%.%.%.",
"%.%.%.%.%.%.%.#.*.%.%.%.%.%.%.%.%.%.@.$.$.o.O.+.O.O.O.O.O.O.$.+.O.+.O.O.O.O.O.O.O.$.o.X.$.%.%.%.%.%.%.%.%.%.%.%.%.%.%.%.%.%.%.%.",
"%.%.%.%.%.%.%.%.%.%.%.@.%.%.%.%.*.%.$.O.O.O.O.O.O.O.O.O.O.O.O.O.O.O.+.O.O.O.O.O.o.O.O.O.O.$.&.*.%.%.%.%.%.%.%.%.%.%.%.%.%.%.%.%.",
"%.%.%.%.%.%.%.%.%.%.%.%.%.%.%.%.%.$.O.o.O.O.O.+.O.O.O.O.$.+.O.O.O.O.$.O.O.O.O.O.+.O.O.O.O.O.$.&.%.%.%.%.%.%.%.%.%.%.%.%.%.%.%.%.",
"%.%.%.%.%.%.%.%.%.%.%.%.%.%.%.@.$.O.o.$.O.O.O.O.O.$.O.O.O.O.O.O.O.$.O.O.O.O.O.+.+.$.O.O.O.o.+.$.#.#.*.%.%.@.%.%.%.%.%.%.%.%.%.%.",
"%.%.%.%.%.%.%.%.%.%.%.&.&.&.&.$.O.O.o.O.O.O.O.O.O.O.O.O.O.O.O.O.O.O.O.O.O.O.O.O.O.O.O.O.O.o.o.O.#.*.%.*.&.%.%.%.%.%.%.%.%.%.%.%.",
"%.%.%.%.%.%.%.%.%.%.%.*.&.%.O.O.O.O.O.o...| [ ' ` ` ` ` ` ` ` | ..O.O.O.O.O.O.+.O.O.O.O.O.O.O.O.@.@.@.&.&.%.%.%.%.%.%.%.%.%.%.%.",
"%.%.%.*.%.%.%.%.%.%.%.%.&.$.O.o.o.O.O.O.[ k d s d d d d d s d k ' O.O.O.O.O.O.O.O.O.O.O.O.O.O.O.o.O.@.@.&.%.%.%.%.%.%.%.%.%.%.%.",
"%.%.%.%.%.%.%.%.%.%.@.@.O.O.O.O.O.O.O.o.^ r @ @ @ @ @ @ @ @ @ i x o.O.O.O.O.$.O.O.O.O.O.O.O.O.O.O.o.O.O.%.%.%.%.%.%.%.%.%.%.%.%.",
"%.%.%.%.%.%.%.%.%.%.%.@.o.O.O.O.o. .{ ( g y 1 < 1 1 1 1 < , o 4 f ( {  .O.O.O.O.+.O.O.O.O.O.O.O.O.O.o.O.$.&.%.%.%.%.%.%.%.%.%.%.",
"%.%.%.%.%.%.%.%.*.&.$.O.O.+.+.o.O.{ k a w w 9 9 9 9 9 9 7 = % 3 5 p k { o.+.+.$.O.O.O.O.O.O.O.O.O.O.O.O.O.@.&.*.%.%.%.%.%.%.%.%.",
"%.%.%.%.%.%.%.%.&.$.O.O.O.+.O.O.o._ p X 4 0 H J J J J J F V n $ > X a _ o.o.O.O.O.O.$.O.O.O.O.O.O.O.O.O.o.o.$.%.%.%.%.%.%.%.%.%.",
"%.%.%.%.%.%.@.@.$.$.o.O.O.O. .{ z g u 4 9 K U U U U J J G A V : & > 6 f z x O.O.O.O.O.O.O.O.O.O.O.O.O.O.O.o.O.O.%.%.%.&.%.%.%.%.",
"%.%.%.%.&.%.@.@.O.o.O.o.O.+.{ k r 5 w 0 K T ! ! Q W U U H F D N : * 3 4 e e O.O.O.O.O.O.O.O.O.O.O.O.O.$.o.o.O.O.@.%.&.&.%.%.%.%.",
"%.%.%.*.*.#.O.O.o.O.O.O.O.O.` d @ 4 9 J U Q ] ] ] ~ E P J J J D B v % o   . O.O.O.O.O.O.O.O.O.O.O.O.O.O.O.O.O.O.o.$.%.%.&.%.%.%.",
"%.%.#.*.#.#.O.o.O.O.O.O.O.O.` d X < 9 J U Q ] ] ] ~ E P J J J D B v % o   . O.O.O.O.O.O.O.O.O.O.O.O.O.O.O.O.O.O.o.O.+.@.&.&.%.&.",
"%.%.%.#.$.O.O.O.O.O.O.O.O.O.` d @ 1 9 J U ! ] ] ] ~ T P J J J D B c % o . . O.O.O.O.O.O.O.O.O.$.O.+.O.O.O.O.O.O.$.o.O.$.&.%.%.%.",
"%.%.%.#.O.O.O.O.o.O.O.O.O.O.[ d @ 1 9 J U W ~ ~ ~ Q T P J J J D B c % o . . O.O.$.+.O.O.O.O.O.O.+.+.O.O.O.O.O.O.O.o.o.O.$.%.%.%.",
"*.%.O.O.+.O.+.O.O.O.O.O.O.O.` d @ 1 8 J I Y E E E T I L J J J D B c % o .   O.o.O.+.$.O.O.O.O.O.O.O.O.O.O.$.O.O.O.O.O.O.+.$.&.*.",
"&.$.O.O.O.O.O.O.O.O.O.O.O.O.` d @ 1 8 H L L P P P P L J J J J Z B v % o .   O.O.O.O.O.O.O.O.O.O.+.$.O.O.O.O.O.O.O.O.+.O.O.O.$.&.",
"$.O.O.O.O.O.O.O.O.O.O.O.O.O.` d @ < 7 F F G J J H L J J G G F C m c % o . . +.+.O.O.O.O.O.O.O.O.O.O.O.O.O.O.O.O.O.O.O.O.o.o.O.$.",
"O.O.o.O.O.O.O.O.O.O.O.O.O.O.' d @ , = V Z F J J J J J J G Z V m n c % o . + O.O.O.O.O.O.O.O.O.O.O.O.O.O.O.O.O.O.O.O.O.O.o.O.O.O.",
"O.O.O.O.O.O.O.O.O.O.O.O.O.O.` d @ o % n B F J J J J J J F V b b v c % o . . O.O.O.O.O.O.O.O.O.O.O.O.O.O.O.O.O.O.O.O.O.O.O.o.O.O.",
"o.O.O.O.O.O.O.O.O.O.O.O.O.O.| k r 4 3 * : N Z Z Z Z Z Z C m b v - $ 3 4 e e $.O.O.O.$.O.O.O.O.O.O.$.O.O.O.O.$.+.O.O.O.O.O.O.O.O.",
"O.O.O.O.O.O.O.O.O.O.O.O.O.O. .' x f 5 > & : B B B B B B m n v - # > t h ^ ^ @.$.O.O.O.O.O.O.O.O.O.O.O.O.O.O.O.O.O.O.O.O.O.O.O.O.",
"o.O.O.O.O.O.+.O.O.$.O.O.O.O.O.O.o.( p X > $ c v c c v v v c v % >   p ) @.%.@.*.+.O.O.O.O.O.O.O.O.O.O.O.O.O.O.O.+.+.O.O.O.O.O.O.",
"+.O.O.O.O.O.O.O.O.O.O.O.O.O.O.O.O.{ j p 5 3 % % % % % % % % % 3 t p l } %.%.%.*.%.$.o.o.O.+.O.o.+.O.O.O.O.O.O.O.O.O.O.O.O.O.O.O.",
"+.O.O.O.O.O.O.O.O.O.O.O.O.O.O.O.O. .{ ( f 4 o o > > o o o o o t h ) } X.%.%.%.%.%.%.$.o.O.O.O.O.$.O.O.O.O.O.$.+.O.O.O.O.O.O.O.O.",
"O.O.O.O.O.O.O.O.O.O.O.O.O.O.O.$.O.O.o.O.x e + + + + X X . . . e ^ %.%.%.%.%.%.%.%.%.%.$.O.O.O.O.O.O.O.O.O.O.O.O.$.O.O.O.+.O.O.O.",
"O.$.O.O.O.O.O.O.$.+.O.O.O.O.O.+.O.O.O.+.x e . . + X X O . . . e ^ %.%.%.%.%.%.%.*.%.%.$.$.O.O.O.O.O.O.O.O.O.O.O.O.O.O.O.$.O.O.O.",
"O.O.O.O.O.$.O.O.O.O.O.O.O.O.O.O.O.O.$.%.@.%.%.%.%.%.%.%.%.%.%.#.%.%.%.%.%.%.%.%.%.@.%.#.%.$.O.o.O.O.O.O.O.$.O.O.O.O.O.O.O.O.O.O.",
"O.O.O.O.O.+.O.O.O.O.O.O.O.O.O.O.O.$.&.%.%.@.@.%.%.%.%.%.%.%.%.*.%.%.%.%.%.%.%.%.%.%.@.%.%.&.O.O.O.O.O.O.O.O.O.O.O.O.O.O.O.O.O.O.",
"O.O.O.O.O.O.O.O.O.O.O.O.O.O.O.O.O.%.%.#.@.%.%.%.%.%.%.%.%.%.#.%.%.%.%.%.%.%.%.%.%.%.@.%.%.%.%.$.O.O.O.O.O.O.O.O.O.O.O.O.$.O.O.O.",
"O.O.O.$.O.O.O.O.O.O.O.O.O.O.O.o.%.%.%.%.%.&.%.%.*.%.%.#.%.%.%.%.%.%.%.%.%.%.%.%.%.%.%.%.#.%.%.&.O.O.O.O.O.O.O.O.O.O.O.O.O.O.O.O.",
"O.O.O.O.O.O.O.O.O.O.+.+.O.O.$.&.%.%.%.%.%.%.%.%.%.%.*.#.%.%.%.%.%.%.%.%.%.%.%.%.%.%.%.%.%.%.%.%.&.$.O.o.O.$.O.o.O.O.O.O.O.O.O.O.",
"O.O.O.O.O.O.+.O.O.O.O.o.O.$.@.%.*.%.%.%.%.%.%.%.%.%.*.#.%.%.%.%.%.%.%.%.%.%.%.%.%.%.%.%.%.%.%.%.%.&.$.O.O.O.O.O.O.O.O.O.O.O.O.O.",
"O.O.O.O.O.O.O.O.O.O.o.O.$.&.%.%.%.%.%.%.%.%.%.%.%.%.#.#.%.%.%.%.%.%.%.%.%.%.%.%.%.%.%.%.%.%.%.%.%.%.%.O.O.O.O.+.O.O.O.+.O.O.O.O.",
"O.$.O.O.$.O.O.O.O.O.O.$.$.%.%.%.%.%.%.%.%.*.%.%.%.%.%.%.#.*.%.%.%.%.%.%.%.%.%.%.%.%.%.%.%.%.%.%.%.%.%.$.O.O.O.O.O.O.O.O.+.O.O.O.",
"O.O.O.O.O.O.O.O.o.O.$.%.%.%.%.@.%.%.%.%.%.%.%.%.%.%.%.%.%.%.%.%.%.%.%.%.%.%.%.%.%.%.*.#.%.%.%.%.#.#.%.#.%.@.O.o.O.O.$.+.O.O.O.O.",
"O.O.O.O.O.O.O.O.O.$.&.%.%.%.@.%.%.%.%.%.%.%.%.%.%.%.%.%.%.%.%.%.%.%.%.%.%.%.%.%.%.%.%.%.%.%.%.%.%.%.%.%.&.&.$.o.O.O.O.O.$.O.O.O.",
"O.O.O.O.+.O.O.O.$.@.@.%.@.%.%.%.%.%.%.%.%.%.%.%.%.%.%.%.%.%.%.%.%.%.%.%.%.%.%.%.%.%.%.%.%.*.%.%.&.%.#.%.#.%.%.$.O.O.O.O.O.O.O.O.",
"O.O.O.O.$.O.O.O.&.%.%.%.%.%.%.&.%.%.%.%.%.%.%.%.%.%.%.%.%.%.%.%.%.%.%.%.%.%.%.%.%.%.%.%.%.%.%.%.&.&.%.#.@.%.%.%.O.O.O.O.O.O.O.O.",
"o.O.O.O.O.O.%.%.%.%.%.%.%.%.%.%.%.%.%.%.%.%.%.%.%.%.%.%.%.%.%.%.%.%.%.%.%.%.%.%.%.%.%.%.%.%.%.%.%.%.%.%.%.%.%.%.&.$.O.o.O.+.O.o.",
"O.O.O.O.O.O.@.%.%.%.%.%.%.%.%.%.%.%.%.%.%.%.%.%.%.%.%.%.%.%.%.%.%.%.%.%.%.%.%.%.%.%.%.%.%.%.%.%.%.%.%.%.%.%.*.%.%.&.$.+.O.O.O.O.",
"+.O.O.O.$.%.%.%.%.%.%.%.%.%.%.%.%.%.%.%.%.%.%.%.%.%.%.%.%.%.%.%.%.%.%.%.%.%.%.%.%.%.%.%.%.%.%.%.%.%.%.%.%.%.%.%.%.%.%.$.O.O.O.O.",
"O.O.O.+.$.%.#.%.%.%.%.%.%.%.%.%.%.%.%.%.%.%.%.%.*.#.%.%.%.%.%.%.%.%.%.%.%.%.%.%.%.%.%.%.%.%.%.%.%.%.%.%.%.%.%.%.%.%.%.$.$.O.O.O.",
"O.o.$.&.%.%.%.%.%.%.%.%.%.%.%.%.%.%.%.%.%.%.%.%.%.%.%.%.#.#.*.*.%.%.%.%.%.%.%.%.%.%.%.%.%.%.%.%.%.%.%.%.%.%.%.%.@.@.%.%.&.$.$.O.",
"o.$.&.&.%.@.#.%.%.%.%.%.%.%.%.%.%.%.%.%.%.%.%.%.%.%.%.%.%.%.#.#.%.%.%.%.%.%.%.%.%.%.%.%.%.%.%.%.%.%.%.%.%.%.%.%.%.%.@.%.&.$.$.o.",
"$.@.%.&.%.#.&.&.%.%.%.%.%.%.%.%.%.%.%.%.%.%.%.%.%.%.%.%.%.%.%.%.*.%.%.%.%.%.%.%.%.%.%.%.%.%.%.%.%.%.%.%.%.%.%.%.%.%.%.@.%.%.$.$.",
"%.%.%.%.%.%.%.&.%.%.%.%.%.%.%.%.%.%.#.%.%.%.%.%.%.%.%.%.%.%.%.%.%.%.%.%.*.%.%.%.%.%.%.%.%.%.%.%.%.%.%.%.%.%.%.%.%.%.%.%.%.%.%.&."
};
