/* XPM */
static char *bullet_4_1712251712[] = {
/* columns rows colors chars-per-pixel */
"64 64 96 2 ",
"   c #211E2F",
".  c #221F30",
"X  c #22212F",
"o  c #223E27",
"O  c #233F28",
"+  c #222130",
"@  c #2B2736",
"#  c #255D1C",
"$  c #2E5F1D",
"%  c #266A16",
"&  c #25631A",
"*  c #28641A",
"=  c #276B18",
"-  c #30611F",
";  c #3B691E",
":  c #267514",
">  c #277E13",
",  c #397B19",
"<  c #244625",
"1  c #2D4128",
"2  c #354329",
"3  c #39462A",
"4  c #3F4F28",
"5  c #375E2B",
"6  c #46533E",
"7  c #4A593E",
"8  c #4B7122",
"9  c #577424",
"0  c #587525",
"q  c #5B7E22",
"w  c #58742A",
"e  c #586932",
"r  c #534A4D",
"t  c #5A4E4E",
"y  c #4B5B40",
"u  c #565840",
"i  c #5B5E41",
"p  c #5A4E50",
"a  c #5E5352",
"s  c #6B5C59",
"d  c #716C5A",
"f  c #7A6F5B",
"g  c #72705B",
"h  c #87736A",
"j  c #89736B",
"k  c #89786E",
"l  c #937D6F",
"z  c #957E73",
"x  c #29870F",
"c  c #28880D",
"v  c #2A8712",
"b  c #2D8810",
"n  c #338910",
"m  c #3F8D13",
"M  c #4D8C19",
"N  c #459014",
"B  c #4A9215",
"V  c #559617",
"C  c #5B9817",
"Z  c #5C9918",
"A  c #649C1A",
"S  c #6A9E1B",
"D  c #6EA01B",
"F  c #72A11D",
"G  c #71972A",
"H  c #76A420",
"J  c #79A721",
"K  c #7CAA24",
"L  c #83AE29",
"P  c #83B12B",
"I  c #88B42D",
"U  c #86AC33",
"Y  c #8BB730",
"T  c #92BC35",
"R  c #97BF38",
"E  c #96C038",
"W  c #9DC63C",
"Q  c #948374",
"!  c #988074",
"~  c #9F8578",
"^  c #9F8D79",
"/  c #AA8F7E",
"(  c #AD927F",
")  c #A3CC42",
"_  c #B29483",
"`  c #B59B85",
"'  c #B89985",
"]  c #C6A58E",
"[  c #C6AB91",
"{  c #D3AF95",
"}  c #D5B296",
"|  c #D6BC97",
" . c #D5B599",
".. c #D7BD9A",
"X. c #D9BC9B",
"o. c #D9BEA0",
/* pixels */
"..................................................................................................................o.............",
"................................................................................................................................",
"..............X............................................... .................................................................",
"........................................................X.X...|  .....o.......................................................o.",
"......................................................X.X.X.} } } }  ...X.......................................................",
"....................................................X.X.X. .} { {  . . .X.....X.................................................",
"..................o.....................................} } } } } } } | X.............................................o.........",
"......................................................| } } { } } { } }  .......................................................",
"......................o.........| ..............o.X.} } } } } } } } } } } } ..o.................................................",
"................................................X.} } } } } } } } } } } } }  . ...................o.............................",
"....| | ................| | ......X.......X.....} } { { } } } } } } } } { } }  ...X.............................................",
"........................o.o.........X.X.X.X... .} } } } } } } } } } } } } } } }  .X...o.........................................",
"........................| | ..........X.o.X.} } } } } } } } } } } } } } } } } } } | ....X.......................................",
"........................| o.| o.X.X.....X.} } { } } } } } } } } } } } } } } { } { {  . .X.X.....................................",
"..........................| | o.| X.X.X.} } } } } } } } } } } } } } } } } } } } { } } | X.......................................",
"............o.............o.| | X.X.X. .{ } } } } } } } } } } }  .} } } } } } } } } { {  .......................................",
"....o.| ..| | o.................o. . .} } } } } } } } } } } } } } } } } } } } } } } } } }  .X.X.................................",
"....| | ..o.| | ..........| ....X. .} } } } } } } } } } } } } } } } } } } } } } } } } } }  . .X...........| ....................",
"o.....o.....o.| ....X.....X.X... .} { } } } } } } } } } } { } } } } } } } } } } } } } } } } }  .............| ..................",
"| ........| o.| ....X...X.X... . .} { { } } } } } { ] ' ( ( ( / / / / / ( ' ] { } } } } } { } } | ....o.X.......................",
"..........| ..........X.X.X.} { } } } } } } } } } { ( j s s s s s s s s s j ( } } } } } } } } } | | | ..X.......................",
"..........o.............X. .} { } } } } } } } } { } z a @ @ @ @ @ @ @ @ @ t z { } } } } } } { } } } } | X.....X.................",
"........................ .} } } } } } } } } } ] _ z h 7 3 3 3 3 3 3 3 1 < 6 h z _ ] } }  .} {  .} } { } ..X.....................",
"....................X. .} { } } } } } } } } } _ j p e e 9 9 9 9 9 9 8 ; * 4 6 a j _ } } } } } { } } { } ..X.....................",
"................X.X. . .} } } } } } } } { { { ~ t   4 q F F F F F F A N x = < + p / { { { { } } } } } }  . ...o.................",
"................X. .} } } } } } } } } } ] ( z h e 6 9 G P P I L K F D C B , * < y d j z } } } } } } } } { }  .X.......X.........",
"| | ........| |  .} { } } } } } } } } } ' j a 7 e q G U E E R T P F F D A M , = 5 6 r r } } } } } } } } { { } } ......X.........",
"..o.| | ....| | } } { } } } } } } } } } / s @ 3 9 F L T ) ) ) W Y F F F F Z N b & o . . } } } } } } } } } } } } ....X.X.........",
"..o...o.o.X.} } } } } } } } } } } } } } ( s @ 3 9 F L R ) ) ) W Y H F F F Z N x & o . . } } } } } } } } } } } } { } ....X.......",
"X.| ..X.X.X.} { } } } } } } } } } } } } / s @ 3 9 F L T ) ) ) W Y H F F F Z N x & o . . } } } } } } } } } } } } { }  ...X.X.....",
"......X.} } } } } } } } } } } } } } } } / s @ 3 9 F L T W W W R I H F F F C N x & O . . } } } } } } } } } } } } } { } } ....X...",
"....| | } } } } { } } } } } } } } } } } / s @ 3 9 F L L Y Y Y I L H F F F C N x & O . . } } } } } } } } } } } } } } { }  .......",
"o.X.} } } } } } } } } } } } } } } } } } / s @ 3 0 F H H H K J H F F F F F C N c & o     } } } } } } } } } } } } } } } }  . .X.o.",
"X. .} } } } } } } } } } } } } } } } } } / s @ 2 8 A S S F S H H F F D A A V m v & o . . } } } } } } } } } } } } } } } { } {  .X.",
"} } } } } } } } } } } } } } } } } } } } / s @ 1 ; B V A F F H D F F D C B m n c & o     } } } } } } } } } } } } } }  .} } }  . .",
"} } } } } } } } } }  .} } } } } } } } } / s @ o * b B Z F F D F F F A B n v v x # o .   } } } } } } } } } } } } } } } } } { { { ",
"} } } } } } } } } } } } } } } } } } } } ` h t 6 5 % , M C C C C C C V N b > : % 5 6 r r } } } } } } } } } } } } } } } } } { } } ",
"} } } { } } } } } } } } } } } } } } } } ] ( z d 7 < - , N m N N N N m n x : # < 7 d l z  .} } } } } } } } } } } } } } } } } { } ",
"} } } } } } } } }  .} }  .} } } } } } } } { } ~ t   < = v c v v c v v c x = < X s z { { { } } } } } } } } } } } } } } } } } } } ",
"} } } } } }  .} } } } } } } } } } } } } } } } _ k s y 5 & & & & & & & & & 5 7 a j ' } } } } } } } } } } } }  .} }  .} } } } } } ",
"} } } } } } } } } } } } } } } } } }  .} { }  .[ ` / g 6 o o o o o o o o < y d ^ ` [  .{ }  . .{ } } } } } } } } } } } } } } } } ",
"} } } } } } } } }  .} } } } } } } } } } }  . .X.....Q u X X . .     . . + r Q  .X. . .} } } { } } } } } } } } } } } } } } } } } ",
"} } } } } } } } } } } } } } } } } } { }  .X.o.X.....^ i X X . X   X . . X r Q ...... . .} { } } } } } } } } } } } } } } } } } } ",
"} } } } } } } } } } } } } } } } }  .}  .X...........o.| ................| ......o..... . .} } } } } } } } } } } } } } } } } } } ",
"} } } } } } } } } } } } } } } } { } X.| | ....| ..o...................................| X.X.} } } } } } } } } } } } } } } } } } ",
"} } } } } } } } } } } } } } } } { } X.X.X.| | ........................................| X.|  .} X.} } } } } } } } } } } } } } } ",
"} } } } } } } } } } } } } } } }  .X.......| ....................................| o.| | X..... .} } } } } } } } } } } } } } } } ",
"} } } } } } } } } } } }  .} }  .X. .| | | X...X...................................X.| ..| | X.X.} } } } } X.} } } } } } } } } } ",
"} } } } } } } } } } } } } }  .X.........................................o.| | o.................X.} } } }  .} { } } } } }  .{ } ",
"} } X.} } } } } } } } } }  . .X...o.....................................| | o.| ................X.X.} } } } } } } } } } } } } } ",
"} } } } } } } } } } } } } X.o.X.........................................| o.o.| ................X.X.X.} } { } } } } } } } } } } ",
"} } } } } } } } }  .}  . .X.X.X...........................................| | | ................X.X.X.X. .} } } } } } } } } } } ",
"} } } } } } } } { } | X.X.X.X.X...........o.........................o.......o.o.o...............X.X.X.X.X.} } { } } } } } }  .} ",
"} } } } } } } } } } X.X.X.X.| X.............................................| | ................X.X.| X.X.X. .} } } } } } } } } ",
"} } } } } } } }  .X.| X.| | X.X.........................................| ......................X.X.| | | | |  .} } } } } } } } ",
"} } } } } } } } X...X.| | X.X.X.........................................o.......................X.X.X.| X.| X.X.} } } } } } } } ",
"{ }  .} { } X.X.................................................................................................X.X.} { }  .{ { ",
"} } } { }  .| ......X...........................X...........X...................................................X.X. .} {  .} } ",
" .} } }  .......................................................................................................X.X. .}  .{ { } ",
"} } } }  .............................................................................................X.........X.| X.X. .} {  .",
"{ }  . .......| ........................................................................o.............X.........| | ....X. .{ { ",
"} } X.X...| | ......................o...............................................................................| ..X.X. .{ ",
"} ..X.X.| | ................................................X.X.................................................X...| | X.X.X. .",
"X...........X.X.............................................X...................................................X.X...| | X.X.X."
};
