/* XPM */
static char *bullet_6_1712251712[] = {
/* columns rows colors chars-per-pixel */
"64 64 105 2 ",
"   c #221F30",
".  c #22212F",
"X  c #223E27",
"o  c #263F29",
"O  c #222131",
"+  c #2B2736",
"@  c #2A2835",
"#  c #2A2738",
"$  c #255D1C",
"%  c #266A17",
"&  c #25631A",
"*  c #2B621C",
"=  c #276B18",
"-  c #3B691E",
";  c #277414",
":  c #277E13",
">  c #397B19",
",  c #244625",
"<  c #2E4229",
"1  c #354329",
"2  c #39462A",
"3  c #365E2A",
"4  c #35602B",
"5  c #405127",
"6  c #40502B",
"7  c #46533E",
"8  c #4B573F",
"9  c #4A583F",
"0  c #4D6F22",
"q  c #4B7022",
"w  c #577424",
"e  c #5B7E22",
"r  c #58742A",
"t  c #576A32",
"y  c #586A30",
"u  c #53484D",
"i  c #4B5B40",
"p  c #575941",
"a  c #5C5F42",
"s  c #5B4E51",
"d  c #5E5352",
"f  c #6B5C5A",
"g  c #6C605C",
"h  c #716C5A",
"j  c #7A6F5D",
"k  c #72705B",
"l  c #877369",
"z  c #89746B",
"x  c #8A796E",
"c  c #947E72",
"v  c #29870F",
"b  c #2C8811",
"n  c #338910",
"m  c #3F8E13",
"M  c #418D13",
"N  c #4D8C19",
"B  c #449014",
"V  c #4A9215",
"C  c #4B9218",
"Z  c #559617",
"A  c #5C9917",
"S  c #5C9918",
"D  c #649C1A",
"F  c #6A9E1B",
"G  c #6EA01B",
"H  c #72A11D",
"J  c #71972A",
"K  c #77A520",
"L  c #79A621",
"P  c #7CAA24",
"I  c #83AE29",
"U  c #83B12B",
"Y  c #88B42D",
"T  c #86AC32",
"R  c #8BB730",
"E  c #92BC34",
"W  c #99BF36",
"Q  c #96C038",
"!  c #9DC63C",
"~  c #978674",
"^  c #9E8475",
"/  c #9F8578",
"(  c #9F8D79",
")  c #AA8F7E",
"_  c #AC947F",
"`  c #AC987F",
"'  c #A3CC42",
"]  c #AD9782",
"[  c #AD9881",
"{  c #B29583",
"}  c #B29D84",
"|  c #B89985",
" . c #B8A288",
".. c #C6A58E",
"X. c #C5AA8F",
"o. c #C6AF90",
"O. c #D3AF95",
"+. c #C7B091",
"@. c #D5B296",
"#. c #D9B197",
"$. c #D6BC97",
"%. c #D5B599",
"&. c #D7BD9A",
"*. c #D9BC9B",
"=. c #D9BEA0",
/* pixels */
"&.&.&.&.&.&.&.&.&.&.&.&.&.&.&.&.&.&.&.&.&.&.&.&.&.&.&.&.&.&.&.&.&.&.&.&.&.&.&.&.&.&.&.&.&.&.&.&.&.&.&.&.&.&.&.&.&.&.&.&.&.&.&.&.",
"&.&.&.&.&.&.&.&.&.&.&.&.&.&.&.&.&.&.&.&.&.&.&.&.&.&.&.&.&.&.&.&.&.&.&.&.&.&.&.&.&.&.&.&.&.&.&.&.&.&.&.&.&.&.&.&.&.&.&.&.&.&.&.&.",
"&.&.&.&.&.&.&.&.&.&.&.&.&.&.&.&.&.&.&.&.&.&.&.&.&.&.&.&.&.&.&.$.&.&.&.&.&.$.&.&.&.&.&.&.&.&.&.&.&.&.&.&.&.&.=.&.&.&.&.&.&.&.&.&.",
"&.&.&.&.&.&.&.&.&.&.&.&.&.&.&.&.&.&.&.&.&.&.&.&.&.&.&.&.&.&.&.$.$.&.=.*.&.&.&.&.&.&.&.&.&.&.&.&.&.&.&.&.&.&.&.&.&.&.=.&.&.&.&.&.",
"&.&.&.&.&.&.&.&.&.&.&.&.&.&.&.&.&.&.&.&.&.&.&.&.&.&.&.=.*.*.@.@.O.%.&.&.=.&.&.&.&.&.&.&.&.&.&.&.&.&.&.&.&.&.&.&.&.&.&.&.&.&.&.&.",
"&.&.&.&.*.&.&.&.&.&.&.&.&.&.&.&.&.&.=.&.&.&.&.&.&.&.*.*.%.%.O.O.O.@.%.&.*.*.&.*.&.&.&.&.&.&.&.&.&.&.&.&.&.&.&.&.&.&.&.&.&.&.&.&.",
"&.&.&.&.&.&.&.*.&.=.&.&.&.&.&.&.&.&.&.&.&.&.&.&.&.&.&.*.%.@.@.@.O.@.O.@.&.&.&.&.&.&.&.&.&.&.&.&.&.&.&.&.&.&.&.&.&.&.&.&.&.&.&.&.",
"&.&.&.&.&.&.&.&.&.&.&.&.&.&.&.&.&.&.&.&.&.&.&.&.&.&.&.$.@.@.O.@.@.O.O.O.%.&.&.&.&.&.&.&.&.&.&.&.&.&.&.=.&.&.&.&.&.&.&.&.=.&.&.&.",
"&.&.&.&.&.&.&.&.&.&.&.&.&.&.&.&.&.&.&.&.&.&.&.&.*.$.$.@.@.@.@.@.@.@.@.@.@.@.&.=.&.&.&.&.&.&.&.&.&.&.&.&.&.&.&.&.&.&.&.&.&.&.&.&.",
"&.&.&.&.&.&.&.&.&.&.&.&.&.&.&.&.&.&.&.&.&.&.&.&.*.%.@.O.@.#.@.@.@.@.@.@.@.@.%.&.&.&.&.&.&.&.&.&.&.&.&.&.&.&.&.&.&.&.&.&.&.&.&.&.",
"&.&.&.&.&.&.=.&.&.&.&.&.&.&.&.&.&.&.&.&.&.&.&.*.%.#.O.O.@.@.@.@.@.@.@.@.@.O.@.%.$.&.&.&.&.&.&.&.&.&.&.&.&.&.&.&.&.&.&.&.&.&.&.&.",
"&.&.&.&.&.&.&.&.&.&.=.&.&.&.&.&.&.&.%.&.&.*.&.$.@.@.@.@.@.@.@.@.@.@.@.@.O.@.@.@.%.*.&.=.&.&.&.&.&.&.&.&.&.&.&.&.&.&.&.&.&.&.&.&.",
"&.&.&.&.&.&.&.&.=.&.&.&.&.&.&.&.&.&.&.=.*.&.@.@.@.@.@.@.@.@.@.@.@.@.@.@.@.@.@.#.O.%.%.*.&.&.&.&.&.&.&.&.&.&.&.&.&.&.&.&.&.&.&.&.",
"&.&.&.&.&.&.&.&.&.&.&.&.&.&.&.&.&.&.&.&.*.@.@.O.@.@.@.@.@.@.@.@.@.@.@.@.@.@.@.@.O.@.%.%.=.&.&.&.&.&.&.&.&.&.&.&.&.=.&.&.&.&.&.&.",
"&.&.&.=.&.&.&.&.&.&.&.&.&.&.&.&.&.&.&.$.@.@.@.@.@.@.@.@.@.@.#.#.@.@.@.@.@.@.@.@.@.@.@.$.*.&.&.&.&.&.&.&.&.&.&.&.&.&.&.&.&.&.&.&.",
"&.&.&.&.&.&.&.&.&.&.&.&.&.&.&.&.&.&.$.$.@.O.@.@.O.@.@.@.@.@.@.%.@.#.@.@.@.@.@.@.@.@.+.@.%.&.&.&.&.&.&.&.&.&.&.&.&.&.&.&.&.&.&.&.",
"&.&.&.&.&.&.&.&.%.&.&.&.&.&.&.&.=.&.%.@.@.@.@.O.@.@.@.@.@.@.@.@.@.@.%.@.@.@.@.@.@.@.O.@.@.%.*.=.&.=.&.&.$.*.$.&.&.&.&.&.&.&.&.&.",
"&.&.&.&.&.&.&.&.&.&.&.&.&.&.&.&.*.&.%.@.@.@.@.#.@.@.@.@.@.@.@.@.@.@.@.@.@.@.@.@.@.@.#.@.@.@.@.*.&.&.&.&.*.$.&.&.&.&.&.&.&.&.&.&.",
"&.&.&.&.&.&.&.&.&.&.&.&.&.&.&.&.%.@.O.O.@.@.@.@.@.#.@.@.@.@.@.@.@.@.@.@.@.@.@.@.@.@.@.@.@.O.@.%.&.&.&.&.*.*.*.*.*.&.$.&.&.&.&.&.",
"&.&.&.&.&.&.&.&.&.&.&.&.&.*.&.%.@.O.O.@.@.@.@.@.@.@.@.@.@.@.@.@.@.@.@.@.@.@.@.@.@.@.@.@.@.@.@.#.o. . .` ` _ _ _ ` } `  .+.&.&.&.",
"&.&.&.&.&.&.&.&.&.&.&.=.*.&.@.@.@.@.O.@.@.@.@.@.@.@.@.#.@.@.@.@.@.@.@.@.@.#.@.@.@.@.@.@.@.@.@.O.` z f f f f f f g g f x } &.&.&.",
"&.&.&.&.&.&.&.&.&.&.&.&.%.@.@.O.@.@.%.@.@.@.@.@.@.@.@.@.@.@.@.@.@.@.@.#.@.@.@.@.@.@.@.@.@.O.O.O.~ s + + + # + + @ @ @ d ~ &.&.&.",
"&.&.&.&.&.&.&.&.&.&.&.$.%.@.@.@.O.@.@.@.@.@.@.@.@.@.@.@.@.@.@.%.@.@.@.@.@.@.@.@.@.@.@.@.@...{ ^ j p o 6 6 6 o 5 1 < o 7 k ~ } o.",
"&.&.&.&.&.&.&.&.&.&.$.$.@.@.@.#.@.@.@.@.@.@.#.#.@.@.@.@.@.@.@.@.@.@.@.@.@.@.@.@.#.#.@.@.O.] l s t y w w y w w w 0 - % 4 9 f x } ",
"&.&.&.&.&.&.&.&.=.&.%.%.@.O.#.@.@.@.@.@.@.@.@.@.@.@.@.@.@.@.@.@.@.@.@.@.@.@.@.@.@.@.@.O.O.^ f   2 e H K H H F K D V n % , O d ( ",
"&.&.&.&.&.&.&.&.&.%.@.@.#.@.@.@.@.@.@.@.@.@.@.@.@.@.@.@.@.@.@.@.@.@.@.@.@.@.%.@.@.@..._ c j a 5 r J I U I I P K D Z B > * , i k ",
"&.&.&.&.&.&.$.$.@.@.O.@.@.@.@.@.@.#.@.@.%.@.@.@.@.@.@.@.@.@.@.@.@.@.@.@.@.@.@.@.@.@.| z s p t e J R W Q Q E U K G D S N > = 4 7 ",
"&.&.&.&.&.$.$.$.@.@.@.@.@.@.@.@.@.@.@.@.@.@.@.@.@.@.@.@.@.@.@.@.@.%.@.@.@.@.@.@.#.@.) f + 2 w H U Q ' ' ' ! R K H H H S B v & X ",
"&.&.&.*.*.*.@.@.@.@.@.@.@.@.@.O.@.@.@.@.@.#.@.@.@.@.@.@.@.@.@.@.@.@.@.@.@.@.@.@.@.@.) f # 2 w H U Q ' ' ' ! R K H H H A B v & X ",
"&.&.=.&.*.*.@.O.@.@.@.@.@.@.@.@.@.@.@.@.@.@.@.%.@.%.@.@.@.@.@.@.@.@.@.@.@.@.@.@.@.@.) f # 2 w H U Q ' ' ' ! R K H H H A B v & X ",
"&.&.&.&.#.@.@.@.@.@.@.@.@.@.@.@.@.@.@.@.@.@.@.@.@.@.@.@.@.@.@.@.@.@.@.%.@.@.@.@.@.@.) f + 2 w F I E ! ! ! W Y K H H H A B v & X ",
"&.&.&.$.@.@.@.@.@.@.@.@.@.@.@.@.@.@.@.@.@.@.@.@.@.@.@.@.@.@.#.%.@.@.@.@.@.@.@.@.@.#.) f + 2 r K P U R R R R P K G K H A B v & X ",
"*.*.@.@.@.@.@.@.@.@.@.@.@.@.@.@.@.@.%.@.@.@.@.@.O.@.#.O.$.$.$.&.*.%.@.@.@.#.@.@.@.@.) f + 1 w H H L L L K K K H H H H A M v & X ",
"*.$.@.O.@.@.@.@.@.#.@.@.@.@.@.@.@.@.@.@.@.@.@.@.@.@.@.#.#.$.$.&.&.*.%.#.O.@.@.@.@.@.) f @ 1 0 D F F H K H H H H G F D Z B v & X ",
"%.#.O.@.@.@.@.@.@.@.@.@.@.@.@.@.@.@.@.@.@.@.@.@.@.#.#.O.$.$.&.&.&.&.*.%.@.O.@.@.@.@.) f + < - N Z D H H H H K F D A C m n v & X ",
"@.@.@.@.@.@.@.@.@.@.@.@.@.@.@.@.@.@.#.@.@.@.%.@.@.@.#.$.#.$.&.&.&.$.*.%.%.@.@.@.@.O.) f + o % b N S H H H H H K D V n b v v & X ",
"@.@.@.@.@.@.@.@.@.@.@.@.@.@.%.@.@.@.@.@.@.@.@.@.O.@.$.$.$.&.&.&.$.&.&.&.%.%.#.O.@.#.| l s 7 3 % > N A A A A A S Z M b : ; % 3 7 ",
"@.O.@.@.@.@.@.@.@.@.@.@.@.@.@.@.@.@.@.@.@.@.@.@.@.@.$.*.&.$.&.&.&.$.$.&.&.*.%.@.@.@...] c h i , * > B B B B B B m n b ; $ , 7 h ",
"@.@.@.@.#.@.@.@.@.@.@.@.@.@.@.@.@.@.@.@.@.@.#.@.%.&.%.&.&.$.&.*.&.&.&.$.&.$.$.%.@.@.O.@.O./ d   , = v v v v v v v v v % , O d / ",
"@.@.@.@.@.@.#.%.@.@.@.@.#.@.@.@.@.@.@.@.@.@.@.@.&.&.&.$.&.&.*.=.&.&.&.&.&.&.&.*.@.@.@.#.O.] l d 9 3 & & & & & & & & & 3 7 d l { ",
"@.@.@.@.@.@.@.@.@.@.@.@.@.@.@.@.@.@.@.@.O.@.%.%.&.&.&.&.&.&.&.&.&.&.&.&.&.&.&.&.&.*.@.O.@...{ / h 7 X X X X X X X X X 7 h / ] ..",
"@.@.@.@.@.@.@.@.@.@.@.@.@.@.@.@.@.@.@.@.#.%.&.&.&.&.&.&.&.&.&.&.&.&.&.&.&.&.&.&.&.*.%.@.O.@.#.O.c u                 O u c O.@.O.",
"@.@.@.@.@.@.@.@.#.@.@.@.@.%.@.@.@.@.@.@.%.&.&.&.&.&.&.&.=.&.&.&.&.&.&.&.&.&.&.&.&.&.&.@.@.@.@.@.c u       . .         u c O.@.@.",
"@.@.@.@.@.@.@.@.@.@.@.@.@.@.@.@.@.#.@.@.%.&.&.&.&.&.&.&.&.&.&.&.&.&.&.&.&.&.&.&.&.&.&.%.%.#.O.@.@.@.@.@.@.@.@.@.@.@.@.@.@.#.#.#.",
"@.@.@.@.#.@.@.@.@.@.@.@.@.@.@.@.@.@.%.&.&.&.&.$.&.&.&.&.&.&.&.&.&.&.&.&.&.&.&.&.&.&.&.&.&.%.@.O.@.@.@.@.@.@.%.@.@.@.@.@.@.@.@.@.",
"@.@.@.@.@.@.@.@.@.@.@.@.@.@.@.@.@.%.*.&.&.$.&.&.&.&.&.&.&.&.&.&.&.&.&.&.&.&.&.&.&.&.&.&.$.$.%.@.O.@.@.@.@.@.@.@.@.@.@.@.@.@.@.@.",
"@.@.@.@.@.@.@.@.@.@.@.@.@.@.@.@.%.$.$.&.&.$.&.&.&.&.=.&.&.&.&.&.&.&.&.&.&.&.&.&.&.&.$.$.&.&.*.%.@.@.@.@.@.@.@.@.@.@.@.@.@.@.%.@.",
"@.@.@.@.%.@.@.@.@.@.@.@.@.@.@.@.*.*.&.&.&.&.&.&.&.&.&.&.&.&.&.&.&.&.&.&.&.&.&.&.*.&.&.&.$.&.&.*.@.@.@.@.@.@.@.@.@.@.@.@.@.@.@.@.",
"@.@.@.@.@.@.@.@.O.@.#.@.O.@.%.%.&.&.&.&.&.&.=.&.&.&.&.&.&.&.&.&.&.&.&.&.&.&.&.&.&.&.&.&.&.&.&.&.*.%.O.O.#.%.@.@.@.@.@.@.@.@.@.@.",
"@.@.#.@.@.@.@.@.@.@.@.O.@.%.&.&.&.&.&.&.&.&.&.&.&.&.&.&.&.&.&.&.&.&.&.&.&.=.&.&.&.&.&.&.&.&.&.&.&.$.%.@.O.@.@.@.@.@.@.@.@.@.@.@.",
"@.@.%.@.@.@.@.@.#.@.@.@.%.&.&.&.&.&.&.&.&.&.&.&.&.&.&.&.&.&.&.&.&.&.&.&.&.&.&.&.&.&.&.&.&.&.=.&.&.&.%.%.@.O.@.#.@.@.@.@.@.@.@.@.",
"@.@.@.@.@.@.%.@.@.@.@.%.%.&.&.&.&.&.&.&.&.&.&.&.&.&.&.&.&.&.&.&.&.&.&.&.&.&.&.&.&.&.&.&.&.&.&.&.&.&.&.%.%.@.@.@.@.@.@.@.@.@.@.@.",
"@.@.@.%.@.@.@.@.O.#.$.$.&.&.$.&.&.&.&.&.&.&.&.&.&.&.&.&.&.&.&.&.=.&.&.&.&.&.&.&.&.&.&.&.&.&.&.&.&.&.&.&.*.$.@.O.@.@.@.@.@.@.@.@.",
"@.@.@.@.@.@.@.@.@.%.*.&.&.$.&.&.&.&.&.&.&.&.&.&.&.&.&.&.&.&.&.&.&.&.&.&.&.&.&.&.=.&.&.&.&.&.&.&.&.&.$.&.*.*.%.@.@.@.@.@.@.@.@.@.",
"@.@.@.@.@.@.@.@.%.$.$.&.&.&.&.&.&.&.&.&.&.&.&.&.&.&.&.&.&.&.&.&.&.&.&.&.&.&.&.&.&.&.&.&.&.&.&.&.&.&.$.&.$.$.$.%.@.@.@.@.@.@.@.@.",
"@.@.@.@.@.@.#.@.&.%.&.$.&.&.*.&.&.&.&.&.&.&.&.=.&.&.&.&.&.&.&.&.&.&.&.&.&.&.&.&.&.&.&.&.&.&.&.&.=.&.&.$.$.*.&.*.@.@.@.%.#.@.@.@.",
"O.@.@.@.@.@.$.&.&.&.&.&.&.&.&.&.&.&.&.&.&.&.&.&.&.&.&.&.&.&.&.&.&.&.&.&.&.&.&.&.&.&.&.&.&.&.&.&.&.&.&.*.&.&.&.&.*.%.@.O.@.#.@.@.",
"@.@.@.O.@.%.$.&.&.&.&.&.*.&.&.&.&.&.&.&.&.&.&.&.&.&.&.&.&.&.&.&.&.&.&.&.&.&.&.&.&.&.&.&.&.&.&.&.&.&.&.&.&.&.&.&.&.%.%.#.@.@.@.@.",
"#.@.@.@.%.$.&.&.&.&.&.&.&.&.&.*.&.&.&.&.&.&.&.&.&.&.&.&.&.&.&.&.&.&.&.&.&.&.&.&.&.&.&.&.&.&.&.=.&.&.&.&.&.&.&.&.&.&.&.%.@.O.@.@.",
"@.@.@.%.%.*.&.&.&.&.&.&.&.&.&.&.&.&.&.&.&.&.&.&.&.&.&.&.&.&.&.&.&.&.&.&.&.&.&.&.&.&.&.&.&.&.&.&.&.&.&.&.&.&.&.&.&.&.*.$.#.@.@.@.",
"O.@.%.%.$.&.&.$.&.&.&.&.&.&.&.&.&.&.&.&.=.&.&.&.&.&.&.&.&.&.&.&.&.&.&.&.&.&.&.&.&.&.&.&.&.&.&.&.&.&.&.&.&.&.&.&.$.&.&.$.*.%.@.@.",
"@.%.*.*.&.&.&.&.&.&.&.&.&.&.&.&.&.&.&.&.&.&.&.&.&.&.&.&.&.&.&.&.&.&.&.&.&.&.&.&.&.&.&.&.&.&.&.&.&.&.&.&.&.&.&.&.&.$.&.&.*.%.%.@.",
"%.&.%.&.&.&.&.=.&.&.&.&.&.&.&.&.&.&.&.&.&.&.&.&.&.=.&.&.&.&.&.&.&.&.&.&.&.&.&.&.&.&.&.&.&.&.&.&.&.&.&.&.&.&.&.&.&.&.&.$.&.&.$.%.",
"&.&.&.&.&.&.*.&.&.&.&.&.&.&.&.&.&.&.&.&.&.&.&.&.&.&.&.&.&.&.&.&.&.&.&.&.&.&.&.&.&.&.&.&.&.&.&.&.&.&.&.&.&.&.&.&.&.&.&.&.&.&.&.&."
};
