/* XPM */
static char *Character1711634004[] = {
/* columns rows colors chars-per-pixel */
"64 64 256 2 ",
"   c #060607",
".  c #15080A",
"X  c #0A0A17",
"o  c #170A17",
"O  c #0A191A",
"+  c #1C1C1B",
"@  c #191719",
"#  c #14150D",
"$  c #23160B",
"%  c #221C1B",
"&  c #281916",
"*  c #36161B",
"=  c #310E0D",
"-  c #19240D",
";  c #192417",
":  c #05211A",
">  c #29231C",
",  c #342315",
"<  c #1D1C23",
"1  c #171926",
"2  c #1A1B34",
"3  c #0E1326",
"4  c #2A0B26",
"5  c #380926",
"6  c #271828",
"7  c #381927",
"8  c #261B34",
"9  c #381934",
"0  c #1A2427",
"q  c #102932",
"w  c #24232C",
"e  c #282727",
"r  c #372628",
"t  c #272635",
"y  c #382636",
"u  c #353539",
"i  c #2E322D",
"p  c #581818",
"a  c #4C130F",
"s  c #691615",
"d  c #582618",
"f  c #512812",
"g  c #703314",
"h  c #461829",
"j  c #571A28",
"k  c #481A35",
"l  c #571938",
"z  c #4A0A28",
"x  c #661A29",
"c  c #681937",
"v  c #761B31",
"b  c #482429",
"n  c #562529",
"m  c #5B342B",
"M  c #482537",
"N  c #572636",
"B  c #593833",
"V  c #453538",
"C  c #67252B",
"Z  c #762A28",
"A  c #683829",
"S  c #743829",
"D  c #682738",
"F  c #772839",
"G  c #663638",
"H  c #75343C",
"J  c #774428",
"K  c #744D35",
"L  c #684A31",
"P  c #373644",
"I  c #343048",
"U  c #1F2743",
"Y  c #531D43",
"T  c #701B46",
"R  c #572746",
"E  c #543348",
"W  c #682647",
"Q  c #772747",
"!  c #683646",
"~  c #773445",
"^  c #7B3753",
"/  c #6E2F53",
"(  c #394750",
")  c #534751",
"_  c #714C4E",
"`  c #564D65",
"'  c #6F5765",
"]  c #7C6964",
"[  c #0D4637",
"{  c #8E1C30",
"}  c #852B39",
"|  c #98273A",
" . c #883439",
".. c #973639",
"X. c #8C2E2A",
"o. c #B5293D",
"O. c #A73439",
"+. c #B2313B",
"@. c #862019",
"#. c #D7363E",
"$. c #CE2F3B",
"%. c #E03E3C",
"&. c #85441B",
"*. c #8E4B33",
"=. c #AC4C3C",
"-. c #B46A35",
";. c #93643E",
":. c #DA4C3E",
">. c #DB4E3D",
",. c #E9483D",
"<. c #F0473F",
"1. c #CA7438",
"2. c #CA6E36",
"3. c #852945",
"4. c #982845",
"5. c #873547",
"6. c #973747",
"7. c #973856",
"8. c #8A3155",
"9. c #AA2A47",
"0. c #B72746",
"q. c #A93949",
"w. c #B83748",
"e. c #A93A56",
"r. c #B63656",
"t. c #B72C58",
"y. c #B33D61",
"u. c #B11E4D",
"i. c #C83748",
"p. c #D73948",
"a. c #C93858",
"s. c #D93956",
"d. c #C52B50",
"f. c #E73D4B",
"g. c #E83B58",
"h. c #F0354C",
"j. c #D03B64",
"k. c #D1275C",
"l. c #974747",
"z. c #9A4658",
"x. c #865657",
"c. c #8F534E",
"v. c #A9434A",
"b. c #B8444A",
"n. c #B94957",
"m. c #AC4C58",
"M. c #906A50",
"N. c #B57749",
"B. c #B87C56",
"V. c #A9734E",
"C. c #B35167",
"Z. c #92736E",
"A. c #B36578",
"S. c #AA706B",
"D. c #9D4965",
"F. c #C9484A",
"G. c #DC4B4B",
"H. c #D94648",
"J. c #DB5447",
"K. c #CA4854",
"L. c #DD4C53",
"P. c #D74856",
"I. c #C85655",
"U. c #D65559",
"Y. c #C85148",
"T. c #E34C44",
"R. c #EA4A44",
"E. c #E3454C",
"W. c #E44B4C",
"Q. c #E94A4C",
"!. c #E94647",
"~. c #F34748",
"^. c #E6534C",
"/. c #E94654",
"(. c #E44B54",
"). c #EA4B51",
"_. c #E64658",
"`. c #F54755",
"'. c #E85456",
"]. c #F45554",
"[. c #D67945",
"{. c #CC714C",
"}. c #E87152",
"|. c #D35065",
" X c #ED5064",
".X c #F06F6D",
"XX c #CF677B",
"oX c #978572",
"OX c #A78974",
"+X c #B2876C",
"@X c #B9885D",
"#X c #D88448",
"$X c #D28C56",
"%X c #E89356",
"&X c #DA9864",
"*X c #CE9071",
"=X c #FBB775",
"-X c #F4AC6F",
";X c #DE9E73",
":X c #8C7687",
">X c #B46C85",
",X c #DD7888",
"<X c #B38F8C",
"1X c #B6A993",
"2X c #B392AA",
"3X c #BCB5A8",
"4X c #B2ABB0",
"5X c #97949F",
"6X c #CC9092",
"7X c #FA878B",
"8X c #CAA98A",
"9X c #D9B68B",
"0X c #C9AB97",
"qX c #D7AB96",
"wX c #CBB695",
"eX c #D7B698",
"rX c #D1B28C",
"tX c #E5B68B",
"yX c #E4B898",
"uX c #F0B08A",
"iX c #C996A7",
"pX c #CAB9A7",
"aX c #D9B8A4",
"sX c #CBBBB5",
"dX c #D6B9B4",
"fX c #CEACAA",
"gX c #E5B9A5",
"hX c #EAB3B4",
"jX c #E487A2",
"kX c #B4C7BA",
"lX c #92C1AD",
"zX c #D6C49C",
"xX c #CFC299",
"cX c #E6C39C",
"vX c #F3C58A",
"bX c #D8C5A5",
"nX c #C8C4BA",
"mX c #D8C7B5",
"MX c #CCC9AB",
"NX c #E5C5A8",
"BX c #EAC9B5",
"VX c #B8B9C5",
"CX c #E0B7C5",
"ZX c #B9C4C9",
"AX c #D6C9C6",
"SX c #CAC8C8",
"DX c #F5C9D9",
"FX c #ECD0D5",
"GX c #E9D8E3",
"HX c #FFD9E6",
"JX c #F4D9F8",
"KX c #F4FEFF",
"LX c #FDFBFF",
"PX c #FCF5FE",
"IX c #F4E8F2",
"UX c #DED8E6",
/* pixels */
"hXdXSXt O 3 t 5 z l z 5 t O ( kXkXSXnXSXdXsXdXdXsXsXMXpXMXMXsXpXnXkXsXsXsXsXdXdXfXaXdXdXdXdXsXsXfXy o 6 8 9 5 5 4 9 O O 0 SXfXdX",
"hX5 @   q 0 y R l l z h V @   : : ; + + 4 & & & & & & - $ $ $ > + % % % % & = & * & & , & $ + + u o 6 M k Y l W Y I 0 e   ; & dX",
"sX7 6 < e r E W Q W Q W W r ; : 0 q 1 1 % 6 % 6 + + + + + - + % + 1 + % % % & % & > % - ; : 0 :   X 9 N ^ 7.7.8./ ! y e e < e sX",
"8   y o o V x.Z.D.z.D.7.c h r t 1 < w t 9 7 7 7 7 7 r e 7 r , 7 7 r 7 r 7 r 7 r r 7 e e t 0 0 O q i b W y.,XC.v.A._ M . % 6   < ",
"q 2 y b _ G G L S Z l.m.5.Q N o . 5 N ! ! ~ Q ~ ~ H H ! H H H H ~ ~ Q ~ H H H H ! G _ ) E M 7 . w V ! 7.n.r.O.X.H A _ B M y 8 0 ",
": q o * x.c.g f a a X.v.z.7.^ j a x } m.C.|.C.I.n.n.n.n.n.n.n.K.n.K.n.K.n.K.n.n.n.m.m.D.c.H j = 7 ! D.|.i.{ s s s Z M.x.* o 2 2 ",
"q U 2 h H *.*.S &.&.X. .v v Q Q { @.+.P. X.X]. X'.(.'.(.^.).Q.Q.Q.).~.).).Q.(.^.'.U.U.U.n.q.X.v F 7.m.n...@.*.g g *._ H z 9 I 2 ",
"q q 2 b p s =.B.$Xc. .s s v 8.e.=.+.:.Q..X].].].!.!.!.!.R.~.~.~.~.<.<.<.~.<.R.!.Q.R.^.^.G.F.+.+.9.t.r.4.s @.@XN.V.;.p p h 9 2 U ",
"U 1 6 7 m S XX*X;X*XJ , a C 6.XXXX{.J.G.]..X].].R.T.R.T.,.R.<.R.<.,.,.,.,.,.,.,.R.,.^.T.W.W.L._.a.k.r.Z f L $X9X;X@X&.n 7 6 2 U ",
"2 < u r _ B.*XuXtX;XK f g c.|.,X.X$X}.J.^.].].W.T.T.T.T.T.T.R.R.,.,.T.,.,.T.,.,.^.R.R.W.E./.(./.g.s.b.Z f K *XuXuX*XS._ r I 3 2 ",
"6 8 % > x.8X*XyXyXqX;., G S.XX7X7X7X.XU.:.G.L.L.J.L.L.L.^.L.(.L.L.J.J.J.G.^.J.W.W.(.(.(._._._.g.g.s.b.g = K qXuXgX*X6Xx.+ q q q ",
"6 6 ; ( _ _ c.M.8XqX_ a S I.,X7X7X7X.X|.F.H.L.'.L.(.L.U.L.(.(.(.(.L.U.(.L.L.(.(.(.(.(./. Xg. X Xg.s.=.g , ;.yXqXm.c.c.) u : : q ",
"r   $ i e & b _ OX6XM.p  .I..X7X;X.X.X'.E.g././.(.(._._.(.(._._.(._.(.(.(./.).)././.).)._.`./._._.i.w.X.p c.6XS.G h , > u -   0 ",
"AX# r @ # %   r ' Z.c. .O.J.'..X.X.X`./.Q.Q./.!.)./.(.(.(.(.)./.)._./././.Q.Q.Q.Q.Q.Q.]./././.W.E.H.:.O.Z l.Z.] r . % . # r # mX",
"3X$ > @ u X 1 w E G 6.n.H.W.R.^.^.J.J.T.R.R.,.R.R.T.T.^.T.T.T.Q.Q.Q.R.R.R.T.R.>.T.,.T.>.W.T.J.^.W.Q.H.w.q.5.! u q : O 0 . = = gX",
"MXMXsXAXVXO u X 6 z 5.|.'.Q.R.>.>.>.>.:.T.,.R.R.R.T.T.J.T.T.T.T.Q.R.Q.R.R.T.T.,.>.>.>.>.>.T.T.T.T.'.!.p.a.} * 1 : [ O ZXAXhXgXhX",
"xXwXxXnXZX1 8 6 4 p | |.'.H./.(.W.H.G.W.^.L.G.W.p.Q.'.Q.G.H.G.G.W.p. XE.g.`.E.'.:.J.,.J.H.W.W.E.W.W./.G.$.X.p * w 3 : ZXSXsXaXyX",
"vXzXwXi e @ y 4 z x | K.P.i._._.Q.E.G.G.G.G.G.W.).!.!.`.'.W.G.G._.p._.s._.P.p.W.E.G.^.T.T.W./.(.).G.H.H.i.X.x z 8 t 3 t w 3XBXqX",
"rXxXBX, 8 t 8 6 k c F 4.9.0.K.P.Q.~.R.,.H.,.R.R.~.%.<.~.~.,.H.W.L.+.0.o.o.o.+.i.G.W.^.T.R.W.(.(.Q.H.#.H.F.w.} n 9 1 t 1 # mXaX9X",
"cX8XMX> w 8 3 I R _ 8.8.q.q.n.K.E.~.R.R.,.T.R.R.,.<.~.~.,.,.,.G.K.b.q...4.6.w.b.P.W.W.!.!.W.E.(.E.#.#.H.L.I.6.~ M 3 2 0 > dXqXNX",
"eXaXpX& < 1 2 I :X2X2X,X,X,X>Xn.i.R.^.^.G.J.L.J.G.'.Q.T.G.^.:.$.m.>XjX6X6XjX6XC.w.H.E.!.E.Q.(.(.E.H.E.E.G.K.l.^ M 8 1 0 & pXcXyX",
"eXNXaXr u 3 8 I 2XJXJXJXHXDX6X5.w.F.I.I.Y.I.I.Y.U.U.L.F.U.U.b.X.m.hXHXHXIXHXhX|.O.p.f.~.~.E.L.L.(./.E.E.G.F.v.5.7 6 < u i pXcX9X",
"gXaX0X& 8 X 2 ` 4XIXPXPXPXHX<XC Z ..6.6.5...l.6.l.....l.6...z.S.6XHXPXLXLXLXFXA.| i.f.`.~./.L.G.H.f.f.E.L.K.v.~ b 4 X e > 1XeXcX",
"rXNXmX& e 2 3 I 4XPXPXIXPXHXOXm a x n p f b n n j p x D p a c.qXFXPXPXKXKXLXGX,X| i.h.`.`.W.G.H.p.p.p.p.E.P.v.~ h 6 e 0 > mXeX9X",
"BXwXpX, >   1 ( 4XKXPXPXIXMXOXf C G G m L L m f L m m L m m M.1XFXLXIXKXKXKXUXS.| i.f.h.`.).H.F.$.$.$.f.H.L.q.} h o 6 w # mXeXbX",
"1XeXpX$ > > < u lXPXKXIX1X] oX@X+XOX+XoXoXoXoXoXOXOXoXOX+XOXoX] oXGXKXKXKXKXIX>X4.i.g.`.`.).H.H.$.$.$.#.E.L.q.H n 4 u w . MXwXeX",
"mXmXbX, r .   ) 4XKXIXSXoXf ;.tXtXtXtXtX9XxXvXzXzXvXvX;XtXtX@XL _ kXUXKXIXPXJXS.| w._.`.~.E.G.p.$.p.#.#.E.P.w.3.l . o 6 > nXmXeX",
"nXpX3X& $ @ 1 P 4XKXZXoXoXM.@X$X$X$X-XvXvXvXvXvX=XvXvX&X$X&X@XV.oX] 5XIXPXPXHX>X| i._.`./.!.H.G.H.p.p.E.(.P.w.} z V I 1 w SXpXpX",
"3Xi r r r . o ) VXUX5Xr M.rX&X-.2.1.%X-X=X=X=X=X=X=X-X#X-.-.#X;XOX) ' sXJXJXDX,X4.i.L./.!.W.W.W.L.L.E./._.P.q.} k 4 3 t < # $ mX",
"ZX6 % o & r 9 6 :X5X' b M.tX;X1.2.1.#X%X-X=X=X=X=X%X#X1.2.2.1.-X+XB N S.fXhXjXy.9.i.L.(.W.Q.W.Q.(.(.(.E.E.H.O.F z Y 8 3 3 e e sX",
"VX2 1 6 y 7 4 I ` ` E B V.uX$X1.[.#X[.1.%X=X=X=X%X1.1.#X1.2.2.$XB.B n ~ D.D.y.t.r.P.L.G.W.W.W.W.(._.E.E.H.i.O.F z 6 3 2 t t r oX",
"I X y 6 7 M 9 y E E 9 M S.uX%XJ.[.}.[.2.#X-X=X=X%X#X[.$X1.-.-.[.+Xm a v 8.{ 4.j.K.P._.W.W.!.E.T.W.W.E.E.P.i.o.{ F l R E 6 1   0 ",
"w @ 7 k ! ^ l k W ^ N b S.uX;X2.}.%X1.2.#X-X=X=X-X1.1.$X1.g g @XM.L a X.9.9.d.s. Xg.g. X/.H.W.:.,.,.,.H.P.|.s.i.i.b.v. .b 6 3 q ",
"6 4 k c 7.8.l l 8.z.n b S.qX}.2.{.#X1.2.}.-X=X=X%X1.1.$XN.g g oXV.A p X.q.a.a.k.s.g.j.g.p.E.^.:.,.<.!.G.P.P.P.P.E.E.F.=.Z r 2 q ",
"6 7 W 5.D.e.C j 7.D.n d M.*X-.&.-.$X$X-.#X-X=X=X%X1.#X$X-.f g M.S.S p v 4.9.u.u.u.0.0.o.o.H.(.W.,.R.W.P.K.P._._.`.Q.^.Y.*.B i 0 ",
"7 b 3.e.y.e.x x 6.m.Z f c.B.*.f &.V.$X-.#X=XuX=X&X1.N.@X;.f g Z.S.A p F 6.6.8.e.7.7.4.9.q.b.F.H.T.R.(.i.i.a.P.`.Q.R.T.J.n.c.N 6 ",
"* j 6.r.a.9.x x 6.m.S s M.*XK a f J K J V.;XtX;X@X;.J K A = m <XS.D N S.iXiX2XiX2X2X2XqX6XC...b.G.^.L.i.0.w.k.f.%.#.T.J.I.c.A = ",
"* c 4.r.a.9.s d =.b.@.s l.*XK , a f f f *.+X6X;XV.g f f f a B Z.Z.G G 2XHXPXJXGXIXUXGXIXDXS.D  .Y.L.P.i.o.o.0.$.#.#.J.U.I.l.C a ",
"7 j 7.t.j.9.x d ..F...g *.c.K L J J &.g -.{.&X&X-.&.g g J J *.c.x.G / <XCXSXVXVXVXVXVXsX4X_ b 5.K.^.P.i.0.o.o.$.i.i.F.I.m.l.x a ",
"% M 7.y.y.q.d d X.I.F.X.X.A K OX@X$X-.-.$X&X$X$X[.$X#X-.V.B.V. .G N R _ / ) / ` ` ` ` ` ` M h ~ Y.W.(.P.d.o.u.o.w.w.b.m.z.5.j z ",
"< r D 7.C.v h b ..I.K.q.{ Z x.Z.@XM.V.V.N.N.N.B.N.V.V.B.B.+XM.d j W Q c z l Y Y 9 9 9 Y k 5 5 5.Y.W.f.H.i.0.0.4.9.6.F z._ / z 9 ",
"; u l l T l r b ..|.U.F.w.X.~ ! L L J L L J J J J S K K G L L b D Q Q Q T T T T T Y Y Y R l l z.F.^.E.E.p.0.t.4.v Q l Y R E Y 9 ",
": w 6 5 5 k 6 r 6.U.U.P.K.q.F z * b k h h h 7 z z h k h 5 k R R R W / T T T T T T R W Y R k 5 H F.].R.p.d.d.r.4.l z 9 4 8 9 8 8 ",
"; ; 6 9 9 6 X r 6.|.(.P.P.w. .a z l R l l D R l W l Y Y Y R Y Y k k l l l T T l Y Y Y Y M k 7 D :.^.f.#.i.i.r.3.l 4 8 2 8 2 4 8 ",
"$ - w 4 8 8 2 V 6.|.(.G.G.F.O.s v Q 3.Q Q 3.8.T 3.Q 3.8.8.T Y Y y y 9 9 Y Y k k 9 9 6 & r r r l.b.^.T.:.p.i.e.3.W 6 2 1 3 6 6 & ",
"pX3X4XP 2 2 2 4 4. X'.^.'.F.w.| v v c c c v v c c c c c Y T Q >XZ.5X:X:X:X:X:X:X:X:X5XoXZ.) , D b.].T.f.p.i.r.F * 6 w 0 u 4XsXsX",
"wXpX3X1 3 q t r 6.G.J.^.^.Y.Y.b.Q Y h h k h z h b k h 5 5 k ' fXGXUXGXUXGXUXFXUXGXGXGXFXAXZ.k S I.^.H.f.p.w.q.F h 6 0 ; - 3XaX0X",
"qX0XsXe w 3 w y 4.F.i.H.^.>.J.I.5.D j N D N n N b N n n N l ' iXDXDXDXDXDXFXFXFXFXAXFXFXhXS.C 6.K.G.p.p.i.0.9.H b 6 @ e - pXqXeX",
"gX8X0X, # : 0 0 N T t.g. XQ.H.J.K.w.m.v.v.l.v.*.=.=.=.q.q.m.m.C.>X>X>X>XA.A.A.A.C.A.A.C.C.b.m.K.(.p.p.p.w.4.v l 7 < : ; > MXqX9X",
"rX8XgXpX1Xe O t 9 T 7.j. Xg.J.>.H.p.P.P.F.Y.Y.Y.Y.Y.J.Y.P.K.a.t.u.8.u.4.3.| | 4.4.4.9.9.0.w.F.(.(.f.p.a.w.} l 5 t 1 u kX1XwX*XyX",
"eXaX8XpX3X# O O 4 k 4.j._.).G.T.(.f.g.P.P.P.P.P.p.p.p._.g.g.j.d.u.u.d.u.u.u.u.0.t.u.0.t.p.s.).`.p.p.i.w.v.Q h 4 4 2 O 4X0XzXBX;X",
"qXgX0XaXpXi u 1 6 k Q r.P.W.H.J.H.w.0.w.r.9.r.0.w.i.o.0.w.r.t.r.t.k.t.k.t.d.r.r.y.t.t.j._._.f.f.p.$.w.q.6.G k 6 w w + AXmX<XyX9X",
"wXwXqXBXfX. # 0 w 9 c 3.0.a.G.H.=.Z Z F F H Q c 3.} F Z D D G ! T Q F W F D ! Q T Q 3.q.K.P.E.p.f.$.w...G B r 1 o w r iXdXqXyXqX",
"NX8X0X0X<Xb e ; < 6 h x | i.E.Y...p a j k k k k 9 b b b , , , r 9 9 , r r r y 9 9 k c 3.b.P.).~.f.p.+.} b r 0 1 u w & <XBX8X*XcX",
"0XwXgXqXBXfX1Xe + < * z } w.H.L...g d m b 6 8 1 1 1 % + > ; ; - - - - + - + < 1 6 6 h F q.F.R.~.`.g.w.F h 6 0 0 < 4XdXhXgXeXeX8X",
"wXeXqX8XyX0XsX+ 0 0 % 7 F q.P.P.b... .~ R 9 8 2 t < + ; ; - - - - - - - + ; 0 < 2 6 k H v.Y.W.`.h.`.r.F 7 6 0 q 6 AXfXqXgXqXzXrX",
"0XwXaXeX8XaXMX> i ; + r D l.K._.p.i.d.e.^ k 9 8 t w kX3XnXmXwXbXwXbXaXdXdXfX6 6 4 y 4 ! 6.O.'.`.h.g.a.F 7 6 0 1 % fXhXqXqXyXwXwX",
"aXqXrXqXaXaX0X$ - O O e N C 4._.h.h.d.w.3.k 4 8 1 0 sXMXwXeXeXNXwXaXeXhXFXdXb % 1 6 * N Z O.U.E.h.h.r.} 5 1 t t y dXqXqXqXeXwXwX",
"eXwX0XrXgXeX0XB > i u + & j 3.|.h.p.a.r.Q z 8 8 < i nXmXbXzXrXeXNXNXeXaXqX1X7 @ u t 6 * a | U.'. Xg.9.8.k 8 6 @ & aXgXqXeXrX1XzX",
"qXaXwXeXeXeXbX<X1Xe : O 9 h v y.s.f.a.e.Q k 4 t @ ; 3XwXbXzX9X9XwXbXaXNXBXFXfXAX@ X e 7 z 6.|.|. Xa.e.^ k 8 8 1 & dXgXqXcXeX1XxX",
"0XaXeXxX9XxXcXBXAXr e 0 @ r ! 7.r.w.r.7.Q k 4 6 r r pXeXzX9XcXvXzXbXgXqXqXqXfXAX; < r 4 z 4.C.K.b.m.D.! 8 2 I 9 r mXeX;XyXNXwXwX",
"qXeXwXxXxXzXeXgXaX$ i 0 3 6 ! ^ 3.} Q / R 9 6 6 . r pXNXMX;XxX9XwXzXeXyXyXgXaXdX> i 1 @ 7 D 7.e...*.! M 9 8 4 3 $ 0XNXcX9XeXwXwX",
"aXeXwXxXxXzXeXqXFX= ; < u + 4 M b b M 9 I 8 8 6 > r 0XxXxXxXzXxXwXeXyXyXcXyXaX3X- [ O : P y b j n f * t I 8 3 u V 8XzXNX9XrXeXaX",
"gXeXzXMX1XzXgXgXaXfXSX0 X t y 6 6 6 < < 2 2 0 w AX1XAXxXxXxXMXxXzXcXyXyXuXqXbXMXkXlX[ : q O 6 * $ , & 6 8 3 I 4X3XBX8XyXeXeXgXaX"
};
