/* XPM */
static char *Cloud_11711466869[] = {
/* columns rows colors chars-per-pixel */
"32 23 5 1 ",
"  c None",
". c #2E222F",
"X c #9BABB2",
"o c #C7DCD0",
"O c white",
/* pixels */
"                   ....         ",
"                 ..oooo.        ",
"             ....ooOOOOo..      ",
"           ..OOOOOOOOOOOoo.     ",
"          .OOOOOOOOOOOOOOOO..   ",
"       ...ooOOOOOOOOOOOOOOOOO.  ",
"      .ooooooOOOOOOOOOOOOOOOO.  ",
"     .ooOOOOooOOOOOOOOOOOOOOOO. ",
"    .oOOOOOOOoOOOOOOOOOOOOOOOO. ",
"    .OOOOOOOOOOOOOOOOOOOOOOOOOO.",
"   .OOOOOOOOOOOOOOoOOOOOOOoOOOO.",
"  .OOOOOOOOOOOOOOOOooOOOOooOOOo.",
" .OOOOOOOOOOOOOOOOOOooooooOOOOo.",
".oOOOOOOOOOOOOOOOOOOOooooOOOOOo.",
".oOOOOOOOOoOOOOOOOOOOOOOOOOOOo. ",
".oOOOOOOOOoOOOOOOOOOOOOOOOOOo.  ",
".ooOOOOOOoooOOOOOOOOOOOOOOOoo.  ",
" .XoOOOOOoXoOOOOOOOOOOOOOOOo.   ",
"  .ooOOOooXooOOOOOoOOOOOOOoo.   ",
"   .oooooXX.XooOOooooOOOOoo.    ",
"    .oXXXX. ..ooo..ooooooo.     ",
"     .....    ...  ..XXX..      ",
"                     ...        "
};
