/* XPM */
static char *Door_closed1711466868[] = {
/* columns rows colors chars-per-pixel */
"5 23 6 1 ",
"  c None",
". c #2E222F",
"X c #CD683D",
"o c #E6904E",
"O c #9BABB2",
"+ c #C7DCD0",
/* pixels */
"  .  ",
".o.  ",
".o.  ",
".o.  ",
".o.  ",
".o.  ",
".o.  ",
".o.  ",
".o.  ",
".o.  ",
".o.. ",
".o.+.",
".oX+.",
".o.O.",
".o.. ",
".o.  ",
".o.  ",
".o.  ",
".o.  ",
".o.  ",
".o.  ",
".X.  ",
".X.  "
};
