/* XPM */
static char *Elevator_closed1711466868[] = {
/* columns rows colors chars-per-pixel */
"26 23 5 1 ",
"  c #2E222F",
". c #3E3546",
"X c #625565",
"o c #9BABB2",
"O c #C7DCD0",
/* pixels */
"                          ",
" XXXXXXXXXXXXXXXXXXXXXXXX ",
" XXXXXXXXX......XXXXXXXXX ",
" XXXXXXXXX......XXXXXXXXX ",
" XXXXXXXXX......XXXXXXXXX ",
" XXXXXXXXXXXXXXXXXXXXXXXX ",
" XXooooooooo..oooooooooXX ",
" XXooooooooo..oooooooooXX ",
" XXOOOOOOOOOXXOOOOOOOOOXX ",
" XXOOOOOOOOOXXOOOOOOOOOXX ",
" XXOOOOOOOOOXXOOOOOOOOOXX ",
" XXOOOOOOOOOXXOOOOOOOOOXX ",
" XXOOOOOOOOOXXOOOOOOOOOXX ",
" XXOOOOOOOOOXXOOOOOOOOOXX ",
" XXOOOOOOOOOXXOOOOOOOOOXX ",
" XXOOOOOOOOOXXOOOOOOOOOXX ",
" XXOOOOOOOOOXXOOOOOOOOOXX ",
" XXOOOOOOOOOXXOOOOOOOOOXX ",
" XXOOOOOOOOOXXOOOOOOOOOXX ",
" XXOOOOOOOOOXXOOOOOOOOOXX ",
" XXOOOOOOOOOXXOOOOOOOOOXX ",
" ..ooooooooo..ooooooooo.. ",
" ..ooooooooo..ooooooooo.. "
};
