/* XPM */
static char *Female1711466868[] = {
/* columns rows colors chars-per-pixel */
"64 48 12 1 ",
"  c None",
". c #2E222F",
"X c #165A4C",
"o c #625565",
"O c #AC6C3B",
"+ c #CD683D",
"@ c #239063",
"# c #E6904E",
"$ c #407FBB",
"% c #315DCD",
"& c #4D9BE6",
"* c #8FD3FF",
/* pixels */
"                                                                ",
"                     .......                         .......    ",
"     .......        .&&&*&&*.        .......        .&&*&&*&.   ",
"    .&&*&&*&.      .$&&&&*&&*.      .&&*&&*&.      .&&&&*&&*&.  ",
"   .&&&&*&&*&.    .$$$&&&&&&&.     .&&&&*&&*&.    .$&&&&&&&&&.  ",
"  .$&&&&&&&&&.    .$$$$OOOOO&.    .$&&&&&&&&&.    .$$&OOOOO&&.  ",
"  .$$&OOOOO&&.    .$$$o.###.o.    .$$&OOOOO&&.    .$$o.###.o&.  ",
"  .$$o.###.o&.    .$$$#.###.$.    .$$o.###.o&.    .$$#.###.#$.  ",
"  .$$#.###.#$.    .$$$######$.    .$$#.###.#$.    .$$#######$.  ",
"  .$$#######$.    .$$$#####$$.    .$$#######$.    .$$######$$.  ",
"  .$$######$$.     .$..X++...     .$$######$$.    .$..X++X...   ",
"  .$..X++X...       ..##@@.       .$..X++X...      ..#@@@##.    ",
"   .##@@@@#.         .+#@@.        .##@@@@#.        .#@@@#+.    ",
"   .#+@@@@#.          .%%%.        .#+@@@@#.         .%%%%.     ",
"    ..%%%%.            .%.          ..%%%%.           ..%.      ",
"     .%..%.                          .%..%.                     ",
"                                                                ",
"                                                                ",
"     .......                                                    ",
"    .&&*&&*&.        .......         .......                    ",
"   .&&&&*&&*&.      .&&*&&*&.       .&&*&&*&.                   ",
"  .$&&&&&&&&&.     .&&&&*&&*&.     .&&&&*&&*&.                  ",
"  .$$&OOOOO&&.    .$&&&&&&&&&.    .$&&&&&&&&&.                  ",
"  .$$o.###.o&.    .$$&OOOOO&&.    .$$&OOOOO&&.                  ",
"  .$$#.###.#$.    .$$o.###.o&.    .$$o.###.o&.                  ",
"  .$$#######$.    .$$#.###.#$.    .$$#.###.#$.                  ",
"  .$$######$$.    .$$#######$.    .$$#######$.                  ",
"  .$..X++X...     .$$######$$.    .$$######$$.                  ",
"   .##@@@@#.      .$##@@@@#..     .$..X++X...                   ",
"   .#+@@@@#.       .#+@@@@#.       .##@@@@#.                    ",
"    ..%%%%.         ..%%%%.        .#+@@@@#.                    ",
"     .%..%.          .%..%.         ..%..%.                     ",
"                                                                ",
"                     .......                                    ",
"     .......        .&&*&&*&.                                   ",
"    .&&*&&*&.      .&&&&*&&*&.                                  ",
"   .&&&&*&&*&.    .$&&&&&&&&&.                                  ",
"  .$&&&&&&&&&.    .$$&OOOOO&&.                                  ",
"  .$$&OOOOO&&.    .$$O#####O&.                                  ",
"  .$$O#####O&.    .$$o.###.o$.                                  ",
"  .$$o.###.o$.    .$$#######$.                                  ",
"  .$$#######$.    .$$######$$.                                  ",
"  .$$######$$.    .$#.X++X#..                                   ",
"  .$..X++X...     .#+.@@@@+#.                                   ",
"   .##@@@@#.       ...@@@@..                                    ",
"   .#+@@@@#.         .%%%%.                                     ",
"    ..%%%%.         .%....%.                                    ",
"     .%..%.                                                     "
};
