/* XPM */
static char *House_largel_red1711466869[] = {
/* columns rows colors chars-per-pixel */
"95 56 13 1 ",
"  c None",
". c #2E222F",
"X c #A63939",
"o c #C03E3E",
"O c #E83B3B",
"+ c #9E4539",
"@ c #C24343",
"# c #FD5959",
"$ c #D56363",
"% c #F86D6D",
"& c #B1BABE",
"* c #CAD2D6",
"= c #E2E7E9",
/* pixels */
"                       .................................................                       ",
"                      .#################################################.                      ",
"                     .@@##@@##@@##@@##@@##@@##@@##@@##@@##@@##@@##@@###oo.                     ",
"                    .@OO@@OO@@OO@@OO@@OO@@OO@@OO@@OO@@OO@@OO@@OO@@OO@@oooo.                    ",
"                   .#################################################ooXXoo.                   ",
"                  .@@##@@##@@##@@##@@##@@##@@##@@##@@##@@##@@##@@##@ooXXXXoo.                  ",
"                 .@OO@@OO@@OO@@OO@@OO@@OO@@OO@@OO@@OO@@OO@@OO@@OO@@ooXXoXXXoo.                 ",
"                .#################################################ooXXoooXXXoo.                ",
"               .@@##@@##@@##@@##@@##@@##@@##@@##@@##@@##@@##@@##@ooXXoooooXXXoo.               ",
"              .@OO@@OO@@OO@@OO@@OO@@OO@@OO@@OO@@OO@@OO@@OO@@OO@@ooXXoooooooXXXoo.              ",
"             .#################################################ooXXoooooooooXXXoo.             ",
"            .@@##@@##@@##@@##@@##@@##@@##@@##@@##@@##@@##@@##@ooXXoooooooooooXXXoo.            ",
"           .@OO@@OO@@OO@@OO@@OO@@OO@@OO@@OO@@OO@@OO@@OO@@OO@@ooXXoooooooooooooXXXoo.           ",
"          .#################################################ooXXoooooooooooooooXXXoo.          ",
"         .@@##@@##@@##@@##@@##@@##@@##@@##@@##@@##@@##@@##@ooXXoooooooooooooooooXXXoo.         ",
"        .@OO@@OO@@OO@@OO@@OO@@OO@@OO@@OO@@OO@@OO@@OO@@OO@@ooXXoooooooooooooooooooXXXoo.        ",
"       .#################################################ooXXoooooooooooooooooooooXXXoo.       ",
"      .@@##@@##@@##@@##@@##@@##@@##@@##@@##@@##@@##@@##@ooXXoooooooooooooooooooooooXXXoo.      ",
"     .@OO@@OO@@OO@@OO@@OO@@OO@@OO@@OO@@OO@@OO@@OO@@OO@@ooXXoooooooooooooooooooooooooXXXoo.     ",
"    .#################################################ooXXoooooooooooooooooooooooooooXXXoo.    ",
"   .@@##@@##@@##@@##@@##@@##@@##@@##@@##@@##@@##@@##@ooXXoooooooooooooooooooooooooooooXXXoo.   ",
"  .@OO@@OO@@OO@@OO@@OO@@OO@@OO@@OO@@OO@@OO@@OO@@OO@@ooXXoooooooooooooooooooooooooooooooXXXoo.  ",
" .#################################################ooXXoooooooooooooooooooooooooooooooooXXXoo. ",
".@@##@@##@@##@@##@@##@@##@@##@@##@@##@@##@@##@@##@ooXXoooooooooooooooooooooooooooooooooooXXXoo.",
"........$$$$$$$$$$$$$$$$$$$$$$$$$$$$$$$$$$$$$$$$$$$$$$$$$$$$$$$$$$$$$$$$$$$$$$$$$$$$$$$$.......",
"       .$$$$$$$$$$$$$$$$$$$$$$$$$$$$$$$$$$$$$$$$$$$$$$$$$$$$$$$$$$$$$$$$$$$$$$$$$$$$$$$$.      ",
"       .$$$$$$$$$$$$$$$$$$$$$$$$$$$$$$$$$$$$$$$$$$$$$$$$$$$$$$$$$$$$$$$$$$$$$$$$$$$$$$$$.      ",
"       .%%%%%%%%%%%%%%%%%%%%%%%%%%%%%%%%%%%%%%%%%%%%%%%%$$$$$$$$$$$$$$$$$$$$$$$$$$$$$$$$.      ",
"       .%%%%%%%%%%%%%%%%%%%%%%%%%%%%%%%%%%%%%%%%%%%%%%%%$$$$$$$$$$$$$$$$$$$$$$$$$$$$$$$$.      ",
"       .%%%%%%%%%%%%%%%%%%%%%%%%%%%%%%%%%%%%%%%%%%%%%%%%$$$$$$$$$$$$$$$$$$$$$$$$$$$$$$$$.      ",
"       .%%%%%%%%%%%%%%%%%%%%%%%%%%%%%%%%%%%%%%%%%%%%%%%%$$$$$$$$$$$$$$$$$$$$$$$$$$$$$$$$.      ",
"       .%%%%%%%%%%%%%%%%%%%%%%%%%%%%%%%%%%%%%%%%%%%%%%%%$$$$$$$$$$$$$$$$$$$$$$$$$$$$$$$$.      ",
"       .%%%%%%%%%%%%%%%%%%%%%%%%%%%%%%%%%%%%%%%%%%%%%%%%$$$$$$$$$$$$$$$$$$$$$$$$$$$$$$$$.      ",
"       .%%%%%%%%%%%%%%%%%%%%%%%%%%%%%%%%%%%%%%%%%%%%%%%%$$$$$$$$$$$$$$$$$$$$$$$$$$$$$$$$.      ",
"       .%%%%%%%%%%%%%%%%%%%%%%%%%%%%%%%%%%%%%%%%%%%%%%%%$$$$$$$$$$$$$$$$$$$$$$$$$$$$$$$$.      ",
"       .%%%%%%%%%%%%%%%%%%%%%%%%%%%%%%%%%%%%%%%%%%%%%%%%$$$$$$$$$$$$$$$$$$$$$$$$$$$$$$$$.      ",
"       .%%%%%%%%%%%%%%%%%%%%%%%%%%%%%%%%%%%%%%%%%%%%%%%%$$$$$$$$$$$$$$$$$$$$$$$$$$$$$$$$.      ",
"       .%%%%%%%%%%%%%%%%%%%%%%%%%%%%%%%%%%%%%%%%%%%%%%%%$$$$$$$$$$$$$$$$$$$$$$$$$$$$$$$$.      ",
"       .%%%%%%%%%%%%%%%%%%%%%%%%%%%%%%%%%%%%%%%%%%%%%%%%$$$$$$$$$$$$$$$$$$$$$$$$$$$$$$$$.      ",
"       .%%%%%%%%%%%%%%%%%%%%%%%%%%%%%%%%%%%%%%%%%%%%%%%%$$$$$$$$$$$$$$$$$$$$$$$$$$$$$$$$.      ",
"       .%%%%%&&&&&&&&&&%%%%%%%%%%%%%%%%%%&&&&&&&&&&%%%%%$$$$$$$$$$$$$$$$$$$$$$$$$$$$$$$$.      ",
"       .%%%%%*****=****%%%%%%%%%%%%%%%%%%*****=****%%%%%$$$$$$$$$$$$$$$$$$$$$$$$$$$$$$$$.      ",
"       .%%%%%******=***%%%%%%%%%%%%%%%%%%******=***%%%%%$$$$$$$$$$$$$$$$$$$$$$$$$$$$$$$$.      ",
"       .%%%%%*******=**%%%%++++++++++%%%%*******=**%%%%%$$$$$$$$$$$$$$$$$$$$$$$$$$$$$$$$.      ",
"       .%%%%%********=*%%%%++++++++++%%%%********=*%%%%%$$$$$$$$$$$$$$$$$$$$$$$$$$$$$$$$.      ",
"       .%%%%%**********%%%%++++++++++%%%%**********%%%%%$$$$$$$$$$$$$$$$$$$$$$$$$$$$$$$$.      ",
"       .%%%%%**********%%%%++++++++++%%%%**********%%%%%$$$$$$$$$$$$$$$$$$$$$$$$$$$$$$$$.      ",
"       .%%%%%**********%%%%++++++++++%%%%**********%%%%%$$$$$$$$$$$$$$$$$$$$$$$$$$$$$$$$.      ",
"       .%%%%%*=********%%%%++++++++++%%%%*=********%%%%%$$$$$$$$$$$$$$$$$$$$$$$$$$$$$$$$.      ",
"       .%%%%%**=*******%%%%++++++++++%%%%**=*******%%%%%$$$$$$$$$$$$$$$$$$$$$$$$$$$$$$$$.      ",
"       .%%%%%***=******%%%%++++++++++%%%%***=******%%%%%$$$$$$$$$$$$$$$$$$$$$$$$$$$$$$$$.      ",
"       .%%%%%&&&&&&&&&&%%%%++++++++++%%%%&&&&&&&&&&%%%%%$$$$$$$$$$$$$$$$$$$$$$$$$$$$$$$$.      ",
"       .%%%%%$$$$$$$$$$%%%%++++++++++%%%%$$$$$$$$$$%%%%%$$$$$$$$$$$$$$$$$$$$$$$$$$$$$$$$.      ",
"       .%%%%%%%%%%%%%%%%%%%++++++++++%%%%%%%%%%%%%%%%%%%$$$$$$$$$$$$$$$$$$$$$$$$$$$$$$$$.      ",
"       .%%%%%%%%%%%%%%%%%%%++++++++++%%%%%%%%%%%%%%%%%%%$$$$$$$$$$$$$$$$$$$$$$$$$$$$$$$$.      ",
"       .%%%%%%%%%%%%%%%%%%%++++++++++%%%%%%%%%%%%%%%%%%%$$$$$$$$$$$$$$$$$$$$$$$$$$$$$$$$.      "
};
