/* XPM */
static char *House_small_beige1711466869[] = {
/* columns rows colors chars-per-pixel */
"79 40 13 1 ",
"  c None",
". c #2E222F",
"X c #9E4539",
"o c #B05555",
"O c #C66161",
"+ c #CB7979",
"@ c #E17171",
"# c #B1BABE",
"$ c #EA8B8B",
"% c #FCA790",
"& c #FDCBB0",
"* c #CAD2D6",
"= c #E2E7E9",
/* pixels */
"                       .................................                       ",
"                      .$$$$$$$$$$$$$$$$$$$$$$$$$$$$$$$$$.                      ",
"                     .++$$++$$++$$++$$++$$++$$++$$++$$$OO.                     ",
"                    .+@@++@@++@@++@@++@@++@@++@@++@@++OOOO.                    ",
"                   .$$$$$$$$$$$$$$$$$$$$$$$$$$$$$$$$$OOooOO.                   ",
"                  .++$$++$$++$$++$$++$$++$$++$$++$$+OOooooOO.                  ",
"                 .+@@++@@++@@++@@++@@++@@++@@++@@++OOooOoooOO.                 ",
"                .$$$$$$$$$$$$$$$$$$$$$$$$$$$$$$$$$OOooOOOoooOO.                ",
"               .++$$++$$++$$++$$++$$++$$++$$++$$+OOooOOOOOoooOO.               ",
"              .+@@++@@++@@++@@++@@++@@++@@++@@++OOooOOOOOOOoooOO.              ",
"             .$$$$$$$$$$$$$$$$$$$$$$$$$$$$$$$$$OOooOOOOOOOOOoooOO.             ",
"            .++$$++$$++$$++$$++$$++$$++$$++$$+OOooOOOOOOOOOOOoooOO.            ",
"           .+@@++@@++@@++@@++@@++@@++@@++@@++OOooOOOOOOOOOOOOOoooOO.           ",
"          .$$$$$$$$$$$$$$$$$$$$$$$$$$$$$$$$$OOooOOOOOOOOOOOOOOOoooOO.          ",
"         .++$$++$$++$$++$$++$$++$$++$$++$$+OOooOOOOOOOOOOOOOOOOOoooOO.         ",
"        .+@@++@@++@@++@@++@@++@@++@@++@@++OOooOOOOOOOOOOOOOOOOOOOoooOO.        ",
"       .$$$$$$$$$$$$$$$$$$$$$$$$$$$$$$$$$OOooOOOOOOOOOOOOOOOOOOOOOoooOO.       ",
"      .++$$++$$++$$++$$++$$++$$++$$++$$+OOooOOOOOOOOOOOOOOOOOOOOOOOoooOO.      ",
"     .+@@++@@++@@++@@++@@++@@++@@++@@++OOooOOOOOOOOOOOOOOOOOOOOOOOOOoooOO.     ",
"    .$$$$$$$$$$$$$$$$$$$$$$$$$$$$$$$$$OOooOOOOOOOOOOOOOOOOOOOOOOOOOOOoooOO.    ",
"   .++$$++$$++$$++$$++$$++$$++$$++$$+OOooOOOOOOOOOOOOOOOOOOOOOOOOOOOOOoooOO.   ",
"  .+@@++@@++@@++@@++@@++@@++@@++@@++OOooOOOOOOOOOOOOOOOOOOOOOOOOOOOOOOOoooOO.  ",
" .$$$$$$$$$$$$$$$$$$$$$$$$$$$$$$$$$OOooOOOOOOOOOOOOOOOOOOOOOOOOOOOOOOOOOoooOO. ",
".++$$++$$++$$++$$++$$++$$++$$++$$+OOooOOOOOOOOOOOOOOOOOOOOOOOOOOOOOOOOOOOoooOO.",
"........%%%%%%%%%%%%%%%%%%%%%%%%%%%%%%%%%%%%%%%%%%%%%%%%%%%%%%%%%%%%%%%%.......",
"       .&&&&&&&&&&&&&&&&&&&&&&&&&&&&&&&&%%%%%%%%%%%%%%%%%%%%%%%%%%%%%%%%.      ",
"       .&&&&&&&&&&&&&&&&&&&&&&&&&&&&&&&&%%%%%%%%%%%%%%%%%%%%%%%%%%%%%%%%.      ",
"       .&&&&********&&&&&&&&&&&&&&&&&&&&%%%%%%%%%%%%%%%%%%%XXXXXXXX%%%%%.      ",
"       .&&&&****=***&&&&&&&&&&&&&&&&&&&&%%%%%%%%%%%%%%%%%%%XXXXXXXX%%%%%.      ",
"       .&&&&*****=**&&&&&&&&&&&&&&&&&&&&%%%%%%%%%%%%%%%%%%%XXXXXXXX%%%%%.      ",
"       .&&&&******=*&&&&&&&&&&&&&&&&&&&&%%%%%%%%%%%%%%%%%%%XXXXXXXX%%%%%.      ",
"       .&&&&********&&&&&&&&&&&&&&&&&&&&%%%%%%%%%%%%%%%%%%%XXXXXXXX%%%%%.      ",
"       .&&&&*=******&&&&&&&&&&&&&&&&&&&&%%%%%%%%%%%%%%%%%%%XXXXXXXX%%%%%.      ",
"       .&&&&**=*****&&&&&&&&&&&&&&&&&&&&%%%%%%%%%%%%%%%%%%%XXXXXXXX%%%%%.      ",
"       .&&&&********&&&&&&&&&&&&&&&&&&&&%%%%%%%%%%%%%%%%%%%XXXXXXXX%%%%%.      ",
"       .&&&&########&&&&&&&&&&&&&&&&&&&&%%%%%%%%%%%%%%%%%%%XXXXXXXX%%%%%.      ",
"       .&&&&%%%%%%%%&&&&&&&&&&&&&&&&&&&&%%%%%%%%%%%%%%%%%%%XXXXXXXX%%%%%.      ",
"       .&&&&&&&&&&&&&&&&&&&&&&&&&&&&&&&&%%%%%%%%%%%%%%%%%%%XXXXXXXX%%%%%.      ",
"       .&&&&&&&&&&&&&&&&&&&&&&&&&&&&&&&&%%%%%%%%%%%%%%%%%%%XXXXXXXX%%%%%.      ",
"       .&&&&&&&&&&&&&&&&&&&&&&&&&&&&&&&&%%%%%%%%%%%%%%%%%%%XXXXXXXX%%%%%.      "
};
