/* XPM */
static char *Lamp_stand_11711466869[] = {
/* columns rows colors chars-per-pixel */
"11 22 7 1 ",
"  c None",
". c #2E222F",
"X c #484A77",
"o c #9E4539",
"O c #CD683D",
"+ c #4D65B4",
"@ c #4D9BE6",
/* pixels */
"   .....   ",
"  .@+@+@.  ",
"  .@+@+@.  ",
" .@+X+X+@. ",
" .@+@+@+@. ",
".@++@+@++@.",
".XXXXXXXXX.",
" ......... ",
"    .o.    ",
"    .o.    ",
"    .o.    ",
"    .O.    ",
"    .O.    ",
"    .O.    ",
"    .O.    ",
"    .O.    ",
"    .O.    ",
"    .O.    ",
"    .O.    ",
"    .O.    ",
"    .O.    ",
"   .OOO.   "
};
