/* XPM */
static char *Laptop1711466869[] = {
/* columns rows colors chars-per-pixel */
"10 7 6 1 ",
"  c None",
". c #2E222F",
"X c #625565",
"o c #8FD3FF",
"O c #C7DCD0",
"+ c white",
/* pixels */
" ........ ",
".XXXXXXXX.",
".Xoooo+oX.",
".Xooooo+X.",
".XooooooX.",
".XXXXXXXX.",
".OOOOOOOO."
};
