/* XPM */
static char *Light_21711466868[] = {
/* columns rows colors chars-per-pixel */
"14 5 6 1 ",
"  c None",
". c #2E222F",
"X c #7F708A",
"o c #9BABB2",
"O c #C7DCD0",
"+ c white",
/* pixels */
".XXXXXXXXXXXX.",
".+O.o.++.o.O+.",
" .++..++..++. ",
"  .++++++++.  ",
"   ........   "
};
