/* XPM */
static char *Male1711466868[] = {
/* columns rows colors chars-per-pixel */
"64 48 11 1 ",
"  c None",
". c #2E222F",
"X c #165A4C",
"o c #239063",
"O c #E3932A",
"+ c #BD8D6B",
"@ c #D49577",
"# c #407FBB",
"$ c #4D9BE6",
"% c #FDBD8F",
"& c #8FD3FF",
/* pixels */
"                                                                ",
"                     .......                         .......    ",
"     .......        .$$$&$$&.        .......        .$$&$$&$.   ",
"    .$$&$$&$.      .$$$$$&$$&.      .$$&$$&$.      .$$$$&$$&$.  ",
"   .$$$$&$$&$.     .##$$$$$$$.     .$$$$&$$&$.     .#$$$$$$$$.  ",
"   .#$$$$$$$$.     .###+++++#.     .#$$$$$$$$.     .##++++++#.  ",
"   .##++++++#.     .##+.%%%..      .##++++++#.     .#+.%%%.%.   ",
"   .#+.%%%.%.      .##%.%%%..      .#+.%%%.%.      .#%.%%%.%.   ",
"   .#%.%%%.%.      .++%%%%%%.      .#%.%%%.%.      .+%%%%%%%.   ",
"   .+%%%%%%%.       .%%%%%%.       .+%%%%%%%.       .%%%%%%.    ",
"    .%%%%%%.         ..X@@..        .%%%%%%.         .X@@X.     ",
"    ..X@@X.          .%%oo.         ..X@@X.         .%ooo%%.    ",
"   .%%oooo%.         .@%oo.        .%%oooo%.        .%ooo%@.    ",
"   .%@oooo%.          .OOO.        .%@oooo%.         .OOOO.     ",
"    ..OOOO.            .O.          ..OOOO.           ..O.      ",
"     .O..O.                          .O..O.                     ",
"                                                                ",
"                                                                ",
"     .......                                                    ",
"    .$$&$$&$.        .......         .......                    ",
"   .$$$$&$$&$.      .$$&$$&$.       .$$&$$&$.                   ",
"   .#$$$$$$$$.     .$$$$&$$&$.     .$$$$&$$&$.                  ",
"   .##++++++#.     .#$$$$$$$$.     .#$$$$$$$$.                  ",
"   .#+.%%%.%.      .##++++++#.     .##++++++#.                  ",
"   .#%.%%%.%.      .#+.%%%.%.      .#+.%%%.%.                   ",
"   .+%%%%%%%.      .#%.%%%.%.      .#%.%%%.%.                   ",
"    .%%%%%%.       .+%%%%%%%.      .+%%%%%%%.                   ",
"    ..X@@X.         .%%%%%%.        .%%%%%%.                    ",
"   .%%oooo%.       .%%oooo%.        ..X@@X.                     ",
"   .%@oooo%.       .%@oooo%.       .%%oooo%.                    ",
"    ..OOOO.         ..OOOO.        .%@oooo%.                    ",
"     .O..O.          .O..O.         ..O..O.                     ",
"                                                                ",
"                     .......                                    ",
"     .......        .$$&$$&$.                                   ",
"    .$$&$$&$.      .$$$$&$$&$.                                  ",
"   .$$$$&$$&$.     .#$$$$$$$$.                                  ",
"   .#$$$$$$$$.     .##++++++#.                                  ",
"   .##++++++#.     .#+%%%%%%.                                   ",
"   .#+%%%%%%.      .#%.%%%.%.                                   ",
"   .#%.%%%.%.      .+%%%%%%%.                                   ",
"   .+%%%%%%%.      ..%%%%%%.                                    ",
"    .%%%%%%.      .%%.X@@X%%.                                   ",
"    ..X@@X.       .%@.oooo@%.                                   ",
"   .%%oooo%.       ...oooo..                                    ",
"   .%@oooo%.         .OOOO.                                     ",
"    ..OOOO.         .O....O.                                    ",
"     .O..O.                                                     "
};
