/* XPM */
static char *Mountain_small_11711466869[] = {
/* columns rows colors chars-per-pixel */
"120 63 4 1 ",
"  c None",
". c #2E222F",
"X c #7F708A",
"o c #9BABB2",
/* pixels */
"                                                 ..                                                                     ",
"                                                .oo....                                                                 ",
"                                               .Xoooooo.                                                                ",
"                                               .Xooooooo.                                                               ",
"                                              .XXXooooooo..                                                             ",
"                                              .XXXooooooooo.                                                            ",
"                                             .XXXXoooooooooo.                                                           ",
"                                             .XXXXooooooooooo.                                                          ",
"                                            .XXXXXXooooooooooo.                                                         ",
"                                            .XXXXXXoooooooooooo..                                                       ",
"                                           .XXXXXXXoooooooooooooo.                                                      ",
"                                           .XXXXXXXooooooooooooooo..                                                    ",
"                                         ..XXXXXXXXXoooooooooooooooo.                                                   ",
"                                        .XXXXXXXXXXXoooooooooooooooo.                                                   ",
"                                      ..XXXXXXXXXXXXooooooooooooooooo.                                                  ",
"                                     .XXXXXXXXXXXXXXooooooooooooooooo.                                                  ",
"                                    .XXXXXXXXXXXXXXXXooooooooooooooooo.                                                 ",
"                                   .XXXXXXXXXXXXXXXXXoooooooooooooooooo.                                                ",
"                                  .XXXXXXXXXXXXXXXXXooooooooooooooooooo.                                                ",
"                                 .XXXXXXXXXXXXXXXXXXoooooooooooooooooooo.                                               ",
"                                .XXXXXXXXXXXXXXXXXXoooooooooooooooooooooo.                                              ",
"                               .XXXXXXXXXXXXXXXXXXoooooooooooooooooooooooo.                                             ",
"                              .XXXXXXXXXXXXXXXXXXoooooooooooooooooooooooooo.                                            ",
"                             .XXXXXXXXXXXXXXXXXXXooooooooooooooooooooooooooo.                                           ",
"                            .XXXXXXXXXXXXXXXXXXXooooooooooooooooooooooooooooo..                                         ",
"                           .XXXXXXXXXXXXXXXXXXXoooooooooooooooooooooooooooooooo.                                        ",
"                          .XXXXXXXXXXXXXXXXXXXoooooooooooooooooooooooooooooooooo.                                       ",
"                          .XXXXXXXXXXXXXXXXXXXooooooooooooooooooooooooooooooooooo.                                      ",
"                         .XXXXXXXXXXXXXXXXXXXooooooooooooooooooooooooooooooooooooo..                                    ",
"                        .XXXXXXXXXXXXXXXXXXXoooooooooooooooooooooooooooooooooooooooo.                                   ",
"                       .XXXXXXXXXXXXXXXXXXXoooooooooooooooooooooooooooooooooooooooooo.                                  ",
"                      .XXXXXXXXXXXXXXXXXXXoooooooooooooooooooooooooooooooooooooooooooo.                                 ",
"                     .XXXXXXXXXXXXXXXXXXXoooooooooooooooooooooooooooooooooooooooooooooo.                                ",
"                    .XXXXXXXXXXXXXXXXXXXXoooXXXooooooooooooooooooooooooooooooooooooooooo.                               ",
"                   .XXXXXXXXXXXXXXXXXXXXooXXXXXoooooooooooooooooooooooooooooooooooooooooo.                              ",
"                   .XXXXXXXXXXXXXXXXXXXooXXXXXXXoooooooooooooooooooooooooooooooooooooooooo.                             ",
"                  .XXXXXXXXXXXXXXXXXXXXXXXXXXXXXooooooooooooooooooooooooooooooooooooooooooo..                           ",
"                  .XXXXXXXXXXXXXXXXXXXXXXXXXXXXXooooooooooooooooooooooooooooooooooooooooooooo.                          ",
"                 .XXXXXXXXXXXXXXXXXXXXXXXXXXXXXXXooooooooooooooooooooooooooooooooooooooooooooo..                        ",
"                 .XXXXXXXXXXXXXXXXXXXXXXXXXXXXXXXooooooooooooooooooooooooooooooooooooooooooooooo..                      ",
"                .XXXXXXXXXXXXXXXXXXXXXXXXXXXXXXXXXoooooooooooooooooooooooooooooooooooooooooooooooo.                     ",
"               .XXXXXXXXXXXXXXXXXXXXXXXXXXXXXXXXXXXoooooooooooooooooooooooooooooooooooooooooooooooo.                    ",
"               .XXXXXXXXXXXXXXXXXXXXXXXXXXXXXXXXXXXXXooooooooooooooooooooooooooooooooooooooooooooooo.                   ",
"              .XXXXXXXXXXXXXXXXXXXXXXXXXXXXXXXXXXXXXXXXXooooooooooooooooooooooooooooooooooooooooooooo.                  ",
"              .XXXXXXXXXXXXXXXXXXXXXXXXXXXXXXXXXXXXXXXXXXXoooooooooooooooooooooooooooooooooooooooooooo.                 ",
"             .XXXXXXXXXXXooXXXXXXXXXXXXXXXXXXXXXXXXXXXXXXXXXXoooooooooooooooooooooooooooooooooooooooooo..               ",
"             .XXXXXXXXXXXoooooXXXXXXXXXXXXXXXXXXXXXXXXXXXXXXXXXoooooooooooooooooooooooooooooooooooooooooo.              ",
"            .XXXXXXXXXXXXoooooooXXXXXXXXXXXXXXXXXXXXXXXXXXXXXXXXXXoooooooooooooooooooooooooooooooooooooooo.             ",
"            .XXXXXXXXXXXXooooooooooXXXXXXXXXXXXXXXXXXXXXXXXXXXXXXXXXooooooooooooooooooooooooooooooooooooooo.            ",
"           .XXXXXXXXXXXXXXooooooooooooXXXXXXXXXXXXXXXXXXXXXXXXXXXXXXXXoooooooooooooooooooooooooooooooooooooo.           ",
"          .XXXXXXXXXXXXXXXooooooooooooooXXXXXXXXXXXXXXXXXXXXXXXXXXXXXXXoooooooooooooooooooooooooooooooooooooo.          ",
"         .XXXXXXXXXXXXXXXXooooooooooooooooXXXXXXXXXXXXXXXXXXXXXXXXXXXXXooooooooooooooooooooooooooooooooooooooo..        ",
"        .XXXXXXXXXXXXXXXXXoooooooooooooooooXXXXXXXXXXXXXXXXXXXXXXXXXXXXXoooooooooooooooooooooooooooooooooooooooo.       ",
"       .XXXXXXXXXXXXXXXXXXooooooooooooooooooXXXXXXXXXXXXXXXXXXXXXXXXXXXXooooooooooooooooooooooooooooooooooooooooo.      ",
"      .XXXXXXXXXXXXXXXXXXXooooooooooooooooooXXXXXXXXXXXXXXXXXXXXXXXXXXXXXooooooooooooooooooooooooooooooooooooooooo.     ",
"     .XXXXXXXXXXXXXXXXXXXXXooooooooooooooooooXXXXXXXXXXXXXXXXXXXXXXXXXXXXXooooooooooooooooooooooooooooooooooooooooo.    ",
"     .XXXXXXXXXXXXXXXXXXXXXoooooooooooooooooooXXXXXXXXXXXXXXXXXXXXXXXXXXXXooooooooooooooooooooooooooooooooooooooooo.    ",
"    .XXXXXXXXXXXXXXXXXXXXXoooooooooooooooooooooXXXXXXXXXXXXXXXXXXXXXXXXXXXXooooooooooooooooooooooooooooooooooooooooo.   ",
"   .XXXXXXXXXXXXXXXXXXXXXooooooooooooooooooooooXXXXXXXXXXXXXXXXXXXXXXXXXXXXXooooooooooooooooooooooooooooooooooooooooo.  ",
"  .XXXXXXXXXXXXXXXXXXXXXooooooooooooooooooooooooXXXXXXXXXXXXXXXXXXXXXXXXXXXXooooooooooooooooooooooooooooooooooooooooo.  ",
" .XXXXXXXXXXXXXXXXXXXXoooooooooooooooooooooooooooXXXXXXXXXXXXXXXXXXXXXXXXXXXXooooooooooooooooooooooooooooooooooooooooo. ",
" .XXXXXXXXXXXXXXXXXXXoooooooooooooooooooooooooooooXXXXXXXXXXXXXXXXXXXXXXXXXXXoooooooooooooooooooooooooooooooooooooooooo.",
".XXXXXXXXXXXXXXXXXXXooooooooooooooooooooooooooooooXXXXXXXXXXXXXXXXXXXXXXXXXXXXooooooooooooooooooooooooooooooooooooooooo."
};
