/* XPM */
static char *Mountain_large_11711466869[] = {
/* columns rows colors chars-per-pixel */
"159 87 4 1 ",
"  c None",
". c #2E222F",
"X c #7F708A",
"o c #9BABB2",
/* pixels */
"                                                                          ...                                                                                  ",
"                                                                        ..Xoo.                                                                                 ",
"                                                                       .XXXooo.                                                                                ",
"                                                                     ..XXXooooo.                                                                               ",
"                                                                   ..XXXXXoooooo.                                                                              ",
"                                                                  .XXXXXXoooooooo.                                                                             ",
"                                                                ..XXXXXXXooooooooo.                                                                            ",
"                                                               .XXXXXXXXooooooooooo.                                                                           ",
"                                                             ..XXXXXXXXXoooooooooooo.                                                                          ",
"                                                            .XXXXXXXXXXoooooooooooooo.                                                                         ",
"                                                           .XXXXXXXXXXooooooooooooooo.                                                                         ",
"                                                          .XXXXXXXXXXooooooooooooooooo.                                                                        ",
"                                                         .XXXXXXXXXXoooooooooooooooooo.                                                                        ",
"                                                        .XXXXXXXXXXoooooooooooooooooooo.                                                                       ",
"                                                        .XXXXXXXXXoooooooooooooooooooooo.                                                                      ",
"                                                       .XXXXXXXXXXooooooooooooooooooooooo.                                                                     ",
"                                                       .XXXXXXXXXooooooooooooooooooooooooo.                                                                    ",
"                                                      .XXXXXXXXXXXXoooooooooooooooooooooooo.                                                                   ",
"                                                     .XXXXXXXXXXXXXXoooooooooooooooooooooooo.                                                                  ",
"                                                     .XXXXXXXXXXXXXXXoooooooooooooooooooooooo.                                                                 ",
"                                                    .XXXXXXXXXXXXXXXXXoooooooooooooooooooooooo.                                                                ",
"                                                   .XXXXXXXXXXXXXXXXXXXoooooooooooooooooooooooo.                                                               ",
"                                                   .XXXXXXXXXXXXXXXXXXXXoooooooooooooooooooooooo.                                                              ",
"                                                  .XXXXXXXXXXXXXXXXXXXXXXoooooooooooooooooooooooo.                                                             ",
"                                                  .XXXXXXXXXXXXXXXXXXXXXXooooooooooooooooooooooooo.                                                            ",
"                                                 .XXXXXXXXXXXXXXXXXXXXXXXXoooooooooooooooooooooooo.                                                            ",
"                                                .XXXXXXXXXXXXXXXXXXXXXXXXXooooooooooooooooooooooooo.                                                           ",
"                                                .XXXXXXXXXXXXXXXXXXXXXXXXXXooooooooooooooooooooooooo.                                                          ",
"                                               .XXXXXXXXXXXXXXXXXXXXXXXXXXXXooooooooooooooooooooooooo.                                                         ",
"                                              .XXXXXXXXXXXXXXXXXXXXXXXXXXXXXXooooooooooooooooooooooooo.                                                        ",
"                                              .XXXXXXXXXXXXXXXXXXXXXXXXXXXXXXXooooooooooooooooooooooooo.                                                       ",
"                                             .XXXXXXXXXXXXXXXXXXXXXXXXXXXXXXXXXooooooooooooooooooooooooo.                                                      ",
"                                             .XXXXXXXXXXXXXXXXXXXXXXoooXXXXXXXXXooooooooooooooooooooooooo.                                                     ",
"                                            .XXXXXXXXXXXXXXXXXXXXXXXoooooXXXXXXXXooooooooooooooooooooooooo.                                                    ",
"                                           .XXXXXXXXXXXXXXXXXXXXXXXXXoooooXXXXXXXXooooooooooooooooooooooooo.                                                   ",
"                                           .XXXXXXXXXXXXXXXXXXXXXXXXXoooooooXXXXXXXooooooooooooooooooooooooo.                                                  ",
"                                          .XXXXXXXXXXXXXXXXXXXXXXXXXXXoooooooXXXXXXXooooooooooooooooooooooooo.                                                 ",
"                                         .XXXXXXXXXXXXXXXXXXXXXXXXXXXXooooooooooXXXXXooooooooooooooooooooooooo..                                               ",
"                                         .XXXXXXXXXXXXXXXXXXXXXXXXXXXXoooooooooooooXXooooooooooooooooooooooooooo.                                              ",
"                                        .XXXXXXXXXXooXXXXXXXXXXXXXXXXXooooooooooooooooooooooooooooooooooooooooooo..                                            ",
"                                       .XXXXXXXXXXooooXXXXXXXXXXXXXXXXXoooooooooooooooooooooooooooooooooooooooooooo..                                          ",
"                                      .XXXXXXXXXXXooooXXXXXXXXXXXXXXXXXoooooooooooooooooooooooooooooooooooooooooooooo.                                         ",
"                                     .XXXXXXXXXXXoooooXXXXXXXXXXXXXXXXXooooooooooooooooooooooooooooooooooooooooooooooo.                                        ",
"                                    .XXXXXXXXXXXXoooooXXXXXXXXXXXXXXXXXoooooooooooooooooooooooooooooooooooooooooooooooo.                                       ",
"                                   .XXXXXXXXXXXXooooooXXXXXXXXXXXXXXXXXooooooooooooooooooooooooooooooooooooooooooooooooo.                                      ",
"                                   .XXXXXXXXXXXoooooooXXXXXXXXXXXXXXXXXoooooooooooooooooooooooooooooooooooooooooooooooooo.                                     ",
"                                  .XXXXXXXXXXXXoooooooXXXXXXXXXXXXXXXXXooooooooooooooooooooooooooooooooooooooooooooooooooo..                                   ",
"                                 .XXXXXXXXXXXXooooooooXXXXXXXXXXXXXXXXXooooooooooooooooooooooooooooooooooooooooooooooooooooo.                                  ",
"                                .XXXXXXXXXXXXXooooooooXXXXXXXXXXXXXXXXXoooooooooooooooooooooooooooooooooooooooooooooooooooooo.                                 ",
"                               .XXXXXXXXXXXXXoooooooooXXXXXXXXXXXXXXXXXXoooooooooooooooooooooooooooooooooooooooooooooooooooooo.                                ",
"                              .XXXXXXXXXXXXXXoooooooooXXXXXXXXXXXXXXXXXXooooooooooooooooooooooooooooooooooooooooooooooooooooooo.                               ",
"                             .XXXXXXXXXXXXXXooooooooooXXXXXXXXXXXXXXXXXXXooooooooooooooooooooooooooooooooooooooooooooooooooooooo.                              ",
"                            .XXXXXXXXXXXXXoooooooooooXXXXXXXXXXXXXXXXXXXXoooooooooooooooooooooooooooooooooooooooooooooooooooooooo..                            ",
"                           .XXXXXXXXXXXXXooooooooooooXXXXXXXXXXXXXXXXXXXXoooooooooooooooooooooooooooooooooooooooooooooooooooooooooo.                           ",
"                          .XXXXXXXXXXXXXooooooooooooXXXXXXXXXXXXXXXXXXXXXXoooooooooooooooooooooooooooooooooooooooooooooooooooooooooo.                          ",
"                         .XXXXXXXXXXXXoooooooooooooXXXXXXXXXXXXXXXXXXXXXXXooooooooooooooooooooooooooooooooooooooooooooooooooooooooooo.                         ",
"                        .XXXXXXXXXXXXoooooooooooooXXXXXXXXXXXXXXXXXXXXXXXXoooooooooooooooooooooooooooooooooooooooooooooooooooooooooooo.                        ",
"                        .XXXXXXXXXXXooooooooooooooXXXXXXXXXXXXXXXXXXXXXXXXooooooooooooooooooooooooooooXXooooooooooooooooooooooooooooooo.                       ",
"                       .XXXXXXXXXXoooooooooooooooXXXXXXXXXXXXXXXXXXXXXXXXXoooooooooooooooooooooooooooXXXXooooooooooooooooooooooooooooooo.                      ",
"                      .XXXXXXXXXXoooooooooooooooXXXXXXXXXXXXXXXXXXXXXXXXXoooooooooooooooooooooooooooXXXXXoooooooooooooooooooooooooooooooo.                     ",
"                     .XXXXXXXXXXoooooooooooooooXXXXXXXXXXXXXXXXXXXXXXXXXXoooooooooooooooooooooooooooXXXXXXoooooooooooooooooooooooooooooooo.                    ",
"                    .XXXXXXXXXooooooooooooooXXXXXXXXXXXXXXXXXXXXXXXXXXXXXoooooooooooooooooooooooooooXXXXXXooooooooooooooooooooooooooooooooo.                   ",
"                   .XXXXXXXXXoooooXXXXXXXXXXXXXXXXXXXXXXXXXXXXXXXXXXXXXXXooooooooooooooooooooooooooXXXXXXXXooooooooooooooooooooooooooooooooo.                  ",
"                  .XXXXXXXXXXXXXXXXXXXXXXXXXXXXXXXXXXXXXXXXXXXXXXXXXXXXXXooooooooooooooooooooooooooXXXXXXXXXooooooooooooooooooooooooooooooooo.                 ",
"                 .XXXXXXXXXXXXXXXXXXXXXXXXXXXXXXXXXXXXXXXXXXXXXXXXXXXXXXooooooooooooooooooooooooooXXXXXXXXXXooooooooooooooooooooooooooooooooo.                 ",
"                .XXXXXXXXXXXXXXXXXXXXXXXXXXXXXXXXXXXXXXXXXXXXXXXXXXXXXXXooooooooooooooooooooooooooXXXXXXXXXXXooooooooooooooooooooooooooooooooo.                ",
"               .XXXXXXXXXXXXXXXXXXXXXXXXXXXXXXXXXXXXXXXXXXXXXXXXXXXXXooooooooooooooooooooooooooooXXXXXXXXXXXXoooooooooooooooooooooooooooooooooo.               ",
"              .XXXXXXXXXXXXXXXXXXXXXXXXXXXXXXXXXXXXXXXXXXXXXXXXooooooooooooooooooooooooooooooooooXXXXXXXXXXXXXooooooooooooooooooooooooooooooooo.               ",
"             .XXXXXXXXXXXXXXXXXXXXXXXXXXXXXXXXXXXXXXXXXXXXXoooooooooooooooooooooooooooooooooooooooXXXXXXXXXXXXoooooooooooooooooooooooooooooooooo.              ",
"             .XXXXXXXXXXXXXXXXXXXXXXXXXXXXXXXXXXXXXXXXXXXXooooooooooooooooooooooooooooooooooooooooXXXXXXXXXXXXXoooooooooooooooooooooooooooooooooo.             ",
"            .XXXXXXXXXXXXXXXXXXXXXXXXXXXXXXXXXXXXXXXXXXXoooooooooooooooooooooooooooooooooooooooooooXXXXXXXXXXXXXoooooooooooooooooooooooooooooooooo.            ",
"           .XXXXXXXXXXXXXXXXXXXXXXXXXXXXXXXXXXXXXXXXXXXooooooooooooooooooooooooooooooooooooooooooooXXXXXXXXXXXXXXooooooooooooooooooooooooooooooooo.            ",
"          .XXXXXXXXXXXXXXXXXXXXXXXXXXXXXXXXXXXXXXXXXXXooooooooooooooooooooooooooooooooooooooooooooooXXXXXXXXXXXXXXooooooooooooooooooooooooooooooooo.           ",
"         .XXXXXXXXXXXXXXXXXXXXXXXXXXXXXXXXXXXXXXXXXXXoooooooooooooooooooooooooooooooooooooooooooooooooXXXXXXXXXXXXXooooooooooooooooooooooooooooooooo.          ",
"        .XXXXXXXXXXXXXXXXXXXXXXXXXXXXXXXXXXXXXXXXXXXooooooooooooooooooooooooooooooooooooooooooooooooooooXXXXXXXXXXXXooooooooooooooooooooooooooooooooo.         ",
"       .XXXXXXXXXXXXXXXXXXXXXXXXXXXXXXXXXXXXXXXXXXXooooooooooooooooooooooooooooooooooooooooooooooooooooooooXXXXXXXXXoooooooooooooooooooooooooooooooooo.        ",
"      .XXXXXXXXXXXXXXXXXXXXXXXXXXXXXXXXXXXXXXXXXXXooooooooooooooooooooooooooooooooooooooooooooooooooooooooooXXXXXXXXXooooooooooooooooooooooooooooooooo.        ",
"     .XXXXXXXXXXXXXXXXXXXXXXXXXXXXXXXXXXXXXXXXXXXooooooooooooooooooooooooooooooooooooooooooooooooooooooooooooXXXXXXXXXooooooooooooooooooooooooooooooooo.       ",
"     .XXXXXXXXXXXXXXXXXXXXXXXXXXXXXXXXXXXXXXXXXXXooooooooooooooooooooooooooooooooooooooooooooooooooooooooooooXXXXXXXXXXooooooooooooooooooooooooooooooooo.      ",
"    .XXXXXXXXXXXXXXXXXXXXXXXXXXXXXXXXXXXXXXXXXXXXoooooooooooooooooooooooooooooooooooooooooooooooooooooooooooooXXXXXXXXXXooooooooooooooooooooooooooooooooo.     ",
"    .XXXXXXXXXXXXXXXXXXXXXXXXXXXXXXXXXXXXXXXXXXXXooooooooooooooooooooooooooooooooooooooooooooooooooooooooooooooXXXXXXXXXXoooooooooooooooooooooooooooooooo.     ",
"   .XXXXXXXXXXXXXXXXXXXXXXXXXXXXXXXXXXXXXXXXXXXXooooooooooooooooooooooooooooooooooooooooooooooooooooooooooooooooXXXXXXXXXXoooooooooooooooooooooooooooooooo.    ",
"   .XXXXXXXXXXXXXXXXXXXXXXXXXXXXXXXXXXXXXXXXXXXXooooooooooooooooooooooooooooooooooooooooooooooooooooooooooooooooooXXXXXXXXXoooooooooooooooooooooooooooooooo.   ",
"   .XXXXXXXXXXXXXXXXXXXXXXXXXXXXXXXXXXXXXXXXXXXXoooooooooooooooooooooooooooooooooooooooooooooooooooooooooooooooooooooXXXXXXXoooooooooooooooooooooooooooooooo.  ",
"  .XXXXXXXXXXXXXXXXXXXXXXXXXXXXXXXXXXXXXXXXXXXXooooooooooooooooooooooooooooooooooooooooooooooooooooooooooooooooooooooooooXXXXoooooooooooooooooooooooooooooooo. ",
"  .XXXXXXXXXXXXXXXXXXXXXXXXXXXXXXXXXXXXXXXXXXXXoooooooooooooooooooooooooooooooooooooooooooooooooooooooooooooooooooooooooooooXXooooooooooooooooooooooooooooooo. ",
" .XXXXXXXXXXXXXXXXXXXXXXXXXXXXXXXXXXXXXXXXXXXXoooooooooooooooooooooooooooooooooooooooooooooooooooooooooooooooooooooooooooooooooooooooooooooooooooooooooooooooo."
};
