/* XPM */
static char *Mountain_medium_11711466869[] = {
/* columns rows colors chars-per-pixel */
"142 77 4 1 ",
"  c None",
". c #2E222F",
"X c #7F708A",
"o c #9BABB2",
/* pixels */
"                                                                            ...                                                               ",
"                                                                          ..ooo.                                                              ",
"                                                                        ..XXoooo..                                                            ",
"                                                                      ..XXXooooooo.                                                           ",
"                                                                    ..XXXXXoooooooo..                                                         ",
"                                                                  ..XXXXXXXoooooooooo.                                                        ",
"                                                                ..XXXXXXXXoooooooooooo..                                                      ",
"                                                              ..XXXXXXXXXXoooooooooooooo.                                                     ",
"                                                            ..XXXXXXXXXXXoooooooooooooooo.                                                    ",
"                                                           .XXXXXXXXXXXXXooooooooooooooooo.                                                   ",
"                                                         ..XXXXXXXXXXXXXXooooooooooooooooo.                                                   ",
"                                                       ..XXXXXXXXXXXXXXXooooooooooooooooooo.                                                  ",
"                                                     ..XXXXXXXXXXXXXXXXXoooooooooooooooooooo.                                                 ",
"                                                    .XXXXXXXXXXXXXXXXXXXoooooooooooooooooooo.                                                 ",
"                                                   .XXXXXXXXXXXXXXXXXXXXooooooooooooooooooooo.                                                ",
"                                                  .XXXXXXXXXXXXXXXXXXXXXoooooooooooooooooooooo.                                               ",
"                                                 .XXXXXXXXXXXXXXXXXXXXXoooooooooooooooooooooooo.                                              ",
"                                                .XXXXXXXXXXXXXXXXXXXXXooooooooooooooooooooooooo.                                              ",
"                                               .XXXXXXXXXXXXXXXXXXXXXXoooooooooooooooooooooooooo.                                             ",
"                                              .XXXXXXXXXXXXXXXXXXXXXXoooooooooooooooooooooooooooo.                                            ",
"                                             .XXXXXXXXXXXXXXXXXXXXXXXoooooooooooooooooooooooooooo.                                            ",
"                                            .XXXXXXXXXXXXXXXXXXXXXXXoooooooooooooooooooooooooooooo.                                           ",
"                                           .XXXXXXXXXXXXXXXXXXXXXXXXoooXXXooooooooooooooooooooooooo.                                          ",
"                                           .XXXXXXXXXXXXXXXXXXXXXXXXoXXXXXXoooooooooooooooooooooooo.                                          ",
"                                          .XXXXXXXXXXXXXXXXXXXXXXXXXXXXXXXXXoooooooooooooooooooooooo.                                         ",
"                                          .XXXXXXXXXXXXXXXXXXXXXXXXXXXXXXXXXooooooooooooooooooooooooo.                                        ",
"                                         .XXXXXXXXXXXXXXXXXXXXXXXXXXXXXXXXXXXooooooooooooooooooooooooo.                                       ",
"                                        .XXXXXXXXXXXXXXXXXXXXXXXXXXXXXXXXXXXXooooooooooooooooooooooooo.                                       ",
"                                        .XXXXXXXXXXXXXXXXXXXXXXXXXXXXXXXXXXXXXooooooooooooooooooooooooo.                                      ",
"                                       .XXXXXXXXXXXXXXXXXXXXXXXXXXXXXXXXXXXXXXXooooooooooooooooooooooooo.                                     ",
"                                       .XXXXXXXXXXXXXXXXXXXXXXXXXoXXXXXXXXXXXXXooooooooooooooooooooooooo.                                     ",
"                                      .XXXXXXXXXXXXXXXXXXXXXXXXoooXXXXXXXXXXXXXXooooooooooooooooooooooooo.                                    ",
"                                      .XXXXXXXXXXXXXXXXXXXXXXXooooXXXXXXXXXXXXXXoooooooooooooooooooooooooo.                                   ",
"                                     .XXXXXXXXXXXXXXXXXXXXXXooooooXXXXXXXXXXXXXXooooooooooooooooooooooooooo.                                  ",
"                                    .XXXXXXXXXXXXXXXXXXXoooooooooXXXXXXXXXXXXXXXoooooooooooooooooooooooooooo.                                 ",
"                                    .XXXXXXXXXXXoooooooooooooooooXXXXXXXXXXXXXXXooooooooooooooooooooooooooooo..                               ",
"                                   .XXXXXXXXoooooooooooooooooooooXXXXXXXXXXXXXXXooooooooooooooooooooooooooooooo.                              ",
"                                   .XXXXXXXooooooooooooooooooooXXXXXXXXXXXXXXXXXoooooooooooooooooooooooooooooooo.                             ",
"                                  .XXXXXXXoooooooooooooooooooXXXXXXXXXXXXXXXXXXXooooooooooooooooooooooooooooooooo.                            ",
"                                  .XXXXXXXoooooooooooooooooXXXXXXXXXXXXXXXXXXXXooooooooooooooooooooooooooooooooooo.                           ",
"                                 .XXXXXXXooooooooooooooooXXXXXXXXXXXXXXXXXXXXXooooooooooooooooooooooooooooooooooooo.                          ",
"                                 .XXXXXXoooooooooooooooXXXXXXXXXXXXXXXXXXXXXXXoooooooooooooooooooooooooooooooooooooo.                         ",
"                                .XXXXXXooooooooooooooXXXXXXXXXXXXXXXXXXXXXXXXoooooooooooooooooooooooooooooooooooooooo.                        ",
"                               .XXXXXXXooooooooooooXXXXXXXXXXXXXXXXXXXXXXXXXXooooooooooooooooooooooooooooooooooooooooo.                       ",
"                             ..XXXXXXXoooooooooooXXXXXXXXXXXXXXXXXXXXXXXXXXXooooooooooooooooooooooooooooooooooooooooooo..                     ",
"                            .XXXXXXXXXooooooooooXXXXXXXXXXXXXXXXXXXXXXXXXXXoooooooooooooooooooooooooooooooooooooooooooooo.                    ",
"                           .XXXXXXXXXXooooooooXXXXXXXXXXXXXXXXXXXXXXXXXXXXXooooooooooooooooooooooooooooooooooooooooooooooo.                   ",
"                          .XXXXXXXXXXXoooooooXXXXXXXXXXXXXXXXXXXXXXXXXXXXXooooooooooooooooooooooooooooooooooooooooooooooooo.                  ",
"                         .XXXXXXXXXXXXooooooXXXXXXXXXXXXXXXXXXXXXXXXXXXXXXoooooooooooooooooooooooooooooooooooooooooooooooooo.                 ",
"                        .XXXXXXXXXXXXooooooXXXXXXXXXXXXXXXXXXXXXXXXXXXXXXoooooooooooooooooooooooooooooooooooooooooooooooooooo.                ",
"                      ..XXXXXXXXXXXXXoooooXXXXXXXXXXXXXXXXXXXXXXXXXXXXXXoooooooooooooooooooooooooooooooooooooooooooooooooooooo.               ",
"                     .XXXXXXXXXXXXXXXoooXXXXXXXXXXXXXXXXXXXXXXXXXXXXXXooooooooooooooooooooooooooooooooooooooooooooooooooooooooo.              ",
"                    .XXXXXXXXXXXXXXXXooXXXXXXXXXXXXXXXXXXXXXXXXXXXXXooooooooooooooooooooooooooooooooooooooooooooooooooooooooooo.              ",
"                   .XXXXXXXXXXXXXXXXXoXXXXXXXXXXXXXXXXXXXXXXXXXXXXoooooooooooooooooooooooooooooooooooooooooooooooooooooooooooooo.             ",
"                  .XXXXXXXXXXXXXXXXXXXXXXXXXXXXXXXXXXXXXXXXXXXXXoooooooooooooooooooooooooooooooooooooooooooooooooooooooooooooooo.             ",
"                 .XXXXXXXXXXXXXXXXXXXXXXXXXXXXXXXXXXXXXXXXXXXXooooooooooooooooooooooooooooooooooooooooooooooooooooooooooooooooooo.            ",
"                .XXXXXXXXXXXXXXXXXXXXXXXXXXXXXXXXXXXXXXXXXXXooooooooooooooooooooooooooooooooooooooooooooooooooooooooooooooooooooo.            ",
"              ..XXXXXXXXXXXXXXXXXXXXXXXXXXXXXXXXXXXXXXXXXXoooooooooooooooooooooooooooooooooooooooooooooooooooooooooooooooooooooooo.           ",
"             .XXXXXXXXXXXXXXXXXXXXXXXXXXXXXXXXXXXXXXXXXXoooooooooooooooooooooooooooooooooooooooooooooooooooooooooooooooooooooooooo.           ",
"            .XXXXXXXXXXXXXXXXXXXXXXXXXXXXXXXXXXXXXXXXXooooooooooooooooooooooooooooooooooooooooooooooooooooooooooooooooooooooooooooo.          ",
"           .XXXXXXXXXXXXXXXXXXXXXXXXXXXXXXXXXXXXXXXoooooooooooooooooooooooooooooooooooooooooooooooooooooooooooooooooooooooooooooooo.          ",
"          .XXXXXXXXXXXXXXXXXXXXXXXXXXXXXXXXXXXXXoooooooooooooooooooooooooooooooooooooooooooooooooooooooooooooooooooooooooooooooooooo.         ",
"         .XXXXXXXXXXXXXXXXXXXXXXXXXXXXXXXXXXXXXooooooooooooooooooooooooooooooooooooooooooooooooooooooooooooooooooooooooooooooooooooo.         ",
"         .XXXXXXXXXXXXXXXXXXXXXXXXXXXXXXXXXXXoooooooooooooooooooooooooooooooooooooooooooooooooooooooooooooooooooooooooooooooooooooooo.        ",
"        .XXXXXXXXXXXXXXXXXXXXXXXXXXXXXXXXXXoooooooooooooooooooooooooooooooooooooooooooooooooooooooooooooooooooooooooooooooooooooooooo.        ",
"       .XXXXXXXXXXXXXXXXXXXXXXXXXXXXXXXXXooooooooooooooooooooooooooooooooooooooooooooooooooooooooooooooooooooooooooooooooooooooooooooo.       ",
"      .XXXXXXXXXXXXXXXXXXXXXXXXXXXXXXXXXXooooooooooooooooooooooooooooooooooooooooooooooooooooooooooooooooooooooooooooooooooooooooooooo.       ",
"      .XXXXXXXXXXXXXXXXXXXXXXXXXXXXXXXXXooooooooooooooooooooooooooooooooooooooooooooooooooooooooooooooooooooooooooooooooooooooooooooooo.      ",
"     .XXXXXXXXXXXXXXXXXXXXXXXXXXXXXXXXXXoooooooooooooooooooooooooooooooooooooooooooooooooooooooooooooooooooooooooooooooooooooooooooooooo.     ",
"    .XXXXXXXXXXXXXXXXXXXXXXXXXXXXXXXXXXXoooooooooooooooooooooooooooooooooooooooooooooooooooooooooooooooooooooooooooooooooooooooooooooooo.     ",
"   .XXXXXXXXXXXXXXXXXXXXXXXXXXXXXXXXXXXXXXooooooooooooooooooooooooooooooooooooooooooooooooooooooooooooooooooooooooooooooooooooooooooooooo.    ",
"   .XXXXXXXXXXXXXXXXXXXXXXXXXXXXXXXXXXXXXXXooooooooooooooooooooooooooooooooooooooooooooooooooooooooooooooooooooooooooooooooooooooooooooooo.   ",
"  .XXXXXXXXXXXXXXXXXXXXXXXXXXXXXXXXXXXXXXXXXXooooooooooooooooooooooooooooooooooooooooooooooooooooooooooooooooooooooooooooooooooooooooooooo.   ",
" .XXXXXXXXXXXXXXXXXXXXXXXXXXXXXXXXXXXXXXXXXXXXooooooooooooooooooooooooooooooooooooooooooooooooooooooooooooooooooooooooooooooooooooooooooooo.  ",
" .XXXXXXXXXXXXXXXXXXXXXXXXXXXXXXXXXXXXXXXXXXXXXooooooooooooooooooooooooooooooooooooooooooooooooooooooooooooooooooooooooooooooooooooooooooooo. ",
".XXXXXXXXXXXXXXXXXXXXXXXXXXXXXXXXXXXXXXXXXXXXXXXXooooooooooooooooooooooooooooooooooooooooooooooooooooooooooooooooooooooooooooooooooooooooooo. ",
".XXXXXXXXXXXXXXXXXXXXXXXXXXXXXXXXXXXXXXXXXXXXXXXXXooooooooooooooooooooooooooooooooooooooooooooooooooooooooooooooooooooooooooooooooooooooooooo."
};
