/* XPM */
static char *Refrigerator_large_white1711466868[] = {
/* columns rows colors chars-per-pixel */
"14 23 6 1 ",
"  c None",
". c #2E222F",
"X c #625565",
"o c #7F708A",
"O c #9BABB2",
"+ c white",
/* pixels */
" ............ ",
".oOOOOOOOOOOo.",
".O++++++++++O.",
".O++++++++++O.",
".O+X++++++++O.",
".O+X++++++++O.",
".O++++++++++O.",
".O++++++++++O.",
".oOOOOOOOOOOo.",
".O++++++++++O.",
".O++++++++++O.",
".O++++++++++O.",
".O++++++++++O.",
".O+X++++++++O.",
".O+X++++++++O.",
".O+X++++++++O.",
".O++++++++++O.",
".O++++++++++O.",
".O++++++++++O.",
".O++++++++++O.",
".O++++++++++O.",
".O++++++++++O.",
".oOOOOOOOOOOo."
};
