/* XPM */
static char *Stairs1711466868[] = {
/* columns rows colors chars-per-pixel */
"40 40 6 1 ",
"  c None",
". c #2E222F",
"X c #6E2727",
"o c #7A3045",
"O c #9E4539",
"+ c #CD683D",
/* pixels */
" ....                                   ",
".++.+.                                  ",
".++.O+.                                 ",
".++.OO+.                                ",
".++..OO+.                               ",
".++. .OO+.                              ",
".OO.  .OO+.                             ",
".OO..  .OO+.                            ",
"    ..  .OO+.                           ",
"    .o.  .OO+.                          ",
"    .Xo.  .OO+.                         ",
"    .XXo. .OOO+.                        ",
"     .XXo..+OOO+.                       ",
"      .XXo.++.OO+.                      ",
"       .XXo++..OO+.                     ",
"        .XXo+. .OO+.                    ",
"         .XXo.  .OO+.                   ",
"          .XXo.  .OO+.                  ",
"           .XXo.  .OO+.                 ",
"            .XXo. .OOO+.                ",
"             .XXo..+OOO+.               ",
"              .XXo.++.OO+.              ",
"               .XXo++..OO+.             ",
"                .XXo+. .OO+.            ",
"                 .XXo.  .OO+.           ",
"                  .XXo.  .OO+.          ",
"                   .XXo.  .OO+.         ",
"                    .XXo. .OOO+.        ",
"                     .XXo..+OOO+.       ",
"                      .XXo.++.OO+.      ",
"                       .XXo++..OO+.     ",
"                        .XXo+. .OO+.    ",
"                         .XXo.  .OO+... ",
"                          .XXo.  .OO.++.",
"                           .XXo.  .O.++.",
"                            .XXo.  ..++.",
"                             .XXo.  .++.",
"                              .XXo. .++.",
"                               .XXo..OO.",
"                                .....OO."
};
