/* XPM */
static char *Tree_medium1711466869[] = {
/* columns rows colors chars-per-pixel */
"36 50 9 1 ",
"  c None",
". c #2E222F",
"X c #7A3045",
"o c #165A4C",
"O c #9E4539",
"+ c #CD683D",
"@ c #239063",
"# c #1EBC73",
"$ c #E6904E",
/* pixels */
"             ......                 ",
"           ..@@@@@@..               ",
"          .@@######@@.              ",
"         .@##########@......        ",
"        .@############@@@@@@..      ",
"       .@#####@######@@#####@@.     ",
"      .@#####@@@####@#########@.    ",
"      .@######@@@##############@.   ",
"     .@@@######@################@.  ",
"    .@###########################@. ",
"   .@#####################@######@. ",
"  .@###################@@@@@######@.",
" .@###################@@@@@#######@.",
" .@#####@############@@@@@########@.",
".@#####@@@############@###########@.",
".@####@@@#########################@.",
".@#####@#########################@@.",
".@##########@@##################@@@.",
".@@########@@@@@###############@@@. ",
".o@@@####@@@@@@@@@@@@#######@@@@@o. ",
".o@@@@@@@@@@@@@@@@@@@@####@@@@@@o.  ",
" .o@@@@@@@@@@@@@o@@@@@@@@@@@@@@@o.  ",
" .o@@@@@@@@@@@@ooo@@@@@@@@@@@@@@o.  ",
"  .o@@@@@o@@@@@@ooo@@@@@@@o@@@@oo.  ",
"  .o@@@@ooo@@@@@@o@@@@@@@ooo@@@oo.  ",
"  .oo@@@@o@@@@@@@@@@@@@@@@o@@@oo.   ",
"   .oo@@@@@o@@@@@@@@@@oo@@@@oooo.   ",
"   .ooo@@@ooo@@@@@@@@oooooooooo.    ",
"   ..ooooooooo@@ooooooooooooooo.    ",
"     .oooooooooooooooooooooooo.     ",
"      .oooooooooooooooooooooo.      ",
"       .ooooooooooooooooooo..       ",
"        ..ooooooXXooooooo..         ",
"          ......OOXX.....           ",
"               .OOOO.               ",
"               .O++O.               ",
"               .++++.               ",
"               .++O+.               ",
"               .++O+.               ",
"               .++O+.               ",
"               .+OX+.               ",
"               .+OXO.               ",
"               .+OXO.               ",
"               .+O+O.               ",
"               .+O+O.               ",
"               .+O++.               ",
"               .++++.               ",
"              .$+++O$.              ",
"             .$+O+$O+$.             ",
"            .$+O+$++O+$.            "
};
