/* XPM */
static char *wall1711467692[] = {
/* columns rows colors chars-per-pixel */
"32 32 126 2 ",
"   c #030514",
".  c #0B0D1C",
"X  c #211315",
"o  c #31211E",
"O  c #3A2A23",
"+  c #4C1406",
"@  c #4F1807",
"#  c #4E190A",
"$  c #501907",
"%  c #521A09",
"&  c #581F0C",
"*  c #55200F",
"=  c #5C240E",
"-  c #5F280F",
";  c #532010",
":  c #5D2714",
">  c #5F2810",
",  c #60280F",
"<  c #602610",
"1  c #652C12",
"2  c #692F14",
"3  c #673113",
"4  c #6D3315",
"5  c #6D3817",
"6  c #6A3218",
"7  c #703716",
"8  c #71371A",
"9  c #753B1A",
"0  c #793F1C",
"q  c #47372A",
"w  c #47382B",
"e  c #49392E",
"r  c #4A3C33",
"t  c #7C431D",
"y  c #7F481F",
"u  c #7C4321",
"i  c #7F4728",
"p  c #7F4829",
"a  c #814624",
"s  c #854A24",
"d  c #864D2B",
"f  c #884F2D",
"g  c #8C5224",
"h  c #8D5429",
"j  c #8F5C2D",
"k  c #905827",
"l  c #92562B",
"z  c #955D2B",
"x  c #995D2C",
"c  c #8A5333",
"v  c #8D5A3B",
"b  c #9A5E30",
"n  c #9C622C",
"m  c #9C6232",
"M  c #9F6538",
"N  c #A3662E",
"B  c #A5692F",
"V  c #A16432",
"C  c #A66A32",
"Z  c #AB6D32",
"A  c #A06639",
"S  c #A3693C",
"D  c #AE7034",
"F  c #AC713A",
"G  c #B37334",
"H  c #B97736",
"J  c #BC7937",
"K  c #B4763C",
"L  c #B7783B",
"P  c #BC7C3B",
"I  c #C27E39",
"U  c #9F6941",
"Y  c #A56E43",
"T  c #B67942",
"R  c #BA7E42",
"E  c #BD803F",
"W  c #C5813C",
"Q  c #CD863C",
"!  c #CE883E",
"~  c #D1893F",
"^  c #BF8044",
"/  c #BA814E",
"(  c #BB8554",
")  c #BE8A5B",
"_  c #C48444",
"`  c #CB8641",
"'  c #CC8943",
"]  c #C3864A",
"[  c #C68A4F",
"{  c #CB8D4A",
"}  c #D38D43",
"|  c #D38F48",
" . c #D69146",
".. c #D99347",
"X. c #D3924A",
"o. c #DA954A",
"O. c #DD994D",
"+. c #C68D53",
"@. c #C88F56",
"#. c #C9925D",
"$. c #D69953",
"%. c #DC9B52",
"&. c #E09B4E",
"*. c #E19E51",
"=. c #DFA156",
"-. c #DFA15A",
";. c #E4A255",
":. c #E9A657",
">. c #E5A55A",
",. c #E8A658",
"<. c #E7A85D",
"1. c #EBAA5D",
"2. c #CB9661",
"3. c #CE9A66",
"4. c #DFA666",
"5. c #E7AB63",
"6. c #EBAC62",
"7. c #EFB167",
"8. c #ECB16A",
"9. c #F0B164",
"0. c #F2B66C",
"q. c #F4B96E",
"w. c #F2B771",
"e. c #F5BB72",
"r. c #F8BF78",
"t. c #F7C07C",
/* pixels */
"e r q o o q r e q e r e w w w q r e q X O q q r e e e w w w q   ",
"0.0.<.A b ,.0.7.1.q.t.0.:.:.:.:.e.9.9.6 L 1.1.0.1.1.t.9.:.:.%.  ",
";.o.o.A u W } Q ..:. .~ Q Q ~ Q Q &.e.6 g X.~ ! ! ~ *.%.W  .W   ",
"` | $.m 9 B I Q Q W Q ..W W } W I } 6.2 g J Q ! Q W } H J O.W   ",
"] o.%.A 8 Z I J ! W W Q ! o.X.P H  .0.2 s _ o.o.~ J ..~ Q Q W   ",
"} ` %.Y t G G G X. .W I Q O.W W ` } ,.1 t N X.$...! ! Q I W !   ",
"J J } m 9 n N E ! J B N G J J P ^ { >.1 s n N B ' J G J B Z ^   ",
"9 9 s 7 = 3 7 9 9 9 4 7 9 9 9 u t 9 l & = 3 9 9 9 9 5 9 9 9 5   ",
"c f f f s f f s s s = 2 s d c v d s c s s s d h s u % u s s a   ",
"e.6.>.>.&.;.;.,.:.:.u h -.>.8.e.;.O.<.*.&.*.:.6.;.%.2 P &.&.X.. ",
"&. .Q Q  .' H } } *.u 0 L '  .o.} Q o.I H Q o.~ Q 4.3 x L P W . ",
"~  .Q I } ' H W } 6.i t Z Q Q  .I I o.I ^ J Q Q Q 4.6 z G P R . ",
"Q  .O.' W Q Q Q O.0.d u L Q I _ I I Q ~ ..I Q Q o.%.3 h o.} I   ",
"W I _ |  .Q ! J ` >.a t D G J J Q Q Q Q Q J Q Q ..%.1 h [ %._   ",
"J C n H W J H F F $.u t n N G H H D H H H C H J H $.1 h Z ` G   ",
"7 2 2 7 4 7 4 9 9 a = = 2 4 4 4 7 2 4 7 7 4 4 4 4 s % > 4 4 6   ",
"K a 8 K ( / ( / T K K K T ( @.T G 2 b T ( ) T ( T K L K ( T F   ",
";.M 0 } <.1.>.%.o.&.o.&.,.8.8.*.*.a Z o.9.e.7.<.O.O.O.O.e.1. .  ",
"' V 1 G } } Q Q ..` H I } ..} o.8.a h I W  ...' ! Q Q H o...W   ",
"5.Y 3 C ' ;...J W Q I W O.} J ` <.a a D P ` G W Q Q Q W Q Q W   ",
">.S 4 G I W  .' W Q Q Q Q o.` Q 5.a s C X.| W o.&.J Q ! Q Q W   ",
"O.V 4 H W I P L '  .Q Q I I W &.5.i u P | ' Q W P I Q *.G Q W   ",
"' V , n D D n n D G N B D B Z K %.u h F m Z Z B z Z D G N n N   ",
"9 1 @ , 2 3 , , 1 1 , , 1 1 1 1 u : 1 6 > 1 1 1 - 1 2 1 1 - <   ",
"] _ _ @.3.@.] _ a l _ _ #.3.+._ 2.+.] #.[ _ ] ^ = R ] ] #.] ^   ",
"} } %.*...| } *.x s W } ..1.6.o.X. .} o.:... .;.< L ;.L  . .=.  ",
"Q Q I ' ..Q &.e.U y P Q *...| | ' Q ;.G W ~ ~ ;.< C ' ;.Q ! W   ",
"_ o.Q I I Q &.9.m t X.` G _ ' ` G I J I Q Q } 8.1 N G Q Q ! W . ",
"Q Q Q Q Q Q } 6.U y Z J ` ' Q Q Q Q Q Q Q Q ;.1.> g J Q Z G $.. ",
"Q Q I ' o.Q Q *.b 5 m P *.R C I Q Q Q *.P Q ~ ;.> N B C ;.' E . ",
"N B N x x B B { l 6 j Z m x k x N N N z n N Z { > i n m j Z m   ",
"% % % $ % % % & # + % % @ % @ % % % % $ $ % $ & + @ % ; ; % #   "
};
