/* XPM */
static char *Brown1711481215_13_1711991639[] = {
/* columns rows colors chars-per-pixel */
"64 64 232 2 ",
"   c #211E2F",
".  c #221F30",
"X  c #2B1F31",
"o  c #3E1E36",
"O  c #351E34",
"+  c #24202F",
"@  c #242131",
"#  c #2B2332",
"$  c #2E2B3C",
"%  c #2D2935",
"&  c #342233",
"*  c #3E2234",
"=  c #332B34",
"-  c #382B32",
";  c #362D3A",
":  c #38323E",
">  c #37343E",
",  c #4C1E3A",
"<  c #521E3C",
"1  c #442635",
"2  c #4B2436",
"3  c #4A2836",
"4  c #492638",
"5  c #5C2538",
"6  c #542B38",
"7  c #592937",
"8  c #433233",
"9  c #573D36",
"0  c #62253A",
"q  c #6C263B",
"w  c #6B2C3B",
"e  c #632B3B",
"r  c #7C293D",
"t  c #742A3C",
"y  c #69313C",
"u  c #7D343D",
"i  c #77363B",
"p  c #601F3D",
"a  c #5E4234",
"s  c #5F473D",
"d  c #7C5237",
"f  c #6C4737",
"g  c #3C3643",
"h  c #781C43",
"j  c #741F41",
"k  c #651E40",
"l  c #453E45",
"z  c #5B3347",
"x  c #772743",
"c  c #773744",
"v  c #663848",
"b  c #4F444A",
"n  c #48404B",
"m  c #564A4E",
"M  c #5A4A48",
"N  c #5C5152",
"B  c #584E53",
"V  c #664B4B",
"C  c #695857",
"Z  c #785757",
"A  c #744F50",
"S  c #75635D",
"D  c #68605E",
"F  c #5A5865",
"G  c #675265",
"H  c #7C6D65",
"J  c #7F7168",
"K  c #706E79",
"L  c #726272",
"P  c #6C686F",
"I  c #882A3E",
"U  c #85353E",
"Y  c #89363E",
"T  c #98383F",
"R  c #932C3F",
"E  c #A23B3F",
"W  c #834A38",
"Q  c #89583A",
"!  c #935E3A",
"~  c #96603B",
"^  c #9C643C",
"/  c #BC753D",
"(  c #B3713D",
")  c #A76A3C",
"_  c #CA6734",
"`  c #D46933",
"'  c #D46431",
"]  c #DA7538",
"[  c #C6773C",
"{  c #E07E3D",
"}  c #861D48",
"|  c #851C47",
" . c #9B1E4D",
".. c #A41F4C",
"X. c #892842",
"o. c #922B41",
"O. c #9B2B41",
"+. c #952446",
"@. c #983540",
"#. c #843747",
"$. c #AD2D44",
"%. c #A5204C",
"&. c #A82847",
"*. c #BB2E46",
"=. c #B3254B",
"-. c #BC2A4A",
";. c #B42B47",
":. c #A53B42",
">. c #AB3B43",
",. c #B83647",
"<. c #A22857",
"1. c #A22859",
"2. c #B73152",
"3. c #AE3B63",
"4. c #C22F46",
"5. c #C62D4A",
"6. c #CA2F49",
"7. c #CC3147",
"8. c #C6364B",
"9. c #CC3149",
"0. c #CD3C4A",
"q. c #C33747",
"w. c #D23549",
"e. c #D53B49",
"r. c #DA3E4A",
"t. c #D33947",
"y. c #874548",
"u. c #8C514C",
"i. c #BC4245",
"p. c #B2474E",
"a. c #96765B",
"s. c #8D6B50",
"d. c #96496B",
"f. c #B25076",
"g. c #B35E7F",
"h. c #B84A6B",
"j. c #8C7C6E",
"k. c #85746A",
"l. c #947F72",
"z. c #936C76",
"x. c #B7774B",
"c. c #C44346",
"v. c #CB4348",
"b. c #D6424B",
"n. c #DD4449",
"m. c #DA4849",
"M. c #D64646",
"N. c #C94357",
"B. c #E1464A",
"V. c #E44A4A",
"C. c #E34A47",
"Z. c #E5514E",
"A. c #E75953",
"S. c #E54F50",
"D. c #DC7C45",
"F. c #D26B4F",
"G. c #E96359",
"H. c #EB6D5E",
"J. c #C25974",
"K. c #EE7E6A",
"L. c #ED6F61",
"P. c #DA843F",
"I. c #E3873E",
"U. c #BE8453",
"Y. c #988675",
"T. c #8D806F",
"R. c #BF956B",
"E. c #A48A7B",
"W. c #A98E7D",
"Q. c #AB927D",
"!. c #AD997E",
"~. c #AC8665",
"^. c #DB8541",
"/. c #DF874B",
"(. c #C68550",
"). c #D48953",
"_. c #E68D42",
"`. c #E68E47",
"'. c #E4935A",
"]. c #E58F49",
"[. c #ECA45E",
"{. c #C3976A",
"}. c #C28D61",
"|. c #F18B72",
" X c #E99466",
".X c #EBA768",
"XX c #EFB77A",
"oX c #F2BB7E",
"OX c #F0B579",
"+X c #ECAE71",
"@X c #777580",
"#X c #837482",
"$X c #BA6083",
"%X c #BE698A",
"&X c #B76784",
"*X c #B8798C",
"=X c #97969E",
"-X c #8D8C94",
";X c #B39D85",
":X c #BA9B87",
">X c #AF9982",
",X c #BAA489",
"<X c #A7A4A8",
"1X c #BB95A2",
"2X c #C3A48C",
"3X c #C4A98E",
"4X c #C8AB91",
"5X c #D2AE94",
"6X c #CDB494",
"7X c #CFB896",
"8X c #D5B296",
"9X c #D5BC97",
"0X c #D5B599",
"qX c #D7BD9A",
"wX c #D9BC9B",
"eX c #D8B398",
"rX c #F2BC80",
"tX c #D193AB",
"yX c #D295AB",
"uX c #D1B1B1",
"iX c #CDB8C3",
"pX c #E2BCCB",
"aX c #D8CCD3",
"sX c #D8D8DA",
"dX c #D9D7DA",
"fX c #C2C1C6",
"gX c #E9CBD7",
"hX c #E4CDD7",
"jX c #ECD5DD",
"kX c #E1C3CF",
"lX c #FFFFFF",
"zX c #F5F6F5",
/* pixels */
"qXqXqXqXqXqXqXwXqXqXqXqXqXqXqXqXqXqXqXqXqXqXqXqXqXqXqXqXqXqXqXqXqXwXqXqXqXqXqXqXwXqXqXqXqXqXqXqXqXqXqXqXqXqXqXqXqXqXqXwXqXqXqXqX",
"qXqXqXqXqXqXqXqXqXqXqXwXqXqXqXqXqXqXqXqXqXqXqXqXqXqXqXqXqXqXqXqXqXwXqXqXqXqXqXqXqXqXqXqXqXqXqXqXqXqXqXqXqXqXqXqXqXwXqXqXqXqXqXqX",
"qXqXqXqXqXqXqXwXqXqXqXqXqXqXqXqXqXwXqXqXwXqXqXqXqXqXqXqXqXqXqXqXqXqXqXqXqXqXqXqXqXqXqXqXqXqXqXqXqXqXqXqXqXqXqXqXqXqXqXqXqXwXqXqX",
"qXqXqXqXqXqXqXqXqXqXqXqXqXqXqXqXqXqXqXqXqXqXqXqXqXqXqXwXwXqXqX8X9XqXwXwXqXqXqXqXqXqXqXqXqXqXqXqXqXqXqXqXqXwXqXqXqXqXqXqXqXqXqXqX",
"qXqXqXqXqXqXqXqXqXqXqXqXqXqXqXqXqXqXqXqXqXqXqXqXqXqXqXwXwXwX8X6X8X8XqXqXwXqXqXqXqXqXwXqXqXqXqXqXqXqXqXqXqXqXqXqXqXqXqXqXqXqXqXqX",
"qXqXqXqXqXqXqXqXqXqXqXqXqXqXqXqXwXqXqXqXqXqXqXqXwXqXwXqXwXwX8X5X8XeX0X0XwXwXwXwXqXqXqXqXqXqXqXqXqXqXqXqXqXqXqXqXqXqXqXqXqXqXqXqX",
"qXqXqXqXqXqXwXqXqXqXqXqXqXqXqXqXqXqXqXqXqXqXqXqXqXqXqXqXeXeX5X8X8X8XeX8XqXqXqXqXqXqXqXqXqXqXqXqXqXqXqXqXqXqXqXqXqXqXqXqXqXqXqXqX",
"qXqXqXqXqXqXwXwXqXqXqXqXqXqXqXqXqXqXqXqXqXqXqXqXqXqX9X9X8X6X8XeX8X8X6X8X0XqXqXqXqXqXqXqXwXqXqXqXqXqXqXqXqXqXqXqXqXqXqXqXqXqXqXqX",
"qXqXqXqXqXqXqXqXqXqXqXqXqXqXqXqXqXqXqXqXqXqXqXqXwX0X8X8XeXeX8XeX8X8X8XeXeX0X0XwXqXqXqXqXqXqXqXqXqXqXqXqXqXqXqXqXqXqXqXqXqXqXqXqX",
"qXqXqXqXqXqXqXqXqXqXqXqXqXqXqXqXqXqXqXqXqXqXqXqXqX9X8X8X5X5X8X8X8X8XeX5X8X8X9X0XqXwXqXqXqXqXqXqXqXqXqXqXqXqXqXqXqXqXqXqXqXqXqXqX",
"qXqXqXqXqXqXqXqXqXqXqXqXqXqXqXqXqXqXqXqXqXqXqXqX0X0X5X8XeX8X8X8X8X8X8X8X8X4XeXeXqXqXqXqXqXqXqXqXqXqXqXqXqXqXqXqXqXqXqXqXqXqXqXwX",
"qXqXqXqXqXqXqXqXwXqXqXqXqXwXqXwXqXqXqXwXwXwXqX0X5X0X8X8X8X8X8XeX8X8X8X8X8X8X8X8XqXwXwXwXqXqXqXqXqXqXqXqXqXqXqXqXqXqXqXqXqXwXwXwX",
"qXqXqXqXqXqXqXqXqXqXqXqXqXqXqXwXqXqXqXwXwXwX8XeX8X8X8X8X8X8X8X5X8X8X8X8XeX5XeX8X8X0XqXwXwXwXqXqXqXqXqXqXqXqXqXqXqXqXqXqXqXqXqXqX",
"qXqXqXqXqXqXqXqXqXqXqXqXqXqXqXwXqXqXqXwXwX0X8X5X8X5X8X8X8X8X8X8X8X8X8X8X8X8X5X8X6X8X0X0XwXwXwXqXqXqXqXqXqXqXqXqXqXqXqXqXqXqXqXqX",
"qXqXqXqXqXqXqXqXqXqXqXqXqXqXqXqXqXqXqX0X0X8X5X8X8X8X8X8X8X8X8XeX5XeX8X8X8X8X8X8X8X8X8X8XwXqXqXqXqXqXqXqX9XqXqXqXqXqXqXqXqXqXqXqX",
"qXqXqXqX9X,XY.Y.Y.,XqXqXqXwXqXqXqXqXqX9X8X5X8X8XeX8X8X8X8X8XeXeXeXeX8X8X8XeX8X8XeX8X5X6X0XqXqXqXqXqXqXqX9X7X,XY.Y.!.,XqXqXqXqXqX",
"qXqX9X9X7Xj.8 n l k.3XqXqXqXqXqXwXqX0XeXeX5XeX5X0X0X8XeX8X8X8X8X8XeX8X8X8X8XeXeX5X5XeXeX0X0XqXwXqXqXqXqXqX3XH l l b T.9XqXqXqXqX",
"qXqX7X,XY.S 7 6 6 Z Y.,X7XqXqX6X;XE.E.E.E.E.E.E.E.E.E.E.E.E.E.E.E.E.E.E.E.E.E.E.E.E.E.E.E.E.E.:X9XqXqX7X;Xl.V 6 2 6 S E.,XqXwX9X",
"qXqX6Xj.b W i.p.i.y.M k.3XqXqX;XS b b b b b b b b b b b b b b b b b b b b b b b b b b b b b M S ,X9XqX,XS V #.O.&.R c m j.7XwXqX",
"9X,XE.C 6 U i.v.B.@.7 A E.>X>Xj.V 3 3 3 3 3 3 3 3 3 3 3 3 3 3 3 4 3 3 3 3 3 3 3 3 3 3 3 3 3 2 V Y.>X;XY.V 0 R 7.;.&.r 3 Z !.,X9X",
"3Xk.N y.E u 7 T t.q.>.y.V B m A y.>.:.>.>.>.:.:.>.:.:.>.>.:.E p.:.:.>.:.:.p.E :.:.>.:.>.>.>.:.y.V B N V #.O.*.*.I 7 U E y.N T.4X",
"W.V 3 @.q.u 8 u $.q.n.E 6 * 1 y i.V.V.V.C.V.V.V.V.V.V.V.C.V.C.V.C.V.V.V.V.V.C.C.V.V.C.Z.Z.Z.V.p.7 1 * 7 R ;.$.$.t 8 U c.U 3 C !.",
"C y.@.u y W ^ d 0 R 0.,.O.o.T >.M.C.V.V.V.V.V.V.V.V.V.V.C.V.V.V.V.V.V.V.V.V.V.V.V.V.V.A.H.A.Z.M.p.T T T t 5 0 e W ^ W y U T y.C ",
"1 T i.i 8 ! _.Q # q *.7.7.e.B.V.V.C.V.V.V.V.V.C.V.V.V.V.V.V.V.V.V.V.V.V.V.V.V.V.V.V.V.G.|.L.Z.V.V.Z.Z.c.y = # = ~ /.Q - u c.Y & ",
"& 7 i W ^ U.[.S % q *.t.r.n.B.V.V.V.V.V.V.Z.V.V.V.V.V.V.V.V.V.V.V.V.V.V.V.V.V.V.V.V.V.A.G.A.V.A.G.H.L.F.p.U 3 - s..XU.~ Q i 3 # ",
"+ + 8 ^ ]..XoXa.% e *.t.B.V.V.V.V.V.V.V.V.V.V.V.V.V.V.V.V.V.V.V.V.V.V.V.V.V.V.V.V.V.V.V.V.V.C.G.K.|.|.K.G.c.y - a.oX[.I.! = + + ",
"- s ~ (..X+XrXa.+ q *.t.B.V.V.V.V.V.V.V.V.V.V.V.V.V.V.V.V.V.V.V.V.V.V.V.V.V.V.V.V.V.V.V.V.V.V.G.K.|.|.K.G.i.y ; ~.XX+X[.U.~ a # ",
"8 ^ ]..XXXrXXXs.# q 4.t.B.V.V.B.V.V.V.V.V.V.V.V.V.V.V.V.V.V.V.V.V.V.V.V.V.V.V.V.V.V.V.V.V.V.V.G.K.|.|.K.A.c.y ; a.XXoXoX[.I.~ - ",
"S Q ! s.a.s.a.y.t T t.r.C.C.V.V.V.V.V.V.V.V.V.V.V.V.V.V.V.V.V.V.V.V.V.V.V.V.V.V.V.V.V.V.V.V.V.Z.G.L.L.G.A.M.:.c u.a.a.a.s.! Z S ",
"!.C = % % % = t *.t.B.C.V.V.V.V.C.V.V.C.V.V.V.V.V.V.V.V.V.V.V.V.V.V.V.V.V.V.V.V.V.V.V.V.V.V.V.V.S.Z.S.S.V.C.m.c.i % % % = % S !.",
",XT.C g @ 1 e T t.r.r.n.C.V.V.V.V.V.V.B.e.8.8.8.0.8.8.8.8.8.v.n.V.V.V.V.V.V.V.V.V.V.V.V.V.V.V.V.V.V.V.B.0.8.8.,.r 2 O + a C Y.6X",
"qX7X!.N % t *.0.m.r.t.t.B.V.V.V.V.V.V.n.2.%.%.%.%.%.%.%.<.%.-.b.V.V.V.V.V.V.V.V.V.V.V.V.V.V.V.V.V.V.V.b.2.%.%... .} 1   D !.6X9X",
"wXwX2XC X r 6.r.B.n.r.r.B.V.V.V.S.B.0.0.J.%X%X%X%X%X%X%X%X%Xg.N.q.p.:.E :.E T :.E E :.:.:.T E E E >.q.N.J.%X%X%X%X%XG . Z 4XwXwX",
"wX0X,XC X I 7.r.B.B.B.B.V.V.V.V.S.B.2.3.tXjXjXgXjXjXjXjXjXjXyXh.X.0 1 1 4 1 1 4 3 3 1 1 3 1 1 3 1 0 o.h.yXjXjXjXjXhX#X@ S 4X0XwX",
"0X0X:XC X X.6.r.V.B.n.n.B.B.V.V.B.r.=.3.yXlXlXlXlXlXlXlXlXlXiXd.x V M M M M M M M M M M M M M M M V x d.iXlXlXlXlXzX-X@ H 2X0X0X",
"0X5X:XC # r 6.r.V.n.r.w.w.e.B.V.V.b.2.3.uXlXlXlXlXlXlXlXlXlXuXG v a.}.{.{.R.{.{.R.R.{.R.{.R.{.{.{.a.z G iXlXlXlXlXzX-X@ C 2X8X8X",
"eX5X,XG X r 6.r.B.r.w.6.6.e.B.B.V.b.-.3.tXgXgXgXgXgXgXgXkXaX<XC Z }..X.X+XOXXXrXrXoXoXoXrXXX+X+X+X(.Z D <XaXkXgXhXpX#X. H 4XeX5X",
"5XeX2XC X I 6.r.V.r.w.6.9.w.B.C.V.n.9.2.h.$X$X$X$X$X$X$Xz.L H Y.(.).D.D._..XrXXXoXoXoXoXoX X].D.D.(.U.E.J L z.$X$X$Xv   C 4X5XeX",
"5X2XE.N # x 5.e.B.n.e.w.w.e.n.V.C.B.r.7.=...............t O V }..XD.' ' ] '.+XXXoXoXoXOX+X'.] ` ' D..X{.V & j ..<. .p   V >X2X5X",
":Xk.m g X k =.9.C.B.n.r.b.B.B.V.V.C.n.r.5.-.-.-.5.;.-.-.r * s U.].] ` ] D.D./..XoXoXrX.X/.D.] ] ` D..X{.M * X.;.-.=.j   l N l.2X",
"W.V = & * x ..8.V.V.V.V.V.V.V.V.n.n.n.n.9.5.6.5.5.5.5.5.X.& a [ ] _ _ ] I.] ` '.oXoXoX'.` ] I.] _ [ .X{.V * R w.9.6.t + # O C W.",
"Z y.@.@.T >.8.e.V.V.V.V.V.V.S.b.8.2.2.;.;.=.=.=.&.%.=.=.x & a / [ W W / I.] ' '.oXoXoX'.` ` I.[ W Q (.(.s * R n.r.e.r . 6 r c A ",
"3 :.V.V.V.V.m.V.V.B.V.V.B.C.m.0.2.1.<.1.1.1.1.1.1.<.1.1.x O y / ) a 8 ^ P._ _ '.XXXXoX'._ ' P.^ 8 9 ( / a * E V.V.m.c + w 4.R * ",
"@.v.V.V.V.V.V.n.r.n.B.V.V.v.@.u.*XyXyXtXtXtXtXtXtXtXtXtX#Xg 9 / ( a - a W f d x.[.[.[.x.d d d a & 9 ( / a - T V.V.m.U . w *.$.I ",
"V.V.V.V.V.V.V.r.9.e.B.V.C.:.3 F fXlXlXlXlXlXlXlXlXlXlXlX<Xn a [ ( 9         = ! I.I.I.! % @ @ @ . 9 ( / a 1 T V.C.m.U + t 4.7.6.",
"V.V.B.r.r.r.r.9.;.8.B.V.C.p.3 g @X=X=X=X=X=X=X=X=X=X=X=XK > 8 f Q d d d d d Q ( I._._.( Q d d d d Q Q W i I i.C.V.n.u   t *.6.7.",
"V.V.B.r.7.6.9.-...-.n.V.V.:.3 @ $ $ $ $ $ $ $ $ g @ @ g % . @ # a ) P.P.P.^.P._.`.I._._.P.P.P.P.^.) 9 3 R 8.b.V.C.m.U   t 4.7.6.",
"r.n.r.w.7.-.-.=.=.8.B.V.C.:.1         @         .     . . . .   - d ~ ~ ~ ~ ~ ~ ) ^ ^ ~ ~ ~ ~ ~ ! Q i r ;.r.B.V.C.m.u . q 5.7.6.",
"w.9.w.7.6.=...=.5.w.B.V.V.>.3     . .     . . . .   . .     @   . = - - - - - - - - - - - - - - - 7 O.q.e.V.V.V.V.m.u   q 4.7.7.",
"+.o.o.o.R +.=.-.6.w.C.V.V.>.4 g F @XK K K K K K K K K K K K K K G z < , , , , , , , , , , , , , X 6 $.t.V.V.V.V.V.m.U + 6 I o.R ",
"o 1 o * , I 5.6.7.r.B.V.m.:.4 B <XsXsXsXsXsXsXsXsXsXsXsXdXdXdXdXuXd.| | | | | | | | | | | | | k O 6 >.C.V.V.V.V.C.m.c . & o o * ",
"M m m m V c R $.7.w.r.B.V.i.x Z 1XpXpXpXpXpXpXpXpXpXpXpXpXpXpXpXtXd.h h h h h h h j h h h h h q 5 u c.C.V.V.V.m.c.:.y.m m m m m ",
"W.W.W.W.E.Z , I 6.9.w.r.V.M.c.p.h.f.f.f.f.f.f.f.f.f.f.f.f.f.f.f.d.z O o o o o * o , O o 1 o o 0 @.v.m.V.V.V.V.M.#.6 u.E.W.Q.Q.Q.",
"eX8X8XeX3XS . t 5.9.6.w.b.B.V.b.2.=.&.&.%.%.....%.......%.......| p , , 1 , 2 , 2 2 2 2 2 2 2 r v.V.V.V.V.V.n.v.t % H 5X8X8XeX5X",
"8X8X8X8X3XZ . x 4.9.9.w.w.r.B.B.e.0.0.e.9.5.-.-.-.-.5.-.5.-.5.-.;.$.R R O.&.O.O.O.O.R O.R O.R $.M.V.V.V.V.B.r.q.w # k.5X8XeX8XeX",
"8X8X8X8X4Xk.l c &.*.6.9.w.e.B.V.V.V.V.b.*.$.$.$.$.$.$.$.$.$.$.$.$.$.$.$.$.$.$.$.$.$.$.$.$.$.*.q.m.C.V.V.n.b.q.&.c n j.5X8X5XeX8X",
"eX8XeXeX5X>XY.Z 5 o.4.w.n.B.B.V.C.B.r.7.X.5 5 5 5 5 5 5 5 5 5 0 5 5 0 5 5 5 5 5 7 5 5 5 5 5 5 Y 0.V.C.B.r.q.I z Z Y.>X5XeX8X8XeX",
"0X8X8X8X5XeX0XJ % w *.e.B.V.V.V.C.B.e.;.0 @ % g : : : : : : : : : ; : : : : : : ; % + # & & & y c.C.C.B.t.;.0 ; j.0X9X0XeX5X8XeX",
"8X8X8X8XeXwX9XJ % q *.e.C.V.V.C.V.B.t.;.e % N j.j.j.T.j.j.j.T.T.j.j.j.j.j.j.j.j.j.m @ 3 r I I $.M.V.C.n.t.$.0 ; j.qX0X0X8X5X0XeX",
"8X8X8X8X0XwX9XJ @ 0 *.e.B.V.V.V.C.m.0.$.w > j.qXqXqXqXqXqXqXqXqXwXwXqXqXqXqXqXqX0XH + w *.7.7.w.B.B.C.n.0.$.y g T.qXqX0X8X8X0X5X",
"5X8X0X0XqXqX9XJ @ q *.t.B.B.V.V.C.M.@.c Z j.!.qXqXqXqXqXqXqXqXqXqXqXqXqXqXqXqXqX7XH + t 4.7.7.w.e.e.e.q.T c Z j.,XqXqXwXwX0X8XeX",
"8X0X0XwXqXqX9Xk.% w *.t.B.C.V.V.C.,.7 g Y.wXwXqXqXqXqXqXqXqXqXqXqXqXqXqXqXqXqXqX7XH @ w 4.6.6.7.6.7.7.&.7 > T.qX9XqXqXqXwX0X0X8X",
"0X0XwXwX9X9X9X!.H A r I Y Y #.Y Y y.Z k.!.qXqXqXqXqXqXqXqXqXqXqXqXqXqXqXqXqXqXqXqXQ.H A x r t r t r r c Z k.,XqX9XqX9X9XqXqX0X0X",
"wXqXqXqXqXqXqX0X7Xk.: X X X # # & l Y.9X9XqXqXqXqXqXqXqXqXqXqXqXqXqXqXqXqXqXqXqXqX8X8Xk.; X # X X X # b Y.7X9XqXwX9X9XqXqXqXqX0X"
};
