/* XPM */
static char *Brown1711481215_12_1711991638[] = {
/* columns rows colors chars-per-pixel */
"64 64 226 2 ",
"   c #211E2F",
".  c #221F30",
"X  c #2C1F33",
"o  c #381E34",
"O  c #242232",
"+  c #2B2332",
"@  c #2D2938",
"#  c #322132",
"$  c #342A34",
"%  c #312D3B",
"&  c #3D2734",
"*  c #39333F",
"=  c #22202E",
"-  c #461E39",
";  c #5A1E3E",
":  c #551E3D",
">  c #422535",
",  c #492836",
"<  c #552A37",
"1  c #5F2639",
"2  c #572B39",
"3  c #453333",
"4  c #583D36",
"5  c #553837",
"6  c #62263A",
"7  c #6D263B",
"8  c #692E39",
"9  c #652D39",
"0  c #7D293D",
"q  c #77293C",
"w  c #693738",
"e  c #7B353C",
"r  c #631D3F",
"t  c #5B433B",
"y  c #694736",
"u  c #674536",
"i  c #784938",
"p  c #7C5239",
"a  c #3F3941",
"s  c #641C41",
"d  c #6E1C42",
"f  c #751C44",
"g  c #423B43",
"h  c #4A3248",
"j  c #553A45",
"k  c #4B2F45",
"l  c #772541",
"z  c #6B3447",
"x  c #783A46",
"c  c #753555",
"v  c #52474D",
"b  c #544A4E",
"n  c #5A4946",
"m  c #504651",
"M  c #674849",
"N  c #77474D",
"B  c #6C594B",
"V  c #6D5549",
"C  c #77534A",
"Z  c #635957",
"A  c #675857",
"S  c #7A5957",
"D  c #734A54",
"F  c #74645E",
"G  c #716157",
"H  c #5E5C69",
"J  c #5A5764",
"K  c #735B6E",
"L  c #786862",
"P  c #766975",
"I  c #8D2A3F",
"U  c #82293D",
"Y  c #83343E",
"T  c #8B353E",
"R  c #873B3D",
"E  c #94383F",
"W  c #972E3F",
"Q  c #A43B3F",
"!  c #864939",
"~  c #8A593A",
"^  c #975434",
"/  c #A45C38",
"(  c #9B633A",
")  c #A6693D",
"_  c #B16F3D",
"`  c #B7713D",
"'  c #D56A34",
"]  c #D56732",
"[  c #C1793E",
"{  c #CA7B3E",
"}  c #D97136",
"|  c #D9763C",
" . c #CD6631",
".. c #E07E3F",
"X. c #871D47",
"o. c #911B4B",
"O. c #9B1B4C",
"+. c #A31F4D",
"@. c #972C42",
"#. c #873441",
"$. c #9D3941",
"%. c #9A3541",
"&. c #872E40",
"*. c #AD2D44",
"=. c #AB224D",
"-. c #A52549",
";. c #BC2E46",
":. c #BE2B49",
">. c #B62A48",
",. c #AE3E42",
"<. c #A83744",
"1. c #B23E43",
"2. c #B93448",
"3. c #B4365C",
"4. c #CC2F49",
"5. c #C52E48",
"6. c #C3354B",
"7. c #CC3148",
"8. c #C83647",
"9. c #D33649",
"0. c #D53B49",
"q. c #D93E49",
"w. c #D53C47",
"e. c #C43C54",
"r. c #884347",
"t. c #8F4B49",
"y. c #BA4146",
"u. c #B34657",
"i. c #94745A",
"p. c #91684A",
"a. c #B77B4A",
"s. c #AD6E42",
"d. c #AE436D",
"f. c #B9587C",
"g. c #AD5373",
"h. c #826D66",
"j. c #83756A",
"k. c #8B766A",
"l. c #947D6E",
"z. c #937D71",
"x. c #946068",
"c. c #C14245",
"v. c #CC4447",
"b. c #DD4349",
"n. c #D84548",
"m. c #E1464A",
"M. c #E44A4A",
"N. c #E75A53",
"B. c #E6504F",
"V. c #DB7C46",
"C. c #D66C54",
"Z. c #EB685C",
"A. c #ED7966",
"S. c #C65870",
"D. c #D3823E",
"F. c #E2843D",
"G. c #E78D3F",
"H. c #958474",
"J. c #9C8777",
"K. c #89817F",
"L. c #B99269",
"P. c #A38B7B",
"I. c #A68B7C",
"U. c #A6927C",
"Y. c #B28A65",
"T. c #B6855A",
"R. c #D28A50",
"E. c #E68C42",
"W. c #E3935A",
"Q. c #E6924E",
"!. c #E9A15D",
"~. c #CB9F70",
"^. c #D59A64",
"/. c #EF856D",
"(. c #E69B61",
"). c #F18B72",
"_. c #EBA768",
"`. c #F2BC7E",
"'. c #F0B576",
"]. c #EEAE71",
"[. c #DDA66D",
"{. c #797880",
"}. c #BF6E8E",
"|. c #B36886",
" X c #AD7988",
".X c #9B6680",
"XX c #C67691",
"oX c #86858D",
"OX c #928A91",
"+X c #AD9882",
"@X c #B49B84",
"#X c #A88595",
"$X c #B6A088",
"%X c #BAA389",
"&X c #B8A086",
"*X c #B096A5",
"=X c #B5AFB7",
"-X c #C9839F",
";X c #C4A58D",
":X c #C4AD8E",
">X c #CBA98F",
",X c #CBAE92",
"<X c #D3AF95",
"1X c #CCB394",
"2X c #C7B091",
"3X c #D5B296",
"4X c #D4BB97",
"5X c #D5B598",
"6X c #D7BD9A",
"7X c #D9BD9B",
"8X c #D8BF97",
"9X c #F2BC80",
"0X c #DBACBE",
"qX c #DAA3B8",
"wX c #D9BEA0",
"eX c #CD89A2",
"rX c #C3C2C7",
"tX c #CAC3C9",
"yX c #D9C2CD",
"uX c #E3C1CF",
"iX c #EAD0DA",
"pX c #EDD6E0",
"aX c #EDD8E1",
"sX c #EBEBEB",
"dX c #F5EAEE",
"fX c #FFFFFF",
/* pixels */
"6X6X6X6X6X6X6X7X6X6X6X6X6X6X7X6X6X6X6X6X8XwX6X6X6X6X6X6X6X6X6X6X6X6X6X6X6X6X6X6X6X6X6X6X6X6X6X6X6X6X6X6X6X6X6X6X6X6X6X6X6X6X6X6X",
"7X6X6X6X6X6X6X6X6X6X6X6X6X6X6X6X6X8X6X6X6X6X6X6X6X6X6X6X6X7X7X7X6XwX6X7X6X6X6X6X6X6X6X6X6X6X6X6X6X6X6X6X6X6X6X6X6X6X6X6X6X6X6X6X",
"6X6X6X6X6X6X6X6X6X6X6X6X6X6X7X6X6X6X6X6X6X6X6X6X6X6X6X6X7X7X7X4X6X6X6X7X6X6X4X7X6X6X6X6XwX6X6X6X6X6X6X6X6X6X8X6X6X6X6X6X6X6X6X6X",
"7X7X6X6X6X6X6X6X6X6X7X6X6X6X6XwX6X6X6X6X6X6X6X6X6X6X6XwX7X7X4X4X4X4X7X7X6X6X6X6X6X6X6X6X6X6X6X6X6X6X6X6X6X6X6X6X6X6X6XwX6X8X6X6X",
"6X6X6X6X6X6X6X6X6X6X6X6X6X6X6X6X6X6X6X6X6X6X6X6X6X6X6X7X7X7X3X1X3X5X7X7X7X7X7X7X6X6X6X6X6X6X6X6X8XwX6X6X6X6X6X6X8X6X6X6X6X6X6X6X",
"6X6X6X6X6X6X7X6X6X6X6X6X6X6X6X6X6X6X6X6X6X6X6X6X6X6XwX7X7X4X3X<X3X3X3X4X7X7X6X7X6X6X6X6X6X6X6X6X6X6X6X6X6X6X6X6X6X6X6X6X6X6X6X6X",
"6X6X6X6X6X6X6X6X6X6X8XwX6X6X6X6X6XwX6X6X6X6X6X6X6X6X6X6X5X3X3X3X3X3X3X3X6X6X6X6X6X6X6X6X6X6X6X6X6X6X6X6X6X8XwX6X6X6X6X6XwX6X6X6X",
"6X6X6X6X6X4X+XH.H.H.+X1X6XwX8X6X6X6X6X6X8X6X6X6X6X6X6X1X3X<X3X3X3X<X3X1X5X6X6X6X6X6X6X6X6X6X6X6X8X6X6X6X%XJ.H.H.U.2X6X6X4X8X6X6X",
"6X6X6X6XwX1Xj.3 v * L %X7X6X6X6X8X7X8X8X4X6X6X6XwX7X5X3X3X3X3X3X3X<X3X3X3X5X4XwXwX4X6X4X6X6X6XwX6X6X6XwXz.v g g G +X7X7X6X6X6X6X",
"6XwX6X1X%XJ.S < < < C l.@X1X6X6X4X%XU.U.U.U.U.U.+XP.P.P.I.P.P.P.P.P.I.I.P.P.I.I.U.U.U.U.U.@X2X7X6X6X%XU.S 2 < < M k.+X:X6X6X6XwX",
"6X6X7X;XL Z r.,.y.y.r.M F @X6X6X1XH.b b v b b b m v v v v v m b v v v v b v v b b b b b v L @X7X6X1Xz.v x @.W W #.M Z +X6X6X6X6X",
"6X1X;XP.B , T c.c.b.Q 2 M H.$X$XU.F > > > > > > > > > > > > , > > > > > > > > > > > > & & M H.$X$XU.S > l 6.5.*.@.1 j k.%X2X4X6X",
"6X%Xj.B r.E Y w $.w.2.<.r.V Z Z A r.$.$.E $.$.<.%.%.$.$.$.$.$.$.$.$.$.$.$.$.E <.t.Q Q E <.r.C Z Z Z N I *.5.W q 7 T t.D G U.6X6X",
"1XJ.b < E c.e $ 7 *.8.b.1.9 X # > E M.M.M.M.M.M.M.M.M.M.M.M.M.M.M.M.M.M.M.M.M.M.M.M.B.B.M.1.9 # # > 0 5.;.;.I , 9 ,.1.w * h.2X1X",
"k.S r.Y Y e ! ~ i q W 8.2.W U T E y.M.M.M.M.M.M.M.M.M.M.M.M.M.M.M.M.M.M.M.M.M.M.M.N.Z.N.B.v.Q T T T 0 7 7 7 e ~ ~ e e #.#.C F P.",
"g < 1.c.w $ ~ G.~ $ 6 *.7.4.9.q.M.M.M.M.M.M.M.M.M.M.M.M.M.M.M.M.M.M.M.M.M.M.M.M.M.Z./.A.N.M.M.M.M.n.e   = = y [ _ 4 > $.n.e O F ",
"g & 8 R ! ~ T.!.p.$ 1 *.7.0.q.m.M.M.M.M.M.M.M.M.M.M.M.M.M.M.M.M.M.M.M.M.M.M.M.M.M.N.Z.Z.M.B.Z.Z.Z.N.u.w , + y R.R.p.p ! e < = G ",
"g . X 3 ^ R.!.'.i.$ 2 *.9.q.m.M.M.M.M.M.M.M.M.M.M.M.M.M.M.M.M.M.M.M.M.M.M.M.M.M.M.M.M.M.M.N.A./././.C.n.Y # B ~._.R.T.y # = = F ",
"g $ 4 p R.!._.`.i.$ 1 *.9.b.M.M.M.M.M.M.M.M.M.M.M.M.M.M.M.M.M.M.M.M.M.M.M.M.M.M.M.M.M.M.M.N.A.).)./.Z.M.Y # B ~.'.!.Q.( u 3 = F ",
"g 5 ( R.^.'.'.`.i.$ 1 *.9.m.M.M.M.M.M.M.M.M.M.M.M.M.M.M.M.M.M.M.M.M.M.M.M.M.M.M.M.M.M.M.M.Z.A./.)./.Z.M.T + Z ~.'.'._.R._ y O F ",
"G y p.s.T.L.L.L.p.2 l 2.q.m.M.M.M.M.M.M.M.M.M.M.M.M.M.M.M.M.M.M.M.M.M.M.M.M.M.M.M.M.M.M.M.N.Z.A.A.A.Z.M.Q 8 r.T.L.L.Y.T.) C n H.",
"+XH.B t t t n n x @.2.n.m.m.M.M.M.M.M.M.M.M.M.M.M.M.M.M.M.M.M.M.M.M.M.M.M.M.M.M.M.M.M.M.M.B.N.Z.N.N.B.M.v.1.t.M b t t t t h.U.%X",
"8X+XG g a * @ = 7 ;.0.m.M.M.M.M.M.M.M.M.M.M.M.M.M.M.M.M.M.M.M.M.M.M.M.M.M.M.M.M.M.M.M.M.M.M.M.M.M.M.M.M.M.M.<.> O a g g v H.8X8X",
"wX%XU.H.H.H.b = 7 ;.9.b.M.M.M.M.M.M.M.M.M.M.M.M.M.M.M.M.M.M.M.m.M.M.M.M.M.M.M.M.M.M.M.M.M.M.M.M.M.M.M.M.M.M.E , a F H.H.H.$X8X8X",
"wX8X8X4X1X%XL X 0 2.w.b.M.M.M.M.M.M.M.M.M.M.b.b.b.m.m.m.m.m.m.B.M.M.M.M.M.M.M.M.M.M.M.M.M.M.M.M.M.M.M.M.m.m.%., b J.1X4X6X6X6X6X",
"8X8XwX%XH.S N 0 *.w.q.q.q.m.M.M.M.M.M.M.M.b.6.2.2.:.2.3.:.:.v.m.M.M.M.M.M.M.M.M.M.M.M.M.M.M.M.M.M.M.M.M.v.2.-.f z B j.@X6X6X6X6X",
"6X6X8X%XZ # 0 7.q.m.b.7.9.b.M.M.M.M.M.M.m.8.=.O.O.O.O.O.O.O.;.m.M.M.M.M.M.M.M.M.M.M.M.M.M.M.M.M.M.M.M.B.e.+.O.O.l a a H.6X6X6XwX",
"6X6X4X%XZ # 0 7.q.M.b.b.b.m.M.M.M.M.M.b.8.S.XXeX-X-X-X-XeXeXS.e.2.E T E T T T T T T T T T T T T #.#.*.e.S.XXeXXX.Xj h z.6X6X6X6X",
"6X6X6X$XZ + 0 4.w.M.m.M.m.M.M.M.M.M.M.6.=.XXuXdXdXdXdXdXdXdXeX3.f - # # # # # # # # # # # # # # & > d +.XXdXdXdX=XJ g H.7X6X6X6X",
"6X6X8X$XZ # 0 4.q.m.b.b.q.b.b.m.M.M.M.6.+.}.iXfXfXfXfXfXfXfX*Xc z V B B B B B B B B B B B B B B B V z d  XdXfXfXrXH a H.wX6X6X6X",
"8X8X6X$XZ # 0 4.w.M.b.w.9.9.w.b.M.M.M.8.+.XXiXfXfXfXfXfXfXfX*Xk V T.~.~.~.~.~.~.~.~.~.~.~.~.~.~.~.~.S o OXsXfXfXrXH a z.6X6X6X6X",
"wX4X6X$XZ + 0 4.q.b.b.9.4.4.9.w.M.M.M.8.=.f.qXuXuXuXuXuXyXrXoXZ p.^._._._.'.`.`.`.`.`.9X9X'._.(._.W.i.n z.=XtXuX*XJ a z.1X6X6X6X",
"wX7X<X@XA # 0 4.q.m.b.9.4.4.9.q.M.M.M.q.4.3.f.f.|.|.f.f.h.H j.Y.R.C.V.V.E._.`.`.`.`.`.9X9X].Q.V.V.V.R.Y.k.H h.g.x.k g l.3X5X7XwX",
"7X<X@XJ.b X q 5.w.m.b.0.7.9.0.m.M.M.M.q.9.5.+.+.+.+.@.O.s O G _.W.V.] ] | W.].'.`.`.`.'.].W.V.] ] ] (.9Xi.$ : o.f o * L @X;X5X5X",
"3X@XL b * X d =.6.b.m.b.b.q.b.m.M.M.M.m.q.9.5.>.:.:.:.=.7 . p R.R.'  .} V.V.R.(.`.`.`._.W.V.D.| ] ] W.9Xi.$ 1 -.o., # v A P.3X5X",
">Xz.n # o > l +.2.b.M.M.M.M.M.M.M.M.M.M.M.b.9.8.4.4.7.2.7 . p D.|  . .D.E.} ' W.`.9X`.(.| ' F.F.}  .W.9Xi.$ 1 *.-., . X & h.;X>X",
"h.S r.T T T <.8.n.M.M.M.M.M.M.M.M.M.M.M.M.b.b.q.9.q.q.9.q = p D.` ! ^ { F.} ] W.`.`.`.(.} ] F.F.} ] W.`.i.$ 9 1.<.< X 1 l N L P.",
"h 2 ,.M.M.M.M.m.M.m.M.M.M.M.M.M.M.M.M.M.M.M.M.M.m.M.M.w.e   p D.) 3 5 _ F.} ] W.`.`.`.(.} ] ..F.| ] W.`.i.% 8 c.,.< > I 6.7   S ",
"N %.c.M.M.M.M.M.m.q.b.m.M.M.M.M.M.0.6.8.6.6.6.6.6.6.4.2.7 = p D.( 3 4 _ E.} ' W.`.`.`._.} } F.D./ ! a._.p.* w c.,.< > I 5.W 7 D ",
"1.n.M.M.M.M.M.M.q.9.0.m.M.M.M.M.b.2.+.+.+.+.+.+.+.+.+.O.;   p D.( 3 4 _ V.} ' W.`.`.`.W.| } D.D.i > ( E.~ $ 8 c.,.< & I 7.5.5.l ",
"c.M.M.m.m.q.q.b.9.:.7.b.M.M.n.y.t.g.}.}.}.}.}.}.XX}.}.|.c   p D.) 3 3 i ^ ^ ^ V._._._.R./ ^ ^ ~ 5 $ ~ G.~ # 8 c.,.< > I 4.4.4.U ",
"c.M.m.m.q.w.9.9.:.=.;.n.M.M.c.e j #XpXpXpXaXaXaXpXpXpXyX{.  i R.( 3 + & 3 3 5 ( Q.Q.Q._ t & 3 & + $ ~ G.~ $ 8 y.,.< > I 4.4.4.0 ",
"2.m.m.w.7.4.5.5.>.=.5.n.M.M.y.8 % {.tXrXrXrXrXrXrXrXtX=X{.o x ) ~ y t 4 4 4 y ) G.E.G._ i t 4 t t u ~ _ ! < Y v.,.< - I 4.4.4.0 ",
"1.9.9.9.9.4.>.+.=.:.8.b.M.M.c.9 + g H H H H H H H H H H c f 7 4 p ( _ _ _ _ ` { E.G.E.D.` _ _ ` ` ( p t e W 2.n.1.< > I 4.4.4.0 ",
"@.*.*.*.*.*.-.+.>.4.9.b.M.M.y.9 . X o o o o o o o o o o d O.f o u ) [ [ [ [ [ [ [ [ [ [ [ [ ` [ ` ` ! > U 8.w.m.1.< & 0 *.*.*.e ",
"z 6 1 1 6 6 I 5.5.4.9.m.M.M.c.w X - d d d d d d d d d d X.O.X.f 7 u y w y y y y y y u u y y u u y y e I *.0.m.m.,.< X , 1 1 6 N ",
"v % % @ . # U 4.4.4.w.m.M.M.8.9 X ; o.o.o.o.o.o.o.o.o.o.o.o.o.o.7 > X X X X X X O @ + X X + X X   # 0 w.q.M.M.M.,.< . + % % $ L ",
"z.L h.L 3 o 0 5.4.4.w.m.M.M.c.8 . - : ; ; ; ; : ; ; : ; ; ; ; ; ; r r r r r r r s s 6 s s s s ; o # Y w.M.M.m.m.1.< % Z h.h.j.I.",
"5X3X3X@XZ X 0 4.4.4.9.m.M.M.c.8               . . . .     . . . : X.O.O.O.O.O.O.O.O.O.O.O.O.O.X.: # T M.M.M.M.M.y.< g z.3X3X3X3X",
"5X3X<X@XA + U 4.4.4.9.m.M.M.c.8 @ J oXoXoXoXoXoXoXoXoXoXoXoXoXoXK z s s s s s r s s s s s s r d q Y / M.M.M.M.M.,.< g z.3X<X3X3X",
"3X3X3XU.Z # q 4.4.4.9.m.M.M.c.8 a OXsXsXsXsXsXsXsXsXsXsXsXsXsXsX*Xm X X X X + X X X X X X X X , W m.q.m.M.M.M.M.,.2 g z.3X3X3X3X",
"3X3X3X;Xk.D x I *.4.9.q.b.M.v.E z  X0X0X0X0X0X0X0X0X0X0X0X0X0X0X XD 8 8 8 8 8 8 8 8 8 8 8 9 w Y y.M.M.m.M.M.v.,.#.V F U.3X3X3X3X",
"3X3X3X<X;XI.S - U ;.7.7.w.m.b.v.y.u.d.g.d.d.d.d.d.d.d.d.d.d.d.d.d.u.c.c.8.y.c.c.y.c.c.c.c.c.y.c.n.M.M.M.M.M.,.9 z l.;X>X3X3X3X3X",
"3X3X3X3X<X>XL . 7 ;.7.7.9.q.b.M.b.8.>.=.=.=.=.+.+.+.=.=.=.=.=.+.6.q.m.m.m.m.m.b.m.b.b.m.b.b.m.m.m.M.M.M.m.m.W > v I.<X3X3X3X5X3X",
"3X3X3X3X3X;XS . 7 ;.7.7.7.9.w.m.b.n.0.8.5.5.:.:.5.5.:.:.:.:.5.:.5.9.9.9.9.9.9.9.9.9.9.9.9.9.9.q.m.M.M.M.b.w.W > v P.3X3X3X3X3X3X",
"3X3X3X3X3X>Xh.g e W ;.7.7.7.0.b.M.M.b.8.>.*.*.*.*.*.*.*.=.*.*.*.*.*.*.*.*.*.*.*.*.*.*.*.*.*.*.2.w.M.M.m.8.*.Y j A U.3X3X3X3X3X3X",
"<X3X5X<X<X,X@XH.S 8 &.>.9.0.b.m.M.b.9.%.7 6 1 6 1 1 1 1 1 1 6 2 6 1 1 1 1 1 1 1 1 1 1 1 1 6 1 q 1.M.q.0.W 7 D k.+X;X3X<X3X3X3X<X",
"3X<X5X3X3X5X4X6Xj.% 1 *.0.b.M.M.m.q.4.0 # O % % % % % % % % * % % % % * % % % % % O O O + # # , Q m.q.4.U X Z $X7X5X5X3X3X3X3X3X",
"3X5X3X3X5X7X6X6Xj.% 6 *.9.b.M.M.M.q.7.0 # g L j.j.j.j.j.j.j.j.j.j.k.L j.L j.j.j.L Z @ > 7 0 0 @.8.b.q.4.0 # A $X7X6X6X5X5X<X3X3X",
"3X3X3X5X5X7X8X6Xj.% 1 *.9.m.M.M.m.q.7.0 # Z $X6X6X6X6X6X6X6X6X8X4X7X7X7XwX6X6XwX6Xj.% 1 *.7.7.9.n.M.q.4.0 # A @XwX6X8X5X5X3X3X3X",
"3X<X5X7X6X6X4X6Xj.% 1 *.9.m.M.M.n.<.0 N F H.2X6X6X6X6X6X6X6X6X6X6X6X6X6X8X8XwXwX6XL * 1 *.7.4.7.w.w.<.0 N F J.:X4X6X6X6X5X5X3X3X",
"<X5X7X7X6X4X8X6Xj.% 1 *.9.m.M.M.n.#.# F %X1X4X6X6X6X6X6X6X6X6X6X6X6X6X6X8X8X6X6X8Xj.% 1 *.4.7.4.9.;.q X F %X1X4X6X8X8X6X7X7X3X<X",
"5X5X7X7X8X8X6X6XP.G N Y @.%.%.$.%.N Z H.1X6X6X6X6X6X6X6X6X6X6X6X6X6X6X6X6X6X6X6X6XU.A N Y I I I I &.N A H.1X6X6X6X6X4X8X6X7X5X5X",
"7X6X7X6X6X6X6XwX2X$Xk.j > > > > 5 h.%X:X6X6X6X6X6X6X6X6X6X6X6X6X6XwX6X6X6X6X6X6X7X2X&Xk.j > - > > , h.@X2X4X6X6X7X7X6X6X6X7X7X7X"
};
