/* XPM */
static char *Brown1711481215_10_1711991638[] = {
/* columns rows colors chars-per-pixel */
"64 64 225 2 ",
"   c #221F30",
".  c #2E1F32",
"X  c #3A1D35",
"o  c #211E2F",
"O  c #2B2432",
"+  c #292533",
"@  c #3C2433",
"#  c #362735",
"$  c #312D37",
"%  c #441D38",
"&  c #4A1F3A",
"*  c #591E3E",
"=  c #432435",
"-  c #4D2336",
";  c #482837",
":  c #532538",
">  c #5A2539",
",  c #5D2C38",
"<  c #552A37",
"1  c #493533",
"2  c #453A3E",
"3  c #4A3836",
"4  c #5B3F34",
"5  c #553834",
"6  c #622C39",
"7  c #69283A",
"8  c #752C3D",
"9  c #76343B",
"0  c #6A3739",
"q  c #5B443A",
"w  c #674737",
"e  c #764A35",
"r  c #7B5038",
"t  c #3A3640",
"y  c #791C45",
"u  c #731F41",
"i  c #483E46",
"p  c #413B45",
"a  c #573A44",
"s  c #462840",
"d  c #7B2244",
"f  c #633C46",
"g  c #622D4B",
"h  c #5F1E40",
"j  c #4B4549",
"k  c #45414B",
"l  c #56464A",
"z  c #4A4755",
"x  c #5B4E51",
"c  c #504E5B",
"v  c #5C5252",
"b  c #55515F",
"n  c #6C464D",
"m  c #65494C",
"M  c #675349",
"N  c #694E52",
"B  c #645555",
"V  c #695655",
"C  c #744F4E",
"Z  c #6D625D",
"A  c #71645E",
"S  c #64626F",
"D  c #6C6366",
"F  c #786A64",
"G  c #736773",
"H  c #77576C",
"J  c #8D2D3F",
"K  c #82293C",
"L  c #9D3A3F",
"P  c #93383F",
"I  c #902E3E",
"U  c #8B5339",
"Y  c #955D3A",
"T  c #B65E33",
"R  c #98623B",
"E  c #A96B3B",
"W  c #BE6838",
"Q  c #BD763E",
"!  c #B6723D",
"~  c #D66931",
"^  c #DA7A3B",
"/  c #C2783D",
"(  c #821B46",
")  c #8C1F48",
"_  c #A51F4C",
"`  c #8C2344",
"'  c #952B41",
"]  c #9D2B42",
"[  c #9D2646",
"{  c #863444",
"}  c #993741",
"|  c #803659",
" . c #A52C43",
".. c #AB2C45",
"X. c #A7204B",
"o. c #AB244C",
"O. c #B42A4C",
"+. c #BE294A",
"@. c #B72A47",
"#. c #A53A41",
"$. c #AB3D43",
"%. c #AC3243",
"&. c #B53745",
"*. c #BC3657",
"=. c #8D3D60",
"-. c #C32C49",
";. c #C82F47",
":. c #CC3148",
">. c #C73648",
",. c #D13648",
"<. c #D43B49",
"1. c #D93E4A",
"2. c #D13646",
"3. c #8C4347",
"4. c #8B4548",
"5. c #924144",
"6. c #B34144",
"7. c #BE4145",
"8. c #BB434D",
"9. c #AA4449",
"0. c #956A50",
"q. c #AF7243",
"w. c #B77643",
"e. c #934A6A",
"r. c #AC426A",
"t. c #B1476F",
"y. c #B84666",
"u. c #B95B7F",
"i. c #BA587B",
"p. c #B05072",
"a. c #836F68",
"s. c #8A7A6C",
"d. c #87746A",
"f. c #94786D",
"g. c #977E71",
"h. c #826377",
"j. c #AB607F",
"k. c #C44347",
"l. c #CB4347",
"z. c #D44547",
"x. c #D5424B",
"c. c #DC434A",
"v. c #DB4648",
"b. c #CD4253",
"n. c #E1464A",
"m. c #E44A4A",
"M. c #E34947",
"N. c #E6524F",
"B. c #E65551",
"V. c #E85B54",
"C. c #C37B45",
"Z. c #DB7B45",
"A. c #CC684D",
"S. c #EA665B",
"D. c #ED7766",
"F. c #C15370",
"G. c #E1833D",
"H. c #D8853F",
"J. c #B7875F",
"K. c #998274",
"L. c #9C816A",
"P. c #AD8965",
"I. c #B78D65",
"U. c #A28879",
"Y. c #A18476",
"T. c #A5937D",
"R. c #AA927D",
"E. c #CF8B52",
"W. c #E78D42",
"Q. c #E28D56",
"!. c #E89B56",
"~. c #CA9562",
"^. c #CB9F70",
"/. c #DE9960",
"(. c #F18B72",
"). c #E89267",
"_. c #D2A472",
"`. c #CAA070",
"'. c #ECAC6E",
"]. c #EAA469",
"[. c #EDAE72",
"{. c #EFB577",
"}. c #F2BC7E",
"|. c #F1B675",
" X c #EFB06B",
".X c #BB6486",
"XX c #AA6582",
"oX c #B49C85",
"OX c #BE9F8A",
"+X c #B69884",
"@X c #AE928E",
"#X c #B6A188",
"$X c #BCA389",
"%X c #B9A487",
"&X c #B399A7",
"*X c #B5B4B8",
"=X c #98979E",
"-X c #C3AC8E",
";X c #C2A38C",
":X c #CDAD92",
">X c #C6AE91",
",X c #D2AF95",
"<X c #CBB393",
"1X c #D5B296",
"2X c #D5BB97",
"3X c #D5B598",
"4X c #D7BD9A",
"5X c #D9BC9B",
"6X c #D8B297",
"7X c #C9B18F",
"8X c #D493A7",
"9X c #D9BEA0",
"0X c #D5A3B5",
"qX c #BFBEC3",
"wX c #DEB3C4",
"eX c #DFB9C6",
"rX c #E1BBCA",
"tX c #D5D3D6",
"yX c #D2C8D0",
"uX c #EACEDA",
"iX c #E2C8D3",
"pX c #E6D6DD",
"aX c #EED7E1",
"sX c #F0D6E1",
"dX c #FFFFFF",
/* pixels */
"4X4X4X4X4X4X4X4X5X4X4X4X4X4X4X4X4X4X4X4X4X4X4X4X4X4X4X4X4X4X4X4X4X4X4X4X4X4X4X4X4X4X4X4X4X4X4X4X4X4X4X4X4X4X4X4X4X4X4X4X4X4X4X4X",
"4X4X4X4X4X4X4X4X4X4X4X4X4X5X4X4X4X4X4X4X4X4X4X4X4X4X4X4X4X4X4X4X4X4X4X4X4X4X4X4X4X4X4X4X4X4X4X4X4X4X4X4X4X4X9X4X4X4X4X4X4X4X4X4X",
"4X4X4X4X4X4X4X4X4X4X4X4X4X4X4X4X4X4X4X4X4X4X4X4X4X4X4X4X4X4X4X2X4X4X4X4X4X4X4X4X5X4X4X4X4X4X5X4X4X4X4X4X4X4X4X4X4X4X4X4X4X4X4X4X",
"4X4X4X4X4X4X4X5X4X4X4X4X4X4X4X4X4X4X4X4X4X4X4X4X4X4X5X4X5X4X4X2X3X4X5X5X4X4X4X4X4X4X4X4X4X4X4X4X4X4X4X4X4X4X4X4X4X4X4X4X4X4X4X4X",
"4X4X4X4X4X4X5X5X4X4X4X4X4X4X4X4X4X4X4X4X4X4X4X4X4X4X4X4X4X5X3X1X1X1X4X4X5X4X4X4X4X4X4X4X4X4X4X4X4X4X4X4X4X4X4X4X4X4X4X4X4X4X4X4X",
"4X4X4X4X4X4X4X4X4X4X4X4X4X4X4X4X4X4X4X4X4X4X4X4X4X4X4X5X5X5X1X,X1X1X1X4X5X5X4X5X4X4X4X4X4X4X4X4X4X4X4X4X4X4X4X4X4X4X4X4X4X4X4X4X",
"4X4X4X4X4X4X4X4X4X4X4X4X4X4X4X4X4X4X4X4X4X4X4X4X4X4X4X4X1X1X1X1X1X1X1X3X4X4X4X4X4X4X4X4X4X4X4X4X4X4X4X4X4X4X4X4X4X4X4X4X4X4X4X9X",
"4X4X4X4X4X4X4X4X4X4X4X4X4X4X4X4X4X4X4X4X4X4X4X4X4X4X5X3X1X1X,X1X1X,X,X1X3X4X4X4X4X5X4X4X4X4X4X4X4X4X4X4X4X4X4X4X4X4X4X4X4X4X4X4X",
"4X4X4X4X4X4X4X4X4X4X4X4X4X4X4X4X4X4X4X4X4X4X4X4X9X4X3X1X6X1X1X6X1X1X1X1X1X3X4X9X2X4X4X4X4X4X4X3X4X4X4X4X4X4X4X4X4X4X4X4X4X4X4X4X",
"4X4X4X4X4X4X4X4X4X4X4X4X4X4X4X4X4X4X4X4X4X4X4X4X4X3X1X,X,X6X1X1X1X1X6X,X1X1X3X4X4X4X4X4X4X4X4X4X4X4X4X9X4X4X4X4X4X4X4X4X4X4X4X4X",
"4X4X4X4X4X4X4X4X4X4X4X4X4X4X4X4X4X4X4X5X4X4X4X4X1X1X1X1X1X6X1X1X1X1X1X1X,X1X1X3X4X4X4X4X4X4X4X4X4X4X4X4X4X4X4X4X4X4X4X4X4X4X4X4X",
"4X4X4X4X4X4X4X4X4X4X4X4X9X4X4X4X4X4X4X5X4X5X4X3X1X1X,X1X1X1X1X1X1X1X1X1X1X1X1X1X3X4X5X9X4X4X4X4X4X9X4X4X4X4X4X4X4X4X4X4X4X4X4X4X",
"4X4X4X4X4X4X4X4X4X4X4X4X4X4X4X4X4X4X4X5X5X5X3X1X1X1X1X1X1X1X1X1X1X1X1X1X1X,X6X6X1X1X5X5X5X5X4X4X4X4X4X4X4X4X4X4X4X4X4X4X4X4X4X4X",
"4X4X4X4X4X4X4X4X4X4X4X4X4X4X4X4X4X4X4X5X5X3X1X,X1X,X1X1X1X1X1X1X1X1X1X1X1X6X,X1X,X1X3X4X5X4X4X4X4X4X4X4X4X4X4X4X4X4X4X4X4X4X4X4X",
"4X4X4X4X4X4X4X4X4X4X4X4X4X4X4X4X4X2X4X2X1X1X1X,X1X1X6X1X1X1X1X6X6X1X1X1X1X1X1X6X1X1X,X3X5X4X4X4X4X4X4X4X4X4X4X4X4X4X4X4X4X4X4X4X",
"4X4X4X4X4X4X4X4X4X4X4X4X4X4X4X9X4X4X4X3X1X1X1X1X6X1X1X1X1X1X6X6X6X6X1X1X1X1X1X1X1X1X,X<X3X5X4X4X4X4X4X4X4X4X4X4X4X4X4X4X4X4X4X4X",
"4X4X4X4X4X4X4X4X4X4X4X4X4X4X4X4X9X4X3X1X1X1X1X6X1X1X1X1X1X1X1X1X1X1X1X1X1X1X1X1X6X1X,X6X1X3X4X5X4X4X4X4X4X4X4X9X9X4X4X4X4X4X4X4X",
"4X4X4X4X9X4X2X2X-X-X-X2X4X4X4X4X9X3X1X1X,X6X1X1X1X1X1X1X1X1X1X1X1X1X1X1X1X1X3X1X1X1X6X1X1X1X1X5X4X4X4X4X2X$X-X$X7X4X4X4X4X4X4X4X",
"4X4X4X4X2X2X7Xs.V B F oX4X4X4X2X<X3X1X,X6X1X1X1X1X1X1X1X1X6X1X1X1X6X1X6X1X6X1X1X1X1X1X1X1X,X1X3X2X2X4X4XoXF B Z K.$X4X4X4X4X4X4X",
"4X4X4X4X2X7XT.x . @ l g.>X3X4X3X:X;XOXOXOXOXOXOX;X$X$X$XOXOXOXOXOXOXOX$XOXOX$X$XOXOXOXOXOX$X;X,X2X2X2X2Xg.q # @ x T.7X2X9X4X4X4X",
"4X4X4X4X-Xs.N { J J { n F oX3X3XOXa.B V B B B B B B B B B B B V B B B V B B B V B B B B V B d.OX2X2XoXF C 5.} #.4.V s.-X4X4X4X4X",
"4X4X3X>XR.M : { @.;...7 a f.OX+XY.x @ @ @ @ @ @ # @ @ @ @ @ @ @ @ @ @ @ @ @ @ # @ @ @ @ @ @ x Y.R.OXK.5 8 k.v.l.L < M R.7X2X4X4X",
"4X4X-Xs.V 4.P 8 8  .-. .{ n B B C 3.L L L } L L L L L L L L #.L L L L L L L L L L L } #.#.} 5.N V B C 5.$.>.&.K 9 P 4.V K.-X4X4X",
"2X>XR.M < } 6.0 < J &.@.] 6 @ @ , &.m.N.B.m.m.m.m.m.m.m.m.m.m.m.m.m.m.m.m.m.m.m.m.m.m.m.m.m.$., = @ 7 k.x.@.{ 5 0 $.P < x T.>X2X",
"-Xs.N 4.P 9 0 U Y 9 , > 7 P } L 6.l.B.S.S.B.m.m.m.m.m.m.m.m.m.m.m.m.m.m.m.m.m.m.m.m.m.m.M.m.z.9.L '  .;.%.8 0 Y U 9 9 P 4.V s.-X",
"%Xv @ P 6.0 q ! C.q   X , 8.B.B.N.m.B.D.D.V.m.m.m.m.m.m.m.m.m.m.m.m.m.m.m.m.m.m.m.m.m.m.m.m.m.m.1.<.2.:.I @ w / ! q 0 6.P @ v %X",
"%Xv O < 0 Y E /.~.w @ 9 6.A.D.D.S.B.N.V.V.N.m.m.m.m.m.m.m.m.m.m.m.m.m.m.m.m.m.m.m.m.m.m.m.m.m.m.n.n.1.2.I % m ~.E.q.U 9 < O v $X",
"%XM   $ q q.!. X^.M = $.N.D.(.(.(.V.M.M.m.m.m.m.m.m.m.m.m.m.m.m.m.m.m.m.m.m.m.m.m.m.m.m.m.M.m.m.M.M.n.2.I % M ^. X!.w.q $ + v $X",
"#Xv $ r q./. X}.^.M ; $.B.D.(.(.D.S.m.m.m.m.m.m.m.m.m.m.m.m.m.m.m.m.m.m.m.m.m.m.m.m.m.m.m.m.m.M.M.M.c.,.' = M `.|. X~.! r $ v %X",
"%XA q R E.~._._.I.m 6 $.B.D.(.D.D.B.m.M.m.m.m.m.m.m.m.m.m.m.m.m.N.m.m.m.m.m.m.m.m.m.m.m.m.m.m.m.m.M.n.<. .< m I._._.~.E.R q A -X",
"<XoXL.V w w M M M 5.$.z.m.V.S.S.V.N.m.m.M.m.m.m.m.m.m.m.m.m.m.m.m.m.m.m.m.m.m.m.m.m.m.m.m.m.m.m.m.m.n.c.>.] P C M M M w C s.oX<X",
"9X4X#XZ $ + + + : #.c.v.c.m.n.n.M.n.m.m.m.m.M.m.m.m.m.m.m.m.m.m.n.c.x.v.v.x.x.v.c.c.n.n.m.m.m.m.m.m.n.n.z.,.] : # O $ $ A $X4X2X",
"5X5X-X@Xa.i . h ( [ O.O.*.x.m.m.m.m.m.m.m.m.m.M.m.m.m.n.m.m.m.m.x.>.O.O.O.O.O.O.@.O.>.x.n.m.m.m.m.m.c.1.<.1.>.] 8 X i a.@X:X5X5X",
"4X6X,X1X+Xx @ | r.r.r.r.y.b.z.l.k.k.k.k.k.k.k.k.k.k.k.k.k.k.l.<.>.y.r.r.r.r.r.r.r.r.y.<.c.m.m.m.m.m.c.<.1.n.c.,.' @ N +X:X1X3X4X",
"1X1X,X,X+Xx t =XwXwXwXwX8XF. .d 6 6 6 6 6 6 , 6 6 6 6 6 6 6 8 [ i.8XwXwXwXwXwXwXrXwX8Xy.>.c.n.m.m.M.n.n.n.n.1.,.' @ x +X1X1X1X3X",
"1X1X1X,X+Xx z *XdXdXdXdXuXXXd a 2 2 2 2 2 2 2 q 2 2 2 2 2 i a d p.iXdXdXdXdXdXdXdXdXrXp.o.x.N.m.m.n.n.n.n.M.n.,.' @ x +X1X,X1X1X",
"1X1X1X,X+Xx z qXdXdXdXdXpXh., 0.P.P.P.P.P.P.P.J.P.P.P.P.P.P.0.a H yXdXdXdXdXdXdXdXdXrXp.O.x.m.m.n.1.,.<.1.n.c.,.' @ v +X1X1X1X,X",
"1X1X1X6X@Xx k &XaXaXaXtX*XF M I.'.'.[.}.}.}.2X|.}.}.|.|.'.'.~.N D *XtXaXpXsXaXaXsXsX0Xt.O.x.m.m.c.,.:.:.,.n.c.,.' = v +X1X1X1X1X",
",X1X1X1XoXx t e..X.XXXh.G f.I.E.Z.Z.Q.'.}.}.}.}.}.}.'.Q.Z.Z.E.I.Y.F G XX.X.X.X.X.X.Xi.*.:.c.m.m.1.,.:.:.<.n.c.,.' @ x +X1X1X1X6X",
"6X1X:X;XK.l X y _ _ ` - i I.].Z.~ ~ Z.!.[.{.}.}.}.'.].Z.~ ~ Z./.J.l = ( _ _ _ X._ _ o.-.<.n.m.m.n.<.,.,.<.n.1.:.' X l K.OX:X6X,X",
"1X6X;Xa.l $ @ ` -.+.[ : 3 I.].Z.~ ^ G.W.E.'.}.}.'.Q.Z.G.^ ~ ~ W.w.q = ' +.+.+.+.+.+.-.<.c.m.m.m.m.n.c.c.n.m.<.O.( X $ l a.;X1X1X",
",XOXK.m @ . = ] ,.,...< 3 P./.C.T ^ G.~ Z.).}.}.].Z.~ G./ ~ ~ ^ w.5 - [ -.-.-.-.-.-.:.<.c.x.c.n.m.m.m.m.m.m.b.O.` : ; ; N K.OX,X",
";Xa.m { ` ; = } c.v.&.< 3 q.E.U e ! G.~ Z.].}.}.'.Z.~ G./ r e / w.5 % ` o.o.o.o.o.o.o.O.O...+.v.m.m.m.m.m.m.c.<.&.$.$.$.3.m a.;X",
"K.n > ] ..> = $.M.M.k., 3 E w.4 @ Y Q T W /. X|./.Q T W R 1 5 ! ! 3 ; =.t.t.t.t.t.t.t.t.t.t.y.*.l.c.m.m.n.n.m.m.N.m.m.m.&.6 N Y.",
"m K  .+...> ; #.m.m.>., 1 E Q q O 1 4 4 e C.!.!.E.r 5 4 1 O 5 ! ! 1 c &XeXeXeXyXeXrXeXrXrXrX&XH { l.m.m.c.<.1.c.m.m.m.m.z.6.4.m ",
"@ I :.:...: = #.m.m.k.9 5 Y E w 1 1 1 3 w Q W.W.Q e 1 1 1 1 w R Y 1 c &XtXtXtXtXtXtXtXtXtXtX=Xt , 7.m.m.c.:.:.c.n.n.n.n.M.M.#.@ ",
"@ I :.:...< = #.M.M.z.&.I 0 e R E E E E Q H.W.G.H.Q E E E E Y e 1 # $ b S S S S S S S S S S c t , 7.m.m.,.O.O.:.<.<.1.n.m.m.#.@ ",
"% I :.:...< = #.M.M.n.1.&.7 , R / / w.Q Q Q C./ Q Q / Q / Q 0.1     + o                 o o o o , 7.m.m.<.@.o.+.;.;.,.c.n.n.L = ",
"% I ,.:...> = $.M.M.m.c.x.%.{ 0 4 4 4 4 4 4 4 4 4 4 4 4 4 4 1 $ o o o o o o o o                 , 7.n.m.c.-.+.o.@.-.:.,.,.,.' @ ",
"a K ....J : = #.m.M.m.m.c.<.@.< o X X X X X X X % X X X % X ; i c c c c c c c z c c c c c b i + , 7.m.m.c.2.+.o.X.o... .....{ a ",
"f.n : - - O = #.M.m.m.m.n.M.&., . h y y y y y y y y y y y y =.&XqXqXqXqXqXqXeXqXqXqXqXqXqXqX=Xi , 7.m.m.v.2.;.-.] 7 : : : : n g.",
"OXF i i i i l } k.v.m.m.m.M.k.9 : u ( ( ( ( ( ( ( ( ( ( ( ( e.0XuXpXuXuXpXpXuXuXuXuXuXuXuXpX&XN 9 k.n.n.1.:.-...{ a i i i i F OX",
":X+XU.U.U.U.f.n 9 &.M.M.M.m.v.7.P 6 % % % % % % % % % % % % 7 e.u.u.u.u.u.u.u.u..X.X.Xp..X.Xt.9.k.z.n.<.,.:. .7 n g.U.U.Y.U.+X:X",
",X,X1X1X1X1X+Xx ; #.n.n.m.m.m.m.>.8 = - - = - ; % - - & = - h ` _ X._ X.X._ _ X._ _ _ _ o.o.+.z.M.n.1.,.:.:.' = m R.1X1X,X1X6X,X",
"1X1X,X6X1X6X+Xl = L <.n.m.m.m.m.z.&.] ] I  .] ] I  .I ] I I ..@.+.+.-.+.-.+.+.-.+.+.-.,.<.x.x.m.c.<.2.:.:.:.I = x +X6X1X1X1X1X1X",
"1X1X6X1X1X1XOXF a { &.l.n.n.m.m.1.&. . ... . . ....... ....... . ... . . . . . . ...O.<.n.n.m.m.n.<.,.:.-...' a F OX1X1X1X1X1X1X",
",X1X6X1X1X1X<X%Xg.n 7 ..<.n.M.M.k.8 : - - - < - - : ; < - : - < - - - - - : - : - - 8 &.1.n.m.m.n.n.1.2. .7 n g.+X:X1X,X1X6X1X1X",
"1X1X1X1X1X3X2X4XoXx = [ 2.v.m.M.k.8 - - = O + t j j j j j j j j j j j j j j j j p + :  .<.n.m.m.M.M.v.:.' @ v oX4X2X3X1X1X1X1X1X",
"6X1X1X1X3X4X4X4X#Xv = ] ,.c.m.m.v.@.I  .K = 2 a.T.T.T.T.T.T.T.T.R.T.T.T.T.T.R.T.F 2 :  .<.n.n.m.m.m.c.2.' = v %X4X4X4X3X1X1X1X6X",
"1X1X1X3X3X4X4X4X$XF l { %.,.n.n.1.,.:.:. .- j T.4X5X4X4X4X4X4X4X4X4X4X4X5X4X5X2XoXZ f P @.z.M.m.m.m.v.,.' % x %X4X4X5X3X3X1X1X1X",
",X1X3X5X5X4X2X4X<X#XK.n 7 &.,.<.2.2.;.;. .- j T.4X4X4X5X4X4X4X4X4X4X4X4X2X4X4X4X<XoXf.f 8 7.m.m.m.m.n.2.I % M #X2X4X4X4X5X5X1X,X",
"1X3X3X5X5X2X4X5X4X4X%XF a {  . . . . . .{ f Z #X4X4X4X4X4X4X4X4X4X4X4X4X4X4X4X4X4X4XR.Z n 9.6.6.&.6.&. .{ l F $X4X4X2X4X5X3X1X,X",
"3X5X4X4X4X2X4X5X4X4X<X#Xg.m - & - - % - f f.#X<X4X4X4X4X4X4X4X4X4X4X4X4X4X4X4X4X4X4X<XoXs.f ; < < - < - n K.%X2X4X4X2X4X4X4X3X3X",
"5X4X4X4X5X4X4X5X4X4X2X2XoXx       o o o j T.4X4X4X4X4X4X4X4X4X4X4X4X4X4X4X4X4X4X4X4X4X4XU.j o o + o o + v oX2X4X5X5X4X4X4X4X5X9X"
};
