/* XPM */
static char *Brown1711481215_11_1711991638[] = {
/* columns rows colors chars-per-pixel */
"64 64 226 2 ",
"   c #211E2F",
".  c #221F30",
"X  c #2B1F32",
"o  c #361E34",
"O  c #3C1E35",
"+  c #22202E",
"@  c #232131",
"#  c #2C2735",
"$  c #332232",
"%  c #332933",
"&  c #312D3B",
"*  c #3E2836",
"=  c #3B323A",
"-  c #421E38",
";  c #4F1E3B",
":  c #411D37",
">  c #591E3E",
",  c #511F3A",
"<  c #422434",
"1  c #4F2437",
"2  c #4B2938",
"3  c #552A37",
"4  c #562639",
"5  c #483536",
"6  c #583D36",
"7  c #573A37",
"8  c #672E37",
"9  c #6F273B",
"0  c #692E39",
"q  c #64293A",
"w  c #762B3D",
"e  c #6C3938",
"r  c #7A323D",
"t  c #74313B",
"y  c #631D3F",
"u  c #684736",
"i  c #6B4B39",
"p  c #754839",
"a  c #7C543B",
"s  c #353243",
"d  c #3D3943",
"f  c #6E1C42",
"g  c #601D40",
"h  c #7A1C46",
"j  c #423B43",
"k  c #443A4B",
"l  c #583A44",
"z  c #5F2847",
"x  c #753C45",
"c  c #722E4A",
"v  c #5E1E40",
"b  c #51474D",
"n  c #544A4D",
"m  c #5B434B",
"M  c #494856",
"N  c #474855",
"B  c #534651",
"V  c #77494D",
"C  c #665857",
"Z  c #795556",
"A  c #75544A",
"S  c #6C615B",
"D  c #74675F",
"F  c #74665C",
"G  c #7E614B",
"H  c #705166",
"J  c #786962",
"K  c #756877",
"L  c #8D2A3F",
"P  c #84293E",
"I  c #8A353E",
"U  c #96393E",
"Y  c #972E3F",
"T  c #8C5B39",
"R  c #885538",
"E  c #955938",
"W  c #874C33",
"Q  c #9E643A",
"!  c #B16F3D",
"~  c #AE6D3C",
"^  c #B75A31",
"/  c #D66B34",
"(  c #D66932",
")  c #C1793E",
"_  c #CB783B",
"`  c #D7723C",
"'  c #DB7639",
"]  c #CC6936",
"[  c #861D48",
"{  c #861D47",
"}  c #911B4B",
"|  c #9B1B4C",
" . c #A31F4E",
".. c #A31F50",
"X. c #882941",
"o. c #9D2B42",
"O. c #952943",
"+. c #853843",
"@. c #9D3941",
"#. c #993741",
"$. c #AE234C",
"%. c #A92B45",
"&. c #BC2E46",
"*. c #B2294C",
"=. c #B62949",
"-. c #A43B41",
";. c #AE3D42",
":. c #A83243",
">. c #B83746",
",. c #A5305D",
"<. c #BA3A56",
"1. c #C22C49",
"2. c #C92F48",
"3. c #CB3347",
"4. c #CC3148",
"5. c #CC3A4A",
"6. c #C43649",
"7. c #D23649",
"8. c #D53B49",
"9. c #DA3E49",
"0. c #D63B47",
"q. c #924044",
"w. c #88484D",
"e. c #BA4347",
"r. c #AA4145",
"t. c #816653",
"y. c #83685B",
"u. c #8F6C53",
"i. c #B77846",
"p. c #A67555",
"a. c #8E4A68",
"s. c #AD436D",
"d. c #B74E70",
"f. c #826E66",
"g. c #846D66",
"h. c #84756A",
"j. c #8C766A",
"k. c #937D72",
"l. c #8E7B70",
"z. c #AD6A7B",
"x. c #C14245",
"c. c #CD4449",
"v. c #D24647",
"b. c #D44449",
"n. c #DC434A",
"m. c #DB4748",
"M. c #C94257",
"N. c #E1464A",
"B. c #E44A4A",
"V. c #E34947",
"C. c #E5534E",
"Z. c #E65852",
"A. c #DB7C44",
"S. c #CD774E",
"D. c #E9665B",
"F. c #EE7C69",
"G. c #F17E6B",
"H. c #C35B76",
"J. c #D6833E",
"K. c #E2833D",
"L. c #958474",
"P. c #9B8576",
"I. c #A38D7B",
"U. c #AB8E7D",
"Y. c #A5927D",
"T. c #AC987F",
"R. c #A68363",
"E. c #DA8748",
"W. c #D38E59",
"Q. c #D59359",
"!. c #E78D41",
"~. c #E88D42",
"^. c #E8944A",
"/. c #E4945A",
"(. c #E38E54",
"). c #CC9C6B",
"_. c #E69B61",
"`. c #F18B72",
"'. c #DFAE76",
"]. c #DFAD78",
"[. c #D9A36C",
"{. c #EBA767",
"}. c #EBB377",
"|. c #F2BC7E",
" X c #E5AF73",
".X c #7B7984",
"XX c #BF6E8E",
"oX c #AE7288",
"OX c #987989",
"+X c #CA728C",
"@X c #99959D",
"#X c #918689",
"$X c #AA9580",
"%X c #B59B85",
"&X c #B9A389",
"*X c #B6A088",
"=X c #9A99A1",
"-X c #AFAEB4",
";X c #AAA7AD",
":X c #CA839F",
">X c #C5AE8F",
",X c #CAA88F",
"<X c #C6AF90",
"1X c #C9AA91",
"2X c #D3AF95",
"3X c #CBB293",
"4X c #C7B091",
"5X c #D5B296",
"6X c #D6B599",
"7X c #D7BD9A",
"8X c #D9BC9B",
"9X c #D5BC97",
"0X c #C7B18F",
"qX c #D296AF",
"wX c #CC89A4",
"eX c #DAAABD",
"rX c #CAAFAE",
"tX c #D2B2C1",
"yX c #CECCD0",
"uX c #E7C7D4",
"iX c #EDD6E0",
"pX c #F6EAEE",
"aX c #FFFFFF",
"sX c #F5F4F4",
"dX c #F1EDEE",
"fX c #DEDEE0",
/* pixels */
"7X7X7X8X7X9X7X8X7X7X7X7X7X7X7X7X7X7X7X7X7X7X8X7X7X7X7X8X7X7X7X7X7X7X7X7X7X7X7X7X7X7X7X7X7X7X7X7X7X7X7X7X7X7X7X7X7X7X7X7X7X7X7X7X",
"8X7X7X8X7X7X7X7X7X8X7X7X7X7X7X7X8X8X7X7X7X7X7X7X7X7X7X7X8X8X7X7X7X7X8X7X7X7X7X7X7X7X7X7X7X7X7X7X7X7X7X7X7X7X7X7X7X7X7X7X8X7X7X7X",
"7X8X7X9X3X0X>X4X0X<X3X7X7X7X7X7X7X7X7X7X7X8X7X7X7X7X7X7X8X8X8X9X7X7X7X7X7X7X7X7X7X7X7X7X7X7X7X7X7X7X7X7X9X0X>X>X4X<X4X7X7X7X7X7X",
"7X7X8X&Xk.D D F F J P.9X7X7X7X7X7X7X7X7X7X7X7X8X7X7X9X8X8X8X9X9X6X7X7X8X8X7X7X7X7X7X7X7X7X7X8X7X7X7X7X9XP.D D F J D l.&X7X7X7X7X",
"7X7X9XY.n . . . . . J 3X7X7X7X7X8X8X8X7X7X8X8X9X7X7X7X7X8X8X6X3X5X6X9X7X8X8X8X7X7X7X7X7X7X7X7X8X7X7X8X<XJ       .   n T.7X7X7X8X",
"7X&XL.y.V r r r r r Z J $X<X7X7X3XY.h.h.h.h.h.h.h.h.h.h.h.h.f.f.J f.h.h.h.h.h.h.h.h.h.h.h.I.3X9X7X3XI.g.V 9 9 9 w r V D L.&X7X7X",
"7XP.b 3 -.b.v.v.b.b.+.5 S &X7X7X&XC & & & & & & & & & & & & & & & & & & & & s & & & & & & S &X8X7X%XS = c 1.&.&.6.5.-.8 n P.7X7X",
"P.g.V t U U @.-.>.n.-.t V h.L.L.j.A 8 0 8 8 0 0 8 8 0 0 0 0 0 8 8 8 0 0 0 0 8 8 8 0 8 8 0 A j.P.L.j.V q Y 4.=.Y Y U I 0 V y.P.&X",
"b V r.:.8 < < 2 Y 5.5.x.q.l j j l q.x.x.x.e.x.x.x.x.x.x.x.x.x.x.x.x.x.x.x.x.x.x.x.x.x.e.x.q.l j j l X.%.&.3.L 1 < < 8 U ;.x b L.",
"% 3 U W u 6 6 6 r :.>.b.;.q 3 3 t ;.V.B.B.B.B.B.B.B.B.B.B.B.B.B.B.B.B.B.B.B.B.B.B.Z.Z.C.B.;.t 3 3 q P o.o.o.r 6 6 6 p U #.3 & J ",
"& $ 2 e E ! ! ~ p 1 L 3.&.%.o.;.e.v.B.B.B.B.B.B.B.B.B.B.B.B.B.B.B.B.B.B.B.B.B.B.V.D.F.D.C.v.>.;.r.U t 3 1 1 p ~ ! ! Q u 2 % & h.",
"& $ = a i.^.^.E.a   9 &.3.7.7.n.B.B.B.B.B.V.B.B.B.B.B.B.B.B.B.B.B.B.B.B.B.B.B.B.B.D.`.D.C.B.C.C.Z.c.r * $ + a E.^.^.i.p = % & h.",
"& 6 T i.Q.{.{.[.t.@ 9 &.8.9.n.B.B.B.B.B.B.B.B.B.B.B.B.B.B.B.B.B.B.B.B.B.B.B.B.B.B.Z.D.Z.B.Z.D.F.F.D.e.I 3 @ G [.{.{.Q.i.T 6 & h.",
"= i ! W.[.}.|.'.t.+ 9 &.7.N.B.B.B.B.B.B.B.B.B.B.B.B.B.B.B.B.B.B.B.B.B.B.B.B.B.B.V.B.B.V.V.D.G.`.`.`.D.v.r @ t. X|. X[.W.! i = L.",
"j.F a a G u.).'.t.  9 &.0.n.B.B.B.B.B.B.B.B.B.B.B.B.B.B.B.B.B.B.B.B.B.B.B.B.B.B.B.B.B.B.B.Z.`.`.`.`.D.v.r @ G '.).R.G a a F L.T.",
"7XL.b @   b p.'.t.  9 &.7.N.B.B.C.B.B.B.B.B.B.B.B.B.B.B.B.B.B.B.B.B.B.B.B.B.B.B.B.B.B.B.B.D.G.`.`.F.D.v.e @ G '.R.d   + b L.9X9X",
"7X*Xh.J D D y.u.w.9 o.5.n.V.B.B.B.B.B.B.B.B.B.B.B.B.B.B.B.B.B.B.B.B.B.B.C.B.B.B.B.B.B.B.B.Z.D.D.D.D.Z.m.-.r w.u.u.J J J h.*X9X7X",
"9X9X4X0X0XT.C 5 P 1.5.m.B.B.B.B.B.B.B.B.B.B.B.B.B.B.B.B.B.B.B.B.B.B.B.B.B.B.B.B.B.B.B.B.B.C.C.C.B.C.B.B.m.b.q.= S $X&X<X3X9X9X7X",
"7X7X7X7X7X*XC % w 4.9.N.B.B.B.B.B.V.B.B.B.B.B.B.B.B.B.B.B.B.B.B.B.B.B.B.B.B.B.B.B.B.B.B.B.B.B.B.B.B.B.B.B.B.+.X C *X7X7X7X7X7X7X",
"7X7X7X9X7X*XC $ w 4.9.V.B.B.B.B.B.B.B.B.B.B.B.B.B.B.B.B.B.B.B.B.B.B.B.B.B.B.B.B.B.B.B.B.B.B.B.B.B.B.B.B.V.V.I # C *X7X7X7X7X7X7X",
"7X7X7X3X%XL.V 4 o.7.9.9.N.B.B.B.B.B.B.B.B.B.B.n.8.8.5.c.c.8.n.B.B.B.B.B.B.B.B.B.B.B.B.B.B.B.B.B.B.m.n.8.5.b.O.z V k.*X0X7X7X7X7X",
"7X7X7X%XJ m +.o.6.N.9.7.9.N.B.B.B.B.B.B.B.B.B.8.1.=.*.*.*.*.5.B.B.B.B.B.B.B.B.B.B.B.B.B.B.B.B.B.B.m.6.=.$.*.} X.z b D *X7X7X7X7X",
"9X7X8XY.n < X.4.9.B.9.7.9.N.B.B.B.B.B.B.B.n.b.M.s.s.s.s.s.s.<.b.N.B.B.B.B.B.B.B.B.B.B.B.B.B.B.B.n.8.d.s.s.s.s.s.c j n Y.7X7X7X7X",
"7X7X8XY.n < X.4.9.B.N.n.N.N.B.B.B.B.B.B.B.b.=.H.qXeXeXeXeXeX+X*.7.N.B.B.B.B.B.B.B.B.B.B.B.B.V.b.6.d.+XeXeXeXeXeXOXk N $X7X7X7X7X",
"7X7X7XY.n < L 4.9.B.B.B.N.B.B.B.B.B.B.B.B.6...XXiXaXaXaXaXdXwX,.<.b.b.b.v.v.v.v.v.v.v.v.v.v.v.6.$.s.eXaXaXaXaXaX-XM n Y.8X9X7X7X",
"7X7X7XY.n < L 4.9.V.N.9.7.9.9.N.B.B.B.B.B.6...+XiXaXaXaXaXsXuXqXoX+.r r r r r r r r r r r r r w q H -XaXaXaXaXaX-XM n Y.8X9X7X7X",
"7X9X9XY.n : L 4.9.B.9.4.4.4.7.n.B.B.B.B.B.<...XXiXaXaXaXaXaXaXsX=Xs . . @ @ @   . . . . .     .   N -XaXaXaXaXaX-XM B Y.7X7X7X7X",
"7X7X7XY.b < L 4.9.B.9.4.4.4.7.n.B.B.B.B.B.6...XXiXaXaXaXaXsXyX=Xl.J t.t.F G y.G t.t.t.t.t.t.t.t.t.g.#X;XyXaXaXaX-XM B Y.7X8X7X7X",
"7X7X7X$Xn * L 4.9.B.9.7.4.4.7.N.B.B.B.B.B.6...XXiXaXaXaXaXdX@X& f.).]. X X X].'.].].].].].].].].'.).C M ;XaXaXaX-XM n Y.8X8X8X8X",
"7X7X7XY.n : L 4.9.B.9.9.0.4.9.V.B.B.B.B.B.6...XXiXaXaXdXyX;XL.A p./._._.{.}.|.8X|.|.|.|.|.}._._./.Q.u.F #X-XyXsX-XM b U.8X7X7X7X",
"7X7X7XY.b < L 4.9.B.V.V.N.N.N.N.B.B.B.B.B.6...+XiXsXaXfX.XM j.[.W.A.' ` ~.{.|.|.|.|.|.|.|.{.A.` ` A.W.).g.M =XsX-XM n I.7X7X7X7X",
"7X0X$Xf.j < P 1.9.B.B.B.V.V.B.B.B.B.B.B.B.5.$.d.eXuXuXqXK # u.}.E./ ( / A._.{.{.|.|.|.}.{.(.' ( ] ` _.].t.X K tX#Xk k J $X0X7X7X",
"8X$XC N & o h *.8.B.B.B.B.B.V.B.N.C.B.B.N.8.1.<.d.XXd.a.l % u./.A./ / ' J.A.(.{.|.|.|._.E.' A.' ( ` /. Xt.  l d.H < # j C U.8X8X",
"%Xj.l < < 4 X.$.6.B.B.B.B.B.V.B.B.B.B.B.C.9.8.1. ...$.{ > % R ~._ ^ ] K.K./ ` /.|.|.|././ ' !.K./ ` _. Xt.  g | h * X o l g.%X1X",
"S V #.@.@.-.>.5.n.B.B.B.B.B.B.V.B.B.B.N.B.N.n.5.1.1.1.%.> % T ~.~ e E _ K./ ` _.|.|.|./.( / !.K./ / _.].t.+ 9 %.h < * 9 +.x S $X",
"= c x.B.B.B.B.B.B.N.B.B.B.B.B.B.N.N.n.N.N.n.N.8.2.2.2.%.4 % T ~.R % u ) K./ ` _.|.|.|./.( ` K.' ] S./.'.t.+ 9 &.X.< 3 o.$.q * J ",
"I r.m.B.B.B.B.B.N.9.9.B.B.B.B.V.N.5.<.=.&.<.&.=.$.$.$.| 4 % T ~.T % u ) K./ ' _.|.|.|././ / K._ R W i.Q.G + w 3.Y < 1 o.&.o.c V ",
"v.B.V.B.B.B.B.B.9.2.9.N.B.V.B.B.n.*.| ..| | | |  .| | { ; % T ~.T $ u ) K.( ` _.|.|.|.(.( ' K.! 6 5 Q J.a + r v.@.< 1 o.4.4.1.9 ",
"v.B.V.B.n.9.9.8.2.=.6.N.B.B.c.-.,.z.:X:X:X:X:X:XwX+X:XoXB % E ~.T % 5 a R W E S.{.{.{.i.W W T u = 5 Q J.a   t v.@.< 1 o.4.4.&.9 ",
"v.B.B.n.8.4.4.4.*...1.N.B.B.r.8 B ;XpXpXpXpXpXpXpXpXpXyXK % T ~.T % + $ % % 5 ~ ^.~.^.T 5 % % # + 5 Q J.a   r v.U 2 1 Y 4.4.&.9 ",
"5.m.n.0.3.4.1.=.$.$.4.N.B.B.;.3 d .X-X-X-X-X-X-X-X-X-X=XH > p E R p u u u u a ! ~.~.~.! p u u u u i E E p q #.m.@.2 1 o.4.4.&.9 ",
"6.3.7.4.3.2.=. .=.1.7.V.B.B.e.3 # d M M M M M M M M M B c { q 5 a ! ! J.) ) _ J.~.~.~.J.) ) ) ) ) ~ p 5 P :.6.m.U < , Y 4.4.&.9 ",
"Y o.o.o.Y %.$. .=.4.9.N.B.B.;.4 @ o - - - - - - - - - , h } f : i ~ ! ! ! ! ! ! ! ! i.! ~ ! ! ! ! Q e q Y 7.n.B.@.< < w o.o.Y x ",
"3 1 3 1 , q O.1.1.4.9.V.B.B.;.3 # > h h h h h h h h h h } } [ h 0 6 6 6 6 6 7 7 6 6 6 6 6 6 7 7 6 e I o.6.N.n.B.@.2 $ < 1 3 4 Z ",
"b = j d @ < L 4.4.2.9.N.B.B.r.3 o g [ [ [ [ [ [ [ [ { [ [ { [ { y O o o o o O o o o o o o o o o + < L 7.n.B.B.V.@.< # d 5 d b l.",
"k.k.k.Z j : L 4.4.4.9.N.B.B.;.4 X O ; ; > ; ; ; ; ; ; ; ; ; ; ; > f f f f f f f f f f f f f f > $ < #.n.B.B.B.V.@.< d Z k.k.P.%X",
"5X5X5XI.b < L 4.4.4.9.B.B.B.;.3 . s s s s s s s s s s s s s s s z } } } } } } } } } } } } } } h 1 3 -.B.B.B.B.B.@.< b I.6X5X2X6X",
"5X5X5XI.b : L 2.4.4.9.B.B.B.-.2 s K =X=X=X=X=X=X@X=X=X=X=X=X=X=XK z > > > > > > > > > > > 4 > q r @.c.B.B.B.B.B.@.< b I.5X5X5X5X",
"5X5X5XU.B < X.4.4.4.9.N.B.B.>.3 M -XaXaXaXaXaXaXaXaXaXaXaXaXaXaX=Xs .   . . . .         . . . 3 ;.B.B.B.B.B.B.B.U < n I.5X5X5X5X",
"5X5X5X%Xj.Z x X.%.4.7.0.9.B.c.U w.oXqXqXqXqXqXqXqXqXqXqXqXqXqXqXz.+.r r r r r r r r r r r r r U x.B.B.B.B.B.e.U w.Z j.%X5X5X5X5X",
"5X5X5X2X,XU.C < L 4.4.4.0.N.m.m.c.<.,.,.,.,.,.,.,.,.,.,.,.,.,.,.<.c.v.v.v.v.b.v.v.v.v.v.v.v.v.v.B.B.B.B.B.B.U < C U.,X2X5X5X5X5X",
"5X5X5X5X2X$XC o w 4.4.4.7.9.n.V.n.6.*.*.$.$.$.$.$.$.$.$.$.$.$.$.1.b.n.8.n.n.n.9.9.n.n.9.n.n.n.n.B.B.B.B.n.8.I $ C T.5X5X5X5X5X5X",
"5X5X5X5X5X%XC $ w 4.4.3.4.7.7.n.N.n.b.4.1.1.1.1.1.1.1.1.1.1.1.1.6.7.7.7.8.7.7.5.7.7.4.7.7.7.7.0.n.B.B.B.9.7.P o C U.5X5X5X5X5X5X",
"5X5X5X5X2X,Xg.l x Y =.2.7.7.9.N.B.N.n.>.o.o.o.o.o.o.o.o.o.o.o.o.o.o.o.o.o.o.o.o.Y o.Y :.o.Y Y &.b.B.n.n.>.o.x m g.,X5X5X5X5X5X5X",
"5X5X5X5X2X,X%Xk.Z , L 1.7.n.N.B.B.9.6.L 1 1 2 1 1 1 1 1 1 1 1 1 1 1 1 1 1 1 1 1 1 1 , 1 1 1 3 t >.N.9.3.L 1 Z P.%X,X5X5X5X5X5X5X",
"5X5X5X5X2X5X5X,XJ . 9 &.7.n.B.B.N.7.&.9 @ & d j j j j j j j j j j j j j j j j d 5 & . X O : * w e.m.7.&.9 + D <X5X5X5X5X5X5X5X5X",
"2X5X6X5X2X5X6X<XF . 9 &.7.N.V.N.N.7.&.9 @ n l.L.L.P.L.L.L.L.L.P.L.L.L.L.L.L.L.L.l.n @ 1 P L X.:.5.N.0.&.9 @ D >X6X6X5X2X5X5X5X5X",
"5X6X2X6X5X6X9X0XJ . 9 &.0.N.B.B.n.5.%.w & f.0X7X7X7X7X7X7X7X7X7X7X7X7X7X7X7X8X7X<XD   9 &.3.4.7.N.m.3.:.t & J 3X8X6X6X5X5X5X5X5X",
"5X2X2X2X6X8X7X0XF   9 &.0.N.B.B.v.U c Z h.$X6X7X7X7X7X7X7X7X7X7X7X7X7X7X7X7X7X7X>XD . 9 &.4.4.7.n.v.#.c Z h.$X9X8X8X8X5X5X5X5X5X",
"5X5X6X6X6X8X7X0XJ   9 =.7.N.B.B.x.8 # h.7X7X7X7X7X7X7X7X7X7X7X7X7X7X7X7X7X7X7X7X<XD + 9 &.4.4.7.n.x.0 & h.7X7X7X8X8X8X8X5X5X5X5X",
"5X2X5X8X9X7X7X0XJ @ 9 &.7.N.B.B.x.0 & h.7X7X7X7X7X7X7X7X7X7X7X7X7X7X7X8X7X7X8X7X>XD + 9 &.4.4.7.0.>.8 % h.7X9X7X7X7X7X9X8X5X5X2X",
"5X6X8X8X7X9X7X0XJ + 9 &.7.B.B.B.x.0 & h.7X7X7X7X7X7X7X7X7X8X7X7X7X7X7X7X7X7X7X7X0XD @ 9 &.4.4.4.4.%.q & h.9X7X7X7X7X9X7X8X8X5X5X",
"6X6X8X8X7X9X7X3XL.C V X.#.@.:.@.q.A S $X7X7X7X7X7X7X7X7X7X7X7X7X8X7X7X7X7X7X7X7X3XP.C V L L L L X.+.V S Y.9X7X7X7X7X9X7X8X8X6X6X",
"8X8X9X8X7X7X8X9X<X%XJ 2 < < < < b h.&X3X8X7X7X7X7X7X7X7X7X7X7X7X7X7X7X7X7X7X7X7X9X>X&XD 2 : - < - 7 h.*X3X7X7X7X8X8X7X9X7X8X8X8X"
};
