/* XPM */
static char *wall1711542941[] = {
/* columns rows colors chars-per-pixel */
"64 64 232 2 ",
"   c #00010E",
".  c #17090E",
"X  c #000314",
"o  c #02061B",
"O  c #04081B",
"+  c #080B18",
"@  c #1D1316",
"#  c #1E0F11",
"$  c #281919",
"%  c #3B1A12",
"&  c #2E211D",
"*  c #33221C",
"=  c #3A291F",
"-  c #2A1E22",
";  c #2E2422",
":  c #332422",
">  c #3B2B24",
",  c #382B27",
"<  c #3E342A",
"1  c #4E1605",
"2  c #4D1509",
"3  c #4E1A0B",
"4  c #4F1804",
"5  c #511906",
"6  c #51170B",
"7  c #521A0A",
"8  c #541B04",
"9  c #501F10",
"0  c #5D250C",
"q  c #56210F",
"w  c #582915",
"e  c #4C2816",
"r  c #61270D",
"t  c #632A0E",
"y  c #682D0B",
"u  c #6D320E",
"i  c #642C13",
"p  c #692F13",
"a  c #642917",
"s  c #6C3314",
"d  c #6C341A",
"f  c #6E391B",
"g  c #633319",
"h  c #713614",
"j  c #753A15",
"k  c #72361B",
"l  c #753C1B",
"z  c #7A3E1C",
"x  c #793F17",
"c  c #72370D",
"v  c #4B2F22",
"b  c #413427",
"n  c #42352C",
"m  c #4B372A",
"M  c #433630",
"N  c #453A33",
"B  c #543824",
"V  c #653C22",
"C  c #753D21",
"Z  c #793E22",
"A  c #703620",
"S  c #7D4116",
"D  c #77411E",
"F  c #7D431C",
"G  c #7F4A1E",
"H  c #5D402E",
"J  c #68462B",
"K  c #734224",
"L  c #7C4323",
"P  c #7F4924",
"I  c #7E4628",
"U  c #7F482A",
"Y  c #774928",
"T  c #7E512F",
"R  c #6E5335",
"E  c #715335",
"W  c #735539",
"Q  c #75593C",
"!  c #6F4F33",
"~  c #765B42",
"^  c #81451C",
"/  c #844A1E",
"(  c #894C1F",
")  c #804317",
"_  c #8E501F",
"`  c #814622",
"'  c #844B23",
"]  c #8A4E23",
"[  c #804729",
"{  c #834B2B",
"}  c #894E29",
"|  c #8C5124",
" . c #83512B",
".. c #8D532A",
"X. c #895629",
"o. c #915425",
"O. c #945926",
"+. c #995C26",
"@. c #92552B",
"#. c #955A2B",
"$. c #9A5D2C",
"%. c #824E32",
"&. c #8C5D32",
"*. c #865433",
"=. c #945C32",
"-. c #9A5E32",
";. c #A05E2C",
":. c #9D612C",
">. c #936234",
",. c #9D6233",
"<. c #93643A",
"1. c #9A6A3A",
"2. c #99663A",
"3. c #9C703F",
"4. c #A3642D",
"5. c #A7692E",
"6. c #AB6C2E",
"7. c #B2722F",
"8. c #A36533",
"9. c #A56A33",
"0. c #AB6D33",
"q. c #A26638",
"w. c #A46B3B",
"e. c #AB6E3A",
"r. c #A86731",
"t. c #B16F33",
"y. c #B06F3A",
"u. c #AE7134",
"i. c #AD713B",
"p. c #B37335",
"a. c #B97535",
"s. c #BD7A35",
"d. c #B4753A",
"f. c #B97639",
"g. c #B6793C",
"h. c #BC7B3B",
"j. c #B67935",
"k. c #B06F2D",
"l. c #C27D36",
"z. c #C27E3A",
"x. c #C27736",
"c. c #9E6A41",
"v. c #916D41",
"b. c #A56D42",
"n. c #A96F41",
"m. c #A57344",
"M. c #AC7343",
"N. c #AB7449",
"B. c #AE7A4A",
"V. c #A77748",
"C. c #B27644",
"Z. c #B57A44",
"A. c #BC7E43",
"S. c #B37C4D",
"D. c #B57949",
"F. c #B17C50",
"G. c #C17E41",
"H. c #BE813B",
"J. c #C58236",
"K. c #CA8337",
"L. c #C5823C",
"P. c #CB853C",
"I. c #CD8A3E",
"U. c #D1863C",
"Y. c #D1893D",
"T. c #D48737",
"R. c #D3903F",
"E. c #BF8143",
"W. c #BC894B",
"Q. c #BC8951",
"!. c #C48343",
"~. c #CB8641",
"^. c #C78944",
"/. c #CD8A43",
"(. c #C3854B",
"). c #C48A4B",
"_. c #CB8B4B",
"`. c #C9874B",
"'. c #D28D43",
"]. c #D88E45",
"[. c #D28E49",
"{. c #D58B46",
"}. c #CE914C",
"|. c #D59145",
" X c #D99446",
".X c #D5924A",
"XX c #D9954B",
"oX c #DD9A4C",
"OX c #DA9844",
"+X c #C38C53",
"@X c #CB8E52",
"#X c #C58D59",
"$X c #C58955",
"%X c #C39157",
"&X c #CE9254",
"*X c #C5945B",
"=X c #CC935B",
"-X c #C8995E",
";X c #D39352",
":X c #DB9651",
">X c #D79852",
",X c #DC9B52",
"<X c #D2955A",
"1X c #DB9E5B",
"2X c #D79A59",
"3X c #D08E51",
"4X c #E19B4D",
"5X c #E19E52",
"6X c #E29F5B",
"7X c #DEA15D",
"8X c #DFA155",
"9X c #E5A24E",
"0X c #E4A254",
"qX c #E9A456",
"wX c #E4A45B",
"eX c #E9A659",
"rX c #EBAA5D",
"tX c #E8A958",
"yX c #CC9C64",
"uX c #CA9B65",
"iX c #D59B62",
"pX c #D49A64",
"aX c #DDA265",
"sX c #E2A562",
"dX c #E5A863",
"fX c #ECAC63",
"gX c #E7AB6A",
"hX c #EFB268",
"jX c #F1B265",
"kX c #F2B46B",
"lX c #F6B96C",
"zX c #F4B46C",
/* pixels */
"n N M n n > : - - : < b b N n n b n n N N N N < < < n < b < b n M < N m n , $ $ * > b b n n M M M M b N N N b < < < n n b * + + ",
"W Q Q Q Q J B v v B J Q Q Q Q E E E Q ~ ~ ~ W R W W E E E E E E Q W Q W W J e % m H ! R E W ~ ~ R E R E Q Q Q R E R E ! ! m @ X ",
"-X-XuX*X#XS.<.T { &.B.Q.*X=X%X%X+X%XyXyXpXuXuXuXW.).W.W.).W.).@X-X*X-X%X*XV.J g *.c.W.+X+X+X*XuX%X%X%X%X-XpX*X%X).W.).).Q.v.*   ",
"kXkXhXfXfX;XC.,.=.e._.wXfXjXrXrXeXrXkXlXlXzXgXdXqX9X0X9X9X9X0XqXfXhXjXjXlX&X..C :.A.,XtXeXtXfXfXwXtXwXrXlXlXhXfXqX9XtXqX8XV.=   ",
"tXtX0X0X9X.Xd.-.] +.h..X:X4X X X4X9XeXtX0X5XoX|. X|.|.].].].]. X.XoX9XtXkX<X..k } y.`.XX X XXX:X X X XoXeXtXwX0X|.|.4XR.^.1.*   ",
"oXoX.X.X:X_.e.=.F | 9.h.~./.P.U.'. XoXXX'.'.'.'.~.P.L.P.Y.U.P.L.P.P.|.0XhX<X..f ^ -.z.~./.P.~.P.K.P.K.'.XXoX.X'.L.P.Y.|.^.<.* X ",
".X[..X.XXX_.e.=.L / :.p.z.~.P.U.P.'.'./.P.~.{.'.P.P.J.I.I.I.P.P.J.!.'.oXhX&X{ g ) $.g.K.U.U.K.K.Y.P.L.P.[./.!.z.h.!.|. X/.>.* X ",
"L./.'..X:X_.i.=.D / +.0.s.L.K.K.P.P.K.z.J.P.].].~.L.L./.'.[.~.L.x.l.P..XfX@X| s F #.u.G.~.{.'.Y.Y.K.K.L.'.'.J.s.x.L.'. X/.>.*   ",
"!._..XXX:X[.n.=.L F +.7.l.J.s.J.!.P.L.L.J.P.'./.K.Y.'..X.X_.!.s.j.H.~.,XkX<X] d D #.j.^..X X|. X{.P.l.z.].|./.P.P.K.'.{.L.>.* X ",
"~._.[..X:X3XC.=.L / :.j.s.s.s.h.~././.P.L.L.L.K.U.Y.'.XX|./.L.z.s.L./.oXfX;X' d D ..0.L..XXXXX X'.U.P.L./.'.'.P.P.K.P.'.P.>.* X ",
"/./.'.{.,X;XC.-.P ( :.j.f.f.g.h.I.'..X'.P.J.z.L.K.'.XX.X'.~.L.L.L.P.'.oXtX_.` d D | :.g./.,X,XoXXX'./.P.~.'.'./.L.J.J.P.I.2.* X ",
"P.L.L.'.XX3XC.-.F / :.u.0.p.g.A././.|.~.L.s.s.h.z.~.'./.P.J.z.L.~./.'.XXeX`.] a l ' #.u.A.^._./.]. X'.L.z.K.K.l.h.s.s.l.P.2.* X ",
"z.z.z.P.[._.C.-.P G O.4.4.0.g.L.~.^.L.h.j.6.6.k.f.s.L.L.z.s.z.z.!.!./.XX0X).] p D ] #.5.i.u.j.h./.~.L.z.s.s.z.s.d.p.0.g.^.<.* o ",
"0.6.0.t.g.g.-.] k j ' X.o.:.9.u.a.p.0.5.:.+.O.O.4.4.6.u.0.6.0.u.u.e.g.G._.Z.^ a f G ] O.#.#.$.4.p.u.u.9.4.5.r.5.-.+.$.r.i.*.& o ",
"( ] ( ] o.@.` l i t s l l P / _ ] ( / / S S D G ) / / / ] ] ] ] ] ] | #.8.#.s 0 0 s s D F ^ / / | ] ' / F F ` ' ^ ) ` ' | g # X ",
"z z z F ` ' Z f p 0 s f f C l j j l l f s t s k l l j D z L I Y L K Z Z ' ' g a i s s s l C C z l l l d i s s l F j D D D w # o ",
"[ { [ [ [ [ ` L Z L P I I I L F L ^ ^ z a w a h z [ ` ` { %.%.%.{ ` L L { [ L K F Z Z Z I I U U L L F h w r d F ` ` ` I F w @ o ",
"b.b.q.q.q.,.1.,.$.-.-.8.8.,.8.,.,.$.:.o.s i h z @.,.,.,.q.b.m.b.8.,.,.,.q.8.-.,.;.-.$.-.,.q.q.q.,.$.+.' t i L @.+.;.-.,.+.K $ o ",
"pXiXiX<X3X@X3X&X/.[._.;X3X3X[.[.3X{..XA.' z ` -.E.@X}.&X<XiXsXaX;X_.`._.;X&X_._.`.{.{.[.[.;X;X;X3X`.`.e.S j -.g.G.~._.`.^.<., O ",
"lXzXjXrX5X5X5X5X5X5X5X,X,X,X6X0X6XqXeX3X#.^ ` -.).2X8X8XsXfXkXhXtX5XoXoX0X0X,X:XXXXXXX5XqXeX0XtX4X5X6XA.[ S ,.h.].].XXXX.Xc.< O ",
"0X5X4XOX].'.]. X.XXX.X'.P.~.'.XXOX4X0X_.@.z F @.d.)..X|.XX1X0X5XXX|.Y. X4XXX'.L.z.J.P.].oXoX X|.'.XX6X$X[ k o.6.h.z.!.^.I.2., o ",
" X X].Y.U.P.U.P.|.|.|.!.h.s.J.{.Y.OX4X_.$.z z } 9.h.!.~.'.{.XX|.'.P.P.{.XX{.L.s.f.h.L.L.'.'.Y.P.P.'.aXQ.*.f | 4.0.f.h.h.L.<., O ",
"|.].'.'.U.P.L.L./.'./.!.f.a.z.~.Y. X0X&X>.L l ' 4.g.H.P.~.'.'.|./.L.z.Y.XX].L.s.A.s.h.J.P.U.K.P.K.].7X$X{ f ' ;.e.f.h.h.L.<.; O ",
"'.'.'.].{./.~.~.P./.'.P.l.x.x.P.'.5XrX&X,.I K } 4.d.z.P.P.P.'.'.L.L.L.U.|./.^.L.!.!.z.J.P.U.U.U.'.|.7XQ. .s | 4.g.z.A.!.L.<.: o ",
"I./.'.XXXXXX'.P.L.!.I.P.P.P.P.{..X0XkXiXc.Z Z { 5.h.L.P.L.L.~.^.G.!.~.P./.P.P.U.|.'.!.z.P.P.P.{..XoX8XD.{ d / 1.!.[./.~./.<.: X ",
"P.I./.|.XX.X[./.P.P.P.Y.P.P.P.~.|.oXfX<Xc.L Z } r.h.L.L.z.x.L.z.z.z.z.L.U.U.U.'.|.'.L.z.P.U.U.'. XoXoXA.[ g P :.`.:X.X_.~.<.& X ",
"L.L.L.~.^._.}..X'.Y.K.P.K.P.J.l.~.XXwX;X2.I F } 9.p.s.s.s.s.x.z.J.L.I.I.Y.P.U.Y.Y.I.l.l.K.U.K.Y. XoX,XE.' d ' :.E..XXXXXI.<.: X ",
"L.J.h.h.h.H.L.^.].'.U.P.P.L.z.s.H./.,X).-.F l ' :.u.u.7.a.s.h.s.z.J.K.K.K.K.J.J.K.J.s.a.z.P.U.P.Y.'.oXE.F s P :.d.^..X.X/.#.& X ",
"h.h.p.u.6.u.g.!.~.L.z.x.x.h.g.p.d.!.2X`.=.Z z } :.9.6.6.j.d.s.h.x.f.h.s.s.s.z.z.x.f.p.p.f.x.x.x.z./.XXA.` s [ $.e.G._._.L.X.& X ",
"4.4.:.O.O.O.:.r.r.0.0.4.9.8.8.8.:.i.G.y.} k s x ( | _ +.:.:.4.4.r.8.4.:.8.r.8.r.r.4.$.:.4.4.r.r.4.t.G.n.x i l ' @.:.e.e.5.Y $ X ",
") ) F j f D S / ) F ) F F ) P F P ' @.] h r r y s S j S F F ) ) ^ S x S F F F x ) F S F S S F S F ] @.' i q t h l S ` ^ ^ V $ X ",
"F l k s p s l F U ` P P P [ [ U U ` ] ' C A d k l K F Y [ P L ` I l s s s l L ^ L I U I F P ` [ z ] } [ C d d l L ^ [ Z z w @ X ",
"8.$./ l d z #.9.w.b.n.m.b.N.w.w.q.w.9.,.,.,.:.,.:.8.n.m.N.N.w.q.:.@.s s ' @.8.w.w.V.N.N.2.q.b.b.w.q.w.8.9.,.:.q.b.e.q.q.8.Y $ X ",
"(.C.$.` l ' e.E.).@X#X@X#X#X+X$X!.(.!.E.!.!.!.E.E._.#X=X=X#X$XW.G.e.` l @.w.g.(.&X*XuX=X$X$X&X#X`.E.!.G.!.E.A.).*X&X$XE.G.&.$ X ",
",X_.e.} F } g.}.1XwXsXiX1X2X>X>X.X.X.X.X.XXXXXXX,X8XdXgXgX7X,X>X,XW...` #.d._.>X7XgXgXgXwX0X7X8X,X.X.X.X.X.X.X,XgXfXdX1XXX1.: X ",
"4X'.C.@.F ( p.}.5XwXwX5X,X,XXXXXoXXX X.X|.'. X.XoXeXrXfXdX8X4X0XtX&X#.` $.p.~.OXwXfXhXjXfXeXwX,XoXXXXX XOX X.X.XdXrXrXtXoX1.* X ",
"|.~.i.@.z x 4.H.|.oXoX X].'.Y.XX XXX|.~.L.l.L.I. XoX4XoXoXXXoX0XrX<X-.` ..4.z.I./..XXXoXoXoX X'.'.'.].Y.{.I.J.P.:X4X9XoX|.2.& X ",
"|.`.M.@.k h +.a.P.'..X|.{.P.K.L././.~.L.s.f.s.P.'.|.].'.I.~.|.,XfX<X2.Y ' +.p.L.L.L./..X[.'./.I.P.K.P.U.U.l.x.z.'. X|.Y.I.#.; X ",
"wX&XD.-.z l #.d.~..XoXXXXX/.J.z.P.~.~.!.z.x.J.P. X X.X/.P.L.~.:XwX;X,.L G | 5.p.h.h.L.P.x.h.z.K.Y.P.'.P.P.P.z.L.K.Y.{.I.K.&.& X ",
"gX2XQ.=.l j #.i.L.'.,X5XoX'.L.z.l.L.L.~.L.L.K.I.|.XX|.I.L.s.L.'.0X&X>.K F _ :.i.E.!.~.!.z.f.L.'.'.U.K.K.U.P.J.L.U.T.K.K.I.>.*   ",
"fX2XD.=.l D +.f.h.!.^.^..X.X/.P.z.L.P.P.U.K.K.U.P./..X.X^.L.L..XsX<X-.L P X.:.u.L./.}.P.H.L./.>X:XXXL.x.z.U.K.P.I.K.K.U.P.=.* X ",
"wX:XZ.=.D S 4.s.h.L.L.^././.P.L.L.~.I.Y.Y.U.U./.P.I.|././.P.P.XXsX<X>.L P | 5.d.^.}..X/.~.P./..X:XXXP.l.P.~.I./.P.K.P.T.P.=.* X ",
"4X'.d...l F 4.s.l.l.l.l.L.H.h.h.~.'.'.|.Y.P.K.P.J.L.L.L.~.P.'.9XtX;X-.S P | r.h./.'.|./.~.~.~.P.!.G.z.l.P.{. X XJ.z.L.Y.P.>.* X ",
" X/.i.@.j x 4.g.z.z.z.f.H.j.p.g.z.~./.~.L.L.J.L.z.h.H.s.L.L./.,XwX;X#.L ` ..e.A.!.^.~.!.L.J.z.s.a.f.h.z.z.'..X/.f.p.s.l.L.X.* X ",
"'.(.e...k j @.t.f.f.t.y.0.4.5.9.p.g.h.j.p.6.k.p.g.f.t.0.p.f.s.`.,X+X#.P ` @.0.d.i.d.p.p.j.u.0.r.,.5.0.p.p.h.z.h.d.0.5.u.u.T $ X ",
"d.d.-.` p y ^ o.+.+.+.#.o.| X.#.#.,.,.$.o.o.o.+.$.+.#.+.#.$.;.r.A.M.} K Y  .=.$.X.O.O.#.+.>.#.@.| | #.:.+.;.8.:.#.o.( _ ..K $ X ",
"' ' x p 8 8 p h j l j j j c u s j j j j u s u s j j j h j j j ) | ' d i p s D l s s h h j j j h s u j l j j l j c u u u D w #   ",
"} ` L C k d Z Z L ` I Z Z l l l f s d k l l l L L L ` L I L Z I ] *.Y Z K L [ L L Z l L L L z l i i d L L C L L F L K f D w # X ",
"e.e.e.e.0.e.n.C.S.F.B.C.e.9.e.-.' ^ I } 8.y.0.i.N.S.S.S.N.e.e.d.S.B.B.M.M.i.B.B.C.i.e.e.y.e.y.@.g d -.0.i.r.0.C.B.B.M.w.0.T $ o ",
"`.`.`.`._.@X=X<X-XpX=X=X)._.3X!.$.} } -.Z.~.!._.&X<XpXaXpX<X@X_.=X=X&X&X).$X=X<X;X_._.).`.^._.i.k k 8.A.@X_.!.+X*X&X@X).).<.& X ",
"'.'.'.|.XX,X1X8X:X.X[.[.'.|.,X/.q.@.] -.g.~.'..X.X:XwXsXsXwX2X.X.X.X.X'./.[..X2X6X,XoX.X|.OXoXh.z h 8.!.>X>X/.E..X}..XXXoXV.> X ",
"Y.].Y.]. XXXoXoXoXoX].].R.oXwX:Xn.@.' o.f.P.U.'..X,X0XeXwXwX5X.X.X.X'.'. X.X'.|.oXoX X'.|.OX5X!.P j :.h.}.XXI.!.'.'.|. XoXm.=   ",
"U.U.Y.P.P.~.'.}.XX{.Y.Y.|.4XfXwXS.=.' o.t.P.I.|.XXoXoXoXoXXX'.'././.~.'.XX.X^.z.~.'.'.{.Y. X0X!.L h +.s.).XXXXXX'.Y.Y.'.R.1.* X ",
"~./././.~.L.!.`.[.'.'.'. XtXkXaXF.=.} o.f.L.K.~.'..X.X.X'.[.[.'.~.!.!.'.:X[.~.h.z.K.U.P.'.|.1X`.I s o.6.h./. X:X{.Y.U.U.I.>.* o ",
"P./.'./.P.J.L.L.L./.L.{.|.tXhX7XC.#.^ o.d./.~.^.h.!.L.P.~././.~.z.s.x.L.~.L.z.s.L.K.U./.'.OXsX@X[ k o.5.y.z.I.'.Y.K.~.~.L.<.> o ",
"L./. X|./.P.z.z.l.K.P.Y. X0XfX,XN.#./ o.g._.L.H.h.h.!.!./././.L.x.s.z.J.x.l.z.P.~.K.K.U.|.oXfX;X[ h } 4.0.s.K.~.K.l.J./.^.1., + ",
"P.U./.'.Y.I.K.P.P.K.U.U./.,XdX6XB.-.U | 9.h.H.H.L.L.L.~./././.P.L.L.L.P.P.P.P.P.K.Y.U.Y.4XqXfX`.Y u G :.k.s.P.P.l.f.e.z.}.3.> + ",
"I.U.U.U.K.L.P././.P.U.Y.K.XXeX2XD.=.F ' +.u.g.h.~.`.^.!.z.J.P.P.P.P.K.K.P.K./.'.P.L.P.{.4X5XfX_.U t G :.k.s.H.h.a.s.h.J.}.3.> O ",
"U.'.'.P.L.L.L./. X|.Y.K.K.|.6X.XM...x P #.6.j.L.>X;X`.h.g.f.s.P.K.K.I.U./.].XXXX!.L.z./.{. XwX~.[ u ..,.6.k.k.s./.;X_.~.^.1.> O ",
"z.l.z.z.s.s.h.!.~./.J.l.l./.XX'.e.| k D O.,.i.!.}.).A.d.4.5.7.j.l.J.J.l.z.~././.h.a.f.z.l.Y.,Xz.F u X.:.4.4.5.u.^.&X^.L.h.>.: o ",
"p.k.t.t.0.r.0.u.0.f.t.t.t.f.`.`.9.} j D X.,.0.y.u.0.3.,.:.:.4.6.k.t.f.t.t.t.e.6.r.9.0.t.p.L.@Xh.` y F ..:.4.:.1.9.i.i.g.i. .$ o ",
"o.o.o.o.o.] ' / / ] | | o.+.q.q...F p d K } ....] ] X.' ` ` / | ] ] o.] ] o.] / } ' ..| o.:.e.,.k 0 s D ' ( ] X.'  .X.X...V $ X ",
"y r y r i i t 0 r t i t t p k h i q 7 7 0 i s g t w 0 t r 0 r t t t i i i t t 0 t t i t t u k s 7 1 q 0 r 0 i g i g g i w 9 . X ",
"6 6 6 6 6 5 2 3 1 1 5 5 5 5 8 6 4 1 2 1 4 8 7 7 6 1 1 4 1 2 6 6 5 6 5 5 3 1 1 4 2 6 3 2 5 4 7 7 2 2 2 2 5 5 q 3 7 3 q 3 3 % . X "
};
